G04 #@! TF.GenerationSoftware,KiCad,Pcbnew,9.0.5*
G04 #@! TF.CreationDate,2025-12-04T19:24:20-05:00*
G04 #@! TF.ProjectId,Commodore 7,436f6d6d-6f64-46f7-9265-20372e6b6963,rev?*
G04 #@! TF.SameCoordinates,Original*
G04 #@! TF.FileFunction,Copper,L2,Inr*
G04 #@! TF.FilePolarity,Positive*
%FSLAX46Y46*%
G04 Gerber Fmt 4.6, Leading zero omitted, Abs format (unit mm)*
G04 Created by KiCad (PCBNEW 9.0.5) date 2025-12-04 19:24:20*
%MOMM*%
%LPD*%
G01*
G04 APERTURE LIST*
G04 #@! TA.AperFunction,ComponentPad*
%ADD10R,1.500000X1.050000*%
G04 #@! TD*
G04 #@! TA.AperFunction,ComponentPad*
%ADD11O,1.500000X1.050000*%
G04 #@! TD*
G04 #@! TA.AperFunction,ComponentPad*
%ADD12R,1.700000X1.700000*%
G04 #@! TD*
G04 #@! TA.AperFunction,ComponentPad*
%ADD13C,1.700000*%
G04 #@! TD*
G04 #@! TA.AperFunction,ViaPad*
%ADD14C,0.600000*%
G04 #@! TD*
G04 APERTURE END LIST*
D10*
X158610000Y-91270000D03*
D11*
X158610000Y-90000000D03*
X158610000Y-88730000D03*
D12*
X172500000Y-125520000D03*
D13*
X175040000Y-125520000D03*
X172500000Y-122980000D03*
X175040000Y-122980000D03*
X172500000Y-120440000D03*
X175040000Y-120440000D03*
X172500000Y-117900000D03*
X175040000Y-117900000D03*
X172500000Y-115360000D03*
X175040000Y-115360000D03*
X172500000Y-112820000D03*
X175040000Y-112820000D03*
X172500000Y-110280000D03*
X175040000Y-110280000D03*
X172500000Y-107740000D03*
X175040000Y-107740000D03*
X172500000Y-105200000D03*
X175040000Y-105200000D03*
X172500000Y-102660000D03*
X175040000Y-102660000D03*
X172500000Y-100120000D03*
X175040000Y-100120000D03*
X172500000Y-97580000D03*
X175040000Y-97580000D03*
X172500000Y-95040000D03*
X175040000Y-95040000D03*
X172500000Y-92500000D03*
X175040000Y-92500000D03*
X172500000Y-89960000D03*
X175040000Y-89960000D03*
X172500000Y-87420000D03*
X175040000Y-87420000D03*
X172500000Y-84880000D03*
X175040000Y-84880000D03*
X172500000Y-82340000D03*
X175040000Y-82340000D03*
X172500000Y-79800000D03*
X175040000Y-79800000D03*
X172500000Y-77260000D03*
X175040000Y-77260000D03*
D14*
X155950411Y-99513719D03*
X166700000Y-123310000D03*
X150400000Y-82026100D03*
X145000000Y-111923900D03*
X153640000Y-117870000D03*
X140250000Y-77477799D03*
X145523901Y-92200000D03*
X147696799Y-86400000D03*
X153640000Y-120280000D03*
X154900000Y-135310000D03*
X151210000Y-117900000D03*
X136650000Y-97170000D03*
X152700000Y-123310000D03*
X144400000Y-98476099D03*
X159927799Y-106800000D03*
X153600000Y-108000000D03*
X142800000Y-89600000D03*
X156025000Y-85810000D03*
X155800000Y-106400000D03*
X150800000Y-91175000D03*
X152700000Y-135310000D03*
X148400000Y-91175000D03*
X147000000Y-81853200D03*
X156970000Y-120700000D03*
X148400000Y-89925000D03*
X150800000Y-89925000D03*
X144664701Y-78574701D03*
X159860000Y-118614150D03*
X149000000Y-97200000D03*
X148000000Y-94800000D03*
X156600000Y-102076100D03*
X151727799Y-95750000D03*
X143402201Y-76732201D03*
X151210000Y-120290000D03*
X149103200Y-105400000D03*
X156470000Y-113585000D03*
X168750000Y-118750000D03*
X138655000Y-79650000D03*
X138655000Y-82298700D03*
X143530000Y-80975000D03*
X143530000Y-82272400D03*
X140250000Y-76022201D03*
X157420000Y-113585000D03*
X143530000Y-84025000D03*
X147600000Y-112276300D03*
X152400000Y-112276300D03*
X141800000Y-93137500D03*
X139250000Y-100250000D03*
X144076099Y-92200000D03*
X163670000Y-118614150D03*
X155520000Y-113585000D03*
X143076300Y-102400000D03*
X158472201Y-106800000D03*
X156600000Y-103523900D03*
X144400000Y-99923901D03*
X139512200Y-90900000D03*
X138480000Y-105367200D03*
X139980000Y-105367200D03*
X150800000Y-92425000D03*
X150800000Y-93675000D03*
X165600000Y-135310000D03*
X150000000Y-112276300D03*
X141250000Y-88250000D03*
X150896800Y-105400000D03*
X141155000Y-84051300D03*
X160975000Y-78190000D03*
X136980000Y-105367200D03*
X138655000Y-84051300D03*
X150287500Y-78250000D03*
X147000000Y-83646800D03*
X150400000Y-83473900D03*
X145000000Y-110476100D03*
X165100000Y-78500000D03*
X165600000Y-123310000D03*
X138597800Y-90900000D03*
X137180000Y-92150000D03*
X150000000Y-108042201D03*
X150000000Y-110523700D03*
X136530000Y-98930000D03*
X147600000Y-110508102D03*
X147600000Y-107200000D03*
X141155000Y-82298700D03*
X141155000Y-80375000D03*
X150272201Y-95750000D03*
X146400000Y-94750000D03*
X140000000Y-88500000D03*
X145000000Y-101500000D03*
X170500000Y-92000000D03*
X168500000Y-87500000D03*
X142250000Y-97250000D03*
X151000000Y-97750000D03*
X170500000Y-87500000D03*
X147000000Y-93800000D03*
X142200000Y-91800000D03*
X137850000Y-102650000D03*
G04 #@! TA.AperFunction,Conductor*
G36*
X174574075Y-120632993D02*
G01*
X174639901Y-120747007D01*
X174732993Y-120840099D01*
X174847007Y-120905925D01*
X174910590Y-120922962D01*
X174278282Y-121555269D01*
X174278282Y-121555270D01*
X174332452Y-121594626D01*
X174332451Y-121594626D01*
X174341495Y-121599234D01*
X174392292Y-121647208D01*
X174409087Y-121715029D01*
X174386550Y-121781164D01*
X174341499Y-121820202D01*
X174332182Y-121824949D01*
X174160213Y-121949890D01*
X174009890Y-122100213D01*
X173884949Y-122272182D01*
X173880484Y-122280946D01*
X173832509Y-122331742D01*
X173764688Y-122348536D01*
X173698553Y-122325998D01*
X173659516Y-122280946D01*
X173655050Y-122272182D01*
X173530109Y-122100213D01*
X173379786Y-121949890D01*
X173207817Y-121824949D01*
X173198504Y-121820204D01*
X173147707Y-121772230D01*
X173130912Y-121704409D01*
X173153449Y-121638274D01*
X173198507Y-121599232D01*
X173207555Y-121594622D01*
X173261716Y-121555270D01*
X173261717Y-121555270D01*
X172629408Y-120922962D01*
X172692993Y-120905925D01*
X172807007Y-120840099D01*
X172900099Y-120747007D01*
X172965925Y-120632993D01*
X172982962Y-120569408D01*
X173615270Y-121201717D01*
X173615270Y-121201716D01*
X173654622Y-121147554D01*
X173659514Y-121137954D01*
X173707488Y-121087157D01*
X173775308Y-121070361D01*
X173841444Y-121092897D01*
X173880486Y-121137954D01*
X173885375Y-121147550D01*
X173924728Y-121201716D01*
X174557037Y-120569408D01*
X174574075Y-120632993D01*
G37*
G04 #@! TD.AperFunction*
G04 #@! TA.AperFunction,Conductor*
G36*
X173841444Y-118553999D02*
G01*
X173880486Y-118599056D01*
X173884951Y-118607820D01*
X174009890Y-118779786D01*
X174160213Y-118930109D01*
X174332179Y-119055048D01*
X174332181Y-119055049D01*
X174332184Y-119055051D01*
X174341493Y-119059794D01*
X174392290Y-119107766D01*
X174409087Y-119175587D01*
X174386552Y-119241722D01*
X174341505Y-119280760D01*
X174332446Y-119285376D01*
X174332440Y-119285380D01*
X174278282Y-119324727D01*
X174278282Y-119324728D01*
X174910591Y-119957037D01*
X174847007Y-119974075D01*
X174732993Y-120039901D01*
X174639901Y-120132993D01*
X174574075Y-120247007D01*
X174557037Y-120310591D01*
X173924728Y-119678282D01*
X173924727Y-119678282D01*
X173885380Y-119732440D01*
X173880483Y-119742051D01*
X173832506Y-119792845D01*
X173764684Y-119809638D01*
X173698550Y-119787098D01*
X173659516Y-119742048D01*
X173654626Y-119732452D01*
X173615270Y-119678282D01*
X173615269Y-119678282D01*
X172982962Y-120310590D01*
X172965925Y-120247007D01*
X172900099Y-120132993D01*
X172807007Y-120039901D01*
X172692993Y-119974075D01*
X172629409Y-119957037D01*
X173261716Y-119324728D01*
X173207547Y-119285373D01*
X173207547Y-119285372D01*
X173198500Y-119280763D01*
X173147706Y-119232788D01*
X173130912Y-119164966D01*
X173153451Y-119098832D01*
X173198508Y-119059793D01*
X173207816Y-119055051D01*
X173306297Y-118983501D01*
X173379786Y-118930109D01*
X173379788Y-118930106D01*
X173379792Y-118930104D01*
X173530104Y-118779792D01*
X173530106Y-118779788D01*
X173530109Y-118779786D01*
X173653902Y-118609397D01*
X173655051Y-118607816D01*
X173659514Y-118599054D01*
X173707488Y-118548259D01*
X173775308Y-118531463D01*
X173841444Y-118553999D01*
G37*
G04 #@! TD.AperFunction*
G04 #@! TA.AperFunction,Conductor*
G36*
X177742539Y-74580185D02*
G01*
X177788294Y-74632989D01*
X177799500Y-74684500D01*
X177799500Y-137625500D01*
X177779815Y-137692539D01*
X177727011Y-137738294D01*
X177675500Y-137749500D01*
X132124500Y-137749500D01*
X132057461Y-137729815D01*
X132011706Y-137677011D01*
X132000500Y-137625500D01*
X132000500Y-135231153D01*
X151899500Y-135231153D01*
X151899500Y-135388846D01*
X151930261Y-135543489D01*
X151930264Y-135543501D01*
X151990602Y-135689172D01*
X151990609Y-135689185D01*
X152078210Y-135820288D01*
X152078213Y-135820292D01*
X152189707Y-135931786D01*
X152189711Y-135931789D01*
X152320814Y-136019390D01*
X152320827Y-136019397D01*
X152466498Y-136079735D01*
X152466503Y-136079737D01*
X152621153Y-136110499D01*
X152621156Y-136110500D01*
X152621158Y-136110500D01*
X152778844Y-136110500D01*
X152778845Y-136110499D01*
X152933497Y-136079737D01*
X153079179Y-136019394D01*
X153210289Y-135931789D01*
X153321789Y-135820289D01*
X153409394Y-135689179D01*
X153469737Y-135543497D01*
X153500500Y-135388842D01*
X153500500Y-135231158D01*
X153500500Y-135231155D01*
X153500499Y-135231153D01*
X154099500Y-135231153D01*
X154099500Y-135388846D01*
X154130261Y-135543489D01*
X154130264Y-135543501D01*
X154190602Y-135689172D01*
X154190609Y-135689185D01*
X154278210Y-135820288D01*
X154278213Y-135820292D01*
X154389707Y-135931786D01*
X154389711Y-135931789D01*
X154520814Y-136019390D01*
X154520827Y-136019397D01*
X154666498Y-136079735D01*
X154666503Y-136079737D01*
X154821153Y-136110499D01*
X154821156Y-136110500D01*
X154821158Y-136110500D01*
X154978844Y-136110500D01*
X154978845Y-136110499D01*
X155133497Y-136079737D01*
X155279179Y-136019394D01*
X155410289Y-135931789D01*
X155521789Y-135820289D01*
X155609394Y-135689179D01*
X155669737Y-135543497D01*
X155700500Y-135388842D01*
X155700500Y-135231158D01*
X155700500Y-135231155D01*
X155700499Y-135231153D01*
X155669738Y-135076510D01*
X155669737Y-135076503D01*
X155669735Y-135076498D01*
X155609397Y-134930827D01*
X155609390Y-134930814D01*
X155521789Y-134799711D01*
X155521786Y-134799707D01*
X155410292Y-134688213D01*
X155410288Y-134688210D01*
X155279185Y-134600609D01*
X155279172Y-134600602D01*
X155133501Y-134540264D01*
X155133489Y-134540261D01*
X154978845Y-134509500D01*
X154978842Y-134509500D01*
X154821158Y-134509500D01*
X154821155Y-134509500D01*
X154666510Y-134540261D01*
X154666498Y-134540264D01*
X154520827Y-134600602D01*
X154520814Y-134600609D01*
X154389711Y-134688210D01*
X154389707Y-134688213D01*
X154278213Y-134799707D01*
X154278210Y-134799711D01*
X154190609Y-134930814D01*
X154190602Y-134930827D01*
X154130264Y-135076498D01*
X154130261Y-135076510D01*
X154099500Y-135231153D01*
X153500499Y-135231153D01*
X153469738Y-135076510D01*
X153469737Y-135076503D01*
X153469735Y-135076498D01*
X153409397Y-134930827D01*
X153409390Y-134930814D01*
X153321789Y-134799711D01*
X153321786Y-134799707D01*
X153210292Y-134688213D01*
X153210288Y-134688210D01*
X153079185Y-134600609D01*
X153079172Y-134600602D01*
X152933501Y-134540264D01*
X152933489Y-134540261D01*
X152778845Y-134509500D01*
X152778842Y-134509500D01*
X152621158Y-134509500D01*
X152621155Y-134509500D01*
X152466510Y-134540261D01*
X152466498Y-134540264D01*
X152320827Y-134600602D01*
X152320814Y-134600609D01*
X152189711Y-134688210D01*
X152189707Y-134688213D01*
X152078213Y-134799707D01*
X152078210Y-134799711D01*
X151990609Y-134930814D01*
X151990602Y-134930827D01*
X151930264Y-135076498D01*
X151930261Y-135076510D01*
X151899500Y-135231153D01*
X132000500Y-135231153D01*
X132000500Y-124641457D01*
X140724499Y-124641457D01*
X140752379Y-124781614D01*
X140752381Y-124781620D01*
X140807069Y-124913650D01*
X140807074Y-124913659D01*
X140886467Y-125032478D01*
X140886470Y-125032482D01*
X140987517Y-125133529D01*
X140987521Y-125133532D01*
X141106340Y-125212925D01*
X141106346Y-125212928D01*
X141106347Y-125212929D01*
X141238380Y-125267619D01*
X141238384Y-125267619D01*
X141238385Y-125267620D01*
X141378542Y-125295500D01*
X141378545Y-125295500D01*
X141521457Y-125295500D01*
X141615751Y-125276742D01*
X141661620Y-125267619D01*
X141793653Y-125212929D01*
X141912479Y-125133532D01*
X142013532Y-125032479D01*
X142092929Y-124913653D01*
X142147619Y-124781620D01*
X142175500Y-124641455D01*
X142175500Y-124498545D01*
X142175500Y-124498542D01*
X142147620Y-124358385D01*
X142147619Y-124358384D01*
X142147619Y-124358380D01*
X142092929Y-124226347D01*
X142092928Y-124226346D01*
X142092925Y-124226340D01*
X142013532Y-124107521D01*
X142013529Y-124107517D01*
X141912482Y-124006470D01*
X141912478Y-124006467D01*
X141793659Y-123927074D01*
X141793650Y-123927069D01*
X141661620Y-123872381D01*
X141661614Y-123872379D01*
X141521457Y-123844500D01*
X141521455Y-123844500D01*
X141378545Y-123844500D01*
X141378543Y-123844500D01*
X141238385Y-123872379D01*
X141238379Y-123872381D01*
X141106349Y-123927069D01*
X141106340Y-123927074D01*
X140987521Y-124006467D01*
X140987517Y-124006470D01*
X140886470Y-124107517D01*
X140886467Y-124107521D01*
X140807074Y-124226340D01*
X140807069Y-124226349D01*
X140752381Y-124358379D01*
X140752379Y-124358385D01*
X140724500Y-124498542D01*
X140724500Y-124498545D01*
X140724500Y-124641455D01*
X140724500Y-124641457D01*
X140724499Y-124641457D01*
X132000500Y-124641457D01*
X132000500Y-123231153D01*
X151899500Y-123231153D01*
X151899500Y-123388846D01*
X151930261Y-123543489D01*
X151930264Y-123543501D01*
X151990602Y-123689172D01*
X151990609Y-123689185D01*
X152078210Y-123820288D01*
X152078213Y-123820292D01*
X152189707Y-123931786D01*
X152189711Y-123931789D01*
X152320814Y-124019390D01*
X152320827Y-124019397D01*
X152466498Y-124079735D01*
X152466503Y-124079737D01*
X152590195Y-124104341D01*
X152621153Y-124110499D01*
X152621156Y-124110500D01*
X152621158Y-124110500D01*
X152778844Y-124110500D01*
X152778845Y-124110499D01*
X152933497Y-124079737D01*
X153079179Y-124019394D01*
X153210289Y-123931789D01*
X153321789Y-123820289D01*
X153409394Y-123689179D01*
X153469737Y-123543497D01*
X153500500Y-123388842D01*
X153500500Y-123231158D01*
X153500500Y-123231155D01*
X153500499Y-123231153D01*
X165899500Y-123231153D01*
X165899500Y-123388846D01*
X165930261Y-123543489D01*
X165930264Y-123543501D01*
X165990602Y-123689172D01*
X165990609Y-123689185D01*
X166078210Y-123820288D01*
X166078213Y-123820292D01*
X166189707Y-123931786D01*
X166189711Y-123931789D01*
X166320814Y-124019390D01*
X166320827Y-124019397D01*
X166466498Y-124079735D01*
X166466503Y-124079737D01*
X166590195Y-124104341D01*
X166621153Y-124110499D01*
X166621156Y-124110500D01*
X166621158Y-124110500D01*
X166778844Y-124110500D01*
X166778845Y-124110499D01*
X166933497Y-124079737D01*
X167079179Y-124019394D01*
X167210289Y-123931789D01*
X167321789Y-123820289D01*
X167409394Y-123689179D01*
X167469737Y-123543497D01*
X167500500Y-123388842D01*
X167500500Y-123231158D01*
X167500500Y-123231155D01*
X167500499Y-123231153D01*
X167469738Y-123076510D01*
X167469737Y-123076503D01*
X167469735Y-123076498D01*
X167409394Y-122930820D01*
X167321789Y-122799711D01*
X167321786Y-122799707D01*
X167210292Y-122688213D01*
X167210288Y-122688210D01*
X167079185Y-122600609D01*
X167079172Y-122600602D01*
X166933501Y-122540264D01*
X166933489Y-122540261D01*
X166778845Y-122509500D01*
X166778842Y-122509500D01*
X166621158Y-122509500D01*
X166621155Y-122509500D01*
X166466510Y-122540261D01*
X166466498Y-122540264D01*
X166320827Y-122600602D01*
X166320814Y-122600609D01*
X166189711Y-122688210D01*
X166189707Y-122688213D01*
X166078213Y-122799707D01*
X166078210Y-122799711D01*
X165990609Y-122930814D01*
X165990602Y-122930827D01*
X165930264Y-123076498D01*
X165930261Y-123076510D01*
X165899500Y-123231153D01*
X153500499Y-123231153D01*
X153469738Y-123076510D01*
X153469737Y-123076503D01*
X153469735Y-123076498D01*
X153409397Y-122930827D01*
X153409390Y-122930814D01*
X153321789Y-122799711D01*
X153321786Y-122799707D01*
X153210292Y-122688213D01*
X153210288Y-122688210D01*
X153079185Y-122600609D01*
X153079172Y-122600602D01*
X152933501Y-122540264D01*
X152933489Y-122540261D01*
X152778845Y-122509500D01*
X152778842Y-122509500D01*
X152621158Y-122509500D01*
X152621155Y-122509500D01*
X152466510Y-122540261D01*
X152466498Y-122540264D01*
X152320827Y-122600602D01*
X152320814Y-122600609D01*
X152189711Y-122688210D01*
X152189707Y-122688213D01*
X152078213Y-122799707D01*
X152078210Y-122799711D01*
X151990609Y-122930814D01*
X151990602Y-122930827D01*
X151930264Y-123076498D01*
X151930261Y-123076510D01*
X151899500Y-123231153D01*
X132000500Y-123231153D01*
X132000500Y-120211153D01*
X150409500Y-120211153D01*
X150409500Y-120368846D01*
X150440261Y-120523489D01*
X150440264Y-120523501D01*
X150500602Y-120669172D01*
X150500609Y-120669185D01*
X150588210Y-120800288D01*
X150588213Y-120800292D01*
X150699707Y-120911786D01*
X150699711Y-120911789D01*
X150830814Y-120999390D01*
X150830827Y-120999397D01*
X150952363Y-121049738D01*
X150976503Y-121059737D01*
X151114352Y-121087157D01*
X151131153Y-121090499D01*
X151131156Y-121090500D01*
X151131158Y-121090500D01*
X151288844Y-121090500D01*
X151288845Y-121090499D01*
X151443497Y-121059737D01*
X151589179Y-120999394D01*
X151720289Y-120911789D01*
X151831789Y-120800289D01*
X151919394Y-120669179D01*
X151979737Y-120523497D01*
X152010500Y-120368842D01*
X152010500Y-120211158D01*
X152008510Y-120201153D01*
X152839500Y-120201153D01*
X152839500Y-120358846D01*
X152870261Y-120513489D01*
X152870264Y-120513501D01*
X152930602Y-120659172D01*
X152930609Y-120659185D01*
X153018210Y-120790288D01*
X153018213Y-120790292D01*
X153129707Y-120901786D01*
X153129711Y-120901789D01*
X153260814Y-120989390D01*
X153260827Y-120989397D01*
X153406498Y-121049735D01*
X153406503Y-121049737D01*
X153554482Y-121079172D01*
X153561153Y-121080499D01*
X153561156Y-121080500D01*
X153561158Y-121080500D01*
X153718844Y-121080500D01*
X153718845Y-121080499D01*
X153873497Y-121049737D01*
X153986166Y-121003067D01*
X154019172Y-120989397D01*
X154019172Y-120989396D01*
X154019179Y-120989394D01*
X154150289Y-120901789D01*
X154261789Y-120790289D01*
X154349394Y-120659179D01*
X154365145Y-120621153D01*
X156169500Y-120621153D01*
X156169500Y-120778846D01*
X156200261Y-120933489D01*
X156200264Y-120933501D01*
X156260602Y-121079172D01*
X156260609Y-121079185D01*
X156348210Y-121210288D01*
X156348213Y-121210292D01*
X156459707Y-121321786D01*
X156459711Y-121321789D01*
X156590814Y-121409390D01*
X156590827Y-121409397D01*
X156736498Y-121469735D01*
X156736503Y-121469737D01*
X156891153Y-121500499D01*
X156891156Y-121500500D01*
X156891158Y-121500500D01*
X157048844Y-121500500D01*
X157048845Y-121500499D01*
X157203497Y-121469737D01*
X157349179Y-121409394D01*
X157480289Y-121321789D01*
X157591789Y-121210289D01*
X157679394Y-121079179D01*
X157739737Y-120933497D01*
X157770500Y-120778842D01*
X157770500Y-120621158D01*
X157770500Y-120621155D01*
X157770499Y-120621153D01*
X157755599Y-120546246D01*
X157739737Y-120466503D01*
X157702388Y-120376333D01*
X157679397Y-120320827D01*
X157679390Y-120320814D01*
X157591789Y-120189711D01*
X157591786Y-120189707D01*
X157480292Y-120078213D01*
X157480288Y-120078210D01*
X157349185Y-119990609D01*
X157349172Y-119990602D01*
X157203501Y-119930264D01*
X157203489Y-119930261D01*
X157048845Y-119899500D01*
X157048842Y-119899500D01*
X156891158Y-119899500D01*
X156891155Y-119899500D01*
X156736510Y-119930261D01*
X156736498Y-119930264D01*
X156590827Y-119990602D01*
X156590814Y-119990609D01*
X156459711Y-120078210D01*
X156459707Y-120078213D01*
X156348213Y-120189707D01*
X156348210Y-120189711D01*
X156260609Y-120320814D01*
X156260602Y-120320827D01*
X156200264Y-120466498D01*
X156200261Y-120466510D01*
X156169500Y-120621153D01*
X154365145Y-120621153D01*
X154409737Y-120513497D01*
X154440500Y-120358842D01*
X154440500Y-120201158D01*
X154440500Y-120201155D01*
X154440499Y-120201153D01*
X154417682Y-120086446D01*
X154409737Y-120046503D01*
X154379737Y-119974075D01*
X154349397Y-119900827D01*
X154349390Y-119900814D01*
X154261789Y-119769711D01*
X154261786Y-119769707D01*
X154150292Y-119658213D01*
X154150288Y-119658210D01*
X154019185Y-119570609D01*
X154019172Y-119570602D01*
X153873501Y-119510264D01*
X153873489Y-119510261D01*
X153718845Y-119479500D01*
X153718842Y-119479500D01*
X153561158Y-119479500D01*
X153561155Y-119479500D01*
X153406510Y-119510261D01*
X153406498Y-119510264D01*
X153260827Y-119570602D01*
X153260814Y-119570609D01*
X153129711Y-119658210D01*
X153129707Y-119658213D01*
X153018213Y-119769707D01*
X153018210Y-119769711D01*
X152930609Y-119900814D01*
X152930602Y-119900827D01*
X152870264Y-120046498D01*
X152870261Y-120046510D01*
X152839500Y-120201153D01*
X152008510Y-120201153D01*
X151979737Y-120056503D01*
X151952440Y-119990602D01*
X151919397Y-119910827D01*
X151919390Y-119910814D01*
X151831789Y-119779711D01*
X151831786Y-119779707D01*
X151720292Y-119668213D01*
X151720288Y-119668210D01*
X151589185Y-119580609D01*
X151589172Y-119580602D01*
X151443501Y-119520264D01*
X151443489Y-119520261D01*
X151288845Y-119489500D01*
X151288842Y-119489500D01*
X151131158Y-119489500D01*
X151131155Y-119489500D01*
X150976510Y-119520261D01*
X150976498Y-119520264D01*
X150830827Y-119580602D01*
X150830814Y-119580609D01*
X150699711Y-119668210D01*
X150699707Y-119668213D01*
X150588213Y-119779707D01*
X150588210Y-119779711D01*
X150500609Y-119910814D01*
X150500602Y-119910827D01*
X150440264Y-120056498D01*
X150440261Y-120056510D01*
X150409500Y-120211153D01*
X132000500Y-120211153D01*
X132000500Y-117821153D01*
X150409500Y-117821153D01*
X150409500Y-117978846D01*
X150440261Y-118133489D01*
X150440264Y-118133501D01*
X150500602Y-118279172D01*
X150500609Y-118279185D01*
X150588210Y-118410288D01*
X150588213Y-118410292D01*
X150699707Y-118521786D01*
X150699711Y-118521789D01*
X150830814Y-118609390D01*
X150830827Y-118609397D01*
X150904078Y-118639738D01*
X150976503Y-118669737D01*
X151131153Y-118700499D01*
X151131156Y-118700500D01*
X151131158Y-118700500D01*
X151288844Y-118700500D01*
X151288845Y-118700499D01*
X151443497Y-118669737D01*
X151589179Y-118609394D01*
X151720289Y-118521789D01*
X151831789Y-118410289D01*
X151919394Y-118279179D01*
X151979737Y-118133497D01*
X152010500Y-117978842D01*
X152010500Y-117821158D01*
X152004532Y-117791153D01*
X152839500Y-117791153D01*
X152839500Y-117948846D01*
X152870261Y-118103489D01*
X152870264Y-118103501D01*
X152930602Y-118249172D01*
X152930609Y-118249185D01*
X153018210Y-118380288D01*
X153018213Y-118380292D01*
X153129707Y-118491786D01*
X153129711Y-118491789D01*
X153260814Y-118579390D01*
X153260827Y-118579397D01*
X153406498Y-118639735D01*
X153406503Y-118639737D01*
X153557312Y-118669735D01*
X153561153Y-118670499D01*
X153561156Y-118670500D01*
X153561158Y-118670500D01*
X153718844Y-118670500D01*
X153718845Y-118670499D01*
X153873497Y-118639737D01*
X154019179Y-118579394D01*
X154085166Y-118535303D01*
X159059500Y-118535303D01*
X159059500Y-118692996D01*
X159090261Y-118847639D01*
X159090264Y-118847651D01*
X159150602Y-118993322D01*
X159150609Y-118993335D01*
X159238210Y-119124438D01*
X159238213Y-119124442D01*
X159349707Y-119235936D01*
X159349711Y-119235939D01*
X159480814Y-119323540D01*
X159480827Y-119323547D01*
X159626498Y-119383885D01*
X159626503Y-119383887D01*
X159781153Y-119414649D01*
X159781156Y-119414650D01*
X159781158Y-119414650D01*
X159938844Y-119414650D01*
X159938845Y-119414649D01*
X160093497Y-119383887D01*
X160239179Y-119323544D01*
X160370289Y-119235939D01*
X160481789Y-119124439D01*
X160569394Y-118993329D01*
X160629737Y-118847647D01*
X160660500Y-118692992D01*
X160660500Y-118671153D01*
X167949500Y-118671153D01*
X167949500Y-118828846D01*
X167980261Y-118983489D01*
X167980264Y-118983501D01*
X168040602Y-119129172D01*
X168040609Y-119129185D01*
X168128210Y-119260288D01*
X168128213Y-119260292D01*
X168239707Y-119371786D01*
X168239711Y-119371789D01*
X168370814Y-119459390D01*
X168370827Y-119459397D01*
X168493633Y-119510264D01*
X168516503Y-119519737D01*
X168671153Y-119550499D01*
X168671156Y-119550500D01*
X168671158Y-119550500D01*
X168828844Y-119550500D01*
X168828845Y-119550499D01*
X168983497Y-119519737D01*
X169129179Y-119459394D01*
X169260289Y-119371789D01*
X169371789Y-119260289D01*
X169459394Y-119129179D01*
X169468264Y-119107766D01*
X169488135Y-119059792D01*
X169519737Y-118983497D01*
X169550500Y-118828842D01*
X169550500Y-118671158D01*
X169550500Y-118671155D01*
X169550499Y-118671153D01*
X169544250Y-118639737D01*
X169519737Y-118516503D01*
X169509499Y-118491786D01*
X169459397Y-118370827D01*
X169459390Y-118370814D01*
X169371789Y-118239711D01*
X169371786Y-118239707D01*
X169260292Y-118128213D01*
X169260288Y-118128210D01*
X169129185Y-118040609D01*
X169129172Y-118040602D01*
X168983501Y-117980264D01*
X168983489Y-117980261D01*
X168828845Y-117949500D01*
X168828842Y-117949500D01*
X168671158Y-117949500D01*
X168671155Y-117949500D01*
X168516510Y-117980261D01*
X168516498Y-117980264D01*
X168370827Y-118040602D01*
X168370814Y-118040609D01*
X168239711Y-118128210D01*
X168239707Y-118128213D01*
X168128213Y-118239707D01*
X168128210Y-118239711D01*
X168040609Y-118370814D01*
X168040602Y-118370827D01*
X167980264Y-118516498D01*
X167980261Y-118516510D01*
X167949500Y-118671153D01*
X160660500Y-118671153D01*
X160660500Y-118535308D01*
X160660500Y-118535305D01*
X160660499Y-118535303D01*
X160637248Y-118418414D01*
X160629737Y-118380653D01*
X160629735Y-118380648D01*
X160569397Y-118234977D01*
X160569390Y-118234964D01*
X160481789Y-118103861D01*
X160481786Y-118103857D01*
X160370292Y-117992363D01*
X160370288Y-117992360D01*
X160239185Y-117904759D01*
X160239172Y-117904752D01*
X160093501Y-117844414D01*
X160093489Y-117844411D01*
X159938845Y-117813650D01*
X159938842Y-117813650D01*
X159781158Y-117813650D01*
X159781155Y-117813650D01*
X159626510Y-117844411D01*
X159626498Y-117844414D01*
X159480827Y-117904752D01*
X159480814Y-117904759D01*
X159349711Y-117992360D01*
X159349707Y-117992363D01*
X159238213Y-118103857D01*
X159238210Y-118103861D01*
X159150609Y-118234964D01*
X159150602Y-118234977D01*
X159090264Y-118380648D01*
X159090261Y-118380660D01*
X159059500Y-118535303D01*
X154085166Y-118535303D01*
X154150289Y-118491789D01*
X154150292Y-118491786D01*
X154200544Y-118441535D01*
X154261786Y-118380292D01*
X154261789Y-118380289D01*
X154349394Y-118249179D01*
X154409737Y-118103497D01*
X154440500Y-117948842D01*
X154440500Y-117791158D01*
X154440500Y-117791155D01*
X154440499Y-117791153D01*
X154409737Y-117636503D01*
X154409735Y-117636498D01*
X154349397Y-117490827D01*
X154349390Y-117490814D01*
X154261789Y-117359711D01*
X154261786Y-117359707D01*
X154150292Y-117248213D01*
X154150288Y-117248210D01*
X154019185Y-117160609D01*
X154019172Y-117160602D01*
X153873501Y-117100264D01*
X153873489Y-117100261D01*
X153718845Y-117069500D01*
X153718842Y-117069500D01*
X153561158Y-117069500D01*
X153561155Y-117069500D01*
X153406510Y-117100261D01*
X153406498Y-117100264D01*
X153260827Y-117160602D01*
X153260814Y-117160609D01*
X153129711Y-117248210D01*
X153129707Y-117248213D01*
X153018213Y-117359707D01*
X153018210Y-117359711D01*
X152930609Y-117490814D01*
X152930602Y-117490827D01*
X152870264Y-117636498D01*
X152870261Y-117636510D01*
X152839500Y-117791153D01*
X152004532Y-117791153D01*
X151979737Y-117666503D01*
X151945463Y-117583757D01*
X151919397Y-117520827D01*
X151919390Y-117520814D01*
X151831789Y-117389711D01*
X151831786Y-117389707D01*
X151720292Y-117278213D01*
X151720288Y-117278210D01*
X151589185Y-117190609D01*
X151589172Y-117190602D01*
X151443501Y-117130264D01*
X151443489Y-117130261D01*
X151288845Y-117099500D01*
X151288842Y-117099500D01*
X151131158Y-117099500D01*
X151131155Y-117099500D01*
X150976510Y-117130261D01*
X150976498Y-117130264D01*
X150830827Y-117190602D01*
X150830814Y-117190609D01*
X150699711Y-117278210D01*
X150699707Y-117278213D01*
X150588213Y-117389707D01*
X150588210Y-117389711D01*
X150500609Y-117520814D01*
X150500602Y-117520827D01*
X150440264Y-117666498D01*
X150440261Y-117666510D01*
X150409500Y-117821153D01*
X132000500Y-117821153D01*
X132000500Y-113506153D01*
X155669500Y-113506153D01*
X155669500Y-113663846D01*
X155700261Y-113818489D01*
X155700264Y-113818501D01*
X155760602Y-113964172D01*
X155760609Y-113964185D01*
X155848210Y-114095288D01*
X155848213Y-114095292D01*
X155959707Y-114206786D01*
X155959711Y-114206789D01*
X156090814Y-114294390D01*
X156090827Y-114294397D01*
X156236498Y-114354735D01*
X156236503Y-114354737D01*
X156391153Y-114385499D01*
X156391156Y-114385500D01*
X156391158Y-114385500D01*
X156548844Y-114385500D01*
X156548845Y-114385499D01*
X156703497Y-114354737D01*
X156849179Y-114294394D01*
X156980289Y-114206789D01*
X157091789Y-114095289D01*
X157179394Y-113964179D01*
X157239737Y-113818497D01*
X157270500Y-113663842D01*
X157270500Y-113506158D01*
X157270500Y-113506155D01*
X157270499Y-113506153D01*
X157239738Y-113351510D01*
X157239737Y-113351503D01*
X157239735Y-113351498D01*
X157179397Y-113205827D01*
X157179390Y-113205814D01*
X157091789Y-113074711D01*
X157091786Y-113074707D01*
X156980292Y-112963213D01*
X156980288Y-112963210D01*
X156849185Y-112875609D01*
X156849172Y-112875602D01*
X156703501Y-112815264D01*
X156703489Y-112815261D01*
X156548845Y-112784500D01*
X156548842Y-112784500D01*
X156391158Y-112784500D01*
X156391155Y-112784500D01*
X156236510Y-112815261D01*
X156236498Y-112815264D01*
X156090827Y-112875602D01*
X156090814Y-112875609D01*
X155959711Y-112963210D01*
X155959707Y-112963213D01*
X155848213Y-113074707D01*
X155848210Y-113074711D01*
X155760609Y-113205814D01*
X155760602Y-113205827D01*
X155700264Y-113351498D01*
X155700261Y-113351510D01*
X155669500Y-113506153D01*
X132000500Y-113506153D01*
X132000500Y-111845053D01*
X144199500Y-111845053D01*
X144199500Y-112002746D01*
X144230261Y-112157389D01*
X144230264Y-112157401D01*
X144290602Y-112303072D01*
X144290609Y-112303085D01*
X144378210Y-112434188D01*
X144378213Y-112434192D01*
X144489707Y-112545686D01*
X144489711Y-112545689D01*
X144620814Y-112633290D01*
X144620827Y-112633297D01*
X144766498Y-112693635D01*
X144766503Y-112693637D01*
X144921153Y-112724399D01*
X144921156Y-112724400D01*
X144921158Y-112724400D01*
X145078844Y-112724400D01*
X145078845Y-112724399D01*
X145233497Y-112693637D01*
X145379179Y-112633294D01*
X145510289Y-112545689D01*
X145621789Y-112434189D01*
X145709394Y-112303079D01*
X145769737Y-112157397D01*
X145800500Y-112002742D01*
X145800500Y-111845058D01*
X145800500Y-111845055D01*
X145800499Y-111845053D01*
X145769737Y-111690403D01*
X145711581Y-111550000D01*
X145709397Y-111544727D01*
X145709390Y-111544714D01*
X145621789Y-111413611D01*
X145621786Y-111413607D01*
X145510292Y-111302113D01*
X145510288Y-111302110D01*
X145379185Y-111214509D01*
X145379172Y-111214502D01*
X145233501Y-111154164D01*
X145233489Y-111154161D01*
X145078845Y-111123400D01*
X145078842Y-111123400D01*
X144921158Y-111123400D01*
X144921155Y-111123400D01*
X144766510Y-111154161D01*
X144766498Y-111154164D01*
X144620827Y-111214502D01*
X144620814Y-111214509D01*
X144489711Y-111302110D01*
X144489707Y-111302113D01*
X144378213Y-111413607D01*
X144378210Y-111413611D01*
X144290609Y-111544714D01*
X144290602Y-111544727D01*
X144230264Y-111690398D01*
X144230261Y-111690410D01*
X144199500Y-111845053D01*
X132000500Y-111845053D01*
X132000500Y-110429255D01*
X146799500Y-110429255D01*
X146799500Y-110586948D01*
X146830261Y-110741591D01*
X146830264Y-110741603D01*
X146890602Y-110887274D01*
X146890609Y-110887287D01*
X146978210Y-111018390D01*
X146978213Y-111018394D01*
X147089707Y-111129888D01*
X147089711Y-111129891D01*
X147220814Y-111217492D01*
X147220827Y-111217499D01*
X147366498Y-111277837D01*
X147366503Y-111277839D01*
X147488521Y-111302110D01*
X147521153Y-111308601D01*
X147521156Y-111308602D01*
X147521158Y-111308602D01*
X147678844Y-111308602D01*
X147678845Y-111308601D01*
X147833497Y-111277839D01*
X147979179Y-111217496D01*
X148110289Y-111129891D01*
X148221789Y-111018391D01*
X148309394Y-110887281D01*
X148369737Y-110741599D01*
X148400500Y-110586944D01*
X148400500Y-110444853D01*
X149199500Y-110444853D01*
X149199500Y-110602546D01*
X149230261Y-110757189D01*
X149230264Y-110757201D01*
X149290602Y-110902872D01*
X149290609Y-110902885D01*
X149378210Y-111033988D01*
X149378213Y-111033992D01*
X149489707Y-111145486D01*
X149489711Y-111145489D01*
X149620814Y-111233090D01*
X149620827Y-111233097D01*
X149728848Y-111277840D01*
X149766503Y-111293437D01*
X149921153Y-111324199D01*
X149921156Y-111324200D01*
X149921158Y-111324200D01*
X150078844Y-111324200D01*
X150078845Y-111324199D01*
X150233497Y-111293437D01*
X150379179Y-111233094D01*
X150510289Y-111145489D01*
X150621789Y-111033989D01*
X150709394Y-110902879D01*
X150769737Y-110757197D01*
X150800500Y-110602542D01*
X150800500Y-110444858D01*
X150800500Y-110444855D01*
X150800499Y-110444853D01*
X150769738Y-110290210D01*
X150769737Y-110290203D01*
X150721486Y-110173713D01*
X150709397Y-110144527D01*
X150709390Y-110144514D01*
X150621789Y-110013411D01*
X150621786Y-110013407D01*
X150510292Y-109901913D01*
X150510288Y-109901910D01*
X150379185Y-109814309D01*
X150379172Y-109814302D01*
X150233501Y-109753964D01*
X150233489Y-109753961D01*
X150078845Y-109723200D01*
X150078842Y-109723200D01*
X149921158Y-109723200D01*
X149921155Y-109723200D01*
X149766510Y-109753961D01*
X149766498Y-109753964D01*
X149620827Y-109814302D01*
X149620814Y-109814309D01*
X149489711Y-109901910D01*
X149489707Y-109901913D01*
X149378213Y-110013407D01*
X149378210Y-110013411D01*
X149290609Y-110144514D01*
X149290602Y-110144527D01*
X149230264Y-110290198D01*
X149230261Y-110290210D01*
X149199500Y-110444853D01*
X148400500Y-110444853D01*
X148400500Y-110429260D01*
X148400500Y-110429257D01*
X148400499Y-110429255D01*
X148372841Y-110290210D01*
X148369737Y-110274605D01*
X148369735Y-110274600D01*
X148309397Y-110128929D01*
X148309390Y-110128916D01*
X148221789Y-109997813D01*
X148221786Y-109997809D01*
X148110292Y-109886315D01*
X148110288Y-109886312D01*
X147979185Y-109798711D01*
X147979172Y-109798704D01*
X147833501Y-109738366D01*
X147833489Y-109738363D01*
X147678845Y-109707602D01*
X147678842Y-109707602D01*
X147521158Y-109707602D01*
X147521155Y-109707602D01*
X147366510Y-109738363D01*
X147366498Y-109738366D01*
X147220827Y-109798704D01*
X147220814Y-109798711D01*
X147089711Y-109886312D01*
X147089707Y-109886315D01*
X146978213Y-109997809D01*
X146978210Y-109997813D01*
X146890609Y-110128916D01*
X146890602Y-110128929D01*
X146830264Y-110274600D01*
X146830261Y-110274612D01*
X146799500Y-110429255D01*
X132000500Y-110429255D01*
X132000500Y-107121153D01*
X146799500Y-107121153D01*
X146799500Y-107278846D01*
X146830261Y-107433489D01*
X146830264Y-107433501D01*
X146890602Y-107579172D01*
X146890609Y-107579185D01*
X146978210Y-107710288D01*
X146978213Y-107710292D01*
X147089707Y-107821786D01*
X147089711Y-107821789D01*
X147220814Y-107909390D01*
X147220827Y-107909397D01*
X147351105Y-107963359D01*
X147366503Y-107969737D01*
X147521153Y-108000499D01*
X147521156Y-108000500D01*
X147521158Y-108000500D01*
X147678844Y-108000500D01*
X147678845Y-108000499D01*
X147833497Y-107969737D01*
X147848907Y-107963354D01*
X149199500Y-107963354D01*
X149199500Y-108121047D01*
X149230261Y-108275690D01*
X149230264Y-108275702D01*
X149290602Y-108421373D01*
X149290609Y-108421386D01*
X149378210Y-108552489D01*
X149378213Y-108552493D01*
X149489707Y-108663987D01*
X149489711Y-108663990D01*
X149620814Y-108751591D01*
X149620827Y-108751598D01*
X149738889Y-108800500D01*
X149766503Y-108811938D01*
X149921153Y-108842700D01*
X149921156Y-108842701D01*
X149921158Y-108842701D01*
X150078844Y-108842701D01*
X150078845Y-108842700D01*
X150233497Y-108811938D01*
X150379179Y-108751595D01*
X150510289Y-108663990D01*
X150621789Y-108552490D01*
X150709394Y-108421380D01*
X150720736Y-108393999D01*
X150769735Y-108275702D01*
X150769737Y-108275698D01*
X150800500Y-108121043D01*
X150800500Y-107963359D01*
X150792105Y-107921153D01*
X152799500Y-107921153D01*
X152799500Y-108078846D01*
X152830261Y-108233489D01*
X152830264Y-108233501D01*
X152890602Y-108379172D01*
X152890609Y-108379185D01*
X152978210Y-108510288D01*
X152978213Y-108510292D01*
X153089707Y-108621786D01*
X153089711Y-108621789D01*
X153220814Y-108709390D01*
X153220827Y-108709397D01*
X153322694Y-108751591D01*
X153366503Y-108769737D01*
X153521153Y-108800499D01*
X153521156Y-108800500D01*
X153521158Y-108800500D01*
X153678844Y-108800500D01*
X153678845Y-108800499D01*
X153833497Y-108769737D01*
X153979179Y-108709394D01*
X154110289Y-108621789D01*
X154221789Y-108510289D01*
X154309394Y-108379179D01*
X154369737Y-108233497D01*
X154400500Y-108078842D01*
X154400500Y-107921158D01*
X154400500Y-107921155D01*
X154400499Y-107921153D01*
X154380734Y-107821789D01*
X154369737Y-107766503D01*
X154326874Y-107663022D01*
X154309397Y-107620827D01*
X154309390Y-107620814D01*
X154221789Y-107489711D01*
X154221786Y-107489707D01*
X154110292Y-107378213D01*
X154110288Y-107378210D01*
X153979185Y-107290609D01*
X153979172Y-107290602D01*
X153833501Y-107230264D01*
X153833489Y-107230261D01*
X153678845Y-107199500D01*
X153678842Y-107199500D01*
X153521158Y-107199500D01*
X153521155Y-107199500D01*
X153366510Y-107230261D01*
X153366498Y-107230264D01*
X153220827Y-107290602D01*
X153220814Y-107290609D01*
X153089711Y-107378210D01*
X153089707Y-107378213D01*
X152978213Y-107489707D01*
X152978210Y-107489711D01*
X152890609Y-107620814D01*
X152890602Y-107620827D01*
X152830264Y-107766498D01*
X152830261Y-107766510D01*
X152799500Y-107921153D01*
X150792105Y-107921153D01*
X150769737Y-107808704D01*
X150728974Y-107710292D01*
X150709397Y-107663028D01*
X150709390Y-107663015D01*
X150621789Y-107531912D01*
X150621786Y-107531908D01*
X150510292Y-107420414D01*
X150510288Y-107420411D01*
X150379185Y-107332810D01*
X150379172Y-107332803D01*
X150233501Y-107272465D01*
X150233489Y-107272462D01*
X150078845Y-107241701D01*
X150078842Y-107241701D01*
X149921158Y-107241701D01*
X149921155Y-107241701D01*
X149766510Y-107272462D01*
X149766498Y-107272465D01*
X149620827Y-107332803D01*
X149620814Y-107332810D01*
X149489711Y-107420411D01*
X149489707Y-107420414D01*
X149378213Y-107531908D01*
X149378210Y-107531912D01*
X149290609Y-107663015D01*
X149290602Y-107663028D01*
X149230264Y-107808699D01*
X149230261Y-107808711D01*
X149199500Y-107963354D01*
X147848907Y-107963354D01*
X147979179Y-107909394D01*
X147979185Y-107909390D01*
X148061836Y-107854165D01*
X148086693Y-107837554D01*
X148110289Y-107821789D01*
X148221789Y-107710289D01*
X148309394Y-107579179D01*
X148369737Y-107433497D01*
X148400500Y-107278842D01*
X148400500Y-107121158D01*
X148400500Y-107121155D01*
X148400499Y-107121153D01*
X148380734Y-107021789D01*
X148369737Y-106966503D01*
X148325709Y-106860208D01*
X148309397Y-106820827D01*
X148309390Y-106820814D01*
X148221789Y-106689711D01*
X148221786Y-106689707D01*
X148110292Y-106578213D01*
X148110288Y-106578210D01*
X147979185Y-106490609D01*
X147979172Y-106490602D01*
X147833501Y-106430264D01*
X147833489Y-106430261D01*
X147678845Y-106399500D01*
X147678842Y-106399500D01*
X147521158Y-106399500D01*
X147521155Y-106399500D01*
X147366510Y-106430261D01*
X147366498Y-106430264D01*
X147220827Y-106490602D01*
X147220814Y-106490609D01*
X147089711Y-106578210D01*
X147089707Y-106578213D01*
X146978213Y-106689707D01*
X146978210Y-106689711D01*
X146890609Y-106820814D01*
X146890602Y-106820827D01*
X146830264Y-106966498D01*
X146830261Y-106966510D01*
X146799500Y-107121153D01*
X132000500Y-107121153D01*
X132000500Y-106321153D01*
X154999500Y-106321153D01*
X154999500Y-106478846D01*
X155030261Y-106633489D01*
X155030264Y-106633501D01*
X155090602Y-106779172D01*
X155090609Y-106779185D01*
X155178210Y-106910288D01*
X155178213Y-106910292D01*
X155289707Y-107021786D01*
X155289711Y-107021789D01*
X155420814Y-107109390D01*
X155420827Y-107109397D01*
X155566498Y-107169735D01*
X155566503Y-107169737D01*
X155716131Y-107199500D01*
X155721153Y-107200499D01*
X155721156Y-107200500D01*
X155721158Y-107200500D01*
X155878844Y-107200500D01*
X155878845Y-107200499D01*
X156033497Y-107169737D01*
X156179179Y-107109394D01*
X156310289Y-107021789D01*
X156421789Y-106910289D01*
X156509394Y-106779179D01*
X156533429Y-106721153D01*
X159127299Y-106721153D01*
X159127299Y-106878846D01*
X159158060Y-107033489D01*
X159158063Y-107033501D01*
X159218401Y-107179172D01*
X159218408Y-107179185D01*
X159306009Y-107310288D01*
X159306012Y-107310292D01*
X159417506Y-107421786D01*
X159417510Y-107421789D01*
X159548613Y-107509390D01*
X159548626Y-107509397D01*
X159694297Y-107569735D01*
X159694302Y-107569737D01*
X159848952Y-107600499D01*
X159848955Y-107600500D01*
X159848957Y-107600500D01*
X160006643Y-107600500D01*
X160006644Y-107600499D01*
X160161296Y-107569737D01*
X160306978Y-107509394D01*
X160438088Y-107421789D01*
X160549588Y-107310289D01*
X160637193Y-107179179D01*
X160697536Y-107033497D01*
X160728299Y-106878842D01*
X160728299Y-106721158D01*
X160728299Y-106721155D01*
X160728298Y-106721153D01*
X160710860Y-106633489D01*
X160697536Y-106566503D01*
X160659764Y-106475312D01*
X160637196Y-106420827D01*
X160637189Y-106420814D01*
X160549588Y-106289711D01*
X160549585Y-106289707D01*
X160438091Y-106178213D01*
X160438087Y-106178210D01*
X160306984Y-106090609D01*
X160306971Y-106090602D01*
X160161300Y-106030264D01*
X160161288Y-106030261D01*
X160006644Y-105999500D01*
X160006641Y-105999500D01*
X159848957Y-105999500D01*
X159848954Y-105999500D01*
X159694309Y-106030261D01*
X159694297Y-106030264D01*
X159548626Y-106090602D01*
X159548613Y-106090609D01*
X159417510Y-106178210D01*
X159417506Y-106178213D01*
X159306012Y-106289707D01*
X159306009Y-106289711D01*
X159218408Y-106420814D01*
X159218401Y-106420827D01*
X159158063Y-106566498D01*
X159158060Y-106566510D01*
X159127299Y-106721153D01*
X156533429Y-106721153D01*
X156538092Y-106709896D01*
X156555603Y-106667621D01*
X156555605Y-106667614D01*
X156569737Y-106633497D01*
X156600500Y-106478842D01*
X156600500Y-106321158D01*
X156600500Y-106321155D01*
X156600499Y-106321153D01*
X156572066Y-106178211D01*
X156569737Y-106166503D01*
X156538298Y-106090602D01*
X156509397Y-106020827D01*
X156509390Y-106020814D01*
X156421789Y-105889711D01*
X156421786Y-105889707D01*
X156310292Y-105778213D01*
X156310288Y-105778210D01*
X156179185Y-105690609D01*
X156179172Y-105690602D01*
X156033501Y-105630264D01*
X156033489Y-105630261D01*
X155878845Y-105599500D01*
X155878842Y-105599500D01*
X155721158Y-105599500D01*
X155721155Y-105599500D01*
X155566510Y-105630261D01*
X155566498Y-105630264D01*
X155420827Y-105690602D01*
X155420814Y-105690609D01*
X155289711Y-105778210D01*
X155289707Y-105778213D01*
X155178213Y-105889707D01*
X155178210Y-105889711D01*
X155090609Y-106020814D01*
X155090602Y-106020827D01*
X155030264Y-106166498D01*
X155030261Y-106166510D01*
X154999500Y-106321153D01*
X132000500Y-106321153D01*
X132000500Y-105321153D01*
X148302700Y-105321153D01*
X148302700Y-105478846D01*
X148333461Y-105633489D01*
X148333464Y-105633501D01*
X148393802Y-105779172D01*
X148393809Y-105779185D01*
X148481410Y-105910288D01*
X148481413Y-105910292D01*
X148592907Y-106021786D01*
X148592911Y-106021789D01*
X148724014Y-106109390D01*
X148724027Y-106109397D01*
X148861883Y-106166498D01*
X148869703Y-106169737D01*
X149024353Y-106200499D01*
X149024356Y-106200500D01*
X149024358Y-106200500D01*
X149182044Y-106200500D01*
X149182045Y-106200499D01*
X149192379Y-106198443D01*
X149217487Y-106193450D01*
X149217492Y-106193449D01*
X149303000Y-106176439D01*
X149336697Y-106169737D01*
X149482379Y-106109394D01*
X149613489Y-106021789D01*
X149724989Y-105910289D01*
X149812594Y-105779179D01*
X149872937Y-105633497D01*
X149903700Y-105478842D01*
X149903700Y-105321158D01*
X149903700Y-105321155D01*
X149903699Y-105321153D01*
X149872938Y-105166510D01*
X149872937Y-105166503D01*
X149842787Y-105093713D01*
X149812597Y-105020827D01*
X149812590Y-105020814D01*
X149724989Y-104889711D01*
X149724986Y-104889707D01*
X149613492Y-104778213D01*
X149613488Y-104778210D01*
X149482385Y-104690609D01*
X149482372Y-104690602D01*
X149336701Y-104630264D01*
X149336689Y-104630261D01*
X149182045Y-104599500D01*
X149182042Y-104599500D01*
X149024358Y-104599500D01*
X149024355Y-104599500D01*
X148869710Y-104630261D01*
X148869698Y-104630264D01*
X148724027Y-104690602D01*
X148724014Y-104690609D01*
X148592911Y-104778210D01*
X148592907Y-104778213D01*
X148481413Y-104889707D01*
X148481410Y-104889711D01*
X148393809Y-105020814D01*
X148393802Y-105020827D01*
X148333464Y-105166498D01*
X148333461Y-105166510D01*
X148302700Y-105321153D01*
X132000500Y-105321153D01*
X132000500Y-102571153D01*
X137049500Y-102571153D01*
X137049500Y-102728846D01*
X137080261Y-102883489D01*
X137080264Y-102883501D01*
X137140602Y-103029172D01*
X137140609Y-103029185D01*
X137228210Y-103160288D01*
X137228213Y-103160292D01*
X137339707Y-103271786D01*
X137339711Y-103271789D01*
X137470814Y-103359390D01*
X137470827Y-103359397D01*
X137616498Y-103419735D01*
X137616503Y-103419737D01*
X137771153Y-103450499D01*
X137771156Y-103450500D01*
X137771158Y-103450500D01*
X137928844Y-103450500D01*
X137928845Y-103450499D01*
X138083497Y-103419737D01*
X138229179Y-103359394D01*
X138360289Y-103271789D01*
X138471789Y-103160289D01*
X138559394Y-103029179D01*
X138619737Y-102883497D01*
X138650500Y-102728842D01*
X138650500Y-102571158D01*
X138650500Y-102571155D01*
X138650499Y-102571153D01*
X138627450Y-102455279D01*
X138619737Y-102416503D01*
X138575457Y-102309601D01*
X138559397Y-102270827D01*
X138559390Y-102270814D01*
X138471789Y-102139711D01*
X138471786Y-102139707D01*
X138360292Y-102028213D01*
X138360288Y-102028210D01*
X138229185Y-101940609D01*
X138229172Y-101940602D01*
X138083501Y-101880264D01*
X138083489Y-101880261D01*
X137928845Y-101849500D01*
X137928842Y-101849500D01*
X137771158Y-101849500D01*
X137771155Y-101849500D01*
X137616510Y-101880261D01*
X137616498Y-101880264D01*
X137470827Y-101940602D01*
X137470814Y-101940609D01*
X137339711Y-102028210D01*
X137339707Y-102028213D01*
X137228213Y-102139707D01*
X137228210Y-102139711D01*
X137140609Y-102270814D01*
X137140602Y-102270827D01*
X137080264Y-102416498D01*
X137080261Y-102416510D01*
X137049500Y-102571153D01*
X132000500Y-102571153D01*
X132000500Y-101421153D01*
X144199500Y-101421153D01*
X144199500Y-101578846D01*
X144230261Y-101733489D01*
X144230264Y-101733501D01*
X144290602Y-101879172D01*
X144290609Y-101879185D01*
X144378210Y-102010288D01*
X144378213Y-102010292D01*
X144489707Y-102121786D01*
X144489711Y-102121789D01*
X144620814Y-102209390D01*
X144620827Y-102209397D01*
X144766498Y-102269735D01*
X144766503Y-102269737D01*
X144921153Y-102300499D01*
X144921156Y-102300500D01*
X144921158Y-102300500D01*
X145078844Y-102300500D01*
X145078845Y-102300499D01*
X145233497Y-102269737D01*
X145379179Y-102209394D01*
X145510289Y-102121789D01*
X145621789Y-102010289D01*
X145630499Y-101997253D01*
X155799500Y-101997253D01*
X155799500Y-102154946D01*
X155830261Y-102309589D01*
X155830264Y-102309601D01*
X155890602Y-102455272D01*
X155890609Y-102455285D01*
X155978210Y-102586388D01*
X155978213Y-102586392D01*
X156089707Y-102697886D01*
X156089711Y-102697889D01*
X156220814Y-102785490D01*
X156220827Y-102785497D01*
X156366498Y-102845835D01*
X156366503Y-102845837D01*
X156521153Y-102876599D01*
X156521156Y-102876600D01*
X156521158Y-102876600D01*
X156678844Y-102876600D01*
X156678845Y-102876599D01*
X156833497Y-102845837D01*
X156979179Y-102785494D01*
X157110289Y-102697889D01*
X157221789Y-102586389D01*
X157309394Y-102455279D01*
X157369737Y-102309597D01*
X157400500Y-102154942D01*
X157400500Y-101997258D01*
X157400500Y-101997255D01*
X157400499Y-101997253D01*
X157377228Y-101880263D01*
X157369737Y-101842603D01*
X157369735Y-101842598D01*
X157309397Y-101696927D01*
X157309390Y-101696914D01*
X157221789Y-101565811D01*
X157221786Y-101565807D01*
X157110292Y-101454313D01*
X157110288Y-101454310D01*
X156979185Y-101366709D01*
X156979172Y-101366702D01*
X156833501Y-101306364D01*
X156833489Y-101306361D01*
X156678845Y-101275600D01*
X156678842Y-101275600D01*
X156521158Y-101275600D01*
X156521155Y-101275600D01*
X156366510Y-101306361D01*
X156366498Y-101306364D01*
X156220827Y-101366702D01*
X156220814Y-101366709D01*
X156089711Y-101454310D01*
X156089707Y-101454313D01*
X155978213Y-101565807D01*
X155978210Y-101565811D01*
X155890609Y-101696914D01*
X155890602Y-101696927D01*
X155830264Y-101842598D01*
X155830261Y-101842610D01*
X155799500Y-101997253D01*
X145630499Y-101997253D01*
X145668350Y-101940606D01*
X145680599Y-101922275D01*
X145680600Y-101922273D01*
X145709387Y-101879190D01*
X145709390Y-101879185D01*
X145709394Y-101879179D01*
X145769737Y-101733497D01*
X145800500Y-101578842D01*
X145800500Y-101421158D01*
X145800500Y-101421155D01*
X145800499Y-101421153D01*
X145777666Y-101306364D01*
X145769737Y-101266503D01*
X145769735Y-101266498D01*
X145709397Y-101120827D01*
X145709390Y-101120814D01*
X145621789Y-100989711D01*
X145621786Y-100989707D01*
X145510292Y-100878213D01*
X145510288Y-100878210D01*
X145379185Y-100790609D01*
X145379172Y-100790602D01*
X145233501Y-100730264D01*
X145233489Y-100730261D01*
X145078845Y-100699500D01*
X145078842Y-100699500D01*
X144921158Y-100699500D01*
X144921155Y-100699500D01*
X144766510Y-100730261D01*
X144766498Y-100730264D01*
X144620827Y-100790602D01*
X144620814Y-100790609D01*
X144489711Y-100878210D01*
X144489707Y-100878213D01*
X144378213Y-100989707D01*
X144378210Y-100989711D01*
X144290609Y-101120814D01*
X144290602Y-101120827D01*
X144230264Y-101266498D01*
X144230261Y-101266510D01*
X144199500Y-101421153D01*
X132000500Y-101421153D01*
X132000500Y-98851153D01*
X135729500Y-98851153D01*
X135729500Y-99008846D01*
X135760261Y-99163489D01*
X135760264Y-99163501D01*
X135820602Y-99309172D01*
X135820609Y-99309185D01*
X135908210Y-99440288D01*
X135908213Y-99440292D01*
X136019707Y-99551786D01*
X136019711Y-99551789D01*
X136150814Y-99639390D01*
X136150827Y-99639397D01*
X136296498Y-99699735D01*
X136296503Y-99699737D01*
X136451153Y-99730499D01*
X136451156Y-99730500D01*
X136451158Y-99730500D01*
X136608844Y-99730500D01*
X136608845Y-99730499D01*
X136763497Y-99699737D01*
X136909179Y-99639394D01*
X137040289Y-99551789D01*
X137151789Y-99440289D01*
X137155408Y-99434872D01*
X155149911Y-99434872D01*
X155149911Y-99592565D01*
X155180672Y-99747208D01*
X155180675Y-99747220D01*
X155241013Y-99892891D01*
X155241020Y-99892904D01*
X155328621Y-100024007D01*
X155328624Y-100024011D01*
X155440118Y-100135505D01*
X155440122Y-100135508D01*
X155571225Y-100223109D01*
X155571238Y-100223116D01*
X155716909Y-100283454D01*
X155716914Y-100283456D01*
X155871564Y-100314218D01*
X155871567Y-100314219D01*
X155871569Y-100314219D01*
X156029255Y-100314219D01*
X156029256Y-100314218D01*
X156183908Y-100283456D01*
X156329590Y-100223113D01*
X156460700Y-100135508D01*
X156572200Y-100024008D01*
X156659805Y-99892898D01*
X156720148Y-99747216D01*
X156750911Y-99592561D01*
X156750911Y-99434877D01*
X156750911Y-99434874D01*
X156750910Y-99434872D01*
X156725908Y-99309179D01*
X156720148Y-99280222D01*
X156718647Y-99276598D01*
X156659808Y-99134546D01*
X156659801Y-99134533D01*
X156572200Y-99003430D01*
X156572197Y-99003426D01*
X156460703Y-98891932D01*
X156460699Y-98891929D01*
X156329596Y-98804328D01*
X156329583Y-98804321D01*
X156183912Y-98743983D01*
X156183900Y-98743980D01*
X156029256Y-98713219D01*
X156029253Y-98713219D01*
X155871569Y-98713219D01*
X155871566Y-98713219D01*
X155716921Y-98743980D01*
X155716909Y-98743983D01*
X155571238Y-98804321D01*
X155571225Y-98804328D01*
X155440122Y-98891929D01*
X155440118Y-98891932D01*
X155328624Y-99003426D01*
X155328621Y-99003430D01*
X155241020Y-99134533D01*
X155241013Y-99134546D01*
X155180675Y-99280217D01*
X155180672Y-99280229D01*
X155149911Y-99434872D01*
X137155408Y-99434872D01*
X137177686Y-99401531D01*
X137205508Y-99359894D01*
X137239390Y-99309185D01*
X137239390Y-99309184D01*
X137239394Y-99309179D01*
X137299737Y-99163497D01*
X137330500Y-99008842D01*
X137330500Y-98851158D01*
X137330500Y-98851155D01*
X137330499Y-98851153D01*
X137308292Y-98739514D01*
X137299737Y-98696503D01*
X137263950Y-98610104D01*
X137239397Y-98550827D01*
X137239390Y-98550814D01*
X137178747Y-98460056D01*
X137151789Y-98419711D01*
X137151786Y-98419707D01*
X137129331Y-98397252D01*
X143599500Y-98397252D01*
X143599500Y-98554945D01*
X143630261Y-98709588D01*
X143630264Y-98709600D01*
X143690602Y-98855271D01*
X143690609Y-98855284D01*
X143778210Y-98986387D01*
X143778213Y-98986391D01*
X143889707Y-99097885D01*
X143889711Y-99097888D01*
X144020814Y-99185489D01*
X144020827Y-99185496D01*
X144152928Y-99240213D01*
X144166503Y-99245836D01*
X144321153Y-99276598D01*
X144321156Y-99276599D01*
X144321158Y-99276599D01*
X144478844Y-99276599D01*
X144478845Y-99276598D01*
X144633497Y-99245836D01*
X144779179Y-99185493D01*
X144910289Y-99097888D01*
X145021789Y-98986388D01*
X145109394Y-98855278D01*
X145119220Y-98831557D01*
X145141173Y-98778556D01*
X145169737Y-98709596D01*
X145200500Y-98554941D01*
X145200500Y-98397257D01*
X145200500Y-98397254D01*
X145200499Y-98397252D01*
X145182788Y-98308213D01*
X145169737Y-98242602D01*
X145160626Y-98220606D01*
X145109397Y-98096926D01*
X145109390Y-98096913D01*
X145021789Y-97965810D01*
X145021786Y-97965806D01*
X144910292Y-97854312D01*
X144910288Y-97854309D01*
X144779185Y-97766708D01*
X144779172Y-97766701D01*
X144633501Y-97706363D01*
X144633489Y-97706360D01*
X144478845Y-97675599D01*
X144478842Y-97675599D01*
X144321158Y-97675599D01*
X144321155Y-97675599D01*
X144166510Y-97706360D01*
X144166498Y-97706363D01*
X144020827Y-97766701D01*
X144020814Y-97766708D01*
X143889711Y-97854309D01*
X143889707Y-97854312D01*
X143778213Y-97965806D01*
X143778210Y-97965810D01*
X143690609Y-98096913D01*
X143690602Y-98096926D01*
X143630264Y-98242597D01*
X143630261Y-98242609D01*
X143599500Y-98397252D01*
X137129331Y-98397252D01*
X137040292Y-98308213D01*
X137040288Y-98308210D01*
X136909185Y-98220609D01*
X136909172Y-98220602D01*
X136820411Y-98183837D01*
X136766007Y-98139996D01*
X136743942Y-98073702D01*
X136761221Y-98006003D01*
X136812358Y-97958392D01*
X136843672Y-97947659D01*
X136855879Y-97945230D01*
X136883497Y-97939737D01*
X137029179Y-97879394D01*
X137160289Y-97791789D01*
X137271789Y-97680289D01*
X137359394Y-97549179D01*
X137419737Y-97403497D01*
X137450500Y-97248842D01*
X137450500Y-97171153D01*
X141449500Y-97171153D01*
X141449500Y-97328846D01*
X141480261Y-97483489D01*
X141480264Y-97483501D01*
X141540602Y-97629172D01*
X141540609Y-97629185D01*
X141628210Y-97760288D01*
X141628213Y-97760292D01*
X141739707Y-97871786D01*
X141739711Y-97871789D01*
X141870814Y-97959390D01*
X141870827Y-97959397D01*
X141970060Y-98000500D01*
X142016503Y-98019737D01*
X142171153Y-98050499D01*
X142171156Y-98050500D01*
X142171158Y-98050500D01*
X142328844Y-98050500D01*
X142328845Y-98050499D01*
X142483497Y-98019737D01*
X142629179Y-97959394D01*
X142760289Y-97871789D01*
X142871789Y-97760289D01*
X142959394Y-97629179D01*
X143019737Y-97483497D01*
X143050500Y-97328842D01*
X143050500Y-97171158D01*
X143050500Y-97171155D01*
X143044155Y-97139258D01*
X143044155Y-97139257D01*
X143040554Y-97121153D01*
X148199500Y-97121153D01*
X148199500Y-97278846D01*
X148230261Y-97433489D01*
X148230264Y-97433501D01*
X148290602Y-97579172D01*
X148290609Y-97579185D01*
X148378210Y-97710288D01*
X148378213Y-97710292D01*
X148489707Y-97821786D01*
X148489711Y-97821789D01*
X148620814Y-97909390D01*
X148620827Y-97909397D01*
X148757022Y-97965810D01*
X148766503Y-97969737D01*
X148921153Y-98000499D01*
X148921156Y-98000500D01*
X148921158Y-98000500D01*
X149078844Y-98000500D01*
X149078845Y-98000499D01*
X149233497Y-97969737D01*
X149379179Y-97909394D01*
X149510289Y-97821789D01*
X149621789Y-97710289D01*
X149647939Y-97671153D01*
X150199500Y-97671153D01*
X150199500Y-97828846D01*
X150230261Y-97983489D01*
X150230264Y-97983501D01*
X150290602Y-98129172D01*
X150290609Y-98129185D01*
X150378210Y-98260288D01*
X150378213Y-98260292D01*
X150489707Y-98371786D01*
X150489711Y-98371789D01*
X150620814Y-98459390D01*
X150620827Y-98459397D01*
X150766498Y-98519735D01*
X150766503Y-98519737D01*
X150921153Y-98550499D01*
X150921156Y-98550500D01*
X150921158Y-98550500D01*
X151078844Y-98550500D01*
X151078845Y-98550499D01*
X151233497Y-98519737D01*
X151379179Y-98459394D01*
X151510289Y-98371789D01*
X151621789Y-98260289D01*
X151709394Y-98129179D01*
X151769737Y-97983497D01*
X151800500Y-97828842D01*
X151800500Y-97671158D01*
X151800500Y-97671155D01*
X151800499Y-97671153D01*
X151785585Y-97596175D01*
X151769737Y-97516503D01*
X151735352Y-97433489D01*
X151709397Y-97370827D01*
X151709390Y-97370814D01*
X151621789Y-97239711D01*
X151621786Y-97239707D01*
X151510292Y-97128213D01*
X151510288Y-97128210D01*
X151379185Y-97040609D01*
X151379172Y-97040602D01*
X151233501Y-96980264D01*
X151233489Y-96980261D01*
X151078845Y-96949500D01*
X151078842Y-96949500D01*
X150921158Y-96949500D01*
X150921155Y-96949500D01*
X150766510Y-96980261D01*
X150766498Y-96980264D01*
X150620827Y-97040602D01*
X150620814Y-97040609D01*
X150489711Y-97128210D01*
X150489707Y-97128213D01*
X150378213Y-97239707D01*
X150378210Y-97239711D01*
X150290609Y-97370814D01*
X150290602Y-97370827D01*
X150230264Y-97516498D01*
X150230261Y-97516510D01*
X150199500Y-97671153D01*
X149647939Y-97671153D01*
X149709394Y-97579179D01*
X149769737Y-97433497D01*
X149800500Y-97278842D01*
X149800500Y-97121158D01*
X149800500Y-97121155D01*
X149800499Y-97121153D01*
X149788650Y-97061585D01*
X149769737Y-96966503D01*
X149755339Y-96931742D01*
X149709397Y-96820827D01*
X149709390Y-96820814D01*
X149621789Y-96689711D01*
X149621786Y-96689707D01*
X149510292Y-96578213D01*
X149510288Y-96578210D01*
X149379185Y-96490609D01*
X149379172Y-96490602D01*
X149233501Y-96430264D01*
X149233489Y-96430261D01*
X149078845Y-96399500D01*
X149078842Y-96399500D01*
X148921158Y-96399500D01*
X148921155Y-96399500D01*
X148766510Y-96430261D01*
X148766498Y-96430264D01*
X148620827Y-96490602D01*
X148620814Y-96490609D01*
X148489711Y-96578210D01*
X148489707Y-96578213D01*
X148378213Y-96689707D01*
X148378210Y-96689711D01*
X148290609Y-96820814D01*
X148290602Y-96820827D01*
X148230264Y-96966498D01*
X148230261Y-96966510D01*
X148199500Y-97121153D01*
X143040554Y-97121153D01*
X143024531Y-97040606D01*
X143019737Y-97016503D01*
X143019735Y-97016498D01*
X142959397Y-96870827D01*
X142959390Y-96870814D01*
X142871789Y-96739711D01*
X142871786Y-96739707D01*
X142760292Y-96628213D01*
X142760288Y-96628210D01*
X142629185Y-96540609D01*
X142629172Y-96540602D01*
X142483501Y-96480264D01*
X142483489Y-96480261D01*
X142328845Y-96449500D01*
X142328842Y-96449500D01*
X142171158Y-96449500D01*
X142171155Y-96449500D01*
X142016510Y-96480261D01*
X142016498Y-96480264D01*
X141870827Y-96540602D01*
X141870814Y-96540609D01*
X141739711Y-96628210D01*
X141739707Y-96628213D01*
X141628213Y-96739707D01*
X141628210Y-96739711D01*
X141540609Y-96870814D01*
X141540602Y-96870827D01*
X141480264Y-97016498D01*
X141480261Y-97016510D01*
X141449500Y-97171153D01*
X137450500Y-97171153D01*
X137450500Y-97091158D01*
X137450500Y-97091155D01*
X137450499Y-97091153D01*
X137444618Y-97061588D01*
X137419737Y-96936503D01*
X137396725Y-96880946D01*
X137359397Y-96790827D01*
X137359390Y-96790814D01*
X137271789Y-96659711D01*
X137271786Y-96659707D01*
X137160292Y-96548213D01*
X137160288Y-96548210D01*
X137029185Y-96460609D01*
X137029172Y-96460602D01*
X136883501Y-96400264D01*
X136883489Y-96400261D01*
X136728845Y-96369500D01*
X136728842Y-96369500D01*
X136571158Y-96369500D01*
X136571155Y-96369500D01*
X136416510Y-96400261D01*
X136416498Y-96400264D01*
X136270827Y-96460602D01*
X136270814Y-96460609D01*
X136139711Y-96548210D01*
X136139707Y-96548213D01*
X136028213Y-96659707D01*
X136028210Y-96659711D01*
X135940609Y-96790814D01*
X135940602Y-96790827D01*
X135880264Y-96936498D01*
X135880261Y-96936510D01*
X135849500Y-97091153D01*
X135849500Y-97248846D01*
X135880261Y-97403489D01*
X135880264Y-97403501D01*
X135940602Y-97549172D01*
X135940609Y-97549185D01*
X136028210Y-97680288D01*
X136028213Y-97680292D01*
X136139707Y-97791786D01*
X136139711Y-97791789D01*
X136270814Y-97879390D01*
X136270818Y-97879392D01*
X136270821Y-97879394D01*
X136359591Y-97916163D01*
X136413991Y-97960002D01*
X136436057Y-98026296D01*
X136418778Y-98093995D01*
X136367642Y-98141606D01*
X136336330Y-98152340D01*
X136296505Y-98160262D01*
X136296498Y-98160264D01*
X136150827Y-98220602D01*
X136150814Y-98220609D01*
X136019711Y-98308210D01*
X136019707Y-98308213D01*
X135908213Y-98419707D01*
X135908210Y-98419711D01*
X135820609Y-98550814D01*
X135820602Y-98550827D01*
X135760264Y-98696498D01*
X135760261Y-98696510D01*
X135729500Y-98851153D01*
X132000500Y-98851153D01*
X132000500Y-95671153D01*
X149471701Y-95671153D01*
X149471701Y-95828846D01*
X149502462Y-95983489D01*
X149502465Y-95983501D01*
X149562803Y-96129172D01*
X149562810Y-96129185D01*
X149650411Y-96260288D01*
X149650414Y-96260292D01*
X149761908Y-96371786D01*
X149761912Y-96371789D01*
X149893015Y-96459390D01*
X149893028Y-96459397D01*
X149968382Y-96490609D01*
X150038704Y-96519737D01*
X150181862Y-96548213D01*
X150193354Y-96550499D01*
X150193357Y-96550500D01*
X150193359Y-96550500D01*
X150351045Y-96550500D01*
X150351046Y-96550499D01*
X150505698Y-96519737D01*
X150651380Y-96459394D01*
X150782490Y-96371789D01*
X150893990Y-96260289D01*
X150896897Y-96255939D01*
X150950508Y-96211133D01*
X151019833Y-96202424D01*
X151082861Y-96232578D01*
X151103103Y-96255939D01*
X151106008Y-96260287D01*
X151106012Y-96260292D01*
X151217506Y-96371786D01*
X151217510Y-96371789D01*
X151348613Y-96459390D01*
X151348626Y-96459397D01*
X151423980Y-96490609D01*
X151494302Y-96519737D01*
X151637460Y-96548213D01*
X151648952Y-96550499D01*
X151648955Y-96550500D01*
X151648957Y-96550500D01*
X151806643Y-96550500D01*
X151806644Y-96550499D01*
X151961296Y-96519737D01*
X152106978Y-96459394D01*
X152238088Y-96371789D01*
X152349588Y-96260289D01*
X152437193Y-96129179D01*
X152497536Y-95983497D01*
X152528299Y-95828842D01*
X152528299Y-95671158D01*
X152528299Y-95671155D01*
X152528298Y-95671153D01*
X152508125Y-95569736D01*
X152497536Y-95516503D01*
X152473879Y-95459390D01*
X152437196Y-95370827D01*
X152437189Y-95370814D01*
X152349588Y-95239711D01*
X152349585Y-95239707D01*
X152238091Y-95128213D01*
X152238087Y-95128210D01*
X152106984Y-95040609D01*
X152106971Y-95040602D01*
X151961300Y-94980264D01*
X151961288Y-94980261D01*
X151806644Y-94949500D01*
X151806641Y-94949500D01*
X151648957Y-94949500D01*
X151648954Y-94949500D01*
X151494309Y-94980261D01*
X151494297Y-94980264D01*
X151348626Y-95040602D01*
X151348613Y-95040609D01*
X151217510Y-95128210D01*
X151217506Y-95128213D01*
X151106012Y-95239707D01*
X151106008Y-95239712D01*
X151103100Y-95244065D01*
X151049486Y-95288868D01*
X150980161Y-95297574D01*
X150917135Y-95267417D01*
X150896900Y-95244065D01*
X150893991Y-95239712D01*
X150893987Y-95239707D01*
X150782493Y-95128213D01*
X150782489Y-95128210D01*
X150651386Y-95040609D01*
X150651373Y-95040602D01*
X150505702Y-94980264D01*
X150505690Y-94980261D01*
X150351046Y-94949500D01*
X150351043Y-94949500D01*
X150193359Y-94949500D01*
X150193356Y-94949500D01*
X150038711Y-94980261D01*
X150038699Y-94980264D01*
X149893028Y-95040602D01*
X149893015Y-95040609D01*
X149761912Y-95128210D01*
X149761908Y-95128213D01*
X149650414Y-95239707D01*
X149650411Y-95239711D01*
X149562810Y-95370814D01*
X149562803Y-95370827D01*
X149502465Y-95516498D01*
X149502462Y-95516510D01*
X149471701Y-95671153D01*
X132000500Y-95671153D01*
X132000500Y-94671153D01*
X145599500Y-94671153D01*
X145599500Y-94828846D01*
X145630261Y-94983489D01*
X145630264Y-94983501D01*
X145690602Y-95129172D01*
X145690609Y-95129185D01*
X145778210Y-95260288D01*
X145778213Y-95260292D01*
X145889707Y-95371786D01*
X145889711Y-95371789D01*
X146020814Y-95459390D01*
X146020827Y-95459397D01*
X146158683Y-95516498D01*
X146166503Y-95519737D01*
X146321153Y-95550499D01*
X146321156Y-95550500D01*
X146321158Y-95550500D01*
X146478844Y-95550500D01*
X146478845Y-95550499D01*
X146633497Y-95519737D01*
X146779179Y-95459394D01*
X146910289Y-95371789D01*
X147021789Y-95260289D01*
X147075990Y-95179172D01*
X147080285Y-95172744D01*
X147133897Y-95127939D01*
X147203222Y-95119232D01*
X147266249Y-95149386D01*
X147286179Y-95174810D01*
X147287221Y-95174114D01*
X147378210Y-95310288D01*
X147378213Y-95310292D01*
X147489707Y-95421786D01*
X147489711Y-95421789D01*
X147620814Y-95509390D01*
X147620827Y-95509397D01*
X147766498Y-95569735D01*
X147766503Y-95569737D01*
X147921153Y-95600499D01*
X147921156Y-95600500D01*
X147921158Y-95600500D01*
X148078844Y-95600500D01*
X148078845Y-95600499D01*
X148233497Y-95569737D01*
X148379179Y-95509394D01*
X148510289Y-95421789D01*
X148621789Y-95310289D01*
X148709394Y-95179179D01*
X148712060Y-95172744D01*
X148730102Y-95129185D01*
X148769737Y-95033497D01*
X148800500Y-94878842D01*
X148800500Y-94721158D01*
X148800500Y-94721155D01*
X148800499Y-94721153D01*
X148790553Y-94671153D01*
X148769737Y-94566503D01*
X148751133Y-94521588D01*
X148709397Y-94420827D01*
X148709390Y-94420814D01*
X148621789Y-94289711D01*
X148621786Y-94289707D01*
X148510292Y-94178213D01*
X148510288Y-94178210D01*
X148379185Y-94090609D01*
X148379172Y-94090602D01*
X148233501Y-94030264D01*
X148233489Y-94030261D01*
X148078845Y-93999500D01*
X148078842Y-93999500D01*
X147924500Y-93999500D01*
X147857461Y-93979815D01*
X147811706Y-93927011D01*
X147800500Y-93875500D01*
X147800500Y-93721155D01*
X147800499Y-93721153D01*
X147796004Y-93698556D01*
X147769737Y-93566503D01*
X147754660Y-93530104D01*
X147709397Y-93420827D01*
X147709390Y-93420814D01*
X147621789Y-93289711D01*
X147621786Y-93289707D01*
X147510292Y-93178213D01*
X147510288Y-93178210D01*
X147379185Y-93090609D01*
X147379172Y-93090602D01*
X147233501Y-93030264D01*
X147233489Y-93030261D01*
X147078845Y-92999500D01*
X147078842Y-92999500D01*
X146921158Y-92999500D01*
X146921155Y-92999500D01*
X146766510Y-93030261D01*
X146766498Y-93030264D01*
X146620827Y-93090602D01*
X146620814Y-93090609D01*
X146489711Y-93178210D01*
X146489707Y-93178213D01*
X146378213Y-93289707D01*
X146378210Y-93289711D01*
X146290609Y-93420814D01*
X146290602Y-93420827D01*
X146230264Y-93566498D01*
X146230261Y-93566510D01*
X146199500Y-93721153D01*
X146199500Y-93883740D01*
X146179815Y-93950779D01*
X146127011Y-93996534D01*
X146122953Y-93998301D01*
X146020824Y-94040604D01*
X146020814Y-94040609D01*
X145889711Y-94128210D01*
X145889707Y-94128213D01*
X145778213Y-94239707D01*
X145778210Y-94239711D01*
X145690609Y-94370814D01*
X145690602Y-94370827D01*
X145630264Y-94516498D01*
X145630261Y-94516510D01*
X145599500Y-94671153D01*
X132000500Y-94671153D01*
X132000500Y-92071153D01*
X136379500Y-92071153D01*
X136379500Y-92228846D01*
X136410261Y-92383489D01*
X136410264Y-92383501D01*
X136470602Y-92529172D01*
X136470609Y-92529185D01*
X136558210Y-92660288D01*
X136558213Y-92660292D01*
X136669707Y-92771786D01*
X136669711Y-92771789D01*
X136800814Y-92859390D01*
X136800827Y-92859397D01*
X136946498Y-92919735D01*
X136946503Y-92919737D01*
X137101153Y-92950499D01*
X137101156Y-92950500D01*
X137101158Y-92950500D01*
X137258844Y-92950500D01*
X137258845Y-92950499D01*
X137413497Y-92919737D01*
X137559179Y-92859394D01*
X137690289Y-92771789D01*
X137801789Y-92660289D01*
X137889394Y-92529179D01*
X137949737Y-92383497D01*
X137980500Y-92228842D01*
X137980500Y-92071158D01*
X137980500Y-92071155D01*
X137980499Y-92071153D01*
X137973771Y-92037328D01*
X137949737Y-91916503D01*
X137939231Y-91891139D01*
X137889397Y-91770827D01*
X137889390Y-91770814D01*
X137856207Y-91721153D01*
X141399500Y-91721153D01*
X141399500Y-91878846D01*
X141430261Y-92033489D01*
X141430264Y-92033501D01*
X141490602Y-92179172D01*
X141490609Y-92179185D01*
X141578210Y-92310288D01*
X141578213Y-92310292D01*
X141689707Y-92421786D01*
X141689711Y-92421789D01*
X141820814Y-92509390D01*
X141820827Y-92509397D01*
X141966498Y-92569735D01*
X141966503Y-92569737D01*
X142121153Y-92600499D01*
X142121156Y-92600500D01*
X142121158Y-92600500D01*
X142278844Y-92600500D01*
X142278845Y-92600499D01*
X142433497Y-92569737D01*
X142579179Y-92509394D01*
X142710289Y-92421789D01*
X142821789Y-92310289D01*
X142909394Y-92179179D01*
X142920426Y-92152546D01*
X142933429Y-92121153D01*
X144723401Y-92121153D01*
X144723401Y-92278846D01*
X144754162Y-92433489D01*
X144754165Y-92433501D01*
X144814503Y-92579172D01*
X144814510Y-92579185D01*
X144902111Y-92710288D01*
X144902114Y-92710292D01*
X145013608Y-92821786D01*
X145013612Y-92821789D01*
X145144715Y-92909390D01*
X145144728Y-92909397D01*
X145243961Y-92950500D01*
X145290404Y-92969737D01*
X145440032Y-92999500D01*
X145445054Y-93000499D01*
X145445057Y-93000500D01*
X145445059Y-93000500D01*
X145602745Y-93000500D01*
X145602746Y-93000499D01*
X145757398Y-92969737D01*
X145903080Y-92909394D01*
X146034190Y-92821789D01*
X146145690Y-92710289D01*
X146233295Y-92579179D01*
X146293638Y-92433497D01*
X146324401Y-92278842D01*
X146324401Y-92121158D01*
X146324401Y-92121155D01*
X146324400Y-92121153D01*
X146293638Y-91966503D01*
X146284622Y-91944737D01*
X146233298Y-91820827D01*
X146233291Y-91820814D01*
X146145690Y-91689711D01*
X146145687Y-91689707D01*
X146034193Y-91578213D01*
X146034189Y-91578210D01*
X145903086Y-91490609D01*
X145903073Y-91490602D01*
X145757402Y-91430264D01*
X145757390Y-91430261D01*
X145602746Y-91399500D01*
X145602743Y-91399500D01*
X145445059Y-91399500D01*
X145445056Y-91399500D01*
X145290411Y-91430261D01*
X145290399Y-91430264D01*
X145144728Y-91490602D01*
X145144715Y-91490609D01*
X145013612Y-91578210D01*
X145013608Y-91578213D01*
X144902114Y-91689707D01*
X144902111Y-91689711D01*
X144814510Y-91820814D01*
X144814503Y-91820827D01*
X144754165Y-91966498D01*
X144754162Y-91966510D01*
X144723401Y-92121153D01*
X142933429Y-92121153D01*
X142955603Y-92067621D01*
X142955605Y-92067614D01*
X142969737Y-92033497D01*
X143000500Y-91878842D01*
X143000500Y-91721158D01*
X143000500Y-91721155D01*
X143000499Y-91721153D01*
X142990256Y-91669659D01*
X142969737Y-91566503D01*
X142937929Y-91489711D01*
X142909397Y-91420827D01*
X142909390Y-91420814D01*
X142821789Y-91289711D01*
X142821786Y-91289707D01*
X142710292Y-91178213D01*
X142710288Y-91178210D01*
X142579185Y-91090609D01*
X142579172Y-91090602D01*
X142433501Y-91030264D01*
X142433489Y-91030261D01*
X142278845Y-90999500D01*
X142278842Y-90999500D01*
X142121158Y-90999500D01*
X142121155Y-90999500D01*
X141966510Y-91030261D01*
X141966498Y-91030264D01*
X141820827Y-91090602D01*
X141820814Y-91090609D01*
X141689711Y-91178210D01*
X141689707Y-91178213D01*
X141578213Y-91289707D01*
X141578210Y-91289711D01*
X141490609Y-91420814D01*
X141490602Y-91420827D01*
X141430264Y-91566498D01*
X141430261Y-91566510D01*
X141399500Y-91721153D01*
X137856207Y-91721153D01*
X137801789Y-91639711D01*
X137801786Y-91639707D01*
X137690292Y-91528213D01*
X137690288Y-91528210D01*
X137559185Y-91440609D01*
X137559172Y-91440602D01*
X137413501Y-91380264D01*
X137413489Y-91380261D01*
X137258845Y-91349500D01*
X137258842Y-91349500D01*
X137101158Y-91349500D01*
X137101155Y-91349500D01*
X136946510Y-91380261D01*
X136946498Y-91380264D01*
X136800827Y-91440602D01*
X136800814Y-91440609D01*
X136669711Y-91528210D01*
X136669707Y-91528213D01*
X136558213Y-91639707D01*
X136558210Y-91639711D01*
X136470609Y-91770814D01*
X136470602Y-91770827D01*
X136410264Y-91916498D01*
X136410261Y-91916510D01*
X136379500Y-92071153D01*
X132000500Y-92071153D01*
X132000500Y-90821153D01*
X137797300Y-90821153D01*
X137797300Y-90978846D01*
X137828061Y-91133489D01*
X137828064Y-91133501D01*
X137888402Y-91279172D01*
X137888409Y-91279185D01*
X137976010Y-91410288D01*
X137976013Y-91410292D01*
X138087507Y-91521786D01*
X138087511Y-91521789D01*
X138218614Y-91609390D01*
X138218627Y-91609397D01*
X138291813Y-91639711D01*
X138364303Y-91669737D01*
X138518953Y-91700499D01*
X138518956Y-91700500D01*
X138518958Y-91700500D01*
X138676644Y-91700500D01*
X138676645Y-91700499D01*
X138831297Y-91669737D01*
X138949392Y-91620821D01*
X138976972Y-91609397D01*
X138976972Y-91609396D01*
X138976979Y-91609394D01*
X139108089Y-91521789D01*
X139219589Y-91410289D01*
X139307194Y-91279179D01*
X139367537Y-91133497D01*
X139398300Y-90978842D01*
X139398300Y-90821158D01*
X139398300Y-90821155D01*
X139398299Y-90821153D01*
X139373629Y-90697129D01*
X139367537Y-90666503D01*
X139355530Y-90637516D01*
X139307197Y-90520827D01*
X139307190Y-90520814D01*
X139219589Y-90389711D01*
X139219586Y-90389707D01*
X139108092Y-90278213D01*
X139108088Y-90278210D01*
X138976985Y-90190609D01*
X138976972Y-90190602D01*
X138831301Y-90130264D01*
X138831289Y-90130261D01*
X138676645Y-90099500D01*
X138676642Y-90099500D01*
X138518958Y-90099500D01*
X138518955Y-90099500D01*
X138364310Y-90130261D01*
X138364298Y-90130264D01*
X138218627Y-90190602D01*
X138218614Y-90190609D01*
X138087511Y-90278210D01*
X138087507Y-90278213D01*
X137976013Y-90389707D01*
X137976010Y-90389711D01*
X137888409Y-90520814D01*
X137888402Y-90520827D01*
X137828064Y-90666498D01*
X137828061Y-90666510D01*
X137797300Y-90821153D01*
X132000500Y-90821153D01*
X132000500Y-89521153D01*
X141999500Y-89521153D01*
X141999500Y-89678846D01*
X142030261Y-89833489D01*
X142030264Y-89833501D01*
X142090602Y-89979172D01*
X142090609Y-89979185D01*
X142178210Y-90110288D01*
X142178213Y-90110292D01*
X142289707Y-90221786D01*
X142289711Y-90221789D01*
X142420814Y-90309390D01*
X142420827Y-90309397D01*
X142566498Y-90369735D01*
X142566503Y-90369737D01*
X142721153Y-90400499D01*
X142721156Y-90400500D01*
X142721158Y-90400500D01*
X142878844Y-90400500D01*
X142878845Y-90400499D01*
X143033497Y-90369737D01*
X143179179Y-90309394D01*
X143310289Y-90221789D01*
X143421789Y-90110289D01*
X143509394Y-89979179D01*
X143564495Y-89846153D01*
X147599500Y-89846153D01*
X147599500Y-90003846D01*
X147630261Y-90158489D01*
X147630264Y-90158501D01*
X147690602Y-90304172D01*
X147690609Y-90304185D01*
X147778210Y-90435288D01*
X147778213Y-90435292D01*
X147805240Y-90462319D01*
X147838725Y-90523642D01*
X147833741Y-90593334D01*
X147805240Y-90637681D01*
X147778213Y-90664707D01*
X147778210Y-90664711D01*
X147690609Y-90795814D01*
X147690602Y-90795827D01*
X147630264Y-90941498D01*
X147630261Y-90941510D01*
X147599500Y-91096153D01*
X147599500Y-91253846D01*
X147630261Y-91408489D01*
X147630264Y-91408501D01*
X147690602Y-91554172D01*
X147690609Y-91554185D01*
X147778210Y-91685288D01*
X147778213Y-91685292D01*
X147889707Y-91796786D01*
X147889711Y-91796789D01*
X148020814Y-91884390D01*
X148020827Y-91884397D01*
X148166498Y-91944735D01*
X148166503Y-91944737D01*
X148275963Y-91966510D01*
X148321153Y-91975499D01*
X148321156Y-91975500D01*
X148321158Y-91975500D01*
X148478844Y-91975500D01*
X148478845Y-91975499D01*
X148633497Y-91944737D01*
X148779179Y-91884394D01*
X148910289Y-91796789D01*
X149021789Y-91685289D01*
X149109394Y-91554179D01*
X149169737Y-91408497D01*
X149200500Y-91253842D01*
X149200500Y-91096158D01*
X149200500Y-91096155D01*
X149200499Y-91096153D01*
X149187393Y-91030264D01*
X149169737Y-90941503D01*
X149169735Y-90941498D01*
X149109397Y-90795827D01*
X149109390Y-90795814D01*
X149021789Y-90664711D01*
X149021786Y-90664707D01*
X148994760Y-90637681D01*
X148961275Y-90576358D01*
X148966259Y-90506666D01*
X148994760Y-90462319D01*
X149021786Y-90435292D01*
X149021789Y-90435289D01*
X149109394Y-90304179D01*
X149169737Y-90158497D01*
X149200500Y-90003842D01*
X149200500Y-89846158D01*
X149200500Y-89846155D01*
X149200499Y-89846153D01*
X149999500Y-89846153D01*
X149999500Y-90003846D01*
X150030261Y-90158489D01*
X150030264Y-90158501D01*
X150090602Y-90304172D01*
X150090609Y-90304185D01*
X150178210Y-90435288D01*
X150178213Y-90435292D01*
X150205240Y-90462319D01*
X150238725Y-90523642D01*
X150233741Y-90593334D01*
X150205240Y-90637681D01*
X150178213Y-90664707D01*
X150178210Y-90664711D01*
X150090609Y-90795814D01*
X150090602Y-90795827D01*
X150030264Y-90941498D01*
X150030261Y-90941510D01*
X149999500Y-91096153D01*
X149999500Y-91253846D01*
X150030261Y-91408489D01*
X150030264Y-91408501D01*
X150090602Y-91554172D01*
X150090609Y-91554185D01*
X150178210Y-91685288D01*
X150178213Y-91685292D01*
X150289707Y-91796786D01*
X150289711Y-91796789D01*
X150420814Y-91884390D01*
X150420827Y-91884397D01*
X150566498Y-91944735D01*
X150566503Y-91944737D01*
X150675963Y-91966510D01*
X150721153Y-91975499D01*
X150721156Y-91975500D01*
X150721158Y-91975500D01*
X150878844Y-91975500D01*
X150878845Y-91975499D01*
X151033497Y-91944737D01*
X151179179Y-91884394D01*
X151310289Y-91796789D01*
X151421789Y-91685289D01*
X151509394Y-91554179D01*
X151569737Y-91408497D01*
X151600500Y-91253842D01*
X151600500Y-91096158D01*
X151600500Y-91096155D01*
X151600499Y-91096153D01*
X151587393Y-91030264D01*
X151569737Y-90941503D01*
X151569735Y-90941498D01*
X151509397Y-90795827D01*
X151509390Y-90795814D01*
X151421789Y-90664711D01*
X151421786Y-90664707D01*
X151394760Y-90637681D01*
X151361275Y-90576358D01*
X151366259Y-90506666D01*
X151394760Y-90462319D01*
X151421786Y-90435292D01*
X151421789Y-90435289D01*
X151509394Y-90304179D01*
X151569737Y-90158497D01*
X151600500Y-90003842D01*
X151600500Y-89846158D01*
X151600500Y-89846155D01*
X151600499Y-89846153D01*
X151594476Y-89815873D01*
X151569737Y-89691503D01*
X151564493Y-89678842D01*
X151509397Y-89545827D01*
X151509390Y-89545814D01*
X151421789Y-89414711D01*
X151421786Y-89414707D01*
X151310292Y-89303213D01*
X151310288Y-89303210D01*
X151179185Y-89215609D01*
X151179172Y-89215602D01*
X151033501Y-89155264D01*
X151033489Y-89155261D01*
X150878845Y-89124500D01*
X150878842Y-89124500D01*
X150721158Y-89124500D01*
X150721155Y-89124500D01*
X150566510Y-89155261D01*
X150566498Y-89155264D01*
X150420827Y-89215602D01*
X150420814Y-89215609D01*
X150289711Y-89303210D01*
X150289707Y-89303213D01*
X150178213Y-89414707D01*
X150178210Y-89414711D01*
X150090609Y-89545814D01*
X150090602Y-89545827D01*
X150030264Y-89691498D01*
X150030261Y-89691510D01*
X149999500Y-89846153D01*
X149200499Y-89846153D01*
X149194476Y-89815873D01*
X149169737Y-89691503D01*
X149164493Y-89678842D01*
X149109397Y-89545827D01*
X149109390Y-89545814D01*
X149021789Y-89414711D01*
X149021786Y-89414707D01*
X148910292Y-89303213D01*
X148910288Y-89303210D01*
X148779185Y-89215609D01*
X148779172Y-89215602D01*
X148633501Y-89155264D01*
X148633489Y-89155261D01*
X148478845Y-89124500D01*
X148478842Y-89124500D01*
X148321158Y-89124500D01*
X148321155Y-89124500D01*
X148166510Y-89155261D01*
X148166498Y-89155264D01*
X148020827Y-89215602D01*
X148020814Y-89215609D01*
X147889711Y-89303210D01*
X147889707Y-89303213D01*
X147778213Y-89414707D01*
X147778210Y-89414711D01*
X147690609Y-89545814D01*
X147690602Y-89545827D01*
X147630264Y-89691498D01*
X147630261Y-89691510D01*
X147599500Y-89846153D01*
X143564495Y-89846153D01*
X143569737Y-89833497D01*
X143600500Y-89678842D01*
X143600500Y-89521158D01*
X143600500Y-89521155D01*
X143600499Y-89521153D01*
X143583141Y-89433891D01*
X143569737Y-89366503D01*
X143569735Y-89366498D01*
X143509397Y-89220827D01*
X143509390Y-89220814D01*
X143421789Y-89089711D01*
X143421786Y-89089707D01*
X143310292Y-88978213D01*
X143310288Y-88978210D01*
X143179185Y-88890609D01*
X143179172Y-88890602D01*
X143033501Y-88830264D01*
X143033489Y-88830261D01*
X142878845Y-88799500D01*
X142878842Y-88799500D01*
X142721158Y-88799500D01*
X142721155Y-88799500D01*
X142566510Y-88830261D01*
X142566498Y-88830264D01*
X142420827Y-88890602D01*
X142420814Y-88890609D01*
X142289711Y-88978210D01*
X142289707Y-88978213D01*
X142178213Y-89089707D01*
X142178210Y-89089711D01*
X142090609Y-89220814D01*
X142090602Y-89220827D01*
X142030264Y-89366498D01*
X142030261Y-89366510D01*
X141999500Y-89521153D01*
X132000500Y-89521153D01*
X132000500Y-88421153D01*
X139199500Y-88421153D01*
X139199500Y-88578846D01*
X139230261Y-88733489D01*
X139230264Y-88733501D01*
X139290602Y-88879172D01*
X139290609Y-88879185D01*
X139378210Y-89010288D01*
X139378213Y-89010292D01*
X139489707Y-89121786D01*
X139489711Y-89121789D01*
X139620814Y-89209390D01*
X139620827Y-89209397D01*
X139724121Y-89252182D01*
X139766503Y-89269737D01*
X139899083Y-89296109D01*
X139921153Y-89300499D01*
X139921156Y-89300500D01*
X139921158Y-89300500D01*
X140078844Y-89300500D01*
X140078845Y-89300499D01*
X140233497Y-89269737D01*
X140351592Y-89220821D01*
X140379172Y-89209397D01*
X140379172Y-89209396D01*
X140379179Y-89209394D01*
X140510289Y-89121789D01*
X140621789Y-89010289D01*
X140709394Y-88879179D01*
X140769737Y-88733497D01*
X140782058Y-88671557D01*
X140790525Y-88628992D01*
X157359500Y-88628992D01*
X157359500Y-88831007D01*
X157398907Y-89029119D01*
X157398909Y-89029127D01*
X157476213Y-89215755D01*
X157529904Y-89296109D01*
X157550782Y-89362787D01*
X157532297Y-89430167D01*
X157529904Y-89433891D01*
X157476213Y-89514244D01*
X157398909Y-89700872D01*
X157398907Y-89700880D01*
X157359500Y-89898992D01*
X157359500Y-90101007D01*
X157398907Y-90299119D01*
X157398909Y-90299127D01*
X157432325Y-90379800D01*
X157439794Y-90449270D01*
X157420038Y-90494660D01*
X157420454Y-90494887D01*
X157417919Y-90499528D01*
X157417037Y-90501556D01*
X157416206Y-90502665D01*
X157416202Y-90502672D01*
X157365908Y-90637517D01*
X157359501Y-90697116D01*
X157359501Y-90697123D01*
X157359500Y-90697135D01*
X157359500Y-91842870D01*
X157359501Y-91842876D01*
X157365908Y-91902483D01*
X157416202Y-92037328D01*
X157416206Y-92037335D01*
X157502452Y-92152544D01*
X157502455Y-92152547D01*
X157617664Y-92238793D01*
X157617671Y-92238797D01*
X157752517Y-92289091D01*
X157752516Y-92289091D01*
X157759444Y-92289835D01*
X157812127Y-92295500D01*
X159407872Y-92295499D01*
X159467483Y-92289091D01*
X159602331Y-92238796D01*
X159717546Y-92152546D01*
X159803796Y-92037331D01*
X159854091Y-91902483D01*
X159860500Y-91842873D01*
X159860499Y-90697128D01*
X159854091Y-90637517D01*
X159845319Y-90613999D01*
X159803797Y-90502671D01*
X159803796Y-90502670D01*
X159803796Y-90502669D01*
X159802967Y-90501562D01*
X159802485Y-90500268D01*
X159799546Y-90494886D01*
X159800319Y-90494463D01*
X159778551Y-90436099D01*
X159787675Y-90379798D01*
X159821089Y-90299132D01*
X159821089Y-90299131D01*
X159821091Y-90299127D01*
X159860500Y-90101003D01*
X159860500Y-89898997D01*
X159821091Y-89700873D01*
X159743786Y-89514244D01*
X159690094Y-89433889D01*
X159669217Y-89367214D01*
X159687701Y-89299834D01*
X159690078Y-89296134D01*
X159743786Y-89215756D01*
X159821091Y-89029127D01*
X159860500Y-88831003D01*
X159860500Y-88628997D01*
X159821091Y-88430873D01*
X159743786Y-88244244D01*
X159743784Y-88244241D01*
X159743782Y-88244237D01*
X159631558Y-88076281D01*
X159488718Y-87933441D01*
X159320762Y-87821217D01*
X159320752Y-87821212D01*
X159134127Y-87743909D01*
X159134119Y-87743907D01*
X158936007Y-87704500D01*
X158936003Y-87704500D01*
X158283997Y-87704500D01*
X158283992Y-87704500D01*
X158085880Y-87743907D01*
X158085872Y-87743909D01*
X157899247Y-87821212D01*
X157899237Y-87821217D01*
X157731281Y-87933441D01*
X157588441Y-88076281D01*
X157476217Y-88244237D01*
X157476212Y-88244247D01*
X157398909Y-88430872D01*
X157398907Y-88430880D01*
X157359500Y-88628992D01*
X140790525Y-88628992D01*
X140796548Y-88598713D01*
X140796548Y-88598712D01*
X140800499Y-88578846D01*
X140800500Y-88578844D01*
X140800500Y-88421155D01*
X140800499Y-88421153D01*
X140776499Y-88300499D01*
X140769737Y-88266503D01*
X140746080Y-88209390D01*
X140709397Y-88120827D01*
X140709390Y-88120814D01*
X140621789Y-87989711D01*
X140621786Y-87989707D01*
X140510292Y-87878213D01*
X140510288Y-87878210D01*
X140379185Y-87790609D01*
X140379172Y-87790602D01*
X140233501Y-87730264D01*
X140233489Y-87730261D01*
X140078845Y-87699500D01*
X140078842Y-87699500D01*
X139921158Y-87699500D01*
X139921155Y-87699500D01*
X139766510Y-87730261D01*
X139766498Y-87730264D01*
X139620827Y-87790602D01*
X139620814Y-87790609D01*
X139489711Y-87878210D01*
X139489707Y-87878213D01*
X139378213Y-87989707D01*
X139378210Y-87989711D01*
X139290609Y-88120814D01*
X139290602Y-88120827D01*
X139230264Y-88266498D01*
X139230261Y-88266510D01*
X139199500Y-88421153D01*
X132000500Y-88421153D01*
X132000500Y-87421153D01*
X167699500Y-87421153D01*
X167699500Y-87578846D01*
X167730261Y-87733489D01*
X167730264Y-87733501D01*
X167790602Y-87879172D01*
X167790609Y-87879185D01*
X167878210Y-88010288D01*
X167878213Y-88010292D01*
X167989707Y-88121786D01*
X167989711Y-88121789D01*
X168120814Y-88209390D01*
X168120827Y-88209397D01*
X168204964Y-88244247D01*
X168266503Y-88269737D01*
X168417569Y-88299786D01*
X168421153Y-88300499D01*
X168421156Y-88300500D01*
X168421158Y-88300500D01*
X168578844Y-88300500D01*
X168578845Y-88300499D01*
X168733497Y-88269737D01*
X168879179Y-88209394D01*
X169010289Y-88121789D01*
X169121789Y-88010289D01*
X169209394Y-87879179D01*
X169269737Y-87733497D01*
X169300500Y-87578842D01*
X169300500Y-87421158D01*
X169300500Y-87421155D01*
X169300499Y-87421153D01*
X169699500Y-87421153D01*
X169699500Y-87578846D01*
X169730261Y-87733489D01*
X169730264Y-87733501D01*
X169790602Y-87879172D01*
X169790609Y-87879185D01*
X169878210Y-88010288D01*
X169878213Y-88010292D01*
X169989707Y-88121786D01*
X169989711Y-88121789D01*
X170120814Y-88209390D01*
X170120827Y-88209397D01*
X170204964Y-88244247D01*
X170266503Y-88269737D01*
X170417569Y-88299786D01*
X170421153Y-88300499D01*
X170421156Y-88300500D01*
X170421158Y-88300500D01*
X170578844Y-88300500D01*
X170578845Y-88300499D01*
X170733497Y-88269737D01*
X170879179Y-88209394D01*
X171010289Y-88121789D01*
X171109271Y-88022806D01*
X171170592Y-87989323D01*
X171240284Y-87994307D01*
X171296218Y-88036178D01*
X171307435Y-88054193D01*
X171344949Y-88127817D01*
X171469890Y-88299786D01*
X171620213Y-88450109D01*
X171792182Y-88575050D01*
X171800946Y-88579516D01*
X171851742Y-88627491D01*
X171868536Y-88695312D01*
X171845998Y-88761447D01*
X171800946Y-88800484D01*
X171792182Y-88804949D01*
X171620213Y-88929890D01*
X171469890Y-89080213D01*
X171344951Y-89252179D01*
X171248444Y-89441585D01*
X171182753Y-89643760D01*
X171155494Y-89815871D01*
X171149500Y-89853713D01*
X171149500Y-90066287D01*
X171182754Y-90276243D01*
X171237598Y-90445036D01*
X171248444Y-90478414D01*
X171344951Y-90667820D01*
X171469890Y-90839786D01*
X171620213Y-90990109D01*
X171792182Y-91115050D01*
X171800946Y-91119516D01*
X171851742Y-91167491D01*
X171868536Y-91235312D01*
X171845998Y-91301447D01*
X171800946Y-91340484D01*
X171792182Y-91344949D01*
X171620213Y-91469890D01*
X171469894Y-91620209D01*
X171433967Y-91669659D01*
X171378637Y-91712324D01*
X171309023Y-91718303D01*
X171247228Y-91685697D01*
X171219087Y-91644223D01*
X171217216Y-91639707D01*
X171209394Y-91620821D01*
X171209392Y-91620818D01*
X171209390Y-91620814D01*
X171121789Y-91489711D01*
X171121786Y-91489707D01*
X171010292Y-91378213D01*
X171010288Y-91378210D01*
X170879185Y-91290609D01*
X170879172Y-91290602D01*
X170733501Y-91230264D01*
X170733489Y-91230261D01*
X170578845Y-91199500D01*
X170578842Y-91199500D01*
X170421158Y-91199500D01*
X170421155Y-91199500D01*
X170266510Y-91230261D01*
X170266498Y-91230264D01*
X170120827Y-91290602D01*
X170120814Y-91290609D01*
X169989711Y-91378210D01*
X169989707Y-91378213D01*
X169878213Y-91489707D01*
X169878210Y-91489711D01*
X169790609Y-91620814D01*
X169790602Y-91620827D01*
X169730264Y-91766498D01*
X169730261Y-91766510D01*
X169699500Y-91921153D01*
X169699500Y-92078846D01*
X169730261Y-92233489D01*
X169730264Y-92233501D01*
X169790602Y-92379172D01*
X169790609Y-92379185D01*
X169878210Y-92510288D01*
X169878213Y-92510292D01*
X169989707Y-92621786D01*
X169989711Y-92621789D01*
X170120814Y-92709390D01*
X170120827Y-92709397D01*
X170266498Y-92769735D01*
X170266503Y-92769737D01*
X170421153Y-92800499D01*
X170421156Y-92800500D01*
X170421158Y-92800500D01*
X170578844Y-92800500D01*
X170578845Y-92800499D01*
X170733497Y-92769737D01*
X170879179Y-92709394D01*
X170977338Y-92643805D01*
X171044013Y-92622929D01*
X171111393Y-92641413D01*
X171158084Y-92693392D01*
X171168700Y-92727511D01*
X171180260Y-92800500D01*
X171182754Y-92816243D01*
X171232627Y-92969737D01*
X171248444Y-93018414D01*
X171344951Y-93207820D01*
X171469890Y-93379786D01*
X171620213Y-93530109D01*
X171792182Y-93655050D01*
X171800946Y-93659516D01*
X171851742Y-93707491D01*
X171868536Y-93775312D01*
X171845998Y-93841447D01*
X171800946Y-93880484D01*
X171792182Y-93884949D01*
X171620213Y-94009890D01*
X171469890Y-94160213D01*
X171344951Y-94332179D01*
X171248444Y-94521585D01*
X171182753Y-94723760D01*
X171149500Y-94933713D01*
X171149500Y-95146286D01*
X171175475Y-95310289D01*
X171182754Y-95356243D01*
X171245872Y-95550500D01*
X171248444Y-95558414D01*
X171344951Y-95747820D01*
X171469890Y-95919786D01*
X171620213Y-96070109D01*
X171792182Y-96195050D01*
X171800946Y-96199516D01*
X171851742Y-96247491D01*
X171868536Y-96315312D01*
X171845998Y-96381447D01*
X171800946Y-96420484D01*
X171792182Y-96424949D01*
X171620213Y-96549890D01*
X171469890Y-96700213D01*
X171344951Y-96872179D01*
X171248444Y-97061585D01*
X171182753Y-97263760D01*
X171155871Y-97433489D01*
X171149500Y-97473713D01*
X171149500Y-97686287D01*
X171153302Y-97710289D01*
X171180084Y-97879390D01*
X171182754Y-97896243D01*
X171247960Y-98096926D01*
X171248444Y-98098414D01*
X171344951Y-98287820D01*
X171469890Y-98459786D01*
X171620213Y-98610109D01*
X171792182Y-98735050D01*
X171800946Y-98739516D01*
X171851742Y-98787491D01*
X171868536Y-98855312D01*
X171845998Y-98921447D01*
X171800946Y-98960484D01*
X171792182Y-98964949D01*
X171620213Y-99089890D01*
X171469890Y-99240213D01*
X171344951Y-99412179D01*
X171248444Y-99601585D01*
X171182753Y-99803760D01*
X171149500Y-100013713D01*
X171149500Y-100226286D01*
X171182753Y-100436239D01*
X171248444Y-100638414D01*
X171344951Y-100827820D01*
X171469890Y-100999786D01*
X171620213Y-101150109D01*
X171792182Y-101275050D01*
X171800946Y-101279516D01*
X171851742Y-101327491D01*
X171868536Y-101395312D01*
X171845998Y-101461447D01*
X171800946Y-101500484D01*
X171792182Y-101504949D01*
X171620213Y-101629890D01*
X171469890Y-101780213D01*
X171344951Y-101952179D01*
X171248444Y-102141585D01*
X171182753Y-102343760D01*
X171149500Y-102553713D01*
X171149500Y-102766287D01*
X171182754Y-102976243D01*
X171242555Y-103160292D01*
X171248444Y-103178414D01*
X171344951Y-103367820D01*
X171469890Y-103539786D01*
X171620213Y-103690109D01*
X171792182Y-103815050D01*
X171800946Y-103819516D01*
X171851742Y-103867491D01*
X171868536Y-103935312D01*
X171845998Y-104001447D01*
X171800946Y-104040484D01*
X171792182Y-104044949D01*
X171620213Y-104169890D01*
X171469890Y-104320213D01*
X171344951Y-104492179D01*
X171248444Y-104681585D01*
X171182753Y-104883760D01*
X171149500Y-105093713D01*
X171149500Y-105306286D01*
X171176830Y-105478844D01*
X171182754Y-105516243D01*
X171239409Y-105690609D01*
X171248444Y-105718414D01*
X171344951Y-105907820D01*
X171469890Y-106079786D01*
X171620213Y-106230109D01*
X171792182Y-106355050D01*
X171800946Y-106359516D01*
X171851742Y-106407491D01*
X171868536Y-106475312D01*
X171845998Y-106541447D01*
X171800946Y-106580484D01*
X171792182Y-106584949D01*
X171620213Y-106709890D01*
X171469890Y-106860213D01*
X171344951Y-107032179D01*
X171248444Y-107221585D01*
X171182753Y-107423760D01*
X171149500Y-107633713D01*
X171149500Y-107846286D01*
X171168042Y-107963359D01*
X171182754Y-108056243D01*
X171203810Y-108121047D01*
X171248444Y-108258414D01*
X171344951Y-108447820D01*
X171469890Y-108619786D01*
X171620213Y-108770109D01*
X171792182Y-108895050D01*
X171800946Y-108899516D01*
X171851742Y-108947491D01*
X171868536Y-109015312D01*
X171845998Y-109081447D01*
X171800946Y-109120484D01*
X171792182Y-109124949D01*
X171620213Y-109249890D01*
X171469890Y-109400213D01*
X171344951Y-109572179D01*
X171248444Y-109761585D01*
X171182753Y-109963760D01*
X171149500Y-110173713D01*
X171149500Y-110386286D01*
X171181281Y-110586948D01*
X171182754Y-110596243D01*
X171235051Y-110757197D01*
X171248444Y-110798414D01*
X171344951Y-110987820D01*
X171469890Y-111159786D01*
X171620213Y-111310109D01*
X171792182Y-111435050D01*
X171800946Y-111439516D01*
X171851742Y-111487491D01*
X171868536Y-111555312D01*
X171845998Y-111621447D01*
X171800946Y-111660484D01*
X171792182Y-111664949D01*
X171620213Y-111789890D01*
X171469890Y-111940213D01*
X171344951Y-112112179D01*
X171248444Y-112301585D01*
X171182753Y-112503760D01*
X171149500Y-112713713D01*
X171149500Y-112926286D01*
X171173007Y-113074707D01*
X171182754Y-113136243D01*
X171205363Y-113205827D01*
X171248444Y-113338414D01*
X171344951Y-113527820D01*
X171469890Y-113699786D01*
X171620213Y-113850109D01*
X171792182Y-113975050D01*
X171800946Y-113979516D01*
X171851742Y-114027491D01*
X171868536Y-114095312D01*
X171845998Y-114161447D01*
X171800946Y-114200484D01*
X171792182Y-114204949D01*
X171620213Y-114329890D01*
X171469890Y-114480213D01*
X171344951Y-114652179D01*
X171248444Y-114841585D01*
X171182753Y-115043760D01*
X171149500Y-115253713D01*
X171149500Y-115466286D01*
X171182753Y-115676239D01*
X171248444Y-115878414D01*
X171344951Y-116067820D01*
X171469890Y-116239786D01*
X171620213Y-116390109D01*
X171792182Y-116515050D01*
X171800946Y-116519516D01*
X171851742Y-116567491D01*
X171868536Y-116635312D01*
X171845998Y-116701447D01*
X171800946Y-116740484D01*
X171792182Y-116744949D01*
X171620213Y-116869890D01*
X171469890Y-117020213D01*
X171344951Y-117192179D01*
X171248444Y-117381585D01*
X171182753Y-117583760D01*
X171169649Y-117666498D01*
X171149500Y-117793713D01*
X171149500Y-118006287D01*
X171182754Y-118216243D01*
X171245803Y-118410288D01*
X171248444Y-118418414D01*
X171344951Y-118607820D01*
X171469890Y-118779786D01*
X171620213Y-118930109D01*
X171792179Y-119055048D01*
X171792181Y-119055049D01*
X171792184Y-119055051D01*
X171801493Y-119059794D01*
X171852290Y-119107766D01*
X171869087Y-119175587D01*
X171846552Y-119241722D01*
X171801505Y-119280760D01*
X171792446Y-119285376D01*
X171792440Y-119285380D01*
X171738282Y-119324727D01*
X171738282Y-119324728D01*
X172370591Y-119957037D01*
X172307007Y-119974075D01*
X172192993Y-120039901D01*
X172099901Y-120132993D01*
X172034075Y-120247007D01*
X172017037Y-120310591D01*
X171384728Y-119678282D01*
X171384727Y-119678282D01*
X171345380Y-119732439D01*
X171248904Y-119921782D01*
X171183242Y-120123869D01*
X171183242Y-120123872D01*
X171150000Y-120333753D01*
X171150000Y-120546246D01*
X171183242Y-120756127D01*
X171183242Y-120756130D01*
X171248904Y-120958217D01*
X171345375Y-121147550D01*
X171384728Y-121201716D01*
X172017037Y-120569408D01*
X172034075Y-120632993D01*
X172099901Y-120747007D01*
X172192993Y-120840099D01*
X172307007Y-120905925D01*
X172370590Y-120922962D01*
X171738282Y-121555269D01*
X171738282Y-121555270D01*
X171792452Y-121594626D01*
X171792451Y-121594626D01*
X171801495Y-121599234D01*
X171852292Y-121647208D01*
X171869087Y-121715029D01*
X171846550Y-121781164D01*
X171801499Y-121820202D01*
X171792182Y-121824949D01*
X171620213Y-121949890D01*
X171469890Y-122100213D01*
X171344951Y-122272179D01*
X171248444Y-122461585D01*
X171248443Y-122461587D01*
X171248443Y-122461588D01*
X171215598Y-122562672D01*
X171182753Y-122663760D01*
X171149500Y-122873713D01*
X171149500Y-123086286D01*
X171172444Y-123231153D01*
X171182754Y-123296243D01*
X171212841Y-123388842D01*
X171248444Y-123498414D01*
X171344951Y-123687820D01*
X171469890Y-123859786D01*
X171583430Y-123973326D01*
X171616915Y-124034649D01*
X171611931Y-124104341D01*
X171570059Y-124160274D01*
X171539083Y-124177189D01*
X171407669Y-124226203D01*
X171407664Y-124226206D01*
X171292455Y-124312452D01*
X171292452Y-124312455D01*
X171206206Y-124427664D01*
X171206202Y-124427671D01*
X171155908Y-124562517D01*
X171149501Y-124622116D01*
X171149500Y-124622135D01*
X171149500Y-126417870D01*
X171149501Y-126417876D01*
X171155908Y-126477483D01*
X171206202Y-126612328D01*
X171206206Y-126612335D01*
X171292452Y-126727544D01*
X171292455Y-126727547D01*
X171407664Y-126813793D01*
X171407671Y-126813797D01*
X171542517Y-126864091D01*
X171542516Y-126864091D01*
X171549444Y-126864835D01*
X171602127Y-126870500D01*
X173397872Y-126870499D01*
X173457483Y-126864091D01*
X173592331Y-126813796D01*
X173707546Y-126727546D01*
X173793796Y-126612331D01*
X173842810Y-126480916D01*
X173884681Y-126424984D01*
X173950145Y-126400566D01*
X174018418Y-126415417D01*
X174046673Y-126436569D01*
X174160213Y-126550109D01*
X174332179Y-126675048D01*
X174332181Y-126675049D01*
X174332184Y-126675051D01*
X174521588Y-126771557D01*
X174723757Y-126837246D01*
X174933713Y-126870500D01*
X174933714Y-126870500D01*
X175146286Y-126870500D01*
X175146287Y-126870500D01*
X175356243Y-126837246D01*
X175558412Y-126771557D01*
X175747816Y-126675051D01*
X175834138Y-126612335D01*
X175919786Y-126550109D01*
X175919788Y-126550106D01*
X175919792Y-126550104D01*
X176070104Y-126399792D01*
X176070106Y-126399788D01*
X176070109Y-126399786D01*
X176195048Y-126227820D01*
X176195047Y-126227820D01*
X176195051Y-126227816D01*
X176291557Y-126038412D01*
X176357246Y-125836243D01*
X176390500Y-125626287D01*
X176390500Y-125413713D01*
X176357246Y-125203757D01*
X176291557Y-125001588D01*
X176195051Y-124812184D01*
X176195049Y-124812181D01*
X176195048Y-124812179D01*
X176070109Y-124640213D01*
X175919786Y-124489890D01*
X175747820Y-124364951D01*
X175747115Y-124364591D01*
X175739054Y-124360485D01*
X175688259Y-124312512D01*
X175671463Y-124244692D01*
X175693999Y-124178556D01*
X175739054Y-124139515D01*
X175747816Y-124135051D01*
X175790085Y-124104341D01*
X175919786Y-124010109D01*
X175919788Y-124010106D01*
X175919792Y-124010104D01*
X176070104Y-123859792D01*
X176070106Y-123859788D01*
X176070109Y-123859786D01*
X176195048Y-123687820D01*
X176195047Y-123687820D01*
X176195051Y-123687816D01*
X176291557Y-123498412D01*
X176357246Y-123296243D01*
X176390500Y-123086287D01*
X176390500Y-122873713D01*
X176357246Y-122663757D01*
X176291557Y-122461588D01*
X176195051Y-122272184D01*
X176195049Y-122272181D01*
X176195048Y-122272179D01*
X176070109Y-122100213D01*
X175919786Y-121949890D01*
X175747817Y-121824949D01*
X175738504Y-121820204D01*
X175687707Y-121772230D01*
X175670912Y-121704409D01*
X175693449Y-121638274D01*
X175738507Y-121599232D01*
X175747555Y-121594622D01*
X175801716Y-121555270D01*
X175801717Y-121555270D01*
X175169408Y-120922962D01*
X175232993Y-120905925D01*
X175347007Y-120840099D01*
X175440099Y-120747007D01*
X175505925Y-120632993D01*
X175522962Y-120569408D01*
X176155270Y-121201717D01*
X176155270Y-121201716D01*
X176194622Y-121147554D01*
X176291095Y-120958217D01*
X176356757Y-120756130D01*
X176356757Y-120756127D01*
X176390000Y-120546246D01*
X176390000Y-120333753D01*
X176356757Y-120123872D01*
X176356757Y-120123869D01*
X176291095Y-119921782D01*
X176194624Y-119732449D01*
X176155270Y-119678282D01*
X176155269Y-119678282D01*
X175522962Y-120310590D01*
X175505925Y-120247007D01*
X175440099Y-120132993D01*
X175347007Y-120039901D01*
X175232993Y-119974075D01*
X175169409Y-119957037D01*
X175801716Y-119324728D01*
X175747547Y-119285373D01*
X175747547Y-119285372D01*
X175738500Y-119280763D01*
X175687706Y-119232788D01*
X175670912Y-119164966D01*
X175693451Y-119098832D01*
X175738508Y-119059793D01*
X175747816Y-119055051D01*
X175846297Y-118983501D01*
X175919786Y-118930109D01*
X175919788Y-118930106D01*
X175919792Y-118930104D01*
X176070104Y-118779792D01*
X176070106Y-118779788D01*
X176070109Y-118779786D01*
X176193902Y-118609397D01*
X176195051Y-118607816D01*
X176291557Y-118418412D01*
X176357246Y-118216243D01*
X176390500Y-118006287D01*
X176390500Y-117793713D01*
X176357246Y-117583757D01*
X176291557Y-117381588D01*
X176195051Y-117192184D01*
X176195049Y-117192181D01*
X176195048Y-117192179D01*
X176070109Y-117020213D01*
X175919786Y-116869890D01*
X175747820Y-116744951D01*
X175747115Y-116744591D01*
X175739054Y-116740485D01*
X175688259Y-116692512D01*
X175671463Y-116624692D01*
X175693999Y-116558556D01*
X175739054Y-116519515D01*
X175747816Y-116515051D01*
X175769789Y-116499086D01*
X175919786Y-116390109D01*
X175919788Y-116390106D01*
X175919792Y-116390104D01*
X176070104Y-116239792D01*
X176070106Y-116239788D01*
X176070109Y-116239786D01*
X176195048Y-116067820D01*
X176195047Y-116067820D01*
X176195051Y-116067816D01*
X176291557Y-115878412D01*
X176357246Y-115676243D01*
X176390500Y-115466287D01*
X176390500Y-115253713D01*
X176357246Y-115043757D01*
X176291557Y-114841588D01*
X176195051Y-114652184D01*
X176195049Y-114652181D01*
X176195048Y-114652179D01*
X176070109Y-114480213D01*
X175919786Y-114329890D01*
X175747820Y-114204951D01*
X175747115Y-114204591D01*
X175739054Y-114200485D01*
X175688259Y-114152512D01*
X175671463Y-114084692D01*
X175693999Y-114018556D01*
X175739054Y-113979515D01*
X175747816Y-113975051D01*
X175769789Y-113959086D01*
X175919786Y-113850109D01*
X175919788Y-113850106D01*
X175919792Y-113850104D01*
X176070104Y-113699792D01*
X176070106Y-113699788D01*
X176070109Y-113699786D01*
X176195048Y-113527820D01*
X176195047Y-113527820D01*
X176195051Y-113527816D01*
X176291557Y-113338412D01*
X176357246Y-113136243D01*
X176390500Y-112926287D01*
X176390500Y-112713713D01*
X176357246Y-112503757D01*
X176291557Y-112301588D01*
X176195051Y-112112184D01*
X176195049Y-112112181D01*
X176195048Y-112112179D01*
X176070109Y-111940213D01*
X175919786Y-111789890D01*
X175747820Y-111664951D01*
X175747115Y-111664591D01*
X175739054Y-111660485D01*
X175688259Y-111612512D01*
X175671463Y-111544692D01*
X175693999Y-111478556D01*
X175739054Y-111439515D01*
X175747816Y-111435051D01*
X175777331Y-111413607D01*
X175919786Y-111310109D01*
X175919788Y-111310106D01*
X175919792Y-111310104D01*
X176070104Y-111159792D01*
X176070106Y-111159788D01*
X176070109Y-111159786D01*
X176195048Y-110987820D01*
X176195047Y-110987820D01*
X176195051Y-110987816D01*
X176291557Y-110798412D01*
X176357246Y-110596243D01*
X176390500Y-110386287D01*
X176390500Y-110173713D01*
X176357246Y-109963757D01*
X176291557Y-109761588D01*
X176195051Y-109572184D01*
X176195049Y-109572181D01*
X176195048Y-109572179D01*
X176070109Y-109400213D01*
X175919786Y-109249890D01*
X175747820Y-109124951D01*
X175747115Y-109124591D01*
X175739054Y-109120485D01*
X175688259Y-109072512D01*
X175671463Y-109004692D01*
X175693999Y-108938556D01*
X175739054Y-108899515D01*
X175747816Y-108895051D01*
X175819870Y-108842701D01*
X175919786Y-108770109D01*
X175919788Y-108770106D01*
X175919792Y-108770104D01*
X176070104Y-108619792D01*
X176070106Y-108619788D01*
X176070109Y-108619786D01*
X176195048Y-108447820D01*
X176195047Y-108447820D01*
X176195051Y-108447816D01*
X176291557Y-108258412D01*
X176357246Y-108056243D01*
X176390500Y-107846287D01*
X176390500Y-107633713D01*
X176357246Y-107423757D01*
X176291557Y-107221588D01*
X176195051Y-107032184D01*
X176195049Y-107032181D01*
X176195048Y-107032179D01*
X176070109Y-106860213D01*
X175919786Y-106709890D01*
X175747820Y-106584951D01*
X175747115Y-106584591D01*
X175739054Y-106580485D01*
X175688259Y-106532512D01*
X175671463Y-106464692D01*
X175693999Y-106398556D01*
X175739054Y-106359515D01*
X175747816Y-106355051D01*
X175794473Y-106321153D01*
X175919786Y-106230109D01*
X175919788Y-106230106D01*
X175919792Y-106230104D01*
X176070104Y-106079792D01*
X176070106Y-106079788D01*
X176070109Y-106079786D01*
X176195048Y-105907820D01*
X176195047Y-105907820D01*
X176195051Y-105907816D01*
X176291557Y-105718412D01*
X176357246Y-105516243D01*
X176390500Y-105306287D01*
X176390500Y-105093713D01*
X176357246Y-104883757D01*
X176291557Y-104681588D01*
X176195051Y-104492184D01*
X176195049Y-104492181D01*
X176195048Y-104492179D01*
X176070109Y-104320213D01*
X175919786Y-104169890D01*
X175747820Y-104044951D01*
X175747115Y-104044591D01*
X175739054Y-104040485D01*
X175688259Y-103992512D01*
X175671463Y-103924692D01*
X175693999Y-103858556D01*
X175739054Y-103819515D01*
X175747816Y-103815051D01*
X175769789Y-103799086D01*
X175919786Y-103690109D01*
X175919788Y-103690106D01*
X175919792Y-103690104D01*
X176070104Y-103539792D01*
X176070106Y-103539788D01*
X176070109Y-103539786D01*
X176195048Y-103367820D01*
X176195047Y-103367820D01*
X176195051Y-103367816D01*
X176291557Y-103178412D01*
X176357246Y-102976243D01*
X176390500Y-102766287D01*
X176390500Y-102553713D01*
X176357246Y-102343757D01*
X176291557Y-102141588D01*
X176195051Y-101952184D01*
X176195049Y-101952181D01*
X176195048Y-101952179D01*
X176070109Y-101780213D01*
X175919786Y-101629890D01*
X175747820Y-101504951D01*
X175747115Y-101504591D01*
X175739054Y-101500485D01*
X175688259Y-101452512D01*
X175671463Y-101384692D01*
X175693999Y-101318556D01*
X175739054Y-101279515D01*
X175747816Y-101275051D01*
X175769789Y-101259086D01*
X175919786Y-101150109D01*
X175919788Y-101150106D01*
X175919792Y-101150104D01*
X176070104Y-100999792D01*
X176070106Y-100999788D01*
X176070109Y-100999786D01*
X176195048Y-100827820D01*
X176195047Y-100827820D01*
X176195051Y-100827816D01*
X176291557Y-100638412D01*
X176357246Y-100436243D01*
X176390500Y-100226287D01*
X176390500Y-100013713D01*
X176357246Y-99803757D01*
X176291557Y-99601588D01*
X176195051Y-99412184D01*
X176195049Y-99412181D01*
X176195048Y-99412179D01*
X176070109Y-99240213D01*
X175919786Y-99089890D01*
X175747820Y-98964951D01*
X175747115Y-98964591D01*
X175739054Y-98960485D01*
X175688259Y-98912512D01*
X175671463Y-98844692D01*
X175693999Y-98778556D01*
X175739054Y-98739515D01*
X175747816Y-98735051D01*
X175800880Y-98696498D01*
X175919786Y-98610109D01*
X175919788Y-98610106D01*
X175919792Y-98610104D01*
X176070104Y-98459792D01*
X176070106Y-98459788D01*
X176070109Y-98459786D01*
X176195048Y-98287820D01*
X176195047Y-98287820D01*
X176195051Y-98287816D01*
X176291557Y-98098412D01*
X176357246Y-97896243D01*
X176390500Y-97686287D01*
X176390500Y-97473713D01*
X176357246Y-97263757D01*
X176291557Y-97061588D01*
X176195051Y-96872184D01*
X176195049Y-96872181D01*
X176195048Y-96872179D01*
X176070109Y-96700213D01*
X175919786Y-96549890D01*
X175747820Y-96424951D01*
X175747115Y-96424591D01*
X175739054Y-96420485D01*
X175688259Y-96372512D01*
X175671463Y-96304692D01*
X175693999Y-96238556D01*
X175739054Y-96199515D01*
X175747816Y-96195051D01*
X175769789Y-96179086D01*
X175919786Y-96070109D01*
X175919788Y-96070106D01*
X175919792Y-96070104D01*
X176070104Y-95919792D01*
X176070106Y-95919788D01*
X176070109Y-95919786D01*
X176195048Y-95747820D01*
X176195047Y-95747820D01*
X176195051Y-95747816D01*
X176291557Y-95558412D01*
X176357246Y-95356243D01*
X176390500Y-95146287D01*
X176390500Y-94933713D01*
X176357246Y-94723757D01*
X176291557Y-94521588D01*
X176195051Y-94332184D01*
X176195049Y-94332181D01*
X176195048Y-94332179D01*
X176070109Y-94160213D01*
X175919786Y-94009890D01*
X175747820Y-93884951D01*
X175745443Y-93883740D01*
X175739054Y-93880485D01*
X175688259Y-93832512D01*
X175671463Y-93764692D01*
X175693999Y-93698556D01*
X175739054Y-93659515D01*
X175747816Y-93655051D01*
X175769789Y-93639086D01*
X175919786Y-93530109D01*
X175919788Y-93530106D01*
X175919792Y-93530104D01*
X176070104Y-93379792D01*
X176070106Y-93379788D01*
X176070109Y-93379786D01*
X176195048Y-93207820D01*
X176195047Y-93207820D01*
X176195051Y-93207816D01*
X176291557Y-93018412D01*
X176357246Y-92816243D01*
X176390500Y-92606287D01*
X176390500Y-92393713D01*
X176357246Y-92183757D01*
X176291557Y-91981588D01*
X176195051Y-91792184D01*
X176195049Y-91792181D01*
X176195048Y-91792179D01*
X176070109Y-91620213D01*
X175919786Y-91469890D01*
X175747820Y-91344951D01*
X175747115Y-91344591D01*
X175739054Y-91340485D01*
X175688259Y-91292512D01*
X175671463Y-91224692D01*
X175693999Y-91158556D01*
X175739054Y-91119515D01*
X175747816Y-91115051D01*
X175781467Y-91090602D01*
X175919786Y-90990109D01*
X175919788Y-90990106D01*
X175919792Y-90990104D01*
X176070104Y-90839792D01*
X176070106Y-90839788D01*
X176070109Y-90839786D01*
X176195048Y-90667820D01*
X176195047Y-90667820D01*
X176195051Y-90667816D01*
X176291557Y-90478412D01*
X176357246Y-90276243D01*
X176390500Y-90066287D01*
X176390500Y-89853713D01*
X176357246Y-89643757D01*
X176291557Y-89441588D01*
X176195051Y-89252184D01*
X176195049Y-89252181D01*
X176195048Y-89252179D01*
X176070109Y-89080213D01*
X175919786Y-88929890D01*
X175747820Y-88804951D01*
X175747115Y-88804591D01*
X175739054Y-88800485D01*
X175688259Y-88752512D01*
X175671463Y-88684692D01*
X175693999Y-88618556D01*
X175739054Y-88579515D01*
X175747816Y-88575051D01*
X175769789Y-88559086D01*
X175919786Y-88450109D01*
X175919788Y-88450106D01*
X175919792Y-88450104D01*
X176070104Y-88299792D01*
X176070106Y-88299788D01*
X176070109Y-88299786D01*
X176195048Y-88127820D01*
X176195050Y-88127817D01*
X176195051Y-88127816D01*
X176291557Y-87938412D01*
X176357246Y-87736243D01*
X176390500Y-87526287D01*
X176390500Y-87313713D01*
X176357246Y-87103757D01*
X176291557Y-86901588D01*
X176195051Y-86712184D01*
X176195049Y-86712181D01*
X176195048Y-86712179D01*
X176070109Y-86540213D01*
X175919786Y-86389890D01*
X175747820Y-86264951D01*
X175747115Y-86264591D01*
X175739054Y-86260485D01*
X175688259Y-86212512D01*
X175671463Y-86144692D01*
X175693999Y-86078556D01*
X175739054Y-86039515D01*
X175747816Y-86035051D01*
X175769789Y-86019086D01*
X175919786Y-85910109D01*
X175919788Y-85910106D01*
X175919792Y-85910104D01*
X176070104Y-85759792D01*
X176070106Y-85759788D01*
X176070109Y-85759786D01*
X176195048Y-85587820D01*
X176195047Y-85587820D01*
X176195051Y-85587816D01*
X176291557Y-85398412D01*
X176357246Y-85196243D01*
X176390500Y-84986287D01*
X176390500Y-84773713D01*
X176357246Y-84563757D01*
X176291557Y-84361588D01*
X176195051Y-84172184D01*
X176195049Y-84172181D01*
X176195048Y-84172179D01*
X176070109Y-84000213D01*
X175919786Y-83849890D01*
X175747820Y-83724951D01*
X175747115Y-83724591D01*
X175739054Y-83720485D01*
X175688259Y-83672512D01*
X175671463Y-83604692D01*
X175693999Y-83538556D01*
X175739054Y-83499515D01*
X175747816Y-83495051D01*
X175769789Y-83479086D01*
X175919786Y-83370109D01*
X175919788Y-83370106D01*
X175919792Y-83370104D01*
X176070104Y-83219792D01*
X176070106Y-83219788D01*
X176070109Y-83219786D01*
X176195048Y-83047820D01*
X176195047Y-83047820D01*
X176195051Y-83047816D01*
X176291557Y-82858412D01*
X176357246Y-82656243D01*
X176390500Y-82446287D01*
X176390500Y-82233713D01*
X176357246Y-82023757D01*
X176291557Y-81821588D01*
X176195051Y-81632184D01*
X176195049Y-81632181D01*
X176195048Y-81632179D01*
X176070109Y-81460213D01*
X175919786Y-81309890D01*
X175747820Y-81184951D01*
X175747115Y-81184591D01*
X175739054Y-81180485D01*
X175688259Y-81132512D01*
X175671463Y-81064692D01*
X175693999Y-80998556D01*
X175739054Y-80959515D01*
X175747816Y-80955051D01*
X175843836Y-80885289D01*
X175919786Y-80830109D01*
X175919788Y-80830106D01*
X175919792Y-80830104D01*
X176070104Y-80679792D01*
X176070106Y-80679788D01*
X176070109Y-80679786D01*
X176195048Y-80507820D01*
X176195047Y-80507820D01*
X176195051Y-80507816D01*
X176291557Y-80318412D01*
X176357246Y-80116243D01*
X176390500Y-79906287D01*
X176390500Y-79693713D01*
X176357246Y-79483757D01*
X176291557Y-79281588D01*
X176195051Y-79092184D01*
X176195049Y-79092181D01*
X176195048Y-79092179D01*
X176070109Y-78920213D01*
X175919786Y-78769890D01*
X175747820Y-78644951D01*
X175747115Y-78644591D01*
X175739054Y-78640485D01*
X175688259Y-78592512D01*
X175671463Y-78524692D01*
X175693999Y-78458556D01*
X175739054Y-78419515D01*
X175747816Y-78415051D01*
X175849449Y-78341211D01*
X175919786Y-78290109D01*
X175919788Y-78290106D01*
X175919792Y-78290104D01*
X176070104Y-78139792D01*
X176070106Y-78139788D01*
X176070109Y-78139786D01*
X176195048Y-77967820D01*
X176195047Y-77967820D01*
X176195051Y-77967816D01*
X176291557Y-77778412D01*
X176357246Y-77576243D01*
X176390500Y-77366287D01*
X176390500Y-77153713D01*
X176357246Y-76943757D01*
X176291557Y-76741588D01*
X176195051Y-76552184D01*
X176195049Y-76552181D01*
X176195048Y-76552179D01*
X176070109Y-76380213D01*
X175919786Y-76229890D01*
X175747820Y-76104951D01*
X175558414Y-76008444D01*
X175558413Y-76008443D01*
X175558412Y-76008443D01*
X175356243Y-75942754D01*
X175356241Y-75942753D01*
X175356240Y-75942753D01*
X175194957Y-75917208D01*
X175146287Y-75909500D01*
X174933713Y-75909500D01*
X174885042Y-75917208D01*
X174723760Y-75942753D01*
X174521585Y-76008444D01*
X174332179Y-76104951D01*
X174160213Y-76229890D01*
X174009890Y-76380213D01*
X173884949Y-76552182D01*
X173880484Y-76560946D01*
X173832509Y-76611742D01*
X173764688Y-76628536D01*
X173698553Y-76605998D01*
X173659516Y-76560946D01*
X173655050Y-76552182D01*
X173530109Y-76380213D01*
X173379786Y-76229890D01*
X173207820Y-76104951D01*
X173018414Y-76008444D01*
X173018413Y-76008443D01*
X173018412Y-76008443D01*
X172816243Y-75942754D01*
X172816241Y-75942753D01*
X172816240Y-75942753D01*
X172654957Y-75917208D01*
X172606287Y-75909500D01*
X172393713Y-75909500D01*
X172345042Y-75917208D01*
X172183760Y-75942753D01*
X171981585Y-76008444D01*
X171792179Y-76104951D01*
X171620213Y-76229890D01*
X171469890Y-76380213D01*
X171344951Y-76552179D01*
X171248444Y-76741585D01*
X171182753Y-76943760D01*
X171158227Y-77098613D01*
X171149500Y-77153713D01*
X171149500Y-77366287D01*
X171159534Y-77429644D01*
X171182753Y-77576239D01*
X171248444Y-77778414D01*
X171344951Y-77967820D01*
X171469890Y-78139786D01*
X171620213Y-78290109D01*
X171792182Y-78415050D01*
X171800946Y-78419516D01*
X171851742Y-78467491D01*
X171868536Y-78535312D01*
X171845998Y-78601447D01*
X171800946Y-78640484D01*
X171792182Y-78644949D01*
X171620213Y-78769890D01*
X171469890Y-78920213D01*
X171344951Y-79092179D01*
X171248444Y-79281585D01*
X171182753Y-79483760D01*
X171163509Y-79605263D01*
X171149500Y-79693713D01*
X171149500Y-79906287D01*
X171182754Y-80116243D01*
X171241212Y-80296158D01*
X171248444Y-80318414D01*
X171344951Y-80507820D01*
X171469890Y-80679786D01*
X171620213Y-80830109D01*
X171792182Y-80955050D01*
X171800946Y-80959516D01*
X171851742Y-81007491D01*
X171868536Y-81075312D01*
X171845998Y-81141447D01*
X171800946Y-81180484D01*
X171792182Y-81184949D01*
X171620213Y-81309890D01*
X171469890Y-81460213D01*
X171344951Y-81632179D01*
X171248444Y-81821585D01*
X171182753Y-82023760D01*
X171149500Y-82233713D01*
X171149500Y-82446286D01*
X171163107Y-82532201D01*
X171182754Y-82656243D01*
X171238106Y-82826599D01*
X171248444Y-82858414D01*
X171344951Y-83047820D01*
X171469890Y-83219786D01*
X171620213Y-83370109D01*
X171792182Y-83495050D01*
X171800946Y-83499516D01*
X171851742Y-83547491D01*
X171868536Y-83615312D01*
X171845998Y-83681447D01*
X171800946Y-83720484D01*
X171792182Y-83724949D01*
X171620213Y-83849890D01*
X171469890Y-84000213D01*
X171344951Y-84172179D01*
X171248444Y-84361585D01*
X171182753Y-84563760D01*
X171149500Y-84773713D01*
X171149500Y-84986286D01*
X171182753Y-85196239D01*
X171248444Y-85398414D01*
X171344951Y-85587820D01*
X171469890Y-85759786D01*
X171620213Y-85910109D01*
X171792182Y-86035050D01*
X171800946Y-86039516D01*
X171851742Y-86087491D01*
X171868536Y-86155312D01*
X171845998Y-86221447D01*
X171800946Y-86260484D01*
X171792182Y-86264949D01*
X171620213Y-86389890D01*
X171469890Y-86540213D01*
X171344951Y-86712180D01*
X171253430Y-86891799D01*
X171205455Y-86942595D01*
X171137634Y-86959390D01*
X171071499Y-86936852D01*
X171055264Y-86923185D01*
X171010292Y-86878213D01*
X171010288Y-86878210D01*
X170879185Y-86790609D01*
X170879172Y-86790602D01*
X170733501Y-86730264D01*
X170733489Y-86730261D01*
X170578845Y-86699500D01*
X170578842Y-86699500D01*
X170421158Y-86699500D01*
X170421155Y-86699500D01*
X170266510Y-86730261D01*
X170266498Y-86730264D01*
X170120827Y-86790602D01*
X170120814Y-86790609D01*
X169989711Y-86878210D01*
X169989707Y-86878213D01*
X169878213Y-86989707D01*
X169878210Y-86989711D01*
X169790609Y-87120814D01*
X169790602Y-87120827D01*
X169730264Y-87266498D01*
X169730261Y-87266510D01*
X169699500Y-87421153D01*
X169300499Y-87421153D01*
X169269737Y-87266503D01*
X169242398Y-87200500D01*
X169209397Y-87120827D01*
X169209390Y-87120814D01*
X169121789Y-86989711D01*
X169121786Y-86989707D01*
X169010292Y-86878213D01*
X169010288Y-86878210D01*
X168879185Y-86790609D01*
X168879172Y-86790602D01*
X168733501Y-86730264D01*
X168733489Y-86730261D01*
X168578845Y-86699500D01*
X168578842Y-86699500D01*
X168421158Y-86699500D01*
X168421155Y-86699500D01*
X168266510Y-86730261D01*
X168266498Y-86730264D01*
X168120827Y-86790602D01*
X168120814Y-86790609D01*
X167989711Y-86878210D01*
X167989707Y-86878213D01*
X167878213Y-86989707D01*
X167878210Y-86989711D01*
X167790609Y-87120814D01*
X167790602Y-87120827D01*
X167730264Y-87266498D01*
X167730261Y-87266510D01*
X167699500Y-87421153D01*
X132000500Y-87421153D01*
X132000500Y-86321153D01*
X146896299Y-86321153D01*
X146896299Y-86478846D01*
X146927060Y-86633489D01*
X146927063Y-86633501D01*
X146987401Y-86779172D01*
X146987408Y-86779185D01*
X147075009Y-86910288D01*
X147075012Y-86910292D01*
X147186506Y-87021786D01*
X147186510Y-87021789D01*
X147317613Y-87109390D01*
X147317626Y-87109397D01*
X147463297Y-87169735D01*
X147463302Y-87169737D01*
X147617952Y-87200499D01*
X147617955Y-87200500D01*
X147617957Y-87200500D01*
X147775643Y-87200500D01*
X147775644Y-87200499D01*
X147930296Y-87169737D01*
X148048391Y-87120821D01*
X148075971Y-87109397D01*
X148075971Y-87109396D01*
X148075978Y-87109394D01*
X148207088Y-87021789D01*
X148318588Y-86910289D01*
X148406193Y-86779179D01*
X148409274Y-86771742D01*
X148426454Y-86730264D01*
X148466536Y-86633497D01*
X148497299Y-86478842D01*
X148497299Y-86321158D01*
X148497299Y-86321155D01*
X148497298Y-86321153D01*
X148486118Y-86264949D01*
X148466536Y-86166503D01*
X148452061Y-86131557D01*
X148406196Y-86020827D01*
X148406189Y-86020814D01*
X148318588Y-85889711D01*
X148318585Y-85889707D01*
X148207091Y-85778213D01*
X148207087Y-85778210D01*
X148136662Y-85731153D01*
X155224500Y-85731153D01*
X155224500Y-85888846D01*
X155255261Y-86043489D01*
X155255264Y-86043501D01*
X155315602Y-86189172D01*
X155315609Y-86189185D01*
X155403210Y-86320288D01*
X155403213Y-86320292D01*
X155514707Y-86431786D01*
X155514711Y-86431789D01*
X155645814Y-86519390D01*
X155645827Y-86519397D01*
X155791498Y-86579735D01*
X155791503Y-86579737D01*
X155946153Y-86610499D01*
X155946156Y-86610500D01*
X155946158Y-86610500D01*
X156103844Y-86610500D01*
X156103845Y-86610499D01*
X156258497Y-86579737D01*
X156404179Y-86519394D01*
X156535289Y-86431789D01*
X156646789Y-86320289D01*
X156734394Y-86189179D01*
X156794737Y-86043497D01*
X156825500Y-85888842D01*
X156825500Y-85731158D01*
X156825500Y-85731155D01*
X156825499Y-85731153D01*
X156805431Y-85630264D01*
X156794737Y-85576503D01*
X156794735Y-85576498D01*
X156734397Y-85430827D01*
X156734390Y-85430814D01*
X156646789Y-85299711D01*
X156646786Y-85299707D01*
X156535292Y-85188213D01*
X156535288Y-85188210D01*
X156404185Y-85100609D01*
X156404172Y-85100602D01*
X156258501Y-85040264D01*
X156258489Y-85040261D01*
X156103845Y-85009500D01*
X156103842Y-85009500D01*
X155946158Y-85009500D01*
X155946155Y-85009500D01*
X155791510Y-85040261D01*
X155791498Y-85040264D01*
X155645827Y-85100602D01*
X155645814Y-85100609D01*
X155514711Y-85188210D01*
X155514707Y-85188213D01*
X155403213Y-85299707D01*
X155403210Y-85299711D01*
X155315609Y-85430814D01*
X155315602Y-85430827D01*
X155255264Y-85576498D01*
X155255261Y-85576510D01*
X155224500Y-85731153D01*
X148136662Y-85731153D01*
X148075984Y-85690609D01*
X148075971Y-85690602D01*
X147930300Y-85630264D01*
X147930288Y-85630261D01*
X147775644Y-85599500D01*
X147775641Y-85599500D01*
X147617957Y-85599500D01*
X147617954Y-85599500D01*
X147463309Y-85630261D01*
X147463297Y-85630264D01*
X147317626Y-85690602D01*
X147317613Y-85690609D01*
X147186510Y-85778210D01*
X147186506Y-85778213D01*
X147075012Y-85889707D01*
X147075009Y-85889711D01*
X146987408Y-86020814D01*
X146987401Y-86020827D01*
X146927063Y-86166498D01*
X146927060Y-86166510D01*
X146896299Y-86321153D01*
X132000500Y-86321153D01*
X132000500Y-82219853D01*
X137854500Y-82219853D01*
X137854500Y-82377546D01*
X137885261Y-82532189D01*
X137885264Y-82532201D01*
X137945602Y-82677872D01*
X137945609Y-82677885D01*
X138033210Y-82808988D01*
X138033213Y-82808992D01*
X138144707Y-82920486D01*
X138144711Y-82920489D01*
X138275814Y-83008090D01*
X138275827Y-83008097D01*
X138421498Y-83068435D01*
X138421503Y-83068437D01*
X138576153Y-83099199D01*
X138576156Y-83099200D01*
X138576158Y-83099200D01*
X138733844Y-83099200D01*
X138733845Y-83099199D01*
X138888497Y-83068437D01*
X139034179Y-83008094D01*
X139165289Y-82920489D01*
X139276789Y-82808989D01*
X139364394Y-82677879D01*
X139424737Y-82532197D01*
X139455500Y-82377542D01*
X139455500Y-82219858D01*
X139455500Y-82219855D01*
X139455499Y-82219853D01*
X140354500Y-82219853D01*
X140354500Y-82377546D01*
X140385261Y-82532189D01*
X140385264Y-82532201D01*
X140445602Y-82677872D01*
X140445609Y-82677885D01*
X140533210Y-82808988D01*
X140533213Y-82808992D01*
X140644707Y-82920486D01*
X140644711Y-82920489D01*
X140775814Y-83008090D01*
X140775827Y-83008097D01*
X140921498Y-83068435D01*
X140921503Y-83068437D01*
X141076153Y-83099199D01*
X141076156Y-83099200D01*
X141076158Y-83099200D01*
X141233844Y-83099200D01*
X141233845Y-83099199D01*
X141388497Y-83068437D01*
X141534179Y-83008094D01*
X141665289Y-82920489D01*
X141776789Y-82808989D01*
X141864394Y-82677879D01*
X141924737Y-82532197D01*
X141955500Y-82377542D01*
X141955500Y-82219858D01*
X141955500Y-82219855D01*
X141955499Y-82219853D01*
X141924737Y-82065203D01*
X141869582Y-81932046D01*
X141864397Y-81919527D01*
X141864390Y-81919514D01*
X141776789Y-81788411D01*
X141776786Y-81788407D01*
X141665292Y-81676913D01*
X141665288Y-81676910D01*
X141534185Y-81589309D01*
X141534172Y-81589302D01*
X141388501Y-81528964D01*
X141388489Y-81528961D01*
X141233845Y-81498200D01*
X141233842Y-81498200D01*
X141076158Y-81498200D01*
X141076155Y-81498200D01*
X140921510Y-81528961D01*
X140921498Y-81528964D01*
X140775827Y-81589302D01*
X140775814Y-81589309D01*
X140644711Y-81676910D01*
X140644707Y-81676913D01*
X140533213Y-81788407D01*
X140533210Y-81788411D01*
X140445609Y-81919514D01*
X140445602Y-81919527D01*
X140385264Y-82065198D01*
X140385261Y-82065210D01*
X140354500Y-82219853D01*
X139455499Y-82219853D01*
X139424737Y-82065203D01*
X139369582Y-81932046D01*
X139364397Y-81919527D01*
X139364390Y-81919514D01*
X139276789Y-81788411D01*
X139276786Y-81788407D01*
X139165292Y-81676913D01*
X139165288Y-81676910D01*
X139034185Y-81589309D01*
X139034172Y-81589302D01*
X138888501Y-81528964D01*
X138888489Y-81528961D01*
X138733845Y-81498200D01*
X138733842Y-81498200D01*
X138576158Y-81498200D01*
X138576155Y-81498200D01*
X138421510Y-81528961D01*
X138421498Y-81528964D01*
X138275827Y-81589302D01*
X138275814Y-81589309D01*
X138144711Y-81676910D01*
X138144707Y-81676913D01*
X138033213Y-81788407D01*
X138033210Y-81788411D01*
X137945609Y-81919514D01*
X137945602Y-81919527D01*
X137885264Y-82065198D01*
X137885261Y-82065210D01*
X137854500Y-82219853D01*
X132000500Y-82219853D01*
X132000500Y-79571153D01*
X137854500Y-79571153D01*
X137854500Y-79728846D01*
X137885261Y-79883489D01*
X137885264Y-79883501D01*
X137945602Y-80029172D01*
X137945609Y-80029185D01*
X138033210Y-80160288D01*
X138033213Y-80160292D01*
X138144707Y-80271786D01*
X138144711Y-80271789D01*
X138275814Y-80359390D01*
X138275827Y-80359397D01*
X138421498Y-80419735D01*
X138421503Y-80419737D01*
X138564892Y-80448259D01*
X138576153Y-80450499D01*
X138576156Y-80450500D01*
X138576158Y-80450500D01*
X138733844Y-80450500D01*
X138733845Y-80450499D01*
X138888497Y-80419737D01*
X139034179Y-80359394D01*
X139128826Y-80296153D01*
X140354500Y-80296153D01*
X140354500Y-80453846D01*
X140385261Y-80608489D01*
X140385264Y-80608501D01*
X140445602Y-80754172D01*
X140445609Y-80754185D01*
X140533210Y-80885288D01*
X140533213Y-80885292D01*
X140644707Y-80996786D01*
X140644711Y-80996789D01*
X140775814Y-81084390D01*
X140775827Y-81084397D01*
X140921498Y-81144735D01*
X140921503Y-81144737D01*
X141076153Y-81175499D01*
X141076156Y-81175500D01*
X141076158Y-81175500D01*
X141233844Y-81175500D01*
X141233845Y-81175499D01*
X141388497Y-81144737D01*
X141534179Y-81084394D01*
X141665289Y-80996789D01*
X141765925Y-80896153D01*
X142729500Y-80896153D01*
X142729500Y-81053846D01*
X142760261Y-81208489D01*
X142760264Y-81208501D01*
X142820602Y-81354172D01*
X142820609Y-81354185D01*
X142908210Y-81485288D01*
X142908213Y-81485292D01*
X142958940Y-81536019D01*
X142992425Y-81597342D01*
X142987441Y-81667034D01*
X142958940Y-81711381D01*
X142908213Y-81762107D01*
X142908210Y-81762111D01*
X142820609Y-81893214D01*
X142820602Y-81893227D01*
X142760264Y-82038898D01*
X142760261Y-82038910D01*
X142729500Y-82193553D01*
X142729500Y-82351246D01*
X142760261Y-82505889D01*
X142760264Y-82505901D01*
X142820602Y-82651572D01*
X142820609Y-82651585D01*
X142908210Y-82782688D01*
X142908213Y-82782692D01*
X143019707Y-82894186D01*
X143019711Y-82894189D01*
X143150814Y-82981790D01*
X143150827Y-82981797D01*
X143289065Y-83039056D01*
X143296503Y-83042137D01*
X143428711Y-83068435D01*
X143451153Y-83072899D01*
X143451156Y-83072900D01*
X143451158Y-83072900D01*
X143608844Y-83072900D01*
X143608845Y-83072899D01*
X143763497Y-83042137D01*
X143909179Y-82981794D01*
X144040289Y-82894189D01*
X144151789Y-82782689D01*
X144239394Y-82651579D01*
X144240923Y-82647889D01*
X144276251Y-82562597D01*
X144299737Y-82505897D01*
X144330500Y-82351242D01*
X144330500Y-82193558D01*
X144330500Y-82193555D01*
X144330499Y-82193553D01*
X144312873Y-82104942D01*
X144299737Y-82038903D01*
X144261777Y-81947258D01*
X144239397Y-81893227D01*
X144239390Y-81893214D01*
X144204982Y-81841718D01*
X144204974Y-81841708D01*
X144159969Y-81774353D01*
X146199500Y-81774353D01*
X146199500Y-81932046D01*
X146230261Y-82086689D01*
X146230264Y-82086701D01*
X146290602Y-82232372D01*
X146290609Y-82232385D01*
X146378210Y-82363488D01*
X146378213Y-82363492D01*
X146489707Y-82474986D01*
X146489711Y-82474989D01*
X146620814Y-82562590D01*
X146620827Y-82562597D01*
X146766498Y-82622935D01*
X146766503Y-82622937D01*
X146910460Y-82651572D01*
X146921153Y-82653699D01*
X146921156Y-82653700D01*
X146921158Y-82653700D01*
X147078844Y-82653700D01*
X147078845Y-82653699D01*
X147233497Y-82622937D01*
X147379179Y-82562594D01*
X147510289Y-82474989D01*
X147621789Y-82363489D01*
X147709394Y-82232379D01*
X147769737Y-82086697D01*
X147797474Y-81947253D01*
X149599500Y-81947253D01*
X149599500Y-82104946D01*
X149630261Y-82259589D01*
X149630264Y-82259601D01*
X149690602Y-82405272D01*
X149690609Y-82405285D01*
X149778210Y-82536388D01*
X149778213Y-82536392D01*
X149889707Y-82647886D01*
X149889711Y-82647889D01*
X150020814Y-82735490D01*
X150020827Y-82735497D01*
X150134768Y-82782692D01*
X150166503Y-82795837D01*
X150321153Y-82826599D01*
X150321156Y-82826600D01*
X150321158Y-82826600D01*
X150478844Y-82826600D01*
X150478845Y-82826599D01*
X150633497Y-82795837D01*
X150779179Y-82735494D01*
X150910289Y-82647889D01*
X151021789Y-82536389D01*
X151109394Y-82405279D01*
X151169737Y-82259597D01*
X151200500Y-82104942D01*
X151200500Y-81947258D01*
X151200500Y-81947255D01*
X151200499Y-81947253D01*
X151169737Y-81792603D01*
X151162180Y-81774358D01*
X151109397Y-81646927D01*
X151109390Y-81646914D01*
X151021789Y-81515811D01*
X151021786Y-81515807D01*
X150910292Y-81404313D01*
X150910288Y-81404310D01*
X150779185Y-81316709D01*
X150779172Y-81316702D01*
X150633501Y-81256364D01*
X150633489Y-81256361D01*
X150478845Y-81225600D01*
X150478842Y-81225600D01*
X150321158Y-81225600D01*
X150321155Y-81225600D01*
X150166510Y-81256361D01*
X150166498Y-81256364D01*
X150020827Y-81316702D01*
X150020814Y-81316709D01*
X149889711Y-81404310D01*
X149889707Y-81404313D01*
X149778213Y-81515807D01*
X149778210Y-81515811D01*
X149690609Y-81646914D01*
X149690602Y-81646927D01*
X149630264Y-81792598D01*
X149630261Y-81792610D01*
X149599500Y-81947253D01*
X147797474Y-81947253D01*
X147800500Y-81932042D01*
X147800500Y-81774358D01*
X147800500Y-81774355D01*
X147800499Y-81774353D01*
X147785992Y-81701424D01*
X147769737Y-81619703D01*
X147760246Y-81596789D01*
X147709397Y-81474027D01*
X147709390Y-81474014D01*
X147621789Y-81342911D01*
X147621786Y-81342907D01*
X147510292Y-81231413D01*
X147510288Y-81231410D01*
X147379185Y-81143809D01*
X147379172Y-81143802D01*
X147233501Y-81083464D01*
X147233489Y-81083461D01*
X147078845Y-81052700D01*
X147078842Y-81052700D01*
X146921158Y-81052700D01*
X146921155Y-81052700D01*
X146766510Y-81083461D01*
X146766498Y-81083464D01*
X146620827Y-81143802D01*
X146620814Y-81143809D01*
X146489711Y-81231410D01*
X146489707Y-81231413D01*
X146378213Y-81342907D01*
X146378210Y-81342911D01*
X146290609Y-81474014D01*
X146290602Y-81474027D01*
X146230264Y-81619698D01*
X146230261Y-81619710D01*
X146199500Y-81774353D01*
X144159969Y-81774353D01*
X144151789Y-81762111D01*
X144096323Y-81706645D01*
X144092123Y-81701424D01*
X144081234Y-81675073D01*
X144067575Y-81650058D01*
X144068065Y-81643203D01*
X144065440Y-81636850D01*
X144070525Y-81608802D01*
X144072559Y-81580366D01*
X144076908Y-81573598D01*
X144077905Y-81568101D01*
X144086063Y-81559352D01*
X144101060Y-81536019D01*
X144151786Y-81485292D01*
X144151789Y-81485289D01*
X144239394Y-81354179D01*
X144299737Y-81208497D01*
X144330500Y-81053842D01*
X144330500Y-80896158D01*
X144330500Y-80896155D01*
X144330499Y-80896153D01*
X144315585Y-80821175D01*
X144299737Y-80741503D01*
X144274173Y-80679786D01*
X144239397Y-80595827D01*
X144239390Y-80595814D01*
X144151789Y-80464711D01*
X144151786Y-80464707D01*
X144040292Y-80353213D01*
X144040288Y-80353210D01*
X143909185Y-80265609D01*
X143909172Y-80265602D01*
X143763501Y-80205264D01*
X143763489Y-80205261D01*
X143608845Y-80174500D01*
X143608842Y-80174500D01*
X143451158Y-80174500D01*
X143451155Y-80174500D01*
X143296510Y-80205261D01*
X143296498Y-80205264D01*
X143150827Y-80265602D01*
X143150814Y-80265609D01*
X143019711Y-80353210D01*
X143019707Y-80353213D01*
X142908213Y-80464707D01*
X142908210Y-80464711D01*
X142820609Y-80595814D01*
X142820602Y-80595827D01*
X142760264Y-80741498D01*
X142760261Y-80741510D01*
X142729500Y-80896153D01*
X141765925Y-80896153D01*
X141776789Y-80885289D01*
X141813659Y-80830109D01*
X141819629Y-80821175D01*
X141864390Y-80754185D01*
X141864390Y-80754184D01*
X141864394Y-80754179D01*
X141924737Y-80608497D01*
X141955500Y-80453842D01*
X141955500Y-80296158D01*
X141955500Y-80296155D01*
X141955499Y-80296153D01*
X141936847Y-80202385D01*
X141924737Y-80141503D01*
X141914274Y-80116243D01*
X141864397Y-79995827D01*
X141864390Y-79995814D01*
X141776789Y-79864711D01*
X141776786Y-79864707D01*
X141665292Y-79753213D01*
X141665288Y-79753210D01*
X141534185Y-79665609D01*
X141534172Y-79665602D01*
X141388501Y-79605264D01*
X141388489Y-79605261D01*
X141233845Y-79574500D01*
X141233842Y-79574500D01*
X141076158Y-79574500D01*
X141076155Y-79574500D01*
X140921510Y-79605261D01*
X140921498Y-79605264D01*
X140775827Y-79665602D01*
X140775814Y-79665609D01*
X140644711Y-79753210D01*
X140644707Y-79753213D01*
X140533213Y-79864707D01*
X140533210Y-79864711D01*
X140445609Y-79995814D01*
X140445602Y-79995827D01*
X140385264Y-80141498D01*
X140385261Y-80141510D01*
X140354500Y-80296153D01*
X139128826Y-80296153D01*
X139165289Y-80271789D01*
X139175428Y-80261650D01*
X139234694Y-80202385D01*
X139276786Y-80160292D01*
X139276789Y-80160289D01*
X139364394Y-80029179D01*
X139424737Y-79883497D01*
X139455500Y-79728842D01*
X139455500Y-79571158D01*
X139455500Y-79571155D01*
X139455499Y-79571153D01*
X139424738Y-79416510D01*
X139424737Y-79416503D01*
X139407629Y-79375200D01*
X139364397Y-79270827D01*
X139364390Y-79270814D01*
X139276789Y-79139711D01*
X139276786Y-79139707D01*
X139165292Y-79028213D01*
X139165288Y-79028210D01*
X139034185Y-78940609D01*
X139034172Y-78940602D01*
X138888501Y-78880264D01*
X138888489Y-78880261D01*
X138733845Y-78849500D01*
X138733842Y-78849500D01*
X138576158Y-78849500D01*
X138576155Y-78849500D01*
X138421510Y-78880261D01*
X138421498Y-78880264D01*
X138275827Y-78940602D01*
X138275814Y-78940609D01*
X138144711Y-79028210D01*
X138144707Y-79028213D01*
X138033213Y-79139707D01*
X138033210Y-79139711D01*
X137945609Y-79270814D01*
X137945602Y-79270827D01*
X137885264Y-79416498D01*
X137885261Y-79416510D01*
X137854500Y-79571153D01*
X132000500Y-79571153D01*
X132000500Y-78495854D01*
X143864201Y-78495854D01*
X143864201Y-78653547D01*
X143894962Y-78808190D01*
X143894965Y-78808202D01*
X143955303Y-78953873D01*
X143955310Y-78953886D01*
X144042911Y-79084989D01*
X144042914Y-79084993D01*
X144154408Y-79196487D01*
X144154412Y-79196490D01*
X144285515Y-79284091D01*
X144285528Y-79284098D01*
X144431199Y-79344436D01*
X144431204Y-79344438D01*
X144585854Y-79375200D01*
X144585857Y-79375201D01*
X144585859Y-79375201D01*
X144743545Y-79375201D01*
X144743546Y-79375200D01*
X144898198Y-79344438D01*
X145043880Y-79284095D01*
X145174990Y-79196490D01*
X145286490Y-79084990D01*
X145374095Y-78953880D01*
X145434438Y-78808198D01*
X145465201Y-78653543D01*
X145465201Y-78495859D01*
X145465201Y-78495856D01*
X145465200Y-78495854D01*
X145449127Y-78415050D01*
X145434438Y-78341204D01*
X145408382Y-78278298D01*
X145374098Y-78195528D01*
X145374091Y-78195515D01*
X145286490Y-78064412D01*
X145286487Y-78064408D01*
X145174993Y-77952914D01*
X145174989Y-77952911D01*
X145043886Y-77865310D01*
X145043873Y-77865303D01*
X144898202Y-77804965D01*
X144898190Y-77804962D01*
X144743546Y-77774201D01*
X144743543Y-77774201D01*
X144585859Y-77774201D01*
X144585856Y-77774201D01*
X144431211Y-77804962D01*
X144431199Y-77804965D01*
X144285528Y-77865303D01*
X144285515Y-77865310D01*
X144154412Y-77952911D01*
X144154408Y-77952914D01*
X144042914Y-78064408D01*
X144042911Y-78064412D01*
X143955310Y-78195515D01*
X143955303Y-78195528D01*
X143894965Y-78341199D01*
X143894962Y-78341211D01*
X143864201Y-78495854D01*
X132000500Y-78495854D01*
X132000500Y-77398952D01*
X139449500Y-77398952D01*
X139449500Y-77556645D01*
X139480261Y-77711288D01*
X139480264Y-77711300D01*
X139540602Y-77856971D01*
X139540609Y-77856984D01*
X139628210Y-77988087D01*
X139628213Y-77988091D01*
X139739707Y-78099585D01*
X139739711Y-78099588D01*
X139870814Y-78187189D01*
X139870827Y-78187196D01*
X140016498Y-78247534D01*
X140016503Y-78247536D01*
X140171153Y-78278298D01*
X140171156Y-78278299D01*
X140171158Y-78278299D01*
X140328844Y-78278299D01*
X140328845Y-78278298D01*
X140483497Y-78247536D01*
X140629179Y-78187193D01*
X140760289Y-78099588D01*
X140871789Y-77988088D01*
X140959394Y-77856978D01*
X141019737Y-77711296D01*
X141050500Y-77556641D01*
X141050500Y-77398957D01*
X141050500Y-77398954D01*
X141050499Y-77398952D01*
X141019738Y-77244309D01*
X141019737Y-77244302D01*
X141018988Y-77242493D01*
X140959397Y-77098626D01*
X140959390Y-77098613D01*
X140871789Y-76967510D01*
X140871786Y-76967506D01*
X140760292Y-76856012D01*
X140760288Y-76856009D01*
X140629185Y-76768408D01*
X140629172Y-76768401D01*
X140613302Y-76761828D01*
X140483501Y-76708063D01*
X140483489Y-76708060D01*
X140328845Y-76677299D01*
X140328842Y-76677299D01*
X140171158Y-76677299D01*
X140171155Y-76677299D01*
X140016510Y-76708060D01*
X140016498Y-76708063D01*
X139870827Y-76768401D01*
X139870814Y-76768408D01*
X139739711Y-76856009D01*
X139739707Y-76856012D01*
X139628213Y-76967506D01*
X139628210Y-76967510D01*
X139540609Y-77098613D01*
X139540602Y-77098626D01*
X139480264Y-77244297D01*
X139480261Y-77244309D01*
X139449500Y-77398952D01*
X132000500Y-77398952D01*
X132000500Y-76653354D01*
X142601701Y-76653354D01*
X142601701Y-76811047D01*
X142632462Y-76965690D01*
X142632465Y-76965702D01*
X142692803Y-77111373D01*
X142692810Y-77111386D01*
X142780411Y-77242489D01*
X142780414Y-77242493D01*
X142891908Y-77353987D01*
X142891912Y-77353990D01*
X143023015Y-77441591D01*
X143023028Y-77441598D01*
X143168699Y-77501936D01*
X143168704Y-77501938D01*
X143323354Y-77532700D01*
X143323357Y-77532701D01*
X143323359Y-77532701D01*
X143481045Y-77532701D01*
X143481046Y-77532700D01*
X143635698Y-77501938D01*
X143781380Y-77441595D01*
X143912490Y-77353990D01*
X144023990Y-77242490D01*
X144111595Y-77111380D01*
X144171938Y-76965698D01*
X144202701Y-76811043D01*
X144202701Y-76653359D01*
X144202701Y-76653356D01*
X144202700Y-76653354D01*
X144182576Y-76552184D01*
X144171938Y-76498704D01*
X144122856Y-76380208D01*
X144111598Y-76353028D01*
X144111591Y-76353015D01*
X144023990Y-76221912D01*
X144023987Y-76221908D01*
X143912493Y-76110414D01*
X143912489Y-76110411D01*
X143781386Y-76022810D01*
X143781373Y-76022803D01*
X143635702Y-75962465D01*
X143635690Y-75962462D01*
X143481046Y-75931701D01*
X143481043Y-75931701D01*
X143323359Y-75931701D01*
X143323356Y-75931701D01*
X143168711Y-75962462D01*
X143168699Y-75962465D01*
X143023028Y-76022803D01*
X143023015Y-76022810D01*
X142891912Y-76110411D01*
X142891908Y-76110414D01*
X142780414Y-76221908D01*
X142780411Y-76221912D01*
X142692810Y-76353015D01*
X142692803Y-76353028D01*
X142632465Y-76498699D01*
X142632462Y-76498711D01*
X142601701Y-76653354D01*
X132000500Y-76653354D01*
X132000500Y-74684500D01*
X132020185Y-74617461D01*
X132072989Y-74571706D01*
X132124500Y-74560500D01*
X177675500Y-74560500D01*
X177742539Y-74580185D01*
G37*
G04 #@! TD.AperFunction*
M02*
