G04 #@! TF.GenerationSoftware,KiCad,Pcbnew,9.0.5*
G04 #@! TF.CreationDate,2025-12-04T19:24:20-05:00*
G04 #@! TF.ProjectId,Commodore 7,436f6d6d-6f64-46f7-9265-20372e6b6963,rev?*
G04 #@! TF.SameCoordinates,Original*
G04 #@! TF.FileFunction,Paste,Top*
G04 #@! TF.FilePolarity,Positive*
%FSLAX46Y46*%
G04 Gerber Fmt 4.6, Leading zero omitted, Abs format (unit mm)*
G04 Created by KiCad (PCBNEW 9.0.5) date 2025-12-04 19:24:20*
%MOMM*%
%LPD*%
G01*
G04 APERTURE LIST*
G04 Aperture macros list*
%AMRoundRect*
0 Rectangle with rounded corners*
0 $1 Rounding radius*
0 $2 $3 $4 $5 $6 $7 $8 $9 X,Y pos of 4 corners*
0 Add a 4 corners polygon primitive as box body*
4,1,4,$2,$3,$4,$5,$6,$7,$8,$9,$2,$3,0*
0 Add four circle primitives for the rounded corners*
1,1,$1+$1,$2,$3*
1,1,$1+$1,$4,$5*
1,1,$1+$1,$6,$7*
1,1,$1+$1,$8,$9*
0 Add four rect primitives between the rounded corners*
20,1,$1+$1,$2,$3,$4,$5,0*
20,1,$1+$1,$4,$5,$6,$7,0*
20,1,$1+$1,$6,$7,$8,$9,0*
20,1,$1+$1,$8,$9,$2,$3,0*%
G04 Aperture macros list end*
%ADD10R,0.558800X0.558800*%
%ADD11R,1.447800X1.117600*%
%ADD12R,0.675000X0.250000*%
%ADD13R,0.250000X0.675000*%
%ADD14R,1.397000X0.812800*%
%ADD15R,1.117600X1.447800*%
%ADD16R,0.812800X0.863600*%
%ADD17R,1.005599X0.949998*%
%ADD18R,0.250000X0.475000*%
%ADD19R,0.475000X0.250000*%
%ADD20RoundRect,0.250000X-0.625000X0.312500X-0.625000X-0.312500X0.625000X-0.312500X0.625000X0.312500X0*%
%ADD21R,1.422400X0.431800*%
%ADD22R,0.300000X0.450000*%
%ADD23R,0.450000X0.300000*%
%ADD24R,0.965200X0.914400*%
%ADD25RoundRect,0.250000X0.375000X0.625000X-0.375000X0.625000X-0.375000X-0.625000X0.375000X-0.625000X0*%
%ADD26RoundRect,0.039750X0.615250X0.225250X-0.615250X0.225250X-0.615250X-0.225250X0.615250X-0.225250X0*%
%ADD27RoundRect,0.042400X0.612600X0.222600X-0.612600X0.222600X-0.612600X-0.222600X0.612600X-0.222600X0*%
%ADD28RoundRect,0.150000X-0.825000X-0.150000X0.825000X-0.150000X0.825000X0.150000X-0.825000X0.150000X0*%
%ADD29R,0.812800X1.397000*%
%ADD30RoundRect,0.250000X-0.312500X-0.625000X0.312500X-0.625000X0.312500X0.625000X-0.312500X0.625000X0*%
%ADD31RoundRect,0.250000X0.625000X-0.312500X0.625000X0.312500X-0.625000X0.312500X-0.625000X-0.312500X0*%
%ADD32RoundRect,0.051250X-0.153750X0.733750X-0.153750X-0.733750X0.153750X-0.733750X0.153750X0.733750X0*%
%ADD33R,0.949998X1.005599*%
%ADD34R,0.310000X0.660000*%
G04 APERTURE END LIST*
D10*
X139980000Y-104452800D03*
X139980000Y-105367200D03*
D11*
X147000000Y-83646800D03*
X147000000Y-81853200D03*
D12*
X144664701Y-77550000D03*
X144664701Y-77050000D03*
X144664701Y-76550000D03*
X144664701Y-76050000D03*
D13*
X143902201Y-75787500D03*
X143402201Y-75787500D03*
X142902201Y-75787500D03*
D12*
X142139701Y-76050000D03*
X142139701Y-76550000D03*
X142139701Y-77050000D03*
X142139701Y-77550000D03*
D13*
X142902201Y-77812500D03*
X143402201Y-77812500D03*
X143902201Y-77812500D03*
D14*
X141155000Y-82298700D03*
X141155000Y-84051300D03*
D15*
X145903201Y-86400000D03*
X147696799Y-86400000D03*
D16*
X150400000Y-83473900D03*
X150400000Y-82026100D03*
D17*
X158472201Y-106800000D03*
X159927799Y-106800000D03*
D14*
X143530000Y-82272400D03*
X143530000Y-84025000D03*
D10*
X138480000Y-104452800D03*
X138480000Y-105367200D03*
D18*
X141050000Y-100362500D03*
X141550000Y-100362500D03*
X142050000Y-100362500D03*
X142550000Y-100362500D03*
D19*
X142712500Y-99700000D03*
X142712500Y-99200000D03*
X142712500Y-98700000D03*
D18*
X142550000Y-98037500D03*
X142050000Y-98037500D03*
X141550000Y-98037500D03*
X141050000Y-98037500D03*
D19*
X140887500Y-98700000D03*
X140887500Y-99200000D03*
X140887500Y-99700000D03*
D14*
X147600000Y-110523700D03*
X147600000Y-112276300D03*
D13*
X155050000Y-107662500D03*
X155550000Y-107662500D03*
X156050000Y-107662500D03*
X156550000Y-107662500D03*
D12*
X156812500Y-106900000D03*
X156812500Y-106400000D03*
X156812500Y-105900000D03*
D13*
X156550000Y-105137500D03*
X156050000Y-105137500D03*
X155550000Y-105137500D03*
X155050000Y-105137500D03*
D12*
X154787500Y-105900000D03*
X154787500Y-106400000D03*
X154787500Y-106900000D03*
D20*
X141800000Y-93137500D03*
X141800000Y-96062500D03*
D21*
X149328300Y-99775001D03*
X149328300Y-100424999D03*
X149328300Y-101075001D03*
X149328300Y-101724999D03*
X153671700Y-101724999D03*
X153671700Y-101075001D03*
X153671700Y-100424999D03*
X153671700Y-99775001D03*
D16*
X156600000Y-103523900D03*
X156600000Y-102076100D03*
D17*
X150272201Y-95750000D03*
X151727799Y-95750000D03*
D20*
X153250000Y-85287500D03*
X153250000Y-88212500D03*
D22*
X142050000Y-90875000D03*
X142550000Y-90875000D03*
X143050000Y-90875000D03*
X143550000Y-90875000D03*
D23*
X144075000Y-90350000D03*
X144075000Y-89850000D03*
X144075000Y-89350000D03*
X144075000Y-88850000D03*
D22*
X143550000Y-88325000D03*
X143050000Y-88325000D03*
X142550000Y-88325000D03*
X142050000Y-88325000D03*
D23*
X141525000Y-88850000D03*
X141525000Y-89350000D03*
X141525000Y-89850000D03*
X141525000Y-90350000D03*
D10*
X138597800Y-90900000D03*
X139512200Y-90900000D03*
D24*
X144076099Y-92200000D03*
X145523901Y-92200000D03*
D10*
X136980000Y-104452800D03*
X136980000Y-105367200D03*
D25*
X167900000Y-78500000D03*
X165100000Y-78500000D03*
D10*
X154457200Y-103750000D03*
X153542800Y-103750000D03*
D14*
X150000000Y-110523700D03*
X150000000Y-112276300D03*
D26*
X150800000Y-93675000D03*
D27*
X150800000Y-92425000D03*
X150800000Y-91175000D03*
X150800000Y-89925000D03*
X148400000Y-89925000D03*
X148400000Y-91175000D03*
X148400000Y-92425000D03*
X148400000Y-93675000D03*
D28*
X156025000Y-78190000D03*
X156025000Y-79460000D03*
X156025000Y-80730000D03*
X156025000Y-82000000D03*
X156025000Y-83270000D03*
X156025000Y-84540000D03*
X156025000Y-85810000D03*
X160975000Y-85810000D03*
X160975000Y-84540000D03*
X160975000Y-83270000D03*
X160975000Y-82000000D03*
X160975000Y-80730000D03*
X160975000Y-79460000D03*
X160975000Y-78190000D03*
D15*
X150896800Y-105400000D03*
X149103200Y-105400000D03*
D29*
X143076300Y-102400000D03*
X141323700Y-102400000D03*
D30*
X150287500Y-78250000D03*
X153212500Y-78250000D03*
D14*
X152400000Y-110523700D03*
X152400000Y-112276300D03*
D31*
X168000000Y-84962500D03*
X168000000Y-82037500D03*
D32*
X138480000Y-94400000D03*
X137830000Y-94400000D03*
X137180000Y-94400000D03*
X136530000Y-94400000D03*
X135880000Y-94400000D03*
X135230000Y-94400000D03*
X134580000Y-94400000D03*
X134580000Y-100140000D03*
X135230000Y-100140000D03*
X135880000Y-100140000D03*
X136530000Y-100140000D03*
X137180000Y-100140000D03*
X137830000Y-100140000D03*
X138480000Y-100140000D03*
D33*
X140250000Y-76022201D03*
X140250000Y-77477799D03*
D14*
X138655000Y-82298700D03*
X138655000Y-84051300D03*
D16*
X145000000Y-110476100D03*
X145000000Y-111923900D03*
D34*
X146900000Y-97135000D03*
X147400000Y-97135000D03*
X147900000Y-97135000D03*
X147900000Y-95665000D03*
X147400000Y-95665000D03*
X146900000Y-95665000D03*
D16*
X144400000Y-99923901D03*
X144400000Y-98476099D03*
M02*
