M48
; DRILL file {KiCad 9.0.5} date 2025-12-04T19:24:25-0500
; FORMAT={-:-/ absolute / metric / decimal}
; #@! TF.CreationDate,2025-12-04T19:24:25-05:00
; #@! TF.GenerationSoftware,Kicad,Pcbnew,9.0.5
; #@! TF.FileFunction,Plated,1,4,PTH
FMAT,2
METRIC
; #@! TA.AperFunction,Plated,PTH,ViaDrill
T1C0.300
; #@! TA.AperFunction,Plated,PTH,ComponentDrill
T2C0.750
; #@! TA.AperFunction,Plated,PTH,ComponentDrill
T3C1.000
%
G90
G05
T1
X136.53Y-98.93
X136.65Y-97.17
X136.98Y-105.367
X137.18Y-92.15
X137.85Y-102.65
X138.48Y-105.367
X138.598Y-90.9
X138.655Y-79.65
X138.655Y-82.299
X138.655Y-84.051
X139.25Y-100.25
X139.512Y-90.9
X139.98Y-105.367
X140.0Y-88.5
X140.25Y-76.022
X140.25Y-77.478
X141.155Y-80.375
X141.155Y-82.299
X141.155Y-84.051
X141.25Y-88.25
X141.8Y-93.138
X142.2Y-91.8
X142.25Y-97.25
X142.8Y-89.6
X143.076Y-102.4
X143.402Y-76.732
X143.53Y-80.975
X143.53Y-82.272
X143.53Y-84.025
X144.076Y-92.2
X144.4Y-98.476
X144.4Y-99.924
X144.665Y-78.575
X145.0Y-101.5
X145.0Y-110.476
X145.0Y-111.924
X145.524Y-92.2
X146.4Y-94.75
X147.0Y-81.853
X147.0Y-83.647
X147.0Y-93.8
X147.6Y-107.2
X147.6Y-110.508
X147.6Y-112.276
X147.697Y-86.4
X148.0Y-94.8
X148.4Y-89.925
X148.4Y-91.175
X149.0Y-97.2
X149.103Y-105.4
X150.0Y-108.042
X150.0Y-110.524
X150.0Y-112.276
X150.272Y-95.75
X150.287Y-78.25
X150.4Y-82.026
X150.4Y-83.474
X150.8Y-89.925
X150.8Y-91.175
X150.8Y-92.425
X150.8Y-93.675
X150.897Y-105.4
X151.0Y-97.75
X151.21Y-117.9
X151.21Y-120.29
X151.728Y-95.75
X152.4Y-112.276
X152.7Y-123.31
X152.7Y-135.31
X153.6Y-108.0
X153.64Y-117.87
X153.64Y-120.28
X154.9Y-135.31
X155.52Y-113.585
X155.8Y-106.4
X155.95Y-99.514
X156.025Y-85.81
X156.47Y-113.585
X156.6Y-102.076
X156.6Y-103.524
X156.97Y-120.7
X157.42Y-113.585
X158.472Y-106.8
X159.86Y-118.614
X159.928Y-106.8
X160.975Y-78.19
X163.67Y-118.614
X165.1Y-78.5
X165.6Y-123.31
X165.6Y-135.31
X166.7Y-123.31
X168.5Y-87.5
X168.75Y-118.75
X170.5Y-87.5
X170.5Y-92.0
T2
X158.61Y-88.73
X158.61Y-90.0
X158.61Y-91.27
T3
X172.5Y-77.26
X172.5Y-79.8
X172.5Y-82.34
X172.5Y-84.88
X172.5Y-87.42
X172.5Y-89.96
X172.5Y-92.5
X172.5Y-95.04
X172.5Y-97.58
X172.5Y-100.12
X172.5Y-102.66
X172.5Y-105.2
X172.5Y-107.74
X172.5Y-110.28
X172.5Y-112.82
X172.5Y-115.36
X172.5Y-117.9
X172.5Y-120.44
X172.5Y-122.98
X172.5Y-125.52
X175.04Y-77.26
X175.04Y-79.8
X175.04Y-82.34
X175.04Y-84.88
X175.04Y-87.42
X175.04Y-89.96
X175.04Y-92.5
X175.04Y-95.04
X175.04Y-97.58
X175.04Y-100.12
X175.04Y-102.66
X175.04Y-105.2
X175.04Y-107.74
X175.04Y-110.28
X175.04Y-112.82
X175.04Y-115.36
X175.04Y-117.9
X175.04Y-120.44
X175.04Y-122.98
X175.04Y-125.52
M30
