ISO-10303-21;
HEADER;
FILE_DESCRIPTION (( 'STEP AP214' ),
    '1' );
FILE_NAME ('KGMq220242.011.2510.5.STEP',
    '2024-06-27T13:58:32',
    ( '' ),
    ( '' ),
    'SwSTEP 2.0',
    'SolidWorks 2021',
    '' );
FILE_SCHEMA (( 'AUTOMOTIVE_DESIGN' ));
ENDSEC;

DATA;
#1 = CARTESIAN_POINT ( 'NONE',  ( 0.000000000000000000, 0.000000000000000000, 0.000000000000000000 ) ) ;
#2 = DIRECTION ( 'NONE',  ( -0.000000000000000000, -1.000000000000000000, -0.000000000000000000 ) ) ;
#3 = DIRECTION ( 'NONE',  ( 0.000000000000000000, 0.000000000000000000, 1.000000000000000000 ) ) ;
#4 = ORIENTED_EDGE ( 'NONE', *, *, #301, .T. ) ;
#5 = CARTESIAN_POINT ( 'NONE',  ( 500000.0000000000582, 0.9832499999999999574, 0.5747499999566317852 ) ) ;
#6 = EDGE_CURVE ( 'NONE', #1187, #678, #591, .T. ) ;
#7 = EDGE_CURVE ( 'NONE', #1187, #55, #979, .T. ) ;
#8 = VECTOR ( 'NONE', #534, 1000.000000000000000 ) ;
#9 = LINE ( 'NONE', #1081, #13 ) ;
#10 = LINE ( 'NONE', #1176, #361 ) ;
#11 = VERTEX_POINT ( 'NONE', #304 ) ;
#12 = LINE ( 'NONE', #5, #195 ) ;
#13 = VECTOR ( 'NONE', #210, 1000.000000000000000 ) ;
#14 = ORIENTED_EDGE ( 'NONE', *, *, #1229, .T. ) ;
#15 = DIRECTION ( 'NONE',  ( 0.000000000000000000, 0.000000000000000000, 1.000000000000000000 ) ) ;
#16 = COLOUR_RGB ( '',0.7960784313725489669, 0.8235294117647058432, 0.9372549019607843146 ) ;
#17 = VECTOR ( 'NONE', #806, 1000.000000000000000 ) ;
#18 = DIRECTION ( 'NONE',  ( 0.000000000000000000, -1.000000000000000000, 0.000000000000000000 ) ) ;
#19 = EDGE_LOOP ( 'NONE', ( #893, #1247, #413, #1224 ) ) ;
#20 = CARTESIAN_POINT ( 'NONE',  ( 0.5050000000000000044, 0.9497500000000000941, -0.6249999999999998890 ) ) ;
#21 = EDGE_CURVE ( 'NONE', #1261, #197, #9, .T. ) ;
#22 = AXIS2_PLACEMENT_3D ( 'NONE', #346, #244, #446 ) ;
#23 = AXIS2_PLACEMENT_3D ( 'NONE', #183, #1164, #277 ) ;
#24 = EDGE_CURVE ( 'NONE', #387, #713, #411, .T. ) ;
#25 = EDGE_LOOP ( 'NONE', ( #1172, #132, #94, #1183 ) ) ;
#26 = CARTESIAN_POINT ( 'NONE',  ( -0.5049999999999998934, 0.01674999999999999753, -0.5747499999999998721 ) ) ;
#27 = CARTESIAN_POINT ( 'NONE',  ( -0.9547500000000000986, 0.05024999999999994749, -0.6249999999999998890 ) ) ;
#28 =( LENGTH_UNIT ( ) NAMED_UNIT ( * ) SI_UNIT ( .MILLI., .METRE. ) );
#29 = CARTESIAN_POINT ( 'NONE',  ( 0.5050000000892396201, 0.9832499999999999574, 0.5747499999999998721 ) ) ;
#30 = CARTESIAN_POINT ( 'NONE',  ( 0.9547499999999998765, 0.05024999999999994749, 0.5747499999999997611 ) ) ;
#31 = EDGE_LOOP ( 'NONE', ( #354, #685, #317 ) ) ;
#32 = EDGE_CURVE ( 'NONE', #1178, #90, #1088, .T. ) ;
#33 = AXIS2_PLACEMENT_3D ( 'NONE', #214, #602, #118 ) ;
#34 = DIRECTION ( 'NONE',  ( 0.000000000000000000, 0.000000000000000000, 1.000000000000000000 ) ) ;
#35 = CIRCLE ( 'NONE', #85, 0.03349999999999989098 ) ;
#36 = DIRECTION ( 'NONE',  ( -1.000000000000000000, -0.000000000000000000, 8.673617379884039170E-17 ) ) ;
#37 = CARTESIAN_POINT ( 'NONE',  ( 500000.0000000000582, 0.01674999999999999753, 0.5747499999566317852 ) ) ;
#38 = ORIENTED_EDGE ( 'NONE', *, *, #21, .T. ) ;
#39 = FACE_OUTER_BOUND ( 'NONE', #580, .T. ) ;
#40 = DIRECTION ( 'NONE',  ( 0.000000000000000000, 0.000000000000000000, -1.000000000000000000 ) ) ;
#41 = CARTESIAN_POINT ( 'NONE',  ( 0.5049999999999997824, 0.000000000000000000, 0.5747499999999997611 ) ) ;
#42 =( NAMED_UNIT ( * ) PLANE_ANGLE_UNIT ( ) SI_UNIT ( $, .RADIAN. ) );
#43 = DIRECTION ( 'NONE',  ( 0.000000000000000000, 0.000000000000000000, 1.000000000000000000 ) ) ;
#44 = ORIENTED_EDGE ( 'NONE', *, *, #652, .T. ) ;
#45 = DIRECTION ( 'NONE',  ( 0.000000000000000000, -1.000000000000000000, 0.000000000000000000 ) ) ;
#46 = EDGE_CURVE ( 'NONE', #1178, #479, #403, .T. ) ;
#47 = EDGE_CURVE ( 'NONE', #1205, #90, #1182, .T. ) ;
#48 = FACE_OUTER_BOUND ( 'NONE', #188, .T. ) ;
#49 = DIRECTION ( 'NONE',  ( 0.000000000000000000, 0.000000000000000000, 1.000000000000000000 ) ) ;
#50 = AXIS2_PLACEMENT_3D ( 'NONE', #1233, #546, #340 ) ;
#51 = CARTESIAN_POINT ( 'NONE',  ( 0.9547499999999998765, 0.05024999999999999606, 0.5747499999999997611 ) ) ;
#52 = EDGE_CURVE ( 'NONE', #1194, #1087, #621, .T. ) ;
#53 = FILL_AREA_STYLE ('',( #1104 ) ) ;
#54 = FACE_OUTER_BOUND ( 'NONE', #510, .T. ) ;
#55 = VERTEX_POINT ( 'NONE', #909 ) ;
#56 = CARTESIAN_POINT ( 'NONE',  ( 0.9547500000000000986, 0.9497500000000000941, -0.5747499999999999831 ) ) ;
#57 = MANIFOLD_SOLID_BREP ( 'Boss-Extrude2', #897 ) ;
#58 = CARTESIAN_POINT ( 'NONE',  ( 500000.0000000000582, 0.9497500000000000941, 0.6082499999566316484 ) ) ;
#59 = CARTESIAN_POINT ( 'NONE',  ( 0.5049999999755527824, 0.9497500000000000941, -0.5747499999999998721 ) ) ;
#60 = AXIS2_PLACEMENT_3D ( 'NONE', #1100, #258, #34 ) ;
#61 = ORIENTED_EDGE ( 'NONE', *, *, #21, .F. ) ;
#62 = DIRECTION ( 'NONE',  ( 1.000000000000000000, 0.000000000000000000, 0.000000000000000000 ) ) ;
#63 = ORIENTED_EDGE ( 'NONE', *, *, #943, .F. ) ;
#64 = ADVANCED_FACE ( 'NONE', ( #160 ), #1111, .T. ) ;
#65 = CARTESIAN_POINT ( 'NONE',  ( -1.005000000000000115, 0.05024999999999994749, -0.5747499999999999831 ) ) ;
#66 = DIRECTION ( 'NONE',  ( 1.000000000000000000, 0.000000000000000000, 0.000000000000000000 ) ) ;
#67 = CARTESIAN_POINT ( 'NONE',  ( -0.5049999999999998934, 0.9497500000000000941, -0.5747499999999998721 ) ) ;
#68 = DIRECTION ( 'NONE',  ( -1.000000000000000000, -0.000000000000000000, 8.673617379884039170E-17 ) ) ;
#69 = ORIENTED_EDGE ( 'NONE', *, *, #648, .T. ) ;
#70 = ORIENTED_EDGE ( 'NONE', *, *, #374, .F. ) ;
#71 = DIRECTION ( 'NONE',  ( 0.000000000000000000, -1.000000000000000000, -0.000000000000000000 ) ) ;
#72 = PLANE ( 'NONE',  #259 ) ;
#73 = DIRECTION ( 'NONE',  ( -1.000000000000000000, 0.000000000000000000, 0.000000000000000000 ) ) ;
#74 = DIRECTION ( 'NONE',  ( 0.000000000000000000, 0.000000000000000000, -1.000000000000000000 ) ) ;
#75 = EDGE_LOOP ( 'NONE', ( #503, #1267, #693, #512 ) ) ;
#76 = MANIFOLD_SOLID_BREP ( 'Mirror2', #582 ) ;
#77 = EDGE_LOOP ( 'NONE', ( #882, #1128, #573, #1234 ) ) ;
#78 = DIRECTION ( 'NONE',  ( 0.000000000000000000, 0.000000000000000000, 1.000000000000000000 ) ) ;
#79 = UNCERTAINTY_MEASURE_WITH_UNIT (LENGTH_MEASURE( 1.000000000000000082E-05 ), #1166, 'distance_accuracy_value', 'NONE');
#80 = CYLINDRICAL_SURFACE ( 'NONE', #1085, 0.05024999999999994749 ) ;
#81 = VECTOR ( 'NONE', #148, 1000.000000000000000 ) ;
#82 = CARTESIAN_POINT ( 'NONE',  ( 0.5049999999999997824, 0.05024999999999994749, 0.6249999999999996669 ) ) ;
#83 = LINE ( 'NONE', #291, #1003 ) ;
#84 = VERTEX_POINT ( 'NONE', #675 ) ;
#85 = AXIS2_PLACEMENT_3D ( 'NONE', #378, #191, #88 ) ;
#86 = ORIENTED_EDGE ( 'NONE', *, *, #114, .F. ) ;
#87 = CARTESIAN_POINT ( 'NONE',  ( -0.5049999999999998934, 0.9497500000000000941, 0.6082499999999997353 ) ) ;
#88 = DIRECTION ( 'NONE',  ( 0.000000000000000000, 0.000000000000000000, -1.000000000000000000 ) ) ;
#89 = CARTESIAN_POINT ( 'NONE',  ( -0.9547500000000000986, 1.000000000000000000, -0.5747499999999999831 ) ) ;
#90 = VERTEX_POINT ( 'NONE', #372 ) ;
#91 = LINE ( 'NONE', #683, #620 ) ;
#92 = EDGE_CURVE ( 'NONE', #490, #713, #380, .T. ) ;
#93 = VERTEX_POINT ( 'NONE', #456 ) ;
#94 = ORIENTED_EDGE ( 'NONE', *, *, #92, .T. ) ;
#95 = CARTESIAN_POINT ( 'NONE',  ( -0.5050000000000000044, 0.000000000000000000, -0.5747499999999999831 ) ) ;
#96 = EDGE_CURVE ( 'NONE', #1194, #439, #958, .T. ) ;
#97 = AXIS2_PLACEMENT_3D ( 'NONE', #320, #1169, #15 ) ;
#98 = ORIENTED_EDGE ( 'NONE', *, *, #1013, .F. ) ;
#99 = LINE ( 'NONE', #878, #624 ) ;
#100 = CIRCLE ( 'NONE', #249, 0.05024999999999994749 ) ;
#101 = EDGE_CURVE ( 'NONE', #649, #401, #1256, .T. ) ;
#102 = EDGE_CURVE ( 'NONE', #481, #1020, #1072, .T. ) ;
#103 = CARTESIAN_POINT ( 'NONE',  ( 0.5049999999755527824, 0.05024999999999995443, -0.6082499999999997353 ) ) ;
#104 = CIRCLE ( 'NONE', #1203, 0.05024999999999994749 ) ;
#105 = CARTESIAN_POINT ( 'NONE',  ( 1.004999999999999893, 0.9497500000000000941, 0.5747499999999997611 ) ) ;
#106 = ORIENTED_EDGE ( 'NONE', *, *, #795, .T. ) ;
#107 = FACE_OUTER_BOUND ( 'NONE', #684, .T. ) ;
#108 = ORIENTED_EDGE ( 'NONE', *, *, #1190, .F. ) ;
#109 = ORIENTED_EDGE ( 'NONE', *, *, #229, .F. ) ;
#110 = AXIS2_PLACEMENT_3D ( 'NONE', #441, #40, #531 ) ;
#111 =( GEOMETRIC_REPRESENTATION_CONTEXT ( 3 ) GLOBAL_UNCERTAINTY_ASSIGNED_CONTEXT ( ( #79 ) ) GLOBAL_UNIT_ASSIGNED_CONTEXT ( ( #1166, #1227, #819 ) ) REPRESENTATION_CONTEXT ( 'NONE', 'WORKASPACE' ) );
#112 = EDGE_CURVE ( 'NONE', #579, #1264, #83, .T. ) ;
#113 = ORIENTED_EDGE ( 'NONE', *, *, #1056, .T. ) ;
#114 = EDGE_CURVE ( 'NONE', #713, #176, #91, .T. ) ;
#115 = AXIS2_PLACEMENT_3D ( 'NONE', #808, #1086, #509 ) ;
#116 = EDGE_CURVE ( 'NONE', #765, #1074, #976, .T. ) ;
#117 = ORIENTED_EDGE ( 'NONE', *, *, #1231, .T. ) ;
#118 = DIRECTION ( 'NONE',  ( -1.000000000000000000, 0.000000000000000000, 0.000000000000000000 ) ) ;
#119 = ORIENTED_EDGE ( 'NONE', *, *, #1054, .F. ) ;
#120 = EDGE_LOOP ( 'NONE', ( #63, #38, #1258, #1014 ) ) ;
#121 = DIRECTION ( 'NONE',  ( -1.000000000000000000, -0.000000000000000000, -0.000000000000000000 ) ) ;
#122 = EDGE_LOOP ( 'NONE', ( #406, #1192, #709, #855 ) ) ;
#123 = ORIENTED_EDGE ( 'NONE', *, *, #248, .F. ) ;
#124 = DIRECTION ( 'NONE',  ( 0.000000000000000000, 0.000000000000000000, -1.000000000000000000 ) ) ;
#125 = CYLINDRICAL_SURFACE ( 'NONE', #154, 0.03349999999999989098 ) ;
#126 = VECTOR ( 'NONE', #1039, 1000.000000000000000 ) ;
#127 = ORIENTED_EDGE ( 'NONE', *, *, #1056, .F. ) ;
#128 = UNCERTAINTY_MEASURE_WITH_UNIT (LENGTH_MEASURE( 1.000000000000000082E-05 ), #28, 'distance_accuracy_value', 'NONE');
#129 = ORIENTED_EDGE ( 'NONE', *, *, #24, .T. ) ;
#130 = CARTESIAN_POINT ( 'NONE',  ( -0.9547499999999998765, 1.000000000000000000, 0.5747499999999997611 ) ) ;
#131 = FACE_OUTER_BOUND ( 'NONE', #122, .T. ) ;
#132 = ORIENTED_EDGE ( 'NONE', *, *, #851, .T. ) ;
#133 = DIRECTION ( 'NONE',  ( 0.000000000000000000, 0.000000000000000000, 1.000000000000000000 ) ) ;
#134 =( GEOMETRIC_REPRESENTATION_CONTEXT ( 3 ) GLOBAL_UNCERTAINTY_ASSIGNED_CONTEXT ( ( #128 ) ) GLOBAL_UNIT_ASSIGNED_CONTEXT ( ( #28, #42, #631 ) ) REPRESENTATION_CONTEXT ( 'NONE', 'WORKASPACE' ) );
#135 = DIRECTION ( 'NONE',  ( 1.000000000000000000, -0.000000000000000000, -1.734723475976807587E-16 ) ) ;
#136 = ADVANCED_FACE ( 'NONE', ( #564 ), #202, .T. ) ;
#137 = ORIENTED_EDGE ( 'NONE', *, *, #1054, .T. ) ;
#138 = CARTESIAN_POINT ( 'NONE',  ( -0.5049999999999998934, 0.01674999999999999753, 0.5747499999999998721 ) ) ;
#139 = FACE_OUTER_BOUND ( 'NONE', #779, .T. ) ;
#140 = DIRECTION ( 'NONE',  ( -1.000000000000000000, -0.000000000000000000, -0.000000000000000000 ) ) ;
#141 = LINE ( 'NONE', #338, #656 ) ;
#142 = CIRCLE ( 'NONE', #854, 0.05024999999999994749 ) ;
#143 = CARTESIAN_POINT ( 'NONE',  ( 500000.0000000000582, 0.05024999999999995443, -0.6082500000433678222 ) ) ;
#144 = ORIENTED_EDGE ( 'NONE', *, *, #92, .F. ) ;
#145 = CARTESIAN_POINT ( 'NONE',  ( -1.004999999999999893, 0.05024999999999994749, 0.5747499999999997611 ) ) ;
#146 = DIRECTION ( 'NONE',  ( 0.000000000000000000, 0.000000000000000000, 1.000000000000000000 ) ) ;
#147 = LINE ( 'NONE', #1110, #1162 ) ;
#148 = DIRECTION ( 'NONE',  ( 1.000000000000000000, -0.000000000000000000, -0.000000000000000000 ) ) ;
#149 = CARTESIAN_POINT ( 'NONE',  ( -0.9547500000000000986, 0.05024999999999994749, -0.5747499999999999831 ) ) ;
#150 = ORIENTED_EDGE ( 'NONE', *, *, #1102, .F. ) ;
#151 = DIRECTION ( 'NONE',  ( 1.734723475976807587E-16, 0.000000000000000000, 1.000000000000000000 ) ) ;
#152 = ADVANCED_FACE ( 'NONE', ( #1043 ), #578, .F. ) ;
#153 = PLANE ( 'NONE',  #947 ) ;
#154 = AXIS2_PLACEMENT_3D ( 'NONE', #619, #883, #1278 ) ;
#155 = DIRECTION ( 'NONE',  ( 1.000000000000000000, -0.000000000000000000, 0.000000000000000000 ) ) ;
#156 = CYLINDRICAL_SURFACE ( 'NONE', #1144, 0.03350000000000000200 ) ;
#157 = ORIENTED_EDGE ( 'NONE', *, *, #786, .T. ) ;
#158 = PRESENTATION_STYLE_ASSIGNMENT (( #743 ) ) ;
#159 = CARTESIAN_POINT ( 'NONE',  ( 0.5050000000892396201, 0.05024999999999994749, 0.6082499999999998463 ) ) ;
#160 = FACE_OUTER_BOUND ( 'NONE', #1136, .T. ) ;
#161 = CARTESIAN_POINT ( 'NONE',  ( -0.9547500000000000986, 0.05024999999999999606, -0.5747499999999999831 ) ) ;
#162 = ORIENTED_EDGE ( 'NONE', *, *, #567, .F. ) ;
#163 = DIRECTION ( 'NONE',  ( 0.000000000000000000, 1.000000000000000000, 0.000000000000000000 ) ) ;
#164 = CIRCLE ( 'NONE', #759, 0.05024999999999994749 ) ;
#165 = DIRECTION ( 'NONE',  ( 0.000000000000000000, 1.000000000000000000, -1.205338713157870319E-16 ) ) ;
#166 = LINE ( 'NONE', #577, #405 ) ;
#167 = DIRECTION ( 'NONE',  ( 0.000000000000000000, 0.000000000000000000, -1.000000000000000000 ) ) ;
#168 = ORIENTED_EDGE ( 'NONE', *, *, #227, .F. ) ;
#169 = DIRECTION ( 'NONE',  ( 0.000000000000000000, 0.000000000000000000, -1.000000000000000000 ) ) ;
#170 = ORIENTED_EDGE ( 'NONE', *, *, #549, .F. ) ;
#171 = CYLINDRICAL_SURFACE ( 'NONE', #225, 0.05024999999999994749 ) ;
#172 = CIRCLE ( 'NONE', #394, 0.05024999999999994749 ) ;
#173 = AXIS2_PLACEMENT_3D ( 'NONE', #828, #1117, #609 ) ;
#174 = PRODUCT_RELATED_PRODUCT_CATEGORY ( 'part', '', ( #858 ) ) ;
#175 = CARTESIAN_POINT ( 'NONE',  ( -0.9547500000000000986, 0.9497500000000000941, -0.5747499999999999831 ) ) ;
#176 = VERTEX_POINT ( 'NONE', #865 ) ;
#177 = FACE_OUTER_BOUND ( 'NONE', #381, .T. ) ;
#178 = AXIS2_PLACEMENT_3D ( 'NONE', #175, #951, #465 ) ;
#179 = LINE ( 'NONE', #1050, #585 ) ;
#180 = CARTESIAN_POINT ( 'NONE',  ( 0.5049999999755527824, 0.05024999999999994749, -0.5747499999999998721 ) ) ;
#181 = ORIENTED_EDGE ( 'NONE', *, *, #112, .F. ) ;
#182 = EDGE_LOOP ( 'NONE', ( #665, #676, #267, #758 ) ) ;
#183 = CARTESIAN_POINT ( 'NONE',  ( 1.004999999999999893, 1.000000000000000000, 0.6249999999999996669 ) ) ;
#184 = EDGE_CURVE ( 'NONE', #206, #954, #1141, .T. ) ;
#185 = MECHANICAL_DESIGN_GEOMETRIC_PRESENTATION_REPRESENTATION (  '', ( #205 ), #1115 ) ;
#186 = CARTESIAN_POINT ( 'NONE',  ( 0.9547499999999998765, 0.05024999999999994749, 0.5747499999999997611 ) ) ;
#187 = DIRECTION ( 'NONE',  ( -0.000000000000000000, 1.000000000000000000, -0.000000000000000000 ) ) ;
#188 = EDGE_LOOP ( 'NONE', ( #293, #226, #217 ) ) ;
#189 = ORIENTED_EDGE ( 'NONE', *, *, #47, .T. ) ;
#190 = DIRECTION ( 'NONE',  ( -1.000000000000000000, 0.000000000000000000, 0.000000000000000000 ) ) ;
#191 = DIRECTION ( 'NONE',  ( 1.000000000000000000, 0.000000000000000000, -8.673617379884036705E-17 ) ) ;
#192 = LINE ( 'NONE', #637, #560 ) ;
#193 = DIRECTION ( 'NONE',  ( 1.734723475976807587E-16, -0.000000000000000000, -1.000000000000000000 ) ) ;
#194 = ORIENTED_EDGE ( 'NONE', *, *, #212, .F. ) ;
#195 = VECTOR ( 'NONE', #700, 1000.000000000000000 ) ;
#196 = CIRCLE ( 'NONE', #728, 0.03350000000000000200 ) ;
#197 = VERTEX_POINT ( 'NONE', #478 ) ;
#198 = DIRECTION ( 'NONE',  ( 1.000000000000000000, 0.000000000000000000, 0.000000000000000000 ) ) ;
#199 = EDGE_CURVE ( 'NONE', #1264, #387, #827, .T. ) ;
#200 = FACE_OUTER_BOUND ( 'NONE', #627, .T. ) ;
#201 = ORIENTED_EDGE ( 'NONE', *, *, #463, .F. ) ;
#202 = SPHERICAL_SURFACE ( 'NONE', #1215, 0.05024999999999999606 ) ;
#203 = ORIENTED_EDGE ( 'NONE', *, *, #1170, .T. ) ;
#204 = CARTESIAN_POINT ( 'NONE',  ( 0.9547499999999998765, 0.9497500000000000941, 0.6249999999999996669 ) ) ;
#205 = STYLED_ITEM ( 'NONE', ( #158 ), #904 ) ;
#206 = VERTEX_POINT ( 'NONE', #1063 ) ;
#207 = DIRECTION ( 'NONE',  ( -1.000000000000000000, 0.000000000000000000, 0.000000000000000000 ) ) ;
#208 = AXIS2_PLACEMENT_3D ( 'NONE', #59, #447, #1023 ) ;
#209 = ADVANCED_FACE ( 'NONE', ( #860 ), #872, .T. ) ;
#210 = DIRECTION ( 'NONE',  ( 1.734723475976807587E-16, -0.000000000000000000, -1.000000000000000000 ) ) ;
#211 = EDGE_CURVE ( 'NONE', #421, #966, #1158, .T. ) ;
#212 = EDGE_CURVE ( 'NONE', #350, #298, #775, .T. ) ;
#213 = ORIENTED_EDGE ( 'NONE', *, *, #1002, .F. ) ;
#214 = CARTESIAN_POINT ( 'NONE',  ( 1.005000000000000115, 1.000000000000000000, -0.6249999999999998890 ) ) ;
#215 = ORIENTED_EDGE ( 'NONE', *, *, #417, .F. ) ;
#216 = AXIS2_PLACEMENT_3D ( 'NONE', #771, #1255, #783 ) ;
#217 = ORIENTED_EDGE ( 'NONE', *, *, #1040, .F. ) ;
#218 = DIRECTION ( 'NONE',  ( -1.000000000000000000, -0.000000000000000000, 8.673617379884039170E-17 ) ) ;
#219 = AXIS2_PLACEMENT_3D ( 'NONE', #1149, #1051, #772 ) ;
#220 = DIRECTION ( 'NONE',  ( -1.000000000000000000, -0.000000000000000000, -0.000000000000000000 ) ) ;
#221 = CARTESIAN_POINT ( 'NONE',  ( 0.5049999999999997824, 1.000000000000000000, 0.5747499999999997611 ) ) ;
#222 = ORIENTED_EDGE ( 'NONE', *, *, #199, .F. ) ;
#223 = ORIENTED_EDGE ( 'NONE', *, *, #1005, .T. ) ;
#224 = DIRECTION ( 'NONE',  ( 0.000000000000000000, 0.000000000000000000, -1.000000000000000000 ) ) ;
#225 = AXIS2_PLACEMENT_3D ( 'NONE', #762, #1254, #781 ) ;
#226 = ORIENTED_EDGE ( 'NONE', *, *, #325, .T. ) ;
#227 = EDGE_CURVE ( 'NONE', #276, #1187, #794, .T. ) ;
#228 = VECTOR ( 'NONE', #740, 1000.000000000000000 ) ;
#229 = EDGE_CURVE ( 'NONE', #310, #932, #473, .T. ) ;
#230 = CARTESIAN_POINT ( 'NONE',  ( -1.005000000000000115, 1.000000000000000000, -0.5747499999999999831 ) ) ;
#231 = EDGE_CURVE ( 'NONE', #1020, #1205, #400, .T. ) ;
#232 =( LENGTH_UNIT ( ) NAMED_UNIT ( * ) SI_UNIT ( .MILLI., .METRE. ) );
#233 = AXIS2_PLACEMENT_3D ( 'NONE', #544, #814, #526 ) ;
#234 = AXIS2_PLACEMENT_3D ( 'NONE', #1208, #625, #253 ) ;
#235 = EDGE_CURVE ( 'NONE', #966, #298, #99, .T. ) ;
#236 = VECTOR ( 'NONE', #218, 1000.000000000000000 ) ;
#237 = SPHERICAL_SURFACE ( 'NONE', #234, 0.05024999999999999606 ) ;
#238 = LINE ( 'NONE', #739, #1070 ) ;
#239 = EDGE_CURVE ( 'NONE', #517, #765, #993, .T. ) ;
#240 = EDGE_CURVE ( 'NONE', #490, #953, #562, .T. ) ;
#241 = SURFACE_SIDE_STYLE ('',( #1119 ) ) ;
#242 = AXIS2_PLACEMENT_3D ( 'NONE', #180, #572, #74 ) ;
#243 = EDGE_LOOP ( 'NONE', ( #1006, #712, #292, #14 ) ) ;
#244 = DIRECTION ( 'NONE',  ( 0.000000000000000000, -1.000000000000000000, 0.000000000000000000 ) ) ;
#245 = DIRECTION ( 'NONE',  ( 1.734723475976807587E-16, 0.000000000000000000, -1.000000000000000000 ) ) ;
#246 = DIRECTION ( 'NONE',  ( 0.000000000000000000, -1.000000000000000000, 0.000000000000000000 ) ) ;
#247 = DIRECTION ( 'NONE',  ( 0.000000000000000000, -0.000000000000000000, 1.000000000000000000 ) ) ;
#248 = EDGE_CURVE ( 'NONE', #805, #206, #1171, .T. ) ;
#249 = AXIS2_PLACEMENT_3D ( 'NONE', #928, #442, #655 ) ;
#250 = LINE ( 'NONE', #632, #1165 ) ;
#251 = ORIENTED_EDGE ( 'NONE', *, *, #227, .T. ) ;
#252 = CARTESIAN_POINT ( 'NONE',  ( -0.5050000000000000044, 1.000000000000000000, -0.6249999999999998890 ) ) ;
#253 = DIRECTION ( 'NONE',  ( 1.000000000000000000, 0.000000000000000000, 0.000000000000000000 ) ) ;
#254 = SURFACE_STYLE_USAGE ( .BOTH. , #241 ) ;
#255 = DIRECTION ( 'NONE',  ( 0.000000000000000000, 1.000000000000000000, 0.000000000000000000 ) ) ;
#256 = VERTEX_POINT ( 'NONE', #496 ) ;
#257 = FACE_OUTER_BOUND ( 'NONE', #1201, .T. ) ;
#258 = DIRECTION ( 'NONE',  ( 1.000000000000000000, 0.000000000000000000, 1.734723475976807587E-16 ) ) ;
#259 = AXIS2_PLACEMENT_3D ( 'NONE', #1061, #963, #697 ) ;
#260 = DIRECTION ( 'NONE',  ( 0.000000000000000000, 0.000000000000000000, 1.000000000000000000 ) ) ;
#261 = FILL_AREA_STYLE ('',( #930 ) ) ;
#262 = DIRECTION ( 'NONE',  ( -1.734723475976807587E-16, -0.000000000000000000, -1.000000000000000000 ) ) ;
#263 = ORIENTED_EDGE ( 'NONE', *, *, #449, .T. ) ;
#264 = CARTESIAN_POINT ( 'NONE',  ( -0.9547500000000000986, 0.9497500000000000941, -0.5747499999999999831 ) ) ;
#265 = SPHERICAL_SURFACE ( 'NONE', #431, 0.05024999999999999606 ) ;
#266 = CARTESIAN_POINT ( 'NONE',  ( 0.9547499999999998765, 0.9497500000000000941, 0.5747499999999997611 ) ) ;
#267 = ORIENTED_EDGE ( 'NONE', *, *, #1076, .F. ) ;
#268 = DIRECTION ( 'NONE',  ( 0.000000000000000000, 0.000000000000000000, 1.000000000000000000 ) ) ;
#269 = ORIENTED_EDGE ( 'NONE', *, *, #1016, .F. ) ;
#270 = VECTOR ( 'NONE', #391, 1000.000000000000000 ) ;
#271 = DIRECTION ( 'NONE',  ( -1.734723475976807834E-16, 0.000000000000000000, 1.000000000000000000 ) ) ;
#272 = AXIS2_PLACEMENT_3D ( 'NONE', #1067, #875, #198 ) ;
#273 = ADVANCED_FACE ( 'NONE', ( #1082 ), #711, .T. ) ;
#274 = CIRCLE ( 'NONE', #597, 0.05024999999999994749 ) ;
#275 = CARTESIAN_POINT ( 'NONE',  ( 0.000000000000000000, 0.000000000000000000, 0.5747499999999997611 ) ) ;
#276 = VERTEX_POINT ( 'NONE', #614 ) ;
#277 = DIRECTION ( 'NONE',  ( 1.000000000000000000, 0.000000000000000000, 0.000000000000000000 ) ) ;
#278 = CYLINDRICAL_SURFACE ( 'NONE', #535, 0.05024999999999994749 ) ;
#279 = AXIS2_PLACEMENT_3D ( 'NONE', #433, #629, #146 ) ;
#280 = DIRECTION ( 'NONE',  ( 0.000000000000000000, 0.000000000000000000, 1.000000000000000000 ) ) ;
#281 = EDGE_LOOP ( 'NONE', ( #710, #873, #170, #127 ) ) ;
#282 = ORIENTED_EDGE ( 'NONE', *, *, #453, .F. ) ;
#283 = FACE_OUTER_BOUND ( 'NONE', #368, .T. ) ;
#284 = CARTESIAN_POINT ( 'NONE',  ( 0.5050000000892396201, 0.05024999999999994749, -0.6082499999999997353 ) ) ;
#285 = CARTESIAN_POINT ( 'NONE',  ( 0.5050000000000000044, 0.9497500000000000941, -0.6249999999999998890 ) ) ;
#286 = ORIENTED_EDGE ( 'NONE', *, *, #1275, .F. ) ;
#287 = ORIENTED_EDGE ( 'NONE', *, *, #1045, .F. ) ;
#288 = CARTESIAN_POINT ( 'NONE',  ( -0.5049999999999998934, 0.9497500000000000941, 0.6082499999999997353 ) ) ;
#289 = AXIS2_PLACEMENT_3D ( 'NONE', #568, #1241, #967 ) ;
#290 = CARTESIAN_POINT ( 'NONE',  ( -1.005000000000000115, 1.000000000000000000, -0.5747499999999999831 ) ) ;
#291 = CARTESIAN_POINT ( 'NONE',  ( -1.005000000000000115, 0.9497500000000000941, -0.6249999999999998890 ) ) ;
#292 = ORIENTED_EDGE ( 'NONE', *, *, #785, .T. ) ;
#293 = ORIENTED_EDGE ( 'NONE', *, *, #785, .F. ) ;
#294 = FACE_OUTER_BOUND ( 'NONE', #1083, .T. ) ;
#295 = ADVANCED_FACE ( 'NONE', ( #596 ), #988, .F. ) ;
#296 = DIRECTION ( 'NONE',  ( 1.000000000000000000, 0.000000000000000000, -8.673617379884036705E-17 ) ) ;
#297 = VECTOR ( 'NONE', #777, 1000.000000000000000 ) ;
#298 = VERTEX_POINT ( 'NONE', #1196 ) ;
#299 = FACE_OUTER_BOUND ( 'NONE', #1038, .T. ) ;
#300 = CARTESIAN_POINT ( 'NONE',  ( 0.9547499999999998765, 0.9497500000000000941, 0.5747499999999997611 ) ) ;
#301 = EDGE_CURVE ( 'NONE', #788, #387, #322, .T. ) ;
#302 = VERTEX_POINT ( 'NONE', #130 ) ;
#303 = DIRECTION ( 'NONE',  ( 0.000000000000000000, 0.000000000000000000, -1.000000000000000000 ) ) ;
#304 = CARTESIAN_POINT ( 'NONE',  ( 1.004999999999999893, 0.05024999999999994749, 0.5747499999999997611 ) ) ;
#305 = DIRECTION ( 'NONE',  ( 0.000000000000000000, 0.000000000000000000, 1.000000000000000000 ) ) ;
#306 = AXIS2_PLACEMENT_3D ( 'NONE', #56, #1015, #440 ) ;
#307 = CARTESIAN_POINT ( 'NONE',  ( 0.9547500000000000986, 0.05024999999999994749, -0.5747499999999999831 ) ) ;
#308 = CARTESIAN_POINT ( 'NONE',  ( -1.004999999999999893, 0.05024999999999994749, 0.6249999999999996669 ) ) ;
#309 = CARTESIAN_POINT ( 'NONE',  ( 0.5050000000000000044, 1.000000000000000000, -0.6249999999999998890 ) ) ;
#310 = VERTEX_POINT ( 'NONE', #516 ) ;
#311 = VECTOR ( 'NONE', #702, 1000.000000000000000 ) ;
#312 = EDGE_LOOP ( 'NONE', ( #119, #117, #616, #1047 ) ) ;
#313 = CARTESIAN_POINT ( 'NONE',  ( -0.5050000000000000044, 0.000000000000000000, -0.6249999999999998890 ) ) ;
#314 = ORIENTED_EDGE ( 'NONE', *, *, #374, .T. ) ;
#315 = DIRECTION ( 'NONE',  ( -1.000000000000000000, 0.000000000000000000, 0.000000000000000000 ) ) ;
#316 = MECHANICAL_DESIGN_GEOMETRIC_PRESENTATION_REPRESENTATION (  '', ( #1126 ), #432 ) ;
#317 = ORIENTED_EDGE ( 'NONE', *, *, #1084, .F. ) ;
#318 = DIRECTION ( 'NONE',  ( -2.090929362218633062E-32, -1.000000000000000000, 1.205338713157870319E-16 ) ) ;
#319 = ORIENTED_EDGE ( 'NONE', *, *, #908, .T. ) ;
#320 = CARTESIAN_POINT ( 'NONE',  ( 0.5050000000000000044, 0.9497500000000000941, -0.5747499999999999831 ) ) ;
#321 = ADVANCED_FACE ( 'NONE', ( #617 ), #1268, .T. ) ;
#322 = LINE ( 'NONE', #230, #1210 ) ;
#323 = CYLINDRICAL_SURFACE ( 'NONE', #1191, 0.05024999999999994749 ) ;
#324 = AXIS2_PLACEMENT_3D ( 'NONE', #746, #752, #454 ) ;
#325 = EDGE_CURVE ( 'NONE', #948, #93, #668, .T. ) ;
#326 = EDGE_CURVE ( 'NONE', #481, #983, #894, .T. ) ;
#327 = ORIENTED_EDGE ( 'NONE', *, *, #199, .T. ) ;
#328 = CIRCLE ( 'NONE', #492, 0.05024999999999994749 ) ;
#329 = EDGE_CURVE ( 'NONE', #805, #1074, #12, .T. ) ;
#330 = CYLINDRICAL_SURFACE ( 'NONE', #603, 0.05025000000000005851 ) ;
#331 = CYLINDRICAL_SURFACE ( 'NONE', #1139, 0.05024999999999994749 ) ;
#332 = ORIENTED_EDGE ( 'NONE', *, *, #52, .T. ) ;
#333 = VECTOR ( 'NONE', #359, 1000.000000000000000 ) ;
#334 = CIRCLE ( 'NONE', #667, 0.05024999999999994749 ) ;
#335 = AXIS2_PLACEMENT_3D ( 'NONE', #491, #1280, #124 ) ;
#336 = DIRECTION ( 'NONE',  ( 0.000000000000000000, -1.000000000000000000, 0.000000000000000000 ) ) ;
#337 = EDGE_CURVE ( 'NONE', #206, #421, #412, .T. ) ;
#338 = CARTESIAN_POINT ( 'NONE',  ( 0.9547499999999998765, 1.000000000000000000, 0.6249999999999996669 ) ) ;
#339 = AXIS2_PLACEMENT_3D ( 'NONE', #845, #358, #756 ) ;
#340 = DIRECTION ( 'NONE',  ( 0.000000000000000000, 0.000000000000000000, 1.000000000000000000 ) ) ;
#341 = ORIENTED_EDGE ( 'NONE', *, *, #231, .F. ) ;
#342 = CARTESIAN_POINT ( 'NONE',  ( -0.5049999999999997824, 0.9497500000000000941, 0.5747499999999997611 ) ) ;
#343 = DIRECTION ( 'NONE',  ( -1.734723475976807587E-16, 0.000000000000000000, -1.000000000000000000 ) ) ;
#344 = DIRECTION ( 'NONE',  ( 0.000000000000000000, 1.000000000000000000, 0.000000000000000000 ) ) ;
#345 = ORIENTED_EDGE ( 'NONE', *, *, #648, .F. ) ;
#346 = CARTESIAN_POINT ( 'NONE',  ( 0.9547499999999998765, 0.9497500000000000941, 0.5747499999999997611 ) ) ;
#347 =( NAMED_UNIT ( * ) PLANE_ANGLE_UNIT ( ) SI_UNIT ( $, .RADIAN. ) );
#348 = CARTESIAN_POINT ( 'NONE',  ( 1.004999999999999893, 1.000000000000000000, 0.5747499999999997611 ) ) ;
#349 = DIRECTION ( 'NONE',  ( -0.000000000000000000, -1.000000000000000000, -0.000000000000000000 ) ) ;
#350 = VERTEX_POINT ( 'NONE', #984 ) ;
#351 = CARTESIAN_POINT ( 'NONE',  ( -1.005000000000000115, 0.05024999999999994749, -0.6249999999999998890 ) ) ;
#352 = CARTESIAN_POINT ( 'NONE',  ( 1.004999999999999893, 0.9497500000000000941, 0.6249999999999996669 ) ) ;
#353 = DIRECTION ( 'NONE',  ( 0.000000000000000000, 0.000000000000000000, 1.000000000000000000 ) ) ;
#354 = ORIENTED_EDGE ( 'NONE', *, *, #945, .F. ) ;
#355 = DIRECTION ( 'NONE',  ( 0.000000000000000000, -1.000000000000000000, 1.205338713157870319E-16 ) ) ;
#356 = ORIENTED_EDGE ( 'NONE', *, *, #102, .T. ) ;
#357 = FACE_OUTER_BOUND ( 'NONE', #243, .T. ) ;
#358 = DIRECTION ( 'NONE',  ( 1.000000000000000000, 0.000000000000000000, -1.734723475976807587E-16 ) ) ;
#359 = DIRECTION ( 'NONE',  ( 1.734723475976807587E-16, -0.000000000000000000, 1.000000000000000000 ) ) ;
#360 = EDGE_LOOP ( 'NONE', ( #137, #223, #382, #376, #1257, #1253, #251, #843 ) ) ;
#361 = VECTOR ( 'NONE', #518, 1000.000000000000000 ) ;
#362 = CARTESIAN_POINT ( 'NONE',  ( 0.5049999999755527824, 0.9832499999999999574, -0.5747500001301040218 ) ) ;
#363 = UNCERTAINTY_MEASURE_WITH_UNIT (LENGTH_MEASURE( 1.000000000000000082E-05 ), #232, 'distance_accuracy_value', 'NONE');
#364 = AXIS2_PLACEMENT_3D ( 'NONE', #266, #1028, #49 ) ;
#365 = DIRECTION ( 'NONE',  ( 0.000000000000000000, -1.000000000000000000, 0.000000000000000000 ) ) ;
#366 = DIRECTION ( 'NONE',  ( 1.000000000000000000, 0.000000000000000000, 1.734723475976807587E-16 ) ) ;
#367 = EDGE_LOOP ( 'NONE', ( #70, #1238, #589, #1025 ) ) ;
#368 = EDGE_LOOP ( 'NONE', ( #1090, #1059, #341, #871 ) ) ;
#369 = CARTESIAN_POINT ( 'NONE',  ( 0.9547499999999998765, 0.05024999999999999606, 0.5747499999999997611 ) ) ;
#370 = FACE_OUTER_BOUND ( 'NONE', #281, .T. ) ;
#371 = DIRECTION ( 'NONE',  ( -1.000000000000000000, 0.000000000000000000, 1.734723475976805862E-16 ) ) ;
#372 = CARTESIAN_POINT ( 'NONE',  ( -0.5049999999999997824, 0.05024999999999994749, 0.6249999999999996669 ) ) ;
#373 = ORIENTED_EDGE ( 'NONE', *, *, #1135, .T. ) ;
#374 = EDGE_CURVE ( 'NONE', #1205, #903, #1069, .T. ) ;
#375 = ADVANCED_FACE ( 'NONE', ( #107 ), #705, .F. ) ;
#376 = ORIENTED_EDGE ( 'NONE', *, *, #337, .T. ) ;
#377 = CARTESIAN_POINT ( 'NONE',  ( 0.9547499999999998765, 0.9497500000000000941, 0.5747499999999997611 ) ) ;
#378 = CARTESIAN_POINT ( 'NONE',  ( -0.5049999999999998934, 0.05024999999999994749, -0.5747499999999998721 ) ) ;
#379 = FACE_OUTER_BOUND ( 'NONE', #77, .T. ) ;
#380 = LINE ( 'NONE', #590, #747 ) ;
#381 = EDGE_LOOP ( 'NONE', ( #895, #4, #1151, #263 ) ) ;
#382 = ORIENTED_EDGE ( 'NONE', *, *, #248, .T. ) ;
#383 = ORIENTED_EDGE ( 'NONE', *, *, #1150, .T. ) ;
#384 = LINE ( 'NONE', #767, #800 ) ;
#385 = CIRCLE ( 'NONE', #1094, 0.05024999999999994749 ) ;
#386 = PLANE ( 'NONE',  #575 ) ;
#387 = VERTEX_POINT ( 'NONE', #502 ) ;
#388 = DIRECTION ( 'NONE',  ( 1.000000000000000000, 0.000000000000000000, 1.734723475976807587E-16 ) ) ;
#389 = VECTOR ( 'NONE', #1012, 1000.000000000000000 ) ;
#390 = ORIENTED_EDGE ( 'NONE', *, *, #46, .T. ) ;
#391 = DIRECTION ( 'NONE',  ( -0.000000000000000000, 1.000000000000000000, -0.000000000000000000 ) ) ;
#392 = CARTESIAN_POINT ( 'NONE',  ( 0.000000000000000000, 0.9497500000000000941, 0.5747499999999997611 ) ) ;
#393 = VECTOR ( 'NONE', #193, 1000.000000000000000 ) ;
#394 = AXIS2_PLACEMENT_3D ( 'NONE', #1032, #552, #1223 ) ;
#395 = AXIS2_PLACEMENT_3D ( 'NONE', #776, #464, #852 ) ;
#396 = ORIENTED_EDGE ( 'NONE', *, *, #708, .T. ) ;
#397 = CARTESIAN_POINT ( 'NONE',  ( 0.5049999999755527824, 0.01674999999999999753, 0.5747499998698957224 ) ) ;
#398 = ADVANCED_FACE ( 'NONE', ( #890 ), #802, .F. ) ;
#399 = EDGE_LOOP ( 'NONE', ( #877, #541, #109, #213 ) ) ;
#400 = CIRCLE ( 'NONE', #569, 0.05024999999999994749 ) ;
#401 = VERTEX_POINT ( 'NONE', #20 ) ;
#402 = DIRECTION ( 'NONE',  ( 0.000000000000000000, 0.000000000000000000, 1.000000000000000000 ) ) ;
#403 = LINE ( 'NONE', #799, #1186 ) ;
#404 = DIRECTION ( 'NONE',  ( -1.000000000000000000, 0.000000000000000000, 0.000000000000000000 ) ) ;
#405 = VECTOR ( 'NONE', #957, 1000.000000000000000 ) ;
#406 = ORIENTED_EDGE ( 'NONE', *, *, #600, .T. ) ;
#407 = DIRECTION ( 'NONE',  ( 0.000000000000000000, 1.000000000000000000, 0.000000000000000000 ) ) ;
#408 = ADVANCED_FACE ( 'NONE', ( #139 ), #927, .F. ) ;
#409 = DIRECTION ( 'NONE',  ( 0.000000000000000000, 0.000000000000000000, 1.000000000000000000 ) ) ;
#410 = CARTESIAN_POINT ( 'NONE',  ( 0.9547500000000000986, 0.05024999999999994749, -0.5747499999999999831 ) ) ;
#411 = CIRCLE ( 'NONE', #476, 0.05024999999999994749 ) ;
#412 = LINE ( 'NONE', #1193, #900 ) ;
#413 = ORIENTED_EDGE ( 'NONE', *, *, #1016, .T. ) ;
#414 = AXIS2_PLACEMENT_3D ( 'NONE', #682, #870, #371 ) ;
#415 = EDGE_CURVE ( 'NONE', #1185, #736, #1124, .T. ) ;
#416 = DIRECTION ( 'NONE',  ( -1.734723475976807587E-16, 0.000000000000000000, 1.000000000000000000 ) ) ;
#417 = EDGE_CURVE ( 'NONE', #1113, #1194, #1099, .T. ) ;
#418 = CARTESIAN_POINT ( 'NONE',  ( -0.9547500000000000986, 0.05024999999999994749, -0.6249999999999998890 ) ) ;
#419 = ORIENTED_EDGE ( 'NONE', *, *, #1044, .F. ) ;
#420 = EDGE_CURVE ( 'NONE', #90, #481, #821, .T. ) ;
#421 = VERTEX_POINT ( 'NONE', #159 ) ;
#422 = DIRECTION ( 'NONE',  ( -1.000000000000000000, -0.000000000000000000, 8.673617379884039170E-17 ) ) ;
#423 = AXIS2_PLACEMENT_3D ( 'NONE', #309, #499, #504 ) ;
#424 = CIRCLE ( 'NONE', #272, 0.05024999999999994749 ) ;
#425 = ORIENTED_EDGE ( 'NONE', *, *, #469, .T. ) ;
#426 = AXIS2_PLACEMENT_3D ( 'NONE', #1127, #753, #169 ) ;
#427 = EDGE_CURVE ( 'NONE', #11, #1261, #826, .T. ) ;
#428 = DIRECTION ( 'NONE',  ( -1.000000000000000000, 0.000000000000000000, 0.000000000000000000 ) ) ;
#429 = FACE_OUTER_BOUND ( 'NONE', #312, .T. ) ;
#430 = ORIENTED_EDGE ( 'NONE', *, *, #1092, .T. ) ;
#431 = AXIS2_PLACEMENT_3D ( 'NONE', #838, #336, #428 ) ;
#432 =( GEOMETRIC_REPRESENTATION_CONTEXT ( 3 ) GLOBAL_UNCERTAINTY_ASSIGNED_CONTEXT ( ( #505 ) ) GLOBAL_UNIT_ASSIGNED_CONTEXT ( ( #940, #347, #1272 ) ) REPRESENTATION_CONTEXT ( 'NONE', 'WORKASPACE' ) );
#433 = CARTESIAN_POINT ( 'NONE',  ( -0.5049999999999997824, 0.05024999999999994749, 0.5747499999999997611 ) ) ;
#434 = FACE_OUTER_BOUND ( 'NONE', #792, .T. ) ;
#435 = DIRECTION ( 'NONE',  ( 1.000000000000000000, 0.000000000000000000, 1.734723475976807587E-16 ) ) ;
#436 =( NAMED_UNIT ( * ) PLANE_ANGLE_UNIT ( ) SI_UNIT ( $, .RADIAN. ) );
#437 = AXIS2_PLACEMENT_3D ( 'NONE', #1262, #388, #853 ) ;
#438 = DIRECTION ( 'NONE',  ( 0.000000000000000000, -0.000000000000000000, 1.000000000000000000 ) ) ;
#439 = VERTEX_POINT ( 'NONE', #1008 ) ;
#440 = DIRECTION ( 'NONE',  ( 0.000000000000000000, 0.000000000000000000, 1.000000000000000000 ) ) ;
#441 = CARTESIAN_POINT ( 'NONE',  ( -1.004999999999999893, 1.000000000000000000, 0.6249999999999996669 ) ) ;
#442 = DIRECTION ( 'NONE',  ( -1.000000000000000000, -0.000000000000000000, -0.000000000000000000 ) ) ;
#443 = VECTOR ( 'NONE', #755, 1000.000000000000000 ) ;
#444 = CARTESIAN_POINT ( 'NONE',  ( 500000.0000000000582, 0.9497500000000000941, -0.5747500000433679590 ) ) ;
#445 = ORIENTED_EDGE ( 'NONE', *, *, #1170, .F. ) ;
#446 = DIRECTION ( 'NONE',  ( -1.000000000000000000, 0.000000000000000000, 0.000000000000000000 ) ) ;
#447 = DIRECTION ( 'NONE',  ( 1.000000000000000000, 0.000000000000000000, 1.734723475976807587E-16 ) ) ;
#448 = CARTESIAN_POINT ( 'NONE',  ( 0.000000000000000000, 0.000000000000000000, 0.5747499999999997611 ) ) ;
#449 = EDGE_CURVE ( 'NONE', #302, #754, #643, .T. ) ;
#450 = CARTESIAN_POINT ( 'NONE',  ( -0.5050000000000000044, 0.05024999999999994749, -0.6249999999999998890 ) ) ;
#451 = ORIENTED_EDGE ( 'NONE', *, *, #698, .T. ) ;
#452 = FILL_AREA_STYLE_COLOUR ( '', #1199 ) ;
#453 = EDGE_CURVE ( 'NONE', #176, #595, #1131, .T. ) ;
#454 = DIRECTION ( 'NONE',  ( 1.000000000000000000, 0.000000000000000000, 0.000000000000000000 ) ) ;
#455 = ADVANCED_FACE ( 'NONE', ( #48 ), #265, .T. ) ;
#456 = CARTESIAN_POINT ( 'NONE',  ( 1.005000000000000115, 0.05024999999999994749, -0.5747499999999999831 ) ) ;
#457 = EDGE_LOOP ( 'NONE', ( #1066, #975, #222, #181 ) ) ;
#458 = ADVANCED_FACE ( 'NONE', ( #833 ), #330, .T. ) ;
#459 = CARTESIAN_POINT ( 'NONE',  ( 500000.0000000000582, 0.01674999999999999753, -0.5747500000433679590 ) ) ;
#460 = ORIENTED_EDGE ( 'NONE', *, *, #337, .F. ) ;
#461 = FACE_OUTER_BOUND ( 'NONE', #31, .T. ) ;
#462 = ADVANCED_FACE ( 'NONE', ( #1027 ), #1116, .T. ) ;
#463 = EDGE_CURVE ( 'NONE', #421, #350, #751, .T. ) ;
#464 = DIRECTION ( 'NONE',  ( 1.000000000000000000, -0.000000000000000000, -1.734723475976807587E-16 ) ) ;
#465 = DIRECTION ( 'NONE',  ( -1.000000000000000000, 0.000000000000000000, 0.000000000000000000 ) ) ;
#466 = ORIENTED_EDGE ( 'NONE', *, *, #1044, .T. ) ;
#467 = ORIENTED_EDGE ( 'NONE', *, *, #919, .F. ) ;
#468 = VECTOR ( 'NONE', #793, 1000.000000000000000 ) ;
#469 = EDGE_CURVE ( 'NONE', #754, #1178, #768, .T. ) ;
#470 = CARTESIAN_POINT ( 'NONE',  ( 0.9547500000000000986, 1.000000000000000000, -0.5747499999999999831 ) ) ;
#471 = ADVANCED_FACE ( 'NONE', ( #520 ), #237, .T. ) ;
#472 = FACE_OUTER_BOUND ( 'NONE', #486, .T. ) ;
#473 = LINE ( 'NONE', #719, #952 ) ;
#474 = VERTEX_POINT ( 'NONE', #524 ) ;
#475 = CARTESIAN_POINT ( 'NONE',  ( -1.004999999999999893, 0.05024999999999994749, 0.5747499999999997611 ) ) ;
#476 = AXIS2_PLACEMENT_3D ( 'NONE', #985, #887, #409 ) ;
#477 = FACE_OUTER_BOUND ( 'NONE', #807, .T. ) ;
#478 = CARTESIAN_POINT ( 'NONE',  ( 1.005000000000000115, 0.9497500000000000941, -0.5747499999999999831 ) ) ;
#479 = VERTEX_POINT ( 'NONE', #914 ) ;
#480 = DIRECTION ( 'NONE',  ( 1.000000000000000000, 0.000000000000000000, 0.000000000000000000 ) ) ;
#481 = VERTEX_POINT ( 'NONE', #1022 ) ;
#482 = LINE ( 'NONE', #857, #780 ) ;
#483 = CYLINDRICAL_SURFACE ( 'NONE', #414, 0.05025000000000005851 ) ;
#484 = ORIENTED_EDGE ( 'NONE', *, *, #652, .F. ) ;
#485 = CARTESIAN_POINT ( 'NONE',  ( 500000.0000000000582, 0.9497500000000000941, 0.6082499999566316484 ) ) ;
#486 = EDGE_LOOP ( 'NONE', ( #113, #373, #889, #356 ) ) ;
#487 = PLANE ( 'NONE',  #1200 ) ;
#488 = CIRCLE ( 'NONE', #306, 0.05024999999999994749 ) ;
#489 = AXIS2_PLACEMENT_3D ( 'NONE', #750, #926, #961 ) ;
#490 = VERTEX_POINT ( 'NONE', #27 ) ;
#491 = CARTESIAN_POINT ( 'NONE',  ( 1.004999999999999893, 0.05024999999999994749, 0.5747499999999997611 ) ) ;
#492 = AXIS2_PLACEMENT_3D ( 'NONE', #51, #121, #133 ) ;
#493 = ORIENTED_EDGE ( 'NONE', *, *, #695, .T. ) ;
#494 = CARTESIAN_POINT ( 'NONE',  ( -1.005000000000000115, 0.9497500000000000941, -0.5747499999999999831 ) ) ;
#495 = EDGE_LOOP ( 'NONE', ( #611, #203, #282, #157, #565, #425, #529, #1246 ) ) ;
#496 = CARTESIAN_POINT ( 'NONE',  ( 0.5050000000000000044, 1.000000000000000000, -0.5747499999999999831 ) ) ;
#497 = AXIS2_PLACEMENT_3D ( 'NONE', #813, #1004, #1216 ) ;
#498 = ORIENTED_EDGE ( 'NONE', *, *, #633, .T. ) ;
#499 = DIRECTION ( 'NONE',  ( 1.000000000000000000, 0.000000000000000000, 1.734723475976807587E-16 ) ) ;
#500 = VECTOR ( 'NONE', #280, 1000.000000000000000 ) ;
#501 = VERTEX_POINT ( 'NONE', #1108 ) ;
#502 = CARTESIAN_POINT ( 'NONE',  ( -0.9547500000000000986, 1.000000000000000000, -0.5747499999999999831 ) ) ;
#503 = ORIENTED_EDGE ( 'NONE', *, *, #696, .T. ) ;
#504 = DIRECTION ( 'NONE',  ( -1.734723475976807587E-16, 0.000000000000000000, 1.000000000000000000 ) ) ;
#505 = UNCERTAINTY_MEASURE_WITH_UNIT (LENGTH_MEASURE( 1.000000000000000082E-05 ), #940, 'distance_accuracy_value', 'NONE');
#506 = EDGE_LOOP ( 'NONE', ( #61, #1159, #98, #108 ) ) ;
#507 = CIRCLE ( 'NONE', #489, 0.05024999999999994749 ) ;
#508 = EDGE_LOOP ( 'NONE', ( #715, #314, #816 ) ) ;
#509 = DIRECTION ( 'NONE',  ( 1.734723475976807587E-16, 0.000000000000000000, -1.000000000000000000 ) ) ;
#510 = EDGE_LOOP ( 'NONE', ( #588, #911, #1220, #1175 ) ) ;
#511 = CARTESIAN_POINT ( 'NONE',  ( 0.9547500000000000986, 1.000000000000000000, -0.6249999999999998890 ) ) ;
#512 = ORIENTED_EDGE ( 'NONE', *, *, #101, .T. ) ;
#513 = ADVANCED_FACE ( 'NONE', ( #820 ), #153, .F. ) ;
#514 = STYLED_ITEM ( 'NONE', ( #639 ), #57 ) ;
#515 = ORIENTED_EDGE ( 'NONE', *, *, #570, .F. ) ;
#516 = CARTESIAN_POINT ( 'NONE',  ( 0.9547500000000000986, 1.000000000000000000, -0.5747499999999999831 ) ) ;
#517 = VERTEX_POINT ( 'NONE', #941 ) ;
#518 = DIRECTION ( 'NONE',  ( 1.734723475976807587E-16, -0.000000000000000000, -1.000000000000000000 ) ) ;
#519 = VECTOR ( 'NONE', #1057, 1000.000000000000000 ) ;
#520 = FACE_OUTER_BOUND ( 'NONE', #866, .T. ) ;
#521 = SURFACE_SIDE_STYLE ('',( #1009 ) ) ;
#522 = ORIENTED_EDGE ( 'NONE', *, *, #1076, .T. ) ;
#523 = DIRECTION ( 'NONE',  ( 0.000000000000000000, 0.000000000000000000, 1.000000000000000000 ) ) ;
#524 = CARTESIAN_POINT ( 'NONE',  ( 0.5050000000000000044, 0.05024999999999994749, -0.6249999999999998890 ) ) ;
#525 = AXIS2_PLACEMENT_3D ( 'NONE', #703, #599, #3 ) ;
#526 = DIRECTION ( 'NONE',  ( -1.000000000000000000, 0.000000000000000000, 0.000000000000000000 ) ) ;
#527 = DIRECTION ( 'NONE',  ( 0.000000000000000000, 0.000000000000000000, -1.000000000000000000 ) ) ;
#528 = DIRECTION ( 'NONE',  ( 8.673617379884037937E-17, 1.205338713157870319E-16, 1.000000000000000000 ) ) ;
#529 = ORIENTED_EDGE ( 'NONE', *, *, #32, .T. ) ;
#530 = FILL_AREA_STYLE ('',( #452 ) ) ;
#531 = DIRECTION ( 'NONE',  ( -1.000000000000000000, 0.000000000000000000, -0.000000000000000000 ) ) ;
#532 = CARTESIAN_POINT ( 'NONE',  ( -1.005000000000000115, 0.05024999999999994749, -0.6249999999999998890 ) ) ;
#533 = ORIENTED_EDGE ( 'NONE', *, *, #6, .T. ) ;
#534 = DIRECTION ( 'NONE',  ( 0.000000000000000000, 0.000000000000000000, -1.000000000000000000 ) ) ;
#535 = AXIS2_PLACEMENT_3D ( 'NONE', #89, #584, #864 ) ;
#536 = DIRECTION ( 'NONE',  ( 1.000000000000000000, 0.000000000000000000, -0.000000000000000000 ) ) ;
#537 = DIRECTION ( 'NONE',  ( 0.000000000000000000, -1.000000000000000000, 0.000000000000000000 ) ) ;
#538 = DIRECTION ( 'NONE',  ( -1.000000000000000000, 0.000000000000000000, 0.000000000000000000 ) ) ;
#539 = FACE_OUTER_BOUND ( 'NONE', #1142, .T. ) ;
#540 = CARTESIAN_POINT ( 'NONE',  ( 0.000000000000000000, 0.000000000000000000, 0.000000000000000000 ) ) ;
#541 = ORIENTED_EDGE ( 'NONE', *, *, #708, .F. ) ;
#542 = SPHERICAL_SURFACE ( 'NONE', #934, 0.05024999999999999606 ) ;
#543 = DIRECTION ( 'NONE',  ( 1.000000000000000000, -0.000000000000000000, 0.000000000000000000 ) ) ;
#544 = CARTESIAN_POINT ( 'NONE',  ( 0.9547500000000000986, 0.05024999999999994749, -0.6249999999999998890 ) ) ;
#545 = CIRCLE ( 'NONE', #208, 0.03350000000000000200 ) ;
#546 = DIRECTION ( 'NONE',  ( 0.000000000000000000, 1.000000000000000000, 0.000000000000000000 ) ) ;
#547 = ORIENTED_EDGE ( 'NONE', *, *, #325, .F. ) ;
#548 = SURFACE_SIDE_STYLE ('',( #917 ) ) ;
#549 = EDGE_CURVE ( 'NONE', #1132, #953, #172, .T. ) ;
#550 = EDGE_CURVE ( 'NONE', #953, #903, #647, .T. ) ;
#551 = AXIS2_PLACEMENT_3D ( 'NONE', #1019, #349, #1212 ) ;
#552 = DIRECTION ( 'NONE',  ( 0.000000000000000000, -0.000000000000000000, -1.000000000000000000 ) ) ;
#553 = ADVANCED_FACE ( 'NONE', ( #1143 ), #915, .T. ) ;
#554 = EDGE_CURVE ( 'NONE', #1020, #903, #274, .T. ) ;
#555 = ORIENTED_EDGE ( 'NONE', *, *, #240, .T. ) ;
#556 = LINE ( 'NONE', #748, #228 ) ;
#557 = EDGE_LOOP ( 'NONE', ( #327, #129, #484 ) ) ;
#558 = CARTESIAN_POINT ( 'NONE',  ( 0.9547500000000000986, 0.05024999999999994749, -0.6249999999999998890 ) ) ;
#559 = VECTOR ( 'NONE', #1018, 1000.000000000000000 ) ;
#560 = VECTOR ( 'NONE', #537, 1000.000000000000000 ) ;
#561 = SHAPE_DEFINITION_REPRESENTATION ( #1147, #618 ) ;
#562 = CIRCLE ( 'NONE', #731, 0.05024999999999994749 ) ;
#563 = CARTESIAN_POINT ( 'NONE',  ( -0.9547500000000000986, 0.000000000000000000, -0.5747499999999999831 ) ) ;
#564 = FACE_OUTER_BOUND ( 'NONE', #508, .T. ) ;
#565 = ORIENTED_EDGE ( 'NONE', *, *, #663, .F. ) ;
#566 = ORIENTED_EDGE ( 'NONE', *, *, #6, .F. ) ;
#567 = EDGE_CURVE ( 'NONE', #276, #846, #1134, .T. ) ;
#568 = CARTESIAN_POINT ( 'NONE',  ( 0.9547500000000000986, 0.9497500000000000941, -0.5747499999999999831 ) ) ;
#569 = AXIS2_PLACEMENT_3D ( 'NONE', #1179, #207, #716 ) ;
#570 = EDGE_CURVE ( 'NONE', #490, #1132, #104, .T. ) ;
#571 = CARTESIAN_POINT ( 'NONE',  ( 0.5049999999999997824, 0.9497500000000000941, 0.6249999999999996669 ) ) ;
#572 = DIRECTION ( 'NONE',  ( 1.000000000000000000, 0.000000000000000000, 1.734723475976807587E-16 ) ) ;
#573 = ORIENTED_EDGE ( 'NONE', *, *, #116, .T. ) ;
#574 = ORIENTED_EDGE ( 'NONE', *, *, #741, .F. ) ;
#575 = AXIS2_PLACEMENT_3D ( 'NONE', #1250, #365, #971 ) ;
#576 = LINE ( 'NONE', #288, #1033 ) ;
#577 = CARTESIAN_POINT ( 'NONE',  ( 0.5050000000000000044, 1.000000000000000000, -0.6249999999999998890 ) ) ;
#578 = PLANE ( 'NONE',  #339 ) ;
#579 = VERTEX_POINT ( 'NONE', #1029 ) ;
#580 = EDGE_LOOP ( 'NONE', ( #749, #717, #1168, #1181 ) ) ;
#581 = CARTESIAN_POINT ( 'NONE',  ( -0.9547499999999998765, 0.000000000000000000, 0.5747499999999997611 ) ) ;
#582 = CLOSED_SHELL ( 'NONE', ( #295, #1011, #724, #375, #594, #598, #1235, #1232, #273, #830, #1034, #462, #458, #64, #1000, #964, #455, #1269 ) ) ;
#583 = AXIS2_PLACEMENT_3D ( 'NONE', #307, #1173, #303 ) ;
#584 = DIRECTION ( 'NONE',  ( 0.000000000000000000, -1.000000000000000000, 0.000000000000000000 ) ) ;
#585 = VECTOR ( 'NONE', #950, 1000.000000000000000 ) ;
#586 = DIRECTION ( 'NONE',  ( -1.734723475976807587E-16, -0.000000000000000000, -1.000000000000000000 ) ) ;
#587 = ORIENTED_EDGE ( 'NONE', *, *, #992, .F. ) ;
#588 = ORIENTED_EDGE ( 'NONE', *, *, #701, .F. ) ;
#589 = ORIENTED_EDGE ( 'NONE', *, *, #795, .F. ) ;
#590 = CARTESIAN_POINT ( 'NONE',  ( -0.9547500000000000986, 1.000000000000000000, -0.6249999999999998890 ) ) ;
#591 = LINE ( 'NONE', #707, #311 ) ;
#592 = CARTESIAN_POINT ( 'NONE',  ( 1.004999999999999893, 0.05024999999999994749, 0.6249999999999996669 ) ) ;
#593 = AXIS2_PLACEMENT_3D ( 'NONE', #252, #1021, #151 ) ;
#594 = ADVANCED_FACE ( 'NONE', ( #931 ), #735, .T. ) ;
#595 = VERTEX_POINT ( 'NONE', #450 ) ;
#596 = FACE_OUTER_BOUND ( 'NONE', #506, .T. ) ;
#597 = AXIS2_PLACEMENT_3D ( 'NONE', #936, #626, #1112 ) ;
#598 = ADVANCED_FACE ( 'NONE', ( #54 ), #1036, .F. ) ;
#599 = DIRECTION ( 'NONE',  ( 1.000000000000000000, -0.000000000000000000, -1.734723475976807587E-16 ) ) ;
#600 = EDGE_CURVE ( 'NONE', #501, #11, #982, .T. ) ;
#601 = ORIENTED_EDGE ( 'NONE', *, *, #695, .F. ) ;
#602 = DIRECTION ( 'NONE',  ( 0.000000000000000000, 0.000000000000000000, 1.000000000000000000 ) ) ;
#603 = AXIS2_PLACEMENT_3D ( 'NONE', #1228, #245, #725 ) ;
#604 = CIRCLE ( 'NONE', #1252, 0.05024999999999994749 ) ;
#605 = ADVANCED_FACE ( 'NONE', ( #1239 ), #760, .F. ) ;
#606 = AXIS2_PLACEMENT_3D ( 'NONE', #1245, #366, #784 ) ;
#607 = ORIENTED_EDGE ( 'NONE', *, *, #1275, .T. ) ;
#608 = DIRECTION ( 'NONE',  ( 0.000000000000000000, 0.000000000000000000, -1.000000000000000000 ) ) ;
#609 = DIRECTION ( 'NONE',  ( 0.000000000000000000, 0.000000000000000000, 1.000000000000000000 ) ) ;
#610 = ORIENTED_EDGE ( 'NONE', *, *, #851, .F. ) ;
#611 = ORIENTED_EDGE ( 'NONE', *, *, #326, .T. ) ;
#612 = PRESENTATION_LAYER_ASSIGNMENT (  '', '', ( #205 ) ) ;
#613 = ORIENTED_EDGE ( 'NONE', *, *, #1135, .F. ) ;
#614 = CARTESIAN_POINT ( 'NONE',  ( 0.5050000000892396201, 0.01674999999999999753, -0.5747499999999998721 ) ) ;
#615 = CARTESIAN_POINT ( 'NONE',  ( 500000.0000000000582, 0.9497500000000000941, -0.6082500000433679332 ) ) ;
#616 = ORIENTED_EDGE ( 'NONE', *, *, #1138, .T. ) ;
#617 = FACE_OUTER_BOUND ( 'NONE', #182, .T. ) ;
#618 = ADVANCED_BREP_SHAPE_REPRESENTATION ( 'KGMq220242.011.2510.5', ( #904, #76, #57, #1154 ), #111 ) ;
#619 = CARTESIAN_POINT ( 'NONE',  ( 500000.0000000000582, 0.9497500000000000941, 0.5747499999566317852 ) ) ;
#620 = VECTOR ( 'NONE', #691, 1000.000000000000000 ) ;
#621 = LINE ( 'NONE', #448, #81 ) ;
#622 = CARTESIAN_POINT ( 'NONE',  ( -0.9547499999999998765, 1.000000000000000000, 0.5747499999999997611 ) ) ;
#623 = LINE ( 'NONE', #138, #8 ) ;
#624 = VECTOR ( 'NONE', #1091, 1000.000000000000000 ) ;
#625 = DIRECTION ( 'NONE',  ( 0.000000000000000000, 1.000000000000000000, 0.000000000000000000 ) ) ;
#626 = DIRECTION ( 'NONE',  ( -0.000000000000000000, -0.000000000000000000, -1.000000000000000000 ) ) ;
#627 = EDGE_LOOP ( 'NONE', ( #925, #345, #286, #766, #194, #856, #1155, #803 ) ) ;
#628 = FACE_OUTER_BOUND ( 'NONE', #672, .T. ) ;
#629 = DIRECTION ( 'NONE',  ( 1.000000000000000000, -0.000000000000000000, -1.734723475976807587E-16 ) ) ;
#630 = CARTESIAN_POINT ( 'NONE',  ( 0.9547499999999998765, 1.000000000000000000, 0.5747499999999997611 ) ) ;
#631 =( NAMED_UNIT ( * ) SI_UNIT ( $, .STERADIAN. ) SOLID_ANGLE_UNIT ( ) );
#632 = CARTESIAN_POINT ( 'NONE',  ( -0.5050000000000000044, 1.000000000000000000, -0.6249999999999998890 ) ) ;
#633 = EDGE_CURVE ( 'NONE', #1074, #954, #1097, .T. ) ;
#634 = ORIENTED_EDGE ( 'NONE', *, *, #706, .F. ) ;
#635 = FACE_OUTER_BOUND ( 'NONE', #495, .T. ) ;
#636 = DIRECTION ( 'NONE',  ( 0.000000000000000000, 0.000000000000000000, 1.000000000000000000 ) ) ;
#637 = CARTESIAN_POINT ( 'NONE',  ( 1.005000000000000115, 1.000000000000000000, -0.5747499999999999831 ) ) ;
#638 = VECTOR ( 'NONE', #155, 1000.000000000000000 ) ;
#639 = PRESENTATION_STYLE_ASSIGNMENT (( #645 ) ) ;
#640 = DIRECTION ( 'NONE',  ( 0.000000000000000000, 0.000000000000000000, 1.000000000000000000 ) ) ;
#641 = ORIENTED_EDGE ( 'NONE', *, *, #1190, .T. ) ;
#642 = CYLINDRICAL_SURFACE ( 'NONE', #658, 0.03349999999999989098 ) ;
#643 = LINE ( 'NONE', #1202, #790 ) ;
#644 = CARTESIAN_POINT ( 'NONE',  ( 0.9547500000000000986, 0.05024999999999999606, -0.5747499999999999831 ) ) ;
#645 = SURFACE_STYLE_USAGE ( .BOTH. , #521 ) ;
#646 = ADVANCED_FACE ( 'NONE', ( #429 ), #156, .T. ) ;
#647 = LINE ( 'NONE', #532, #333 ) ;
#648 = EDGE_CURVE ( 'NONE', #678, #84, #556, .T. ) ;
#649 = VERTEX_POINT ( 'NONE', #823 ) ;
#650 = CARTESIAN_POINT ( 'NONE',  ( 500000.0000000000582, 0.05024999999999994749, 0.5747499999566317852 ) ) ;
#651 = PRESENTATION_STYLE_ASSIGNMENT (( #1174 ) ) ;
#652 = EDGE_CURVE ( 'NONE', #1264, #713, #815, .T. ) ;
#653 = DIRECTION ( 'NONE',  ( -8.673617379884037937E-17, -1.205338713157870319E-16, -1.000000000000000000 ) ) ;
#654 = APPLICATION_PROTOCOL_DEFINITION ( 'draft international standard', 'automotive_design', 1998, #1103 ) ;
#655 = DIRECTION ( 'NONE',  ( 0.000000000000000000, 0.000000000000000000, 1.000000000000000000 ) ) ;
#656 = VECTOR ( 'NONE', #45, 1000.000000000000000 ) ;
#657 = ORIENTED_EDGE ( 'NONE', *, *, #1040, .T. ) ;
#658 = AXIS2_PLACEMENT_3D ( 'NONE', #844, #1026, #523 ) ;
#659 = DIRECTION ( 'NONE',  ( 0.000000000000000000, 1.000000000000000000, 0.000000000000000000 ) ) ;
#660 = ORIENTED_EDGE ( 'NONE', *, *, #32, .F. ) ;
#661 = CARTESIAN_POINT ( 'NONE',  ( 1.005000000000000115, 0.05024999999999994749, -0.6249999999999998890 ) ) ;
#662 = CARTESIAN_POINT ( 'NONE',  ( -0.5049999999999998934, 0.9832499999999999574, -0.5747499999999998721 ) ) ;
#663 = EDGE_CURVE ( 'NONE', #754, #788, #250, .T. ) ;
#664 = ADVANCED_FACE ( 'NONE', ( #831 ), #924, .F. ) ;
#665 = ORIENTED_EDGE ( 'NONE', *, *, #469, .F. ) ;
#666 = AXIS2_PLACEMENT_3D ( 'NONE', #906, #744, #536 ) ;
#667 = AXIS2_PLACEMENT_3D ( 'NONE', #300, #770, #1075 ) ;
#668 = CIRCLE ( 'NONE', #583, 0.05024999999999994749 ) ;
#669 = FACE_OUTER_BOUND ( 'NONE', #457, .T. ) ;
#670 = CARTESIAN_POINT ( 'NONE',  ( -0.9547499999999998765, 0.05024999999999999606, 0.5747499999999997611 ) ) ;
#671 = EDGE_LOOP ( 'NONE', ( #574, #832, #319, #162 ) ) ;
#672 = EDGE_LOOP ( 'NONE', ( #287, #1106, #1163 ) ) ;
#673 = DIRECTION ( 'NONE',  ( 0.000000000000000000, -1.000000000000000000, 1.205338713157870319E-16 ) ) ;
#674 = LINE ( 'NONE', #290, #1101 ) ;
#675 = CARTESIAN_POINT ( 'NONE',  ( -0.5049999999999998934, 0.9497500000000000941, -0.6082499999999998463 ) ) ;
#676 = ORIENTED_EDGE ( 'NONE', *, *, #449, .F. ) ;
#677 = CYLINDRICAL_SURFACE ( 'NONE', #1266, 0.05024999999999994749 ) ;
#678 = VERTEX_POINT ( 'NONE', #1120 ) ;
#679 = VECTOR ( 'NONE', #271, 1000.000000000000000 ) ;
#680 = LINE ( 'NONE', #362, #679 ) ;
#681 = FACE_OUTER_BOUND ( 'NONE', #1093, .T. ) ;
#682 = CARTESIAN_POINT ( 'NONE',  ( -0.9547499999999999876, 0.9497500000000000941, 1.656227238688856968E-16 ) ) ;
#683 = CARTESIAN_POINT ( 'NONE',  ( -0.5050000000000000044, 0.9497500000000000941, -0.6249999999999998890 ) ) ;
#684 = EDGE_LOOP ( 'NONE', ( #587, #1251, #634, #150 ) ) ;
#685 = ORIENTED_EDGE ( 'NONE', *, *, #869, .T. ) ;
#686 = CARTESIAN_POINT ( 'NONE',  ( 0.000000000000000000, 1.000000000000000000, 0.000000000000000000 ) ) ;
#687 = CLOSED_SHELL ( 'NONE', ( #152, #408, #918, #398, #956, #1152, #321, #798, #968, #471, #136, #688, #1133, #1218, #689, #907, #553, #1130 ) ) ;
#688 = ADVANCED_FACE ( 'NONE', ( #1219 ), #677, .T. ) ;
#689 = ADVANCED_FACE ( 'NONE', ( #539 ), #929, .T. ) ;
#690 = MECHANICAL_DESIGN_GEOMETRIC_PRESENTATION_REPRESENTATION (  '', ( #946 ), #134 ) ;
#691 = DIRECTION ( 'NONE',  ( 1.000000000000000000, -0.000000000000000000, -0.000000000000000000 ) ) ;
#692 = FILL_AREA_STYLE_COLOUR ( '', #902 ) ;
#693 = ORIENTED_EDGE ( 'NONE', *, *, #1084, .T. ) ;
#694 = PLANE ( 'NONE',  #423 ) ;
#695 = EDGE_CURVE ( 'NONE', #1087, #501, #328, .T. ) ;
#696 = EDGE_CURVE ( 'NONE', #401, #256, #912, .T. ) ;
#697 = DIRECTION ( 'NONE',  ( -8.673617379884036705E-17, 0.000000000000000000, -1.000000000000000000 ) ) ;
#698 = EDGE_CURVE ( 'NONE', #501, #1113, #881, .T. ) ;
#699 = ORIENTED_EDGE ( 'NONE', *, *, #1150, .F. ) ;
#700 = DIRECTION ( 'NONE',  ( -1.000000000000000000, -0.000000000000000000, 8.673617379884039170E-17 ) ) ;
#701 = EDGE_CURVE ( 'NONE', #1087, #867, #10, .T. ) ;
#702 = DIRECTION ( 'NONE',  ( -1.000000000000000000, -0.000000000000000000, 8.673617379884039170E-17 ) ) ;
#703 = CARTESIAN_POINT ( 'NONE',  ( -0.5050000000000000044, 0.9497500000000000941, -0.5747499999999999831 ) ) ;
#704 = VECTOR ( 'NONE', #1129, 1000.000000000000000 ) ;
#705 = PLANE ( 'NONE',  #33 ) ;
#706 = EDGE_CURVE ( 'NONE', #948, #649, #981, .T. ) ;
#707 = CARTESIAN_POINT ( 'NONE',  ( 500000.0000000000582, 0.05024999999999994749, -0.6082500000433678222 ) ) ;
#708 = EDGE_CURVE ( 'NONE', #932, #837, #789, .T. ) ;
#709 = ORIENTED_EDGE ( 'NONE', *, *, #1045, .T. ) ;
#710 = ORIENTED_EDGE ( 'NONE', *, *, #554, .T. ) ;
#711 = CYLINDRICAL_SURFACE ( 'NONE', #335, 0.05024999999999994749 ) ;
#712 = ORIENTED_EDGE ( 'NONE', *, *, #1102, .T. ) ;
#713 = VERTEX_POINT ( 'NONE', #1195 ) ;
#714 = ORIENTED_EDGE ( 'NONE', *, *, #24, .F. ) ;
#715 = ORIENTED_EDGE ( 'NONE', *, *, #231, .T. ) ;
#716 = DIRECTION ( 'NONE',  ( 0.000000000000000000, 0.000000000000000000, 1.000000000000000000 ) ) ;
#717 = ORIENTED_EDGE ( 'NONE', *, *, #463, .T. ) ;
#718 = VECTOR ( 'NONE', #343, 1000.000000000000000 ) ;
#719 = CARTESIAN_POINT ( 'NONE',  ( 0.9547499999999998765, 1.000000000000000000, 0.6249999999999996669 ) ) ;
#720 = CYLINDRICAL_SURFACE ( 'NONE', #173, 0.05024999999999994749 ) ;
#721 = PRESENTATION_STYLE_ASSIGNMENT (( #254 ) ) ;
#722 = AXIS2_PLACEMENT_3D ( 'NONE', #37, #659, #438 ) ;
#723 = LINE ( 'NONE', #351, #704 ) ;
#724 = ADVANCED_FACE ( 'NONE', ( #299 ), #694, .F. ) ;
#725 = DIRECTION ( 'NONE',  ( 1.000000000000000000, 0.000000000000000000, 1.734723475976805862E-16 ) ) ;
#726 = AXIS2_PLACEMENT_3D ( 'NONE', #342, #135, #636 ) ;
#727 =( LENGTH_UNIT ( ) NAMED_UNIT ( * ) SI_UNIT ( .MILLI., .METRE. ) );
#728 = AXIS2_PLACEMENT_3D ( 'NONE', #67, #296, #859 ) ;
#729 = DIRECTION ( 'NONE',  ( 0.000000000000000000, -1.000000000000000000, 0.000000000000000000 ) ) ;
#730 = EDGE_LOOP ( 'NONE', ( #1279, #332, #493, #451 ) ) ;
#731 = AXIS2_PLACEMENT_3D ( 'NONE', #797, #407, #224 ) ;
#732 = CARTESIAN_POINT ( 'NONE',  ( 500000.0000000000582, 0.05024999999999994749, 0.6082499999566317594 ) ) ;
#733 = DIRECTION ( 'NONE',  ( 1.000000000000000000, 0.000000000000000000, 0.000000000000000000 ) ) ;
#734 = DIRECTION ( 'NONE',  ( 1.000000000000000000, 0.000000000000000000, 0.000000000000000000 ) ) ;
#735 = PLANE ( 'NONE',  #50 ) ;
#736 = VERTEX_POINT ( 'NONE', #204 ) ;
#737 = DIRECTION ( 'NONE',  ( 1.734723475976807587E-16, -0.000000000000000000, 1.000000000000000000 ) ) ;
#738 = CIRCLE ( 'NONE', #959, 0.05024999999999994749 ) ;
#739 = CARTESIAN_POINT ( 'NONE',  ( 0.000000000000000000, 0.000000000000000000, -0.5747499999999999831 ) ) ;
#740 = DIRECTION ( 'NONE',  ( 0.000000000000000000, 1.000000000000000000, -1.205338713157870319E-16 ) ) ;
#741 = EDGE_CURVE ( 'NONE', #966, #276, #1274, .T. ) ;
#742 = ORIENTED_EDGE ( 'NONE', *, *, #301, .F. ) ;
#743 = SURFACE_STYLE_USAGE ( .BOTH. , #548 ) ;
#744 = DIRECTION ( 'NONE',  ( 0.000000000000000000, 0.000000000000000000, 1.000000000000000000 ) ) ;
#745 = CARTESIAN_POINT ( 'NONE',  ( -0.9547499999999998765, 0.05024999999999994749, 0.6249999999999996669 ) ) ;
#746 = CARTESIAN_POINT ( 'NONE',  ( -0.9547499999999998765, 0.9497500000000000941, 0.5747499999999997611 ) ) ;
#747 = VECTOR ( 'NONE', #187, 1000.000000000000000 ) ;
#748 = CARTESIAN_POINT ( 'NONE',  ( -0.5049999999999998934, 0.05024999999999995443, -0.6082499999999997353 ) ) ;
#749 = ORIENTED_EDGE ( 'NONE', *, *, #211, .F. ) ;
#750 = CARTESIAN_POINT ( 'NONE',  ( 0.5050000000000000044, 0.05024999999999994749, -0.5747499999999999831 ) ) ;
#751 = LINE ( 'NONE', #732, #1277 ) ;
#752 = DIRECTION ( 'NONE',  ( -0.000000000000000000, 0.000000000000000000, -1.000000000000000000 ) ) ;
#753 = DIRECTION ( 'NONE',  ( 1.000000000000000000, 0.000000000000000000, -8.673617379884036705E-17 ) ) ;
#754 = VERTEX_POINT ( 'NONE', #892 ) ;
#755 = DIRECTION ( 'NONE',  ( 1.000000000000000000, 0.000000000000000000, 0.000000000000000000 ) ) ;
#756 = DIRECTION ( 'NONE',  ( -1.734723475976807587E-16, 0.000000000000000000, -1.000000000000000000 ) ) ;
#757 = VECTOR ( 'NONE', #315, 1000.000000000000000 ) ;
#758 = ORIENTED_EDGE ( 'NONE', *, *, #46, .F. ) ;
#759 = AXIS2_PLACEMENT_3D ( 'NONE', #1118, #538, #353 ) ;
#760 = PLANE ( 'NONE',  #782 ) ;
#761 = ORIENTED_EDGE ( 'NONE', *, *, #786, .F. ) ;
#762 = CARTESIAN_POINT ( 'NONE',  ( 1.005000000000000115, 0.05024999999999994749, -0.5747499999999999831 ) ) ;
#763 = PLANE ( 'NONE',  #216 ) ;
#764 = DIRECTION ( 'NONE',  ( -1.000000000000000000, -0.000000000000000000, -0.000000000000000000 ) ) ;
#765 = VERTEX_POINT ( 'NONE', #888 ) ;
#766 = ORIENTED_EDGE ( 'NONE', *, *, #908, .F. ) ;
#767 = CARTESIAN_POINT ( 'NONE',  ( 0.5049999999999997824, 1.000000000000000000, 0.6249999999999996669 ) ) ;
#768 = CIRCLE ( 'NONE', #726, 0.05024999999999994749 ) ;
#769 = CYLINDRICAL_SURFACE ( 'NONE', #1209, 0.05024999999999994749 ) ;
#770 = DIRECTION ( 'NONE',  ( -1.000000000000000000, -0.000000000000000000, -0.000000000000000000 ) ) ;
#771 = CARTESIAN_POINT ( 'NONE',  ( 0.000000000000000000, 0.000000000000000000, 0.000000000000000000 ) ) ;
#772 = DIRECTION ( 'NONE',  ( 0.000000000000000000, 0.000000000000000000, -1.000000000000000000 ) ) ;
#773 = ORIENTED_EDGE ( 'NONE', *, *, #184, .F. ) ;
#774 = CARTESIAN_POINT ( 'NONE',  ( 0.5050000000892396201, 0.01674999999999997324, 0.5747499999999998721 ) ) ;
#775 = CIRCLE ( 'NONE', #219, 0.03350000000000000200 ) ;
#776 = CARTESIAN_POINT ( 'NONE',  ( -0.5050000000000000044, 0.05024999999999994749, -0.5747499999999999831 ) ) ;
#777 = DIRECTION ( 'NONE',  ( -1.000000000000000000, 0.000000000000000000, -0.000000000000000000 ) ) ;
#778 = ORIENTED_EDGE ( 'NONE', *, *, #415, .T. ) ;
#779 = EDGE_LOOP ( 'NONE', ( #796, #189, #660, #390 ) ) ;
#780 = VECTOR ( 'NONE', #71, 1000.000000000000000 ) ;
#781 = DIRECTION ( 'NONE',  ( 0.000000000000000000, 0.000000000000000000, 1.000000000000000000 ) ) ;
#782 = AXIS2_PLACEMENT_3D ( 'NONE', #143, #528, #355 ) ;
#783 = DIRECTION ( 'NONE',  ( 0.000000000000000000, -0.000000000000000000, 1.000000000000000000 ) ) ;
#784 = DIRECTION ( 'NONE',  ( 0.000000000000000000, 0.000000000000000000, -1.000000000000000000 ) ) ;
#785 = EDGE_CURVE ( 'NONE', #948, #867, #1243, .T. ) ;
#786 = EDGE_CURVE ( 'NONE', #176, #788, #1017, .T. ) ;
#787 = DIRECTION ( 'NONE',  ( 0.000000000000000000, 0.000000000000000000, 1.000000000000000000 ) ) ;
#788 = VERTEX_POINT ( 'NONE', #1188 ) ;
#789 = LINE ( 'NONE', #221, #812 ) ;
#790 = VECTOR ( 'NONE', #543, 1000.000000000000000 ) ;
#791 = DIRECTION ( 'NONE',  ( -1.000000000000000000, 0.000000000000000000, 0.000000000000000000 ) ) ;
#792 = EDGE_LOOP ( 'NONE', ( #466, #778, #804, #396 ) ) ;
#793 = DIRECTION ( 'NONE',  ( 1.734723475976807834E-16, 0.000000000000000000, -1.000000000000000000 ) ) ;
#794 = CIRCLE ( 'NONE', #242, 0.03349999999999989098 ) ;
#795 = EDGE_CURVE ( 'NONE', #579, #479, #142, .T. ) ;
#796 = ORIENTED_EDGE ( 'NONE', *, *, #1180, .T. ) ;
#797 = CARTESIAN_POINT ( 'NONE',  ( -0.9547500000000000986, 0.05024999999999994749, -0.5747499999999999831 ) ) ;
#798 = ADVANCED_FACE ( 'NONE', ( #1105 ), #331, .T. ) ;
#799 = CARTESIAN_POINT ( 'NONE',  ( -1.004999999999999893, 0.9497500000000000941, 0.6249999999999996669 ) ) ;
#800 = VECTOR ( 'NONE', #1060, 1000.000000000000000 ) ;
#801 = EDGE_LOOP ( 'NONE', ( #885, #960, #999, #1053 ) ) ;
#802 = PLANE ( 'NONE',  #666 ) ;
#803 = ORIENTED_EDGE ( 'NONE', *, *, #116, .F. ) ;
#804 = ORIENTED_EDGE ( 'NONE', *, *, #1271, .T. ) ;
#805 = VERTEX_POINT ( 'NONE', #29 ) ;
#806 = DIRECTION ( 'NONE',  ( -1.734723475976807587E-16, -0.000000000000000000, -1.000000000000000000 ) ) ;
#807 = EDGE_LOOP ( 'NONE', ( #44, #144, #555, #916 ) ) ;
#808 = CARTESIAN_POINT ( 'NONE',  ( 1.005000000000000115, 1.000000000000000000, -0.6249999999999998890 ) ) ;
#809 = EDGE_LOOP ( 'NONE', ( #123, #990, #498, #773 ) ) ;
#810 = EDGE_CURVE ( 'NONE', #736, #501, #141, .T. ) ;
#811 = ORIENTED_EDGE ( 'NONE', *, *, #696, .F. ) ;
#812 = VECTOR ( 'NONE', #896, 1000.000000000000000 ) ;
#813 = CARTESIAN_POINT ( 'NONE',  ( 0.000000000000000000, 0.9497500000000000941, -0.5747499999999999831 ) ) ;
#814 = DIRECTION ( 'NONE',  ( -1.734723475976807587E-16, 0.000000000000000000, 1.000000000000000000 ) ) ;
#815 = CIRCLE ( 'NONE', #551, 0.05024999999999994749 ) ;
#816 = ORIENTED_EDGE ( 'NONE', *, *, #554, .F. ) ;
#817 = LINE ( 'NONE', #1206, #996 ) ;
#818 = ADVANCED_FACE ( 'NONE', ( #39 ), #1214, .T. ) ;
#819 =( NAMED_UNIT ( * ) SI_UNIT ( $, .STERADIAN. ) SOLID_ANGLE_UNIT ( ) );
#820 = FACE_OUTER_BOUND ( 'NONE', #1030, .T. ) ;
#821 = CIRCLE ( 'NONE', #279, 0.05024999999999994749 ) ;
#822 = PRESENTATION_LAYER_ASSIGNMENT (  '', '', ( #1126 ) ) ;
#823 = CARTESIAN_POINT ( 'NONE',  ( 0.9547500000000000986, 0.9497500000000000941, -0.6249999999999998890 ) ) ;
#824 = ORIENTED_EDGE ( 'NONE', *, *, #567, .T. ) ;
#825 = DIRECTION ( 'NONE',  ( 1.000000000000000000, 0.000000000000000000, 0.000000000000000000 ) ) ;
#826 = LINE ( 'NONE', #348, #559 ) ;
#827 = CIRCLE ( 'NONE', #178, 0.05024999999999994749 ) ;
#828 = CARTESIAN_POINT ( 'NONE',  ( 0.000000000000000000, 0.9497500000000000941, 0.5747499999999997611 ) ) ;
#829 = DIRECTION ( 'NONE',  ( 0.000000000000000000, 0.000000000000000000, 1.000000000000000000 ) ) ;
#830 = ADVANCED_FACE ( 'NONE', ( #628 ), #1031, .T. ) ;
#831 = FACE_OUTER_BOUND ( 'NONE', #671, .T. ) ;
#832 = ORIENTED_EDGE ( 'NONE', *, *, #235, .T. ) ;
#833 = FACE_OUTER_BOUND ( 'NONE', #120, .T. ) ;
#834 = CIRCLE ( 'NONE', #913, 0.05024999999999994749 ) ;
#835 = CARTESIAN_POINT ( 'NONE',  ( -1.005000000000000115, 0.05024999999999994749, -0.5747499999999999831 ) ) ;
#836 = DIRECTION ( 'NONE',  ( -1.000000000000000000, -0.000000000000000000, 8.673617379884039170E-17 ) ) ;
#837 = VERTEX_POINT ( 'NONE', #1107 ) ;
#838 = CARTESIAN_POINT ( 'NONE',  ( 0.9547500000000000986, 0.05024999999999999606, -0.5747499999999999831 ) ) ;
#839 = VECTOR ( 'NONE', #880, 1000.000000000000000 ) ;
#840 = LINE ( 'NONE', #1217, #718 ) ;
#841 = VECTOR ( 'NONE', #764, 1000.000000000000000 ) ;
#842 = DIRECTION ( 'NONE',  ( -0.000000000000000000, 1.000000000000000000, -0.000000000000000000 ) ) ;
#843 = ORIENTED_EDGE ( 'NONE', *, *, #7, .T. ) ;
#844 = CARTESIAN_POINT ( 'NONE',  ( 500000.0000000000582, 0.05024999999999994749, -0.5747500000433679590 ) ) ;
#845 = CARTESIAN_POINT ( 'NONE',  ( -1.005000000000000115, 1.000000000000000000, -0.6249999999999998890 ) ) ;
#846 = VERTEX_POINT ( 'NONE', #26 ) ;
#847 = DIRECTION ( 'NONE',  ( -1.000000000000000000, -0.000000000000000000, -0.000000000000000000 ) ) ;
#848 = PRODUCT_DEFINITION ( 'UNKNOWN', '', #923, #1089 ) ;
#849 = ORIENTED_EDGE ( 'NONE', *, *, #184, .T. ) ;
#850 = SPHERICAL_SURFACE ( 'NONE', #289, 0.05024999999999999606 ) ;
#851 = EDGE_CURVE ( 'NONE', #595, #490, #723, .T. ) ;
#852 = DIRECTION ( 'NONE',  ( 0.000000000000000000, 0.000000000000000000, 1.000000000000000000 ) ) ;
#853 = DIRECTION ( 'NONE',  ( -1.734723475976807587E-16, 0.000000000000000000, 1.000000000000000000 ) ) ;
#854 = AXIS2_PLACEMENT_3D ( 'NONE', #1211, #1198, #1010 ) ;
#855 = ORIENTED_EDGE ( 'NONE', *, *, #810, .T. ) ;
#856 = ORIENTED_EDGE ( 'NONE', *, *, #1001, .F. ) ;
#857 = CARTESIAN_POINT ( 'NONE',  ( 0.5050000000000000044, 1.000000000000000000, -0.6249999999999998890 ) ) ;
#858 = PRODUCT ( 'KGMq220242.011.2510.5', 'KGMq220242.011.2510.5', '', ( #942 ) ) ;
#859 = DIRECTION ( 'NONE',  ( 0.000000000000000000, 0.000000000000000000, -1.000000000000000000 ) ) ;
#860 = FACE_OUTER_BOUND ( 'NONE', #360, .T. ) ;
#861 = ORIENTED_EDGE ( 'NONE', *, *, #570, .T. ) ;
#862 = ORIENTED_EDGE ( 'NONE', *, *, #869, .F. ) ;
#863 = CARTESIAN_POINT ( 'NONE',  ( 0.9547499999999998765, 1.000000000000000000, 0.5747499999999997611 ) ) ;
#864 = DIRECTION ( 'NONE',  ( 0.000000000000000000, 0.000000000000000000, -1.000000000000000000 ) ) ;
#865 = CARTESIAN_POINT ( 'NONE',  ( -0.5050000000000000044, 0.9497500000000000941, -0.6249999999999998890 ) ) ;
#866 = EDGE_LOOP ( 'NONE', ( #106, #522, #1240 ) ) ;
#867 = VERTEX_POINT ( 'NONE', #1098 ) ;
#868 = DIRECTION ( 'NONE',  ( 1.000000000000000000, -0.000000000000000000, 0.000000000000000000 ) ) ;
#869 = EDGE_CURVE ( 'NONE', #197, #649, #488, .T. ) ;
#870 = DIRECTION ( 'NONE',  ( -1.734723475976807587E-16, 0.000000000000000000, -1.000000000000000000 ) ) ;
#871 = ORIENTED_EDGE ( 'NONE', *, *, #102, .F. ) ;
#872 = PLANE ( 'NONE',  #437 ) ;
#873 = ORIENTED_EDGE ( 'NONE', *, *, #550, .F. ) ;
#874 = CIRCLE ( 'NONE', #324, 0.05024999999999994749 ) ;
#875 = DIRECTION ( 'NONE',  ( -0.000000000000000000, -0.000000000000000000, 1.000000000000000000 ) ) ;
#876 = AXIS2_PLACEMENT_3D ( 'NONE', #835, #1125, #260 ) ;
#877 = ORIENTED_EDGE ( 'NONE', *, *, #1092, .F. ) ;
#878 = CARTESIAN_POINT ( 'NONE',  ( 500000.0000000000582, 0.01674999999999997324, 0.5747499999566317852 ) ) ;
#879 = SURFACE_STYLE_FILL_AREA ( #977 ) ;
#880 = DIRECTION ( 'NONE',  ( 2.090929362218633062E-32, 1.000000000000000000, -1.205338713157870319E-16 ) ) ;
#881 = LINE ( 'NONE', #592, #757 ) ;
#882 = ORIENTED_EDGE ( 'NONE', *, *, #1005, .F. ) ;
#883 = DIRECTION ( 'NONE',  ( -1.000000000000000000, -0.000000000000000000, 8.673617379884039170E-17 ) ) ;
#884 = VECTOR ( 'NONE', #36, 1000.000000000000000 ) ;
#885 = ORIENTED_EDGE ( 'NONE', *, *, #112, .T. ) ;
#886 = DIRECTION ( 'NONE',  ( 1.000000000000000000, 0.000000000000000000, 1.734723475976807587E-16 ) ) ;
#887 = DIRECTION ( 'NONE',  ( -1.000000000000000000, 0.000000000000000000, 0.000000000000000000 ) ) ;
#888 = CARTESIAN_POINT ( 'NONE',  ( -0.5049999999999998934, 0.9832499999999999574, -0.5747499999999998721 ) ) ;
#889 = ORIENTED_EDGE ( 'NONE', *, *, #326, .F. ) ;
#890 = FACE_OUTER_BOUND ( 'NONE', #25, .T. ) ;
#891 = ORIENTED_EDGE ( 'NONE', *, *, #701, .T. ) ;
#892 = CARTESIAN_POINT ( 'NONE',  ( -0.5049999999999997824, 1.000000000000000000, 0.5747499999999997611 ) ) ;
#893 = ORIENTED_EDGE ( 'NONE', *, *, #810, .F. ) ;
#894 = LINE ( 'NONE', #313, #17 ) ;
#895 = ORIENTED_EDGE ( 'NONE', *, *, #663, .T. ) ;
#896 = DIRECTION ( 'NONE',  ( -1.000000000000000000, 0.000000000000000000, 0.000000000000000000 ) ) ;
#897 = CLOSED_SHELL ( 'NONE', ( #209, #1265, #605, #905, #664, #818, #513, #1242, #1095, #646 ) ) ;
#898 = ORIENTED_EDGE ( 'NONE', *, *, #992, .T. ) ;
#899 =( GEOMETRIC_REPRESENTATION_CONTEXT ( 3 ) GLOBAL_UNCERTAINTY_ASSIGNED_CONTEXT ( ( #991 ) ) GLOBAL_UNIT_ASSIGNED_CONTEXT ( ( #727, #436, #1197 ) ) REPRESENTATION_CONTEXT ( 'NONE', 'WORKASPACE' ) );
#900 = VECTOR ( 'NONE', #318, 1000.000000000000000 ) ;
#901 = CARTESIAN_POINT ( 'NONE',  ( -0.9547499999999998765, 0.05024999999999994749, 0.5747499999999997611 ) ) ;
#902 = COLOUR_RGB ( '',0.7960784313725489669, 0.8235294117647058432, 0.9372549019607843146 ) ;
#903 = VERTEX_POINT ( 'NONE', #145 ) ;
#904 = MANIFOLD_SOLID_BREP ( 'Fillet1', #687 ) ;
#905 = ADVANCED_FACE ( 'NONE', ( #257 ), #642, .T. ) ;
#906 = CARTESIAN_POINT ( 'NONE',  ( -1.005000000000000115, 1.000000000000000000, -0.6249999999999998890 ) ) ;
#907 = ADVANCED_FACE ( 'NONE', ( #1225 ), #542, .T. ) ;
#908 = EDGE_CURVE ( 'NONE', #298, #846, #623, .T. ) ;
#909 = CARTESIAN_POINT ( 'NONE',  ( 0.5050000000892396201, 0.9497500000000000941, -0.6082499999999998463 ) ) ;
#910 = EDGE_CURVE ( 'NONE', #387, #302, #817, .T. ) ;
#911 = ORIENTED_EDGE ( 'NONE', *, *, #52, .F. ) ;
#912 = CIRCLE ( 'NONE', #97, 0.05024999999999994749 ) ;
#913 = AXIS2_PLACEMENT_3D ( 'NONE', #644, #247, #734 ) ;
#914 = CARTESIAN_POINT ( 'NONE',  ( -0.9547499999999998765, 0.9497500000000000941, 0.6249999999999996669 ) ) ;
#915 = SPHERICAL_SURFACE ( 'NONE', #1046, 0.05024999999999999606 ) ;
#916 = ORIENTED_EDGE ( 'NONE', *, *, #1189, .F. ) ;
#917 = SURFACE_STYLE_FILL_AREA ( #530 ) ;
#918 = ADVANCED_FACE ( 'NONE', ( #635 ), #1114, .F. ) ;
#919 = EDGE_CURVE ( 'NONE', #439, #474, #507, .T. ) ;
#920 = DIRECTION ( 'NONE',  ( 1.000000000000000000, -0.000000000000000000, -0.000000000000000000 ) ) ;
#921 = DIRECTION ( 'NONE',  ( 0.000000000000000000, 0.000000000000000000, -1.000000000000000000 ) ) ;
#922 = CARTESIAN_POINT ( 'NONE',  ( 0.5049999999999997824, 0.9497500000000000941, 0.5747499999999997611 ) ) ;
#923 = PRODUCT_DEFINITION_FORMATION_WITH_SPECIFIED_SOURCE ( 'ANY', '', #858, .NOT_KNOWN. ) ;
#924 = PLANE ( 'NONE',  #722 ) ;
#925 = ORIENTED_EDGE ( 'NONE', *, *, #1138, .F. ) ;
#926 = DIRECTION ( 'NONE',  ( 1.000000000000000000, 0.000000000000000000, 1.734723475976807587E-16 ) ) ;
#927 = PLANE ( 'NONE',  #110 ) ;
#928 = CARTESIAN_POINT ( 'NONE',  ( 0.9547500000000000986, 0.9497500000000000941, -0.5747499999999999831 ) ) ;
#929 = CYLINDRICAL_SURFACE ( 'NONE', #876, 0.05024999999999994749 ) ;
#930 = FILL_AREA_STYLE_COLOUR ( '', #1064 ) ;
#931 = FACE_OUTER_BOUND ( 'NONE', #399, .T. ) ;
#932 = VERTEX_POINT ( 'NONE', #863 ) ;
#933 = CARTESIAN_POINT ( 'NONE',  ( -0.5050000000000000044, 1.000000000000000000, -0.6249999999999998890 ) ) ;
#934 = AXIS2_PLACEMENT_3D ( 'NONE', #264, #163, #825 ) ;
#935 = DIRECTION ( 'NONE',  ( -0.000000000000000000, 1.000000000000000000, -0.000000000000000000 ) ) ;
#936 = CARTESIAN_POINT ( 'NONE',  ( -0.9547499999999998765, 0.05024999999999994749, 0.5747499999999997611 ) ) ;
#937 = AXIS2_PLACEMENT_3D ( 'NONE', #30, #842, #1024 ) ;
#938 = ORIENTED_EDGE ( 'NONE', *, *, #706, .T. ) ;
#939 =( NAMED_UNIT ( * ) SI_UNIT ( $, .STERADIAN. ) SOLID_ANGLE_UNIT ( ) );
#940 =( LENGTH_UNIT ( ) NAMED_UNIT ( * ) SI_UNIT ( .MILLI., .METRE. ) );
#941 = CARTESIAN_POINT ( 'NONE',  ( 0.5050000000892396201, 0.9832499999999999574, -0.5747499999999998721 ) ) ;
#942 = PRODUCT_CONTEXT ( 'NONE', #1103, 'mechanical' ) ;
#943 = EDGE_CURVE ( 'NONE', #1261, #932, #738, .T. ) ;
#944 = ORIENTED_EDGE ( 'NONE', *, *, #1231, .F. ) ;
#945 = EDGE_CURVE ( 'NONE', #197, #310, #424, .T. ) ;
#946 = STYLED_ITEM ( 'NONE', ( #721 ), #76 ) ;
#947 = AXIS2_PLACEMENT_3D ( 'NONE', #58, #653, #165 ) ;
#948 = VERTEX_POINT ( 'NONE', #558 ) ;
#949 = PLANE ( 'NONE',  #23 ) ;
#950 = DIRECTION ( 'NONE',  ( 1.000000000000000000, -0.000000000000000000, -0.000000000000000000 ) ) ;
#951 = DIRECTION ( 'NONE',  ( 0.000000000000000000, 0.000000000000000000, -1.000000000000000000 ) ) ;
#952 = VECTOR ( 'NONE', #416, 1000.000000000000000 ) ;
#953 = VERTEX_POINT ( 'NONE', #65 ) ;
#954 = VERTEX_POINT ( 'NONE', #87 ) ;
#955 = DIRECTION ( 'NONE',  ( 0.000000000000000000, 1.000000000000000000, 0.000000000000000000 ) ) ;
#956 = ADVANCED_FACE ( 'NONE', ( #177 ), #487, .T. ) ;
#957 = DIRECTION ( 'NONE',  ( 1.734723475976807587E-16, -0.000000000000000000, -1.000000000000000000 ) ) ;
#958 = LINE ( 'NONE', #1058, #393 ) ;
#959 = AXIS2_PLACEMENT_3D ( 'NONE', #377, #78, #190 ) ;
#960 = ORIENTED_EDGE ( 'NONE', *, *, #1189, .T. ) ;
#961 = DIRECTION ( 'NONE',  ( 0.000000000000000000, 0.000000000000000000, 1.000000000000000000 ) ) ;
#962 = AXIS2_PLACEMENT_3D ( 'NONE', #901, #18, #1078 ) ;
#963 = DIRECTION ( 'NONE',  ( 1.000000000000000000, 0.000000000000000000, -8.673617379884036705E-17 ) ) ;
#964 = ADVANCED_FACE ( 'NONE', ( #461 ), #850, .T. ) ;
#965 = LINE ( 'NONE', #1167, #519 ) ;
#966 = VERTEX_POINT ( 'NONE', #774 ) ;
#967 = DIRECTION ( 'NONE',  ( -1.000000000000000000, 0.000000000000000000, 0.000000000000000000 ) ) ;
#968 = ADVANCED_FACE ( 'NONE', ( #283 ), #974, .T. ) ;
#969 = CIRCLE ( 'NONE', #395, 0.05024999999999994749 ) ;
#970 = DIRECTION ( 'NONE',  ( 0.000000000000000000, -1.000000000000000000, 0.000000000000000000 ) ) ;
#971 = DIRECTION ( 'NONE',  ( 0.000000000000000000, -0.000000000000000000, -1.000000000000000000 ) ) ;
#972 = DIRECTION ( 'NONE',  ( 0.000000000000000000, 1.000000000000000000, 0.000000000000000000 ) ) ;
#973 = ORIENTED_EDGE ( 'NONE', *, *, #549, .T. ) ;
#974 = CYLINDRICAL_SURFACE ( 'NONE', #980, 0.05024999999999994749 ) ;
#975 = ORIENTED_EDGE ( 'NONE', *, *, #910, .F. ) ;
#976 = LINE ( 'NONE', #662, #500 ) ;
#977 = FILL_AREA_STYLE ('',( #692 ) ) ;
#978 = AXIS2_PLACEMENT_3D ( 'NONE', #410, #404, #305 ) ;
#979 = LINE ( 'NONE', #103, #839 ) ;
#980 = AXIS2_PLACEMENT_3D ( 'NONE', #475, #868, #1137 ) ;
#981 = LINE ( 'NONE', #511, #270 ) ;
#982 = CIRCLE ( 'NONE', #937, 0.05024999999999994749 ) ;
#983 = VERTEX_POINT ( 'NONE', #95 ) ;
#984 = CARTESIAN_POINT ( 'NONE',  ( -0.5049999999999998934, 0.05024999999999994749, 0.6082499999999998463 ) ) ;
#985 = CARTESIAN_POINT ( 'NONE',  ( -0.9547500000000000986, 0.9497500000000000941, -0.5747499999999999831 ) ) ;
#986 = VECTOR ( 'NONE', #1161, 1000.000000000000000 ) ;
#987 = ORIENTED_EDGE ( 'NONE', *, *, #1001, .T. ) ;
#988 = PLANE ( 'NONE',  #115 ) ;
#989 = AXIS2_PLACEMENT_3D ( 'NONE', #392, #791, #402 ) ;
#990 = ORIENTED_EDGE ( 'NONE', *, *, #329, .T. ) ;
#991 = UNCERTAINTY_MEASURE_WITH_UNIT (LENGTH_MEASURE( 1.000000000000000082E-05 ), #727, 'distance_accuracy_value', 'NONE');
#992 = EDGE_CURVE ( 'NONE', #401, #474, #482, .T. ) ;
#993 = LINE ( 'NONE', #998, #236 ) ;
#994 = FACE_OUTER_BOUND ( 'NONE', #809, .T. ) ;
#995 = CARTESIAN_POINT ( 'NONE',  ( -0.5049999999999997824, 1.000000000000000000, 0.6249999999999996669 ) ) ;
#996 = VECTOR ( 'NONE', #737, 1000.000000000000000 ) ;
#997 = EDGE_LOOP ( 'NONE', ( #1121, #533, #69, #944 ) ) ;
#998 = CARTESIAN_POINT ( 'NONE',  ( 500000.0000000000582, 0.9832499999999999574, -0.5747500000433679590 ) ) ;
#999 = ORIENTED_EDGE ( 'NONE', *, *, #550, .T. ) ;
#1000 = ADVANCED_FACE ( 'NONE', ( #357 ), #171, .T. ) ;
#1001 = EDGE_CURVE ( 'NONE', #954, #350, #576, .T. ) ;
#1002 = EDGE_CURVE ( 'NONE', #256, #310, #1160, .T. ) ;
#1003 = VECTOR ( 'NONE', #586, 1000.000000000000000 ) ;
#1004 = DIRECTION ( 'NONE',  ( -1.000000000000000000, 0.000000000000000000, 0.000000000000000000 ) ) ;
#1005 = EDGE_CURVE ( 'NONE', #517, #805, #680, .T. ) ;
#1006 = ORIENTED_EDGE ( 'NONE', *, *, #919, .T. ) ;
#1007 =( NAMED_UNIT ( * ) PLANE_ANGLE_UNIT ( ) SI_UNIT ( $, .RADIAN. ) );
#1008 = CARTESIAN_POINT ( 'NONE',  ( 0.5050000000000000044, 0.000000000000000000, -0.5747499999999999831 ) ) ;
#1009 = SURFACE_STYLE_FILL_AREA ( #261 ) ;
#1010 = DIRECTION ( 'NONE',  ( 0.000000000000000000, 0.000000000000000000, 1.000000000000000000 ) ) ;
#1011 = ADVANCED_FACE ( 'NONE', ( #1146 ), #949, .F. ) ;
#1012 = DIRECTION ( 'NONE',  ( -1.000000000000000000, -0.000000000000000000, 8.673617379884039170E-17 ) ) ;
#1013 = EDGE_CURVE ( 'NONE', #93, #11, #1259, .T. ) ;
#1014 = ORIENTED_EDGE ( 'NONE', *, *, #229, .T. ) ;
#1015 = DIRECTION ( 'NONE',  ( 0.000000000000000000, 1.000000000000000000, 0.000000000000000000 ) ) ;
#1016 = EDGE_CURVE ( 'NONE', #1185, #1113, #384, .T. ) ;
#1017 = CIRCLE ( 'NONE', #525, 0.05024999999999994749 ) ;
#1018 = DIRECTION ( 'NONE',  ( -0.000000000000000000, 1.000000000000000000, -0.000000000000000000 ) ) ;
#1019 = CARTESIAN_POINT ( 'NONE',  ( -0.9547500000000000986, 0.9497500000000000941, -0.5747499999999999831 ) ) ;
#1020 = VERTEX_POINT ( 'NONE', #581 ) ;
#1021 = DIRECTION ( 'NONE',  ( -1.000000000000000000, 0.000000000000000000, 1.734723475976807587E-16 ) ) ;
#1022 = CARTESIAN_POINT ( 'NONE',  ( -0.5049999999999997824, 0.000000000000000000, 0.5747499999999997611 ) ) ;
#1023 = DIRECTION ( 'NONE',  ( 0.000000000000000000, 0.000000000000000000, -1.000000000000000000 ) ) ;
#1024 = DIRECTION ( 'NONE',  ( 0.000000000000000000, 0.000000000000000000, -1.000000000000000000 ) ) ;
#1025 = ORIENTED_EDGE ( 'NONE', *, *, #1042, .F. ) ;
#1026 = DIRECTION ( 'NONE',  ( -1.000000000000000000, -0.000000000000000000, 8.673617379884039170E-17 ) ) ;
#1027 = FACE_OUTER_BOUND ( 'NONE', #75, .T. ) ;
#1028 = DIRECTION ( 'NONE',  ( -0.000000000000000000, -1.000000000000000000, -0.000000000000000000 ) ) ;
#1029 = CARTESIAN_POINT ( 'NONE',  ( -1.004999999999999893, 0.9497500000000000941, 0.5747499999999997611 ) ) ;
#1030 = EDGE_LOOP ( 'NONE', ( #460, #849, #987, #201 ) ) ;
#1031 = SPHERICAL_SURFACE ( 'NONE', #22, 0.05024999999999999606 ) ;
#1032 = CARTESIAN_POINT ( 'NONE',  ( -0.9547500000000000986, 0.05024999999999999606, -0.5747499999999999831 ) ) ;
#1033 = VECTOR ( 'NONE', #673, 1000.000000000000000 ) ;
#1034 = ADVANCED_FACE ( 'NONE', ( #294 ), #1248, .T. ) ;
#1035 = CARTESIAN_POINT ( 'NONE',  ( 0.9547499999999998765, 0.000000000000000000, 0.5747499999999997611 ) ) ;
#1036 = PLANE ( 'NONE',  #1037 ) ;
#1037 = AXIS2_PLACEMENT_3D ( 'NONE', #540, #344, #43 ) ;
#1038 = EDGE_LOOP ( 'NONE', ( #1273, #215, #269, #419, #430, #811, #898, #467 ) ) ;
#1039 = DIRECTION ( 'NONE',  ( -1.734723475976807587E-16, 0.000000000000000000, 1.000000000000000000 ) ) ;
#1040 = EDGE_CURVE ( 'NONE', #867, #93, #834, .T. ) ;
#1041 = APPLICATION_PROTOCOL_DEFINITION ( 'draft international standard', 'automotive_design', 1998, #1177 ) ;
#1042 = EDGE_CURVE ( 'NONE', #903, #579, #147, .T. ) ;
#1043 = FACE_OUTER_BOUND ( 'NONE', #801, .T. ) ;
#1044 = EDGE_CURVE ( 'NONE', #837, #1185, #385, .T. ) ;
#1045 = EDGE_CURVE ( 'NONE', #1261, #736, #1263, .T. ) ;
#1046 = AXIS2_PLACEMENT_3D ( 'NONE', #161, #255, #62 ) ;
#1047 = ORIENTED_EDGE ( 'NONE', *, *, #239, .F. ) ;
#1048 = DIRECTION ( 'NONE',  ( 0.000000000000000000, -0.000000000000000000, 1.000000000000000000 ) ) ;
#1049 = AXIS2_PLACEMENT_3D ( 'NONE', #1096, #886, #608 ) ;
#1050 = CARTESIAN_POINT ( 'NONE',  ( 0.000000000000000000, 0.000000000000000000, -0.5747499999999999831 ) ) ;
#1051 = DIRECTION ( 'NONE',  ( 1.000000000000000000, 0.000000000000000000, -8.673617379884036705E-17 ) ) ;
#1052 = VECTOR ( 'NONE', #68, 1000.000000000000000 ) ;
#1053 = ORIENTED_EDGE ( 'NONE', *, *, #1042, .T. ) ;
#1054 = EDGE_CURVE ( 'NONE', #55, #517, #545, .T. ) ;
#1055 = CARTESIAN_POINT ( 'NONE',  ( 1.005000000000000115, 1.000000000000000000, -0.5747499999999999831 ) ) ;
#1056 = EDGE_CURVE ( 'NONE', #1020, #1132, #840, .T. ) ;
#1057 = DIRECTION ( 'NONE',  ( 1.000000000000000000, 0.000000000000000000, 0.000000000000000000 ) ) ;
#1058 = CARTESIAN_POINT ( 'NONE',  ( 0.5050000000000000044, 0.000000000000000000, -0.6249999999999998890 ) ) ;
#1059 = ORIENTED_EDGE ( 'NONE', *, *, #47, .F. ) ;
#1060 = DIRECTION ( 'NONE',  ( 0.000000000000000000, -1.000000000000000000, -0.000000000000000000 ) ) ;
#1061 = CARTESIAN_POINT ( 'NONE',  ( -0.5049999999999998934, 0.9497500000000000941, -0.5747499999999998721 ) ) ;
#1062 = DIRECTION ( 'NONE',  ( 0.000000000000000000, -1.000000000000000000, 0.000000000000000000 ) ) ;
#1063 = CARTESIAN_POINT ( 'NONE',  ( 0.5050000000892396201, 0.9497500000000000941, 0.6082499999999997353 ) ) ;
#1064 = COLOUR_RGB ( '',0.4862745098039215619, 0.2352941176470588203, 0.01568627450980392135 ) ;
#1065 = ORIENTED_EDGE ( 'NONE', *, *, #600, .F. ) ;
#1066 = ORIENTED_EDGE ( 'NONE', *, *, #1079, .T. ) ;
#1067 = CARTESIAN_POINT ( 'NONE',  ( 0.9547500000000000986, 0.9497500000000000941, -0.5747499999999999831 ) ) ;
#1068 = MECHANICAL_DESIGN_GEOMETRIC_PRESENTATION_REPRESENTATION (  '', ( #514 ), #899 ) ;
#1069 = CIRCLE ( 'NONE', #962, 0.05024999999999994749 ) ;
#1070 = VECTOR ( 'NONE', #140, 1000.000000000000000 ) ;
#1071 = EDGE_LOOP ( 'NONE', ( #761, #86, #714, #742 ) ) ;
#1072 = LINE ( 'NONE', #275, #297 ) ;
#1073 = CARTESIAN_POINT ( 'NONE',  ( 0.000000000000000000, 0.9497500000000000941, -0.5747499999999999831 ) ) ;
#1074 = VERTEX_POINT ( 'NONE', #1230 ) ;
#1075 = DIRECTION ( 'NONE',  ( 0.000000000000000000, 0.000000000000000000, 1.000000000000000000 ) ) ;
#1076 = EDGE_CURVE ( 'NONE', #479, #302, #164, .T. ) ;
#1077 = ORIENTED_EDGE ( 'NONE', *, *, #1013, .T. ) ;
#1078 = DIRECTION ( 'NONE',  ( 0.000000000000000000, 0.000000000000000000, -1.000000000000000000 ) ) ;
#1079 = EDGE_CURVE ( 'NONE', #579, #302, #874, .T. ) ;
#1080 = AXIS2_PLACEMENT_3D ( 'NONE', #650, #1221, #1122 ) ;
#1081 = CARTESIAN_POINT ( 'NONE',  ( 1.005000000000000115, 0.9497500000000000941, -0.6249999999999998890 ) ) ;
#1082 = FACE_OUTER_BOUND ( 'NONE', #730, .T. ) ;
#1083 = EDGE_LOOP ( 'NONE', ( #601, #383, #1065 ) ) ;
#1084 = EDGE_CURVE ( 'NONE', #310, #649, #100, .T. ) ;
#1085 = AXIS2_PLACEMENT_3D ( 'NONE', #470, #970, #1249 ) ;
#1086 = DIRECTION ( 'NONE',  ( -1.000000000000000000, 0.000000000000000000, -1.734723475976807587E-16 ) ) ;
#1087 = VERTEX_POINT ( 'NONE', #1035 ) ;
#1088 = LINE ( 'NONE', #995, #1226 ) ;
#1089 = PRODUCT_DEFINITION_CONTEXT ( 'detailed design', #1177, 'design' ) ;
#1090 = ORIENTED_EDGE ( 'NONE', *, *, #420, .F. ) ;
#1091 = DIRECTION ( 'NONE',  ( -1.000000000000000000, -0.000000000000000000, 8.673617379884039170E-17 ) ) ;
#1092 = EDGE_CURVE ( 'NONE', #837, #256, #166, .T. ) ;
#1093 = EDGE_LOOP ( 'NONE', ( #862, #641, #547, #938 ) ) ;
#1094 = AXIS2_PLACEMENT_3D ( 'NONE', #922, #435, #829 ) ;
#1095 = ADVANCED_FACE ( 'NONE', ( #379 ), #386, .F. ) ;
#1096 = CARTESIAN_POINT ( 'NONE',  ( 0.5049999999755527824, 0.9497500000000000941, 0.5747499999999998721 ) ) ;
#1097 = CIRCLE ( 'NONE', #426, 0.03349999999999989098 ) ;
#1098 = CARTESIAN_POINT ( 'NONE',  ( 0.9547500000000000986, 0.000000000000000000, -0.5747499999999999831 ) ) ;
#1099 = CIRCLE ( 'NONE', #60, 0.05024999999999994749 ) ;
#1100 = CARTESIAN_POINT ( 'NONE',  ( 0.5049999999999997824, 0.05024999999999994749, 0.5747499999999997611 ) ) ;
#1101 = VECTOR ( 'NONE', #1062, 1000.000000000000000 ) ;
#1102 = EDGE_CURVE ( 'NONE', #474, #948, #965, .T. ) ;
#1103 = APPLICATION_CONTEXT ( 'automotive_design' ) ;
#1104 = FILL_AREA_STYLE_COLOUR ( '', #16 ) ;
#1105 = FACE_OUTER_BOUND ( 'NONE', #367, .T. ) ;
#1106 = ORIENTED_EDGE ( 'NONE', *, *, #943, .T. ) ;
#1107 = CARTESIAN_POINT ( 'NONE',  ( 0.5049999999999997824, 1.000000000000000000, 0.5747499999999997611 ) ) ;
#1108 = CARTESIAN_POINT ( 'NONE',  ( 0.9547499999999998765, 0.05024999999999994749, 0.6249999999999996669 ) ) ;
#1109 = LINE ( 'NONE', #615, #884 ) ;
#1110 = CARTESIAN_POINT ( 'NONE',  ( -1.004999999999999893, 1.000000000000000000, 0.5747499999999997611 ) ) ;
#1111 = CYLINDRICAL_SURFACE ( 'NONE', #233, 0.05024999999999994749 ) ;
#1112 = DIRECTION ( 'NONE',  ( 1.000000000000000000, 0.000000000000000000, 0.000000000000000000 ) ) ;
#1113 = VERTEX_POINT ( 'NONE', #82 ) ;
#1114 = PLANE ( 'NONE',  #593 ) ;
#1115 =( GEOMETRIC_REPRESENTATION_CONTEXT ( 3 ) GLOBAL_UNCERTAINTY_ASSIGNED_CONTEXT ( ( #363 ) ) GLOBAL_UNIT_ASSIGNED_CONTEXT ( ( #232, #1007, #939 ) ) REPRESENTATION_CONTEXT ( 'NONE', 'WORKASPACE' ) );
#1116 = CYLINDRICAL_SURFACE ( 'NONE', #497, 0.05024999999999994749 ) ;
#1117 = DIRECTION ( 'NONE',  ( 1.000000000000000000, 0.000000000000000000, 0.000000000000000000 ) ) ;
#1118 = CARTESIAN_POINT ( 'NONE',  ( -0.9547499999999998765, 0.9497500000000000941, 0.5747499999999997611 ) ) ;
#1119 = SURFACE_STYLE_FILL_AREA ( #53 ) ;
#1120 = CARTESIAN_POINT ( 'NONE',  ( -0.5049999999999998934, 0.05024999999999994749, -0.6082499999999997353 ) ) ;
#1121 = ORIENTED_EDGE ( 'NONE', *, *, #7, .F. ) ;
#1122 = DIRECTION ( 'NONE',  ( 0.000000000000000000, 0.000000000000000000, 1.000000000000000000 ) ) ;
#1123 = PRESENTATION_LAYER_ASSIGNMENT (  '', '', ( #514 ) ) ;
#1124 = LINE ( 'NONE', #352, #1207 ) ;
#1125 = DIRECTION ( 'NONE',  ( -1.000000000000000000, 0.000000000000000000, 0.000000000000000000 ) ) ;
#1126 = STYLED_ITEM ( 'NONE', ( #651 ), #618 ) ;
#1127 = CARTESIAN_POINT ( 'NONE',  ( -0.5049999999999998934, 0.9497500000000000941, 0.5747499999999998721 ) ) ;
#1128 = ORIENTED_EDGE ( 'NONE', *, *, #239, .T. ) ;
#1129 = DIRECTION ( 'NONE',  ( -1.000000000000000000, 0.000000000000000000, 0.000000000000000000 ) ) ;
#1130 = ADVANCED_FACE ( 'NONE', ( #477 ), #278, .T. ) ;
#1131 = LINE ( 'NONE', #933, #1153 ) ;
#1132 = VERTEX_POINT ( 'NONE', #563 ) ;
#1133 = ADVANCED_FACE ( 'NONE', ( #669 ), #483, .T. ) ;
#1134 = LINE ( 'NONE', #459, #389 ) ;
#1135 = EDGE_CURVE ( 'NONE', #1132, #983, #179, .T. ) ;
#1136 = EDGE_LOOP ( 'NONE', ( #699, #891, #657, #1077 ) ) ;
#1137 = DIRECTION ( 'NONE',  ( 0.000000000000000000, 0.000000000000000000, -1.000000000000000000 ) ) ;
#1138 = EDGE_CURVE ( 'NONE', #84, #765, #196, .T. ) ;
#1139 = AXIS2_PLACEMENT_3D ( 'NONE', #622, #729, #527 ) ;
#1140 = AXIS2_PLACEMENT_3D ( 'NONE', #369, #1156, #1236 ) ;
#1141 = LINE ( 'NONE', #485, #1052 ) ;
#1142 = EDGE_LOOP ( 'NONE', ( #445, #613, #515, #610 ) ) ;
#1143 = FACE_OUTER_BOUND ( 'NONE', #1145, .T. ) ;
#1144 = AXIS2_PLACEMENT_3D ( 'NONE', #444, #836, #268 ) ;
#1145 = EDGE_LOOP ( 'NONE', ( #861, #973, #1213 ) ) ;
#1146 = FACE_OUTER_BOUND ( 'NONE', #19, .T. ) ;
#1147 = PRODUCT_DEFINITION_SHAPE ( 'NONE', 'NONE',  #848 ) ;
#1148 = CARTESIAN_POINT ( 'NONE',  ( -0.9547499999999998765, 1.000000000000000000, 0.6249999999999996669 ) ) ;
#1149 = CARTESIAN_POINT ( 'NONE',  ( -0.5049999999999998934, 0.05024999999999994749, 0.5747499999999998721 ) ) ;
#1150 = EDGE_CURVE ( 'NONE', #1087, #11, #604, .T. ) ;
#1151 = ORIENTED_EDGE ( 'NONE', *, *, #910, .T. ) ;
#1152 = ADVANCED_FACE ( 'NONE', ( #472 ), #763, .F. ) ;
#1153 = VECTOR ( 'NONE', #1222, 1000.000000000000000 ) ;
#1154 = AXIS2_PLACEMENT_3D ( 'NONE', #1, #787, #66 ) ;
#1155 = ORIENTED_EDGE ( 'NONE', *, *, #633, .F. ) ;
#1156 = DIRECTION ( 'NONE',  ( 0.000000000000000000, -1.000000000000000000, 0.000000000000000000 ) ) ;
#1157 = LINE ( 'NONE', #1148, #986 ) ;
#1158 = CIRCLE ( 'NONE', #606, 0.03350000000000000200 ) ;
#1159 = ORIENTED_EDGE ( 'NONE', *, *, #427, .F. ) ;
#1160 = LINE ( 'NONE', #1055, #443 ) ;
#1161 = DIRECTION ( 'NONE',  ( 0.000000000000000000, -1.000000000000000000, 0.000000000000000000 ) ) ;
#1162 = VECTOR ( 'NONE', #935, 1000.000000000000000 ) ;
#1163 = ORIENTED_EDGE ( 'NONE', *, *, #1271, .F. ) ;
#1164 = DIRECTION ( 'NONE',  ( 0.000000000000000000, 0.000000000000000000, -1.000000000000000000 ) ) ;
#1165 = VECTOR ( 'NONE', #262, 1000.000000000000000 ) ;
#1166 =( LENGTH_UNIT ( ) NAMED_UNIT ( * ) SI_UNIT ( .MILLI., .METRE. ) );
#1167 = CARTESIAN_POINT ( 'NONE',  ( 1.005000000000000115, 0.05024999999999994749, -0.6249999999999998890 ) ) ;
#1168 = ORIENTED_EDGE ( 'NONE', *, *, #212, .T. ) ;
#1169 = DIRECTION ( 'NONE',  ( 1.000000000000000000, 0.000000000000000000, 1.734723475976807587E-16 ) ) ;
#1170 = EDGE_CURVE ( 'NONE', #983, #595, #969, .T. ) ;
#1171 = CIRCLE ( 'NONE', #1049, 0.03349999999999989098 ) ;
#1172 = ORIENTED_EDGE ( 'NONE', *, *, #453, .T. ) ;
#1173 = DIRECTION ( 'NONE',  ( 0.000000000000000000, -1.000000000000000000, -0.000000000000000000 ) ) ;
#1174 = SURFACE_STYLE_USAGE ( .BOTH. , #1270 ) ;
#1175 = ORIENTED_EDGE ( 'NONE', *, *, #1229, .F. ) ;
#1176 = CARTESIAN_POINT ( 'NONE',  ( 0.9547499999999999876, 0.000000000000000000, 1.656227238688856968E-16 ) ) ;
#1177 = APPLICATION_CONTEXT ( 'automotive_design' ) ;
#1178 = VERTEX_POINT ( 'NONE', #1244 ) ;
#1179 = CARTESIAN_POINT ( 'NONE',  ( -0.9547499999999998765, 0.05024999999999999606, 0.5747499999999997611 ) ) ;
#1180 = EDGE_CURVE ( 'NONE', #479, #1205, #1157, .T. ) ;
#1181 = ORIENTED_EDGE ( 'NONE', *, *, #235, .F. ) ;
#1182 = LINE ( 'NONE', #308, #638 ) ;
#1183 = ORIENTED_EDGE ( 'NONE', *, *, #114, .T. ) ;
#1184 = DIRECTION ( 'NONE',  ( -1.000000000000000000, 0.000000000000000000, 0.000000000000000000 ) ) ;
#1185 = VERTEX_POINT ( 'NONE', #571 ) ;
#1186 = VECTOR ( 'NONE', #220, 1000.000000000000000 ) ;
#1187 = VERTEX_POINT ( 'NONE', #284 ) ;
#1188 = CARTESIAN_POINT ( 'NONE',  ( -0.5050000000000000044, 1.000000000000000000, -0.5747499999999999831 ) ) ;
#1189 = EDGE_CURVE ( 'NONE', #1264, #953, #674, .T. ) ;
#1190 = EDGE_CURVE ( 'NONE', #197, #93, #192, .T. ) ;
#1191 = AXIS2_PLACEMENT_3D ( 'NONE', #630, #246, #921 ) ;
#1192 = ORIENTED_EDGE ( 'NONE', *, *, #427, .T. ) ;
#1193 = CARTESIAN_POINT ( 'NONE',  ( 0.5049999999755527824, 0.9497500000000000941, 0.6082499999999997353 ) ) ;
#1194 = VERTEX_POINT ( 'NONE', #41 ) ;
#1195 = CARTESIAN_POINT ( 'NONE',  ( -0.9547500000000000986, 0.9497500000000000941, -0.6249999999999998890 ) ) ;
#1196 = CARTESIAN_POINT ( 'NONE',  ( -0.5049999999999998934, 0.01674999999999997324, 0.5747499999999998721 ) ) ;
#1197 =( NAMED_UNIT ( * ) SI_UNIT ( $, .STERADIAN. ) SOLID_ANGLE_UNIT ( ) );
#1198 = DIRECTION ( 'NONE',  ( 0.000000000000000000, 1.000000000000000000, -0.000000000000000000 ) ) ;
#1199 = COLOUR_RGB ( '',0.7960784313725489669, 0.8235294117647058432, 0.9372549019607843146 ) ;
#1200 = AXIS2_PLACEMENT_3D ( 'NONE', #686, #955, #1048 ) ;
#1201 = EDGE_LOOP ( 'NONE', ( #168, #824, #607, #566 ) ) ;
#1202 = CARTESIAN_POINT ( 'NONE',  ( -0.5049999999999997824, 1.000000000000000000, 0.5747499999999997611 ) ) ;
#1203 = AXIS2_PLACEMENT_3D ( 'NONE', #149, #847, #640 ) ;
#1204 = DIRECTION ( 'NONE',  ( 1.734723475976807587E-16, -0.000000000000000000, 1.000000000000000000 ) ) ;
#1205 = VERTEX_POINT ( 'NONE', #745 ) ;
#1206 = CARTESIAN_POINT ( 'NONE',  ( -0.9547499999999998765, 1.000000000000000000, 0.6249999999999996669 ) ) ;
#1207 = VECTOR ( 'NONE', #920, 1000.000000000000000 ) ;
#1208 = CARTESIAN_POINT ( 'NONE',  ( -0.9547499999999998765, 0.9497500000000000941, 0.5747499999999997611 ) ) ;
#1209 = AXIS2_PLACEMENT_3D ( 'NONE', #418, #1204, #733 ) ;
#1210 = VECTOR ( 'NONE', #1184, 1000.000000000000000 ) ;
#1211 = CARTESIAN_POINT ( 'NONE',  ( -0.9547499999999998765, 0.9497500000000000941, 0.5747499999999997611 ) ) ;
#1212 = DIRECTION ( 'NONE',  ( 0.000000000000000000, 0.000000000000000000, 1.000000000000000000 ) ) ;
#1213 = ORIENTED_EDGE ( 'NONE', *, *, #240, .F. ) ;
#1214 = CYLINDRICAL_SURFACE ( 'NONE', #1080, 0.03350000000000000200 ) ;
#1215 = AXIS2_PLACEMENT_3D ( 'NONE', #670, #972, #1237 ) ;
#1216 = DIRECTION ( 'NONE',  ( 0.000000000000000000, 0.000000000000000000, -1.000000000000000000 ) ) ;
#1217 = CARTESIAN_POINT ( 'NONE',  ( -0.9547499999999999876, 0.000000000000000000, 1.656227238688856968E-16 ) ) ;
#1218 = ADVANCED_FACE ( 'NONE', ( #370 ), #769, .T. ) ;
#1219 = FACE_OUTER_BOUND ( 'NONE', #1071, .T. ) ;
#1220 = ORIENTED_EDGE ( 'NONE', *, *, #96, .T. ) ;
#1221 = DIRECTION ( 'NONE',  ( -1.000000000000000000, -0.000000000000000000, 8.673617379884039170E-17 ) ) ;
#1222 = DIRECTION ( 'NONE',  ( -0.000000000000000000, -1.000000000000000000, -0.000000000000000000 ) ) ;
#1223 = DIRECTION ( 'NONE',  ( -1.000000000000000000, 0.000000000000000000, 0.000000000000000000 ) ) ;
#1224 = ORIENTED_EDGE ( 'NONE', *, *, #698, .F. ) ;
#1225 = FACE_OUTER_BOUND ( 'NONE', #557, .T. ) ;
#1226 = VECTOR ( 'NONE', #2, 1000.000000000000000 ) ;
#1227 =( NAMED_UNIT ( * ) PLANE_ANGLE_UNIT ( ) SI_UNIT ( $, .RADIAN. ) );
#1228 = CARTESIAN_POINT ( 'NONE',  ( 0.9547499999999999876, 0.9497500000000000941, 1.656227238688856968E-16 ) ) ;
#1229 = EDGE_CURVE ( 'NONE', #867, #439, #238, .T. ) ;
#1230 = CARTESIAN_POINT ( 'NONE',  ( -0.5049999999999998934, 0.9832499999999999574, 0.5747499999999998721 ) ) ;
#1231 = EDGE_CURVE ( 'NONE', #55, #84, #1109, .T. ) ;
#1232 = ADVANCED_FACE ( 'NONE', ( #131 ), #323, .T. ) ;
#1233 = CARTESIAN_POINT ( 'NONE',  ( 0.000000000000000000, 1.000000000000000000, 0.000000000000000000 ) ) ;
#1234 = ORIENTED_EDGE ( 'NONE', *, *, #329, .F. ) ;
#1235 = ADVANCED_FACE ( 'NONE', ( #434 ), #720, .T. ) ;
#1236 = DIRECTION ( 'NONE',  ( -1.000000000000000000, 0.000000000000000000, 0.000000000000000000 ) ) ;
#1237 = DIRECTION ( 'NONE',  ( 1.000000000000000000, 0.000000000000000000, 0.000000000000000000 ) ) ;
#1238 = ORIENTED_EDGE ( 'NONE', *, *, #1180, .F. ) ;
#1239 = FACE_OUTER_BOUND ( 'NONE', #997, .T. ) ;
#1240 = ORIENTED_EDGE ( 'NONE', *, *, #1079, .F. ) ;
#1241 = DIRECTION ( 'NONE',  ( 0.000000000000000000, -1.000000000000000000, 0.000000000000000000 ) ) ;
#1242 = ADVANCED_FACE ( 'NONE', ( #994 ), #125, .T. ) ;
#1243 = CIRCLE ( 'NONE', #978, 0.05024999999999994749 ) ;
#1244 = CARTESIAN_POINT ( 'NONE',  ( -0.5049999999999997824, 0.9497500000000000941, 0.6249999999999996669 ) ) ;
#1245 = CARTESIAN_POINT ( 'NONE',  ( 0.5049999999755527824, 0.05024999999999994749, 0.5747499999999998721 ) ) ;
#1246 = ORIENTED_EDGE ( 'NONE', *, *, #420, .T. ) ;
#1247 = ORIENTED_EDGE ( 'NONE', *, *, #415, .F. ) ;
#1248 = SPHERICAL_SURFACE ( 'NONE', #1140, 0.05024999999999999606 ) ;
#1249 = DIRECTION ( 'NONE',  ( 0.000000000000000000, 0.000000000000000000, -1.000000000000000000 ) ) ;
#1250 = CARTESIAN_POINT ( 'NONE',  ( 500000.0000000000582, 0.9832499999999999574, -0.5747500000433679590 ) ) ;
#1251 = ORIENTED_EDGE ( 'NONE', *, *, #101, .F. ) ;
#1252 = AXIS2_PLACEMENT_3D ( 'NONE', #186, #1260, #73 ) ;
#1253 = ORIENTED_EDGE ( 'NONE', *, *, #741, .T. ) ;
#1254 = DIRECTION ( 'NONE',  ( 1.000000000000000000, 0.000000000000000000, 0.000000000000000000 ) ) ;
#1255 = DIRECTION ( 'NONE',  ( 0.000000000000000000, 1.000000000000000000, 0.000000000000000000 ) ) ;
#1256 = LINE ( 'NONE', #285, #841 ) ;
#1257 = ORIENTED_EDGE ( 'NONE', *, *, #211, .T. ) ;
#1258 = ORIENTED_EDGE ( 'NONE', *, *, #945, .T. ) ;
#1259 = LINE ( 'NONE', #661, #126 ) ;
#1260 = DIRECTION ( 'NONE',  ( 0.000000000000000000, 0.000000000000000000, 1.000000000000000000 ) ) ;
#1261 = VERTEX_POINT ( 'NONE', #105 ) ;
#1262 = CARTESIAN_POINT ( 'NONE',  ( 0.5050000000000000044, 1.000000000000000000, -0.6249999999999998890 ) ) ;
#1263 = CIRCLE ( 'NONE', #364, 0.05024999999999994749 ) ;
#1264 = VERTEX_POINT ( 'NONE', #494 ) ;
#1265 = ADVANCED_FACE ( 'NONE', ( #200 ), #72, .F. ) ;
#1266 = AXIS2_PLACEMENT_3D ( 'NONE', #1073, #480, #167 ) ;
#1267 = ORIENTED_EDGE ( 'NONE', *, *, #1002, .T. ) ;
#1268 = CYLINDRICAL_SURFACE ( 'NONE', #989, 0.05024999999999994749 ) ;
#1269 = ADVANCED_FACE ( 'NONE', ( #681 ), #80, .T. ) ;
#1270 = SURFACE_SIDE_STYLE ('',( #879 ) ) ;
#1271 = EDGE_CURVE ( 'NONE', #736, #932, #334, .T. ) ;
#1272 =( NAMED_UNIT ( * ) SI_UNIT ( $, .STERADIAN. ) SOLID_ANGLE_UNIT ( ) );
#1273 = ORIENTED_EDGE ( 'NONE', *, *, #96, .F. ) ;
#1274 = LINE ( 'NONE', #397, #468 ) ;
#1275 = EDGE_CURVE ( 'NONE', #846, #678, #35, .T. ) ;
#1276 = PRESENTATION_LAYER_ASSIGNMENT (  '', '', ( #946 ) ) ;
#1277 = VECTOR ( 'NONE', #422, 1000.000000000000000 ) ;
#1278 = DIRECTION ( 'NONE',  ( 0.000000000000000000, 0.000000000000000000, 1.000000000000000000 ) ) ;
#1279 = ORIENTED_EDGE ( 'NONE', *, *, #417, .T. ) ;
#1280 = DIRECTION ( 'NONE',  ( -1.000000000000000000, 0.000000000000000000, 0.000000000000000000 ) ) ;
ENDSEC;
END-ISO-10303-21;
