%TF.GenerationSoftware,KiCad,Pcbnew,9.0.5*%
%TF.CreationDate,2025-12-05T04:25:24-05:00*%
%TF.ProjectId,Commodore 6,436f6d6d-6f64-46f7-9265-20362e6b6963,rev?*%
%TF.SameCoordinates,Original*%
%TF.FileFunction,Drillmap*%
%TF.FilePolarity,Positive*%
%FSLAX45Y45*%
G04 Gerber Fmt 4.5, Leading zero omitted, Abs format (unit mm)*
G04 Created by KiCad (PCBNEW 9.0.5) date 2025-12-05 04:25:24*
%MOMM*%
%LPD*%
G01*
G04 APERTURE LIST*
%ADD10C,0.500000*%
%ADD11C,0.200000*%
%ADD12C,0.100000*%
%ADD13C,0.102000*%
G04 APERTURE END LIST*
D10*
X0Y0D02*
X12700000Y0D01*
X12700000Y-12700000D01*
X0Y-12700000D01*
X0Y0D01*
D11*
D12*
X4991500Y-2466000D02*
X5041500Y-2516000D01*
X5041500Y-2466000D02*
X4991500Y-2516000D01*
D13*
X1817917Y-3860000D02*
G75*
G02*
X1715917Y-3860000I-51000J0D01*
G01*
X1715917Y-3860000D02*
G75*
G02*
X1817917Y-3860000I51000J0D01*
G01*
X2452917Y-3860000D02*
G75*
G02*
X2350917Y-3860000I-51000J0D01*
G01*
X2350917Y-3860000D02*
G75*
G02*
X2452917Y-3860000I51000J0D01*
G01*
D11*
X235777Y-13036484D02*
X235777Y-12836484D01*
X235777Y-12836484D02*
X283396Y-12836484D01*
X283396Y-12836484D02*
X311967Y-12846008D01*
X311967Y-12846008D02*
X331015Y-12865055D01*
X331015Y-12865055D02*
X340539Y-12884103D01*
X340539Y-12884103D02*
X350062Y-12922198D01*
X350062Y-12922198D02*
X350062Y-12950769D01*
X350062Y-12950769D02*
X340539Y-12988865D01*
X340539Y-12988865D02*
X331015Y-13007912D01*
X331015Y-13007912D02*
X311967Y-13026960D01*
X311967Y-13026960D02*
X283396Y-13036484D01*
X283396Y-13036484D02*
X235777Y-13036484D01*
X435777Y-13036484D02*
X435777Y-12903150D01*
X435777Y-12941246D02*
X445301Y-12922198D01*
X445301Y-12922198D02*
X454824Y-12912674D01*
X454824Y-12912674D02*
X473872Y-12903150D01*
X473872Y-12903150D02*
X492920Y-12903150D01*
X559586Y-13036484D02*
X559586Y-12903150D01*
X559586Y-12836484D02*
X550063Y-12846008D01*
X550063Y-12846008D02*
X559586Y-12855531D01*
X559586Y-12855531D02*
X569110Y-12846008D01*
X569110Y-12846008D02*
X559586Y-12836484D01*
X559586Y-12836484D02*
X559586Y-12855531D01*
X683396Y-13036484D02*
X664348Y-13026960D01*
X664348Y-13026960D02*
X654824Y-13007912D01*
X654824Y-13007912D02*
X654824Y-12836484D01*
X788158Y-13036484D02*
X769110Y-13026960D01*
X769110Y-13026960D02*
X759586Y-13007912D01*
X759586Y-13007912D02*
X759586Y-12836484D01*
X1016729Y-13036484D02*
X1016729Y-12836484D01*
X1016729Y-12836484D02*
X1083396Y-12979341D01*
X1083396Y-12979341D02*
X1150063Y-12836484D01*
X1150063Y-12836484D02*
X1150063Y-13036484D01*
X1331015Y-13036484D02*
X1331015Y-12931722D01*
X1331015Y-12931722D02*
X1321491Y-12912674D01*
X1321491Y-12912674D02*
X1302444Y-12903150D01*
X1302444Y-12903150D02*
X1264348Y-12903150D01*
X1264348Y-12903150D02*
X1245301Y-12912674D01*
X1331015Y-13026960D02*
X1311967Y-13036484D01*
X1311967Y-13036484D02*
X1264348Y-13036484D01*
X1264348Y-13036484D02*
X1245301Y-13026960D01*
X1245301Y-13026960D02*
X1235777Y-13007912D01*
X1235777Y-13007912D02*
X1235777Y-12988865D01*
X1235777Y-12988865D02*
X1245301Y-12969817D01*
X1245301Y-12969817D02*
X1264348Y-12960293D01*
X1264348Y-12960293D02*
X1311967Y-12960293D01*
X1311967Y-12960293D02*
X1331015Y-12950769D01*
X1426253Y-12903150D02*
X1426253Y-13103150D01*
X1426253Y-12912674D02*
X1445301Y-12903150D01*
X1445301Y-12903150D02*
X1483396Y-12903150D01*
X1483396Y-12903150D02*
X1502443Y-12912674D01*
X1502443Y-12912674D02*
X1511967Y-12922198D01*
X1511967Y-12922198D02*
X1521491Y-12941246D01*
X1521491Y-12941246D02*
X1521491Y-12998388D01*
X1521491Y-12998388D02*
X1511967Y-13017436D01*
X1511967Y-13017436D02*
X1502443Y-13026960D01*
X1502443Y-13026960D02*
X1483396Y-13036484D01*
X1483396Y-13036484D02*
X1445301Y-13036484D01*
X1445301Y-13036484D02*
X1426253Y-13026960D01*
X1607205Y-13017436D02*
X1616729Y-13026960D01*
X1616729Y-13026960D02*
X1607205Y-13036484D01*
X1607205Y-13036484D02*
X1597682Y-13026960D01*
X1597682Y-13026960D02*
X1607205Y-13017436D01*
X1607205Y-13017436D02*
X1607205Y-13036484D01*
X1607205Y-12912674D02*
X1616729Y-12922198D01*
X1616729Y-12922198D02*
X1607205Y-12931722D01*
X1607205Y-12931722D02*
X1597682Y-12922198D01*
X1597682Y-12922198D02*
X1607205Y-12912674D01*
X1607205Y-12912674D02*
X1607205Y-12931722D01*
D12*
X-75000Y-13340000D02*
X-25000Y-13390000D01*
X-25000Y-13340000D02*
X-75000Y-13390000D01*
D11*
X273872Y-13256484D02*
X292920Y-13256484D01*
X292920Y-13256484D02*
X311967Y-13266008D01*
X311967Y-13266008D02*
X321491Y-13275531D01*
X321491Y-13275531D02*
X331015Y-13294579D01*
X331015Y-13294579D02*
X340539Y-13332674D01*
X340539Y-13332674D02*
X340539Y-13380293D01*
X340539Y-13380293D02*
X331015Y-13418388D01*
X331015Y-13418388D02*
X321491Y-13437436D01*
X321491Y-13437436D02*
X311967Y-13446960D01*
X311967Y-13446960D02*
X292920Y-13456484D01*
X292920Y-13456484D02*
X273872Y-13456484D01*
X273872Y-13456484D02*
X254824Y-13446960D01*
X254824Y-13446960D02*
X245301Y-13437436D01*
X245301Y-13437436D02*
X235777Y-13418388D01*
X235777Y-13418388D02*
X226253Y-13380293D01*
X226253Y-13380293D02*
X226253Y-13332674D01*
X226253Y-13332674D02*
X235777Y-13294579D01*
X235777Y-13294579D02*
X245301Y-13275531D01*
X245301Y-13275531D02*
X254824Y-13266008D01*
X254824Y-13266008D02*
X273872Y-13256484D01*
X426253Y-13437436D02*
X435777Y-13446960D01*
X435777Y-13446960D02*
X426253Y-13456484D01*
X426253Y-13456484D02*
X416729Y-13446960D01*
X416729Y-13446960D02*
X426253Y-13437436D01*
X426253Y-13437436D02*
X426253Y-13456484D01*
X616729Y-13256484D02*
X521491Y-13256484D01*
X521491Y-13256484D02*
X511967Y-13351722D01*
X511967Y-13351722D02*
X521491Y-13342198D01*
X521491Y-13342198D02*
X540539Y-13332674D01*
X540539Y-13332674D02*
X588158Y-13332674D01*
X588158Y-13332674D02*
X607205Y-13342198D01*
X607205Y-13342198D02*
X616729Y-13351722D01*
X616729Y-13351722D02*
X626253Y-13370769D01*
X626253Y-13370769D02*
X626253Y-13418388D01*
X626253Y-13418388D02*
X616729Y-13437436D01*
X616729Y-13437436D02*
X607205Y-13446960D01*
X607205Y-13446960D02*
X588158Y-13456484D01*
X588158Y-13456484D02*
X540539Y-13456484D01*
X540539Y-13456484D02*
X521491Y-13446960D01*
X521491Y-13446960D02*
X511967Y-13437436D01*
X750062Y-13256484D02*
X769110Y-13256484D01*
X769110Y-13256484D02*
X788158Y-13266008D01*
X788158Y-13266008D02*
X797682Y-13275531D01*
X797682Y-13275531D02*
X807205Y-13294579D01*
X807205Y-13294579D02*
X816729Y-13332674D01*
X816729Y-13332674D02*
X816729Y-13380293D01*
X816729Y-13380293D02*
X807205Y-13418388D01*
X807205Y-13418388D02*
X797682Y-13437436D01*
X797682Y-13437436D02*
X788158Y-13446960D01*
X788158Y-13446960D02*
X769110Y-13456484D01*
X769110Y-13456484D02*
X750062Y-13456484D01*
X750062Y-13456484D02*
X731015Y-13446960D01*
X731015Y-13446960D02*
X721491Y-13437436D01*
X721491Y-13437436D02*
X711967Y-13418388D01*
X711967Y-13418388D02*
X702443Y-13380293D01*
X702443Y-13380293D02*
X702443Y-13332674D01*
X702443Y-13332674D02*
X711967Y-13294579D01*
X711967Y-13294579D02*
X721491Y-13275531D01*
X721491Y-13275531D02*
X731015Y-13266008D01*
X731015Y-13266008D02*
X750062Y-13256484D01*
X940539Y-13256484D02*
X959586Y-13256484D01*
X959586Y-13256484D02*
X978634Y-13266008D01*
X978634Y-13266008D02*
X988158Y-13275531D01*
X988158Y-13275531D02*
X997682Y-13294579D01*
X997682Y-13294579D02*
X1007205Y-13332674D01*
X1007205Y-13332674D02*
X1007205Y-13380293D01*
X1007205Y-13380293D02*
X997682Y-13418388D01*
X997682Y-13418388D02*
X988158Y-13437436D01*
X988158Y-13437436D02*
X978634Y-13446960D01*
X978634Y-13446960D02*
X959586Y-13456484D01*
X959586Y-13456484D02*
X940539Y-13456484D01*
X940539Y-13456484D02*
X921491Y-13446960D01*
X921491Y-13446960D02*
X911967Y-13437436D01*
X911967Y-13437436D02*
X902443Y-13418388D01*
X902443Y-13418388D02*
X892920Y-13380293D01*
X892920Y-13380293D02*
X892920Y-13332674D01*
X892920Y-13332674D02*
X902443Y-13294579D01*
X902443Y-13294579D02*
X911967Y-13275531D01*
X911967Y-13275531D02*
X921491Y-13266008D01*
X921491Y-13266008D02*
X940539Y-13256484D01*
X1092920Y-13456484D02*
X1092920Y-13323150D01*
X1092920Y-13342198D02*
X1102444Y-13332674D01*
X1102444Y-13332674D02*
X1121491Y-13323150D01*
X1121491Y-13323150D02*
X1150063Y-13323150D01*
X1150063Y-13323150D02*
X1169110Y-13332674D01*
X1169110Y-13332674D02*
X1178634Y-13351722D01*
X1178634Y-13351722D02*
X1178634Y-13456484D01*
X1178634Y-13351722D02*
X1188158Y-13332674D01*
X1188158Y-13332674D02*
X1207205Y-13323150D01*
X1207205Y-13323150D02*
X1235777Y-13323150D01*
X1235777Y-13323150D02*
X1254825Y-13332674D01*
X1254825Y-13332674D02*
X1264348Y-13351722D01*
X1264348Y-13351722D02*
X1264348Y-13456484D01*
X1359586Y-13456484D02*
X1359586Y-13323150D01*
X1359586Y-13342198D02*
X1369110Y-13332674D01*
X1369110Y-13332674D02*
X1388158Y-13323150D01*
X1388158Y-13323150D02*
X1416729Y-13323150D01*
X1416729Y-13323150D02*
X1435777Y-13332674D01*
X1435777Y-13332674D02*
X1445301Y-13351722D01*
X1445301Y-13351722D02*
X1445301Y-13456484D01*
X1445301Y-13351722D02*
X1454824Y-13332674D01*
X1454824Y-13332674D02*
X1473872Y-13323150D01*
X1473872Y-13323150D02*
X1502443Y-13323150D01*
X1502443Y-13323150D02*
X1521491Y-13332674D01*
X1521491Y-13332674D02*
X1531015Y-13351722D01*
X1531015Y-13351722D02*
X1531015Y-13456484D01*
X1921491Y-13246960D02*
X1750063Y-13504103D01*
X2178634Y-13256484D02*
X2197682Y-13256484D01*
X2197682Y-13256484D02*
X2216729Y-13266008D01*
X2216729Y-13266008D02*
X2226253Y-13275531D01*
X2226253Y-13275531D02*
X2235777Y-13294579D01*
X2235777Y-13294579D02*
X2245301Y-13332674D01*
X2245301Y-13332674D02*
X2245301Y-13380293D01*
X2245301Y-13380293D02*
X2235777Y-13418388D01*
X2235777Y-13418388D02*
X2226253Y-13437436D01*
X2226253Y-13437436D02*
X2216729Y-13446960D01*
X2216729Y-13446960D02*
X2197682Y-13456484D01*
X2197682Y-13456484D02*
X2178634Y-13456484D01*
X2178634Y-13456484D02*
X2159587Y-13446960D01*
X2159587Y-13446960D02*
X2150063Y-13437436D01*
X2150063Y-13437436D02*
X2140539Y-13418388D01*
X2140539Y-13418388D02*
X2131015Y-13380293D01*
X2131015Y-13380293D02*
X2131015Y-13332674D01*
X2131015Y-13332674D02*
X2140539Y-13294579D01*
X2140539Y-13294579D02*
X2150063Y-13275531D01*
X2150063Y-13275531D02*
X2159587Y-13266008D01*
X2159587Y-13266008D02*
X2178634Y-13256484D01*
X2331015Y-13437436D02*
X2340539Y-13446960D01*
X2340539Y-13446960D02*
X2331015Y-13456484D01*
X2331015Y-13456484D02*
X2321491Y-13446960D01*
X2321491Y-13446960D02*
X2331015Y-13437436D01*
X2331015Y-13437436D02*
X2331015Y-13456484D01*
X2464348Y-13256484D02*
X2483396Y-13256484D01*
X2483396Y-13256484D02*
X2502444Y-13266008D01*
X2502444Y-13266008D02*
X2511968Y-13275531D01*
X2511968Y-13275531D02*
X2521491Y-13294579D01*
X2521491Y-13294579D02*
X2531015Y-13332674D01*
X2531015Y-13332674D02*
X2531015Y-13380293D01*
X2531015Y-13380293D02*
X2521491Y-13418388D01*
X2521491Y-13418388D02*
X2511968Y-13437436D01*
X2511968Y-13437436D02*
X2502444Y-13446960D01*
X2502444Y-13446960D02*
X2483396Y-13456484D01*
X2483396Y-13456484D02*
X2464348Y-13456484D01*
X2464348Y-13456484D02*
X2445301Y-13446960D01*
X2445301Y-13446960D02*
X2435777Y-13437436D01*
X2435777Y-13437436D02*
X2426253Y-13418388D01*
X2426253Y-13418388D02*
X2416729Y-13380293D01*
X2416729Y-13380293D02*
X2416729Y-13332674D01*
X2416729Y-13332674D02*
X2426253Y-13294579D01*
X2426253Y-13294579D02*
X2435777Y-13275531D01*
X2435777Y-13275531D02*
X2445301Y-13266008D01*
X2445301Y-13266008D02*
X2464348Y-13256484D01*
X2721491Y-13456484D02*
X2607206Y-13456484D01*
X2664348Y-13456484D02*
X2664348Y-13256484D01*
X2664348Y-13256484D02*
X2645301Y-13285055D01*
X2645301Y-13285055D02*
X2626253Y-13304103D01*
X2626253Y-13304103D02*
X2607206Y-13313627D01*
X2816729Y-13456484D02*
X2854825Y-13456484D01*
X2854825Y-13456484D02*
X2873872Y-13446960D01*
X2873872Y-13446960D02*
X2883396Y-13437436D01*
X2883396Y-13437436D02*
X2902444Y-13408865D01*
X2902444Y-13408865D02*
X2911967Y-13370769D01*
X2911967Y-13370769D02*
X2911967Y-13294579D01*
X2911967Y-13294579D02*
X2902444Y-13275531D01*
X2902444Y-13275531D02*
X2892920Y-13266008D01*
X2892920Y-13266008D02*
X2873872Y-13256484D01*
X2873872Y-13256484D02*
X2835777Y-13256484D01*
X2835777Y-13256484D02*
X2816729Y-13266008D01*
X2816729Y-13266008D02*
X2807206Y-13275531D01*
X2807206Y-13275531D02*
X2797682Y-13294579D01*
X2797682Y-13294579D02*
X2797682Y-13342198D01*
X2797682Y-13342198D02*
X2807206Y-13361246D01*
X2807206Y-13361246D02*
X2816729Y-13370769D01*
X2816729Y-13370769D02*
X2835777Y-13380293D01*
X2835777Y-13380293D02*
X2873872Y-13380293D01*
X2873872Y-13380293D02*
X2892920Y-13370769D01*
X2892920Y-13370769D02*
X2902444Y-13361246D01*
X2902444Y-13361246D02*
X2911967Y-13342198D01*
X2978634Y-13256484D02*
X3111967Y-13256484D01*
X3111967Y-13256484D02*
X3026253Y-13456484D01*
X3178634Y-13256484D02*
X3178634Y-13294579D01*
X3254825Y-13256484D02*
X3254825Y-13294579D01*
X3550063Y-13532674D02*
X3540539Y-13523150D01*
X3540539Y-13523150D02*
X3521491Y-13494579D01*
X3521491Y-13494579D02*
X3511968Y-13475531D01*
X3511968Y-13475531D02*
X3502444Y-13446960D01*
X3502444Y-13446960D02*
X3492920Y-13399341D01*
X3492920Y-13399341D02*
X3492920Y-13361246D01*
X3492920Y-13361246D02*
X3502444Y-13313627D01*
X3502444Y-13313627D02*
X3511968Y-13285055D01*
X3511968Y-13285055D02*
X3521491Y-13266008D01*
X3521491Y-13266008D02*
X3540539Y-13237436D01*
X3540539Y-13237436D02*
X3550063Y-13227912D01*
X3731015Y-13456484D02*
X3616729Y-13456484D01*
X3673872Y-13456484D02*
X3673872Y-13256484D01*
X3673872Y-13256484D02*
X3654825Y-13285055D01*
X3654825Y-13285055D02*
X3635777Y-13304103D01*
X3635777Y-13304103D02*
X3616729Y-13313627D01*
X3969110Y-13456484D02*
X3969110Y-13256484D01*
X4054825Y-13456484D02*
X4054825Y-13351722D01*
X4054825Y-13351722D02*
X4045301Y-13332674D01*
X4045301Y-13332674D02*
X4026253Y-13323150D01*
X4026253Y-13323150D02*
X3997682Y-13323150D01*
X3997682Y-13323150D02*
X3978634Y-13332674D01*
X3978634Y-13332674D02*
X3969110Y-13342198D01*
X4178634Y-13456484D02*
X4159587Y-13446960D01*
X4159587Y-13446960D02*
X4150063Y-13437436D01*
X4150063Y-13437436D02*
X4140539Y-13418388D01*
X4140539Y-13418388D02*
X4140539Y-13361246D01*
X4140539Y-13361246D02*
X4150063Y-13342198D01*
X4150063Y-13342198D02*
X4159587Y-13332674D01*
X4159587Y-13332674D02*
X4178634Y-13323150D01*
X4178634Y-13323150D02*
X4207206Y-13323150D01*
X4207206Y-13323150D02*
X4226253Y-13332674D01*
X4226253Y-13332674D02*
X4235777Y-13342198D01*
X4235777Y-13342198D02*
X4245301Y-13361246D01*
X4245301Y-13361246D02*
X4245301Y-13418388D01*
X4245301Y-13418388D02*
X4235777Y-13437436D01*
X4235777Y-13437436D02*
X4226253Y-13446960D01*
X4226253Y-13446960D02*
X4207206Y-13456484D01*
X4207206Y-13456484D02*
X4178634Y-13456484D01*
X4359587Y-13456484D02*
X4340539Y-13446960D01*
X4340539Y-13446960D02*
X4331015Y-13427912D01*
X4331015Y-13427912D02*
X4331015Y-13256484D01*
X4511968Y-13446960D02*
X4492920Y-13456484D01*
X4492920Y-13456484D02*
X4454825Y-13456484D01*
X4454825Y-13456484D02*
X4435777Y-13446960D01*
X4435777Y-13446960D02*
X4426253Y-13427912D01*
X4426253Y-13427912D02*
X4426253Y-13351722D01*
X4426253Y-13351722D02*
X4435777Y-13332674D01*
X4435777Y-13332674D02*
X4454825Y-13323150D01*
X4454825Y-13323150D02*
X4492920Y-13323150D01*
X4492920Y-13323150D02*
X4511968Y-13332674D01*
X4511968Y-13332674D02*
X4521492Y-13351722D01*
X4521492Y-13351722D02*
X4521492Y-13370769D01*
X4521492Y-13370769D02*
X4426253Y-13389817D01*
X4588158Y-13532674D02*
X4597682Y-13523150D01*
X4597682Y-13523150D02*
X4616730Y-13494579D01*
X4616730Y-13494579D02*
X4626253Y-13475531D01*
X4626253Y-13475531D02*
X4635777Y-13446960D01*
X4635777Y-13446960D02*
X4645301Y-13399341D01*
X4645301Y-13399341D02*
X4645301Y-13361246D01*
X4645301Y-13361246D02*
X4635777Y-13313627D01*
X4635777Y-13313627D02*
X4626253Y-13285055D01*
X4626253Y-13285055D02*
X4616730Y-13266008D01*
X4616730Y-13266008D02*
X4597682Y-13237436D01*
X4597682Y-13237436D02*
X4588158Y-13227912D01*
X4950063Y-13532674D02*
X4940539Y-13523150D01*
X4940539Y-13523150D02*
X4921492Y-13494579D01*
X4921492Y-13494579D02*
X4911968Y-13475531D01*
X4911968Y-13475531D02*
X4902444Y-13446960D01*
X4902444Y-13446960D02*
X4892920Y-13399341D01*
X4892920Y-13399341D02*
X4892920Y-13361246D01*
X4892920Y-13361246D02*
X4902444Y-13313627D01*
X4902444Y-13313627D02*
X4911968Y-13285055D01*
X4911968Y-13285055D02*
X4921492Y-13266008D01*
X4921492Y-13266008D02*
X4940539Y-13237436D01*
X4940539Y-13237436D02*
X4950063Y-13227912D01*
X5026253Y-13323150D02*
X5026253Y-13456484D01*
X5026253Y-13342198D02*
X5035777Y-13332674D01*
X5035777Y-13332674D02*
X5054825Y-13323150D01*
X5054825Y-13323150D02*
X5083396Y-13323150D01*
X5083396Y-13323150D02*
X5102444Y-13332674D01*
X5102444Y-13332674D02*
X5111968Y-13351722D01*
X5111968Y-13351722D02*
X5111968Y-13456484D01*
X5235777Y-13456484D02*
X5216730Y-13446960D01*
X5216730Y-13446960D02*
X5207206Y-13437436D01*
X5207206Y-13437436D02*
X5197682Y-13418388D01*
X5197682Y-13418388D02*
X5197682Y-13361246D01*
X5197682Y-13361246D02*
X5207206Y-13342198D01*
X5207206Y-13342198D02*
X5216730Y-13332674D01*
X5216730Y-13332674D02*
X5235777Y-13323150D01*
X5235777Y-13323150D02*
X5264349Y-13323150D01*
X5264349Y-13323150D02*
X5283396Y-13332674D01*
X5283396Y-13332674D02*
X5292920Y-13342198D01*
X5292920Y-13342198D02*
X5302444Y-13361246D01*
X5302444Y-13361246D02*
X5302444Y-13418388D01*
X5302444Y-13418388D02*
X5292920Y-13437436D01*
X5292920Y-13437436D02*
X5283396Y-13446960D01*
X5283396Y-13446960D02*
X5264349Y-13456484D01*
X5264349Y-13456484D02*
X5235777Y-13456484D01*
X5359587Y-13323150D02*
X5435777Y-13323150D01*
X5388158Y-13256484D02*
X5388158Y-13427912D01*
X5388158Y-13427912D02*
X5397682Y-13446960D01*
X5397682Y-13446960D02*
X5416730Y-13456484D01*
X5416730Y-13456484D02*
X5435777Y-13456484D01*
X5654825Y-13323150D02*
X5654825Y-13523150D01*
X5654825Y-13332674D02*
X5673872Y-13323150D01*
X5673872Y-13323150D02*
X5711968Y-13323150D01*
X5711968Y-13323150D02*
X5731015Y-13332674D01*
X5731015Y-13332674D02*
X5740539Y-13342198D01*
X5740539Y-13342198D02*
X5750063Y-13361246D01*
X5750063Y-13361246D02*
X5750063Y-13418388D01*
X5750063Y-13418388D02*
X5740539Y-13437436D01*
X5740539Y-13437436D02*
X5731015Y-13446960D01*
X5731015Y-13446960D02*
X5711968Y-13456484D01*
X5711968Y-13456484D02*
X5673872Y-13456484D01*
X5673872Y-13456484D02*
X5654825Y-13446960D01*
X5864349Y-13456484D02*
X5845301Y-13446960D01*
X5845301Y-13446960D02*
X5835777Y-13427912D01*
X5835777Y-13427912D02*
X5835777Y-13256484D01*
X6026253Y-13456484D02*
X6026253Y-13351722D01*
X6026253Y-13351722D02*
X6016730Y-13332674D01*
X6016730Y-13332674D02*
X5997682Y-13323150D01*
X5997682Y-13323150D02*
X5959587Y-13323150D01*
X5959587Y-13323150D02*
X5940539Y-13332674D01*
X6026253Y-13446960D02*
X6007206Y-13456484D01*
X6007206Y-13456484D02*
X5959587Y-13456484D01*
X5959587Y-13456484D02*
X5940539Y-13446960D01*
X5940539Y-13446960D02*
X5931015Y-13427912D01*
X5931015Y-13427912D02*
X5931015Y-13408865D01*
X5931015Y-13408865D02*
X5940539Y-13389817D01*
X5940539Y-13389817D02*
X5959587Y-13380293D01*
X5959587Y-13380293D02*
X6007206Y-13380293D01*
X6007206Y-13380293D02*
X6026253Y-13370769D01*
X6092920Y-13323150D02*
X6169111Y-13323150D01*
X6121492Y-13256484D02*
X6121492Y-13427912D01*
X6121492Y-13427912D02*
X6131015Y-13446960D01*
X6131015Y-13446960D02*
X6150063Y-13456484D01*
X6150063Y-13456484D02*
X6169111Y-13456484D01*
X6311968Y-13446960D02*
X6292920Y-13456484D01*
X6292920Y-13456484D02*
X6254825Y-13456484D01*
X6254825Y-13456484D02*
X6235777Y-13446960D01*
X6235777Y-13446960D02*
X6226253Y-13427912D01*
X6226253Y-13427912D02*
X6226253Y-13351722D01*
X6226253Y-13351722D02*
X6235777Y-13332674D01*
X6235777Y-13332674D02*
X6254825Y-13323150D01*
X6254825Y-13323150D02*
X6292920Y-13323150D01*
X6292920Y-13323150D02*
X6311968Y-13332674D01*
X6311968Y-13332674D02*
X6321492Y-13351722D01*
X6321492Y-13351722D02*
X6321492Y-13370769D01*
X6321492Y-13370769D02*
X6226253Y-13389817D01*
X6492920Y-13456484D02*
X6492920Y-13256484D01*
X6492920Y-13446960D02*
X6473873Y-13456484D01*
X6473873Y-13456484D02*
X6435777Y-13456484D01*
X6435777Y-13456484D02*
X6416730Y-13446960D01*
X6416730Y-13446960D02*
X6407206Y-13437436D01*
X6407206Y-13437436D02*
X6397682Y-13418388D01*
X6397682Y-13418388D02*
X6397682Y-13361246D01*
X6397682Y-13361246D02*
X6407206Y-13342198D01*
X6407206Y-13342198D02*
X6416730Y-13332674D01*
X6416730Y-13332674D02*
X6435777Y-13323150D01*
X6435777Y-13323150D02*
X6473873Y-13323150D01*
X6473873Y-13323150D02*
X6492920Y-13332674D01*
X6569111Y-13532674D02*
X6578634Y-13523150D01*
X6578634Y-13523150D02*
X6597682Y-13494579D01*
X6597682Y-13494579D02*
X6607206Y-13475531D01*
X6607206Y-13475531D02*
X6616730Y-13446960D01*
X6616730Y-13446960D02*
X6626253Y-13399341D01*
X6626253Y-13399341D02*
X6626253Y-13361246D01*
X6626253Y-13361246D02*
X6616730Y-13313627D01*
X6616730Y-13313627D02*
X6607206Y-13285055D01*
X6607206Y-13285055D02*
X6597682Y-13266008D01*
X6597682Y-13266008D02*
X6578634Y-13237436D01*
X6578634Y-13237436D02*
X6569111Y-13227912D01*
D13*
X-25000Y-13629000D02*
G75*
G02*
X-127000Y-13629000I-51000J0D01*
G01*
X-127000Y-13629000D02*
G75*
G02*
X-25000Y-13629000I51000J0D01*
G01*
D11*
X340539Y-13720484D02*
X226253Y-13720484D01*
X283396Y-13720484D02*
X283396Y-13520484D01*
X283396Y-13520484D02*
X264348Y-13549055D01*
X264348Y-13549055D02*
X245301Y-13568103D01*
X245301Y-13568103D02*
X226253Y-13577627D01*
X426253Y-13701436D02*
X435777Y-13710960D01*
X435777Y-13710960D02*
X426253Y-13720484D01*
X426253Y-13720484D02*
X416729Y-13710960D01*
X416729Y-13710960D02*
X426253Y-13701436D01*
X426253Y-13701436D02*
X426253Y-13720484D01*
X559586Y-13520484D02*
X578634Y-13520484D01*
X578634Y-13520484D02*
X597682Y-13530008D01*
X597682Y-13530008D02*
X607205Y-13539531D01*
X607205Y-13539531D02*
X616729Y-13558579D01*
X616729Y-13558579D02*
X626253Y-13596674D01*
X626253Y-13596674D02*
X626253Y-13644293D01*
X626253Y-13644293D02*
X616729Y-13682388D01*
X616729Y-13682388D02*
X607205Y-13701436D01*
X607205Y-13701436D02*
X597682Y-13710960D01*
X597682Y-13710960D02*
X578634Y-13720484D01*
X578634Y-13720484D02*
X559586Y-13720484D01*
X559586Y-13720484D02*
X540539Y-13710960D01*
X540539Y-13710960D02*
X531015Y-13701436D01*
X531015Y-13701436D02*
X521491Y-13682388D01*
X521491Y-13682388D02*
X511967Y-13644293D01*
X511967Y-13644293D02*
X511967Y-13596674D01*
X511967Y-13596674D02*
X521491Y-13558579D01*
X521491Y-13558579D02*
X531015Y-13539531D01*
X531015Y-13539531D02*
X540539Y-13530008D01*
X540539Y-13530008D02*
X559586Y-13520484D01*
X702443Y-13539531D02*
X711967Y-13530008D01*
X711967Y-13530008D02*
X731015Y-13520484D01*
X731015Y-13520484D02*
X778634Y-13520484D01*
X778634Y-13520484D02*
X797682Y-13530008D01*
X797682Y-13530008D02*
X807205Y-13539531D01*
X807205Y-13539531D02*
X816729Y-13558579D01*
X816729Y-13558579D02*
X816729Y-13577627D01*
X816729Y-13577627D02*
X807205Y-13606198D01*
X807205Y-13606198D02*
X692920Y-13720484D01*
X692920Y-13720484D02*
X816729Y-13720484D01*
X940539Y-13520484D02*
X959586Y-13520484D01*
X959586Y-13520484D02*
X978634Y-13530008D01*
X978634Y-13530008D02*
X988158Y-13539531D01*
X988158Y-13539531D02*
X997682Y-13558579D01*
X997682Y-13558579D02*
X1007205Y-13596674D01*
X1007205Y-13596674D02*
X1007205Y-13644293D01*
X1007205Y-13644293D02*
X997682Y-13682388D01*
X997682Y-13682388D02*
X988158Y-13701436D01*
X988158Y-13701436D02*
X978634Y-13710960D01*
X978634Y-13710960D02*
X959586Y-13720484D01*
X959586Y-13720484D02*
X940539Y-13720484D01*
X940539Y-13720484D02*
X921491Y-13710960D01*
X921491Y-13710960D02*
X911967Y-13701436D01*
X911967Y-13701436D02*
X902443Y-13682388D01*
X902443Y-13682388D02*
X892920Y-13644293D01*
X892920Y-13644293D02*
X892920Y-13596674D01*
X892920Y-13596674D02*
X902443Y-13558579D01*
X902443Y-13558579D02*
X911967Y-13539531D01*
X911967Y-13539531D02*
X921491Y-13530008D01*
X921491Y-13530008D02*
X940539Y-13520484D01*
X1092920Y-13720484D02*
X1092920Y-13587150D01*
X1092920Y-13606198D02*
X1102444Y-13596674D01*
X1102444Y-13596674D02*
X1121491Y-13587150D01*
X1121491Y-13587150D02*
X1150063Y-13587150D01*
X1150063Y-13587150D02*
X1169110Y-13596674D01*
X1169110Y-13596674D02*
X1178634Y-13615722D01*
X1178634Y-13615722D02*
X1178634Y-13720484D01*
X1178634Y-13615722D02*
X1188158Y-13596674D01*
X1188158Y-13596674D02*
X1207205Y-13587150D01*
X1207205Y-13587150D02*
X1235777Y-13587150D01*
X1235777Y-13587150D02*
X1254825Y-13596674D01*
X1254825Y-13596674D02*
X1264348Y-13615722D01*
X1264348Y-13615722D02*
X1264348Y-13720484D01*
X1359586Y-13720484D02*
X1359586Y-13587150D01*
X1359586Y-13606198D02*
X1369110Y-13596674D01*
X1369110Y-13596674D02*
X1388158Y-13587150D01*
X1388158Y-13587150D02*
X1416729Y-13587150D01*
X1416729Y-13587150D02*
X1435777Y-13596674D01*
X1435777Y-13596674D02*
X1445301Y-13615722D01*
X1445301Y-13615722D02*
X1445301Y-13720484D01*
X1445301Y-13615722D02*
X1454824Y-13596674D01*
X1454824Y-13596674D02*
X1473872Y-13587150D01*
X1473872Y-13587150D02*
X1502443Y-13587150D01*
X1502443Y-13587150D02*
X1521491Y-13596674D01*
X1521491Y-13596674D02*
X1531015Y-13615722D01*
X1531015Y-13615722D02*
X1531015Y-13720484D01*
X1921491Y-13510960D02*
X1750063Y-13768103D01*
X2178634Y-13520484D02*
X2197682Y-13520484D01*
X2197682Y-13520484D02*
X2216729Y-13530008D01*
X2216729Y-13530008D02*
X2226253Y-13539531D01*
X2226253Y-13539531D02*
X2235777Y-13558579D01*
X2235777Y-13558579D02*
X2245301Y-13596674D01*
X2245301Y-13596674D02*
X2245301Y-13644293D01*
X2245301Y-13644293D02*
X2235777Y-13682388D01*
X2235777Y-13682388D02*
X2226253Y-13701436D01*
X2226253Y-13701436D02*
X2216729Y-13710960D01*
X2216729Y-13710960D02*
X2197682Y-13720484D01*
X2197682Y-13720484D02*
X2178634Y-13720484D01*
X2178634Y-13720484D02*
X2159587Y-13710960D01*
X2159587Y-13710960D02*
X2150063Y-13701436D01*
X2150063Y-13701436D02*
X2140539Y-13682388D01*
X2140539Y-13682388D02*
X2131015Y-13644293D01*
X2131015Y-13644293D02*
X2131015Y-13596674D01*
X2131015Y-13596674D02*
X2140539Y-13558579D01*
X2140539Y-13558579D02*
X2150063Y-13539531D01*
X2150063Y-13539531D02*
X2159587Y-13530008D01*
X2159587Y-13530008D02*
X2178634Y-13520484D01*
X2331015Y-13701436D02*
X2340539Y-13710960D01*
X2340539Y-13710960D02*
X2331015Y-13720484D01*
X2331015Y-13720484D02*
X2321491Y-13710960D01*
X2321491Y-13710960D02*
X2331015Y-13701436D01*
X2331015Y-13701436D02*
X2331015Y-13720484D01*
X2464348Y-13520484D02*
X2483396Y-13520484D01*
X2483396Y-13520484D02*
X2502444Y-13530008D01*
X2502444Y-13530008D02*
X2511968Y-13539531D01*
X2511968Y-13539531D02*
X2521491Y-13558579D01*
X2521491Y-13558579D02*
X2531015Y-13596674D01*
X2531015Y-13596674D02*
X2531015Y-13644293D01*
X2531015Y-13644293D02*
X2521491Y-13682388D01*
X2521491Y-13682388D02*
X2511968Y-13701436D01*
X2511968Y-13701436D02*
X2502444Y-13710960D01*
X2502444Y-13710960D02*
X2483396Y-13720484D01*
X2483396Y-13720484D02*
X2464348Y-13720484D01*
X2464348Y-13720484D02*
X2445301Y-13710960D01*
X2445301Y-13710960D02*
X2435777Y-13701436D01*
X2435777Y-13701436D02*
X2426253Y-13682388D01*
X2426253Y-13682388D02*
X2416729Y-13644293D01*
X2416729Y-13644293D02*
X2416729Y-13596674D01*
X2416729Y-13596674D02*
X2426253Y-13558579D01*
X2426253Y-13558579D02*
X2435777Y-13539531D01*
X2435777Y-13539531D02*
X2445301Y-13530008D01*
X2445301Y-13530008D02*
X2464348Y-13520484D01*
X2702444Y-13587150D02*
X2702444Y-13720484D01*
X2654825Y-13510960D02*
X2607206Y-13653817D01*
X2607206Y-13653817D02*
X2731015Y-13653817D01*
X2845301Y-13520484D02*
X2864348Y-13520484D01*
X2864348Y-13520484D02*
X2883396Y-13530008D01*
X2883396Y-13530008D02*
X2892920Y-13539531D01*
X2892920Y-13539531D02*
X2902444Y-13558579D01*
X2902444Y-13558579D02*
X2911967Y-13596674D01*
X2911967Y-13596674D02*
X2911967Y-13644293D01*
X2911967Y-13644293D02*
X2902444Y-13682388D01*
X2902444Y-13682388D02*
X2892920Y-13701436D01*
X2892920Y-13701436D02*
X2883396Y-13710960D01*
X2883396Y-13710960D02*
X2864348Y-13720484D01*
X2864348Y-13720484D02*
X2845301Y-13720484D01*
X2845301Y-13720484D02*
X2826253Y-13710960D01*
X2826253Y-13710960D02*
X2816729Y-13701436D01*
X2816729Y-13701436D02*
X2807206Y-13682388D01*
X2807206Y-13682388D02*
X2797682Y-13644293D01*
X2797682Y-13644293D02*
X2797682Y-13596674D01*
X2797682Y-13596674D02*
X2807206Y-13558579D01*
X2807206Y-13558579D02*
X2816729Y-13539531D01*
X2816729Y-13539531D02*
X2826253Y-13530008D01*
X2826253Y-13530008D02*
X2845301Y-13520484D01*
X2988158Y-13539531D02*
X2997682Y-13530008D01*
X2997682Y-13530008D02*
X3016729Y-13520484D01*
X3016729Y-13520484D02*
X3064348Y-13520484D01*
X3064348Y-13520484D02*
X3083396Y-13530008D01*
X3083396Y-13530008D02*
X3092920Y-13539531D01*
X3092920Y-13539531D02*
X3102444Y-13558579D01*
X3102444Y-13558579D02*
X3102444Y-13577627D01*
X3102444Y-13577627D02*
X3092920Y-13606198D01*
X3092920Y-13606198D02*
X2978634Y-13720484D01*
X2978634Y-13720484D02*
X3102444Y-13720484D01*
X3178634Y-13520484D02*
X3178634Y-13558579D01*
X3254825Y-13520484D02*
X3254825Y-13558579D01*
X3550063Y-13796674D02*
X3540539Y-13787150D01*
X3540539Y-13787150D02*
X3521491Y-13758579D01*
X3521491Y-13758579D02*
X3511968Y-13739531D01*
X3511968Y-13739531D02*
X3502444Y-13710960D01*
X3502444Y-13710960D02*
X3492920Y-13663341D01*
X3492920Y-13663341D02*
X3492920Y-13625246D01*
X3492920Y-13625246D02*
X3502444Y-13577627D01*
X3502444Y-13577627D02*
X3511968Y-13549055D01*
X3511968Y-13549055D02*
X3521491Y-13530008D01*
X3521491Y-13530008D02*
X3540539Y-13501436D01*
X3540539Y-13501436D02*
X3550063Y-13491912D01*
X3616729Y-13539531D02*
X3626253Y-13530008D01*
X3626253Y-13530008D02*
X3645301Y-13520484D01*
X3645301Y-13520484D02*
X3692920Y-13520484D01*
X3692920Y-13520484D02*
X3711968Y-13530008D01*
X3711968Y-13530008D02*
X3721491Y-13539531D01*
X3721491Y-13539531D02*
X3731015Y-13558579D01*
X3731015Y-13558579D02*
X3731015Y-13577627D01*
X3731015Y-13577627D02*
X3721491Y-13606198D01*
X3721491Y-13606198D02*
X3607206Y-13720484D01*
X3607206Y-13720484D02*
X3731015Y-13720484D01*
X3969110Y-13720484D02*
X3969110Y-13520484D01*
X4054825Y-13720484D02*
X4054825Y-13615722D01*
X4054825Y-13615722D02*
X4045301Y-13596674D01*
X4045301Y-13596674D02*
X4026253Y-13587150D01*
X4026253Y-13587150D02*
X3997682Y-13587150D01*
X3997682Y-13587150D02*
X3978634Y-13596674D01*
X3978634Y-13596674D02*
X3969110Y-13606198D01*
X4178634Y-13720484D02*
X4159587Y-13710960D01*
X4159587Y-13710960D02*
X4150063Y-13701436D01*
X4150063Y-13701436D02*
X4140539Y-13682388D01*
X4140539Y-13682388D02*
X4140539Y-13625246D01*
X4140539Y-13625246D02*
X4150063Y-13606198D01*
X4150063Y-13606198D02*
X4159587Y-13596674D01*
X4159587Y-13596674D02*
X4178634Y-13587150D01*
X4178634Y-13587150D02*
X4207206Y-13587150D01*
X4207206Y-13587150D02*
X4226253Y-13596674D01*
X4226253Y-13596674D02*
X4235777Y-13606198D01*
X4235777Y-13606198D02*
X4245301Y-13625246D01*
X4245301Y-13625246D02*
X4245301Y-13682388D01*
X4245301Y-13682388D02*
X4235777Y-13701436D01*
X4235777Y-13701436D02*
X4226253Y-13710960D01*
X4226253Y-13710960D02*
X4207206Y-13720484D01*
X4207206Y-13720484D02*
X4178634Y-13720484D01*
X4359587Y-13720484D02*
X4340539Y-13710960D01*
X4340539Y-13710960D02*
X4331015Y-13691912D01*
X4331015Y-13691912D02*
X4331015Y-13520484D01*
X4511968Y-13710960D02*
X4492920Y-13720484D01*
X4492920Y-13720484D02*
X4454825Y-13720484D01*
X4454825Y-13720484D02*
X4435777Y-13710960D01*
X4435777Y-13710960D02*
X4426253Y-13691912D01*
X4426253Y-13691912D02*
X4426253Y-13615722D01*
X4426253Y-13615722D02*
X4435777Y-13596674D01*
X4435777Y-13596674D02*
X4454825Y-13587150D01*
X4454825Y-13587150D02*
X4492920Y-13587150D01*
X4492920Y-13587150D02*
X4511968Y-13596674D01*
X4511968Y-13596674D02*
X4521492Y-13615722D01*
X4521492Y-13615722D02*
X4521492Y-13634769D01*
X4521492Y-13634769D02*
X4426253Y-13653817D01*
X4597682Y-13710960D02*
X4616730Y-13720484D01*
X4616730Y-13720484D02*
X4654825Y-13720484D01*
X4654825Y-13720484D02*
X4673873Y-13710960D01*
X4673873Y-13710960D02*
X4683396Y-13691912D01*
X4683396Y-13691912D02*
X4683396Y-13682388D01*
X4683396Y-13682388D02*
X4673873Y-13663341D01*
X4673873Y-13663341D02*
X4654825Y-13653817D01*
X4654825Y-13653817D02*
X4626253Y-13653817D01*
X4626253Y-13653817D02*
X4607206Y-13644293D01*
X4607206Y-13644293D02*
X4597682Y-13625246D01*
X4597682Y-13625246D02*
X4597682Y-13615722D01*
X4597682Y-13615722D02*
X4607206Y-13596674D01*
X4607206Y-13596674D02*
X4626253Y-13587150D01*
X4626253Y-13587150D02*
X4654825Y-13587150D01*
X4654825Y-13587150D02*
X4673873Y-13596674D01*
X4750063Y-13796674D02*
X4759587Y-13787150D01*
X4759587Y-13787150D02*
X4778634Y-13758579D01*
X4778634Y-13758579D02*
X4788158Y-13739531D01*
X4788158Y-13739531D02*
X4797682Y-13710960D01*
X4797682Y-13710960D02*
X4807206Y-13663341D01*
X4807206Y-13663341D02*
X4807206Y-13625246D01*
X4807206Y-13625246D02*
X4797682Y-13577627D01*
X4797682Y-13577627D02*
X4788158Y-13549055D01*
X4788158Y-13549055D02*
X4778634Y-13530008D01*
X4778634Y-13530008D02*
X4759587Y-13501436D01*
X4759587Y-13501436D02*
X4750063Y-13491912D01*
X5111968Y-13796674D02*
X5102444Y-13787150D01*
X5102444Y-13787150D02*
X5083396Y-13758579D01*
X5083396Y-13758579D02*
X5073873Y-13739531D01*
X5073873Y-13739531D02*
X5064349Y-13710960D01*
X5064349Y-13710960D02*
X5054825Y-13663341D01*
X5054825Y-13663341D02*
X5054825Y-13625246D01*
X5054825Y-13625246D02*
X5064349Y-13577627D01*
X5064349Y-13577627D02*
X5073873Y-13549055D01*
X5073873Y-13549055D02*
X5083396Y-13530008D01*
X5083396Y-13530008D02*
X5102444Y-13501436D01*
X5102444Y-13501436D02*
X5111968Y-13491912D01*
X5188158Y-13587150D02*
X5188158Y-13720484D01*
X5188158Y-13606198D02*
X5197682Y-13596674D01*
X5197682Y-13596674D02*
X5216730Y-13587150D01*
X5216730Y-13587150D02*
X5245301Y-13587150D01*
X5245301Y-13587150D02*
X5264349Y-13596674D01*
X5264349Y-13596674D02*
X5273873Y-13615722D01*
X5273873Y-13615722D02*
X5273873Y-13720484D01*
X5397682Y-13720484D02*
X5378634Y-13710960D01*
X5378634Y-13710960D02*
X5369111Y-13701436D01*
X5369111Y-13701436D02*
X5359587Y-13682388D01*
X5359587Y-13682388D02*
X5359587Y-13625246D01*
X5359587Y-13625246D02*
X5369111Y-13606198D01*
X5369111Y-13606198D02*
X5378634Y-13596674D01*
X5378634Y-13596674D02*
X5397682Y-13587150D01*
X5397682Y-13587150D02*
X5426254Y-13587150D01*
X5426254Y-13587150D02*
X5445301Y-13596674D01*
X5445301Y-13596674D02*
X5454825Y-13606198D01*
X5454825Y-13606198D02*
X5464349Y-13625246D01*
X5464349Y-13625246D02*
X5464349Y-13682388D01*
X5464349Y-13682388D02*
X5454825Y-13701436D01*
X5454825Y-13701436D02*
X5445301Y-13710960D01*
X5445301Y-13710960D02*
X5426254Y-13720484D01*
X5426254Y-13720484D02*
X5397682Y-13720484D01*
X5521492Y-13587150D02*
X5597682Y-13587150D01*
X5550063Y-13520484D02*
X5550063Y-13691912D01*
X5550063Y-13691912D02*
X5559587Y-13710960D01*
X5559587Y-13710960D02*
X5578634Y-13720484D01*
X5578634Y-13720484D02*
X5597682Y-13720484D01*
X5816730Y-13587150D02*
X5816730Y-13787150D01*
X5816730Y-13596674D02*
X5835777Y-13587150D01*
X5835777Y-13587150D02*
X5873873Y-13587150D01*
X5873873Y-13587150D02*
X5892920Y-13596674D01*
X5892920Y-13596674D02*
X5902444Y-13606198D01*
X5902444Y-13606198D02*
X5911968Y-13625246D01*
X5911968Y-13625246D02*
X5911968Y-13682388D01*
X5911968Y-13682388D02*
X5902444Y-13701436D01*
X5902444Y-13701436D02*
X5892920Y-13710960D01*
X5892920Y-13710960D02*
X5873873Y-13720484D01*
X5873873Y-13720484D02*
X5835777Y-13720484D01*
X5835777Y-13720484D02*
X5816730Y-13710960D01*
X6026253Y-13720484D02*
X6007206Y-13710960D01*
X6007206Y-13710960D02*
X5997682Y-13691912D01*
X5997682Y-13691912D02*
X5997682Y-13520484D01*
X6188158Y-13720484D02*
X6188158Y-13615722D01*
X6188158Y-13615722D02*
X6178634Y-13596674D01*
X6178634Y-13596674D02*
X6159587Y-13587150D01*
X6159587Y-13587150D02*
X6121492Y-13587150D01*
X6121492Y-13587150D02*
X6102444Y-13596674D01*
X6188158Y-13710960D02*
X6169111Y-13720484D01*
X6169111Y-13720484D02*
X6121492Y-13720484D01*
X6121492Y-13720484D02*
X6102444Y-13710960D01*
X6102444Y-13710960D02*
X6092920Y-13691912D01*
X6092920Y-13691912D02*
X6092920Y-13672865D01*
X6092920Y-13672865D02*
X6102444Y-13653817D01*
X6102444Y-13653817D02*
X6121492Y-13644293D01*
X6121492Y-13644293D02*
X6169111Y-13644293D01*
X6169111Y-13644293D02*
X6188158Y-13634769D01*
X6254825Y-13587150D02*
X6331015Y-13587150D01*
X6283396Y-13520484D02*
X6283396Y-13691912D01*
X6283396Y-13691912D02*
X6292920Y-13710960D01*
X6292920Y-13710960D02*
X6311968Y-13720484D01*
X6311968Y-13720484D02*
X6331015Y-13720484D01*
X6473873Y-13710960D02*
X6454825Y-13720484D01*
X6454825Y-13720484D02*
X6416730Y-13720484D01*
X6416730Y-13720484D02*
X6397682Y-13710960D01*
X6397682Y-13710960D02*
X6388158Y-13691912D01*
X6388158Y-13691912D02*
X6388158Y-13615722D01*
X6388158Y-13615722D02*
X6397682Y-13596674D01*
X6397682Y-13596674D02*
X6416730Y-13587150D01*
X6416730Y-13587150D02*
X6454825Y-13587150D01*
X6454825Y-13587150D02*
X6473873Y-13596674D01*
X6473873Y-13596674D02*
X6483396Y-13615722D01*
X6483396Y-13615722D02*
X6483396Y-13634769D01*
X6483396Y-13634769D02*
X6388158Y-13653817D01*
X6654825Y-13720484D02*
X6654825Y-13520484D01*
X6654825Y-13710960D02*
X6635777Y-13720484D01*
X6635777Y-13720484D02*
X6597682Y-13720484D01*
X6597682Y-13720484D02*
X6578634Y-13710960D01*
X6578634Y-13710960D02*
X6569111Y-13701436D01*
X6569111Y-13701436D02*
X6559587Y-13682388D01*
X6559587Y-13682388D02*
X6559587Y-13625246D01*
X6559587Y-13625246D02*
X6569111Y-13606198D01*
X6569111Y-13606198D02*
X6578634Y-13596674D01*
X6578634Y-13596674D02*
X6597682Y-13587150D01*
X6597682Y-13587150D02*
X6635777Y-13587150D01*
X6635777Y-13587150D02*
X6654825Y-13596674D01*
X6731015Y-13796674D02*
X6740539Y-13787150D01*
X6740539Y-13787150D02*
X6759587Y-13758579D01*
X6759587Y-13758579D02*
X6769111Y-13739531D01*
X6769111Y-13739531D02*
X6778634Y-13710960D01*
X6778634Y-13710960D02*
X6788158Y-13663341D01*
X6788158Y-13663341D02*
X6788158Y-13625246D01*
X6788158Y-13625246D02*
X6778634Y-13577627D01*
X6778634Y-13577627D02*
X6769111Y-13549055D01*
X6769111Y-13549055D02*
X6759587Y-13530008D01*
X6759587Y-13530008D02*
X6740539Y-13501436D01*
X6740539Y-13501436D02*
X6731015Y-13491912D01*
M02*
