M48
; DRILL file {KiCad 9.0.5} date 2025-12-05T04:25:24-0500
; FORMAT={-:-/ absolute / metric / decimal}
; #@! TF.CreationDate,2025-12-05T04:25:24-05:00
; #@! TF.GenerationSoftware,Kicad,Pcbnew,9.0.5
; #@! TF.FileFunction,Plated,1,4,PTH
FMAT,2
METRIC
; #@! TA.AperFunction,Plated,PTH,ViaDrill
T1C0.200
; #@! TA.AperFunction,Plated,PTH,ComponentDrill
T2C0.254
; #@! TA.AperFunction,Plated,PTH,ViaDrill
T3C0.300
; #@! TA.AperFunction,Plated,PTH,ViaDrill
T4C0.500
; #@! TA.AperFunction,Plated,PTH,ComponentDrill
T5C0.500
; #@! TA.AperFunction,Plated,PTH,ViaDrill
T6C0.600
; #@! TA.AperFunction,Plated,PTH,ComponentDrill
T7C0.700
; #@! TA.AperFunction,Plated,PTH,ComponentDrill
T8C0.800
; #@! TA.AperFunction,Plated,PTH,ComponentDrill
T9C0.950
; #@! TA.AperFunction,Plated,PTH,ComponentDrill
T10C0.991
; #@! TA.AperFunction,Plated,PTH,ComponentDrill
T11C1.000
; #@! TA.AperFunction,Plated,PTH,ComponentDrill
T12C1.020
; #@! TA.AperFunction,Plated,PTH,ComponentDrill
T13C1.067
; #@! TA.AperFunction,Plated,PTH,ComponentDrill
T14C3.200
%
G90
G05
T1
X100.2Y-57.49
X100.2Y-58.49
X101.3Y-53.44
X102.05Y-52.69
T2
X34.713Y-108.5
X34.713Y-109.287
X34.713Y-110.075
X35.5Y-108.5
X35.5Y-109.287
X35.5Y-110.075
T3
X16.9Y-23.2
X17.95Y-32.96
X18.16Y-32.09
X18.22Y-20.8
X18.645Y-56.005
X18.8Y-21.36
X18.87Y-22.16
X19.509Y-31.976
X20.5Y-58.15
X20.5Y-60.65
X20.85Y-55.6
X20.95Y-20.92
X21.459Y-31.975
X21.46Y-21.54
X21.47Y-22.39
X23.95Y-15.4
X24.95Y-53.05
X25.85Y-50.55
X26.034Y-33.32
X27.5Y-108.25
X28.37Y-22.55
X28.86Y-34.35
X29.17Y-22.55
X29.66Y-34.35
X29.711Y-44.09
X30.25Y-24.73
X30.25Y-25.53
X30.28Y-31.36
X30.94Y-22.58
X31.05Y-45.75
X31.74Y-22.58
X32.35Y-45.8
X32.43Y-24.73
X32.43Y-25.53
X33.66Y-34.35
X34.46Y-34.35
X34.89Y-20.63
X35.0Y-44.17
X35.5Y-123.0
X35.71Y-29.55
X36.0Y-113.25
X36.35Y-50.8
X37.65Y-52.1
X37.75Y-108.25
X39.0Y-52.35
X39.038Y-110.75
X39.262Y-30.137
X39.475Y-31.6
X39.54Y-18.81
X39.68Y-76.07
X40.0Y-102.0
X40.025Y-30.9
X40.13Y-44.97
X40.85Y-24.3
X40.86Y-44.44
X40.925Y-30.725
X41.25Y-76.06
X41.5Y-48.45
X41.5Y-49.331
X41.55Y-43.9
X42.75Y-74.75
X42.975Y-105.275
X43.105Y-47.945
X43.735Y-47.315
X43.75Y-30.725
X43.8Y-28.8
X44.225Y-34.45
X44.35Y-46.7
X44.475Y-117.0
X44.875Y-35.125
X45.225Y-35.85
X45.75Y-69.0
X45.75Y-70.25
X45.75Y-71.5
X46.2Y-46.55
X46.46Y-45.16
X47.05Y-47.425
X47.25Y-31.875
X47.51Y-46.16
X47.58Y-19.05
X47.875Y-33.325
X47.956Y-70.355
X48.15Y-47.425
X48.6Y-31.675
X49.354Y-66.606
X49.5Y-30.2
X50.01Y-38.97
X50.25Y-74.5
X50.975Y-30.65
X50.99Y-41.98
X51.225Y-32.725
X51.4Y-34.51
X51.97Y-50.14
X51.97Y-55.56
X52.5Y-23.32
X52.93Y-47.42
X52.97Y-37.94
X53.29Y-33.265
X53.935Y-24.66
X54.0Y-40.97
X55.12Y-48.42
X55.506Y-70.605
X55.59Y-37.52
X55.81Y-47.87
X55.906Y-64.355
X56.125Y-33.745
X56.375Y-46.375
X56.74Y-33.21
X57.44Y-28.96
X57.47Y-44.41
X57.49Y-46.51
X58.025Y-47.15
X58.355Y-44.055
X58.76Y-32.51
X58.85Y-25.9
X58.875Y-47.175
X59.2Y-45.8
X60.18Y-48.35
X60.18Y-49.67
X60.5Y-34.4
X60.5Y-35.2
X60.55Y-33.075
X61.0Y-48.01
X61.087Y-89.4
X61.22Y-28.97
X61.225Y-43.125
X61.425Y-30.525
X61.425Y-33.25
X61.462Y-31.387
X61.475Y-32.35
X61.84Y-39.46
X62.0Y-48.02
X62.325Y-35.975
X62.5Y-38.97
X63.09Y-43.56
X63.11Y-42.0
X63.37Y-42.76
X63.45Y-89.4
X63.525Y-94.595
X63.525Y-95.865
X64.95Y-85.4
X65.3Y-45.3
X65.94Y-44.79
X66.3Y-46.28
X66.82Y-45.67
X67.087Y-83.4
X67.087Y-89.4
X67.575Y-35.4
X67.59Y-40.98
X67.59Y-43.44
X68.01Y-15.99
X68.35Y-44.88
X68.36Y-14.94
X68.375Y-35.025
X68.475Y-94.595
X68.475Y-97.135
X68.475Y-98.405
X68.5Y-95.865
X68.55Y-44.0
X69.22Y-27.45
X69.45Y-84.802
X69.45Y-87.4
X70.175Y-30.475
X70.3Y-45.75
X70.794Y-29.85
X70.82Y-27.98
X70.95Y-47.15
X71.01Y-16.85
X71.03Y-46.24
X71.375Y-30.925
X71.5Y-32.8
X71.54Y-47.63
X72.0Y-95.5
X72.5Y-28.0
X72.7Y-31.55
X72.94Y-18.61
X73.0Y-39.0
X73.087Y-86.9
X73.24Y-30.34
X73.72Y-31.53
X74.01Y-42.03
X75.003Y-95.497
X75.025Y-32.17
X76.01Y-38.0
X76.087Y-81.9
X76.3Y-48.24
X76.32Y-49.04
X77.01Y-41.0
X79.035Y-49.195
X79.35Y-8.65
X79.95Y-49.2
X81.4Y-48.5
X81.85Y-47.75
X82.4Y-45.9
X82.5Y-16.85
X83.3Y-32.75
X83.565Y-55.735
X83.9Y-33.5
X84.6Y-44.0
X84.6Y-47.3
X84.75Y-56.75
X85.05Y-54.25
X85.2Y-44.6
X85.6Y-46.4
X85.75Y-55.3
X86.01Y-28.87
X86.45Y-51.55
X87.2Y-37.93
X87.2Y-39.45
X87.2Y-52.2
X87.9Y-52.85
X87.9Y-87.2
X87.91Y-81.0
X88.55Y-50.95
X89.2Y-42.9
X89.2Y-44.25
X89.2Y-45.65
X89.25Y-41.5
X89.25Y-47.06
X89.29Y-48.93
X89.3Y-50.09
X89.31Y-54.25
X89.31Y-55.25
X92.731Y-62.281
X93.11Y-48.0
X93.12Y-47.06
X93.13Y-45.37
X93.14Y-48.93
X93.16Y-50.08
X93.19Y-51.39
X93.21Y-52.76
X96.97Y-41.46
X97.0Y-31.87
X97.275Y-34.175
X97.3Y-36.05
X97.3Y-90.45
X97.31Y-29.345
X97.46Y-37.94
X99.05Y-78.925
X99.35Y-55.75
X99.655Y-47.985
X100.25Y-55.74
X100.62Y-43.96
X100.65Y-41.42
X100.69Y-34.426
X100.7Y-39.45
X101.1Y-60.5
X101.1Y-61.7
X101.15Y-42.09
X101.26Y-44.99
X101.425Y-33.071
X101.825Y-30.925
X102.25Y-84.85
X103.0Y-35.695
X103.1Y-44.4
X103.85Y-29.99
X103.85Y-31.89
X103.85Y-33.79
X103.85Y-38.29
X103.85Y-38.89
X103.85Y-40.09
X103.85Y-40.79
X103.85Y-42.69
X103.875Y-36.28
X103.903Y-60.49
X104.52Y-34.46
X104.68Y-30.58
X104.68Y-32.49
X104.77Y-44.99
X105.15Y-37.71
X105.18Y-36.91
X106.01Y-36.28
X106.25Y-43.29
X106.25Y-45.75
X106.55Y-78.2
X106.99Y-36.91
X106.99Y-37.71
X107.0Y-59.79
X107.45Y-55.0
X107.451Y-56.241
X107.55Y-48.025
X108.45Y-89.45
X109.506Y-62.744
X111.0Y-46.0
X111.0Y-60.5
X112.51Y-52.06
X112.89Y-35.06
X113.0Y-29.345
X113.4Y-84.15
X116.1Y-31.89
X116.1Y-51.562
X116.33Y-36.42
X116.8Y-40.79
X116.95Y-33.64
X116.95Y-44.7
X117.0Y-32.59
X117.1Y-36.19
X117.25Y-46.48
X117.4Y-42.239
X117.5Y-37.69
X117.6Y-40.29
X119.275Y-81.9
X120.75Y-31.79
X120.75Y-38.29
T4
X52.0Y-39.75
X75.01Y-39.9
T5
X123.0Y-10.2
X123.0Y-11.2
T6
X9.75Y-11.0
X10.85Y-6.2
X11.6Y-21.5
X12.275Y-11.0
X18.1Y-52.7
X18.1Y-54.9
X18.294Y-42.97
X18.7Y-11.0
X20.274Y-42.97
X25.5Y-103.25
X25.5Y-105.25
X26.25Y-25.0
X26.6Y-11.0
X26.625Y-6.175
X27.0Y-103.25
X27.0Y-105.25
X28.75Y-101.5
X28.75Y-103.25
X28.75Y-105.25
X31.75Y-105.0
X31.75Y-106.25
X33.0Y-116.0
X33.0Y-118.0
X33.5Y-97.25
X33.5Y-105.0
X33.5Y-106.25
X35.25Y-116.0
X36.475Y-102.75
X36.8Y-22.85
X36.8Y-25.0
X37.25Y-116.0
X37.25Y-118.0
X38.0Y-102.75
X39.5Y-105.25
X39.5Y-116.0
X39.5Y-118.0
X43.675Y-87.4
X44.587Y-78.9
X45.175Y-80.9
X45.675Y-87.4
X46.587Y-78.9
X46.675Y-81.9
X47.675Y-87.4
X48.175Y-80.9
X48.587Y-78.9
X48.6Y-53.69
X48.61Y-52.05
X48.62Y-50.15
X49.675Y-87.4
X50.75Y-99.0
X50.75Y-100.75
X52.5Y-99.0
X52.5Y-100.75
X54.5Y-99.0
X54.5Y-100.75
X55.33Y-52.04
X55.33Y-53.67
X55.36Y-55.57
X55.75Y-86.0
X56.25Y-95.0
X57.25Y-86.0
X58.25Y-95.0
X58.675Y-80.4
X58.675Y-81.9
X59.0Y-86.0
X60.25Y-95.0
X60.5Y-86.0
X63.29Y-92.05
X68.61Y-50.84
X70.05Y-75.75
X71.56Y-52.06
X71.56Y-53.7
X76.9Y-13.2
X78.29Y-53.85
X81.28Y-54.9
X84.65Y-59.29
X85.9Y-63.63
X86.0Y-66.75
X95.75Y-84.5
X95.75Y-86.25
X97.5Y-84.5
X97.5Y-86.25
X103.5Y-81.0
X105.25Y-82.0
X107.0Y-81.0
X108.75Y-53.25
X114.5Y-76.75
X114.5Y-78.75
X116.5Y-76.75
X116.5Y-78.75
X117.27Y-21.0
X118.25Y-53.291
X118.25Y-55.791
X122.45Y-32.54
X122.45Y-37.79
X122.45Y-43.04
T7
X47.42Y-108.25
X49.96Y-110.79
X52.5Y-108.25
T8
X5.02Y-36.82
X5.02Y-38.82
X5.02Y-40.82
X5.02Y-42.82
X5.02Y-44.82
X6.854Y-8.475
X10.854Y-8.475
X14.854Y-8.475
X22.624Y-8.485
X26.624Y-8.485
X30.624Y-8.485
X76.087Y-81.9
X76.087Y-85.9
X76.087Y-89.9
X120.8Y-17.0
X120.8Y-21.0
X120.8Y-25.0
X124.3Y-70.4
T9
X7.225Y-19.0
X7.225Y-21.5
X7.225Y-24.0
X7.225Y-26.5
X7.225Y-29.0
X7.225Y-31.5
X30.85Y-70.4
X30.85Y-72.9
X121.901Y-50.791
X121.901Y-53.291
X121.901Y-55.791
X121.901Y-58.291
X121.901Y-60.791
X121.901Y-63.291
T10
X35.5Y-118.0
X35.5Y-120.5
X35.5Y-123.0
X41.255Y-66.75
X41.255Y-69.25
T11
X16.0Y-103.0
X16.0Y-105.28
X16.0Y-107.56
X16.0Y-109.84
X16.0Y-112.12
X18.54Y-104.14
X18.54Y-106.42
X18.54Y-108.7
X18.54Y-110.98
X18.54Y-113.26
X21.08Y-103.0
X21.08Y-105.28
X21.08Y-107.56
X21.08Y-109.84
X21.08Y-112.12
X124.3Y-75.9
X124.3Y-78.44
X124.3Y-80.98
X124.3Y-83.52
X124.3Y-86.06
T12
X39.37Y-3.73
X39.37Y-6.27
X41.91Y-3.73
X41.91Y-6.27
X44.45Y-3.73
X44.45Y-6.27
X46.99Y-3.73
X46.99Y-6.27
X49.53Y-3.73
X49.53Y-6.27
X52.07Y-3.73
X52.07Y-6.27
X54.61Y-3.73
X54.61Y-6.27
X57.15Y-3.73
X57.15Y-6.27
X59.69Y-3.73
X59.69Y-6.27
X62.23Y-3.73
X62.23Y-6.27
X64.77Y-3.73
X64.77Y-6.27
X67.31Y-3.73
X67.31Y-6.27
X69.85Y-3.73
X69.85Y-6.27
X72.39Y-3.73
X72.39Y-6.27
X74.93Y-3.73
X74.93Y-6.27
X77.47Y-3.73
X77.47Y-6.27
X80.01Y-3.73
X80.01Y-6.27
X82.55Y-3.73
X82.55Y-6.27
X85.09Y-3.73
X85.09Y-6.27
X87.63Y-3.73
X87.63Y-6.27
T13
X30.0Y-49.26
X30.0Y-51.8
X30.0Y-54.34
X30.0Y-56.88
X30.0Y-59.42
X30.0Y-61.96
X30.0Y-64.5
T14
X18.54Y-95.32
X18.54Y-120.31
T7
G00X4.704Y-8.875
M15
G01X4.704Y-8.075
M16
G05
G00X17.004Y-8.875
M15
G01X17.004Y-8.075
M16
G05
G00X20.474Y-8.885
M15
G01X20.474Y-8.085
M16
G05
G00X32.774Y-8.885
M15
G01X32.774Y-8.085
M16
G05
G00X75.688Y-79.75
M15
G01X76.487Y-79.75
M16
G05
G00X75.688Y-92.05
M15
G01X76.487Y-92.05
M16
G05
G00X120.4Y-14.85
M15
G01X121.2Y-14.85
M16
G05
G00X120.4Y-27.15
M15
G01X121.2Y-27.15
M16
G05
M30
