M48
; DRILL file {KiCad 9.0.5} date 2025-12-04T19:26:54-0500
; FORMAT={-:-/ absolute / metric / decimal}
; #@! TF.CreationDate,2025-12-04T19:26:54-05:00
; #@! TF.GenerationSoftware,Kicad,Pcbnew,9.0.5
; #@! TF.FileFunction,Plated,1,2,PTH
FMAT,2
METRIC
; #@! TA.AperFunction,Plated,PTH,ViaDrill
T1C0.203
; #@! TA.AperFunction,Plated,PTH,ComponentDrill
T2C0.203
; #@! TA.AperFunction,Plated,PTH,ViaDrill
T3C0.254
; #@! TA.AperFunction,Plated,PTH,ViaDrill
T4C0.300
; #@! TA.AperFunction,Plated,PTH,ComponentDrill
T5C0.600
; #@! TA.AperFunction,Plated,PTH,ComponentDrill
T6C1.000
; #@! TA.AperFunction,Plated,PTH,ComponentDrill
T7C3.000
; #@! TA.AperFunction,Plated,PTH,ComponentDrill
T8C3.200
%
G90
G05
T1
X107.65Y-82.45
X107.65Y-87.25
X108.25Y-82.45
X108.25Y-87.25
X124.35Y-89.7
X124.95Y-89.7
X125.674Y-89.687
X126.229Y-89.687
X129.65Y-87.05
X130.25Y-87.05
X132.45Y-87.05
X133.05Y-87.05
X135.2Y-87.05
X135.8Y-87.05
X142.6Y-84.65
X142.6Y-85.3
X142.6Y-85.95
X142.6Y-86.6
X142.6Y-87.25
X143.2Y-84.65
X143.2Y-85.3
X143.2Y-85.95
X143.2Y-86.6
X143.2Y-87.25
X148.7Y-84.6
X148.7Y-85.25
X148.7Y-85.9
X148.7Y-86.55
X148.7Y-87.2
X149.3Y-84.6
X149.3Y-85.25
X149.3Y-85.9
X149.3Y-86.55
X149.3Y-87.2
X152.3Y-85.32
X152.3Y-85.97
X152.3Y-86.62
X152.9Y-85.32
X152.9Y-85.97
X152.9Y-86.62
X156.356Y-89.033
X156.356Y-89.633
X156.42Y-82.225
X156.42Y-83.294
X156.42Y-84.362
X156.42Y-85.431
X156.42Y-86.5
X157.005Y-89.033
X157.005Y-89.633
X157.07Y-82.225
X157.07Y-83.294
X157.07Y-84.362
X157.07Y-85.431
X157.07Y-86.5
X157.655Y-89.033
X157.655Y-89.633
X157.72Y-82.225
X157.72Y-83.294
X157.72Y-84.362
X157.72Y-85.431
X157.72Y-86.5
X160.545Y-82.25
X160.545Y-83.319
X160.545Y-84.388
X160.545Y-85.456
X160.545Y-86.525
X160.649Y-89.054
X160.649Y-89.654
X161.195Y-82.25
X161.195Y-83.319
X161.195Y-84.388
X161.195Y-85.456
X161.195Y-86.525
X161.299Y-89.054
X161.299Y-89.654
X161.845Y-82.25
X161.845Y-83.319
X161.845Y-84.388
X161.845Y-85.456
X161.845Y-86.525
X161.949Y-89.054
X161.949Y-89.654
X165.425Y-85.405
X165.425Y-86.055
X165.425Y-86.705
X166.025Y-85.405
X166.025Y-86.055
X166.025Y-86.705
X169.075Y-84.7
X169.075Y-85.35
X169.075Y-86.0
X169.075Y-86.65
X169.075Y-87.3
X169.675Y-84.7
X169.675Y-85.35
X169.675Y-86.0
X169.675Y-86.65
X169.675Y-87.3
X175.125Y-84.7
X175.125Y-85.35
X175.125Y-86.0
X175.125Y-86.65
X175.125Y-87.3
X175.725Y-84.7
X175.725Y-85.35
X175.725Y-86.0
X175.725Y-86.65
X175.725Y-87.3
X183.65Y-90.5
X183.65Y-93.6
X183.675Y-96.7
T2
X124.245Y-91.052
X124.245Y-93.577
X125.32Y-91.052
X125.32Y-92.467
X125.32Y-93.577
X125.32Y-94.687
X126.395Y-91.052
X126.395Y-93.577
T3
X151.112Y-108.095
X156.062Y-92.595
X157.362Y-92.595
X158.912Y-93.445
X159.162Y-90.695
X159.762Y-93.495
X160.312Y-92.645
X161.662Y-92.645
T4
X104.7Y-88.45
X105.6Y-84.05
X112.147Y-102.863
X112.649Y-88.773
X114.046Y-94.488
X114.95Y-123.779
X115.069Y-101.466
X116.05Y-90.65
X116.412Y-126.145
X116.412Y-130.245
X117.3Y-124.795
X117.6Y-104.879
X117.735Y-92.724
X117.8Y-121.6
X118.827Y-91.636
X118.878Y-100.323
X120.402Y-98.545
X121.099Y-90.212
X121.418Y-93.973
X121.5Y-93.05
X121.926Y-98.566
X122.18Y-90.382
X122.307Y-92.703
X124.212Y-88.512
X124.212Y-107.53
X124.262Y-128.345
X125.101Y-99.053
X125.609Y-98.418
X125.609Y-102.355
X126.09Y-97.778
X126.498Y-102.355
X128.65Y-91.55
X128.662Y-95.495
X128.911Y-92.703
X129.562Y-95.495
X129.713Y-94.645
X131.35Y-89.132
X132.713Y-83.595
X133.102Y-102.355
X134.15Y-89.132
X134.499Y-102.355
X140.062Y-95.245
X142.262Y-93.432
X144.612Y-94.045
X147.213Y-94.045
X147.512Y-96.945
X148.312Y-101.645
X149.012Y-82.895
X149.562Y-93.432
X152.312Y-96.495
X153.862Y-83.545
X153.862Y-93.395
X154.012Y-105.532
X154.463Y-81.995
X156.4Y-107.6
X158.2Y-101.2
X158.95Y-107.55
X159.862Y-102.0
X161.0Y-102.5
X163.412Y-94.595
X163.912Y-81.995
X164.2Y-98.6
X166.112Y-88.645
X169.062Y-92.233
X169.362Y-82.445
X170.1Y-101.595
X170.1Y-103.745
X181.575Y-92.05
X181.575Y-95.15
T6
X138.66Y-102.0
X141.2Y-102.0
X143.74Y-102.0
X181.737Y-100.457
X181.737Y-102.997
X181.737Y-105.537
X181.737Y-108.077
X181.737Y-110.617
X181.737Y-113.157
X181.737Y-115.697
X181.737Y-118.237
X184.277Y-100.457
X184.277Y-102.997
X184.277Y-105.537
X184.277Y-108.077
X184.277Y-110.617
X184.277Y-113.157
X184.277Y-115.697
X184.277Y-118.237
X193.173Y-103.879
X193.173Y-106.169
X193.173Y-108.459
X193.173Y-110.749
X193.173Y-113.039
X195.713Y-102.734
X195.713Y-105.024
X195.713Y-107.314
X195.713Y-109.604
X195.713Y-111.894
X198.254Y-103.879
X198.254Y-106.169
X198.254Y-108.459
X198.254Y-110.749
X198.254Y-113.039
T7
X109.22Y-72.39
X109.22Y-138.43
X195.58Y-72.39
X195.58Y-138.557
T8
X195.713Y-95.694
X195.713Y-120.694
T5
G00X103.599Y-80.509
M15
G01X102.798Y-80.509
M16
G05
G00X103.599Y-89.149
M15
G01X102.798Y-89.149
M16
G05
G00X103.599Y-118.609
M15
G01X102.798Y-118.609
M16
G05
G00X103.599Y-127.249
M15
G01X102.798Y-127.249
M16
G05
G00X107.928Y-80.509
M15
G01X106.828Y-80.509
M16
G05
G00X107.928Y-89.149
M15
G01X106.828Y-89.149
M16
G05
G00X107.928Y-118.609
M15
G01X106.828Y-118.609
M16
G05
G00X107.928Y-127.249
M15
G01X106.828Y-127.249
M16
G05
M30
