G04 #@! TF.GenerationSoftware,KiCad,Pcbnew,9.0.5*
G04 #@! TF.CreationDate,2025-12-04T19:26:51-05:00*
G04 #@! TF.ProjectId,bustingballscrazystylenolube,62757374-696e-4676-9261-6c6c73637261,rev?*
G04 #@! TF.SameCoordinates,Original*
G04 #@! TF.FileFunction,Copper,L2,Bot*
G04 #@! TF.FilePolarity,Positive*
%FSLAX46Y46*%
G04 Gerber Fmt 4.6, Leading zero omitted, Abs format (unit mm)*
G04 Created by KiCad (PCBNEW 9.0.5) date 2025-12-04 19:26:51*
%MOMM*%
%LPD*%
G01*
G04 APERTURE LIST*
G04 #@! TA.AperFunction,HeatsinkPad*
%ADD10O,2.100000X1.000000*%
G04 #@! TD*
G04 #@! TA.AperFunction,HeatsinkPad*
%ADD11O,1.800000X1.000000*%
G04 #@! TD*
G04 #@! TA.AperFunction,ComponentPad*
%ADD12R,1.700000X1.700000*%
G04 #@! TD*
G04 #@! TA.AperFunction,ComponentPad*
%ADD13C,1.700000*%
G04 #@! TD*
G04 #@! TA.AperFunction,ComponentPad*
%ADD14C,0.499999*%
G04 #@! TD*
G04 #@! TA.AperFunction,ComponentPad*
%ADD15C,4.000000*%
G04 #@! TD*
G04 #@! TA.AperFunction,ComponentPad*
%ADD16R,1.600000X1.600000*%
G04 #@! TD*
G04 #@! TA.AperFunction,ComponentPad*
%ADD17C,1.600000*%
G04 #@! TD*
G04 #@! TA.AperFunction,ComponentPad*
%ADD18C,6.000000*%
G04 #@! TD*
G04 #@! TA.AperFunction,ViaPad*
%ADD19C,0.600000*%
G04 #@! TD*
G04 #@! TA.AperFunction,ViaPad*
%ADD20C,0.508000*%
G04 #@! TD*
G04 #@! TA.AperFunction,ViaPad*
%ADD21C,0.406400*%
G04 #@! TD*
G04 #@! TA.AperFunction,Conductor*
%ADD22C,0.200000*%
G04 #@! TD*
G04 #@! TA.AperFunction,Conductor*
%ADD23C,0.508000*%
G04 #@! TD*
G04 #@! TA.AperFunction,Conductor*
%ADD24C,0.152400*%
G04 #@! TD*
G04 #@! TA.AperFunction,Conductor*
%ADD25C,0.254000*%
G04 #@! TD*
G04 APERTURE END LIST*
D10*
X107378500Y-118609000D03*
D11*
X103198500Y-118609000D03*
D10*
X107378500Y-127249000D03*
D11*
X103198500Y-127249000D03*
D12*
X181737000Y-100457000D03*
D13*
X184277000Y-100457000D03*
X181737000Y-102997000D03*
X184277000Y-102997000D03*
X181737000Y-105537000D03*
X184277000Y-105537000D03*
X181737000Y-108077000D03*
X184277000Y-108077000D03*
X181737000Y-110617000D03*
X184277000Y-110617000D03*
X181737000Y-113157000D03*
X184277000Y-113157000D03*
X181737000Y-115697000D03*
X184277000Y-115697000D03*
X181737000Y-118237000D03*
X184277000Y-118237000D03*
D14*
X124245500Y-91052000D03*
X126395498Y-91052000D03*
X125320499Y-91052000D03*
X125320499Y-92466998D03*
X125320499Y-93576998D03*
X124245500Y-93576998D03*
X126395498Y-93576998D03*
X125320499Y-94686999D03*
D10*
X107378500Y-80509000D03*
D11*
X103198500Y-80509000D03*
D10*
X107378500Y-89149000D03*
D11*
X103198500Y-89149000D03*
D15*
X195713500Y-120694000D03*
X195713500Y-95694000D03*
D16*
X193173500Y-103879000D03*
D17*
X193173500Y-106169000D03*
X193173500Y-108459000D03*
X193173500Y-110749000D03*
X193173500Y-113039000D03*
X195713500Y-102734000D03*
X195713500Y-105024000D03*
X195713500Y-107314000D03*
X195713500Y-109604000D03*
X195713500Y-111894000D03*
X198253500Y-103879000D03*
X198253500Y-106169000D03*
X198253500Y-108459000D03*
X198253500Y-110749000D03*
X198253500Y-113039000D03*
D18*
X195580000Y-72390000D03*
X109220000Y-72390000D03*
X109220000Y-138430000D03*
D12*
X143740000Y-102000000D03*
D13*
X141200000Y-102000000D03*
X138660000Y-102000000D03*
D18*
X195580000Y-138557000D03*
D19*
X116050000Y-90650000D03*
X105600000Y-84050000D03*
X124212500Y-107530000D03*
X124262500Y-128345000D03*
D20*
X157362500Y-92595000D03*
D19*
X114046000Y-94488000D03*
X181575000Y-92050000D03*
X149562500Y-93432500D03*
X116412500Y-126145000D03*
X117735500Y-92724500D03*
X170100000Y-103745000D03*
D20*
X156062500Y-92595000D03*
D19*
X140062500Y-95245000D03*
X169062500Y-92232500D03*
X154012500Y-105532500D03*
D20*
X160312500Y-92645000D03*
D19*
X117800000Y-121600000D03*
X112649000Y-88773000D03*
X156400000Y-107600000D03*
X134150000Y-89132500D03*
X116412500Y-130245000D03*
X121926500Y-98566500D03*
X161000000Y-102500000D03*
X181575000Y-95150000D03*
D20*
X161662500Y-92645000D03*
D19*
X170100000Y-101595000D03*
X148312500Y-101645000D03*
X128650000Y-91550000D03*
X121500000Y-93050000D03*
X142262500Y-93432500D03*
X131350000Y-89132500D03*
X117600000Y-104879000D03*
X104700000Y-88450000D03*
X118827013Y-91635513D03*
D21*
X107650000Y-82450000D03*
X124350000Y-89700000D03*
X107650000Y-87250000D03*
D19*
X122307500Y-92703000D03*
D21*
X124950000Y-89700000D03*
X108250000Y-87250000D03*
X108250000Y-82450000D03*
D19*
X124212500Y-88512000D03*
X152312500Y-96495000D03*
X147212500Y-94045000D03*
X144612500Y-94045000D03*
X147512500Y-96945000D03*
D21*
X135200000Y-87050000D03*
X135800000Y-87050000D03*
X142600000Y-87250000D03*
X142600000Y-85300000D03*
X142600000Y-84650000D03*
X130250000Y-87050000D03*
X142600000Y-86600000D03*
X133050000Y-87050000D03*
X143200000Y-85950000D03*
X125673700Y-89686999D03*
X143200000Y-87250000D03*
X143200000Y-84650000D03*
X129650000Y-87050000D03*
X143200000Y-86600000D03*
X126228503Y-89686999D03*
X143200000Y-85300000D03*
X132450000Y-87050000D03*
D19*
X132712500Y-83595000D03*
D21*
X142600000Y-85950000D03*
X157720000Y-86500000D03*
X157720000Y-84362500D03*
X157070000Y-85431250D03*
X157655500Y-89633201D03*
X156420000Y-85431250D03*
X156355500Y-89633201D03*
X157005500Y-89633201D03*
D19*
X154462500Y-81995000D03*
D21*
X157720000Y-85431250D03*
X157070000Y-82225000D03*
X156355500Y-89033201D03*
X157720000Y-82225000D03*
X157070000Y-84362500D03*
X157655500Y-89033201D03*
X157720000Y-83293750D03*
X157005500Y-89033201D03*
X156420000Y-83293750D03*
X157070000Y-83293750D03*
X156420000Y-86500000D03*
X156420000Y-84362500D03*
X156420000Y-82225000D03*
X157070000Y-86500000D03*
X160649000Y-89054000D03*
X161845000Y-85456250D03*
X161845000Y-84387500D03*
D19*
X163912500Y-81995000D03*
D21*
X161949000Y-89654000D03*
X161845000Y-82250000D03*
X160649000Y-89654000D03*
X161195000Y-83318750D03*
X161195000Y-82250000D03*
X160545000Y-86525000D03*
X161195000Y-85456250D03*
X160545000Y-85456250D03*
X161299000Y-89054000D03*
X161195000Y-84387500D03*
X161845000Y-86525000D03*
X160545000Y-83318750D03*
X161949000Y-89054000D03*
X161195000Y-86525000D03*
X160545000Y-82250000D03*
X161845000Y-83318750D03*
X161299000Y-89654000D03*
X160545000Y-84387500D03*
X169675000Y-87300000D03*
X169675000Y-85350000D03*
X165425000Y-86055000D03*
X169075000Y-85350000D03*
X169075000Y-87300000D03*
X169675000Y-84700000D03*
X169075000Y-84700000D03*
D19*
X169362500Y-82445000D03*
D21*
X165425000Y-85405000D03*
X166025000Y-86055000D03*
X166025000Y-85405000D03*
X169075000Y-86000000D03*
X169675000Y-86000000D03*
X169075000Y-86650000D03*
X166025000Y-86705000D03*
X169675000Y-86650000D03*
X165425000Y-86705000D03*
X175125000Y-86000000D03*
X183650000Y-93600000D03*
X175725000Y-87300000D03*
X175725000Y-86000000D03*
X175725000Y-84700000D03*
X175125000Y-85350000D03*
X175725000Y-86650000D03*
X175125000Y-87300000D03*
X175125000Y-84700000D03*
X183675000Y-96700000D03*
X175125000Y-86650000D03*
X175725000Y-85350000D03*
X183650000Y-90500000D03*
D20*
X159762500Y-93495000D03*
X151112500Y-108095000D03*
D19*
X114950000Y-123779000D03*
X117300000Y-124795000D03*
X128911500Y-92703000D03*
X120402500Y-98545000D03*
D21*
X152900000Y-86620000D03*
X148700000Y-87200000D03*
X148700000Y-86550000D03*
X152300000Y-85320000D03*
X148700000Y-84600000D03*
X152300000Y-86620000D03*
X152900000Y-85320000D03*
X149300000Y-85250000D03*
X149300000Y-86550000D03*
X149300000Y-84600000D03*
X152900000Y-85970000D03*
X152300000Y-85970000D03*
D19*
X149012500Y-82895000D03*
D21*
X149300000Y-85900000D03*
X148700000Y-85900000D03*
X148700000Y-85250000D03*
X149300000Y-87200000D03*
D19*
X153862500Y-93395000D03*
X153862500Y-83545000D03*
D20*
X158912500Y-93445000D03*
X159162500Y-90695000D03*
D19*
X166112500Y-88645000D03*
X163412500Y-94595000D03*
X121418500Y-93973000D03*
X118878500Y-100323000D03*
X121099187Y-90211868D03*
X112147500Y-102863000D03*
X115068500Y-101466000D03*
X122180500Y-90382000D03*
X129562500Y-95495000D03*
X158950000Y-107550000D03*
X129712500Y-94645000D03*
X159862500Y-102000000D03*
X125101500Y-99053000D03*
X125609500Y-102355000D03*
X126498500Y-102355000D03*
X125609500Y-98418000D03*
X126089502Y-97777998D03*
X133102500Y-102355000D03*
X134499500Y-102355000D03*
X128662500Y-95495000D03*
X164200000Y-98600000D03*
X158200000Y-101200000D03*
D22*
X105617000Y-89867000D02*
X105617000Y-84067000D01*
X116050000Y-90650000D02*
X106400000Y-90650000D01*
X106400000Y-90650000D02*
X105617000Y-89867000D01*
X105617000Y-84067000D02*
X105600000Y-84050000D01*
X104700000Y-88450000D02*
X104700000Y-90300000D01*
X106035513Y-91635513D02*
X118827013Y-91635513D01*
X104700000Y-90300000D02*
X106035513Y-91635513D01*
D23*
X124212500Y-88512000D02*
X123050000Y-89674500D01*
X122307500Y-91687000D02*
X122307500Y-92703000D01*
X123050000Y-89674500D02*
X123050000Y-90944500D01*
X123050000Y-90944500D02*
X122307500Y-91687000D01*
D22*
X147212500Y-94045000D02*
X149662500Y-96495000D01*
X149662500Y-96495000D02*
X152312500Y-96495000D01*
X147512500Y-96945000D02*
X144612500Y-94045000D01*
D24*
X159612500Y-93495000D02*
X159446700Y-93660800D01*
X159128300Y-93979200D02*
X151112500Y-101995000D01*
X151112500Y-101995000D02*
X151112500Y-108095000D01*
X159446700Y-93660800D02*
X159446700Y-93666273D01*
X159446700Y-93666273D02*
X159133773Y-93979200D01*
X159762500Y-93495000D02*
X159612500Y-93495000D01*
X159133773Y-93979200D02*
X159128300Y-93979200D01*
D22*
X117300000Y-124795000D02*
X116284000Y-123779000D01*
X116284000Y-123779000D02*
X114950000Y-123779000D01*
X124720500Y-97021000D02*
X128911500Y-92830000D01*
X128911500Y-92830000D02*
X128911500Y-92703000D01*
X120402500Y-98545000D02*
X121926500Y-97021000D01*
X121926500Y-97021000D02*
X124720500Y-97021000D01*
D25*
X153862500Y-83545000D02*
X153862500Y-93395000D01*
D24*
X158912500Y-93445000D02*
X158912500Y-90945000D01*
X158912500Y-90945000D02*
X159162500Y-90695000D01*
D25*
X166112500Y-91895000D02*
X166112500Y-88645000D01*
X163412500Y-94595000D02*
X166112500Y-91895000D01*
D22*
X121418500Y-93973000D02*
X118878500Y-96513000D01*
X118878500Y-96513000D02*
X118878500Y-100323000D01*
X112147500Y-99163555D02*
X112147500Y-102863000D01*
X121099187Y-90211868D02*
X112147500Y-99163555D01*
X115068500Y-97494000D02*
X115068500Y-101466000D01*
X122180500Y-90382000D02*
X115068500Y-97494000D01*
D23*
X129562500Y-95495000D02*
X136295000Y-95495000D01*
X155400000Y-111100000D02*
X158950000Y-107550000D01*
X141200000Y-100400000D02*
X141200000Y-104600000D01*
X147700000Y-111100000D02*
X155400000Y-111100000D01*
X136295000Y-95495000D02*
X141200000Y-100400000D01*
X141200000Y-104600000D02*
X147700000Y-111100000D01*
X159862500Y-105287500D02*
X155300000Y-109850000D01*
X143740000Y-104540000D02*
X143740000Y-100340000D01*
X155300000Y-109850000D02*
X149050000Y-109850000D01*
X138045000Y-94645000D02*
X129712500Y-94645000D01*
X159862500Y-102000000D02*
X159862500Y-105287500D01*
X149050000Y-109850000D02*
X143740000Y-104540000D01*
X143740000Y-100340000D02*
X138045000Y-94645000D01*
D22*
X125609500Y-99561000D02*
X125101500Y-99053000D01*
X125609500Y-102355000D02*
X125609500Y-99561000D01*
X126498500Y-99307000D02*
X125609500Y-98418000D01*
X126498500Y-102355000D02*
X126498500Y-99307000D01*
X130689500Y-102355000D02*
X133102500Y-102355000D01*
X126089502Y-97777998D02*
X126112498Y-97777998D01*
X126112498Y-97777998D02*
X130689500Y-102355000D01*
X134499500Y-101332000D02*
X134499500Y-102355000D01*
X128662500Y-95495000D02*
X134499500Y-101332000D01*
X164200000Y-98600000D02*
X162400000Y-98600000D01*
X162400000Y-98600000D02*
X159800000Y-101200000D01*
X159800000Y-101200000D02*
X158200000Y-101200000D01*
G04 #@! TA.AperFunction,Conductor*
G36*
X195582211Y-65270578D02*
G01*
X196083484Y-65288482D01*
X196092277Y-65289110D01*
X196588832Y-65342495D01*
X196597548Y-65343748D01*
X197089028Y-65432421D01*
X197097636Y-65434294D01*
X197581513Y-65557797D01*
X197589993Y-65560287D01*
X198063801Y-65717985D01*
X198072093Y-65721077D01*
X198533464Y-65912183D01*
X198541503Y-65915855D01*
X198988055Y-66139383D01*
X198995803Y-66143612D01*
X199425296Y-66398442D01*
X199432730Y-66403221D01*
X199842914Y-66688018D01*
X199850000Y-66693322D01*
X200050799Y-66855135D01*
X200238840Y-67006668D01*
X200245516Y-67012453D01*
X200428264Y-67182597D01*
X200611005Y-67352735D01*
X200617264Y-67358994D01*
X200957540Y-67724476D01*
X200963337Y-67731166D01*
X201276677Y-68119999D01*
X201281981Y-68127085D01*
X201566778Y-68537269D01*
X201571564Y-68544715D01*
X201826377Y-68974179D01*
X201830619Y-68981949D01*
X202054141Y-69428490D01*
X202057818Y-69436541D01*
X202248921Y-69897904D01*
X202252014Y-69906198D01*
X202409710Y-70380000D01*
X202412204Y-70388493D01*
X202535700Y-70872343D01*
X202537582Y-70880992D01*
X202626247Y-71372428D01*
X202627507Y-71381190D01*
X202680887Y-71877704D01*
X202681518Y-71886533D01*
X202699421Y-72387788D01*
X202699500Y-72392214D01*
X202699500Y-138427785D01*
X202699421Y-138432211D01*
X202681518Y-138933466D01*
X202680887Y-138942295D01*
X202627507Y-139438809D01*
X202626247Y-139447571D01*
X202537582Y-139939007D01*
X202535700Y-139947656D01*
X202412204Y-140431506D01*
X202409710Y-140439999D01*
X202252014Y-140913801D01*
X202248921Y-140922095D01*
X202057818Y-141383458D01*
X202054141Y-141391509D01*
X201830619Y-141838050D01*
X201826377Y-141845820D01*
X201571564Y-142275284D01*
X201566778Y-142282730D01*
X201281981Y-142692914D01*
X201276677Y-142700000D01*
X200963337Y-143088833D01*
X200957540Y-143095523D01*
X200617264Y-143461005D01*
X200611005Y-143467264D01*
X200245523Y-143807540D01*
X200238833Y-143813337D01*
X199850000Y-144126677D01*
X199842914Y-144131981D01*
X199432730Y-144416778D01*
X199425284Y-144421564D01*
X198995820Y-144676377D01*
X198988050Y-144680619D01*
X198541509Y-144904141D01*
X198533458Y-144907818D01*
X198072095Y-145098921D01*
X198063801Y-145102014D01*
X197589999Y-145259710D01*
X197581506Y-145262204D01*
X197097656Y-145385700D01*
X197089007Y-145387582D01*
X196597571Y-145476247D01*
X196588809Y-145477507D01*
X196092295Y-145530887D01*
X196083466Y-145531518D01*
X195582212Y-145549421D01*
X195577786Y-145549500D01*
X109222214Y-145549500D01*
X109217788Y-145549421D01*
X108716533Y-145531518D01*
X108707704Y-145530887D01*
X108211190Y-145477507D01*
X108202428Y-145476247D01*
X107710992Y-145387582D01*
X107702343Y-145385700D01*
X107218493Y-145262204D01*
X107210000Y-145259710D01*
X106736198Y-145102014D01*
X106727904Y-145098921D01*
X106266541Y-144907818D01*
X106258490Y-144904141D01*
X105811949Y-144680619D01*
X105804187Y-144676381D01*
X105374710Y-144421561D01*
X105367269Y-144416778D01*
X104957085Y-144131981D01*
X104949999Y-144126677D01*
X104561166Y-143813337D01*
X104554476Y-143807540D01*
X104514086Y-143769936D01*
X104402964Y-143666477D01*
X104188994Y-143467264D01*
X104182735Y-143461005D01*
X103842459Y-143095523D01*
X103836662Y-143088833D01*
X103523322Y-142700000D01*
X103518018Y-142692914D01*
X103233221Y-142282730D01*
X103228442Y-142275296D01*
X102973612Y-141845803D01*
X102969380Y-141838050D01*
X102908913Y-141717253D01*
X102745855Y-141391503D01*
X102742181Y-141383458D01*
X102733527Y-141362566D01*
X102551077Y-140922093D01*
X102547985Y-140913801D01*
X102390289Y-140439999D01*
X102387795Y-140431506D01*
X102382805Y-140411954D01*
X102264294Y-139947636D01*
X102262421Y-139939028D01*
X102173748Y-139447548D01*
X102172495Y-139438832D01*
X102119110Y-138942277D01*
X102118482Y-138933484D01*
X102100579Y-138432211D01*
X102100500Y-138427785D01*
X102100500Y-138250259D01*
X106019500Y-138250259D01*
X106019500Y-138609740D01*
X106059746Y-138966935D01*
X106059748Y-138966951D01*
X106139737Y-139317407D01*
X106139741Y-139317419D01*
X106258465Y-139656711D01*
X106414432Y-139980579D01*
X106414434Y-139980582D01*
X106605685Y-140284956D01*
X106829812Y-140566003D01*
X107083997Y-140820188D01*
X107365044Y-141044315D01*
X107669418Y-141235566D01*
X107993292Y-141391536D01*
X108248119Y-141480703D01*
X108332580Y-141510258D01*
X108332592Y-141510262D01*
X108683052Y-141590252D01*
X109040260Y-141630499D01*
X109040261Y-141630500D01*
X109040264Y-141630500D01*
X109399739Y-141630500D01*
X109399739Y-141630499D01*
X109756948Y-141590252D01*
X110107408Y-141510262D01*
X110446708Y-141391536D01*
X110770582Y-141235566D01*
X111074956Y-141044315D01*
X111356003Y-140820188D01*
X111610188Y-140566003D01*
X111834315Y-140284956D01*
X112025566Y-139980582D01*
X112181536Y-139656708D01*
X112300262Y-139317408D01*
X112380252Y-138966948D01*
X112420500Y-138609736D01*
X112420500Y-138377259D01*
X192379500Y-138377259D01*
X192379500Y-138736740D01*
X192419746Y-139093935D01*
X192419748Y-139093951D01*
X192499737Y-139444407D01*
X192499741Y-139444419D01*
X192618465Y-139783711D01*
X192774432Y-140107579D01*
X192774434Y-140107582D01*
X192965685Y-140411956D01*
X193189812Y-140693003D01*
X193443997Y-140947188D01*
X193725044Y-141171315D01*
X194029418Y-141362566D01*
X194029420Y-141362567D01*
X194081291Y-141387547D01*
X194353292Y-141518536D01*
X194558242Y-141590251D01*
X194692580Y-141637258D01*
X194692592Y-141637262D01*
X195043052Y-141717252D01*
X195400260Y-141757499D01*
X195400261Y-141757500D01*
X195400264Y-141757500D01*
X195759739Y-141757500D01*
X195759739Y-141757499D01*
X196116948Y-141717252D01*
X196467408Y-141637262D01*
X196806708Y-141518536D01*
X197130582Y-141362566D01*
X197434956Y-141171315D01*
X197716003Y-140947188D01*
X197970188Y-140693003D01*
X198194315Y-140411956D01*
X198385566Y-140107582D01*
X198541536Y-139783708D01*
X198660262Y-139444408D01*
X198740252Y-139093948D01*
X198780500Y-138736736D01*
X198780500Y-138377264D01*
X198740252Y-138020052D01*
X198660262Y-137669592D01*
X198541536Y-137330292D01*
X198385566Y-137006418D01*
X198194315Y-136702044D01*
X197970188Y-136420997D01*
X197716003Y-136166812D01*
X197434956Y-135942685D01*
X197130582Y-135751434D01*
X197130579Y-135751432D01*
X196806711Y-135595465D01*
X196467419Y-135476741D01*
X196467407Y-135476737D01*
X196116951Y-135396748D01*
X196116935Y-135396746D01*
X195759740Y-135356500D01*
X195759736Y-135356500D01*
X195400264Y-135356500D01*
X195400259Y-135356500D01*
X195043064Y-135396746D01*
X195043048Y-135396748D01*
X194692592Y-135476737D01*
X194692580Y-135476741D01*
X194353288Y-135595465D01*
X194029420Y-135751432D01*
X193725045Y-135942684D01*
X193443997Y-136166811D01*
X193189811Y-136420997D01*
X192965684Y-136702045D01*
X192774432Y-137006420D01*
X192618465Y-137330288D01*
X192499741Y-137669580D01*
X192499737Y-137669592D01*
X192419748Y-138020048D01*
X192419746Y-138020064D01*
X192379500Y-138377259D01*
X112420500Y-138377259D01*
X112420500Y-138250264D01*
X112380252Y-137893052D01*
X112300262Y-137542592D01*
X112181536Y-137203292D01*
X112025566Y-136879418D01*
X111834315Y-136575044D01*
X111610188Y-136293997D01*
X111356003Y-136039812D01*
X111074956Y-135815685D01*
X110770582Y-135624434D01*
X110770579Y-135624432D01*
X110446711Y-135468465D01*
X110107419Y-135349741D01*
X110107407Y-135349737D01*
X109756951Y-135269748D01*
X109756935Y-135269746D01*
X109399740Y-135229500D01*
X109399736Y-135229500D01*
X109040264Y-135229500D01*
X109040259Y-135229500D01*
X108683064Y-135269746D01*
X108683048Y-135269748D01*
X108332592Y-135349737D01*
X108332580Y-135349741D01*
X107993288Y-135468465D01*
X107669420Y-135624432D01*
X107365045Y-135815684D01*
X107083997Y-136039811D01*
X106829811Y-136293997D01*
X106605684Y-136575045D01*
X106414432Y-136879420D01*
X106258465Y-137203288D01*
X106139741Y-137542580D01*
X106139737Y-137542592D01*
X106059748Y-137893048D01*
X106059746Y-137893064D01*
X106019500Y-138250259D01*
X102100500Y-138250259D01*
X102100500Y-125743234D01*
X106303000Y-125743234D01*
X106303000Y-125894765D01*
X106342219Y-126041136D01*
X106380102Y-126106750D01*
X106417985Y-126172365D01*
X106525135Y-126279515D01*
X106656365Y-126355281D01*
X106802734Y-126394500D01*
X106802736Y-126394500D01*
X106954264Y-126394500D01*
X106954266Y-126394500D01*
X107100635Y-126355281D01*
X107231865Y-126279515D01*
X107339015Y-126172365D01*
X107414781Y-126041135D01*
X107454000Y-125894766D01*
X107454000Y-125743234D01*
X107414781Y-125596865D01*
X107339015Y-125465635D01*
X107231865Y-125358485D01*
X107166250Y-125320602D01*
X107100636Y-125282719D01*
X107021037Y-125261391D01*
X106954266Y-125243500D01*
X106802734Y-125243500D01*
X106656363Y-125282719D01*
X106525135Y-125358485D01*
X106525132Y-125358487D01*
X106417987Y-125465632D01*
X106417985Y-125465635D01*
X106342219Y-125596863D01*
X106303000Y-125743234D01*
X102100500Y-125743234D01*
X102100500Y-123713108D01*
X114449500Y-123713108D01*
X114449500Y-123844891D01*
X114483608Y-123972187D01*
X114516554Y-124029250D01*
X114549500Y-124086314D01*
X114642686Y-124179500D01*
X114756814Y-124245392D01*
X114884108Y-124279500D01*
X114884110Y-124279500D01*
X115015890Y-124279500D01*
X115015892Y-124279500D01*
X115143186Y-124245392D01*
X115257314Y-124179500D01*
X115320995Y-124115819D01*
X115382318Y-124082334D01*
X115408676Y-124079500D01*
X116108167Y-124079500D01*
X116175206Y-124099185D01*
X116195848Y-124115819D01*
X116763181Y-124683152D01*
X116796666Y-124744475D01*
X116799500Y-124770833D01*
X116799500Y-124860891D01*
X116833608Y-124988187D01*
X116866554Y-125045250D01*
X116899500Y-125102314D01*
X116992686Y-125195500D01*
X117106814Y-125261392D01*
X117234108Y-125295500D01*
X117234110Y-125295500D01*
X117365890Y-125295500D01*
X117365892Y-125295500D01*
X117493186Y-125261392D01*
X117607314Y-125195500D01*
X117700500Y-125102314D01*
X117766392Y-124988186D01*
X117800500Y-124860892D01*
X117800500Y-124729108D01*
X117766392Y-124601814D01*
X117700500Y-124487686D01*
X117607314Y-124394500D01*
X117550250Y-124361554D01*
X117493187Y-124328608D01*
X117429539Y-124311554D01*
X117365892Y-124294500D01*
X117275833Y-124294500D01*
X117208794Y-124274815D01*
X117188152Y-124258181D01*
X116468512Y-123538541D01*
X116468507Y-123538537D01*
X116459065Y-123533086D01*
X116459064Y-123533086D01*
X116399991Y-123498980D01*
X116399990Y-123498979D01*
X116374513Y-123492152D01*
X116323562Y-123478500D01*
X116323560Y-123478500D01*
X115408676Y-123478500D01*
X115341637Y-123458815D01*
X115320995Y-123442181D01*
X115257316Y-123378502D01*
X115257314Y-123378500D01*
X115200250Y-123345554D01*
X115143187Y-123312608D01*
X115079539Y-123295554D01*
X115015892Y-123278500D01*
X114884108Y-123278500D01*
X114756812Y-123312608D01*
X114642686Y-123378500D01*
X114642683Y-123378502D01*
X114549502Y-123471683D01*
X114549500Y-123471686D01*
X114483608Y-123585812D01*
X114449500Y-123713108D01*
X102100500Y-123713108D01*
X102100500Y-119963234D01*
X106303000Y-119963234D01*
X106303000Y-120114765D01*
X106342219Y-120261136D01*
X106380102Y-120326750D01*
X106417985Y-120392365D01*
X106525135Y-120499515D01*
X106656365Y-120575281D01*
X106802734Y-120614500D01*
X106802736Y-120614500D01*
X106954264Y-120614500D01*
X106954266Y-120614500D01*
X107100635Y-120575281D01*
X107144807Y-120549778D01*
X193513000Y-120549778D01*
X193513000Y-120838221D01*
X193513001Y-120838238D01*
X193550649Y-121124206D01*
X193550650Y-121124211D01*
X193550651Y-121124217D01*
X193550652Y-121124219D01*
X193625309Y-121402844D01*
X193625314Y-121402860D01*
X193735691Y-121669336D01*
X193735699Y-121669352D01*
X193879920Y-121919148D01*
X193879931Y-121919164D01*
X194055524Y-122148002D01*
X194055530Y-122148009D01*
X194259490Y-122351969D01*
X194259496Y-122351974D01*
X194488344Y-122527575D01*
X194488351Y-122527579D01*
X194738147Y-122671800D01*
X194738163Y-122671808D01*
X195004639Y-122782185D01*
X195004645Y-122782186D01*
X195004655Y-122782191D01*
X195283283Y-122856849D01*
X195569272Y-122894500D01*
X195569279Y-122894500D01*
X195857721Y-122894500D01*
X195857728Y-122894500D01*
X196143717Y-122856849D01*
X196422345Y-122782191D01*
X196422357Y-122782185D01*
X196422360Y-122782185D01*
X196688836Y-122671808D01*
X196688839Y-122671806D01*
X196688845Y-122671804D01*
X196938656Y-122527575D01*
X197167504Y-122351974D01*
X197371474Y-122148004D01*
X197547075Y-121919156D01*
X197691304Y-121669345D01*
X197801691Y-121402845D01*
X197876349Y-121124217D01*
X197914000Y-120838228D01*
X197914000Y-120549772D01*
X197876349Y-120263783D01*
X197801691Y-119985155D01*
X197801686Y-119985145D01*
X197801685Y-119985139D01*
X197691308Y-119718663D01*
X197691300Y-119718647D01*
X197547079Y-119468851D01*
X197547075Y-119468844D01*
X197376948Y-119247130D01*
X197371475Y-119239997D01*
X197371469Y-119239990D01*
X197167509Y-119036030D01*
X197167502Y-119036024D01*
X196938664Y-118860431D01*
X196938662Y-118860429D01*
X196938656Y-118860425D01*
X196938651Y-118860422D01*
X196938648Y-118860420D01*
X196688852Y-118716199D01*
X196688836Y-118716191D01*
X196422360Y-118605814D01*
X196422348Y-118605810D01*
X196422345Y-118605809D01*
X196143717Y-118531151D01*
X196143711Y-118531150D01*
X196143706Y-118531149D01*
X195857738Y-118493501D01*
X195857733Y-118493500D01*
X195857728Y-118493500D01*
X195569272Y-118493500D01*
X195569266Y-118493500D01*
X195569261Y-118493501D01*
X195283293Y-118531149D01*
X195283286Y-118531150D01*
X195283283Y-118531151D01*
X195004655Y-118605809D01*
X195004639Y-118605814D01*
X194738163Y-118716191D01*
X194738147Y-118716199D01*
X194488351Y-118860420D01*
X194488335Y-118860431D01*
X194259497Y-119036024D01*
X194259490Y-119036030D01*
X194055530Y-119239990D01*
X194055524Y-119239997D01*
X193879931Y-119468835D01*
X193879920Y-119468851D01*
X193735699Y-119718647D01*
X193735691Y-119718663D01*
X193625314Y-119985139D01*
X193625309Y-119985155D01*
X193590581Y-120114764D01*
X193550652Y-120263780D01*
X193550649Y-120263793D01*
X193513001Y-120549761D01*
X193513000Y-120549778D01*
X107144807Y-120549778D01*
X107231865Y-120499515D01*
X107339015Y-120392365D01*
X107414781Y-120261135D01*
X107454000Y-120114766D01*
X107454000Y-119963234D01*
X107414781Y-119816865D01*
X107339015Y-119685635D01*
X107231865Y-119578485D01*
X107166250Y-119540602D01*
X107100636Y-119502719D01*
X106974210Y-119468844D01*
X106954266Y-119463500D01*
X106802734Y-119463500D01*
X106656363Y-119502719D01*
X106525135Y-119578485D01*
X106525132Y-119578487D01*
X106417987Y-119685632D01*
X106417985Y-119685635D01*
X106342219Y-119816863D01*
X106303000Y-119963234D01*
X102100500Y-119963234D01*
X102100500Y-118133530D01*
X180686500Y-118133530D01*
X180686500Y-118340469D01*
X180726868Y-118543412D01*
X180726870Y-118543420D01*
X180806058Y-118734596D01*
X180921024Y-118906657D01*
X181067342Y-119052975D01*
X181067345Y-119052977D01*
X181239402Y-119167941D01*
X181430580Y-119247130D01*
X181633530Y-119287499D01*
X181633534Y-119287500D01*
X181633535Y-119287500D01*
X181840466Y-119287500D01*
X181840467Y-119287499D01*
X182043420Y-119247130D01*
X182234598Y-119167941D01*
X182406655Y-119052977D01*
X182552977Y-118906655D01*
X182667941Y-118734598D01*
X182747130Y-118543420D01*
X182787500Y-118340465D01*
X182787500Y-118133535D01*
X182787499Y-118133530D01*
X183226500Y-118133530D01*
X183226500Y-118340469D01*
X183266868Y-118543412D01*
X183266870Y-118543420D01*
X183346058Y-118734596D01*
X183461024Y-118906657D01*
X183607342Y-119052975D01*
X183607345Y-119052977D01*
X183779402Y-119167941D01*
X183970580Y-119247130D01*
X184173530Y-119287499D01*
X184173534Y-119287500D01*
X184173535Y-119287500D01*
X184380466Y-119287500D01*
X184380467Y-119287499D01*
X184583420Y-119247130D01*
X184774598Y-119167941D01*
X184946655Y-119052977D01*
X185092977Y-118906655D01*
X185207941Y-118734598D01*
X185287130Y-118543420D01*
X185327500Y-118340465D01*
X185327500Y-118133535D01*
X185287130Y-117930580D01*
X185207941Y-117739402D01*
X185092977Y-117567345D01*
X185092975Y-117567342D01*
X184946657Y-117421024D01*
X184860626Y-117363541D01*
X184774598Y-117306059D01*
X184583420Y-117226870D01*
X184583412Y-117226868D01*
X184380469Y-117186500D01*
X184380465Y-117186500D01*
X184173535Y-117186500D01*
X184173530Y-117186500D01*
X183970587Y-117226868D01*
X183970579Y-117226870D01*
X183779403Y-117306058D01*
X183607342Y-117421024D01*
X183461024Y-117567342D01*
X183346058Y-117739403D01*
X183266870Y-117930579D01*
X183266868Y-117930587D01*
X183226500Y-118133530D01*
X182787499Y-118133530D01*
X182747130Y-117930580D01*
X182667941Y-117739402D01*
X182552977Y-117567345D01*
X182552975Y-117567342D01*
X182406657Y-117421024D01*
X182320626Y-117363541D01*
X182234598Y-117306059D01*
X182043420Y-117226870D01*
X182043412Y-117226868D01*
X181840469Y-117186500D01*
X181840465Y-117186500D01*
X181633535Y-117186500D01*
X181633530Y-117186500D01*
X181430587Y-117226868D01*
X181430579Y-117226870D01*
X181239403Y-117306058D01*
X181067342Y-117421024D01*
X180921024Y-117567342D01*
X180806058Y-117739403D01*
X180726870Y-117930579D01*
X180726868Y-117930587D01*
X180686500Y-118133530D01*
X102100500Y-118133530D01*
X102100500Y-115593530D01*
X180686500Y-115593530D01*
X180686500Y-115800469D01*
X180726868Y-116003412D01*
X180726870Y-116003420D01*
X180806058Y-116194596D01*
X180921024Y-116366657D01*
X181067342Y-116512975D01*
X181067345Y-116512977D01*
X181239402Y-116627941D01*
X181430580Y-116707130D01*
X181633530Y-116747499D01*
X181633534Y-116747500D01*
X181633535Y-116747500D01*
X181840466Y-116747500D01*
X181840467Y-116747499D01*
X182043420Y-116707130D01*
X182234598Y-116627941D01*
X182406655Y-116512977D01*
X182552977Y-116366655D01*
X182667941Y-116194598D01*
X182747130Y-116003420D01*
X182787500Y-115800465D01*
X182787500Y-115593535D01*
X182787499Y-115593530D01*
X183226500Y-115593530D01*
X183226500Y-115800469D01*
X183266868Y-116003412D01*
X183266870Y-116003420D01*
X183346058Y-116194596D01*
X183461024Y-116366657D01*
X183607342Y-116512975D01*
X183607345Y-116512977D01*
X183779402Y-116627941D01*
X183970580Y-116707130D01*
X184173530Y-116747499D01*
X184173534Y-116747500D01*
X184173535Y-116747500D01*
X184380466Y-116747500D01*
X184380467Y-116747499D01*
X184583420Y-116707130D01*
X184774598Y-116627941D01*
X184946655Y-116512977D01*
X185092977Y-116366655D01*
X185207941Y-116194598D01*
X185287130Y-116003420D01*
X185327500Y-115800465D01*
X185327500Y-115593535D01*
X185287130Y-115390580D01*
X185207941Y-115199402D01*
X185092977Y-115027345D01*
X185092975Y-115027342D01*
X184946657Y-114881024D01*
X184860626Y-114823541D01*
X184774598Y-114766059D01*
X184583420Y-114686870D01*
X184583412Y-114686868D01*
X184380469Y-114646500D01*
X184380465Y-114646500D01*
X184173535Y-114646500D01*
X184173530Y-114646500D01*
X183970587Y-114686868D01*
X183970579Y-114686870D01*
X183779403Y-114766058D01*
X183607342Y-114881024D01*
X183461024Y-115027342D01*
X183346058Y-115199403D01*
X183266870Y-115390579D01*
X183266868Y-115390587D01*
X183226500Y-115593530D01*
X182787499Y-115593530D01*
X182747130Y-115390580D01*
X182667941Y-115199402D01*
X182552977Y-115027345D01*
X182552975Y-115027342D01*
X182406657Y-114881024D01*
X182320626Y-114823541D01*
X182234598Y-114766059D01*
X182043420Y-114686870D01*
X182043412Y-114686868D01*
X181840469Y-114646500D01*
X181840465Y-114646500D01*
X181633535Y-114646500D01*
X181633530Y-114646500D01*
X181430587Y-114686868D01*
X181430579Y-114686870D01*
X181239403Y-114766058D01*
X181067342Y-114881024D01*
X180921024Y-115027342D01*
X180806058Y-115199403D01*
X180726870Y-115390579D01*
X180726868Y-115390587D01*
X180686500Y-115593530D01*
X102100500Y-115593530D01*
X102100500Y-113053530D01*
X180686500Y-113053530D01*
X180686500Y-113260469D01*
X180726868Y-113463412D01*
X180726870Y-113463420D01*
X180806058Y-113654596D01*
X180921024Y-113826657D01*
X181067342Y-113972975D01*
X181067345Y-113972977D01*
X181239402Y-114087941D01*
X181430580Y-114167130D01*
X181633530Y-114207499D01*
X181633534Y-114207500D01*
X181633535Y-114207500D01*
X181840466Y-114207500D01*
X181840467Y-114207499D01*
X182043420Y-114167130D01*
X182234598Y-114087941D01*
X182406655Y-113972977D01*
X182552977Y-113826655D01*
X182667941Y-113654598D01*
X182747130Y-113463420D01*
X182787500Y-113260465D01*
X182787500Y-113053535D01*
X182787499Y-113053530D01*
X183226500Y-113053530D01*
X183226500Y-113260469D01*
X183266868Y-113463412D01*
X183266870Y-113463420D01*
X183346058Y-113654596D01*
X183461024Y-113826657D01*
X183607342Y-113972975D01*
X183607345Y-113972977D01*
X183779402Y-114087941D01*
X183970580Y-114167130D01*
X184173530Y-114207499D01*
X184173534Y-114207500D01*
X184173535Y-114207500D01*
X184380466Y-114207500D01*
X184380467Y-114207499D01*
X184583420Y-114167130D01*
X184774598Y-114087941D01*
X184946655Y-113972977D01*
X185092977Y-113826655D01*
X185207941Y-113654598D01*
X185287130Y-113463420D01*
X185327500Y-113260465D01*
X185327500Y-113137543D01*
X192172999Y-113137543D01*
X192211447Y-113330829D01*
X192211450Y-113330839D01*
X192286864Y-113512907D01*
X192286871Y-113512920D01*
X192396360Y-113676781D01*
X192396363Y-113676785D01*
X192535714Y-113816136D01*
X192535718Y-113816139D01*
X192699579Y-113925628D01*
X192699592Y-113925635D01*
X192881660Y-114001049D01*
X192881665Y-114001051D01*
X192881669Y-114001051D01*
X192881670Y-114001052D01*
X193074956Y-114039500D01*
X193074959Y-114039500D01*
X193272043Y-114039500D01*
X193402082Y-114013632D01*
X193465335Y-114001051D01*
X193647414Y-113925632D01*
X193811282Y-113816139D01*
X193950639Y-113676782D01*
X194060132Y-113512914D01*
X194135551Y-113330835D01*
X194174000Y-113137543D01*
X197252999Y-113137543D01*
X197291447Y-113330829D01*
X197291450Y-113330839D01*
X197366864Y-113512907D01*
X197366871Y-113512920D01*
X197476360Y-113676781D01*
X197476363Y-113676785D01*
X197615714Y-113816136D01*
X197615718Y-113816139D01*
X197779579Y-113925628D01*
X197779592Y-113925635D01*
X197961660Y-114001049D01*
X197961665Y-114001051D01*
X197961669Y-114001051D01*
X197961670Y-114001052D01*
X198154956Y-114039500D01*
X198154959Y-114039500D01*
X198352043Y-114039500D01*
X198482082Y-114013632D01*
X198545335Y-114001051D01*
X198727414Y-113925632D01*
X198891282Y-113816139D01*
X199030639Y-113676782D01*
X199140132Y-113512914D01*
X199215551Y-113330835D01*
X199254000Y-113137541D01*
X199254000Y-112940459D01*
X199254000Y-112940456D01*
X199215552Y-112747170D01*
X199215551Y-112747169D01*
X199215551Y-112747165D01*
X199215549Y-112747160D01*
X199140135Y-112565092D01*
X199140128Y-112565079D01*
X199030639Y-112401218D01*
X199030636Y-112401214D01*
X198891285Y-112261863D01*
X198891281Y-112261860D01*
X198727420Y-112152371D01*
X198727407Y-112152364D01*
X198545339Y-112076950D01*
X198545329Y-112076947D01*
X198352043Y-112038500D01*
X198352041Y-112038500D01*
X198154959Y-112038500D01*
X198154957Y-112038500D01*
X197961670Y-112076947D01*
X197961660Y-112076950D01*
X197779592Y-112152364D01*
X197779579Y-112152371D01*
X197615718Y-112261860D01*
X197615714Y-112261863D01*
X197476363Y-112401214D01*
X197476360Y-112401218D01*
X197366871Y-112565079D01*
X197366864Y-112565092D01*
X197291450Y-112747160D01*
X197291447Y-112747170D01*
X197253000Y-112940456D01*
X197253000Y-112940459D01*
X197253000Y-113137541D01*
X197253000Y-113137543D01*
X197252999Y-113137543D01*
X194174000Y-113137543D01*
X194174000Y-113137541D01*
X194174000Y-112940459D01*
X194174000Y-112940456D01*
X194135552Y-112747170D01*
X194135551Y-112747169D01*
X194135551Y-112747165D01*
X194135549Y-112747160D01*
X194060135Y-112565092D01*
X194060128Y-112565079D01*
X193950639Y-112401218D01*
X193950636Y-112401214D01*
X193811285Y-112261863D01*
X193811281Y-112261860D01*
X193647420Y-112152371D01*
X193647407Y-112152364D01*
X193465339Y-112076950D01*
X193465329Y-112076947D01*
X193272043Y-112038500D01*
X193272041Y-112038500D01*
X193074959Y-112038500D01*
X193074957Y-112038500D01*
X192881670Y-112076947D01*
X192881660Y-112076950D01*
X192699592Y-112152364D01*
X192699579Y-112152371D01*
X192535718Y-112261860D01*
X192535714Y-112261863D01*
X192396363Y-112401214D01*
X192396360Y-112401218D01*
X192286871Y-112565079D01*
X192286864Y-112565092D01*
X192211450Y-112747160D01*
X192211447Y-112747170D01*
X192173000Y-112940456D01*
X192173000Y-112940459D01*
X192173000Y-113137541D01*
X192173000Y-113137543D01*
X192172999Y-113137543D01*
X185327500Y-113137543D01*
X185327500Y-113053535D01*
X185308608Y-112958557D01*
X185308608Y-112958555D01*
X185287131Y-112850585D01*
X185287130Y-112850584D01*
X185287130Y-112850580D01*
X185207941Y-112659402D01*
X185092977Y-112487345D01*
X185092975Y-112487342D01*
X184946657Y-112341024D01*
X184828178Y-112261860D01*
X184774598Y-112226059D01*
X184583420Y-112146870D01*
X184583412Y-112146868D01*
X184380469Y-112106500D01*
X184380465Y-112106500D01*
X184173535Y-112106500D01*
X184173530Y-112106500D01*
X183970587Y-112146868D01*
X183970579Y-112146870D01*
X183779403Y-112226058D01*
X183607342Y-112341024D01*
X183461024Y-112487342D01*
X183346058Y-112659403D01*
X183266870Y-112850579D01*
X183266868Y-112850587D01*
X183226500Y-113053530D01*
X182787499Y-113053530D01*
X182747130Y-112850580D01*
X182667941Y-112659402D01*
X182552977Y-112487345D01*
X182552975Y-112487342D01*
X182406657Y-112341024D01*
X182288178Y-112261860D01*
X182234598Y-112226059D01*
X182043420Y-112146870D01*
X182043412Y-112146868D01*
X181840469Y-112106500D01*
X181840465Y-112106500D01*
X181633535Y-112106500D01*
X181633530Y-112106500D01*
X181430587Y-112146868D01*
X181430579Y-112146870D01*
X181239403Y-112226058D01*
X181067342Y-112341024D01*
X180921024Y-112487342D01*
X180806058Y-112659403D01*
X180726870Y-112850579D01*
X180726868Y-112850587D01*
X180686500Y-113053530D01*
X102100500Y-113053530D01*
X102100500Y-111992543D01*
X194712999Y-111992543D01*
X194751447Y-112185829D01*
X194751450Y-112185839D01*
X194826864Y-112367907D01*
X194826871Y-112367920D01*
X194936360Y-112531781D01*
X194936363Y-112531785D01*
X195075714Y-112671136D01*
X195075718Y-112671139D01*
X195239579Y-112780628D01*
X195239592Y-112780635D01*
X195421660Y-112856049D01*
X195421665Y-112856051D01*
X195421669Y-112856051D01*
X195421670Y-112856052D01*
X195614956Y-112894500D01*
X195614959Y-112894500D01*
X195812043Y-112894500D01*
X195942082Y-112868632D01*
X196005335Y-112856051D01*
X196042100Y-112840822D01*
X196092840Y-112819806D01*
X196187407Y-112780635D01*
X196187407Y-112780634D01*
X196187414Y-112780632D01*
X196351282Y-112671139D01*
X196490639Y-112531782D01*
X196600132Y-112367914D01*
X196675551Y-112185835D01*
X196697210Y-112076949D01*
X196714000Y-111992543D01*
X196714000Y-111795456D01*
X196675552Y-111602170D01*
X196675551Y-111602169D01*
X196675551Y-111602165D01*
X196645690Y-111530073D01*
X196600135Y-111420092D01*
X196600128Y-111420079D01*
X196490639Y-111256218D01*
X196490636Y-111256214D01*
X196351285Y-111116863D01*
X196351281Y-111116860D01*
X196187420Y-111007371D01*
X196187407Y-111007364D01*
X196005339Y-110931950D01*
X196005329Y-110931947D01*
X195812043Y-110893500D01*
X195812041Y-110893500D01*
X195614959Y-110893500D01*
X195614957Y-110893500D01*
X195421670Y-110931947D01*
X195421660Y-110931950D01*
X195239592Y-111007364D01*
X195239579Y-111007371D01*
X195075718Y-111116860D01*
X195075714Y-111116863D01*
X194936363Y-111256214D01*
X194936360Y-111256218D01*
X194826871Y-111420079D01*
X194826864Y-111420092D01*
X194751450Y-111602160D01*
X194751447Y-111602170D01*
X194713000Y-111795456D01*
X194713000Y-111795459D01*
X194713000Y-111992541D01*
X194713000Y-111992543D01*
X194712999Y-111992543D01*
X102100500Y-111992543D01*
X102100500Y-88384108D01*
X104199500Y-88384108D01*
X104199500Y-88515892D01*
X104203028Y-88529057D01*
X104233608Y-88643187D01*
X104266554Y-88700250D01*
X104299500Y-88757314D01*
X104299502Y-88757316D01*
X104363181Y-88820995D01*
X104396666Y-88882318D01*
X104399500Y-88908676D01*
X104399500Y-90339562D01*
X104408252Y-90372223D01*
X104419979Y-90415989D01*
X104437798Y-90446852D01*
X104437798Y-90446853D01*
X104459537Y-90484507D01*
X104459539Y-90484510D01*
X104459540Y-90484511D01*
X105851002Y-91875973D01*
X105919525Y-91915535D01*
X105995951Y-91936013D01*
X106075075Y-91936013D01*
X118368337Y-91936013D01*
X118390636Y-91942560D01*
X118413785Y-91944642D01*
X118426812Y-91953183D01*
X118435376Y-91955698D01*
X118444448Y-91962120D01*
X118450551Y-91966865D01*
X118519699Y-92036013D01*
X118596577Y-92080399D01*
X118603307Y-92085631D01*
X118618946Y-92107337D01*
X118637412Y-92126704D01*
X118639060Y-92135255D01*
X118644150Y-92142320D01*
X118645571Y-92169036D01*
X118650635Y-92195311D01*
X118647398Y-92203395D01*
X118647861Y-92212091D01*
X118634611Y-92235334D01*
X118624667Y-92260176D01*
X118614877Y-92271205D01*
X111962989Y-98923095D01*
X111907041Y-98979042D01*
X111907035Y-98979050D01*
X111867482Y-99047559D01*
X111867479Y-99047564D01*
X111847000Y-99123994D01*
X111847000Y-102404323D01*
X111827315Y-102471362D01*
X111810682Y-102492004D01*
X111747000Y-102555686D01*
X111681108Y-102669812D01*
X111658149Y-102755499D01*
X111647000Y-102797108D01*
X111647000Y-102928892D01*
X111659763Y-102976526D01*
X111681108Y-103056187D01*
X111689190Y-103070185D01*
X111747000Y-103170314D01*
X111840186Y-103263500D01*
X111954314Y-103329392D01*
X112081608Y-103363500D01*
X112081610Y-103363500D01*
X112213390Y-103363500D01*
X112213392Y-103363500D01*
X112340686Y-103329392D01*
X112454814Y-103263500D01*
X112548000Y-103170314D01*
X112613892Y-103056186D01*
X112648000Y-102928892D01*
X112648000Y-102797108D01*
X112613892Y-102669814D01*
X112613801Y-102669657D01*
X112593804Y-102635021D01*
X112548000Y-102555686D01*
X112484318Y-102492004D01*
X112450834Y-102430680D01*
X112448000Y-102404323D01*
X112448000Y-99339387D01*
X112467685Y-99272348D01*
X112484314Y-99251711D01*
X120987338Y-90748686D01*
X121014265Y-90733983D01*
X121040084Y-90717391D01*
X121046284Y-90716499D01*
X121048661Y-90715202D01*
X121075019Y-90712368D01*
X121125798Y-90712368D01*
X121192837Y-90732053D01*
X121238592Y-90784857D01*
X121248536Y-90854015D01*
X121219511Y-90917571D01*
X121213479Y-90924049D01*
X114883989Y-97253540D01*
X114828041Y-97309487D01*
X114828035Y-97309495D01*
X114788482Y-97378004D01*
X114788479Y-97378009D01*
X114768000Y-97454439D01*
X114768000Y-101007323D01*
X114748315Y-101074362D01*
X114731682Y-101095004D01*
X114668000Y-101158686D01*
X114602108Y-101272812D01*
X114568000Y-101400108D01*
X114568000Y-101531891D01*
X114602108Y-101659187D01*
X114621449Y-101692686D01*
X114668000Y-101773314D01*
X114761186Y-101866500D01*
X114875314Y-101932392D01*
X115002608Y-101966500D01*
X115002610Y-101966500D01*
X115134390Y-101966500D01*
X115134392Y-101966500D01*
X115261686Y-101932392D01*
X115375814Y-101866500D01*
X115469000Y-101773314D01*
X115534892Y-101659186D01*
X115569000Y-101531892D01*
X115569000Y-101400108D01*
X115534892Y-101272814D01*
X115469000Y-101158686D01*
X115405318Y-101095004D01*
X115371834Y-101033680D01*
X115369000Y-101007323D01*
X115369000Y-100257108D01*
X118378000Y-100257108D01*
X118378000Y-100388891D01*
X118412108Y-100516187D01*
X118432751Y-100551941D01*
X118478000Y-100630314D01*
X118571186Y-100723500D01*
X118685314Y-100789392D01*
X118812608Y-100823500D01*
X118812610Y-100823500D01*
X118944390Y-100823500D01*
X118944392Y-100823500D01*
X119071686Y-100789392D01*
X119185814Y-100723500D01*
X119279000Y-100630314D01*
X119344892Y-100516186D01*
X119379000Y-100388892D01*
X119379000Y-100257108D01*
X119344892Y-100129814D01*
X119279000Y-100015686D01*
X119215318Y-99952004D01*
X119181834Y-99890680D01*
X119179000Y-99864323D01*
X119179000Y-98479108D01*
X119902000Y-98479108D01*
X119902000Y-98610891D01*
X119936108Y-98738187D01*
X119940436Y-98745683D01*
X120002000Y-98852314D01*
X120095186Y-98945500D01*
X120209314Y-99011392D01*
X120336608Y-99045500D01*
X120336610Y-99045500D01*
X120468390Y-99045500D01*
X120468392Y-99045500D01*
X120595686Y-99011392D01*
X120637747Y-98987108D01*
X124601000Y-98987108D01*
X124601000Y-99118892D01*
X124618054Y-99182539D01*
X124635108Y-99246187D01*
X124659264Y-99288026D01*
X124701000Y-99360314D01*
X124794186Y-99453500D01*
X124908314Y-99519392D01*
X125035608Y-99553500D01*
X125035610Y-99553500D01*
X125125667Y-99553500D01*
X125155107Y-99562144D01*
X125185094Y-99568668D01*
X125190109Y-99572422D01*
X125192706Y-99573185D01*
X125213348Y-99589819D01*
X125272681Y-99649152D01*
X125306166Y-99710475D01*
X125309000Y-99736833D01*
X125309000Y-101896323D01*
X125289315Y-101963362D01*
X125272682Y-101984004D01*
X125209000Y-102047686D01*
X125143108Y-102161812D01*
X125109000Y-102289108D01*
X125109000Y-102420891D01*
X125143108Y-102548187D01*
X125170402Y-102595460D01*
X125209000Y-102662314D01*
X125302186Y-102755500D01*
X125401021Y-102812563D01*
X125406931Y-102815975D01*
X125416314Y-102821392D01*
X125543608Y-102855500D01*
X125543610Y-102855500D01*
X125675390Y-102855500D01*
X125675392Y-102855500D01*
X125802686Y-102821392D01*
X125916814Y-102755500D01*
X125966319Y-102705995D01*
X126027642Y-102672510D01*
X126097334Y-102677494D01*
X126141681Y-102705995D01*
X126191186Y-102755500D01*
X126290021Y-102812563D01*
X126295931Y-102815975D01*
X126305314Y-102821392D01*
X126432608Y-102855500D01*
X126432610Y-102855500D01*
X126564390Y-102855500D01*
X126564392Y-102855500D01*
X126691686Y-102821392D01*
X126805814Y-102755500D01*
X126899000Y-102662314D01*
X126964892Y-102548186D01*
X126999000Y-102420892D01*
X126999000Y-102289108D01*
X126964892Y-102161814D01*
X126899000Y-102047686D01*
X126835318Y-101984004D01*
X126801834Y-101922680D01*
X126799000Y-101896323D01*
X126799000Y-99267439D01*
X126799000Y-99267438D01*
X126780428Y-99198128D01*
X126782091Y-99128280D01*
X126821253Y-99070418D01*
X126885481Y-99042913D01*
X126954383Y-99054499D01*
X126987884Y-99078355D01*
X130449040Y-102539511D01*
X130504989Y-102595460D01*
X130504991Y-102595461D01*
X130504995Y-102595464D01*
X130573504Y-102635017D01*
X130573511Y-102635021D01*
X130649938Y-102655500D01*
X130729062Y-102655500D01*
X132643824Y-102655500D01*
X132710863Y-102675185D01*
X132731505Y-102691819D01*
X132795186Y-102755500D01*
X132894021Y-102812563D01*
X132899931Y-102815975D01*
X132909314Y-102821392D01*
X133036608Y-102855500D01*
X133036610Y-102855500D01*
X133168390Y-102855500D01*
X133168392Y-102855500D01*
X133295686Y-102821392D01*
X133409814Y-102755500D01*
X133503000Y-102662314D01*
X133568892Y-102548186D01*
X133603000Y-102420892D01*
X133603000Y-102289108D01*
X133568892Y-102161814D01*
X133503000Y-102047686D01*
X133409814Y-101954500D01*
X133352750Y-101921554D01*
X133295687Y-101888608D01*
X133213166Y-101866497D01*
X133168392Y-101854500D01*
X133036608Y-101854500D01*
X132909312Y-101888608D01*
X132795186Y-101954500D01*
X132795183Y-101954502D01*
X132731505Y-102018181D01*
X132670182Y-102051666D01*
X132643824Y-102054500D01*
X130865333Y-102054500D01*
X130798294Y-102034815D01*
X130777652Y-102018181D01*
X126626321Y-97866850D01*
X126592836Y-97805527D01*
X126590002Y-97779169D01*
X126590002Y-97712108D01*
X126590002Y-97712106D01*
X126555894Y-97584812D01*
X126490002Y-97470684D01*
X126396816Y-97377498D01*
X126338387Y-97343764D01*
X126282689Y-97311606D01*
X126219041Y-97294552D01*
X126155394Y-97277498D01*
X126023610Y-97277498D01*
X125896314Y-97311606D01*
X125782188Y-97377498D01*
X125782185Y-97377500D01*
X125689004Y-97470681D01*
X125689002Y-97470684D01*
X125623110Y-97584810D01*
X125589002Y-97712106D01*
X125589002Y-97810188D01*
X125569317Y-97877227D01*
X125516513Y-97922982D01*
X125497098Y-97929961D01*
X125416314Y-97951608D01*
X125416312Y-97951608D01*
X125416312Y-97951609D01*
X125302186Y-98017500D01*
X125302183Y-98017502D01*
X125209002Y-98110683D01*
X125209000Y-98110686D01*
X125143108Y-98224812D01*
X125109000Y-98352108D01*
X125109000Y-98437686D01*
X125089315Y-98504725D01*
X125036511Y-98550480D01*
X125017096Y-98557460D01*
X124908314Y-98586608D01*
X124908312Y-98586608D01*
X124908312Y-98586609D01*
X124794186Y-98652500D01*
X124794183Y-98652502D01*
X124701002Y-98745683D01*
X124701000Y-98745686D01*
X124635108Y-98859812D01*
X124612149Y-98945499D01*
X124601000Y-98987108D01*
X120637747Y-98987108D01*
X120709814Y-98945500D01*
X120803000Y-98852314D01*
X120868892Y-98738186D01*
X120903000Y-98610892D01*
X120903000Y-98520832D01*
X120922685Y-98453793D01*
X120939319Y-98433151D01*
X122014652Y-97357819D01*
X122075975Y-97324334D01*
X122102333Y-97321500D01*
X124760060Y-97321500D01*
X124760062Y-97321500D01*
X124836489Y-97301021D01*
X124905011Y-97261460D01*
X124960960Y-97205511D01*
X126737363Y-95429108D01*
X128162000Y-95429108D01*
X128162000Y-95560891D01*
X128196108Y-95688187D01*
X128229054Y-95745250D01*
X128262000Y-95802314D01*
X128355186Y-95895500D01*
X128469314Y-95961392D01*
X128596608Y-95995500D01*
X128596610Y-95995500D01*
X128686667Y-95995500D01*
X128753706Y-96015185D01*
X128774348Y-96031819D01*
X134162681Y-101420152D01*
X134196166Y-101481475D01*
X134199000Y-101507833D01*
X134199000Y-101896323D01*
X134179315Y-101963362D01*
X134162682Y-101984004D01*
X134099000Y-102047686D01*
X134033108Y-102161812D01*
X133999000Y-102289108D01*
X133999000Y-102420891D01*
X134033108Y-102548187D01*
X134060402Y-102595460D01*
X134099000Y-102662314D01*
X134192186Y-102755500D01*
X134291021Y-102812563D01*
X134296931Y-102815975D01*
X134306314Y-102821392D01*
X134433608Y-102855500D01*
X134433610Y-102855500D01*
X134565390Y-102855500D01*
X134565392Y-102855500D01*
X134692686Y-102821392D01*
X134806814Y-102755500D01*
X134900000Y-102662314D01*
X134965892Y-102548186D01*
X135000000Y-102420892D01*
X135000000Y-102289108D01*
X134965892Y-102161814D01*
X134900000Y-102047686D01*
X134836318Y-101984004D01*
X134802834Y-101922680D01*
X134800000Y-101896323D01*
X134800000Y-101292440D01*
X134799999Y-101292433D01*
X134796223Y-101278342D01*
X134779522Y-101216012D01*
X134739960Y-101147489D01*
X129753652Y-96161181D01*
X129720167Y-96099858D01*
X129725151Y-96030166D01*
X129767023Y-95974233D01*
X129832487Y-95949816D01*
X129841333Y-95949500D01*
X136055378Y-95949500D01*
X136122417Y-95969185D01*
X136143059Y-95985819D01*
X140709181Y-100551941D01*
X140742666Y-100613264D01*
X140745500Y-100639622D01*
X140745500Y-100973982D01*
X140725815Y-101041021D01*
X140690390Y-101077084D01*
X140530349Y-101184019D01*
X140530341Y-101184025D01*
X140384024Y-101330342D01*
X140269058Y-101502403D01*
X140189870Y-101693579D01*
X140189868Y-101693587D01*
X140149500Y-101896530D01*
X140149500Y-102103469D01*
X140189868Y-102306412D01*
X140189870Y-102306420D01*
X140269058Y-102497596D01*
X140384024Y-102669657D01*
X140530342Y-102815975D01*
X140530345Y-102815977D01*
X140690391Y-102922916D01*
X140735195Y-102976526D01*
X140745500Y-103026017D01*
X140745500Y-104532551D01*
X140745499Y-104532569D01*
X140745499Y-104540164D01*
X140745499Y-104659836D01*
X140764880Y-104732165D01*
X140776473Y-104775431D01*
X140836309Y-104879070D01*
X140836311Y-104879072D01*
X140927995Y-104970756D01*
X140928001Y-104970761D01*
X147331968Y-111374728D01*
X147331978Y-111374739D01*
X147336308Y-111379069D01*
X147336309Y-111379070D01*
X147420930Y-111463691D01*
X147524569Y-111523527D01*
X147548993Y-111530071D01*
X147548995Y-111530072D01*
X147548996Y-111530072D01*
X147579386Y-111538215D01*
X147640164Y-111554501D01*
X147640166Y-111554501D01*
X147767432Y-111554501D01*
X147767448Y-111554500D01*
X155332552Y-111554500D01*
X155332568Y-111554501D01*
X155340164Y-111554501D01*
X155459835Y-111554501D01*
X155459836Y-111554501D01*
X155550998Y-111530073D01*
X155551001Y-111530073D01*
X155565693Y-111526136D01*
X155575431Y-111523527D01*
X155679070Y-111463691D01*
X155763691Y-111379070D01*
X155763691Y-111379068D01*
X155773895Y-111368865D01*
X155773899Y-111368860D01*
X156629229Y-110513530D01*
X180686500Y-110513530D01*
X180686500Y-110720469D01*
X180726868Y-110923412D01*
X180726870Y-110923420D01*
X180806059Y-111114598D01*
X180863541Y-111200626D01*
X180921024Y-111286657D01*
X181067342Y-111432975D01*
X181067345Y-111432977D01*
X181239402Y-111547941D01*
X181430580Y-111627130D01*
X181633530Y-111667499D01*
X181633534Y-111667500D01*
X181633535Y-111667500D01*
X181840466Y-111667500D01*
X181840467Y-111667499D01*
X182043420Y-111627130D01*
X182234598Y-111547941D01*
X182406655Y-111432977D01*
X182552977Y-111286655D01*
X182667941Y-111114598D01*
X182747130Y-110923420D01*
X182787500Y-110720465D01*
X182787500Y-110513535D01*
X182747130Y-110310580D01*
X182667941Y-110119402D01*
X182552977Y-109947345D01*
X182552975Y-109947342D01*
X182406657Y-109801024D01*
X182313977Y-109739098D01*
X182234598Y-109686059D01*
X182164651Y-109657086D01*
X182043420Y-109606870D01*
X182043412Y-109606868D01*
X181840469Y-109566500D01*
X181840465Y-109566500D01*
X181633535Y-109566500D01*
X181633530Y-109566500D01*
X181430587Y-109606868D01*
X181430579Y-109606870D01*
X181239403Y-109686058D01*
X181067342Y-109801024D01*
X180921024Y-109947342D01*
X180806058Y-110119403D01*
X180726870Y-110310579D01*
X180726868Y-110310587D01*
X180686500Y-110513530D01*
X156629229Y-110513530D01*
X159097036Y-108045722D01*
X159137269Y-108018842D01*
X159143177Y-108016394D01*
X159143186Y-108016392D01*
X159257314Y-107950500D01*
X159350500Y-107857314D01*
X159416392Y-107743186D01*
X159450500Y-107615892D01*
X159450500Y-107484108D01*
X159416392Y-107356814D01*
X159350500Y-107242686D01*
X159257314Y-107149500D01*
X159143186Y-107083608D01*
X159042821Y-107056715D01*
X159008328Y-107047473D01*
X158948668Y-107011108D01*
X158918139Y-106948261D01*
X158926434Y-106878885D01*
X158952738Y-106840020D01*
X160131360Y-105661399D01*
X160131365Y-105661395D01*
X160141568Y-105651191D01*
X160141570Y-105651191D01*
X160226191Y-105566570D01*
X160286027Y-105462931D01*
X160317000Y-105347336D01*
X160317000Y-102246559D01*
X160326441Y-102199102D01*
X160328888Y-102193192D01*
X160328892Y-102193186D01*
X160363000Y-102065892D01*
X160363000Y-101934108D01*
X160328892Y-101806814D01*
X160263000Y-101692686D01*
X160169814Y-101599500D01*
X160091458Y-101554261D01*
X160043242Y-101503694D01*
X160030019Y-101435087D01*
X160055988Y-101370222D01*
X160065769Y-101359201D01*
X162488152Y-98936819D01*
X162549475Y-98903334D01*
X162575833Y-98900500D01*
X163741324Y-98900500D01*
X163808363Y-98920185D01*
X163829005Y-98936819D01*
X163892686Y-99000500D01*
X164006814Y-99066392D01*
X164134108Y-99100500D01*
X164134110Y-99100500D01*
X164265890Y-99100500D01*
X164265892Y-99100500D01*
X164393186Y-99066392D01*
X164507314Y-99000500D01*
X164600500Y-98907314D01*
X164666392Y-98793186D01*
X164700500Y-98665892D01*
X164700500Y-98534108D01*
X164666392Y-98406814D01*
X164600500Y-98292686D01*
X164507314Y-98199500D01*
X164450250Y-98166554D01*
X164393187Y-98133608D01*
X164307628Y-98110683D01*
X164265892Y-98099500D01*
X164134108Y-98099500D01*
X164006812Y-98133608D01*
X163892686Y-98199500D01*
X163892683Y-98199502D01*
X163829005Y-98263181D01*
X163767682Y-98296666D01*
X163741324Y-98299500D01*
X162360438Y-98299500D01*
X162293039Y-98317559D01*
X162284007Y-98319980D01*
X162228872Y-98351813D01*
X162215492Y-98359537D01*
X162215487Y-98359541D01*
X159711848Y-100863181D01*
X159650525Y-100896666D01*
X159624167Y-100899500D01*
X158658676Y-100899500D01*
X158591637Y-100879815D01*
X158570995Y-100863181D01*
X158507316Y-100799502D01*
X158507314Y-100799500D01*
X158450250Y-100766554D01*
X158393187Y-100733608D01*
X158329539Y-100716554D01*
X158265892Y-100699500D01*
X158134108Y-100699500D01*
X158006812Y-100733608D01*
X157892686Y-100799500D01*
X157892683Y-100799502D01*
X157799502Y-100892683D01*
X157799500Y-100892686D01*
X157733608Y-101006812D01*
X157714779Y-101077084D01*
X157699500Y-101134108D01*
X157699500Y-101265892D01*
X157716554Y-101329539D01*
X157733608Y-101393187D01*
X157760902Y-101440460D01*
X157799500Y-101507314D01*
X157892686Y-101600500D01*
X158006814Y-101666392D01*
X158134108Y-101700500D01*
X158134110Y-101700500D01*
X158265890Y-101700500D01*
X158265892Y-101700500D01*
X158393186Y-101666392D01*
X158507314Y-101600500D01*
X158570995Y-101536819D01*
X158632318Y-101503334D01*
X158658676Y-101500500D01*
X159358185Y-101500500D01*
X159425224Y-101520185D01*
X159470979Y-101572989D01*
X159480923Y-101642147D01*
X159465572Y-101686501D01*
X159462002Y-101692683D01*
X159462000Y-101692686D01*
X159457489Y-101700500D01*
X159396108Y-101806812D01*
X159370077Y-101903964D01*
X159362000Y-101934108D01*
X159362000Y-102065892D01*
X159387702Y-102161814D01*
X159396108Y-102193186D01*
X159398559Y-102199102D01*
X159408000Y-102246559D01*
X159408000Y-105047878D01*
X159388315Y-105114917D01*
X159371681Y-105135559D01*
X155148059Y-109359181D01*
X155086736Y-109392666D01*
X155060378Y-109395500D01*
X149289622Y-109395500D01*
X149222583Y-109375815D01*
X149201941Y-109359181D01*
X147877924Y-108035164D01*
X150658000Y-108035164D01*
X150658000Y-108154836D01*
X150688973Y-108270431D01*
X150748809Y-108374070D01*
X150833430Y-108458691D01*
X150937069Y-108518527D01*
X151052664Y-108549500D01*
X151052666Y-108549500D01*
X151172334Y-108549500D01*
X151172336Y-108549500D01*
X151287931Y-108518527D01*
X151391570Y-108458691D01*
X151476191Y-108374070D01*
X151536027Y-108270431D01*
X151567000Y-108154836D01*
X151567000Y-108035164D01*
X151536027Y-107919569D01*
X151476191Y-107815930D01*
X151425519Y-107765258D01*
X151392034Y-107703935D01*
X151389200Y-107677577D01*
X151389200Y-102160974D01*
X151408885Y-102093935D01*
X151425514Y-102073298D01*
X159279177Y-94219634D01*
X159297330Y-94205707D01*
X159297221Y-94205565D01*
X159303667Y-94200618D01*
X159303668Y-94200616D01*
X159303671Y-94200615D01*
X159535415Y-93968869D01*
X159596734Y-93935387D01*
X159655183Y-93936777D01*
X159702664Y-93949500D01*
X159702666Y-93949500D01*
X159822334Y-93949500D01*
X159822336Y-93949500D01*
X159937931Y-93918527D01*
X160041570Y-93858691D01*
X160126191Y-93774070D01*
X160186027Y-93670431D01*
X160217000Y-93554836D01*
X160217000Y-93435164D01*
X160186027Y-93319569D01*
X160126191Y-93215930D01*
X160041570Y-93131309D01*
X159966008Y-93087683D01*
X159937933Y-93071474D01*
X159937932Y-93071473D01*
X159937931Y-93071473D01*
X159822336Y-93040500D01*
X159702664Y-93040500D01*
X159587069Y-93071473D01*
X159587066Y-93071474D01*
X159483433Y-93131307D01*
X159483427Y-93131311D01*
X159450181Y-93164558D01*
X159442235Y-93168896D01*
X159436810Y-93176144D01*
X159412050Y-93185378D01*
X159388858Y-93198043D01*
X159379828Y-93197397D01*
X159371346Y-93200561D01*
X159345525Y-93194944D01*
X159319166Y-93193059D01*
X159310112Y-93187240D01*
X159303073Y-93185709D01*
X159274819Y-93164558D01*
X159225519Y-93115258D01*
X159192034Y-93053935D01*
X159189200Y-93027577D01*
X159189200Y-91253527D01*
X159208885Y-91186488D01*
X159261689Y-91140733D01*
X159281099Y-91133754D01*
X159337931Y-91118527D01*
X159441570Y-91058691D01*
X159526191Y-90974070D01*
X159586027Y-90870431D01*
X159617000Y-90754836D01*
X159617000Y-90635164D01*
X159586027Y-90519569D01*
X159526191Y-90415930D01*
X159441570Y-90331309D01*
X159361984Y-90285360D01*
X159337933Y-90271474D01*
X159337932Y-90271473D01*
X159337931Y-90271473D01*
X159222336Y-90240500D01*
X159102664Y-90240500D01*
X158987069Y-90271473D01*
X158987066Y-90271474D01*
X158883433Y-90331307D01*
X158883427Y-90331311D01*
X158798811Y-90415927D01*
X158798807Y-90415933D01*
X158738974Y-90519566D01*
X158738973Y-90519569D01*
X158708000Y-90635164D01*
X158708000Y-90712578D01*
X158705155Y-90724803D01*
X158706180Y-90733745D01*
X158697505Y-90757688D01*
X158695267Y-90767310D01*
X158691772Y-90774414D01*
X158691085Y-90775102D01*
X158654656Y-90838197D01*
X158650931Y-90852100D01*
X158647787Y-90863833D01*
X158647786Y-90863836D01*
X158635800Y-90908570D01*
X158635800Y-93027577D01*
X158616115Y-93094616D01*
X158599481Y-93115258D01*
X158548811Y-93165927D01*
X158548807Y-93165933D01*
X158488974Y-93269566D01*
X158488973Y-93269569D01*
X158458000Y-93385164D01*
X158458000Y-93504836D01*
X158488973Y-93620431D01*
X158548809Y-93724070D01*
X158633430Y-93808691D01*
X158644259Y-93814943D01*
X158667231Y-93828207D01*
X158715446Y-93878774D01*
X158728668Y-93947381D01*
X158702700Y-94012246D01*
X158692911Y-94023274D01*
X150891087Y-101825098D01*
X150891085Y-101825101D01*
X150854654Y-101888199D01*
X150850431Y-101903962D01*
X150850431Y-101903964D01*
X150835802Y-101958564D01*
X150835800Y-101958572D01*
X150835800Y-101958575D01*
X150835800Y-107677577D01*
X150816115Y-107744616D01*
X150799481Y-107765258D01*
X150748811Y-107815927D01*
X150748807Y-107815933D01*
X150688974Y-107919566D01*
X150688973Y-107919569D01*
X150658000Y-108035164D01*
X147877924Y-108035164D01*
X144230819Y-104388059D01*
X144197334Y-104326736D01*
X144194500Y-104300378D01*
X144194500Y-103174500D01*
X144214185Y-103107461D01*
X144266989Y-103061706D01*
X144318500Y-103050500D01*
X144609750Y-103050500D01*
X144609751Y-103050499D01*
X144624568Y-103047552D01*
X144668229Y-103038868D01*
X144668229Y-103038867D01*
X144668231Y-103038867D01*
X144734552Y-102994552D01*
X144778867Y-102928231D01*
X144778867Y-102928229D01*
X144778868Y-102928229D01*
X144790499Y-102869752D01*
X144790500Y-102869750D01*
X144790500Y-101130249D01*
X144790499Y-101130247D01*
X144778868Y-101071770D01*
X144778867Y-101071769D01*
X144734552Y-101005447D01*
X144668230Y-100961132D01*
X144668229Y-100961131D01*
X144609752Y-100949500D01*
X144609748Y-100949500D01*
X144318500Y-100949500D01*
X144251461Y-100929815D01*
X144205706Y-100877011D01*
X144194500Y-100825500D01*
X144194500Y-100280166D01*
X144194500Y-100280164D01*
X144163527Y-100164569D01*
X144103691Y-100060930D01*
X144019070Y-99976309D01*
X144019069Y-99976308D01*
X144014739Y-99971978D01*
X144014728Y-99971968D01*
X138415761Y-94373001D01*
X138415759Y-94372998D01*
X138324072Y-94281311D01*
X138324066Y-94281306D01*
X138220434Y-94221474D01*
X138220429Y-94221472D01*
X138196003Y-94214926D01*
X138196003Y-94214927D01*
X138119775Y-94194502D01*
X138104836Y-94190499D01*
X137985164Y-94190499D01*
X137977568Y-94190499D01*
X137977552Y-94190500D01*
X129959060Y-94190500D01*
X129911606Y-94181061D01*
X129905690Y-94178610D01*
X129905686Y-94178608D01*
X129778392Y-94144500D01*
X129646608Y-94144500D01*
X129519312Y-94178608D01*
X129405186Y-94244500D01*
X129405183Y-94244502D01*
X129312002Y-94337683D01*
X129312000Y-94337686D01*
X129246108Y-94451812D01*
X129212000Y-94579108D01*
X129212000Y-94710891D01*
X129246109Y-94838188D01*
X129246109Y-94838189D01*
X129297364Y-94926965D01*
X129313837Y-94994865D01*
X129290984Y-95060892D01*
X129274925Y-95079297D01*
X129264439Y-95089157D01*
X129255186Y-95094500D01*
X129198823Y-95150862D01*
X129197448Y-95152156D01*
X129167914Y-95167124D01*
X129138858Y-95182990D01*
X129136886Y-95182849D01*
X129135125Y-95183742D01*
X129102189Y-95180367D01*
X129069166Y-95178006D01*
X129067274Y-95176790D01*
X129065620Y-95176621D01*
X129059851Y-95172019D01*
X129024819Y-95149505D01*
X128969816Y-95094502D01*
X128969814Y-95094500D01*
X128888384Y-95047486D01*
X128855687Y-95028608D01*
X128792039Y-95011554D01*
X128728392Y-94994500D01*
X128596608Y-94994500D01*
X128469312Y-95028608D01*
X128355186Y-95094500D01*
X128355183Y-95094502D01*
X128262002Y-95187683D01*
X128262000Y-95187686D01*
X128196108Y-95301812D01*
X128162000Y-95429108D01*
X126737363Y-95429108D01*
X128187362Y-93979108D01*
X144112000Y-93979108D01*
X144112000Y-94110892D01*
X144121005Y-94144500D01*
X144146108Y-94238187D01*
X144170430Y-94280313D01*
X144212000Y-94352314D01*
X144305186Y-94445500D01*
X144419314Y-94511392D01*
X144546608Y-94545500D01*
X144546610Y-94545500D01*
X144636667Y-94545500D01*
X144703706Y-94565185D01*
X144724348Y-94581819D01*
X146975681Y-96833152D01*
X147009166Y-96894475D01*
X147012000Y-96920833D01*
X147012000Y-97010891D01*
X147046108Y-97138187D01*
X147051772Y-97147997D01*
X147112000Y-97252314D01*
X147205186Y-97345500D01*
X147319314Y-97411392D01*
X147446608Y-97445500D01*
X147446610Y-97445500D01*
X147578390Y-97445500D01*
X147578392Y-97445500D01*
X147705686Y-97411392D01*
X147819814Y-97345500D01*
X147913000Y-97252314D01*
X147978892Y-97138186D01*
X148013000Y-97010892D01*
X148013000Y-96879108D01*
X147978892Y-96751814D01*
X147913000Y-96637686D01*
X147819814Y-96544500D01*
X147762750Y-96511554D01*
X147705687Y-96478608D01*
X147642039Y-96461554D01*
X147578392Y-96444500D01*
X147488333Y-96444500D01*
X147421294Y-96424815D01*
X147400652Y-96408181D01*
X145149319Y-94156848D01*
X145134615Y-94129920D01*
X145118023Y-94104102D01*
X145117131Y-94097901D01*
X145115834Y-94095525D01*
X145113000Y-94069167D01*
X145113000Y-93979110D01*
X145113000Y-93979108D01*
X146712000Y-93979108D01*
X146712000Y-94110892D01*
X146721005Y-94144500D01*
X146746108Y-94238187D01*
X146770430Y-94280313D01*
X146812000Y-94352314D01*
X146905186Y-94445500D01*
X147019314Y-94511392D01*
X147146608Y-94545500D01*
X147146610Y-94545500D01*
X147236667Y-94545500D01*
X147303706Y-94565185D01*
X147324348Y-94581819D01*
X149422040Y-96679511D01*
X149477989Y-96735460D01*
X149477991Y-96735461D01*
X149477995Y-96735464D01*
X149546504Y-96775017D01*
X149546511Y-96775021D01*
X149622938Y-96795500D01*
X151853824Y-96795500D01*
X151920863Y-96815185D01*
X151941505Y-96831819D01*
X152005186Y-96895500D01*
X152119314Y-96961392D01*
X152246608Y-96995500D01*
X152246610Y-96995500D01*
X152378390Y-96995500D01*
X152378392Y-96995500D01*
X152505686Y-96961392D01*
X152619814Y-96895500D01*
X152713000Y-96802314D01*
X152778892Y-96688186D01*
X152813000Y-96560892D01*
X152813000Y-96429108D01*
X152778892Y-96301814D01*
X152713000Y-96187686D01*
X152619814Y-96094500D01*
X152562750Y-96061554D01*
X152505687Y-96028608D01*
X152442039Y-96011554D01*
X152378392Y-95994500D01*
X152246608Y-95994500D01*
X152119312Y-96028608D01*
X152005186Y-96094500D01*
X152005183Y-96094502D01*
X151941505Y-96158181D01*
X151880182Y-96191666D01*
X151853824Y-96194500D01*
X149838333Y-96194500D01*
X149771294Y-96174815D01*
X149750652Y-96158181D01*
X147749319Y-94156848D01*
X147715834Y-94095525D01*
X147713000Y-94069167D01*
X147713000Y-93979110D01*
X147713000Y-93979108D01*
X147678892Y-93851814D01*
X147613000Y-93737686D01*
X147519814Y-93644500D01*
X147462750Y-93611554D01*
X147405687Y-93578608D01*
X147342039Y-93561554D01*
X147278392Y-93544500D01*
X147146608Y-93544500D01*
X147019312Y-93578608D01*
X146905186Y-93644500D01*
X146905183Y-93644502D01*
X146812002Y-93737683D01*
X146812000Y-93737686D01*
X146746108Y-93851812D01*
X146728232Y-93918527D01*
X146712000Y-93979108D01*
X145113000Y-93979108D01*
X145078892Y-93851814D01*
X145013000Y-93737686D01*
X144919814Y-93644500D01*
X144862750Y-93611554D01*
X144805687Y-93578608D01*
X144742039Y-93561554D01*
X144678392Y-93544500D01*
X144546608Y-93544500D01*
X144419312Y-93578608D01*
X144305186Y-93644500D01*
X144305183Y-93644502D01*
X144212002Y-93737683D01*
X144212000Y-93737686D01*
X144146108Y-93851812D01*
X144128232Y-93918527D01*
X144112000Y-93979108D01*
X128187362Y-93979108D01*
X128934200Y-93232270D01*
X128989782Y-93200179D01*
X129104686Y-93169392D01*
X129218814Y-93103500D01*
X129312000Y-93010314D01*
X129377892Y-92896186D01*
X129412000Y-92768892D01*
X129412000Y-92637108D01*
X129377892Y-92509814D01*
X129312000Y-92395686D01*
X129218814Y-92302500D01*
X129145507Y-92260176D01*
X129104687Y-92236608D01*
X129013186Y-92212091D01*
X128977392Y-92202500D01*
X128845608Y-92202500D01*
X128718312Y-92236608D01*
X128604186Y-92302500D01*
X128604183Y-92302502D01*
X128511002Y-92395683D01*
X128511000Y-92395686D01*
X128445108Y-92509812D01*
X128411000Y-92637108D01*
X128411000Y-92768896D01*
X128421345Y-92807504D01*
X128419681Y-92877354D01*
X128389251Y-92927276D01*
X124632348Y-96684181D01*
X124571025Y-96717666D01*
X124544667Y-96720500D01*
X121886938Y-96720500D01*
X121835986Y-96734152D01*
X121810510Y-96740979D01*
X121776721Y-96760488D01*
X121776719Y-96760489D01*
X121741990Y-96780539D01*
X121741987Y-96780541D01*
X120514347Y-98008181D01*
X120453024Y-98041666D01*
X120426666Y-98044500D01*
X120336608Y-98044500D01*
X120209312Y-98078608D01*
X120095186Y-98144500D01*
X120095183Y-98144502D01*
X120002002Y-98237683D01*
X120002000Y-98237686D01*
X119936108Y-98351812D01*
X119902000Y-98479108D01*
X119179000Y-98479108D01*
X119179000Y-96688832D01*
X119198685Y-96621793D01*
X119215314Y-96601156D01*
X121306651Y-94509818D01*
X121367974Y-94476334D01*
X121394332Y-94473500D01*
X121484390Y-94473500D01*
X121484392Y-94473500D01*
X121611686Y-94439392D01*
X121725814Y-94373500D01*
X121819000Y-94280314D01*
X121884892Y-94166186D01*
X121919000Y-94038892D01*
X121919000Y-93907108D01*
X121884892Y-93779814D01*
X121819000Y-93665686D01*
X121725814Y-93572500D01*
X121668750Y-93539554D01*
X121630879Y-93517689D01*
X123795001Y-93517689D01*
X123795001Y-93636307D01*
X123812688Y-93702314D01*
X123825702Y-93750885D01*
X123825705Y-93750890D01*
X123885006Y-93853604D01*
X123885010Y-93853609D01*
X123885011Y-93853611D01*
X123968887Y-93937487D01*
X123968889Y-93937488D01*
X123968893Y-93937491D01*
X124071607Y-93996792D01*
X124071614Y-93996796D01*
X124186191Y-94027497D01*
X124186194Y-94027497D01*
X124304806Y-94027497D01*
X124304809Y-94027497D01*
X124419386Y-93996796D01*
X124522113Y-93937487D01*
X124605989Y-93853611D01*
X124665298Y-93750884D01*
X124665300Y-93750873D01*
X124668407Y-93743377D01*
X124671764Y-93744767D01*
X124699179Y-93699334D01*
X124761889Y-93668524D01*
X124831301Y-93676508D01*
X124885377Y-93720752D01*
X124896106Y-93743992D01*
X124897592Y-93743377D01*
X124900700Y-93750880D01*
X124900701Y-93750884D01*
X124900702Y-93750885D01*
X124900704Y-93750890D01*
X124960005Y-93853604D01*
X124960009Y-93853609D01*
X124960010Y-93853611D01*
X125043886Y-93937487D01*
X125043888Y-93937488D01*
X125043892Y-93937491D01*
X125146606Y-93996792D01*
X125146613Y-93996796D01*
X125204192Y-94012224D01*
X125263851Y-94048588D01*
X125294380Y-94111434D01*
X125286086Y-94180810D01*
X125241600Y-94234688D01*
X125204193Y-94251772D01*
X125146613Y-94267201D01*
X125146612Y-94267201D01*
X125146610Y-94267202D01*
X125146606Y-94267204D01*
X125043892Y-94326505D01*
X125043884Y-94326511D01*
X124960011Y-94410384D01*
X124960005Y-94410392D01*
X124900704Y-94513106D01*
X124900701Y-94513111D01*
X124892023Y-94545499D01*
X124870000Y-94627690D01*
X124870000Y-94746308D01*
X124881222Y-94788187D01*
X124900701Y-94860886D01*
X124900704Y-94860891D01*
X124960005Y-94963605D01*
X124960009Y-94963610D01*
X124960010Y-94963612D01*
X125043886Y-95047488D01*
X125043888Y-95047489D01*
X125043892Y-95047492D01*
X125098981Y-95079297D01*
X125146613Y-95106797D01*
X125261190Y-95137498D01*
X125261193Y-95137498D01*
X125379805Y-95137498D01*
X125379808Y-95137498D01*
X125494385Y-95106797D01*
X125597112Y-95047488D01*
X125680988Y-94963612D01*
X125740297Y-94860885D01*
X125770998Y-94746308D01*
X125770998Y-94627690D01*
X125740297Y-94513113D01*
X125714743Y-94468851D01*
X125680992Y-94410392D01*
X125680986Y-94410384D01*
X125597113Y-94326511D01*
X125597105Y-94326505D01*
X125494391Y-94267204D01*
X125494386Y-94267201D01*
X125468995Y-94260397D01*
X125436805Y-94251772D01*
X125377146Y-94215407D01*
X125346617Y-94152560D01*
X125354912Y-94083185D01*
X125399398Y-94029307D01*
X125436803Y-94012224D01*
X125494385Y-93996796D01*
X125597112Y-93937487D01*
X125680988Y-93853611D01*
X125740297Y-93750884D01*
X125740299Y-93750873D01*
X125743406Y-93743377D01*
X125746763Y-93744767D01*
X125774178Y-93699334D01*
X125836888Y-93668524D01*
X125906300Y-93676508D01*
X125960376Y-93720752D01*
X125971105Y-93743992D01*
X125972591Y-93743377D01*
X125975699Y-93750880D01*
X125975700Y-93750884D01*
X125975701Y-93750885D01*
X125975703Y-93750890D01*
X126035004Y-93853604D01*
X126035008Y-93853609D01*
X126035009Y-93853611D01*
X126118885Y-93937487D01*
X126118887Y-93937488D01*
X126118891Y-93937491D01*
X126221605Y-93996792D01*
X126221612Y-93996796D01*
X126336189Y-94027497D01*
X126336192Y-94027497D01*
X126454804Y-94027497D01*
X126454807Y-94027497D01*
X126569384Y-93996796D01*
X126672111Y-93937487D01*
X126755987Y-93853611D01*
X126815296Y-93750884D01*
X126845997Y-93636307D01*
X126845997Y-93517689D01*
X126815296Y-93403112D01*
X126804934Y-93385164D01*
X126755991Y-93300391D01*
X126755985Y-93300383D01*
X126672112Y-93216510D01*
X126672104Y-93216504D01*
X126569390Y-93157203D01*
X126569385Y-93157200D01*
X126540739Y-93149524D01*
X126454807Y-93126499D01*
X126336189Y-93126499D01*
X126267442Y-93144919D01*
X126221610Y-93157200D01*
X126221605Y-93157203D01*
X126118891Y-93216504D01*
X126118883Y-93216510D01*
X126035010Y-93300383D01*
X126035004Y-93300391D01*
X125975703Y-93403105D01*
X125972591Y-93410619D01*
X125969415Y-93409303D01*
X125940861Y-93455530D01*
X125877833Y-93485684D01*
X125808508Y-93476977D01*
X125754896Y-93432172D01*
X125744883Y-93410006D01*
X125743406Y-93410619D01*
X125740299Y-93403119D01*
X125740297Y-93403112D01*
X125729935Y-93385164D01*
X125680992Y-93300391D01*
X125680986Y-93300383D01*
X125597113Y-93216510D01*
X125597105Y-93216504D01*
X125494391Y-93157203D01*
X125494387Y-93157201D01*
X125494385Y-93157200D01*
X125436807Y-93141772D01*
X125377148Y-93105408D01*
X125346619Y-93042561D01*
X125354914Y-92973186D01*
X125399399Y-92919308D01*
X125436806Y-92902224D01*
X125494385Y-92886796D01*
X125597112Y-92827487D01*
X125680988Y-92743611D01*
X125740297Y-92640884D01*
X125770998Y-92526307D01*
X125770998Y-92407689D01*
X125740297Y-92293112D01*
X125693520Y-92212091D01*
X125680992Y-92190391D01*
X125680986Y-92190383D01*
X125597113Y-92106510D01*
X125597105Y-92106504D01*
X125494391Y-92047203D01*
X125494386Y-92047200D01*
X125465740Y-92039524D01*
X125379808Y-92016499D01*
X125261190Y-92016499D01*
X125192443Y-92034919D01*
X125146611Y-92047200D01*
X125146606Y-92047203D01*
X125043892Y-92106504D01*
X125043884Y-92106510D01*
X124960011Y-92190383D01*
X124960005Y-92190391D01*
X124900704Y-92293105D01*
X124900701Y-92293110D01*
X124885350Y-92350400D01*
X124870000Y-92407689D01*
X124870000Y-92526307D01*
X124893025Y-92612239D01*
X124900701Y-92640885D01*
X124900704Y-92640890D01*
X124960005Y-92743604D01*
X124960009Y-92743609D01*
X124960010Y-92743611D01*
X125043886Y-92827487D01*
X125043888Y-92827488D01*
X125043892Y-92827491D01*
X125129046Y-92876654D01*
X125146613Y-92886796D01*
X125204190Y-92902223D01*
X125263849Y-92938588D01*
X125294378Y-93001435D01*
X125286083Y-93070811D01*
X125241598Y-93124689D01*
X125204191Y-93141771D01*
X125175401Y-93149486D01*
X125146611Y-93157200D01*
X125146606Y-93157203D01*
X125043892Y-93216504D01*
X125043884Y-93216510D01*
X124960011Y-93300383D01*
X124960005Y-93300391D01*
X124900704Y-93403105D01*
X124897592Y-93410619D01*
X124894416Y-93409303D01*
X124865862Y-93455530D01*
X124802834Y-93485684D01*
X124733509Y-93476977D01*
X124679897Y-93432172D01*
X124669884Y-93410006D01*
X124668407Y-93410619D01*
X124665300Y-93403119D01*
X124665298Y-93403112D01*
X124654936Y-93385164D01*
X124605993Y-93300391D01*
X124605987Y-93300383D01*
X124522114Y-93216510D01*
X124522106Y-93216504D01*
X124419392Y-93157203D01*
X124419387Y-93157200D01*
X124390741Y-93149524D01*
X124304809Y-93126499D01*
X124186191Y-93126499D01*
X124117444Y-93144919D01*
X124071612Y-93157200D01*
X124071607Y-93157203D01*
X123968893Y-93216504D01*
X123968885Y-93216510D01*
X123885012Y-93300383D01*
X123885006Y-93300391D01*
X123825705Y-93403105D01*
X123825702Y-93403110D01*
X123817113Y-93435166D01*
X123795001Y-93517689D01*
X121630879Y-93517689D01*
X121611687Y-93506608D01*
X121533596Y-93485684D01*
X121484392Y-93472500D01*
X121352608Y-93472500D01*
X121225312Y-93506608D01*
X121111186Y-93572500D01*
X121111183Y-93572502D01*
X121018002Y-93665683D01*
X121018000Y-93665686D01*
X120952108Y-93779812D01*
X120918000Y-93907108D01*
X120918000Y-93997166D01*
X120898315Y-94064205D01*
X120881681Y-94084847D01*
X118693989Y-96272540D01*
X118638041Y-96328487D01*
X118638035Y-96328495D01*
X118598482Y-96397004D01*
X118598479Y-96397009D01*
X118578000Y-96473439D01*
X118578000Y-99864323D01*
X118558315Y-99931362D01*
X118541682Y-99952004D01*
X118478000Y-100015686D01*
X118412108Y-100129812D01*
X118378000Y-100257108D01*
X115369000Y-100257108D01*
X115369000Y-97669832D01*
X115388685Y-97602793D01*
X115405314Y-97582156D01*
X122068651Y-90918818D01*
X122095578Y-90904115D01*
X122121397Y-90887523D01*
X122127597Y-90886631D01*
X122129974Y-90885334D01*
X122156332Y-90882500D01*
X122169877Y-90882500D01*
X122236916Y-90902185D01*
X122282671Y-90954989D01*
X122292615Y-91024147D01*
X122263590Y-91087703D01*
X122257558Y-91094181D01*
X121943811Y-91407927D01*
X121943807Y-91407933D01*
X121883972Y-91511568D01*
X121883973Y-91511568D01*
X121883973Y-91511570D01*
X121852999Y-91627165D01*
X121852999Y-91756825D01*
X121853000Y-91756838D01*
X121853000Y-92456439D01*
X121843562Y-92503890D01*
X121841108Y-92509813D01*
X121807000Y-92637108D01*
X121807000Y-92768891D01*
X121841108Y-92896187D01*
X121859058Y-92927276D01*
X121907000Y-93010314D01*
X122000186Y-93103500D01*
X122066477Y-93141773D01*
X122108317Y-93165930D01*
X122114314Y-93169392D01*
X122241608Y-93203500D01*
X122241610Y-93203500D01*
X122373390Y-93203500D01*
X122373392Y-93203500D01*
X122500686Y-93169392D01*
X122614814Y-93103500D01*
X122708000Y-93010314D01*
X122773892Y-92896186D01*
X122808000Y-92768892D01*
X122808000Y-92637108D01*
X122773892Y-92509814D01*
X122773889Y-92509810D01*
X122771438Y-92503890D01*
X122762000Y-92456439D01*
X122762000Y-91926621D01*
X122781685Y-91859582D01*
X122798315Y-91838944D01*
X123318860Y-91318398D01*
X123318865Y-91318395D01*
X123329068Y-91308191D01*
X123329070Y-91308191D01*
X123413691Y-91223570D01*
X123417875Y-91216322D01*
X123448787Y-91162782D01*
X123448787Y-91162780D01*
X123456455Y-91149500D01*
X123473528Y-91119930D01*
X123504501Y-91004336D01*
X123504501Y-90992691D01*
X123795001Y-90992691D01*
X123795001Y-91111309D01*
X123810492Y-91169121D01*
X123825702Y-91225887D01*
X123825705Y-91225892D01*
X123885006Y-91328606D01*
X123885010Y-91328611D01*
X123885011Y-91328613D01*
X123968887Y-91412489D01*
X123968889Y-91412490D01*
X123968893Y-91412493D01*
X124020568Y-91442327D01*
X124071614Y-91471798D01*
X124186191Y-91502499D01*
X124186194Y-91502499D01*
X124304806Y-91502499D01*
X124304809Y-91502499D01*
X124419386Y-91471798D01*
X124522113Y-91412489D01*
X124605989Y-91328613D01*
X124665298Y-91225886D01*
X124665300Y-91225875D01*
X124668407Y-91218379D01*
X124671764Y-91219769D01*
X124699179Y-91174336D01*
X124761889Y-91143526D01*
X124831301Y-91151510D01*
X124885377Y-91195754D01*
X124896106Y-91218994D01*
X124897592Y-91218379D01*
X124900700Y-91225882D01*
X124900701Y-91225886D01*
X124900702Y-91225887D01*
X124900704Y-91225892D01*
X124960005Y-91328606D01*
X124960009Y-91328611D01*
X124960010Y-91328613D01*
X125043886Y-91412489D01*
X125043888Y-91412490D01*
X125043892Y-91412493D01*
X125095567Y-91442327D01*
X125146613Y-91471798D01*
X125261190Y-91502499D01*
X125261193Y-91502499D01*
X125379805Y-91502499D01*
X125379808Y-91502499D01*
X125494385Y-91471798D01*
X125597112Y-91412489D01*
X125680988Y-91328613D01*
X125740297Y-91225886D01*
X125740299Y-91225875D01*
X125743406Y-91218379D01*
X125746763Y-91219769D01*
X125774178Y-91174336D01*
X125836888Y-91143526D01*
X125906300Y-91151510D01*
X125960376Y-91195754D01*
X125971105Y-91218994D01*
X125972591Y-91218379D01*
X125975699Y-91225882D01*
X125975700Y-91225886D01*
X125975701Y-91225887D01*
X125975703Y-91225892D01*
X126035004Y-91328606D01*
X126035008Y-91328611D01*
X126035009Y-91328613D01*
X126118885Y-91412489D01*
X126118887Y-91412490D01*
X126118891Y-91412493D01*
X126170566Y-91442327D01*
X126221612Y-91471798D01*
X126336189Y-91502499D01*
X126336192Y-91502499D01*
X126454804Y-91502499D01*
X126454807Y-91502499D01*
X126569384Y-91471798D01*
X126672111Y-91412489D01*
X126755987Y-91328613D01*
X126815296Y-91225886D01*
X126845997Y-91111309D01*
X126845997Y-90992691D01*
X126815296Y-90878114D01*
X126810860Y-90870430D01*
X126755991Y-90775393D01*
X126755985Y-90775385D01*
X126672112Y-90691512D01*
X126672104Y-90691506D01*
X126569390Y-90632205D01*
X126569385Y-90632202D01*
X126540739Y-90624526D01*
X126454807Y-90601501D01*
X126336189Y-90601501D01*
X126267442Y-90619921D01*
X126221610Y-90632202D01*
X126221605Y-90632205D01*
X126118891Y-90691506D01*
X126118883Y-90691512D01*
X126035010Y-90775385D01*
X126035004Y-90775393D01*
X125975703Y-90878107D01*
X125972591Y-90885621D01*
X125969415Y-90884305D01*
X125940861Y-90930532D01*
X125877833Y-90960686D01*
X125808508Y-90951979D01*
X125754896Y-90907174D01*
X125744883Y-90885008D01*
X125743406Y-90885621D01*
X125740299Y-90878121D01*
X125740297Y-90878114D01*
X125735861Y-90870430D01*
X125680992Y-90775393D01*
X125680986Y-90775385D01*
X125597113Y-90691512D01*
X125597105Y-90691506D01*
X125494391Y-90632205D01*
X125494386Y-90632202D01*
X125465740Y-90624526D01*
X125379808Y-90601501D01*
X125261190Y-90601501D01*
X125192443Y-90619921D01*
X125146611Y-90632202D01*
X125146606Y-90632205D01*
X125043892Y-90691506D01*
X125043884Y-90691512D01*
X124960011Y-90775385D01*
X124960005Y-90775393D01*
X124900704Y-90878107D01*
X124897592Y-90885621D01*
X124894416Y-90884305D01*
X124865862Y-90930532D01*
X124802834Y-90960686D01*
X124733509Y-90951979D01*
X124679897Y-90907174D01*
X124669884Y-90885008D01*
X124668407Y-90885621D01*
X124665300Y-90878121D01*
X124665298Y-90878114D01*
X124660862Y-90870430D01*
X124605993Y-90775393D01*
X124605987Y-90775385D01*
X124522114Y-90691512D01*
X124522106Y-90691506D01*
X124419392Y-90632205D01*
X124419387Y-90632202D01*
X124390741Y-90624526D01*
X124304809Y-90601501D01*
X124186191Y-90601501D01*
X124117444Y-90619921D01*
X124071612Y-90632202D01*
X124071607Y-90632205D01*
X123968893Y-90691506D01*
X123968885Y-90691512D01*
X123885012Y-90775385D01*
X123885006Y-90775393D01*
X123825705Y-90878107D01*
X123825702Y-90878112D01*
X123811794Y-90930020D01*
X123795001Y-90992691D01*
X123504501Y-90992691D01*
X123504501Y-90884664D01*
X123504501Y-90877069D01*
X123504500Y-90877051D01*
X123504500Y-90186680D01*
X123524185Y-90119641D01*
X123576989Y-90073886D01*
X123646147Y-90063942D01*
X123709703Y-90092967D01*
X123737929Y-90128361D01*
X123755900Y-90162085D01*
X123755901Y-90162086D01*
X123801660Y-90214895D01*
X123819242Y-90232839D01*
X123819246Y-90232843D01*
X123819247Y-90232844D01*
X123819249Y-90232845D01*
X123888306Y-90271473D01*
X123899063Y-90277490D01*
X123966102Y-90297175D01*
X124024000Y-90305500D01*
X124024004Y-90305500D01*
X125075991Y-90305500D01*
X125076000Y-90305500D01*
X125119684Y-90300803D01*
X125148875Y-90294452D01*
X125171174Y-90289602D01*
X125171190Y-90289598D01*
X125171195Y-90289597D01*
X125181373Y-90287110D01*
X125244727Y-90253349D01*
X125313145Y-90239194D01*
X125363573Y-90254561D01*
X125404563Y-90277490D01*
X125471602Y-90297175D01*
X125529500Y-90305500D01*
X125529504Y-90305500D01*
X126775991Y-90305500D01*
X126776000Y-90305500D01*
X126819684Y-90300803D01*
X126848875Y-90294452D01*
X126871174Y-90289602D01*
X126871190Y-90289598D01*
X126871195Y-90289597D01*
X126881373Y-90287110D01*
X126962085Y-90244100D01*
X127014889Y-90198345D01*
X127032843Y-90180754D01*
X127077490Y-90100937D01*
X127097175Y-90033898D01*
X127105500Y-89976000D01*
X127105500Y-89698245D01*
X127125185Y-89631206D01*
X127147250Y-89605450D01*
X127384193Y-89395433D01*
X129142759Y-87836704D01*
X129205985Y-87806968D01*
X129225009Y-87805500D01*
X143475991Y-87805500D01*
X143476000Y-87805500D01*
X143519684Y-87800803D01*
X143550505Y-87794098D01*
X143571174Y-87789602D01*
X143571190Y-87789598D01*
X143571195Y-87789597D01*
X143581373Y-87787110D01*
X143662085Y-87744100D01*
X143714889Y-87698345D01*
X143732843Y-87680754D01*
X143777490Y-87600937D01*
X143797175Y-87533898D01*
X143805500Y-87476000D01*
X143805500Y-84264119D01*
X148004500Y-84264119D01*
X148004500Y-87475869D01*
X148004501Y-87475890D01*
X148009215Y-87519646D01*
X148009217Y-87519657D01*
X148020473Y-87571274D01*
X148022993Y-87581555D01*
X148033345Y-87600935D01*
X148066083Y-87662226D01*
X148066085Y-87662228D01*
X148111893Y-87714989D01*
X148128676Y-87732083D01*
X148129502Y-87732924D01*
X148209364Y-87777491D01*
X148276423Y-87797109D01*
X148334327Y-87805376D01*
X153376713Y-87800377D01*
X153397648Y-87798109D01*
X153413103Y-87800885D01*
X153428647Y-87798650D01*
X153446786Y-87806934D01*
X153466415Y-87810459D01*
X153477917Y-87821151D01*
X153492203Y-87827675D01*
X153502984Y-87844451D01*
X153517590Y-87858028D01*
X153521982Y-87874012D01*
X153529977Y-87886453D01*
X153535000Y-87921388D01*
X153535000Y-88070500D01*
X153515315Y-88137539D01*
X153462511Y-88183294D01*
X153411000Y-88194500D01*
X153093992Y-88194500D01*
X153050313Y-88199197D01*
X152998825Y-88210397D01*
X152988627Y-88212890D01*
X152988624Y-88212891D01*
X152907916Y-88255899D01*
X152907913Y-88255901D01*
X152855104Y-88301660D01*
X152837160Y-88319242D01*
X152837154Y-88319249D01*
X152792511Y-88399059D01*
X152792509Y-88399064D01*
X152772826Y-88466096D01*
X152764500Y-88524003D01*
X152764500Y-90414824D01*
X152769406Y-90459461D01*
X152769406Y-90459462D01*
X152781099Y-90512015D01*
X152783001Y-90519569D01*
X152783899Y-90523131D01*
X152827670Y-90603433D01*
X152873922Y-90655802D01*
X152891683Y-90673590D01*
X152891685Y-90673591D01*
X152891686Y-90673592D01*
X152971757Y-90717391D01*
X152971920Y-90717480D01*
X153039143Y-90736530D01*
X153097114Y-90744307D01*
X153303947Y-90742352D01*
X153409828Y-90741352D01*
X153477051Y-90760402D01*
X153523303Y-90812771D01*
X153535000Y-90865346D01*
X153535000Y-92963324D01*
X153515315Y-93030363D01*
X153498681Y-93051005D01*
X153462002Y-93087683D01*
X153462000Y-93087686D01*
X153396108Y-93201812D01*
X153377954Y-93269566D01*
X153362000Y-93329108D01*
X153362000Y-93460892D01*
X153377219Y-93517689D01*
X153396108Y-93588187D01*
X153414726Y-93620433D01*
X153462000Y-93702314D01*
X153555186Y-93795500D01*
X153652721Y-93851812D01*
X153664630Y-93858688D01*
X153669314Y-93861392D01*
X153796608Y-93895500D01*
X153796610Y-93895500D01*
X153928390Y-93895500D01*
X153928392Y-93895500D01*
X154055686Y-93861392D01*
X154169814Y-93795500D01*
X154263000Y-93702314D01*
X154328892Y-93588186D01*
X154363000Y-93460892D01*
X154363000Y-93329108D01*
X154328892Y-93201814D01*
X154327947Y-93200178D01*
X154310173Y-93169392D01*
X154263000Y-93087686D01*
X154226319Y-93051005D01*
X154192834Y-92989682D01*
X154190000Y-92963324D01*
X154190000Y-90856809D01*
X154209685Y-90789770D01*
X154262489Y-90744015D01*
X154312828Y-90732815D01*
X154317110Y-90732774D01*
X154317114Y-90732775D01*
X158139114Y-90696651D01*
X158181803Y-90691755D01*
X158232142Y-90680555D01*
X158241373Y-90678276D01*
X158322085Y-90635266D01*
X158374889Y-90589511D01*
X158392843Y-90571920D01*
X158437490Y-90492103D01*
X158457175Y-90425064D01*
X158465500Y-90367166D01*
X158465500Y-81629360D01*
X159857100Y-81629360D01*
X159857100Y-90372223D01*
X159860551Y-90405054D01*
X159861593Y-90414966D01*
X159872313Y-90465391D01*
X159874506Y-90474647D01*
X159874507Y-90474649D01*
X159874508Y-90474652D01*
X159916753Y-90555766D01*
X159953355Y-90598823D01*
X159962017Y-90609012D01*
X159979425Y-90627118D01*
X159979427Y-90627119D01*
X159979429Y-90627121D01*
X160058821Y-90672520D01*
X160125671Y-90692837D01*
X160183486Y-90701708D01*
X162571801Y-90724281D01*
X165225476Y-90749364D01*
X165225480Y-90749364D01*
X165225480Y-90749363D01*
X165225486Y-90749364D01*
X165270161Y-90744881D01*
X165322844Y-90733681D01*
X165333973Y-90730989D01*
X165414685Y-90687979D01*
X165467489Y-90642224D01*
X165485443Y-90624633D01*
X165530090Y-90544816D01*
X165542023Y-90504176D01*
X165579798Y-90445399D01*
X165643354Y-90416375D01*
X165712513Y-90426319D01*
X165765316Y-90472075D01*
X165785000Y-90539113D01*
X165785000Y-91707983D01*
X165765315Y-91775022D01*
X165748681Y-91795664D01*
X163486164Y-94058181D01*
X163424841Y-94091666D01*
X163398483Y-94094500D01*
X163346608Y-94094500D01*
X163219312Y-94128608D01*
X163105186Y-94194500D01*
X163105183Y-94194502D01*
X163012002Y-94287683D01*
X163012000Y-94287686D01*
X162946108Y-94401812D01*
X162912000Y-94529108D01*
X162912000Y-94660891D01*
X162946108Y-94788187D01*
X162974976Y-94838186D01*
X163012000Y-94902314D01*
X163105186Y-94995500D01*
X163219314Y-95061392D01*
X163346608Y-95095500D01*
X163346610Y-95095500D01*
X163478390Y-95095500D01*
X163478392Y-95095500D01*
X163605686Y-95061392D01*
X163719814Y-94995500D01*
X163813000Y-94902314D01*
X163878892Y-94788186D01*
X163913000Y-94660892D01*
X163913000Y-94609017D01*
X163932685Y-94541978D01*
X163949319Y-94521336D01*
X165151089Y-93319566D01*
X166374565Y-92096090D01*
X166417681Y-92021410D01*
X166440000Y-91938116D01*
X166440000Y-91851884D01*
X166440000Y-89076676D01*
X166459685Y-89009637D01*
X166476319Y-88988995D01*
X166489187Y-88976127D01*
X166513000Y-88952314D01*
X166578892Y-88838186D01*
X166613000Y-88710892D01*
X166613000Y-88579108D01*
X166578892Y-88451814D01*
X166513000Y-88337686D01*
X166419814Y-88244500D01*
X166333212Y-88194500D01*
X166305687Y-88178608D01*
X166242039Y-88161554D01*
X166178392Y-88144500D01*
X166046608Y-88144500D01*
X165919312Y-88178608D01*
X165805186Y-88244500D01*
X165805183Y-88244502D01*
X165712002Y-88337683D01*
X165711997Y-88337689D01*
X165710300Y-88340630D01*
X165708219Y-88342613D01*
X165707052Y-88344135D01*
X165706814Y-88343952D01*
X165659730Y-88388843D01*
X165591122Y-88402062D01*
X165526259Y-88376090D01*
X165502426Y-88347483D01*
X165500640Y-88348710D01*
X165496702Y-88342976D01*
X165496700Y-88342972D01*
X165450945Y-88290168D01*
X165450939Y-88290161D01*
X165433357Y-88272217D01*
X165433356Y-88272216D01*
X165433354Y-88272214D01*
X165433352Y-88272213D01*
X165433350Y-88272211D01*
X165353540Y-88227568D01*
X165353535Y-88227566D01*
X165286503Y-88207883D01*
X165286499Y-88207882D01*
X165286498Y-88207882D01*
X165228600Y-88199557D01*
X165228596Y-88199557D01*
X164482579Y-88199557D01*
X164415540Y-88179872D01*
X164369785Y-88127068D01*
X164358579Y-88075377D01*
X164358912Y-87845876D01*
X164378694Y-87778866D01*
X164431564Y-87733188D01*
X164500737Y-87723345D01*
X164564251Y-87752462D01*
X164575315Y-87763542D01*
X164575326Y-87763533D01*
X164575328Y-87763535D01*
X164575371Y-87763496D01*
X164576591Y-87764820D01*
X164576626Y-87764855D01*
X164576661Y-87764896D01*
X164594242Y-87782839D01*
X164594246Y-87782843D01*
X164594247Y-87782844D01*
X164594249Y-87782845D01*
X164669942Y-87825185D01*
X164674063Y-87827490D01*
X164741102Y-87847175D01*
X164799000Y-87855500D01*
X164799004Y-87855500D01*
X169940991Y-87855500D01*
X169941000Y-87855500D01*
X169984684Y-87850803D01*
X170013882Y-87844451D01*
X170036174Y-87839602D01*
X170036190Y-87839598D01*
X170036195Y-87839597D01*
X170046373Y-87837110D01*
X170127085Y-87794100D01*
X170179889Y-87748345D01*
X170197843Y-87730754D01*
X170242490Y-87650937D01*
X170262175Y-87583898D01*
X170270500Y-87526000D01*
X170270500Y-84369003D01*
X174557000Y-84369003D01*
X174557000Y-87546007D01*
X174561697Y-87589686D01*
X174572897Y-87641174D01*
X174573401Y-87643234D01*
X174575283Y-87650937D01*
X174575390Y-87651372D01*
X174575391Y-87651375D01*
X174618399Y-87732083D01*
X174618401Y-87732086D01*
X174664160Y-87784895D01*
X174681742Y-87802839D01*
X174681746Y-87802843D01*
X174681747Y-87802844D01*
X174681749Y-87802845D01*
X174761559Y-87847488D01*
X174761563Y-87847490D01*
X174828602Y-87867175D01*
X174886500Y-87875500D01*
X182733000Y-87875500D01*
X182800039Y-87895185D01*
X182845794Y-87947989D01*
X182857000Y-87999500D01*
X182857000Y-109471007D01*
X182861697Y-109514686D01*
X182872897Y-109566174D01*
X182875390Y-109576372D01*
X182875391Y-109576375D01*
X182918399Y-109657083D01*
X182918401Y-109657086D01*
X182964160Y-109709895D01*
X182981742Y-109727839D01*
X182981746Y-109727843D01*
X182981747Y-109727844D01*
X182981749Y-109727845D01*
X183018675Y-109748500D01*
X183061563Y-109772490D01*
X183128602Y-109792175D01*
X183186500Y-109800500D01*
X183327154Y-109800500D01*
X183394193Y-109820185D01*
X183439948Y-109872989D01*
X183449892Y-109942147D01*
X183430257Y-109993390D01*
X183346058Y-110119403D01*
X183266870Y-110310579D01*
X183266868Y-110310587D01*
X183226500Y-110513530D01*
X183226500Y-110720469D01*
X183266868Y-110923412D01*
X183266870Y-110923420D01*
X183346059Y-111114598D01*
X183403541Y-111200626D01*
X183461024Y-111286657D01*
X183607342Y-111432975D01*
X183607345Y-111432977D01*
X183779402Y-111547941D01*
X183970580Y-111627130D01*
X184173530Y-111667499D01*
X184173534Y-111667500D01*
X184173535Y-111667500D01*
X184380466Y-111667500D01*
X184380467Y-111667499D01*
X184583420Y-111627130D01*
X184774598Y-111547941D01*
X184946655Y-111432977D01*
X185092977Y-111286655D01*
X185207941Y-111114598D01*
X185287130Y-110923420D01*
X185327500Y-110720465D01*
X185327500Y-110513535D01*
X185287130Y-110310580D01*
X185207941Y-110119402D01*
X185123742Y-109993389D01*
X185102866Y-109926713D01*
X185121351Y-109859333D01*
X185173330Y-109812643D01*
X185226846Y-109800500D01*
X192407716Y-109800500D01*
X192474755Y-109820185D01*
X192520510Y-109872989D01*
X192530454Y-109942147D01*
X192501429Y-110005703D01*
X192495397Y-110012181D01*
X192396363Y-110111214D01*
X192396360Y-110111218D01*
X192286871Y-110275079D01*
X192286864Y-110275092D01*
X192211450Y-110457160D01*
X192211447Y-110457170D01*
X192173000Y-110650456D01*
X192173000Y-110650459D01*
X192173000Y-110847541D01*
X192173000Y-110847543D01*
X192172999Y-110847543D01*
X192211447Y-111040829D01*
X192211450Y-111040839D01*
X192286864Y-111222907D01*
X192286871Y-111222920D01*
X192396360Y-111386781D01*
X192396363Y-111386785D01*
X192535714Y-111526136D01*
X192535718Y-111526139D01*
X192699579Y-111635628D01*
X192699592Y-111635635D01*
X192881660Y-111711049D01*
X192881665Y-111711051D01*
X192881669Y-111711051D01*
X192881670Y-111711052D01*
X193074956Y-111749500D01*
X193074959Y-111749500D01*
X193272043Y-111749500D01*
X193402082Y-111723632D01*
X193465335Y-111711051D01*
X193502100Y-111695822D01*
X193552840Y-111674806D01*
X193647407Y-111635635D01*
X193647407Y-111635634D01*
X193647414Y-111635632D01*
X193811282Y-111526139D01*
X193950639Y-111386782D01*
X194060132Y-111222914D01*
X194135551Y-111040835D01*
X194157210Y-110931949D01*
X194174000Y-110847543D01*
X197252999Y-110847543D01*
X197291447Y-111040829D01*
X197291450Y-111040839D01*
X197366864Y-111222907D01*
X197366871Y-111222920D01*
X197476360Y-111386781D01*
X197476363Y-111386785D01*
X197615714Y-111526136D01*
X197615718Y-111526139D01*
X197779579Y-111635628D01*
X197779592Y-111635635D01*
X197961660Y-111711049D01*
X197961665Y-111711051D01*
X197961669Y-111711051D01*
X197961670Y-111711052D01*
X198154956Y-111749500D01*
X198154959Y-111749500D01*
X198352043Y-111749500D01*
X198482082Y-111723632D01*
X198545335Y-111711051D01*
X198727414Y-111635632D01*
X198891282Y-111526139D01*
X199030639Y-111386782D01*
X199140132Y-111222914D01*
X199215551Y-111040835D01*
X199237210Y-110931949D01*
X199254000Y-110847543D01*
X199254000Y-110650456D01*
X199215552Y-110457170D01*
X199215551Y-110457169D01*
X199215551Y-110457165D01*
X199152316Y-110304500D01*
X199140135Y-110275092D01*
X199140128Y-110275079D01*
X199030639Y-110111218D01*
X199030636Y-110111214D01*
X198891285Y-109971863D01*
X198891281Y-109971860D01*
X198727420Y-109862371D01*
X198727407Y-109862364D01*
X198545339Y-109786950D01*
X198545329Y-109786947D01*
X198352043Y-109748500D01*
X198352041Y-109748500D01*
X198154959Y-109748500D01*
X198154957Y-109748500D01*
X197961670Y-109786947D01*
X197961660Y-109786950D01*
X197779592Y-109862364D01*
X197779579Y-109862371D01*
X197615718Y-109971860D01*
X197615714Y-109971863D01*
X197476363Y-110111214D01*
X197476360Y-110111218D01*
X197366871Y-110275079D01*
X197366864Y-110275092D01*
X197291450Y-110457160D01*
X197291447Y-110457170D01*
X197253000Y-110650456D01*
X197253000Y-110650459D01*
X197253000Y-110847541D01*
X197253000Y-110847543D01*
X197252999Y-110847543D01*
X194174000Y-110847543D01*
X194174000Y-110650456D01*
X194135552Y-110457170D01*
X194135551Y-110457169D01*
X194135551Y-110457165D01*
X194072316Y-110304500D01*
X194060135Y-110275092D01*
X194060128Y-110275079D01*
X193950639Y-110111218D01*
X193950636Y-110111214D01*
X193851603Y-110012181D01*
X193818118Y-109950858D01*
X193823102Y-109881166D01*
X193864974Y-109825233D01*
X193930438Y-109800816D01*
X193939284Y-109800500D01*
X194338491Y-109800500D01*
X194338500Y-109800500D01*
X194382184Y-109795803D01*
X194411375Y-109789452D01*
X194433674Y-109784602D01*
X194433690Y-109784598D01*
X194433695Y-109784597D01*
X194443873Y-109782110D01*
X194524585Y-109739100D01*
X194577389Y-109693345D01*
X194595343Y-109675754D01*
X194639990Y-109595937D01*
X194659675Y-109528898D01*
X194668000Y-109471000D01*
X194668000Y-106524500D01*
X194687685Y-106457461D01*
X194740489Y-106411706D01*
X194792000Y-106400500D01*
X197038491Y-106400500D01*
X197038500Y-106400500D01*
X197082184Y-106395803D01*
X197111375Y-106389452D01*
X197133674Y-106384602D01*
X197133690Y-106384598D01*
X197133695Y-106384597D01*
X197143873Y-106382110D01*
X197224585Y-106339100D01*
X197277389Y-106293345D01*
X197295343Y-106275754D01*
X197339990Y-106195937D01*
X197359675Y-106128898D01*
X197368000Y-106071000D01*
X197368000Y-100545114D01*
X197377030Y-97601339D01*
X197370421Y-97549007D01*
X197370419Y-97548996D01*
X197354546Y-97487938D01*
X197354538Y-97487907D01*
X197348793Y-97469429D01*
X197299216Y-97392577D01*
X197299214Y-97392575D01*
X197294812Y-97387189D01*
X197296563Y-97385757D01*
X197267606Y-97334217D01*
X197271746Y-97264470D01*
X197300760Y-97218717D01*
X197371474Y-97148004D01*
X197547075Y-96919156D01*
X197691304Y-96669345D01*
X197704418Y-96637686D01*
X197801685Y-96402860D01*
X197801685Y-96402857D01*
X197801691Y-96402845D01*
X197876349Y-96124217D01*
X197914000Y-95838228D01*
X197914000Y-95549772D01*
X197876349Y-95263783D01*
X197801691Y-94985155D01*
X197801686Y-94985145D01*
X197801685Y-94985139D01*
X197691308Y-94718663D01*
X197691300Y-94718647D01*
X197547079Y-94468851D01*
X197547075Y-94468844D01*
X197437859Y-94326511D01*
X197371475Y-94239997D01*
X197371469Y-94239990D01*
X197312173Y-94180694D01*
X197278688Y-94119371D01*
X197283672Y-94049679D01*
X197310053Y-94009226D01*
X197310006Y-94009190D01*
X197310468Y-94008588D01*
X197313347Y-94004174D01*
X197315414Y-94002162D01*
X197360305Y-93922481D01*
X197380195Y-93855502D01*
X197388697Y-93797632D01*
X197406951Y-87847173D01*
X197417617Y-84370020D01*
X197417617Y-84370013D01*
X197417511Y-84369003D01*
X197412988Y-84326005D01*
X197401783Y-84274114D01*
X197399229Y-84263627D01*
X197356219Y-84182915D01*
X197310464Y-84130111D01*
X197310458Y-84130104D01*
X197292876Y-84112160D01*
X197292875Y-84112159D01*
X197292873Y-84112157D01*
X197292871Y-84112156D01*
X197292869Y-84112154D01*
X197213059Y-84067511D01*
X197213054Y-84067509D01*
X197146022Y-84047826D01*
X197146018Y-84047825D01*
X197146017Y-84047825D01*
X197088119Y-84039500D01*
X174886500Y-84039500D01*
X174886492Y-84039500D01*
X174842813Y-84044197D01*
X174791325Y-84055397D01*
X174781127Y-84057890D01*
X174781124Y-84057891D01*
X174700416Y-84100899D01*
X174700413Y-84100901D01*
X174647604Y-84146660D01*
X174629660Y-84164242D01*
X174629654Y-84164249D01*
X174585011Y-84244059D01*
X174585009Y-84244064D01*
X174565326Y-84311096D01*
X174565325Y-84311101D01*
X174565325Y-84311102D01*
X174558681Y-84357314D01*
X174557000Y-84369003D01*
X170270500Y-84369003D01*
X170270500Y-84324000D01*
X170265803Y-84280316D01*
X170257917Y-84244064D01*
X170254602Y-84228825D01*
X170254348Y-84227789D01*
X170252110Y-84218627D01*
X170209100Y-84137915D01*
X170163345Y-84085111D01*
X170163339Y-84085104D01*
X170145757Y-84067160D01*
X170145756Y-84067159D01*
X170145754Y-84067157D01*
X170145752Y-84067156D01*
X170145750Y-84067154D01*
X170065940Y-84022511D01*
X170065935Y-84022509D01*
X169998903Y-84002826D01*
X169998899Y-84002825D01*
X169998898Y-84002825D01*
X169941000Y-83994500D01*
X164799000Y-83994500D01*
X164798992Y-83994500D01*
X164755313Y-83999197D01*
X164703825Y-84010397D01*
X164693627Y-84012890D01*
X164693624Y-84012891D01*
X164612916Y-84055899D01*
X164612913Y-84055901D01*
X164569696Y-84093349D01*
X164506140Y-84122373D01*
X164436981Y-84112429D01*
X164384178Y-84066673D01*
X164364494Y-83999634D01*
X164364494Y-83999455D01*
X164366845Y-82379108D01*
X168862000Y-82379108D01*
X168862000Y-82510892D01*
X168862967Y-82514500D01*
X168896108Y-82638187D01*
X168896289Y-82638500D01*
X168962000Y-82752314D01*
X169055186Y-82845500D01*
X169169314Y-82911392D01*
X169296608Y-82945500D01*
X169296610Y-82945500D01*
X169428390Y-82945500D01*
X169428392Y-82945500D01*
X169555686Y-82911392D01*
X169669814Y-82845500D01*
X169763000Y-82752314D01*
X169828892Y-82638186D01*
X169863000Y-82510892D01*
X169863000Y-82379108D01*
X169828892Y-82251814D01*
X169763000Y-82137686D01*
X169669814Y-82044500D01*
X169612750Y-82011554D01*
X169555687Y-81978608D01*
X169492039Y-81961554D01*
X169428392Y-81944500D01*
X169296608Y-81944500D01*
X169169312Y-81978608D01*
X169055186Y-82044500D01*
X169055183Y-82044502D01*
X168962002Y-82137683D01*
X168962000Y-82137686D01*
X168896108Y-82251812D01*
X168885242Y-82292365D01*
X168862000Y-82379108D01*
X164366845Y-82379108D01*
X164367045Y-82241267D01*
X164376486Y-82193993D01*
X164378889Y-82188191D01*
X164378892Y-82188186D01*
X164413000Y-82060892D01*
X164413000Y-81929108D01*
X164378892Y-81801814D01*
X164378887Y-81801805D01*
X164377196Y-81797721D01*
X164367759Y-81750092D01*
X164367920Y-81639239D01*
X164367919Y-81639238D01*
X164367920Y-81639232D01*
X164363308Y-81595643D01*
X164352228Y-81544227D01*
X164349787Y-81534141D01*
X164306975Y-81453324D01*
X164261349Y-81400408D01*
X164261346Y-81400405D01*
X164261341Y-81400399D01*
X164243802Y-81382411D01*
X164243797Y-81382407D01*
X164164090Y-81337567D01*
X164097109Y-81317721D01*
X164097099Y-81317719D01*
X164064617Y-81312968D01*
X164039225Y-81309255D01*
X160187402Y-81299861D01*
X160187401Y-81299861D01*
X160187400Y-81299861D01*
X160143461Y-81304503D01*
X160143457Y-81304504D01*
X160091633Y-81315712D01*
X160081232Y-81318248D01*
X160081224Y-81318251D01*
X160000516Y-81361259D01*
X160000513Y-81361261D01*
X159947704Y-81407020D01*
X159929760Y-81424602D01*
X159929754Y-81424609D01*
X159885111Y-81504419D01*
X159885109Y-81504424D01*
X159865426Y-81571456D01*
X159865425Y-81571461D01*
X159865425Y-81571462D01*
X159857100Y-81629360D01*
X158465500Y-81629360D01*
X158465500Y-81624303D01*
X158460750Y-81580374D01*
X158449418Y-81528588D01*
X158446853Y-81518174D01*
X158403648Y-81437567D01*
X158357765Y-81384874D01*
X158357759Y-81384867D01*
X158340130Y-81366962D01*
X158340127Y-81366960D01*
X158260200Y-81322508D01*
X158193113Y-81302987D01*
X158135197Y-81294804D01*
X154283373Y-81304197D01*
X154283362Y-81304198D01*
X154239804Y-81308978D01*
X154239794Y-81308979D01*
X154209148Y-81315710D01*
X154188425Y-81320261D01*
X154188405Y-81320265D01*
X154188400Y-81320267D01*
X154178358Y-81322739D01*
X154097702Y-81365867D01*
X154044983Y-81411682D01*
X154044970Y-81411694D01*
X154027038Y-81429314D01*
X153982507Y-81509197D01*
X153962922Y-81576255D01*
X153962919Y-81576269D01*
X153954679Y-81634167D01*
X153954679Y-81634171D01*
X153954679Y-81634172D01*
X153956413Y-82829110D01*
X153956546Y-82920320D01*
X153936959Y-82987388D01*
X153884221Y-83033219D01*
X153832546Y-83044500D01*
X153796608Y-83044500D01*
X153669312Y-83078608D01*
X153555186Y-83144500D01*
X153555183Y-83144502D01*
X153462002Y-83237683D01*
X153462000Y-83237686D01*
X153396108Y-83351812D01*
X153362000Y-83479108D01*
X153362000Y-83610891D01*
X153396108Y-83738188D01*
X153404814Y-83753265D01*
X153421288Y-83821165D01*
X153398437Y-83887192D01*
X153343516Y-83930384D01*
X153297312Y-83939267D01*
X148334314Y-83934616D01*
X148334305Y-83934616D01*
X148290519Y-83939293D01*
X148256901Y-83946590D01*
X148238897Y-83950499D01*
X148233762Y-83951752D01*
X148228630Y-83953005D01*
X148228624Y-83953007D01*
X148147916Y-83996015D01*
X148147913Y-83996017D01*
X148095104Y-84041776D01*
X148077160Y-84059358D01*
X148077154Y-84059365D01*
X148032511Y-84139175D01*
X148032509Y-84139180D01*
X148012826Y-84206212D01*
X148012825Y-84206217D01*
X148012825Y-84206218D01*
X148004571Y-84263628D01*
X148004500Y-84264119D01*
X143805500Y-84264119D01*
X143805500Y-82829108D01*
X148512000Y-82829108D01*
X148512000Y-82960891D01*
X148546108Y-83088187D01*
X148578621Y-83144500D01*
X148612000Y-83202314D01*
X148705186Y-83295500D01*
X148819314Y-83361392D01*
X148946608Y-83395500D01*
X148946610Y-83395500D01*
X149078390Y-83395500D01*
X149078392Y-83395500D01*
X149205686Y-83361392D01*
X149319814Y-83295500D01*
X149413000Y-83202314D01*
X149478892Y-83088186D01*
X149513000Y-82960892D01*
X149513000Y-82829108D01*
X149478892Y-82701814D01*
X149413000Y-82587686D01*
X149319814Y-82494500D01*
X149262750Y-82461554D01*
X149205687Y-82428608D01*
X149097108Y-82399515D01*
X149078392Y-82394500D01*
X148946608Y-82394500D01*
X148819312Y-82428608D01*
X148705186Y-82494500D01*
X148705183Y-82494502D01*
X148612002Y-82587683D01*
X148612000Y-82587686D01*
X148546108Y-82701812D01*
X148512000Y-82829108D01*
X143805500Y-82829108D01*
X143805500Y-82174000D01*
X143800803Y-82130316D01*
X143796897Y-82112364D01*
X143789602Y-82078825D01*
X143789348Y-82077789D01*
X143787110Y-82068627D01*
X143744100Y-81987915D01*
X143698345Y-81935111D01*
X143698339Y-81935104D01*
X143680757Y-81917160D01*
X143680756Y-81917159D01*
X143680754Y-81917157D01*
X143680752Y-81917156D01*
X143680750Y-81917154D01*
X143600940Y-81872511D01*
X143600935Y-81872509D01*
X143533903Y-81852826D01*
X143533899Y-81852825D01*
X143533898Y-81852825D01*
X143476000Y-81844500D01*
X130301362Y-81844500D01*
X130301361Y-81844500D01*
X130279381Y-81845678D01*
X130253034Y-81848511D01*
X130253032Y-81848512D01*
X130176521Y-81872470D01*
X130176516Y-81872471D01*
X130115188Y-81905960D01*
X130068384Y-81940998D01*
X130068363Y-81941016D01*
X125412680Y-86596697D01*
X125351357Y-86630182D01*
X125281665Y-86625198D01*
X125237318Y-86596697D01*
X120581633Y-81941012D01*
X120565283Y-81926325D01*
X120565269Y-81926313D01*
X120544620Y-81909672D01*
X120473575Y-81872509D01*
X120406543Y-81852826D01*
X120405894Y-81852732D01*
X120348638Y-81844500D01*
X107544129Y-81844500D01*
X107477090Y-81824815D01*
X107431335Y-81772011D01*
X107424354Y-81752594D01*
X107423684Y-81750092D01*
X107414781Y-81716865D01*
X107339015Y-81585635D01*
X107231865Y-81478485D01*
X107160990Y-81437565D01*
X107100636Y-81402719D01*
X107024829Y-81382407D01*
X106954266Y-81363500D01*
X106802734Y-81363500D01*
X106656363Y-81402719D01*
X106525135Y-81478485D01*
X106525132Y-81478487D01*
X106417987Y-81585632D01*
X106417985Y-81585635D01*
X106342219Y-81716863D01*
X106303000Y-81863234D01*
X106303000Y-82014765D01*
X106342219Y-82161136D01*
X106369635Y-82208621D01*
X106417985Y-82292365D01*
X106525135Y-82399515D01*
X106656365Y-82475281D01*
X106802734Y-82514500D01*
X106802736Y-82514500D01*
X106870500Y-82514500D01*
X106937539Y-82534185D01*
X106983294Y-82586989D01*
X106994500Y-82638500D01*
X106994500Y-87019500D01*
X106974815Y-87086539D01*
X106922011Y-87132294D01*
X106870500Y-87143500D01*
X106802734Y-87143500D01*
X106656363Y-87182719D01*
X106525135Y-87258485D01*
X106525132Y-87258487D01*
X106417987Y-87365632D01*
X106417985Y-87365635D01*
X106342219Y-87496863D01*
X106308905Y-87621195D01*
X106303000Y-87643234D01*
X106303000Y-87794766D01*
X106314345Y-87837108D01*
X106342219Y-87941136D01*
X106366741Y-87983608D01*
X106417985Y-88072365D01*
X106525135Y-88179515D01*
X106656365Y-88255281D01*
X106802734Y-88294500D01*
X106802736Y-88294500D01*
X106954264Y-88294500D01*
X106954266Y-88294500D01*
X107100635Y-88255281D01*
X107231865Y-88179515D01*
X107339015Y-88072365D01*
X107414781Y-87941135D01*
X107426497Y-87897406D01*
X107462861Y-87837747D01*
X107525708Y-87807217D01*
X107546272Y-87805500D01*
X121574991Y-87805500D01*
X121642030Y-87825185D01*
X121657238Y-87836703D01*
X121923112Y-88072364D01*
X122930529Y-88965302D01*
X122937315Y-88976127D01*
X122947546Y-88983786D01*
X122955520Y-89005167D01*
X122967641Y-89024501D01*
X122967497Y-89037278D01*
X122971963Y-89049251D01*
X122967112Y-89071548D01*
X122966856Y-89094366D01*
X122959477Y-89106643D01*
X122957111Y-89117524D01*
X122935961Y-89145778D01*
X122770932Y-89310807D01*
X122770931Y-89310807D01*
X122770930Y-89310808D01*
X122686311Y-89395427D01*
X122686307Y-89395433D01*
X122626472Y-89499068D01*
X122626473Y-89499068D01*
X122626473Y-89499070D01*
X122595499Y-89614665D01*
X122595499Y-89744325D01*
X122595500Y-89744338D01*
X122595500Y-89828897D01*
X122575815Y-89895936D01*
X122523011Y-89941691D01*
X122453853Y-89951635D01*
X122409501Y-89936285D01*
X122373688Y-89915608D01*
X122288823Y-89892869D01*
X122246392Y-89881500D01*
X122114608Y-89881500D01*
X121987312Y-89915608D01*
X121873186Y-89981500D01*
X121774594Y-90080092D01*
X121713271Y-90113576D01*
X121643579Y-90108592D01*
X121587646Y-90066720D01*
X121567139Y-90024504D01*
X121565579Y-90018682D01*
X121499687Y-89904554D01*
X121406501Y-89811368D01*
X121349437Y-89778422D01*
X121292374Y-89745476D01*
X121188057Y-89717525D01*
X121165079Y-89711368D01*
X121033295Y-89711368D01*
X120905999Y-89745476D01*
X120791873Y-89811368D01*
X120791870Y-89811370D01*
X120698689Y-89904551D01*
X120698687Y-89904554D01*
X120632795Y-90018680D01*
X120598687Y-90145976D01*
X120598687Y-90236034D01*
X120579002Y-90303073D01*
X120562368Y-90323715D01*
X119462705Y-91423377D01*
X119401382Y-91456862D01*
X119331690Y-91451878D01*
X119275757Y-91410006D01*
X119267637Y-91397696D01*
X119227513Y-91328199D01*
X119134327Y-91235013D01*
X119066076Y-91195608D01*
X119020200Y-91169121D01*
X118924676Y-91143526D01*
X118892905Y-91135013D01*
X118761121Y-91135013D01*
X118633825Y-91169121D01*
X118519699Y-91235013D01*
X118519696Y-91235015D01*
X118456018Y-91298694D01*
X118394695Y-91332179D01*
X118368337Y-91335013D01*
X116327298Y-91335013D01*
X116260259Y-91315328D01*
X116214504Y-91262524D01*
X116204560Y-91193366D01*
X116233585Y-91129810D01*
X116265298Y-91103626D01*
X116343125Y-91058692D01*
X116357314Y-91050500D01*
X116450500Y-90957314D01*
X116516392Y-90843186D01*
X116550500Y-90715892D01*
X116550500Y-90584108D01*
X116516392Y-90456814D01*
X116450500Y-90342686D01*
X116357314Y-90249500D01*
X116287629Y-90209267D01*
X116243187Y-90183608D01*
X116162860Y-90162085D01*
X116115892Y-90149500D01*
X115984108Y-90149500D01*
X115856812Y-90183608D01*
X115742686Y-90249500D01*
X115742683Y-90249502D01*
X115679005Y-90313181D01*
X115617682Y-90346666D01*
X115591324Y-90349500D01*
X106575833Y-90349500D01*
X106508794Y-90329815D01*
X106488152Y-90313181D01*
X105953819Y-89778848D01*
X105920334Y-89717525D01*
X105917500Y-89691167D01*
X105917500Y-84491676D01*
X105937185Y-84424637D01*
X105953819Y-84403995D01*
X106000500Y-84357314D01*
X106066392Y-84243186D01*
X106100500Y-84115892D01*
X106100500Y-83984108D01*
X106066392Y-83856814D01*
X106000500Y-83742686D01*
X105907314Y-83649500D01*
X105840443Y-83610892D01*
X105793187Y-83583608D01*
X105729539Y-83566554D01*
X105665892Y-83549500D01*
X105534108Y-83549500D01*
X105406812Y-83583608D01*
X105292686Y-83649500D01*
X105292683Y-83649502D01*
X105199502Y-83742683D01*
X105199500Y-83742686D01*
X105133608Y-83856812D01*
X105113895Y-83930384D01*
X105099500Y-83984108D01*
X105099500Y-84115892D01*
X105105401Y-84137915D01*
X105133608Y-84243187D01*
X105151456Y-84274100D01*
X105199500Y-84357314D01*
X105199502Y-84357316D01*
X105280181Y-84437995D01*
X105313666Y-84499318D01*
X105316500Y-84525676D01*
X105316500Y-88059324D01*
X105296815Y-88126363D01*
X105244011Y-88172118D01*
X105174853Y-88182062D01*
X105111297Y-88153037D01*
X105104819Y-88147005D01*
X105007316Y-88049502D01*
X105007314Y-88049500D01*
X104920712Y-87999500D01*
X104893187Y-87983608D01*
X104829539Y-87966554D01*
X104765892Y-87949500D01*
X104634108Y-87949500D01*
X104506812Y-87983608D01*
X104392686Y-88049500D01*
X104392683Y-88049502D01*
X104299502Y-88142683D01*
X104299500Y-88142686D01*
X104233608Y-88256812D01*
X104208985Y-88348710D01*
X104199500Y-88384108D01*
X102100500Y-88384108D01*
X102100500Y-72392214D01*
X102100579Y-72387789D01*
X102106919Y-72210264D01*
X102106919Y-72210259D01*
X106019500Y-72210259D01*
X106019500Y-72569740D01*
X106059746Y-72926935D01*
X106059748Y-72926951D01*
X106139737Y-73277407D01*
X106139741Y-73277419D01*
X106258465Y-73616711D01*
X106414432Y-73940579D01*
X106414434Y-73940582D01*
X106605685Y-74244956D01*
X106829812Y-74526003D01*
X107083997Y-74780188D01*
X107365044Y-75004315D01*
X107669418Y-75195566D01*
X107993292Y-75351536D01*
X108248119Y-75440703D01*
X108332580Y-75470258D01*
X108332592Y-75470262D01*
X108683052Y-75550252D01*
X109040260Y-75590499D01*
X109040261Y-75590500D01*
X109040264Y-75590500D01*
X109399739Y-75590500D01*
X109399739Y-75590499D01*
X109756948Y-75550252D01*
X110107408Y-75470262D01*
X110446708Y-75351536D01*
X110770582Y-75195566D01*
X111074956Y-75004315D01*
X111356003Y-74780188D01*
X111610188Y-74526003D01*
X111834315Y-74244956D01*
X112025566Y-73940582D01*
X112181536Y-73616708D01*
X112300262Y-73277408D01*
X112380252Y-72926948D01*
X112420500Y-72569736D01*
X112420500Y-72210264D01*
X112420499Y-72210259D01*
X192379500Y-72210259D01*
X192379500Y-72569740D01*
X192419746Y-72926935D01*
X192419748Y-72926951D01*
X192499737Y-73277407D01*
X192499741Y-73277419D01*
X192618465Y-73616711D01*
X192774432Y-73940579D01*
X192774434Y-73940582D01*
X192965685Y-74244956D01*
X193189812Y-74526003D01*
X193443997Y-74780188D01*
X193725044Y-75004315D01*
X194029418Y-75195566D01*
X194353292Y-75351536D01*
X194608119Y-75440703D01*
X194692580Y-75470258D01*
X194692592Y-75470262D01*
X195043052Y-75550252D01*
X195400260Y-75590499D01*
X195400261Y-75590500D01*
X195400264Y-75590500D01*
X195759739Y-75590500D01*
X195759739Y-75590499D01*
X196116948Y-75550252D01*
X196467408Y-75470262D01*
X196806708Y-75351536D01*
X197130582Y-75195566D01*
X197434956Y-75004315D01*
X197716003Y-74780188D01*
X197970188Y-74526003D01*
X198194315Y-74244956D01*
X198385566Y-73940582D01*
X198541536Y-73616708D01*
X198660262Y-73277408D01*
X198740252Y-72926948D01*
X198780500Y-72569736D01*
X198780500Y-72210264D01*
X198740252Y-71853052D01*
X198660262Y-71502592D01*
X198541536Y-71163292D01*
X198385566Y-70839418D01*
X198194315Y-70535044D01*
X197970188Y-70253997D01*
X197716003Y-69999812D01*
X197434956Y-69775685D01*
X197130582Y-69584434D01*
X197130579Y-69584432D01*
X196806711Y-69428465D01*
X196467419Y-69309741D01*
X196467407Y-69309737D01*
X196116951Y-69229748D01*
X196116935Y-69229746D01*
X195759740Y-69189500D01*
X195759736Y-69189500D01*
X195400264Y-69189500D01*
X195400259Y-69189500D01*
X195043064Y-69229746D01*
X195043048Y-69229748D01*
X194692592Y-69309737D01*
X194692580Y-69309741D01*
X194353288Y-69428465D01*
X194029420Y-69584432D01*
X193725045Y-69775684D01*
X193443997Y-69999811D01*
X193189811Y-70253997D01*
X192965684Y-70535045D01*
X192774432Y-70839420D01*
X192618465Y-71163288D01*
X192499741Y-71502580D01*
X192499737Y-71502592D01*
X192419748Y-71853048D01*
X192419746Y-71853064D01*
X192379500Y-72210259D01*
X112420499Y-72210259D01*
X112380252Y-71853052D01*
X112300262Y-71502592D01*
X112181536Y-71163292D01*
X112025566Y-70839418D01*
X111834315Y-70535044D01*
X111610188Y-70253997D01*
X111356003Y-69999812D01*
X111074956Y-69775685D01*
X110770582Y-69584434D01*
X110770579Y-69584432D01*
X110446711Y-69428465D01*
X110107419Y-69309741D01*
X110107407Y-69309737D01*
X109756951Y-69229748D01*
X109756935Y-69229746D01*
X109399740Y-69189500D01*
X109399736Y-69189500D01*
X109040264Y-69189500D01*
X109040259Y-69189500D01*
X108683064Y-69229746D01*
X108683048Y-69229748D01*
X108332592Y-69309737D01*
X108332580Y-69309741D01*
X107993288Y-69428465D01*
X107669420Y-69584432D01*
X107365045Y-69775684D01*
X107083997Y-69999811D01*
X106829811Y-70253997D01*
X106605684Y-70535045D01*
X106414432Y-70839420D01*
X106258465Y-71163288D01*
X106139741Y-71502580D01*
X106139737Y-71502592D01*
X106059748Y-71853048D01*
X106059746Y-71853064D01*
X106019500Y-72210259D01*
X102106919Y-72210259D01*
X102118482Y-71886513D01*
X102119110Y-71877724D01*
X102172495Y-71381163D01*
X102173748Y-71372455D01*
X102262422Y-70880965D01*
X102264293Y-70872369D01*
X102387799Y-70388478D01*
X102390284Y-70380014D01*
X102547989Y-69906186D01*
X102551078Y-69897904D01*
X102601703Y-69775685D01*
X102742188Y-69436524D01*
X102745850Y-69428506D01*
X102969389Y-68981932D01*
X102973605Y-68974208D01*
X103228450Y-68544690D01*
X103233213Y-68537280D01*
X103518022Y-68127079D01*
X103523322Y-68119999D01*
X103836679Y-67731145D01*
X103842441Y-67724496D01*
X104182742Y-67358986D01*
X104188986Y-67352742D01*
X104554496Y-67012441D01*
X104561145Y-67006679D01*
X104950005Y-66693317D01*
X104957085Y-66688018D01*
X105019633Y-66644590D01*
X105367280Y-66403213D01*
X105374690Y-66398450D01*
X105804208Y-66143605D01*
X105811932Y-66139389D01*
X106258506Y-65915850D01*
X106266524Y-65912188D01*
X106727915Y-65721073D01*
X106736186Y-65717989D01*
X107210014Y-65560284D01*
X107218478Y-65557799D01*
X107702369Y-65434293D01*
X107710965Y-65432422D01*
X108202455Y-65343748D01*
X108211163Y-65342495D01*
X108707724Y-65289110D01*
X108716513Y-65288482D01*
X109217788Y-65270578D01*
X109222214Y-65270500D01*
X109285892Y-65270500D01*
X195514108Y-65270500D01*
X195577786Y-65270500D01*
X195582211Y-65270578D01*
G37*
G04 #@! TD.AperFunction*
G04 #@! TA.AperFunction,Conductor*
G36*
X153376132Y-84144842D02*
G01*
X153443151Y-84164589D01*
X153488857Y-84217436D01*
X153500014Y-84268828D01*
X153500386Y-87470863D01*
X153480709Y-87537904D01*
X153427911Y-87583665D01*
X153376509Y-87594877D01*
X148334123Y-87599876D01*
X148267064Y-87580258D01*
X148221257Y-87527499D01*
X148210000Y-87475876D01*
X148210000Y-84264116D01*
X148229685Y-84197077D01*
X148282489Y-84151322D01*
X148334114Y-84140116D01*
X153376132Y-84144842D01*
G37*
G04 #@! TD.AperFunction*
G04 #@! TA.AperFunction,Conductor*
G36*
X170008039Y-84219685D02*
G01*
X170053794Y-84272489D01*
X170065000Y-84324000D01*
X170065000Y-87526000D01*
X170045315Y-87593039D01*
X169992511Y-87638794D01*
X169941000Y-87650000D01*
X164799000Y-87650000D01*
X164731961Y-87630315D01*
X164686206Y-87577511D01*
X164675000Y-87526000D01*
X164675000Y-84324000D01*
X164694685Y-84256961D01*
X164747489Y-84211206D01*
X164799000Y-84200000D01*
X169941000Y-84200000D01*
X170008039Y-84219685D01*
G37*
G04 #@! TD.AperFunction*
G04 #@! TA.AperFunction,Conductor*
G36*
X143543039Y-82069685D02*
G01*
X143588794Y-82122489D01*
X143600000Y-82174000D01*
X143600000Y-87476000D01*
X143580315Y-87543039D01*
X143527511Y-87588794D01*
X143476000Y-87600000D01*
X129100000Y-87600000D01*
X126900000Y-89549999D01*
X126900000Y-89976000D01*
X126880315Y-90043039D01*
X126827511Y-90088794D01*
X126776000Y-90100000D01*
X125529500Y-90100000D01*
X125462461Y-90080315D01*
X125416706Y-90027511D01*
X125405500Y-89976000D01*
X125405500Y-86945861D01*
X125425185Y-86878822D01*
X125441814Y-86858185D01*
X130213681Y-82086319D01*
X130275004Y-82052834D01*
X130301362Y-82050000D01*
X143476000Y-82050000D01*
X143543039Y-82069685D01*
G37*
G04 #@! TD.AperFunction*
G04 #@! TA.AperFunction,Conductor*
G36*
X120415677Y-82069685D02*
G01*
X120436319Y-82086319D01*
X125163681Y-86813681D01*
X125197166Y-86875004D01*
X125200000Y-86901362D01*
X125200000Y-89976000D01*
X125180315Y-90043039D01*
X125127511Y-90088794D01*
X125076000Y-90100000D01*
X124024000Y-90100000D01*
X123956961Y-90080315D01*
X123911206Y-90027511D01*
X123900000Y-89976000D01*
X123900000Y-89550000D01*
X123899999Y-89549999D01*
X121700000Y-87600000D01*
X107537564Y-87600000D01*
X107470525Y-87580315D01*
X107424770Y-87527511D01*
X107417789Y-87508092D01*
X107414781Y-87496865D01*
X107339015Y-87365635D01*
X107236318Y-87262938D01*
X107202834Y-87201615D01*
X107200000Y-87175257D01*
X107200000Y-82482742D01*
X107219685Y-82415703D01*
X107236319Y-82395061D01*
X107339015Y-82292365D01*
X107414781Y-82161135D01*
X107419933Y-82141905D01*
X107456299Y-82082245D01*
X107519146Y-82051717D01*
X107539708Y-82050000D01*
X120348638Y-82050000D01*
X120415677Y-82069685D01*
G37*
G04 #@! TD.AperFunction*
G04 #@! TA.AperFunction,Conductor*
G36*
X164038724Y-81514754D02*
G01*
X164105714Y-81534602D01*
X164151340Y-81587518D01*
X164162420Y-81638934D01*
X164152600Y-88405057D01*
X165228600Y-88405057D01*
X165295639Y-88424742D01*
X165341394Y-88477546D01*
X165352600Y-88529057D01*
X165352600Y-90419879D01*
X165332915Y-90486918D01*
X165280111Y-90532673D01*
X165227428Y-90543873D01*
X160185428Y-90496217D01*
X160118578Y-90475900D01*
X160073324Y-90422666D01*
X160062600Y-90372223D01*
X160062600Y-81629360D01*
X160082285Y-81562321D01*
X160135089Y-81516566D01*
X160186901Y-81505360D01*
X164038724Y-81514754D01*
G37*
G04 #@! TD.AperFunction*
G04 #@! TA.AperFunction,Conductor*
G36*
X158202785Y-81519824D02*
G01*
X158248668Y-81572517D01*
X158260000Y-81624303D01*
X158260000Y-90367166D01*
X158240315Y-90434205D01*
X158187511Y-90479960D01*
X158137172Y-90491160D01*
X154315172Y-90527284D01*
X154247949Y-90508234D01*
X154201698Y-90455865D01*
X154190000Y-90403290D01*
X154190000Y-83976676D01*
X154209685Y-83909637D01*
X154226319Y-83888995D01*
X154263000Y-83852314D01*
X154328892Y-83738186D01*
X154363000Y-83610892D01*
X154363000Y-83479108D01*
X154328892Y-83351814D01*
X154263000Y-83237686D01*
X154198606Y-83173292D01*
X154165121Y-83111969D01*
X154162287Y-83085791D01*
X154160179Y-81633874D01*
X154179766Y-81566809D01*
X154232504Y-81520978D01*
X154283873Y-81509697D01*
X158135698Y-81500303D01*
X158202785Y-81519824D01*
G37*
G04 #@! TD.AperFunction*
G04 #@! TA.AperFunction,Conductor*
G36*
X197155158Y-84264685D02*
G01*
X197200913Y-84317489D01*
X197212118Y-84369380D01*
X197183198Y-93797002D01*
X197163308Y-93863981D01*
X197110364Y-93909574D01*
X197041176Y-93919305D01*
X196983713Y-93894998D01*
X196938664Y-93860431D01*
X196938662Y-93860429D01*
X196938656Y-93860425D01*
X196938651Y-93860422D01*
X196938648Y-93860420D01*
X196688852Y-93716199D01*
X196688836Y-93716191D01*
X196422360Y-93605814D01*
X196422348Y-93605810D01*
X196422345Y-93605809D01*
X196143717Y-93531151D01*
X196143711Y-93531150D01*
X196143706Y-93531149D01*
X195857738Y-93493501D01*
X195857733Y-93493500D01*
X195857728Y-93493500D01*
X195569272Y-93493500D01*
X195569266Y-93493500D01*
X195569261Y-93493501D01*
X195283293Y-93531149D01*
X195283286Y-93531150D01*
X195283283Y-93531151D01*
X195004655Y-93605809D01*
X195004639Y-93605814D01*
X194738163Y-93716191D01*
X194738147Y-93716199D01*
X194488351Y-93860420D01*
X194488335Y-93860431D01*
X194259497Y-94036024D01*
X194259490Y-94036030D01*
X194055530Y-94239990D01*
X194055524Y-94239997D01*
X193879931Y-94468835D01*
X193879920Y-94468851D01*
X193735699Y-94718647D01*
X193735691Y-94718663D01*
X193625314Y-94985139D01*
X193625309Y-94985155D01*
X193550652Y-95263780D01*
X193550649Y-95263793D01*
X193513001Y-95549761D01*
X193513000Y-95549778D01*
X193513000Y-95838221D01*
X193513001Y-95838238D01*
X193550649Y-96124206D01*
X193550650Y-96124211D01*
X193550651Y-96124217D01*
X193550652Y-96124219D01*
X193625309Y-96402844D01*
X193625314Y-96402860D01*
X193735691Y-96669336D01*
X193735699Y-96669352D01*
X193879920Y-96919148D01*
X193879931Y-96919164D01*
X194055524Y-97148002D01*
X194055530Y-97148009D01*
X194259490Y-97351969D01*
X194259496Y-97351974D01*
X194488344Y-97527575D01*
X194488351Y-97527579D01*
X194738147Y-97671800D01*
X194738163Y-97671808D01*
X195004639Y-97782185D01*
X195004645Y-97782186D01*
X195004655Y-97782191D01*
X195283283Y-97856849D01*
X195569272Y-97894500D01*
X195569279Y-97894500D01*
X195857721Y-97894500D01*
X195857728Y-97894500D01*
X196143717Y-97856849D01*
X196422345Y-97782191D01*
X196422357Y-97782185D01*
X196422360Y-97782185D01*
X196688836Y-97671808D01*
X196688839Y-97671806D01*
X196688845Y-97671804D01*
X196938656Y-97527575D01*
X196972045Y-97501954D01*
X197037212Y-97476759D01*
X197105657Y-97490796D01*
X197155648Y-97539609D01*
X197171531Y-97600709D01*
X197162500Y-100544810D01*
X197162500Y-106071000D01*
X197142815Y-106138039D01*
X197090011Y-106183794D01*
X197038500Y-106195000D01*
X194462500Y-106195000D01*
X194462500Y-109471000D01*
X194442815Y-109538039D01*
X194390011Y-109583794D01*
X194338500Y-109595000D01*
X184535956Y-109595000D01*
X184511765Y-109592617D01*
X184380468Y-109566500D01*
X184380465Y-109566500D01*
X184173535Y-109566500D01*
X184173531Y-109566500D01*
X184042235Y-109592617D01*
X184018044Y-109595000D01*
X183186500Y-109595000D01*
X183119461Y-109575315D01*
X183073706Y-109522511D01*
X183062500Y-109471000D01*
X183062500Y-87670000D01*
X174886500Y-87670000D01*
X174819461Y-87650315D01*
X174773706Y-87597511D01*
X174762500Y-87546000D01*
X174762500Y-84369000D01*
X174782185Y-84301961D01*
X174834989Y-84256206D01*
X174886500Y-84245000D01*
X197088119Y-84245000D01*
X197155158Y-84264685D01*
G37*
G04 #@! TD.AperFunction*
M02*
