%TF.GenerationSoftware,KiCad,Pcbnew,9.0.5*%
%TF.CreationDate,2025-12-04T19:26:55-05:00*%
%TF.ProjectId,bustingballscrazystylenolube,62757374-696e-4676-9261-6c6c73637261,rev?*%
%TF.SameCoordinates,Original*%
%TF.FileFunction,Drillmap*%
%TF.FilePolarity,Positive*%
%FSLAX45Y45*%
G04 Gerber Fmt 4.5, Leading zero omitted, Abs format (unit mm)*
G04 Created by KiCad (PCBNEW 9.0.5) date 2025-12-04 19:26:55*
%MOMM*%
%LPD*%
G01*
G04 APERTURE LIST*
%ADD10C,0.050000*%
%ADD11C,0.200000*%
%ADD12C,0.100000*%
%ADD13C,0.300000*%
%ADD14C,0.320000*%
G04 APERTURE END LIST*
D10*
X20320000Y-13843000D02*
G75*
G02*
X19558000Y-14605000I-762000J0D01*
G01*
X10160000Y-13843000D02*
X10160000Y-7239000D01*
X10922000Y-14605000D02*
X19558000Y-14605000D01*
X20320000Y-13843000D02*
X20320000Y-7239000D01*
X10160000Y-7239000D02*
G75*
G02*
X10922000Y-6477000I762000J0D01*
G01*
X10922000Y-14605000D02*
G75*
G02*
X10160000Y-13843000I0J762000D01*
G01*
X19558000Y-6477000D02*
G75*
G02*
X20320000Y-7239000I0J-762000D01*
G01*
X10922000Y-6477000D02*
X19558000Y-6477000D01*
D11*
D12*
X10754840Y-8234840D02*
X10775160Y-8255160D01*
X10775160Y-8234840D02*
X10754840Y-8255160D01*
X10754840Y-8714840D02*
X10775160Y-8735160D01*
X10775160Y-8714840D02*
X10754840Y-8735160D01*
X10814840Y-8234840D02*
X10835160Y-8255160D01*
X10835160Y-8234840D02*
X10814840Y-8255160D01*
X10814840Y-8714840D02*
X10835160Y-8735160D01*
X10835160Y-8714840D02*
X10814840Y-8735160D01*
X12424840Y-8959840D02*
X12445160Y-8980160D01*
X12445160Y-8959840D02*
X12424840Y-8980160D01*
X12484840Y-8959840D02*
X12505160Y-8980160D01*
X12505160Y-8959840D02*
X12484840Y-8980160D01*
X12557210Y-8958540D02*
X12577530Y-8978860D01*
X12577530Y-8958540D02*
X12557210Y-8978860D01*
X12612690Y-8958540D02*
X12633010Y-8978860D01*
X12633010Y-8958540D02*
X12612690Y-8978860D01*
X12954840Y-8694840D02*
X12975160Y-8715160D01*
X12975160Y-8694840D02*
X12954840Y-8715160D01*
X13014840Y-8694840D02*
X13035160Y-8715160D01*
X13035160Y-8694840D02*
X13014840Y-8715160D01*
X13234840Y-8694840D02*
X13255160Y-8715160D01*
X13255160Y-8694840D02*
X13234840Y-8715160D01*
X13294840Y-8694840D02*
X13315160Y-8715160D01*
X13315160Y-8694840D02*
X13294840Y-8715160D01*
X13509840Y-8694840D02*
X13530160Y-8715160D01*
X13530160Y-8694840D02*
X13509840Y-8715160D01*
X13569840Y-8694840D02*
X13590160Y-8715160D01*
X13590160Y-8694840D02*
X13569840Y-8715160D01*
X14249840Y-8454840D02*
X14270160Y-8475160D01*
X14270160Y-8454840D02*
X14249840Y-8475160D01*
X14249840Y-8519840D02*
X14270160Y-8540160D01*
X14270160Y-8519840D02*
X14249840Y-8540160D01*
X14249840Y-8584840D02*
X14270160Y-8605160D01*
X14270160Y-8584840D02*
X14249840Y-8605160D01*
X14249840Y-8649840D02*
X14270160Y-8670160D01*
X14270160Y-8649840D02*
X14249840Y-8670160D01*
X14249840Y-8714840D02*
X14270160Y-8735160D01*
X14270160Y-8714840D02*
X14249840Y-8735160D01*
X14309840Y-8454840D02*
X14330160Y-8475160D01*
X14330160Y-8454840D02*
X14309840Y-8475160D01*
X14309840Y-8519840D02*
X14330160Y-8540160D01*
X14330160Y-8519840D02*
X14309840Y-8540160D01*
X14309840Y-8584840D02*
X14330160Y-8605160D01*
X14330160Y-8584840D02*
X14309840Y-8605160D01*
X14309840Y-8649840D02*
X14330160Y-8670160D01*
X14330160Y-8649840D02*
X14309840Y-8670160D01*
X14309840Y-8714840D02*
X14330160Y-8735160D01*
X14330160Y-8714840D02*
X14309840Y-8735160D01*
X14859840Y-8449840D02*
X14880160Y-8470160D01*
X14880160Y-8449840D02*
X14859840Y-8470160D01*
X14859840Y-8514840D02*
X14880160Y-8535160D01*
X14880160Y-8514840D02*
X14859840Y-8535160D01*
X14859840Y-8579840D02*
X14880160Y-8600160D01*
X14880160Y-8579840D02*
X14859840Y-8600160D01*
X14859840Y-8644840D02*
X14880160Y-8665160D01*
X14880160Y-8644840D02*
X14859840Y-8665160D01*
X14859840Y-8709840D02*
X14880160Y-8730160D01*
X14880160Y-8709840D02*
X14859840Y-8730160D01*
X14919840Y-8449840D02*
X14940160Y-8470160D01*
X14940160Y-8449840D02*
X14919840Y-8470160D01*
X14919840Y-8514840D02*
X14940160Y-8535160D01*
X14940160Y-8514840D02*
X14919840Y-8535160D01*
X14919840Y-8579840D02*
X14940160Y-8600160D01*
X14940160Y-8579840D02*
X14919840Y-8600160D01*
X14919840Y-8644840D02*
X14940160Y-8665160D01*
X14940160Y-8644840D02*
X14919840Y-8665160D01*
X14919840Y-8709840D02*
X14940160Y-8730160D01*
X14940160Y-8709840D02*
X14919840Y-8730160D01*
X15219840Y-8521840D02*
X15240160Y-8542160D01*
X15240160Y-8521840D02*
X15219840Y-8542160D01*
X15219840Y-8586840D02*
X15240160Y-8607160D01*
X15240160Y-8586840D02*
X15219840Y-8607160D01*
X15219840Y-8651840D02*
X15240160Y-8672160D01*
X15240160Y-8651840D02*
X15219840Y-8672160D01*
X15279840Y-8521840D02*
X15300160Y-8542160D01*
X15300160Y-8521840D02*
X15279840Y-8542160D01*
X15279840Y-8586840D02*
X15300160Y-8607160D01*
X15300160Y-8586840D02*
X15279840Y-8607160D01*
X15279840Y-8651840D02*
X15300160Y-8672160D01*
X15300160Y-8651840D02*
X15279840Y-8672160D01*
X15625390Y-8893160D02*
X15645710Y-8913480D01*
X15645710Y-8893160D02*
X15625390Y-8913480D01*
X15625390Y-8953160D02*
X15645710Y-8973480D01*
X15645710Y-8953160D02*
X15625390Y-8973480D01*
X15631840Y-8212340D02*
X15652160Y-8232660D01*
X15652160Y-8212340D02*
X15631840Y-8232660D01*
X15631840Y-8319215D02*
X15652160Y-8339535D01*
X15652160Y-8319215D02*
X15631840Y-8339535D01*
X15631840Y-8426090D02*
X15652160Y-8446410D01*
X15652160Y-8426090D02*
X15631840Y-8446410D01*
X15631840Y-8532965D02*
X15652160Y-8553285D01*
X15652160Y-8532965D02*
X15631840Y-8553285D01*
X15631840Y-8639840D02*
X15652160Y-8660160D01*
X15652160Y-8639840D02*
X15631840Y-8660160D01*
X15690390Y-8893160D02*
X15710710Y-8913480D01*
X15710710Y-8893160D02*
X15690390Y-8913480D01*
X15690390Y-8953160D02*
X15710710Y-8973480D01*
X15710710Y-8953160D02*
X15690390Y-8973480D01*
X15696840Y-8212340D02*
X15717160Y-8232660D01*
X15717160Y-8212340D02*
X15696840Y-8232660D01*
X15696840Y-8319215D02*
X15717160Y-8339535D01*
X15717160Y-8319215D02*
X15696840Y-8339535D01*
X15696840Y-8426090D02*
X15717160Y-8446410D01*
X15717160Y-8426090D02*
X15696840Y-8446410D01*
X15696840Y-8532965D02*
X15717160Y-8553285D01*
X15717160Y-8532965D02*
X15696840Y-8553285D01*
X15696840Y-8639840D02*
X15717160Y-8660160D01*
X15717160Y-8639840D02*
X15696840Y-8660160D01*
X15755390Y-8893160D02*
X15775710Y-8913480D01*
X15775710Y-8893160D02*
X15755390Y-8913480D01*
X15755390Y-8953160D02*
X15775710Y-8973480D01*
X15775710Y-8953160D02*
X15755390Y-8973480D01*
X15761840Y-8212340D02*
X15782160Y-8232660D01*
X15782160Y-8212340D02*
X15761840Y-8232660D01*
X15761840Y-8319215D02*
X15782160Y-8339535D01*
X15782160Y-8319215D02*
X15761840Y-8339535D01*
X15761840Y-8426090D02*
X15782160Y-8446410D01*
X15782160Y-8426090D02*
X15761840Y-8446410D01*
X15761840Y-8532965D02*
X15782160Y-8553285D01*
X15782160Y-8532965D02*
X15761840Y-8553285D01*
X15761840Y-8639840D02*
X15782160Y-8660160D01*
X15782160Y-8639840D02*
X15761840Y-8660160D01*
X16044340Y-8214840D02*
X16064660Y-8235160D01*
X16064660Y-8214840D02*
X16044340Y-8235160D01*
X16044340Y-8321715D02*
X16064660Y-8342035D01*
X16064660Y-8321715D02*
X16044340Y-8342035D01*
X16044340Y-8428590D02*
X16064660Y-8448910D01*
X16064660Y-8428590D02*
X16044340Y-8448910D01*
X16044340Y-8535465D02*
X16064660Y-8555785D01*
X16064660Y-8535465D02*
X16044340Y-8555785D01*
X16044340Y-8642340D02*
X16064660Y-8662660D01*
X16064660Y-8642340D02*
X16044340Y-8662660D01*
X16054740Y-8895240D02*
X16075060Y-8915560D01*
X16075060Y-8895240D02*
X16054740Y-8915560D01*
X16054740Y-8955240D02*
X16075060Y-8975560D01*
X16075060Y-8955240D02*
X16054740Y-8975560D01*
X16109340Y-8214840D02*
X16129660Y-8235160D01*
X16129660Y-8214840D02*
X16109340Y-8235160D01*
X16109340Y-8321715D02*
X16129660Y-8342035D01*
X16129660Y-8321715D02*
X16109340Y-8342035D01*
X16109340Y-8428590D02*
X16129660Y-8448910D01*
X16129660Y-8428590D02*
X16109340Y-8448910D01*
X16109340Y-8535465D02*
X16129660Y-8555785D01*
X16129660Y-8535465D02*
X16109340Y-8555785D01*
X16109340Y-8642340D02*
X16129660Y-8662660D01*
X16129660Y-8642340D02*
X16109340Y-8662660D01*
X16119740Y-8895240D02*
X16140060Y-8915560D01*
X16140060Y-8895240D02*
X16119740Y-8915560D01*
X16119740Y-8955240D02*
X16140060Y-8975560D01*
X16140060Y-8955240D02*
X16119740Y-8975560D01*
X16174340Y-8214840D02*
X16194660Y-8235160D01*
X16194660Y-8214840D02*
X16174340Y-8235160D01*
X16174340Y-8321715D02*
X16194660Y-8342035D01*
X16194660Y-8321715D02*
X16174340Y-8342035D01*
X16174340Y-8428590D02*
X16194660Y-8448910D01*
X16194660Y-8428590D02*
X16174340Y-8448910D01*
X16174340Y-8535465D02*
X16194660Y-8555785D01*
X16194660Y-8535465D02*
X16174340Y-8555785D01*
X16174340Y-8642340D02*
X16194660Y-8662660D01*
X16194660Y-8642340D02*
X16174340Y-8662660D01*
X16184740Y-8895240D02*
X16205060Y-8915560D01*
X16205060Y-8895240D02*
X16184740Y-8915560D01*
X16184740Y-8955240D02*
X16205060Y-8975560D01*
X16205060Y-8955240D02*
X16184740Y-8975560D01*
X16532340Y-8530340D02*
X16552660Y-8550660D01*
X16552660Y-8530340D02*
X16532340Y-8550660D01*
X16532340Y-8595340D02*
X16552660Y-8615660D01*
X16552660Y-8595340D02*
X16532340Y-8615660D01*
X16532340Y-8660340D02*
X16552660Y-8680660D01*
X16552660Y-8660340D02*
X16532340Y-8680660D01*
X16592340Y-8530340D02*
X16612660Y-8550660D01*
X16612660Y-8530340D02*
X16592340Y-8550660D01*
X16592340Y-8595340D02*
X16612660Y-8615660D01*
X16612660Y-8595340D02*
X16592340Y-8615660D01*
X16592340Y-8660340D02*
X16612660Y-8680660D01*
X16612660Y-8660340D02*
X16592340Y-8680660D01*
X16897340Y-8459840D02*
X16917660Y-8480160D01*
X16917660Y-8459840D02*
X16897340Y-8480160D01*
X16897340Y-8524840D02*
X16917660Y-8545160D01*
X16917660Y-8524840D02*
X16897340Y-8545160D01*
X16897340Y-8589840D02*
X16917660Y-8610160D01*
X16917660Y-8589840D02*
X16897340Y-8610160D01*
X16897340Y-8654840D02*
X16917660Y-8675160D01*
X16917660Y-8654840D02*
X16897340Y-8675160D01*
X16897340Y-8719840D02*
X16917660Y-8740160D01*
X16917660Y-8719840D02*
X16897340Y-8740160D01*
X16957340Y-8459840D02*
X16977660Y-8480160D01*
X16977660Y-8459840D02*
X16957340Y-8480160D01*
X16957340Y-8524840D02*
X16977660Y-8545160D01*
X16977660Y-8524840D02*
X16957340Y-8545160D01*
X16957340Y-8589840D02*
X16977660Y-8610160D01*
X16977660Y-8589840D02*
X16957340Y-8610160D01*
X16957340Y-8654840D02*
X16977660Y-8675160D01*
X16977660Y-8654840D02*
X16957340Y-8675160D01*
X16957340Y-8719840D02*
X16977660Y-8740160D01*
X16977660Y-8719840D02*
X16957340Y-8740160D01*
X17502340Y-8459840D02*
X17522660Y-8480160D01*
X17522660Y-8459840D02*
X17502340Y-8480160D01*
X17502340Y-8524840D02*
X17522660Y-8545160D01*
X17522660Y-8524840D02*
X17502340Y-8545160D01*
X17502340Y-8589840D02*
X17522660Y-8610160D01*
X17522660Y-8589840D02*
X17502340Y-8610160D01*
X17502340Y-8654840D02*
X17522660Y-8675160D01*
X17522660Y-8654840D02*
X17502340Y-8675160D01*
X17502340Y-8719840D02*
X17522660Y-8740160D01*
X17522660Y-8719840D02*
X17502340Y-8740160D01*
X17562340Y-8459840D02*
X17582660Y-8480160D01*
X17582660Y-8459840D02*
X17562340Y-8480160D01*
X17562340Y-8524840D02*
X17582660Y-8545160D01*
X17582660Y-8524840D02*
X17562340Y-8545160D01*
X17562340Y-8589840D02*
X17582660Y-8610160D01*
X17582660Y-8589840D02*
X17562340Y-8610160D01*
X17562340Y-8654840D02*
X17582660Y-8675160D01*
X17582660Y-8654840D02*
X17562340Y-8675160D01*
X17562340Y-8719840D02*
X17582660Y-8740160D01*
X17582660Y-8719840D02*
X17562340Y-8740160D01*
X18354840Y-9039840D02*
X18375160Y-9060160D01*
X18375160Y-9039840D02*
X18354840Y-9060160D01*
X18354840Y-9349840D02*
X18375160Y-9370160D01*
X18375160Y-9349840D02*
X18354840Y-9370160D01*
X18357340Y-9659840D02*
X18377660Y-9680160D01*
X18377660Y-9659840D02*
X18357340Y-9680160D01*
X12434710Y-9105200D02*
G75*
G02*
X12414390Y-9105200I-10160J0D01*
G01*
X12414390Y-9105200D02*
G75*
G02*
X12434710Y-9105200I10160J0D01*
G01*
X12434710Y-9357700D02*
G75*
G02*
X12414390Y-9357700I-10160J0D01*
G01*
X12414390Y-9357700D02*
G75*
G02*
X12434710Y-9357700I10160J0D01*
G01*
X12542210Y-9105200D02*
G75*
G02*
X12521890Y-9105200I-10160J0D01*
G01*
X12521890Y-9105200D02*
G75*
G02*
X12542210Y-9105200I10160J0D01*
G01*
X12542210Y-9246700D02*
G75*
G02*
X12521890Y-9246700I-10160J0D01*
G01*
X12521890Y-9246700D02*
G75*
G02*
X12542210Y-9246700I10160J0D01*
G01*
X12542210Y-9357700D02*
G75*
G02*
X12521890Y-9357700I-10160J0D01*
G01*
X12521890Y-9357700D02*
G75*
G02*
X12542210Y-9357700I10160J0D01*
G01*
X12542210Y-9468700D02*
G75*
G02*
X12521890Y-9468700I-10160J0D01*
G01*
X12521890Y-9468700D02*
G75*
G02*
X12542210Y-9468700I10160J0D01*
G01*
X12649710Y-9105200D02*
G75*
G02*
X12629390Y-9105200I-10160J0D01*
G01*
X12629390Y-9105200D02*
G75*
G02*
X12649710Y-9105200I10160J0D01*
G01*
X12649710Y-9357700D02*
G75*
G02*
X12629390Y-9357700I-10160J0D01*
G01*
X12629390Y-9357700D02*
G75*
G02*
X12649710Y-9357700I10160J0D01*
G01*
X15111250Y-10796800D02*
X15111250Y-10822200D01*
X15098550Y-10809500D02*
X15123950Y-10809500D01*
X15606250Y-9246800D02*
X15606250Y-9272200D01*
X15593550Y-9259500D02*
X15618950Y-9259500D01*
X15736250Y-9246800D02*
X15736250Y-9272200D01*
X15723550Y-9259500D02*
X15748950Y-9259500D01*
X15891250Y-9331800D02*
X15891250Y-9357200D01*
X15878550Y-9344500D02*
X15903950Y-9344500D01*
X15916250Y-9056800D02*
X15916250Y-9082200D01*
X15903550Y-9069500D02*
X15928950Y-9069500D01*
X15976250Y-9336800D02*
X15976250Y-9362200D01*
X15963550Y-9349500D02*
X15988950Y-9349500D01*
X16031250Y-9251800D02*
X16031250Y-9277200D01*
X16018550Y-9264500D02*
X16043950Y-9264500D01*
X16166250Y-9251800D02*
X16166250Y-9277200D01*
X16153550Y-9264500D02*
X16178950Y-9264500D01*
X10480607Y-8855607D02*
X10480607Y-8834393D01*
X10459393Y-8834393D01*
X10459393Y-8855607D01*
X10480607Y-8855607D01*
X10570607Y-8415607D02*
X10570607Y-8394393D01*
X10549393Y-8394393D01*
X10549393Y-8415607D01*
X10570607Y-8415607D01*
X11225357Y-10296907D02*
X11225357Y-10275693D01*
X11204143Y-10275693D01*
X11204143Y-10296907D01*
X11225357Y-10296907D01*
X11275507Y-8887907D02*
X11275507Y-8866693D01*
X11254293Y-8866693D01*
X11254293Y-8887907D01*
X11275507Y-8887907D01*
X11415207Y-9459407D02*
X11415207Y-9438193D01*
X11393993Y-9438193D01*
X11393993Y-9459407D01*
X11415207Y-9459407D01*
X11505607Y-12388507D02*
X11505607Y-12367293D01*
X11484393Y-12367293D01*
X11484393Y-12388507D01*
X11505607Y-12388507D01*
X11517457Y-10157207D02*
X11517457Y-10135993D01*
X11496243Y-10135993D01*
X11496243Y-10157207D01*
X11517457Y-10157207D01*
X11615607Y-9075607D02*
X11615607Y-9054393D01*
X11594393Y-9054393D01*
X11594393Y-9075607D01*
X11615607Y-9075607D01*
X11651857Y-12625107D02*
X11651857Y-12603893D01*
X11630643Y-12603893D01*
X11630643Y-12625107D01*
X11651857Y-12625107D01*
X11651857Y-13035107D02*
X11651857Y-13013893D01*
X11630643Y-13013893D01*
X11630643Y-13035107D01*
X11651857Y-13035107D01*
X11740607Y-12490107D02*
X11740607Y-12468893D01*
X11719393Y-12468893D01*
X11719393Y-12490107D01*
X11740607Y-12490107D01*
X11770607Y-10498507D02*
X11770607Y-10477293D01*
X11749393Y-10477293D01*
X11749393Y-10498507D01*
X11770607Y-10498507D01*
X11784157Y-9283057D02*
X11784157Y-9261843D01*
X11762943Y-9261843D01*
X11762943Y-9283057D01*
X11784157Y-9283057D01*
X11790607Y-12170607D02*
X11790607Y-12149393D01*
X11769393Y-12149393D01*
X11769393Y-12170607D01*
X11790607Y-12170607D01*
X11893308Y-9174158D02*
X11893308Y-9152945D01*
X11872095Y-9152945D01*
X11872095Y-9174158D01*
X11893308Y-9174158D01*
X11898457Y-10042907D02*
X11898457Y-10021693D01*
X11877243Y-10021693D01*
X11877243Y-10042907D01*
X11898457Y-10042907D01*
X12050857Y-9865107D02*
X12050857Y-9843893D01*
X12029643Y-9843893D01*
X12029643Y-9865107D01*
X12050857Y-9865107D01*
X12120525Y-9031794D02*
X12120525Y-9010580D01*
X12099312Y-9010580D01*
X12099312Y-9031794D01*
X12120525Y-9031794D01*
X12152457Y-9407907D02*
X12152457Y-9386693D01*
X12131243Y-9386693D01*
X12131243Y-9407907D01*
X12152457Y-9407907D01*
X12160607Y-9315607D02*
X12160607Y-9294393D01*
X12139393Y-9294393D01*
X12139393Y-9315607D01*
X12160607Y-9315607D01*
X12203257Y-9867257D02*
X12203257Y-9846043D01*
X12182043Y-9846043D01*
X12182043Y-9867257D01*
X12203257Y-9867257D01*
X12228657Y-9048807D02*
X12228657Y-9027593D01*
X12207443Y-9027593D01*
X12207443Y-9048807D01*
X12228657Y-9048807D01*
X12241357Y-9280907D02*
X12241357Y-9259693D01*
X12220143Y-9259693D01*
X12220143Y-9280907D01*
X12241357Y-9280907D01*
X12431857Y-8861807D02*
X12431857Y-8840593D01*
X12410643Y-8840593D01*
X12410643Y-8861807D01*
X12431857Y-8861807D01*
X12431857Y-10763607D02*
X12431857Y-10742393D01*
X12410643Y-10742393D01*
X12410643Y-10763607D01*
X12431857Y-10763607D01*
X12436857Y-12845107D02*
X12436857Y-12823893D01*
X12415643Y-12823893D01*
X12415643Y-12845107D01*
X12436857Y-12845107D01*
X12520757Y-9915907D02*
X12520757Y-9894693D01*
X12499543Y-9894693D01*
X12499543Y-9915907D01*
X12520757Y-9915907D01*
X12571557Y-9852407D02*
X12571557Y-9831193D01*
X12550343Y-9831193D01*
X12550343Y-9852407D01*
X12571557Y-9852407D01*
X12571557Y-10246107D02*
X12571557Y-10224893D01*
X12550343Y-10224893D01*
X12550343Y-10246107D01*
X12571557Y-10246107D01*
X12619557Y-9788407D02*
X12619557Y-9767193D01*
X12598343Y-9767193D01*
X12598343Y-9788407D01*
X12619557Y-9788407D01*
X12660457Y-10246107D02*
X12660457Y-10224893D01*
X12639243Y-10224893D01*
X12639243Y-10246107D01*
X12660457Y-10246107D01*
X12875607Y-9165607D02*
X12875607Y-9144393D01*
X12854393Y-9144393D01*
X12854393Y-9165607D01*
X12875607Y-9165607D01*
X12876857Y-9560107D02*
X12876857Y-9538893D01*
X12855643Y-9538893D01*
X12855643Y-9560107D01*
X12876857Y-9560107D01*
X12901757Y-9280907D02*
X12901757Y-9259693D01*
X12880543Y-9259693D01*
X12880543Y-9280907D01*
X12901757Y-9280907D01*
X12966857Y-9560107D02*
X12966857Y-9538893D01*
X12945643Y-9538893D01*
X12945643Y-9560107D01*
X12966857Y-9560107D01*
X12981857Y-9475107D02*
X12981857Y-9453893D01*
X12960643Y-9453893D01*
X12960643Y-9475107D01*
X12981857Y-9475107D01*
X13145607Y-8923857D02*
X13145607Y-8902643D01*
X13124393Y-8902643D01*
X13124393Y-8923857D01*
X13145607Y-8923857D01*
X13281857Y-8370107D02*
X13281857Y-8348893D01*
X13260643Y-8348893D01*
X13260643Y-8370107D01*
X13281857Y-8370107D01*
X13320857Y-10246107D02*
X13320857Y-10224893D01*
X13299643Y-10224893D01*
X13299643Y-10246107D01*
X13320857Y-10246107D01*
X13425607Y-8923857D02*
X13425607Y-8902643D01*
X13404393Y-8902643D01*
X13404393Y-8923857D01*
X13425607Y-8923857D01*
X13460557Y-10246107D02*
X13460557Y-10224893D01*
X13439343Y-10224893D01*
X13439343Y-10246107D01*
X13460557Y-10246107D01*
X14016857Y-9535107D02*
X14016857Y-9513893D01*
X13995643Y-9513893D01*
X13995643Y-9535107D01*
X14016857Y-9535107D01*
X14236857Y-9353857D02*
X14236857Y-9332643D01*
X14215643Y-9332643D01*
X14215643Y-9353857D01*
X14236857Y-9353857D01*
X14471857Y-9415107D02*
X14471857Y-9393893D01*
X14450643Y-9393893D01*
X14450643Y-9415107D01*
X14471857Y-9415107D01*
X14731857Y-9415107D02*
X14731857Y-9393893D01*
X14710643Y-9393893D01*
X14710643Y-9415107D01*
X14731857Y-9415107D01*
X14761857Y-9705107D02*
X14761857Y-9683893D01*
X14740643Y-9683893D01*
X14740643Y-9705107D01*
X14761857Y-9705107D01*
X14841857Y-10175107D02*
X14841857Y-10153893D01*
X14820643Y-10153893D01*
X14820643Y-10175107D01*
X14841857Y-10175107D01*
X14911857Y-8300107D02*
X14911857Y-8278893D01*
X14890643Y-8278893D01*
X14890643Y-8300107D01*
X14911857Y-8300107D01*
X14966857Y-9353857D02*
X14966857Y-9332643D01*
X14945643Y-9332643D01*
X14945643Y-9353857D01*
X14966857Y-9353857D01*
X15241857Y-9660107D02*
X15241857Y-9638893D01*
X15220643Y-9638893D01*
X15220643Y-9660107D01*
X15241857Y-9660107D01*
X15396857Y-8365107D02*
X15396857Y-8343893D01*
X15375643Y-8343893D01*
X15375643Y-8365107D01*
X15396857Y-8365107D01*
X15396857Y-9350107D02*
X15396857Y-9328893D01*
X15375643Y-9328893D01*
X15375643Y-9350107D01*
X15396857Y-9350107D01*
X15411857Y-10563857D02*
X15411857Y-10542643D01*
X15390643Y-10542643D01*
X15390643Y-10563857D01*
X15411857Y-10563857D01*
X15456857Y-8210107D02*
X15456857Y-8188893D01*
X15435643Y-8188893D01*
X15435643Y-8210107D01*
X15456857Y-8210107D01*
X15650607Y-10770607D02*
X15650607Y-10749393D01*
X15629393Y-10749393D01*
X15629393Y-10770607D01*
X15650607Y-10770607D01*
X15830607Y-10130607D02*
X15830607Y-10109393D01*
X15809393Y-10109393D01*
X15809393Y-10130607D01*
X15830607Y-10130607D01*
X15905607Y-10765607D02*
X15905607Y-10744393D01*
X15884393Y-10744393D01*
X15884393Y-10765607D01*
X15905607Y-10765607D01*
X15996857Y-10210607D02*
X15996857Y-10189393D01*
X15975643Y-10189393D01*
X15975643Y-10210607D01*
X15996857Y-10210607D01*
X16110607Y-10260607D02*
X16110607Y-10239393D01*
X16089393Y-10239393D01*
X16089393Y-10260607D01*
X16110607Y-10260607D01*
X16351857Y-9470107D02*
X16351857Y-9448893D01*
X16330643Y-9448893D01*
X16330643Y-9470107D01*
X16351857Y-9470107D01*
X16401857Y-8210107D02*
X16401857Y-8188893D01*
X16380643Y-8188893D01*
X16380643Y-8210107D01*
X16401857Y-8210107D01*
X16430607Y-9870607D02*
X16430607Y-9849393D01*
X16409393Y-9849393D01*
X16409393Y-9870607D01*
X16430607Y-9870607D01*
X16621857Y-8875107D02*
X16621857Y-8853893D01*
X16600643Y-8853893D01*
X16600643Y-8875107D01*
X16621857Y-8875107D01*
X16916857Y-9233857D02*
X16916857Y-9212643D01*
X16895643Y-9212643D01*
X16895643Y-9233857D01*
X16916857Y-9233857D01*
X16946857Y-8255107D02*
X16946857Y-8233893D01*
X16925643Y-8233893D01*
X16925643Y-8255107D01*
X16946857Y-8255107D01*
X17020607Y-10170107D02*
X17020607Y-10148893D01*
X16999393Y-10148893D01*
X16999393Y-10170107D01*
X17020607Y-10170107D01*
X17020607Y-10385107D02*
X17020607Y-10363893D01*
X16999393Y-10363893D01*
X16999393Y-10385107D01*
X17020607Y-10385107D01*
X18168107Y-9215607D02*
X18168107Y-9194393D01*
X18146893Y-9194393D01*
X18146893Y-9215607D01*
X18168107Y-9215607D01*
X18168107Y-9525607D02*
X18168107Y-9504393D01*
X18146893Y-9504393D01*
X18146893Y-9525607D01*
X18168107Y-9525607D01*
X10319850Y-8080900D02*
X10349850Y-8050900D01*
X10319850Y-8020900D01*
X10289850Y-8050900D01*
X10319850Y-8080900D01*
X10359850Y-8020900D02*
X10279850Y-8020900D01*
X10279850Y-8080900D02*
G75*
G02*
X10279850Y-8020900I0J30000D01*
G01*
X10279850Y-8080900D02*
X10359850Y-8080900D01*
X10359850Y-8080900D02*
G75*
G03*
X10359850Y-8020900I0J30000D01*
G01*
X10319850Y-8944900D02*
X10349850Y-8914900D01*
X10319850Y-8884900D01*
X10289850Y-8914900D01*
X10319850Y-8944900D01*
X10359850Y-8884900D02*
X10279850Y-8884900D01*
X10279850Y-8944900D02*
G75*
G02*
X10279850Y-8884900I0J30000D01*
G01*
X10279850Y-8944900D02*
X10359850Y-8944900D01*
X10359850Y-8944900D02*
G75*
G03*
X10359850Y-8884900I0J30000D01*
G01*
X10319850Y-11890900D02*
X10349850Y-11860900D01*
X10319850Y-11830900D01*
X10289850Y-11860900D01*
X10319850Y-11890900D01*
X10359850Y-11830900D02*
X10279850Y-11830900D01*
X10279850Y-11890900D02*
G75*
G02*
X10279850Y-11830900I0J30000D01*
G01*
X10279850Y-11890900D02*
X10359850Y-11890900D01*
X10359850Y-11890900D02*
G75*
G03*
X10359850Y-11830900I0J30000D01*
G01*
X10319850Y-12754900D02*
X10349850Y-12724900D01*
X10319850Y-12694900D01*
X10289850Y-12724900D01*
X10319850Y-12754900D01*
X10359850Y-12694900D02*
X10279850Y-12694900D01*
X10279850Y-12754900D02*
G75*
G02*
X10279850Y-12694900I0J30000D01*
G01*
X10279850Y-12754900D02*
X10359850Y-12754900D01*
X10359850Y-12754900D02*
G75*
G03*
X10359850Y-12694900I0J30000D01*
G01*
X10737850Y-8080900D02*
X10767850Y-8050900D01*
X10737850Y-8020900D01*
X10707850Y-8050900D01*
X10737850Y-8080900D01*
X10792850Y-8020900D02*
X10682850Y-8020900D01*
X10682850Y-8080900D02*
G75*
G02*
X10682850Y-8020900I0J30000D01*
G01*
X10682850Y-8080900D02*
X10792850Y-8080900D01*
X10792850Y-8080900D02*
G75*
G03*
X10792850Y-8020900I0J30000D01*
G01*
X10737850Y-8944900D02*
X10767850Y-8914900D01*
X10737850Y-8884900D01*
X10707850Y-8914900D01*
X10737850Y-8944900D01*
X10792850Y-8884900D02*
X10682850Y-8884900D01*
X10682850Y-8944900D02*
G75*
G02*
X10682850Y-8884900I0J30000D01*
G01*
X10682850Y-8944900D02*
X10792850Y-8944900D01*
X10792850Y-8944900D02*
G75*
G03*
X10792850Y-8884900I0J30000D01*
G01*
X10737850Y-11890900D02*
X10767850Y-11860900D01*
X10737850Y-11830900D01*
X10707850Y-11860900D01*
X10737850Y-11890900D01*
X10792850Y-11830900D02*
X10682850Y-11830900D01*
X10682850Y-11890900D02*
G75*
G02*
X10682850Y-11830900I0J30000D01*
G01*
X10682850Y-11890900D02*
X10792850Y-11890900D01*
X10792850Y-11890900D02*
G75*
G03*
X10792850Y-11830900I0J30000D01*
G01*
X10737850Y-12754900D02*
X10767850Y-12724900D01*
X10737850Y-12694900D01*
X10707850Y-12724900D01*
X10737850Y-12754900D01*
X10792850Y-12694900D02*
X10682850Y-12694900D01*
X10682850Y-12754900D02*
G75*
G02*
X10682850Y-12694900I0J30000D01*
G01*
X10682850Y-12754900D02*
X10792850Y-12754900D01*
X10792850Y-12754900D02*
G75*
G03*
X10792850Y-12694900I0J30000D01*
G01*
X13816000Y-10150000D02*
X13916000Y-10250000D01*
X13916000Y-10150000D02*
X13816000Y-10250000D01*
X13916000Y-10200000D02*
G75*
G02*
X13816000Y-10200000I-50000J0D01*
G01*
X13816000Y-10200000D02*
G75*
G02*
X13916000Y-10200000I50000J0D01*
G01*
X14070000Y-10150000D02*
X14170000Y-10250000D01*
X14170000Y-10150000D02*
X14070000Y-10250000D01*
X14170000Y-10200000D02*
G75*
G02*
X14070000Y-10200000I-50000J0D01*
G01*
X14070000Y-10200000D02*
G75*
G02*
X14170000Y-10200000I50000J0D01*
G01*
X14324000Y-10150000D02*
X14424000Y-10250000D01*
X14424000Y-10150000D02*
X14324000Y-10250000D01*
X14424000Y-10200000D02*
G75*
G02*
X14324000Y-10200000I-50000J0D01*
G01*
X14324000Y-10200000D02*
G75*
G02*
X14424000Y-10200000I50000J0D01*
G01*
X18123700Y-9995700D02*
X18223700Y-10095700D01*
X18223700Y-9995700D02*
X18123700Y-10095700D01*
X18223700Y-10045700D02*
G75*
G02*
X18123700Y-10045700I-50000J0D01*
G01*
X18123700Y-10045700D02*
G75*
G02*
X18223700Y-10045700I50000J0D01*
G01*
X18123700Y-10249700D02*
X18223700Y-10349700D01*
X18223700Y-10249700D02*
X18123700Y-10349700D01*
X18223700Y-10299700D02*
G75*
G02*
X18123700Y-10299700I-50000J0D01*
G01*
X18123700Y-10299700D02*
G75*
G02*
X18223700Y-10299700I50000J0D01*
G01*
X18123700Y-10503700D02*
X18223700Y-10603700D01*
X18223700Y-10503700D02*
X18123700Y-10603700D01*
X18223700Y-10553700D02*
G75*
G02*
X18123700Y-10553700I-50000J0D01*
G01*
X18123700Y-10553700D02*
G75*
G02*
X18223700Y-10553700I50000J0D01*
G01*
X18123700Y-10757700D02*
X18223700Y-10857700D01*
X18223700Y-10757700D02*
X18123700Y-10857700D01*
X18223700Y-10807700D02*
G75*
G02*
X18123700Y-10807700I-50000J0D01*
G01*
X18123700Y-10807700D02*
G75*
G02*
X18223700Y-10807700I50000J0D01*
G01*
X18123700Y-11011700D02*
X18223700Y-11111700D01*
X18223700Y-11011700D02*
X18123700Y-11111700D01*
X18223700Y-11061700D02*
G75*
G02*
X18123700Y-11061700I-50000J0D01*
G01*
X18123700Y-11061700D02*
G75*
G02*
X18223700Y-11061700I50000J0D01*
G01*
X18123700Y-11265700D02*
X18223700Y-11365700D01*
X18223700Y-11265700D02*
X18123700Y-11365700D01*
X18223700Y-11315700D02*
G75*
G02*
X18123700Y-11315700I-50000J0D01*
G01*
X18123700Y-11315700D02*
G75*
G02*
X18223700Y-11315700I50000J0D01*
G01*
X18123700Y-11519700D02*
X18223700Y-11619700D01*
X18223700Y-11519700D02*
X18123700Y-11619700D01*
X18223700Y-11569700D02*
G75*
G02*
X18123700Y-11569700I-50000J0D01*
G01*
X18123700Y-11569700D02*
G75*
G02*
X18223700Y-11569700I50000J0D01*
G01*
X18123700Y-11773700D02*
X18223700Y-11873700D01*
X18223700Y-11773700D02*
X18123700Y-11873700D01*
X18223700Y-11823700D02*
G75*
G02*
X18123700Y-11823700I-50000J0D01*
G01*
X18123700Y-11823700D02*
G75*
G02*
X18223700Y-11823700I50000J0D01*
G01*
X18377700Y-9995700D02*
X18477700Y-10095700D01*
X18477700Y-9995700D02*
X18377700Y-10095700D01*
X18477700Y-10045700D02*
G75*
G02*
X18377700Y-10045700I-50000J0D01*
G01*
X18377700Y-10045700D02*
G75*
G02*
X18477700Y-10045700I50000J0D01*
G01*
X18377700Y-10249700D02*
X18477700Y-10349700D01*
X18477700Y-10249700D02*
X18377700Y-10349700D01*
X18477700Y-10299700D02*
G75*
G02*
X18377700Y-10299700I-50000J0D01*
G01*
X18377700Y-10299700D02*
G75*
G02*
X18477700Y-10299700I50000J0D01*
G01*
X18377700Y-10503700D02*
X18477700Y-10603700D01*
X18477700Y-10503700D02*
X18377700Y-10603700D01*
X18477700Y-10553700D02*
G75*
G02*
X18377700Y-10553700I-50000J0D01*
G01*
X18377700Y-10553700D02*
G75*
G02*
X18477700Y-10553700I50000J0D01*
G01*
X18377700Y-10757700D02*
X18477700Y-10857700D01*
X18477700Y-10757700D02*
X18377700Y-10857700D01*
X18477700Y-10807700D02*
G75*
G02*
X18377700Y-10807700I-50000J0D01*
G01*
X18377700Y-10807700D02*
G75*
G02*
X18477700Y-10807700I50000J0D01*
G01*
X18377700Y-11011700D02*
X18477700Y-11111700D01*
X18477700Y-11011700D02*
X18377700Y-11111700D01*
X18477700Y-11061700D02*
G75*
G02*
X18377700Y-11061700I-50000J0D01*
G01*
X18377700Y-11061700D02*
G75*
G02*
X18477700Y-11061700I50000J0D01*
G01*
X18377700Y-11265700D02*
X18477700Y-11365700D01*
X18477700Y-11265700D02*
X18377700Y-11365700D01*
X18477700Y-11315700D02*
G75*
G02*
X18377700Y-11315700I-50000J0D01*
G01*
X18377700Y-11315700D02*
G75*
G02*
X18477700Y-11315700I50000J0D01*
G01*
X18377700Y-11519700D02*
X18477700Y-11619700D01*
X18477700Y-11519700D02*
X18377700Y-11619700D01*
X18477700Y-11569700D02*
G75*
G02*
X18377700Y-11569700I-50000J0D01*
G01*
X18377700Y-11569700D02*
G75*
G02*
X18477700Y-11569700I50000J0D01*
G01*
X18377700Y-11773700D02*
X18477700Y-11873700D01*
X18477700Y-11773700D02*
X18377700Y-11873700D01*
X18477700Y-11823700D02*
G75*
G02*
X18377700Y-11823700I-50000J0D01*
G01*
X18377700Y-11823700D02*
G75*
G02*
X18477700Y-11823700I50000J0D01*
G01*
X19267350Y-10337900D02*
X19367350Y-10437900D01*
X19367350Y-10337900D02*
X19267350Y-10437900D01*
X19367350Y-10387900D02*
G75*
G02*
X19267350Y-10387900I-50000J0D01*
G01*
X19267350Y-10387900D02*
G75*
G02*
X19367350Y-10387900I50000J0D01*
G01*
X19267350Y-10566900D02*
X19367350Y-10666900D01*
X19367350Y-10566900D02*
X19267350Y-10666900D01*
X19367350Y-10616900D02*
G75*
G02*
X19267350Y-10616900I-50000J0D01*
G01*
X19267350Y-10616900D02*
G75*
G02*
X19367350Y-10616900I50000J0D01*
G01*
X19267350Y-10795900D02*
X19367350Y-10895900D01*
X19367350Y-10795900D02*
X19267350Y-10895900D01*
X19367350Y-10845900D02*
G75*
G02*
X19267350Y-10845900I-50000J0D01*
G01*
X19267350Y-10845900D02*
G75*
G02*
X19367350Y-10845900I50000J0D01*
G01*
X19267350Y-11024900D02*
X19367350Y-11124900D01*
X19367350Y-11024900D02*
X19267350Y-11124900D01*
X19367350Y-11074900D02*
G75*
G02*
X19267350Y-11074900I-50000J0D01*
G01*
X19267350Y-11074900D02*
G75*
G02*
X19367350Y-11074900I50000J0D01*
G01*
X19267350Y-11253900D02*
X19367350Y-11353900D01*
X19367350Y-11253900D02*
X19267350Y-11353900D01*
X19367350Y-11303900D02*
G75*
G02*
X19267350Y-11303900I-50000J0D01*
G01*
X19267350Y-11303900D02*
G75*
G02*
X19367350Y-11303900I50000J0D01*
G01*
X19521350Y-10223400D02*
X19621350Y-10323400D01*
X19621350Y-10223400D02*
X19521350Y-10323400D01*
X19621350Y-10273400D02*
G75*
G02*
X19521350Y-10273400I-50000J0D01*
G01*
X19521350Y-10273400D02*
G75*
G02*
X19621350Y-10273400I50000J0D01*
G01*
X19521350Y-10452400D02*
X19621350Y-10552400D01*
X19621350Y-10452400D02*
X19521350Y-10552400D01*
X19621350Y-10502400D02*
G75*
G02*
X19521350Y-10502400I-50000J0D01*
G01*
X19521350Y-10502400D02*
G75*
G02*
X19621350Y-10502400I50000J0D01*
G01*
X19521350Y-10681400D02*
X19621350Y-10781400D01*
X19621350Y-10681400D02*
X19521350Y-10781400D01*
X19621350Y-10731400D02*
G75*
G02*
X19521350Y-10731400I-50000J0D01*
G01*
X19521350Y-10731400D02*
G75*
G02*
X19621350Y-10731400I50000J0D01*
G01*
X19521350Y-10910400D02*
X19621350Y-11010400D01*
X19621350Y-10910400D02*
X19521350Y-11010400D01*
X19621350Y-10960400D02*
G75*
G02*
X19521350Y-10960400I-50000J0D01*
G01*
X19521350Y-10960400D02*
G75*
G02*
X19621350Y-10960400I50000J0D01*
G01*
X19521350Y-11139400D02*
X19621350Y-11239400D01*
X19621350Y-11139400D02*
X19521350Y-11239400D01*
X19621350Y-11189400D02*
G75*
G02*
X19521350Y-11189400I-50000J0D01*
G01*
X19521350Y-11189400D02*
G75*
G02*
X19621350Y-11189400I50000J0D01*
G01*
X19775350Y-10337900D02*
X19875350Y-10437900D01*
X19875350Y-10337900D02*
X19775350Y-10437900D01*
X19875350Y-10387900D02*
G75*
G02*
X19775350Y-10387900I-50000J0D01*
G01*
X19775350Y-10387900D02*
G75*
G02*
X19875350Y-10387900I50000J0D01*
G01*
X19775350Y-10566900D02*
X19875350Y-10666900D01*
X19875350Y-10566900D02*
X19775350Y-10666900D01*
X19875350Y-10616900D02*
G75*
G02*
X19775350Y-10616900I-50000J0D01*
G01*
X19775350Y-10616900D02*
G75*
G02*
X19875350Y-10616900I50000J0D01*
G01*
X19775350Y-10795900D02*
X19875350Y-10895900D01*
X19875350Y-10795900D02*
X19775350Y-10895900D01*
X19875350Y-10845900D02*
G75*
G02*
X19775350Y-10845900I-50000J0D01*
G01*
X19775350Y-10845900D02*
G75*
G02*
X19875350Y-10845900I50000J0D01*
G01*
X19775350Y-11024900D02*
X19875350Y-11124900D01*
X19875350Y-11024900D02*
X19775350Y-11124900D01*
X19875350Y-11074900D02*
G75*
G02*
X19775350Y-11074900I-50000J0D01*
G01*
X19775350Y-11074900D02*
G75*
G02*
X19875350Y-11074900I50000J0D01*
G01*
X19775350Y-11253900D02*
X19875350Y-11353900D01*
X19875350Y-11253900D02*
X19775350Y-11353900D01*
X19875350Y-11303900D02*
G75*
G02*
X19775350Y-11303900I-50000J0D01*
G01*
X19775350Y-11303900D02*
G75*
G02*
X19875350Y-11303900I50000J0D01*
G01*
D13*
X10772000Y-7089000D02*
X11072000Y-7389000D01*
X11072000Y-7089000D02*
X10772000Y-7389000D01*
X10922000Y-7089000D02*
X10922000Y-7389000D01*
X10772000Y-7239000D02*
X11072000Y-7239000D01*
X10772000Y-13693000D02*
X11072000Y-13993000D01*
X11072000Y-13693000D02*
X10772000Y-13993000D01*
X10922000Y-13693000D02*
X10922000Y-13993000D01*
X10772000Y-13843000D02*
X11072000Y-13843000D01*
X19408000Y-7089000D02*
X19708000Y-7389000D01*
X19708000Y-7089000D02*
X19408000Y-7389000D01*
X19558000Y-7089000D02*
X19558000Y-7389000D01*
X19408000Y-7239000D02*
X19708000Y-7239000D01*
X19408000Y-13705700D02*
X19708000Y-14005700D01*
X19708000Y-13705700D02*
X19408000Y-14005700D01*
X19558000Y-13705700D02*
X19558000Y-14005700D01*
X19408000Y-13855700D02*
X19708000Y-13855700D01*
D14*
X19411350Y-9409400D02*
X19731350Y-9729400D01*
X19731350Y-9409400D02*
X19411350Y-9729400D01*
X19684488Y-9682538D02*
X19684488Y-9456262D01*
X19458212Y-9456262D01*
X19458212Y-9682538D01*
X19684488Y-9682538D01*
X19411350Y-11909400D02*
X19731350Y-12229400D01*
X19731350Y-11909400D02*
X19411350Y-12229400D01*
X19684488Y-12182538D02*
X19684488Y-11956262D01*
X19458212Y-11956262D01*
X19458212Y-12182538D01*
X19684488Y-12182538D01*
D11*
X10418277Y-14918984D02*
X10418277Y-14718984D01*
X10418277Y-14718984D02*
X10465896Y-14718984D01*
X10465896Y-14718984D02*
X10494467Y-14728508D01*
X10494467Y-14728508D02*
X10513515Y-14747555D01*
X10513515Y-14747555D02*
X10523039Y-14766603D01*
X10523039Y-14766603D02*
X10532563Y-14804698D01*
X10532563Y-14804698D02*
X10532563Y-14833269D01*
X10532563Y-14833269D02*
X10523039Y-14871365D01*
X10523039Y-14871365D02*
X10513515Y-14890412D01*
X10513515Y-14890412D02*
X10494467Y-14909460D01*
X10494467Y-14909460D02*
X10465896Y-14918984D01*
X10465896Y-14918984D02*
X10418277Y-14918984D01*
X10618277Y-14918984D02*
X10618277Y-14785650D01*
X10618277Y-14823746D02*
X10627801Y-14804698D01*
X10627801Y-14804698D02*
X10637324Y-14795174D01*
X10637324Y-14795174D02*
X10656372Y-14785650D01*
X10656372Y-14785650D02*
X10675420Y-14785650D01*
X10742086Y-14918984D02*
X10742086Y-14785650D01*
X10742086Y-14718984D02*
X10732563Y-14728508D01*
X10732563Y-14728508D02*
X10742086Y-14738031D01*
X10742086Y-14738031D02*
X10751610Y-14728508D01*
X10751610Y-14728508D02*
X10742086Y-14718984D01*
X10742086Y-14718984D02*
X10742086Y-14738031D01*
X10865896Y-14918984D02*
X10846848Y-14909460D01*
X10846848Y-14909460D02*
X10837324Y-14890412D01*
X10837324Y-14890412D02*
X10837324Y-14718984D01*
X10970658Y-14918984D02*
X10951610Y-14909460D01*
X10951610Y-14909460D02*
X10942086Y-14890412D01*
X10942086Y-14890412D02*
X10942086Y-14718984D01*
X11199229Y-14918984D02*
X11199229Y-14718984D01*
X11199229Y-14718984D02*
X11265896Y-14861841D01*
X11265896Y-14861841D02*
X11332562Y-14718984D01*
X11332562Y-14718984D02*
X11332562Y-14918984D01*
X11513515Y-14918984D02*
X11513515Y-14814222D01*
X11513515Y-14814222D02*
X11503991Y-14795174D01*
X11503991Y-14795174D02*
X11484943Y-14785650D01*
X11484943Y-14785650D02*
X11446848Y-14785650D01*
X11446848Y-14785650D02*
X11427801Y-14795174D01*
X11513515Y-14909460D02*
X11494467Y-14918984D01*
X11494467Y-14918984D02*
X11446848Y-14918984D01*
X11446848Y-14918984D02*
X11427801Y-14909460D01*
X11427801Y-14909460D02*
X11418277Y-14890412D01*
X11418277Y-14890412D02*
X11418277Y-14871365D01*
X11418277Y-14871365D02*
X11427801Y-14852317D01*
X11427801Y-14852317D02*
X11446848Y-14842793D01*
X11446848Y-14842793D02*
X11494467Y-14842793D01*
X11494467Y-14842793D02*
X11513515Y-14833269D01*
X11608753Y-14785650D02*
X11608753Y-14985650D01*
X11608753Y-14795174D02*
X11627801Y-14785650D01*
X11627801Y-14785650D02*
X11665896Y-14785650D01*
X11665896Y-14785650D02*
X11684943Y-14795174D01*
X11684943Y-14795174D02*
X11694467Y-14804698D01*
X11694467Y-14804698D02*
X11703991Y-14823746D01*
X11703991Y-14823746D02*
X11703991Y-14880888D01*
X11703991Y-14880888D02*
X11694467Y-14899936D01*
X11694467Y-14899936D02*
X11684943Y-14909460D01*
X11684943Y-14909460D02*
X11665896Y-14918984D01*
X11665896Y-14918984D02*
X11627801Y-14918984D01*
X11627801Y-14918984D02*
X11608753Y-14909460D01*
X11789705Y-14899936D02*
X11799229Y-14909460D01*
X11799229Y-14909460D02*
X11789705Y-14918984D01*
X11789705Y-14918984D02*
X11780182Y-14909460D01*
X11780182Y-14909460D02*
X11789705Y-14899936D01*
X11789705Y-14899936D02*
X11789705Y-14918984D01*
X11789705Y-14795174D02*
X11799229Y-14804698D01*
X11799229Y-14804698D02*
X11789705Y-14814222D01*
X11789705Y-14814222D02*
X11780182Y-14804698D01*
X11780182Y-14804698D02*
X11789705Y-14795174D01*
X11789705Y-14795174D02*
X11789705Y-14814222D01*
D12*
X10137180Y-15237340D02*
X10157500Y-15257660D01*
X10157500Y-15237340D02*
X10137180Y-15257660D01*
D11*
X10456372Y-15138984D02*
X10475420Y-15138984D01*
X10475420Y-15138984D02*
X10494467Y-15148508D01*
X10494467Y-15148508D02*
X10503991Y-15158031D01*
X10503991Y-15158031D02*
X10513515Y-15177079D01*
X10513515Y-15177079D02*
X10523039Y-15215174D01*
X10523039Y-15215174D02*
X10523039Y-15262793D01*
X10523039Y-15262793D02*
X10513515Y-15300888D01*
X10513515Y-15300888D02*
X10503991Y-15319936D01*
X10503991Y-15319936D02*
X10494467Y-15329460D01*
X10494467Y-15329460D02*
X10475420Y-15338984D01*
X10475420Y-15338984D02*
X10456372Y-15338984D01*
X10456372Y-15338984D02*
X10437324Y-15329460D01*
X10437324Y-15329460D02*
X10427801Y-15319936D01*
X10427801Y-15319936D02*
X10418277Y-15300888D01*
X10418277Y-15300888D02*
X10408753Y-15262793D01*
X10408753Y-15262793D02*
X10408753Y-15215174D01*
X10408753Y-15215174D02*
X10418277Y-15177079D01*
X10418277Y-15177079D02*
X10427801Y-15158031D01*
X10427801Y-15158031D02*
X10437324Y-15148508D01*
X10437324Y-15148508D02*
X10456372Y-15138984D01*
X10608753Y-15319936D02*
X10618277Y-15329460D01*
X10618277Y-15329460D02*
X10608753Y-15338984D01*
X10608753Y-15338984D02*
X10599229Y-15329460D01*
X10599229Y-15329460D02*
X10608753Y-15319936D01*
X10608753Y-15319936D02*
X10608753Y-15338984D01*
X10694467Y-15158031D02*
X10703991Y-15148508D01*
X10703991Y-15148508D02*
X10723039Y-15138984D01*
X10723039Y-15138984D02*
X10770658Y-15138984D01*
X10770658Y-15138984D02*
X10789705Y-15148508D01*
X10789705Y-15148508D02*
X10799229Y-15158031D01*
X10799229Y-15158031D02*
X10808753Y-15177079D01*
X10808753Y-15177079D02*
X10808753Y-15196127D01*
X10808753Y-15196127D02*
X10799229Y-15224698D01*
X10799229Y-15224698D02*
X10684944Y-15338984D01*
X10684944Y-15338984D02*
X10808753Y-15338984D01*
X10932563Y-15138984D02*
X10951610Y-15138984D01*
X10951610Y-15138984D02*
X10970658Y-15148508D01*
X10970658Y-15148508D02*
X10980182Y-15158031D01*
X10980182Y-15158031D02*
X10989705Y-15177079D01*
X10989705Y-15177079D02*
X10999229Y-15215174D01*
X10999229Y-15215174D02*
X10999229Y-15262793D01*
X10999229Y-15262793D02*
X10989705Y-15300888D01*
X10989705Y-15300888D02*
X10980182Y-15319936D01*
X10980182Y-15319936D02*
X10970658Y-15329460D01*
X10970658Y-15329460D02*
X10951610Y-15338984D01*
X10951610Y-15338984D02*
X10932563Y-15338984D01*
X10932563Y-15338984D02*
X10913515Y-15329460D01*
X10913515Y-15329460D02*
X10903991Y-15319936D01*
X10903991Y-15319936D02*
X10894467Y-15300888D01*
X10894467Y-15300888D02*
X10884944Y-15262793D01*
X10884944Y-15262793D02*
X10884944Y-15215174D01*
X10884944Y-15215174D02*
X10894467Y-15177079D01*
X10894467Y-15177079D02*
X10903991Y-15158031D01*
X10903991Y-15158031D02*
X10913515Y-15148508D01*
X10913515Y-15148508D02*
X10932563Y-15138984D01*
X11065896Y-15138984D02*
X11189705Y-15138984D01*
X11189705Y-15138984D02*
X11123039Y-15215174D01*
X11123039Y-15215174D02*
X11151610Y-15215174D01*
X11151610Y-15215174D02*
X11170658Y-15224698D01*
X11170658Y-15224698D02*
X11180182Y-15234222D01*
X11180182Y-15234222D02*
X11189705Y-15253269D01*
X11189705Y-15253269D02*
X11189705Y-15300888D01*
X11189705Y-15300888D02*
X11180182Y-15319936D01*
X11180182Y-15319936D02*
X11170658Y-15329460D01*
X11170658Y-15329460D02*
X11151610Y-15338984D01*
X11151610Y-15338984D02*
X11094467Y-15338984D01*
X11094467Y-15338984D02*
X11075420Y-15329460D01*
X11075420Y-15329460D02*
X11065896Y-15319936D01*
X11275420Y-15338984D02*
X11275420Y-15205650D01*
X11275420Y-15224698D02*
X11284943Y-15215174D01*
X11284943Y-15215174D02*
X11303991Y-15205650D01*
X11303991Y-15205650D02*
X11332563Y-15205650D01*
X11332563Y-15205650D02*
X11351610Y-15215174D01*
X11351610Y-15215174D02*
X11361134Y-15234222D01*
X11361134Y-15234222D02*
X11361134Y-15338984D01*
X11361134Y-15234222D02*
X11370658Y-15215174D01*
X11370658Y-15215174D02*
X11389705Y-15205650D01*
X11389705Y-15205650D02*
X11418277Y-15205650D01*
X11418277Y-15205650D02*
X11437324Y-15215174D01*
X11437324Y-15215174D02*
X11446848Y-15234222D01*
X11446848Y-15234222D02*
X11446848Y-15338984D01*
X11542086Y-15338984D02*
X11542086Y-15205650D01*
X11542086Y-15224698D02*
X11551610Y-15215174D01*
X11551610Y-15215174D02*
X11570658Y-15205650D01*
X11570658Y-15205650D02*
X11599229Y-15205650D01*
X11599229Y-15205650D02*
X11618277Y-15215174D01*
X11618277Y-15215174D02*
X11627801Y-15234222D01*
X11627801Y-15234222D02*
X11627801Y-15338984D01*
X11627801Y-15234222D02*
X11637324Y-15215174D01*
X11637324Y-15215174D02*
X11656372Y-15205650D01*
X11656372Y-15205650D02*
X11684943Y-15205650D01*
X11684943Y-15205650D02*
X11703991Y-15215174D01*
X11703991Y-15215174D02*
X11713515Y-15234222D01*
X11713515Y-15234222D02*
X11713515Y-15338984D01*
X12103991Y-15129460D02*
X11932563Y-15386603D01*
X12361134Y-15138984D02*
X12380182Y-15138984D01*
X12380182Y-15138984D02*
X12399229Y-15148508D01*
X12399229Y-15148508D02*
X12408753Y-15158031D01*
X12408753Y-15158031D02*
X12418277Y-15177079D01*
X12418277Y-15177079D02*
X12427801Y-15215174D01*
X12427801Y-15215174D02*
X12427801Y-15262793D01*
X12427801Y-15262793D02*
X12418277Y-15300888D01*
X12418277Y-15300888D02*
X12408753Y-15319936D01*
X12408753Y-15319936D02*
X12399229Y-15329460D01*
X12399229Y-15329460D02*
X12380182Y-15338984D01*
X12380182Y-15338984D02*
X12361134Y-15338984D01*
X12361134Y-15338984D02*
X12342086Y-15329460D01*
X12342086Y-15329460D02*
X12332563Y-15319936D01*
X12332563Y-15319936D02*
X12323039Y-15300888D01*
X12323039Y-15300888D02*
X12313515Y-15262793D01*
X12313515Y-15262793D02*
X12313515Y-15215174D01*
X12313515Y-15215174D02*
X12323039Y-15177079D01*
X12323039Y-15177079D02*
X12332563Y-15158031D01*
X12332563Y-15158031D02*
X12342086Y-15148508D01*
X12342086Y-15148508D02*
X12361134Y-15138984D01*
X12513515Y-15319936D02*
X12523039Y-15329460D01*
X12523039Y-15329460D02*
X12513515Y-15338984D01*
X12513515Y-15338984D02*
X12503991Y-15329460D01*
X12503991Y-15329460D02*
X12513515Y-15319936D01*
X12513515Y-15319936D02*
X12513515Y-15338984D01*
X12646848Y-15138984D02*
X12665896Y-15138984D01*
X12665896Y-15138984D02*
X12684944Y-15148508D01*
X12684944Y-15148508D02*
X12694467Y-15158031D01*
X12694467Y-15158031D02*
X12703991Y-15177079D01*
X12703991Y-15177079D02*
X12713515Y-15215174D01*
X12713515Y-15215174D02*
X12713515Y-15262793D01*
X12713515Y-15262793D02*
X12703991Y-15300888D01*
X12703991Y-15300888D02*
X12694467Y-15319936D01*
X12694467Y-15319936D02*
X12684944Y-15329460D01*
X12684944Y-15329460D02*
X12665896Y-15338984D01*
X12665896Y-15338984D02*
X12646848Y-15338984D01*
X12646848Y-15338984D02*
X12627801Y-15329460D01*
X12627801Y-15329460D02*
X12618277Y-15319936D01*
X12618277Y-15319936D02*
X12608753Y-15300888D01*
X12608753Y-15300888D02*
X12599229Y-15262793D01*
X12599229Y-15262793D02*
X12599229Y-15215174D01*
X12599229Y-15215174D02*
X12608753Y-15177079D01*
X12608753Y-15177079D02*
X12618277Y-15158031D01*
X12618277Y-15158031D02*
X12627801Y-15148508D01*
X12627801Y-15148508D02*
X12646848Y-15138984D01*
X12837325Y-15138984D02*
X12856372Y-15138984D01*
X12856372Y-15138984D02*
X12875420Y-15148508D01*
X12875420Y-15148508D02*
X12884944Y-15158031D01*
X12884944Y-15158031D02*
X12894467Y-15177079D01*
X12894467Y-15177079D02*
X12903991Y-15215174D01*
X12903991Y-15215174D02*
X12903991Y-15262793D01*
X12903991Y-15262793D02*
X12894467Y-15300888D01*
X12894467Y-15300888D02*
X12884944Y-15319936D01*
X12884944Y-15319936D02*
X12875420Y-15329460D01*
X12875420Y-15329460D02*
X12856372Y-15338984D01*
X12856372Y-15338984D02*
X12837325Y-15338984D01*
X12837325Y-15338984D02*
X12818277Y-15329460D01*
X12818277Y-15329460D02*
X12808753Y-15319936D01*
X12808753Y-15319936D02*
X12799229Y-15300888D01*
X12799229Y-15300888D02*
X12789706Y-15262793D01*
X12789706Y-15262793D02*
X12789706Y-15215174D01*
X12789706Y-15215174D02*
X12799229Y-15177079D01*
X12799229Y-15177079D02*
X12808753Y-15158031D01*
X12808753Y-15158031D02*
X12818277Y-15148508D01*
X12818277Y-15148508D02*
X12837325Y-15138984D01*
X13018277Y-15224698D02*
X12999229Y-15215174D01*
X12999229Y-15215174D02*
X12989706Y-15205650D01*
X12989706Y-15205650D02*
X12980182Y-15186603D01*
X12980182Y-15186603D02*
X12980182Y-15177079D01*
X12980182Y-15177079D02*
X12989706Y-15158031D01*
X12989706Y-15158031D02*
X12999229Y-15148508D01*
X12999229Y-15148508D02*
X13018277Y-15138984D01*
X13018277Y-15138984D02*
X13056372Y-15138984D01*
X13056372Y-15138984D02*
X13075420Y-15148508D01*
X13075420Y-15148508D02*
X13084944Y-15158031D01*
X13084944Y-15158031D02*
X13094467Y-15177079D01*
X13094467Y-15177079D02*
X13094467Y-15186603D01*
X13094467Y-15186603D02*
X13084944Y-15205650D01*
X13084944Y-15205650D02*
X13075420Y-15215174D01*
X13075420Y-15215174D02*
X13056372Y-15224698D01*
X13056372Y-15224698D02*
X13018277Y-15224698D01*
X13018277Y-15224698D02*
X12999229Y-15234222D01*
X12999229Y-15234222D02*
X12989706Y-15243746D01*
X12989706Y-15243746D02*
X12980182Y-15262793D01*
X12980182Y-15262793D02*
X12980182Y-15300888D01*
X12980182Y-15300888D02*
X12989706Y-15319936D01*
X12989706Y-15319936D02*
X12999229Y-15329460D01*
X12999229Y-15329460D02*
X13018277Y-15338984D01*
X13018277Y-15338984D02*
X13056372Y-15338984D01*
X13056372Y-15338984D02*
X13075420Y-15329460D01*
X13075420Y-15329460D02*
X13084944Y-15319936D01*
X13084944Y-15319936D02*
X13094467Y-15300888D01*
X13094467Y-15300888D02*
X13094467Y-15262793D01*
X13094467Y-15262793D02*
X13084944Y-15243746D01*
X13084944Y-15243746D02*
X13075420Y-15234222D01*
X13075420Y-15234222D02*
X13056372Y-15224698D01*
X13218277Y-15138984D02*
X13237325Y-15138984D01*
X13237325Y-15138984D02*
X13256372Y-15148508D01*
X13256372Y-15148508D02*
X13265896Y-15158031D01*
X13265896Y-15158031D02*
X13275420Y-15177079D01*
X13275420Y-15177079D02*
X13284944Y-15215174D01*
X13284944Y-15215174D02*
X13284944Y-15262793D01*
X13284944Y-15262793D02*
X13275420Y-15300888D01*
X13275420Y-15300888D02*
X13265896Y-15319936D01*
X13265896Y-15319936D02*
X13256372Y-15329460D01*
X13256372Y-15329460D02*
X13237325Y-15338984D01*
X13237325Y-15338984D02*
X13218277Y-15338984D01*
X13218277Y-15338984D02*
X13199229Y-15329460D01*
X13199229Y-15329460D02*
X13189706Y-15319936D01*
X13189706Y-15319936D02*
X13180182Y-15300888D01*
X13180182Y-15300888D02*
X13170658Y-15262793D01*
X13170658Y-15262793D02*
X13170658Y-15215174D01*
X13170658Y-15215174D02*
X13180182Y-15177079D01*
X13180182Y-15177079D02*
X13189706Y-15158031D01*
X13189706Y-15158031D02*
X13199229Y-15148508D01*
X13199229Y-15148508D02*
X13218277Y-15138984D01*
X13361134Y-15138984D02*
X13361134Y-15177079D01*
X13437325Y-15138984D02*
X13437325Y-15177079D01*
X13732563Y-15415174D02*
X13723039Y-15405650D01*
X13723039Y-15405650D02*
X13703991Y-15377079D01*
X13703991Y-15377079D02*
X13694468Y-15358031D01*
X13694468Y-15358031D02*
X13684944Y-15329460D01*
X13684944Y-15329460D02*
X13675420Y-15281841D01*
X13675420Y-15281841D02*
X13675420Y-15243746D01*
X13675420Y-15243746D02*
X13684944Y-15196127D01*
X13684944Y-15196127D02*
X13694468Y-15167555D01*
X13694468Y-15167555D02*
X13703991Y-15148508D01*
X13703991Y-15148508D02*
X13723039Y-15119936D01*
X13723039Y-15119936D02*
X13732563Y-15110412D01*
X13913515Y-15338984D02*
X13799229Y-15338984D01*
X13856372Y-15338984D02*
X13856372Y-15138984D01*
X13856372Y-15138984D02*
X13837325Y-15167555D01*
X13837325Y-15167555D02*
X13818277Y-15186603D01*
X13818277Y-15186603D02*
X13799229Y-15196127D01*
X14103991Y-15338984D02*
X13989706Y-15338984D01*
X14046848Y-15338984D02*
X14046848Y-15138984D01*
X14046848Y-15138984D02*
X14027801Y-15167555D01*
X14027801Y-15167555D02*
X14008753Y-15186603D01*
X14008753Y-15186603D02*
X13989706Y-15196127D01*
X14294468Y-15338984D02*
X14180182Y-15338984D01*
X14237325Y-15338984D02*
X14237325Y-15138984D01*
X14237325Y-15138984D02*
X14218277Y-15167555D01*
X14218277Y-15167555D02*
X14199229Y-15186603D01*
X14199229Y-15186603D02*
X14180182Y-15196127D01*
X14532563Y-15338984D02*
X14532563Y-15138984D01*
X14618277Y-15338984D02*
X14618277Y-15234222D01*
X14618277Y-15234222D02*
X14608753Y-15215174D01*
X14608753Y-15215174D02*
X14589706Y-15205650D01*
X14589706Y-15205650D02*
X14561134Y-15205650D01*
X14561134Y-15205650D02*
X14542087Y-15215174D01*
X14542087Y-15215174D02*
X14532563Y-15224698D01*
X14742087Y-15338984D02*
X14723039Y-15329460D01*
X14723039Y-15329460D02*
X14713515Y-15319936D01*
X14713515Y-15319936D02*
X14703991Y-15300888D01*
X14703991Y-15300888D02*
X14703991Y-15243746D01*
X14703991Y-15243746D02*
X14713515Y-15224698D01*
X14713515Y-15224698D02*
X14723039Y-15215174D01*
X14723039Y-15215174D02*
X14742087Y-15205650D01*
X14742087Y-15205650D02*
X14770658Y-15205650D01*
X14770658Y-15205650D02*
X14789706Y-15215174D01*
X14789706Y-15215174D02*
X14799230Y-15224698D01*
X14799230Y-15224698D02*
X14808753Y-15243746D01*
X14808753Y-15243746D02*
X14808753Y-15300888D01*
X14808753Y-15300888D02*
X14799230Y-15319936D01*
X14799230Y-15319936D02*
X14789706Y-15329460D01*
X14789706Y-15329460D02*
X14770658Y-15338984D01*
X14770658Y-15338984D02*
X14742087Y-15338984D01*
X14923039Y-15338984D02*
X14903991Y-15329460D01*
X14903991Y-15329460D02*
X14894468Y-15310412D01*
X14894468Y-15310412D02*
X14894468Y-15138984D01*
X15075420Y-15329460D02*
X15056372Y-15338984D01*
X15056372Y-15338984D02*
X15018277Y-15338984D01*
X15018277Y-15338984D02*
X14999230Y-15329460D01*
X14999230Y-15329460D02*
X14989706Y-15310412D01*
X14989706Y-15310412D02*
X14989706Y-15234222D01*
X14989706Y-15234222D02*
X14999230Y-15215174D01*
X14999230Y-15215174D02*
X15018277Y-15205650D01*
X15018277Y-15205650D02*
X15056372Y-15205650D01*
X15056372Y-15205650D02*
X15075420Y-15215174D01*
X15075420Y-15215174D02*
X15084944Y-15234222D01*
X15084944Y-15234222D02*
X15084944Y-15253269D01*
X15084944Y-15253269D02*
X14989706Y-15272317D01*
X15161134Y-15329460D02*
X15180182Y-15338984D01*
X15180182Y-15338984D02*
X15218277Y-15338984D01*
X15218277Y-15338984D02*
X15237325Y-15329460D01*
X15237325Y-15329460D02*
X15246849Y-15310412D01*
X15246849Y-15310412D02*
X15246849Y-15300888D01*
X15246849Y-15300888D02*
X15237325Y-15281841D01*
X15237325Y-15281841D02*
X15218277Y-15272317D01*
X15218277Y-15272317D02*
X15189706Y-15272317D01*
X15189706Y-15272317D02*
X15170658Y-15262793D01*
X15170658Y-15262793D02*
X15161134Y-15243746D01*
X15161134Y-15243746D02*
X15161134Y-15234222D01*
X15161134Y-15234222D02*
X15170658Y-15215174D01*
X15170658Y-15215174D02*
X15189706Y-15205650D01*
X15189706Y-15205650D02*
X15218277Y-15205650D01*
X15218277Y-15205650D02*
X15237325Y-15215174D01*
X15313515Y-15415174D02*
X15323039Y-15405650D01*
X15323039Y-15405650D02*
X15342087Y-15377079D01*
X15342087Y-15377079D02*
X15351611Y-15358031D01*
X15351611Y-15358031D02*
X15361134Y-15329460D01*
X15361134Y-15329460D02*
X15370658Y-15281841D01*
X15370658Y-15281841D02*
X15370658Y-15243746D01*
X15370658Y-15243746D02*
X15361134Y-15196127D01*
X15361134Y-15196127D02*
X15351611Y-15167555D01*
X15351611Y-15167555D02*
X15342087Y-15148508D01*
X15342087Y-15148508D02*
X15323039Y-15119936D01*
X15323039Y-15119936D02*
X15313515Y-15110412D01*
D12*
X10157500Y-15511500D02*
G75*
G02*
X10137180Y-15511500I-10160J0D01*
G01*
X10137180Y-15511500D02*
G75*
G02*
X10157500Y-15511500I10160J0D01*
G01*
D11*
X10456372Y-15402984D02*
X10475420Y-15402984D01*
X10475420Y-15402984D02*
X10494467Y-15412508D01*
X10494467Y-15412508D02*
X10503991Y-15422031D01*
X10503991Y-15422031D02*
X10513515Y-15441079D01*
X10513515Y-15441079D02*
X10523039Y-15479174D01*
X10523039Y-15479174D02*
X10523039Y-15526793D01*
X10523039Y-15526793D02*
X10513515Y-15564888D01*
X10513515Y-15564888D02*
X10503991Y-15583936D01*
X10503991Y-15583936D02*
X10494467Y-15593460D01*
X10494467Y-15593460D02*
X10475420Y-15602984D01*
X10475420Y-15602984D02*
X10456372Y-15602984D01*
X10456372Y-15602984D02*
X10437324Y-15593460D01*
X10437324Y-15593460D02*
X10427801Y-15583936D01*
X10427801Y-15583936D02*
X10418277Y-15564888D01*
X10418277Y-15564888D02*
X10408753Y-15526793D01*
X10408753Y-15526793D02*
X10408753Y-15479174D01*
X10408753Y-15479174D02*
X10418277Y-15441079D01*
X10418277Y-15441079D02*
X10427801Y-15422031D01*
X10427801Y-15422031D02*
X10437324Y-15412508D01*
X10437324Y-15412508D02*
X10456372Y-15402984D01*
X10608753Y-15583936D02*
X10618277Y-15593460D01*
X10618277Y-15593460D02*
X10608753Y-15602984D01*
X10608753Y-15602984D02*
X10599229Y-15593460D01*
X10599229Y-15593460D02*
X10608753Y-15583936D01*
X10608753Y-15583936D02*
X10608753Y-15602984D01*
X10694467Y-15422031D02*
X10703991Y-15412508D01*
X10703991Y-15412508D02*
X10723039Y-15402984D01*
X10723039Y-15402984D02*
X10770658Y-15402984D01*
X10770658Y-15402984D02*
X10789705Y-15412508D01*
X10789705Y-15412508D02*
X10799229Y-15422031D01*
X10799229Y-15422031D02*
X10808753Y-15441079D01*
X10808753Y-15441079D02*
X10808753Y-15460127D01*
X10808753Y-15460127D02*
X10799229Y-15488698D01*
X10799229Y-15488698D02*
X10684944Y-15602984D01*
X10684944Y-15602984D02*
X10808753Y-15602984D01*
X10932563Y-15402984D02*
X10951610Y-15402984D01*
X10951610Y-15402984D02*
X10970658Y-15412508D01*
X10970658Y-15412508D02*
X10980182Y-15422031D01*
X10980182Y-15422031D02*
X10989705Y-15441079D01*
X10989705Y-15441079D02*
X10999229Y-15479174D01*
X10999229Y-15479174D02*
X10999229Y-15526793D01*
X10999229Y-15526793D02*
X10989705Y-15564888D01*
X10989705Y-15564888D02*
X10980182Y-15583936D01*
X10980182Y-15583936D02*
X10970658Y-15593460D01*
X10970658Y-15593460D02*
X10951610Y-15602984D01*
X10951610Y-15602984D02*
X10932563Y-15602984D01*
X10932563Y-15602984D02*
X10913515Y-15593460D01*
X10913515Y-15593460D02*
X10903991Y-15583936D01*
X10903991Y-15583936D02*
X10894467Y-15564888D01*
X10894467Y-15564888D02*
X10884944Y-15526793D01*
X10884944Y-15526793D02*
X10884944Y-15479174D01*
X10884944Y-15479174D02*
X10894467Y-15441079D01*
X10894467Y-15441079D02*
X10903991Y-15422031D01*
X10903991Y-15422031D02*
X10913515Y-15412508D01*
X10913515Y-15412508D02*
X10932563Y-15402984D01*
X11065896Y-15402984D02*
X11189705Y-15402984D01*
X11189705Y-15402984D02*
X11123039Y-15479174D01*
X11123039Y-15479174D02*
X11151610Y-15479174D01*
X11151610Y-15479174D02*
X11170658Y-15488698D01*
X11170658Y-15488698D02*
X11180182Y-15498222D01*
X11180182Y-15498222D02*
X11189705Y-15517269D01*
X11189705Y-15517269D02*
X11189705Y-15564888D01*
X11189705Y-15564888D02*
X11180182Y-15583936D01*
X11180182Y-15583936D02*
X11170658Y-15593460D01*
X11170658Y-15593460D02*
X11151610Y-15602984D01*
X11151610Y-15602984D02*
X11094467Y-15602984D01*
X11094467Y-15602984D02*
X11075420Y-15593460D01*
X11075420Y-15593460D02*
X11065896Y-15583936D01*
X11275420Y-15602984D02*
X11275420Y-15469650D01*
X11275420Y-15488698D02*
X11284943Y-15479174D01*
X11284943Y-15479174D02*
X11303991Y-15469650D01*
X11303991Y-15469650D02*
X11332563Y-15469650D01*
X11332563Y-15469650D02*
X11351610Y-15479174D01*
X11351610Y-15479174D02*
X11361134Y-15498222D01*
X11361134Y-15498222D02*
X11361134Y-15602984D01*
X11361134Y-15498222D02*
X11370658Y-15479174D01*
X11370658Y-15479174D02*
X11389705Y-15469650D01*
X11389705Y-15469650D02*
X11418277Y-15469650D01*
X11418277Y-15469650D02*
X11437324Y-15479174D01*
X11437324Y-15479174D02*
X11446848Y-15498222D01*
X11446848Y-15498222D02*
X11446848Y-15602984D01*
X11542086Y-15602984D02*
X11542086Y-15469650D01*
X11542086Y-15488698D02*
X11551610Y-15479174D01*
X11551610Y-15479174D02*
X11570658Y-15469650D01*
X11570658Y-15469650D02*
X11599229Y-15469650D01*
X11599229Y-15469650D02*
X11618277Y-15479174D01*
X11618277Y-15479174D02*
X11627801Y-15498222D01*
X11627801Y-15498222D02*
X11627801Y-15602984D01*
X11627801Y-15498222D02*
X11637324Y-15479174D01*
X11637324Y-15479174D02*
X11656372Y-15469650D01*
X11656372Y-15469650D02*
X11684943Y-15469650D01*
X11684943Y-15469650D02*
X11703991Y-15479174D01*
X11703991Y-15479174D02*
X11713515Y-15498222D01*
X11713515Y-15498222D02*
X11713515Y-15602984D01*
X12103991Y-15393460D02*
X11932563Y-15650603D01*
X12361134Y-15402984D02*
X12380182Y-15402984D01*
X12380182Y-15402984D02*
X12399229Y-15412508D01*
X12399229Y-15412508D02*
X12408753Y-15422031D01*
X12408753Y-15422031D02*
X12418277Y-15441079D01*
X12418277Y-15441079D02*
X12427801Y-15479174D01*
X12427801Y-15479174D02*
X12427801Y-15526793D01*
X12427801Y-15526793D02*
X12418277Y-15564888D01*
X12418277Y-15564888D02*
X12408753Y-15583936D01*
X12408753Y-15583936D02*
X12399229Y-15593460D01*
X12399229Y-15593460D02*
X12380182Y-15602984D01*
X12380182Y-15602984D02*
X12361134Y-15602984D01*
X12361134Y-15602984D02*
X12342086Y-15593460D01*
X12342086Y-15593460D02*
X12332563Y-15583936D01*
X12332563Y-15583936D02*
X12323039Y-15564888D01*
X12323039Y-15564888D02*
X12313515Y-15526793D01*
X12313515Y-15526793D02*
X12313515Y-15479174D01*
X12313515Y-15479174D02*
X12323039Y-15441079D01*
X12323039Y-15441079D02*
X12332563Y-15422031D01*
X12332563Y-15422031D02*
X12342086Y-15412508D01*
X12342086Y-15412508D02*
X12361134Y-15402984D01*
X12513515Y-15583936D02*
X12523039Y-15593460D01*
X12523039Y-15593460D02*
X12513515Y-15602984D01*
X12513515Y-15602984D02*
X12503991Y-15593460D01*
X12503991Y-15593460D02*
X12513515Y-15583936D01*
X12513515Y-15583936D02*
X12513515Y-15602984D01*
X12646848Y-15402984D02*
X12665896Y-15402984D01*
X12665896Y-15402984D02*
X12684944Y-15412508D01*
X12684944Y-15412508D02*
X12694467Y-15422031D01*
X12694467Y-15422031D02*
X12703991Y-15441079D01*
X12703991Y-15441079D02*
X12713515Y-15479174D01*
X12713515Y-15479174D02*
X12713515Y-15526793D01*
X12713515Y-15526793D02*
X12703991Y-15564888D01*
X12703991Y-15564888D02*
X12694467Y-15583936D01*
X12694467Y-15583936D02*
X12684944Y-15593460D01*
X12684944Y-15593460D02*
X12665896Y-15602984D01*
X12665896Y-15602984D02*
X12646848Y-15602984D01*
X12646848Y-15602984D02*
X12627801Y-15593460D01*
X12627801Y-15593460D02*
X12618277Y-15583936D01*
X12618277Y-15583936D02*
X12608753Y-15564888D01*
X12608753Y-15564888D02*
X12599229Y-15526793D01*
X12599229Y-15526793D02*
X12599229Y-15479174D01*
X12599229Y-15479174D02*
X12608753Y-15441079D01*
X12608753Y-15441079D02*
X12618277Y-15422031D01*
X12618277Y-15422031D02*
X12627801Y-15412508D01*
X12627801Y-15412508D02*
X12646848Y-15402984D01*
X12837325Y-15402984D02*
X12856372Y-15402984D01*
X12856372Y-15402984D02*
X12875420Y-15412508D01*
X12875420Y-15412508D02*
X12884944Y-15422031D01*
X12884944Y-15422031D02*
X12894467Y-15441079D01*
X12894467Y-15441079D02*
X12903991Y-15479174D01*
X12903991Y-15479174D02*
X12903991Y-15526793D01*
X12903991Y-15526793D02*
X12894467Y-15564888D01*
X12894467Y-15564888D02*
X12884944Y-15583936D01*
X12884944Y-15583936D02*
X12875420Y-15593460D01*
X12875420Y-15593460D02*
X12856372Y-15602984D01*
X12856372Y-15602984D02*
X12837325Y-15602984D01*
X12837325Y-15602984D02*
X12818277Y-15593460D01*
X12818277Y-15593460D02*
X12808753Y-15583936D01*
X12808753Y-15583936D02*
X12799229Y-15564888D01*
X12799229Y-15564888D02*
X12789706Y-15526793D01*
X12789706Y-15526793D02*
X12789706Y-15479174D01*
X12789706Y-15479174D02*
X12799229Y-15441079D01*
X12799229Y-15441079D02*
X12808753Y-15422031D01*
X12808753Y-15422031D02*
X12818277Y-15412508D01*
X12818277Y-15412508D02*
X12837325Y-15402984D01*
X13018277Y-15488698D02*
X12999229Y-15479174D01*
X12999229Y-15479174D02*
X12989706Y-15469650D01*
X12989706Y-15469650D02*
X12980182Y-15450603D01*
X12980182Y-15450603D02*
X12980182Y-15441079D01*
X12980182Y-15441079D02*
X12989706Y-15422031D01*
X12989706Y-15422031D02*
X12999229Y-15412508D01*
X12999229Y-15412508D02*
X13018277Y-15402984D01*
X13018277Y-15402984D02*
X13056372Y-15402984D01*
X13056372Y-15402984D02*
X13075420Y-15412508D01*
X13075420Y-15412508D02*
X13084944Y-15422031D01*
X13084944Y-15422031D02*
X13094467Y-15441079D01*
X13094467Y-15441079D02*
X13094467Y-15450603D01*
X13094467Y-15450603D02*
X13084944Y-15469650D01*
X13084944Y-15469650D02*
X13075420Y-15479174D01*
X13075420Y-15479174D02*
X13056372Y-15488698D01*
X13056372Y-15488698D02*
X13018277Y-15488698D01*
X13018277Y-15488698D02*
X12999229Y-15498222D01*
X12999229Y-15498222D02*
X12989706Y-15507746D01*
X12989706Y-15507746D02*
X12980182Y-15526793D01*
X12980182Y-15526793D02*
X12980182Y-15564888D01*
X12980182Y-15564888D02*
X12989706Y-15583936D01*
X12989706Y-15583936D02*
X12999229Y-15593460D01*
X12999229Y-15593460D02*
X13018277Y-15602984D01*
X13018277Y-15602984D02*
X13056372Y-15602984D01*
X13056372Y-15602984D02*
X13075420Y-15593460D01*
X13075420Y-15593460D02*
X13084944Y-15583936D01*
X13084944Y-15583936D02*
X13094467Y-15564888D01*
X13094467Y-15564888D02*
X13094467Y-15526793D01*
X13094467Y-15526793D02*
X13084944Y-15507746D01*
X13084944Y-15507746D02*
X13075420Y-15498222D01*
X13075420Y-15498222D02*
X13056372Y-15488698D01*
X13218277Y-15402984D02*
X13237325Y-15402984D01*
X13237325Y-15402984D02*
X13256372Y-15412508D01*
X13256372Y-15412508D02*
X13265896Y-15422031D01*
X13265896Y-15422031D02*
X13275420Y-15441079D01*
X13275420Y-15441079D02*
X13284944Y-15479174D01*
X13284944Y-15479174D02*
X13284944Y-15526793D01*
X13284944Y-15526793D02*
X13275420Y-15564888D01*
X13275420Y-15564888D02*
X13265896Y-15583936D01*
X13265896Y-15583936D02*
X13256372Y-15593460D01*
X13256372Y-15593460D02*
X13237325Y-15602984D01*
X13237325Y-15602984D02*
X13218277Y-15602984D01*
X13218277Y-15602984D02*
X13199229Y-15593460D01*
X13199229Y-15593460D02*
X13189706Y-15583936D01*
X13189706Y-15583936D02*
X13180182Y-15564888D01*
X13180182Y-15564888D02*
X13170658Y-15526793D01*
X13170658Y-15526793D02*
X13170658Y-15479174D01*
X13170658Y-15479174D02*
X13180182Y-15441079D01*
X13180182Y-15441079D02*
X13189706Y-15422031D01*
X13189706Y-15422031D02*
X13199229Y-15412508D01*
X13199229Y-15412508D02*
X13218277Y-15402984D01*
X13361134Y-15402984D02*
X13361134Y-15441079D01*
X13437325Y-15402984D02*
X13437325Y-15441079D01*
X13732563Y-15679174D02*
X13723039Y-15669650D01*
X13723039Y-15669650D02*
X13703991Y-15641079D01*
X13703991Y-15641079D02*
X13694468Y-15622031D01*
X13694468Y-15622031D02*
X13684944Y-15593460D01*
X13684944Y-15593460D02*
X13675420Y-15545841D01*
X13675420Y-15545841D02*
X13675420Y-15507746D01*
X13675420Y-15507746D02*
X13684944Y-15460127D01*
X13684944Y-15460127D02*
X13694468Y-15431555D01*
X13694468Y-15431555D02*
X13703991Y-15412508D01*
X13703991Y-15412508D02*
X13723039Y-15383936D01*
X13723039Y-15383936D02*
X13732563Y-15374412D01*
X13837325Y-15488698D02*
X13818277Y-15479174D01*
X13818277Y-15479174D02*
X13808753Y-15469650D01*
X13808753Y-15469650D02*
X13799229Y-15450603D01*
X13799229Y-15450603D02*
X13799229Y-15441079D01*
X13799229Y-15441079D02*
X13808753Y-15422031D01*
X13808753Y-15422031D02*
X13818277Y-15412508D01*
X13818277Y-15412508D02*
X13837325Y-15402984D01*
X13837325Y-15402984D02*
X13875420Y-15402984D01*
X13875420Y-15402984D02*
X13894468Y-15412508D01*
X13894468Y-15412508D02*
X13903991Y-15422031D01*
X13903991Y-15422031D02*
X13913515Y-15441079D01*
X13913515Y-15441079D02*
X13913515Y-15450603D01*
X13913515Y-15450603D02*
X13903991Y-15469650D01*
X13903991Y-15469650D02*
X13894468Y-15479174D01*
X13894468Y-15479174D02*
X13875420Y-15488698D01*
X13875420Y-15488698D02*
X13837325Y-15488698D01*
X13837325Y-15488698D02*
X13818277Y-15498222D01*
X13818277Y-15498222D02*
X13808753Y-15507746D01*
X13808753Y-15507746D02*
X13799229Y-15526793D01*
X13799229Y-15526793D02*
X13799229Y-15564888D01*
X13799229Y-15564888D02*
X13808753Y-15583936D01*
X13808753Y-15583936D02*
X13818277Y-15593460D01*
X13818277Y-15593460D02*
X13837325Y-15602984D01*
X13837325Y-15602984D02*
X13875420Y-15602984D01*
X13875420Y-15602984D02*
X13894468Y-15593460D01*
X13894468Y-15593460D02*
X13903991Y-15583936D01*
X13903991Y-15583936D02*
X13913515Y-15564888D01*
X13913515Y-15564888D02*
X13913515Y-15526793D01*
X13913515Y-15526793D02*
X13903991Y-15507746D01*
X13903991Y-15507746D02*
X13894468Y-15498222D01*
X13894468Y-15498222D02*
X13875420Y-15488698D01*
X14151610Y-15602984D02*
X14151610Y-15402984D01*
X14237325Y-15602984D02*
X14237325Y-15498222D01*
X14237325Y-15498222D02*
X14227801Y-15479174D01*
X14227801Y-15479174D02*
X14208753Y-15469650D01*
X14208753Y-15469650D02*
X14180182Y-15469650D01*
X14180182Y-15469650D02*
X14161134Y-15479174D01*
X14161134Y-15479174D02*
X14151610Y-15488698D01*
X14361134Y-15602984D02*
X14342087Y-15593460D01*
X14342087Y-15593460D02*
X14332563Y-15583936D01*
X14332563Y-15583936D02*
X14323039Y-15564888D01*
X14323039Y-15564888D02*
X14323039Y-15507746D01*
X14323039Y-15507746D02*
X14332563Y-15488698D01*
X14332563Y-15488698D02*
X14342087Y-15479174D01*
X14342087Y-15479174D02*
X14361134Y-15469650D01*
X14361134Y-15469650D02*
X14389706Y-15469650D01*
X14389706Y-15469650D02*
X14408753Y-15479174D01*
X14408753Y-15479174D02*
X14418277Y-15488698D01*
X14418277Y-15488698D02*
X14427801Y-15507746D01*
X14427801Y-15507746D02*
X14427801Y-15564888D01*
X14427801Y-15564888D02*
X14418277Y-15583936D01*
X14418277Y-15583936D02*
X14408753Y-15593460D01*
X14408753Y-15593460D02*
X14389706Y-15602984D01*
X14389706Y-15602984D02*
X14361134Y-15602984D01*
X14542087Y-15602984D02*
X14523039Y-15593460D01*
X14523039Y-15593460D02*
X14513515Y-15574412D01*
X14513515Y-15574412D02*
X14513515Y-15402984D01*
X14694468Y-15593460D02*
X14675420Y-15602984D01*
X14675420Y-15602984D02*
X14637325Y-15602984D01*
X14637325Y-15602984D02*
X14618277Y-15593460D01*
X14618277Y-15593460D02*
X14608753Y-15574412D01*
X14608753Y-15574412D02*
X14608753Y-15498222D01*
X14608753Y-15498222D02*
X14618277Y-15479174D01*
X14618277Y-15479174D02*
X14637325Y-15469650D01*
X14637325Y-15469650D02*
X14675420Y-15469650D01*
X14675420Y-15469650D02*
X14694468Y-15479174D01*
X14694468Y-15479174D02*
X14703991Y-15498222D01*
X14703991Y-15498222D02*
X14703991Y-15517269D01*
X14703991Y-15517269D02*
X14608753Y-15536317D01*
X14780182Y-15593460D02*
X14799230Y-15602984D01*
X14799230Y-15602984D02*
X14837325Y-15602984D01*
X14837325Y-15602984D02*
X14856372Y-15593460D01*
X14856372Y-15593460D02*
X14865896Y-15574412D01*
X14865896Y-15574412D02*
X14865896Y-15564888D01*
X14865896Y-15564888D02*
X14856372Y-15545841D01*
X14856372Y-15545841D02*
X14837325Y-15536317D01*
X14837325Y-15536317D02*
X14808753Y-15536317D01*
X14808753Y-15536317D02*
X14789706Y-15526793D01*
X14789706Y-15526793D02*
X14780182Y-15507746D01*
X14780182Y-15507746D02*
X14780182Y-15498222D01*
X14780182Y-15498222D02*
X14789706Y-15479174D01*
X14789706Y-15479174D02*
X14808753Y-15469650D01*
X14808753Y-15469650D02*
X14837325Y-15469650D01*
X14837325Y-15469650D02*
X14856372Y-15479174D01*
X14932563Y-15679174D02*
X14942087Y-15669650D01*
X14942087Y-15669650D02*
X14961134Y-15641079D01*
X14961134Y-15641079D02*
X14970658Y-15622031D01*
X14970658Y-15622031D02*
X14980182Y-15593460D01*
X14980182Y-15593460D02*
X14989706Y-15545841D01*
X14989706Y-15545841D02*
X14989706Y-15507746D01*
X14989706Y-15507746D02*
X14980182Y-15460127D01*
X14980182Y-15460127D02*
X14970658Y-15431555D01*
X14970658Y-15431555D02*
X14961134Y-15412508D01*
X14961134Y-15412508D02*
X14942087Y-15383936D01*
X14942087Y-15383936D02*
X14932563Y-15374412D01*
D12*
X10144800Y-15762800D02*
X10144800Y-15788200D01*
X10132100Y-15775500D02*
X10157500Y-15775500D01*
D11*
X10456372Y-15666984D02*
X10475420Y-15666984D01*
X10475420Y-15666984D02*
X10494467Y-15676508D01*
X10494467Y-15676508D02*
X10503991Y-15686031D01*
X10503991Y-15686031D02*
X10513515Y-15705079D01*
X10513515Y-15705079D02*
X10523039Y-15743174D01*
X10523039Y-15743174D02*
X10523039Y-15790793D01*
X10523039Y-15790793D02*
X10513515Y-15828888D01*
X10513515Y-15828888D02*
X10503991Y-15847936D01*
X10503991Y-15847936D02*
X10494467Y-15857460D01*
X10494467Y-15857460D02*
X10475420Y-15866984D01*
X10475420Y-15866984D02*
X10456372Y-15866984D01*
X10456372Y-15866984D02*
X10437324Y-15857460D01*
X10437324Y-15857460D02*
X10427801Y-15847936D01*
X10427801Y-15847936D02*
X10418277Y-15828888D01*
X10418277Y-15828888D02*
X10408753Y-15790793D01*
X10408753Y-15790793D02*
X10408753Y-15743174D01*
X10408753Y-15743174D02*
X10418277Y-15705079D01*
X10418277Y-15705079D02*
X10427801Y-15686031D01*
X10427801Y-15686031D02*
X10437324Y-15676508D01*
X10437324Y-15676508D02*
X10456372Y-15666984D01*
X10608753Y-15847936D02*
X10618277Y-15857460D01*
X10618277Y-15857460D02*
X10608753Y-15866984D01*
X10608753Y-15866984D02*
X10599229Y-15857460D01*
X10599229Y-15857460D02*
X10608753Y-15847936D01*
X10608753Y-15847936D02*
X10608753Y-15866984D01*
X10694467Y-15686031D02*
X10703991Y-15676508D01*
X10703991Y-15676508D02*
X10723039Y-15666984D01*
X10723039Y-15666984D02*
X10770658Y-15666984D01*
X10770658Y-15666984D02*
X10789705Y-15676508D01*
X10789705Y-15676508D02*
X10799229Y-15686031D01*
X10799229Y-15686031D02*
X10808753Y-15705079D01*
X10808753Y-15705079D02*
X10808753Y-15724127D01*
X10808753Y-15724127D02*
X10799229Y-15752698D01*
X10799229Y-15752698D02*
X10684944Y-15866984D01*
X10684944Y-15866984D02*
X10808753Y-15866984D01*
X10989705Y-15666984D02*
X10894467Y-15666984D01*
X10894467Y-15666984D02*
X10884944Y-15762222D01*
X10884944Y-15762222D02*
X10894467Y-15752698D01*
X10894467Y-15752698D02*
X10913515Y-15743174D01*
X10913515Y-15743174D02*
X10961134Y-15743174D01*
X10961134Y-15743174D02*
X10980182Y-15752698D01*
X10980182Y-15752698D02*
X10989705Y-15762222D01*
X10989705Y-15762222D02*
X10999229Y-15781269D01*
X10999229Y-15781269D02*
X10999229Y-15828888D01*
X10999229Y-15828888D02*
X10989705Y-15847936D01*
X10989705Y-15847936D02*
X10980182Y-15857460D01*
X10980182Y-15857460D02*
X10961134Y-15866984D01*
X10961134Y-15866984D02*
X10913515Y-15866984D01*
X10913515Y-15866984D02*
X10894467Y-15857460D01*
X10894467Y-15857460D02*
X10884944Y-15847936D01*
X11170658Y-15733650D02*
X11170658Y-15866984D01*
X11123039Y-15657460D02*
X11075420Y-15800317D01*
X11075420Y-15800317D02*
X11199229Y-15800317D01*
X11275420Y-15866984D02*
X11275420Y-15733650D01*
X11275420Y-15752698D02*
X11284943Y-15743174D01*
X11284943Y-15743174D02*
X11303991Y-15733650D01*
X11303991Y-15733650D02*
X11332563Y-15733650D01*
X11332563Y-15733650D02*
X11351610Y-15743174D01*
X11351610Y-15743174D02*
X11361134Y-15762222D01*
X11361134Y-15762222D02*
X11361134Y-15866984D01*
X11361134Y-15762222D02*
X11370658Y-15743174D01*
X11370658Y-15743174D02*
X11389705Y-15733650D01*
X11389705Y-15733650D02*
X11418277Y-15733650D01*
X11418277Y-15733650D02*
X11437324Y-15743174D01*
X11437324Y-15743174D02*
X11446848Y-15762222D01*
X11446848Y-15762222D02*
X11446848Y-15866984D01*
X11542086Y-15866984D02*
X11542086Y-15733650D01*
X11542086Y-15752698D02*
X11551610Y-15743174D01*
X11551610Y-15743174D02*
X11570658Y-15733650D01*
X11570658Y-15733650D02*
X11599229Y-15733650D01*
X11599229Y-15733650D02*
X11618277Y-15743174D01*
X11618277Y-15743174D02*
X11627801Y-15762222D01*
X11627801Y-15762222D02*
X11627801Y-15866984D01*
X11627801Y-15762222D02*
X11637324Y-15743174D01*
X11637324Y-15743174D02*
X11656372Y-15733650D01*
X11656372Y-15733650D02*
X11684943Y-15733650D01*
X11684943Y-15733650D02*
X11703991Y-15743174D01*
X11703991Y-15743174D02*
X11713515Y-15762222D01*
X11713515Y-15762222D02*
X11713515Y-15866984D01*
X12103991Y-15657460D02*
X11932563Y-15914603D01*
X12361134Y-15666984D02*
X12380182Y-15666984D01*
X12380182Y-15666984D02*
X12399229Y-15676508D01*
X12399229Y-15676508D02*
X12408753Y-15686031D01*
X12408753Y-15686031D02*
X12418277Y-15705079D01*
X12418277Y-15705079D02*
X12427801Y-15743174D01*
X12427801Y-15743174D02*
X12427801Y-15790793D01*
X12427801Y-15790793D02*
X12418277Y-15828888D01*
X12418277Y-15828888D02*
X12408753Y-15847936D01*
X12408753Y-15847936D02*
X12399229Y-15857460D01*
X12399229Y-15857460D02*
X12380182Y-15866984D01*
X12380182Y-15866984D02*
X12361134Y-15866984D01*
X12361134Y-15866984D02*
X12342086Y-15857460D01*
X12342086Y-15857460D02*
X12332563Y-15847936D01*
X12332563Y-15847936D02*
X12323039Y-15828888D01*
X12323039Y-15828888D02*
X12313515Y-15790793D01*
X12313515Y-15790793D02*
X12313515Y-15743174D01*
X12313515Y-15743174D02*
X12323039Y-15705079D01*
X12323039Y-15705079D02*
X12332563Y-15686031D01*
X12332563Y-15686031D02*
X12342086Y-15676508D01*
X12342086Y-15676508D02*
X12361134Y-15666984D01*
X12513515Y-15847936D02*
X12523039Y-15857460D01*
X12523039Y-15857460D02*
X12513515Y-15866984D01*
X12513515Y-15866984D02*
X12503991Y-15857460D01*
X12503991Y-15857460D02*
X12513515Y-15847936D01*
X12513515Y-15847936D02*
X12513515Y-15866984D01*
X12646848Y-15666984D02*
X12665896Y-15666984D01*
X12665896Y-15666984D02*
X12684944Y-15676508D01*
X12684944Y-15676508D02*
X12694467Y-15686031D01*
X12694467Y-15686031D02*
X12703991Y-15705079D01*
X12703991Y-15705079D02*
X12713515Y-15743174D01*
X12713515Y-15743174D02*
X12713515Y-15790793D01*
X12713515Y-15790793D02*
X12703991Y-15828888D01*
X12703991Y-15828888D02*
X12694467Y-15847936D01*
X12694467Y-15847936D02*
X12684944Y-15857460D01*
X12684944Y-15857460D02*
X12665896Y-15866984D01*
X12665896Y-15866984D02*
X12646848Y-15866984D01*
X12646848Y-15866984D02*
X12627801Y-15857460D01*
X12627801Y-15857460D02*
X12618277Y-15847936D01*
X12618277Y-15847936D02*
X12608753Y-15828888D01*
X12608753Y-15828888D02*
X12599229Y-15790793D01*
X12599229Y-15790793D02*
X12599229Y-15743174D01*
X12599229Y-15743174D02*
X12608753Y-15705079D01*
X12608753Y-15705079D02*
X12618277Y-15686031D01*
X12618277Y-15686031D02*
X12627801Y-15676508D01*
X12627801Y-15676508D02*
X12646848Y-15666984D01*
X12903991Y-15866984D02*
X12789706Y-15866984D01*
X12846848Y-15866984D02*
X12846848Y-15666984D01*
X12846848Y-15666984D02*
X12827801Y-15695555D01*
X12827801Y-15695555D02*
X12808753Y-15714603D01*
X12808753Y-15714603D02*
X12789706Y-15724127D01*
X13027801Y-15666984D02*
X13046848Y-15666984D01*
X13046848Y-15666984D02*
X13065896Y-15676508D01*
X13065896Y-15676508D02*
X13075420Y-15686031D01*
X13075420Y-15686031D02*
X13084944Y-15705079D01*
X13084944Y-15705079D02*
X13094467Y-15743174D01*
X13094467Y-15743174D02*
X13094467Y-15790793D01*
X13094467Y-15790793D02*
X13084944Y-15828888D01*
X13084944Y-15828888D02*
X13075420Y-15847936D01*
X13075420Y-15847936D02*
X13065896Y-15857460D01*
X13065896Y-15857460D02*
X13046848Y-15866984D01*
X13046848Y-15866984D02*
X13027801Y-15866984D01*
X13027801Y-15866984D02*
X13008753Y-15857460D01*
X13008753Y-15857460D02*
X12999229Y-15847936D01*
X12999229Y-15847936D02*
X12989706Y-15828888D01*
X12989706Y-15828888D02*
X12980182Y-15790793D01*
X12980182Y-15790793D02*
X12980182Y-15743174D01*
X12980182Y-15743174D02*
X12989706Y-15705079D01*
X12989706Y-15705079D02*
X12999229Y-15686031D01*
X12999229Y-15686031D02*
X13008753Y-15676508D01*
X13008753Y-15676508D02*
X13027801Y-15666984D01*
X13218277Y-15666984D02*
X13237325Y-15666984D01*
X13237325Y-15666984D02*
X13256372Y-15676508D01*
X13256372Y-15676508D02*
X13265896Y-15686031D01*
X13265896Y-15686031D02*
X13275420Y-15705079D01*
X13275420Y-15705079D02*
X13284944Y-15743174D01*
X13284944Y-15743174D02*
X13284944Y-15790793D01*
X13284944Y-15790793D02*
X13275420Y-15828888D01*
X13275420Y-15828888D02*
X13265896Y-15847936D01*
X13265896Y-15847936D02*
X13256372Y-15857460D01*
X13256372Y-15857460D02*
X13237325Y-15866984D01*
X13237325Y-15866984D02*
X13218277Y-15866984D01*
X13218277Y-15866984D02*
X13199229Y-15857460D01*
X13199229Y-15857460D02*
X13189706Y-15847936D01*
X13189706Y-15847936D02*
X13180182Y-15828888D01*
X13180182Y-15828888D02*
X13170658Y-15790793D01*
X13170658Y-15790793D02*
X13170658Y-15743174D01*
X13170658Y-15743174D02*
X13180182Y-15705079D01*
X13180182Y-15705079D02*
X13189706Y-15686031D01*
X13189706Y-15686031D02*
X13199229Y-15676508D01*
X13199229Y-15676508D02*
X13218277Y-15666984D01*
X13361134Y-15666984D02*
X13361134Y-15705079D01*
X13437325Y-15666984D02*
X13437325Y-15705079D01*
X13732563Y-15943174D02*
X13723039Y-15933650D01*
X13723039Y-15933650D02*
X13703991Y-15905079D01*
X13703991Y-15905079D02*
X13694468Y-15886031D01*
X13694468Y-15886031D02*
X13684944Y-15857460D01*
X13684944Y-15857460D02*
X13675420Y-15809841D01*
X13675420Y-15809841D02*
X13675420Y-15771746D01*
X13675420Y-15771746D02*
X13684944Y-15724127D01*
X13684944Y-15724127D02*
X13694468Y-15695555D01*
X13694468Y-15695555D02*
X13703991Y-15676508D01*
X13703991Y-15676508D02*
X13723039Y-15647936D01*
X13723039Y-15647936D02*
X13732563Y-15638412D01*
X13837325Y-15752698D02*
X13818277Y-15743174D01*
X13818277Y-15743174D02*
X13808753Y-15733650D01*
X13808753Y-15733650D02*
X13799229Y-15714603D01*
X13799229Y-15714603D02*
X13799229Y-15705079D01*
X13799229Y-15705079D02*
X13808753Y-15686031D01*
X13808753Y-15686031D02*
X13818277Y-15676508D01*
X13818277Y-15676508D02*
X13837325Y-15666984D01*
X13837325Y-15666984D02*
X13875420Y-15666984D01*
X13875420Y-15666984D02*
X13894468Y-15676508D01*
X13894468Y-15676508D02*
X13903991Y-15686031D01*
X13903991Y-15686031D02*
X13913515Y-15705079D01*
X13913515Y-15705079D02*
X13913515Y-15714603D01*
X13913515Y-15714603D02*
X13903991Y-15733650D01*
X13903991Y-15733650D02*
X13894468Y-15743174D01*
X13894468Y-15743174D02*
X13875420Y-15752698D01*
X13875420Y-15752698D02*
X13837325Y-15752698D01*
X13837325Y-15752698D02*
X13818277Y-15762222D01*
X13818277Y-15762222D02*
X13808753Y-15771746D01*
X13808753Y-15771746D02*
X13799229Y-15790793D01*
X13799229Y-15790793D02*
X13799229Y-15828888D01*
X13799229Y-15828888D02*
X13808753Y-15847936D01*
X13808753Y-15847936D02*
X13818277Y-15857460D01*
X13818277Y-15857460D02*
X13837325Y-15866984D01*
X13837325Y-15866984D02*
X13875420Y-15866984D01*
X13875420Y-15866984D02*
X13894468Y-15857460D01*
X13894468Y-15857460D02*
X13903991Y-15847936D01*
X13903991Y-15847936D02*
X13913515Y-15828888D01*
X13913515Y-15828888D02*
X13913515Y-15790793D01*
X13913515Y-15790793D02*
X13903991Y-15771746D01*
X13903991Y-15771746D02*
X13894468Y-15762222D01*
X13894468Y-15762222D02*
X13875420Y-15752698D01*
X14151610Y-15866984D02*
X14151610Y-15666984D01*
X14237325Y-15866984D02*
X14237325Y-15762222D01*
X14237325Y-15762222D02*
X14227801Y-15743174D01*
X14227801Y-15743174D02*
X14208753Y-15733650D01*
X14208753Y-15733650D02*
X14180182Y-15733650D01*
X14180182Y-15733650D02*
X14161134Y-15743174D01*
X14161134Y-15743174D02*
X14151610Y-15752698D01*
X14361134Y-15866984D02*
X14342087Y-15857460D01*
X14342087Y-15857460D02*
X14332563Y-15847936D01*
X14332563Y-15847936D02*
X14323039Y-15828888D01*
X14323039Y-15828888D02*
X14323039Y-15771746D01*
X14323039Y-15771746D02*
X14332563Y-15752698D01*
X14332563Y-15752698D02*
X14342087Y-15743174D01*
X14342087Y-15743174D02*
X14361134Y-15733650D01*
X14361134Y-15733650D02*
X14389706Y-15733650D01*
X14389706Y-15733650D02*
X14408753Y-15743174D01*
X14408753Y-15743174D02*
X14418277Y-15752698D01*
X14418277Y-15752698D02*
X14427801Y-15771746D01*
X14427801Y-15771746D02*
X14427801Y-15828888D01*
X14427801Y-15828888D02*
X14418277Y-15847936D01*
X14418277Y-15847936D02*
X14408753Y-15857460D01*
X14408753Y-15857460D02*
X14389706Y-15866984D01*
X14389706Y-15866984D02*
X14361134Y-15866984D01*
X14542087Y-15866984D02*
X14523039Y-15857460D01*
X14523039Y-15857460D02*
X14513515Y-15838412D01*
X14513515Y-15838412D02*
X14513515Y-15666984D01*
X14694468Y-15857460D02*
X14675420Y-15866984D01*
X14675420Y-15866984D02*
X14637325Y-15866984D01*
X14637325Y-15866984D02*
X14618277Y-15857460D01*
X14618277Y-15857460D02*
X14608753Y-15838412D01*
X14608753Y-15838412D02*
X14608753Y-15762222D01*
X14608753Y-15762222D02*
X14618277Y-15743174D01*
X14618277Y-15743174D02*
X14637325Y-15733650D01*
X14637325Y-15733650D02*
X14675420Y-15733650D01*
X14675420Y-15733650D02*
X14694468Y-15743174D01*
X14694468Y-15743174D02*
X14703991Y-15762222D01*
X14703991Y-15762222D02*
X14703991Y-15781269D01*
X14703991Y-15781269D02*
X14608753Y-15800317D01*
X14780182Y-15857460D02*
X14799230Y-15866984D01*
X14799230Y-15866984D02*
X14837325Y-15866984D01*
X14837325Y-15866984D02*
X14856372Y-15857460D01*
X14856372Y-15857460D02*
X14865896Y-15838412D01*
X14865896Y-15838412D02*
X14865896Y-15828888D01*
X14865896Y-15828888D02*
X14856372Y-15809841D01*
X14856372Y-15809841D02*
X14837325Y-15800317D01*
X14837325Y-15800317D02*
X14808753Y-15800317D01*
X14808753Y-15800317D02*
X14789706Y-15790793D01*
X14789706Y-15790793D02*
X14780182Y-15771746D01*
X14780182Y-15771746D02*
X14780182Y-15762222D01*
X14780182Y-15762222D02*
X14789706Y-15743174D01*
X14789706Y-15743174D02*
X14808753Y-15733650D01*
X14808753Y-15733650D02*
X14837325Y-15733650D01*
X14837325Y-15733650D02*
X14856372Y-15743174D01*
X14932563Y-15943174D02*
X14942087Y-15933650D01*
X14942087Y-15933650D02*
X14961134Y-15905079D01*
X14961134Y-15905079D02*
X14970658Y-15886031D01*
X14970658Y-15886031D02*
X14980182Y-15857460D01*
X14980182Y-15857460D02*
X14989706Y-15809841D01*
X14989706Y-15809841D02*
X14989706Y-15771746D01*
X14989706Y-15771746D02*
X14980182Y-15724127D01*
X14980182Y-15724127D02*
X14970658Y-15695555D01*
X14970658Y-15695555D02*
X14961134Y-15676508D01*
X14961134Y-15676508D02*
X14942087Y-15647936D01*
X14942087Y-15647936D02*
X14932563Y-15638412D01*
D12*
X10153107Y-16050107D02*
X10153107Y-16028893D01*
X10131893Y-16028893D01*
X10131893Y-16050107D01*
X10153107Y-16050107D01*
D11*
X10456372Y-15930984D02*
X10475420Y-15930984D01*
X10475420Y-15930984D02*
X10494467Y-15940508D01*
X10494467Y-15940508D02*
X10503991Y-15950031D01*
X10503991Y-15950031D02*
X10513515Y-15969079D01*
X10513515Y-15969079D02*
X10523039Y-16007174D01*
X10523039Y-16007174D02*
X10523039Y-16054793D01*
X10523039Y-16054793D02*
X10513515Y-16092888D01*
X10513515Y-16092888D02*
X10503991Y-16111936D01*
X10503991Y-16111936D02*
X10494467Y-16121460D01*
X10494467Y-16121460D02*
X10475420Y-16130984D01*
X10475420Y-16130984D02*
X10456372Y-16130984D01*
X10456372Y-16130984D02*
X10437324Y-16121460D01*
X10437324Y-16121460D02*
X10427801Y-16111936D01*
X10427801Y-16111936D02*
X10418277Y-16092888D01*
X10418277Y-16092888D02*
X10408753Y-16054793D01*
X10408753Y-16054793D02*
X10408753Y-16007174D01*
X10408753Y-16007174D02*
X10418277Y-15969079D01*
X10418277Y-15969079D02*
X10427801Y-15950031D01*
X10427801Y-15950031D02*
X10437324Y-15940508D01*
X10437324Y-15940508D02*
X10456372Y-15930984D01*
X10608753Y-16111936D02*
X10618277Y-16121460D01*
X10618277Y-16121460D02*
X10608753Y-16130984D01*
X10608753Y-16130984D02*
X10599229Y-16121460D01*
X10599229Y-16121460D02*
X10608753Y-16111936D01*
X10608753Y-16111936D02*
X10608753Y-16130984D01*
X10684944Y-15930984D02*
X10808753Y-15930984D01*
X10808753Y-15930984D02*
X10742086Y-16007174D01*
X10742086Y-16007174D02*
X10770658Y-16007174D01*
X10770658Y-16007174D02*
X10789705Y-16016698D01*
X10789705Y-16016698D02*
X10799229Y-16026222D01*
X10799229Y-16026222D02*
X10808753Y-16045269D01*
X10808753Y-16045269D02*
X10808753Y-16092888D01*
X10808753Y-16092888D02*
X10799229Y-16111936D01*
X10799229Y-16111936D02*
X10789705Y-16121460D01*
X10789705Y-16121460D02*
X10770658Y-16130984D01*
X10770658Y-16130984D02*
X10713515Y-16130984D01*
X10713515Y-16130984D02*
X10694467Y-16121460D01*
X10694467Y-16121460D02*
X10684944Y-16111936D01*
X10932563Y-15930984D02*
X10951610Y-15930984D01*
X10951610Y-15930984D02*
X10970658Y-15940508D01*
X10970658Y-15940508D02*
X10980182Y-15950031D01*
X10980182Y-15950031D02*
X10989705Y-15969079D01*
X10989705Y-15969079D02*
X10999229Y-16007174D01*
X10999229Y-16007174D02*
X10999229Y-16054793D01*
X10999229Y-16054793D02*
X10989705Y-16092888D01*
X10989705Y-16092888D02*
X10980182Y-16111936D01*
X10980182Y-16111936D02*
X10970658Y-16121460D01*
X10970658Y-16121460D02*
X10951610Y-16130984D01*
X10951610Y-16130984D02*
X10932563Y-16130984D01*
X10932563Y-16130984D02*
X10913515Y-16121460D01*
X10913515Y-16121460D02*
X10903991Y-16111936D01*
X10903991Y-16111936D02*
X10894467Y-16092888D01*
X10894467Y-16092888D02*
X10884944Y-16054793D01*
X10884944Y-16054793D02*
X10884944Y-16007174D01*
X10884944Y-16007174D02*
X10894467Y-15969079D01*
X10894467Y-15969079D02*
X10903991Y-15950031D01*
X10903991Y-15950031D02*
X10913515Y-15940508D01*
X10913515Y-15940508D02*
X10932563Y-15930984D01*
X11123039Y-15930984D02*
X11142086Y-15930984D01*
X11142086Y-15930984D02*
X11161134Y-15940508D01*
X11161134Y-15940508D02*
X11170658Y-15950031D01*
X11170658Y-15950031D02*
X11180182Y-15969079D01*
X11180182Y-15969079D02*
X11189705Y-16007174D01*
X11189705Y-16007174D02*
X11189705Y-16054793D01*
X11189705Y-16054793D02*
X11180182Y-16092888D01*
X11180182Y-16092888D02*
X11170658Y-16111936D01*
X11170658Y-16111936D02*
X11161134Y-16121460D01*
X11161134Y-16121460D02*
X11142086Y-16130984D01*
X11142086Y-16130984D02*
X11123039Y-16130984D01*
X11123039Y-16130984D02*
X11103991Y-16121460D01*
X11103991Y-16121460D02*
X11094467Y-16111936D01*
X11094467Y-16111936D02*
X11084944Y-16092888D01*
X11084944Y-16092888D02*
X11075420Y-16054793D01*
X11075420Y-16054793D02*
X11075420Y-16007174D01*
X11075420Y-16007174D02*
X11084944Y-15969079D01*
X11084944Y-15969079D02*
X11094467Y-15950031D01*
X11094467Y-15950031D02*
X11103991Y-15940508D01*
X11103991Y-15940508D02*
X11123039Y-15930984D01*
X11275420Y-16130984D02*
X11275420Y-15997650D01*
X11275420Y-16016698D02*
X11284943Y-16007174D01*
X11284943Y-16007174D02*
X11303991Y-15997650D01*
X11303991Y-15997650D02*
X11332563Y-15997650D01*
X11332563Y-15997650D02*
X11351610Y-16007174D01*
X11351610Y-16007174D02*
X11361134Y-16026222D01*
X11361134Y-16026222D02*
X11361134Y-16130984D01*
X11361134Y-16026222D02*
X11370658Y-16007174D01*
X11370658Y-16007174D02*
X11389705Y-15997650D01*
X11389705Y-15997650D02*
X11418277Y-15997650D01*
X11418277Y-15997650D02*
X11437324Y-16007174D01*
X11437324Y-16007174D02*
X11446848Y-16026222D01*
X11446848Y-16026222D02*
X11446848Y-16130984D01*
X11542086Y-16130984D02*
X11542086Y-15997650D01*
X11542086Y-16016698D02*
X11551610Y-16007174D01*
X11551610Y-16007174D02*
X11570658Y-15997650D01*
X11570658Y-15997650D02*
X11599229Y-15997650D01*
X11599229Y-15997650D02*
X11618277Y-16007174D01*
X11618277Y-16007174D02*
X11627801Y-16026222D01*
X11627801Y-16026222D02*
X11627801Y-16130984D01*
X11627801Y-16026222D02*
X11637324Y-16007174D01*
X11637324Y-16007174D02*
X11656372Y-15997650D01*
X11656372Y-15997650D02*
X11684943Y-15997650D01*
X11684943Y-15997650D02*
X11703991Y-16007174D01*
X11703991Y-16007174D02*
X11713515Y-16026222D01*
X11713515Y-16026222D02*
X11713515Y-16130984D01*
X12103991Y-15921460D02*
X11932563Y-16178603D01*
X12361134Y-15930984D02*
X12380182Y-15930984D01*
X12380182Y-15930984D02*
X12399229Y-15940508D01*
X12399229Y-15940508D02*
X12408753Y-15950031D01*
X12408753Y-15950031D02*
X12418277Y-15969079D01*
X12418277Y-15969079D02*
X12427801Y-16007174D01*
X12427801Y-16007174D02*
X12427801Y-16054793D01*
X12427801Y-16054793D02*
X12418277Y-16092888D01*
X12418277Y-16092888D02*
X12408753Y-16111936D01*
X12408753Y-16111936D02*
X12399229Y-16121460D01*
X12399229Y-16121460D02*
X12380182Y-16130984D01*
X12380182Y-16130984D02*
X12361134Y-16130984D01*
X12361134Y-16130984D02*
X12342086Y-16121460D01*
X12342086Y-16121460D02*
X12332563Y-16111936D01*
X12332563Y-16111936D02*
X12323039Y-16092888D01*
X12323039Y-16092888D02*
X12313515Y-16054793D01*
X12313515Y-16054793D02*
X12313515Y-16007174D01*
X12313515Y-16007174D02*
X12323039Y-15969079D01*
X12323039Y-15969079D02*
X12332563Y-15950031D01*
X12332563Y-15950031D02*
X12342086Y-15940508D01*
X12342086Y-15940508D02*
X12361134Y-15930984D01*
X12513515Y-16111936D02*
X12523039Y-16121460D01*
X12523039Y-16121460D02*
X12513515Y-16130984D01*
X12513515Y-16130984D02*
X12503991Y-16121460D01*
X12503991Y-16121460D02*
X12513515Y-16111936D01*
X12513515Y-16111936D02*
X12513515Y-16130984D01*
X12646848Y-15930984D02*
X12665896Y-15930984D01*
X12665896Y-15930984D02*
X12684944Y-15940508D01*
X12684944Y-15940508D02*
X12694467Y-15950031D01*
X12694467Y-15950031D02*
X12703991Y-15969079D01*
X12703991Y-15969079D02*
X12713515Y-16007174D01*
X12713515Y-16007174D02*
X12713515Y-16054793D01*
X12713515Y-16054793D02*
X12703991Y-16092888D01*
X12703991Y-16092888D02*
X12694467Y-16111936D01*
X12694467Y-16111936D02*
X12684944Y-16121460D01*
X12684944Y-16121460D02*
X12665896Y-16130984D01*
X12665896Y-16130984D02*
X12646848Y-16130984D01*
X12646848Y-16130984D02*
X12627801Y-16121460D01*
X12627801Y-16121460D02*
X12618277Y-16111936D01*
X12618277Y-16111936D02*
X12608753Y-16092888D01*
X12608753Y-16092888D02*
X12599229Y-16054793D01*
X12599229Y-16054793D02*
X12599229Y-16007174D01*
X12599229Y-16007174D02*
X12608753Y-15969079D01*
X12608753Y-15969079D02*
X12618277Y-15950031D01*
X12618277Y-15950031D02*
X12627801Y-15940508D01*
X12627801Y-15940508D02*
X12646848Y-15930984D01*
X12903991Y-16130984D02*
X12789706Y-16130984D01*
X12846848Y-16130984D02*
X12846848Y-15930984D01*
X12846848Y-15930984D02*
X12827801Y-15959555D01*
X12827801Y-15959555D02*
X12808753Y-15978603D01*
X12808753Y-15978603D02*
X12789706Y-15988127D01*
X13094467Y-16130984D02*
X12980182Y-16130984D01*
X13037325Y-16130984D02*
X13037325Y-15930984D01*
X13037325Y-15930984D02*
X13018277Y-15959555D01*
X13018277Y-15959555D02*
X12999229Y-15978603D01*
X12999229Y-15978603D02*
X12980182Y-15988127D01*
X13208753Y-16016698D02*
X13189706Y-16007174D01*
X13189706Y-16007174D02*
X13180182Y-15997650D01*
X13180182Y-15997650D02*
X13170658Y-15978603D01*
X13170658Y-15978603D02*
X13170658Y-15969079D01*
X13170658Y-15969079D02*
X13180182Y-15950031D01*
X13180182Y-15950031D02*
X13189706Y-15940508D01*
X13189706Y-15940508D02*
X13208753Y-15930984D01*
X13208753Y-15930984D02*
X13246848Y-15930984D01*
X13246848Y-15930984D02*
X13265896Y-15940508D01*
X13265896Y-15940508D02*
X13275420Y-15950031D01*
X13275420Y-15950031D02*
X13284944Y-15969079D01*
X13284944Y-15969079D02*
X13284944Y-15978603D01*
X13284944Y-15978603D02*
X13275420Y-15997650D01*
X13275420Y-15997650D02*
X13265896Y-16007174D01*
X13265896Y-16007174D02*
X13246848Y-16016698D01*
X13246848Y-16016698D02*
X13208753Y-16016698D01*
X13208753Y-16016698D02*
X13189706Y-16026222D01*
X13189706Y-16026222D02*
X13180182Y-16035746D01*
X13180182Y-16035746D02*
X13170658Y-16054793D01*
X13170658Y-16054793D02*
X13170658Y-16092888D01*
X13170658Y-16092888D02*
X13180182Y-16111936D01*
X13180182Y-16111936D02*
X13189706Y-16121460D01*
X13189706Y-16121460D02*
X13208753Y-16130984D01*
X13208753Y-16130984D02*
X13246848Y-16130984D01*
X13246848Y-16130984D02*
X13265896Y-16121460D01*
X13265896Y-16121460D02*
X13275420Y-16111936D01*
X13275420Y-16111936D02*
X13284944Y-16092888D01*
X13284944Y-16092888D02*
X13284944Y-16054793D01*
X13284944Y-16054793D02*
X13275420Y-16035746D01*
X13275420Y-16035746D02*
X13265896Y-16026222D01*
X13265896Y-16026222D02*
X13246848Y-16016698D01*
X13361134Y-15930984D02*
X13361134Y-15969079D01*
X13437325Y-15930984D02*
X13437325Y-15969079D01*
X13732563Y-16207174D02*
X13723039Y-16197650D01*
X13723039Y-16197650D02*
X13703991Y-16169079D01*
X13703991Y-16169079D02*
X13694468Y-16150031D01*
X13694468Y-16150031D02*
X13684944Y-16121460D01*
X13684944Y-16121460D02*
X13675420Y-16073841D01*
X13675420Y-16073841D02*
X13675420Y-16035746D01*
X13675420Y-16035746D02*
X13684944Y-15988127D01*
X13684944Y-15988127D02*
X13694468Y-15959555D01*
X13694468Y-15959555D02*
X13703991Y-15940508D01*
X13703991Y-15940508D02*
X13723039Y-15911936D01*
X13723039Y-15911936D02*
X13732563Y-15902412D01*
X13894468Y-15930984D02*
X13856372Y-15930984D01*
X13856372Y-15930984D02*
X13837325Y-15940508D01*
X13837325Y-15940508D02*
X13827801Y-15950031D01*
X13827801Y-15950031D02*
X13808753Y-15978603D01*
X13808753Y-15978603D02*
X13799229Y-16016698D01*
X13799229Y-16016698D02*
X13799229Y-16092888D01*
X13799229Y-16092888D02*
X13808753Y-16111936D01*
X13808753Y-16111936D02*
X13818277Y-16121460D01*
X13818277Y-16121460D02*
X13837325Y-16130984D01*
X13837325Y-16130984D02*
X13875420Y-16130984D01*
X13875420Y-16130984D02*
X13894468Y-16121460D01*
X13894468Y-16121460D02*
X13903991Y-16111936D01*
X13903991Y-16111936D02*
X13913515Y-16092888D01*
X13913515Y-16092888D02*
X13913515Y-16045269D01*
X13913515Y-16045269D02*
X13903991Y-16026222D01*
X13903991Y-16026222D02*
X13894468Y-16016698D01*
X13894468Y-16016698D02*
X13875420Y-16007174D01*
X13875420Y-16007174D02*
X13837325Y-16007174D01*
X13837325Y-16007174D02*
X13818277Y-16016698D01*
X13818277Y-16016698D02*
X13808753Y-16026222D01*
X13808753Y-16026222D02*
X13799229Y-16045269D01*
X14008753Y-16130984D02*
X14046848Y-16130984D01*
X14046848Y-16130984D02*
X14065896Y-16121460D01*
X14065896Y-16121460D02*
X14075420Y-16111936D01*
X14075420Y-16111936D02*
X14094468Y-16083365D01*
X14094468Y-16083365D02*
X14103991Y-16045269D01*
X14103991Y-16045269D02*
X14103991Y-15969079D01*
X14103991Y-15969079D02*
X14094468Y-15950031D01*
X14094468Y-15950031D02*
X14084944Y-15940508D01*
X14084944Y-15940508D02*
X14065896Y-15930984D01*
X14065896Y-15930984D02*
X14027801Y-15930984D01*
X14027801Y-15930984D02*
X14008753Y-15940508D01*
X14008753Y-15940508D02*
X13999229Y-15950031D01*
X13999229Y-15950031D02*
X13989706Y-15969079D01*
X13989706Y-15969079D02*
X13989706Y-16016698D01*
X13989706Y-16016698D02*
X13999229Y-16035746D01*
X13999229Y-16035746D02*
X14008753Y-16045269D01*
X14008753Y-16045269D02*
X14027801Y-16054793D01*
X14027801Y-16054793D02*
X14065896Y-16054793D01*
X14065896Y-16054793D02*
X14084944Y-16045269D01*
X14084944Y-16045269D02*
X14094468Y-16035746D01*
X14094468Y-16035746D02*
X14103991Y-16016698D01*
X14342087Y-16130984D02*
X14342087Y-15930984D01*
X14427801Y-16130984D02*
X14427801Y-16026222D01*
X14427801Y-16026222D02*
X14418277Y-16007174D01*
X14418277Y-16007174D02*
X14399230Y-15997650D01*
X14399230Y-15997650D02*
X14370658Y-15997650D01*
X14370658Y-15997650D02*
X14351610Y-16007174D01*
X14351610Y-16007174D02*
X14342087Y-16016698D01*
X14551610Y-16130984D02*
X14532563Y-16121460D01*
X14532563Y-16121460D02*
X14523039Y-16111936D01*
X14523039Y-16111936D02*
X14513515Y-16092888D01*
X14513515Y-16092888D02*
X14513515Y-16035746D01*
X14513515Y-16035746D02*
X14523039Y-16016698D01*
X14523039Y-16016698D02*
X14532563Y-16007174D01*
X14532563Y-16007174D02*
X14551610Y-15997650D01*
X14551610Y-15997650D02*
X14580182Y-15997650D01*
X14580182Y-15997650D02*
X14599230Y-16007174D01*
X14599230Y-16007174D02*
X14608753Y-16016698D01*
X14608753Y-16016698D02*
X14618277Y-16035746D01*
X14618277Y-16035746D02*
X14618277Y-16092888D01*
X14618277Y-16092888D02*
X14608753Y-16111936D01*
X14608753Y-16111936D02*
X14599230Y-16121460D01*
X14599230Y-16121460D02*
X14580182Y-16130984D01*
X14580182Y-16130984D02*
X14551610Y-16130984D01*
X14732563Y-16130984D02*
X14713515Y-16121460D01*
X14713515Y-16121460D02*
X14703991Y-16102412D01*
X14703991Y-16102412D02*
X14703991Y-15930984D01*
X14884944Y-16121460D02*
X14865896Y-16130984D01*
X14865896Y-16130984D02*
X14827801Y-16130984D01*
X14827801Y-16130984D02*
X14808753Y-16121460D01*
X14808753Y-16121460D02*
X14799230Y-16102412D01*
X14799230Y-16102412D02*
X14799230Y-16026222D01*
X14799230Y-16026222D02*
X14808753Y-16007174D01*
X14808753Y-16007174D02*
X14827801Y-15997650D01*
X14827801Y-15997650D02*
X14865896Y-15997650D01*
X14865896Y-15997650D02*
X14884944Y-16007174D01*
X14884944Y-16007174D02*
X14894468Y-16026222D01*
X14894468Y-16026222D02*
X14894468Y-16045269D01*
X14894468Y-16045269D02*
X14799230Y-16064317D01*
X14970658Y-16121460D02*
X14989706Y-16130984D01*
X14989706Y-16130984D02*
X15027801Y-16130984D01*
X15027801Y-16130984D02*
X15046849Y-16121460D01*
X15046849Y-16121460D02*
X15056372Y-16102412D01*
X15056372Y-16102412D02*
X15056372Y-16092888D01*
X15056372Y-16092888D02*
X15046849Y-16073841D01*
X15046849Y-16073841D02*
X15027801Y-16064317D01*
X15027801Y-16064317D02*
X14999230Y-16064317D01*
X14999230Y-16064317D02*
X14980182Y-16054793D01*
X14980182Y-16054793D02*
X14970658Y-16035746D01*
X14970658Y-16035746D02*
X14970658Y-16026222D01*
X14970658Y-16026222D02*
X14980182Y-16007174D01*
X14980182Y-16007174D02*
X14999230Y-15997650D01*
X14999230Y-15997650D02*
X15027801Y-15997650D01*
X15027801Y-15997650D02*
X15046849Y-16007174D01*
X15123039Y-16207174D02*
X15132563Y-16197650D01*
X15132563Y-16197650D02*
X15151611Y-16169079D01*
X15151611Y-16169079D02*
X15161134Y-16150031D01*
X15161134Y-16150031D02*
X15170658Y-16121460D01*
X15170658Y-16121460D02*
X15180182Y-16073841D01*
X15180182Y-16073841D02*
X15180182Y-16035746D01*
X15180182Y-16035746D02*
X15170658Y-15988127D01*
X15170658Y-15988127D02*
X15161134Y-15959555D01*
X15161134Y-15959555D02*
X15151611Y-15940508D01*
X15151611Y-15940508D02*
X15132563Y-15911936D01*
X15132563Y-15911936D02*
X15123039Y-15902412D01*
D12*
X10127500Y-16333500D02*
X10157500Y-16303500D01*
X10127500Y-16273500D01*
X10097500Y-16303500D01*
X10127500Y-16333500D01*
D11*
X10456372Y-16194984D02*
X10475420Y-16194984D01*
X10475420Y-16194984D02*
X10494467Y-16204508D01*
X10494467Y-16204508D02*
X10503991Y-16214031D01*
X10503991Y-16214031D02*
X10513515Y-16233079D01*
X10513515Y-16233079D02*
X10523039Y-16271174D01*
X10523039Y-16271174D02*
X10523039Y-16318793D01*
X10523039Y-16318793D02*
X10513515Y-16356888D01*
X10513515Y-16356888D02*
X10503991Y-16375936D01*
X10503991Y-16375936D02*
X10494467Y-16385460D01*
X10494467Y-16385460D02*
X10475420Y-16394984D01*
X10475420Y-16394984D02*
X10456372Y-16394984D01*
X10456372Y-16394984D02*
X10437324Y-16385460D01*
X10437324Y-16385460D02*
X10427801Y-16375936D01*
X10427801Y-16375936D02*
X10418277Y-16356888D01*
X10418277Y-16356888D02*
X10408753Y-16318793D01*
X10408753Y-16318793D02*
X10408753Y-16271174D01*
X10408753Y-16271174D02*
X10418277Y-16233079D01*
X10418277Y-16233079D02*
X10427801Y-16214031D01*
X10427801Y-16214031D02*
X10437324Y-16204508D01*
X10437324Y-16204508D02*
X10456372Y-16194984D01*
X10608753Y-16375936D02*
X10618277Y-16385460D01*
X10618277Y-16385460D02*
X10608753Y-16394984D01*
X10608753Y-16394984D02*
X10599229Y-16385460D01*
X10599229Y-16385460D02*
X10608753Y-16375936D01*
X10608753Y-16375936D02*
X10608753Y-16394984D01*
X10789705Y-16194984D02*
X10751610Y-16194984D01*
X10751610Y-16194984D02*
X10732563Y-16204508D01*
X10732563Y-16204508D02*
X10723039Y-16214031D01*
X10723039Y-16214031D02*
X10703991Y-16242603D01*
X10703991Y-16242603D02*
X10694467Y-16280698D01*
X10694467Y-16280698D02*
X10694467Y-16356888D01*
X10694467Y-16356888D02*
X10703991Y-16375936D01*
X10703991Y-16375936D02*
X10713515Y-16385460D01*
X10713515Y-16385460D02*
X10732563Y-16394984D01*
X10732563Y-16394984D02*
X10770658Y-16394984D01*
X10770658Y-16394984D02*
X10789705Y-16385460D01*
X10789705Y-16385460D02*
X10799229Y-16375936D01*
X10799229Y-16375936D02*
X10808753Y-16356888D01*
X10808753Y-16356888D02*
X10808753Y-16309269D01*
X10808753Y-16309269D02*
X10799229Y-16290222D01*
X10799229Y-16290222D02*
X10789705Y-16280698D01*
X10789705Y-16280698D02*
X10770658Y-16271174D01*
X10770658Y-16271174D02*
X10732563Y-16271174D01*
X10732563Y-16271174D02*
X10713515Y-16280698D01*
X10713515Y-16280698D02*
X10703991Y-16290222D01*
X10703991Y-16290222D02*
X10694467Y-16309269D01*
X10932563Y-16194984D02*
X10951610Y-16194984D01*
X10951610Y-16194984D02*
X10970658Y-16204508D01*
X10970658Y-16204508D02*
X10980182Y-16214031D01*
X10980182Y-16214031D02*
X10989705Y-16233079D01*
X10989705Y-16233079D02*
X10999229Y-16271174D01*
X10999229Y-16271174D02*
X10999229Y-16318793D01*
X10999229Y-16318793D02*
X10989705Y-16356888D01*
X10989705Y-16356888D02*
X10980182Y-16375936D01*
X10980182Y-16375936D02*
X10970658Y-16385460D01*
X10970658Y-16385460D02*
X10951610Y-16394984D01*
X10951610Y-16394984D02*
X10932563Y-16394984D01*
X10932563Y-16394984D02*
X10913515Y-16385460D01*
X10913515Y-16385460D02*
X10903991Y-16375936D01*
X10903991Y-16375936D02*
X10894467Y-16356888D01*
X10894467Y-16356888D02*
X10884944Y-16318793D01*
X10884944Y-16318793D02*
X10884944Y-16271174D01*
X10884944Y-16271174D02*
X10894467Y-16233079D01*
X10894467Y-16233079D02*
X10903991Y-16214031D01*
X10903991Y-16214031D02*
X10913515Y-16204508D01*
X10913515Y-16204508D02*
X10932563Y-16194984D01*
X11123039Y-16194984D02*
X11142086Y-16194984D01*
X11142086Y-16194984D02*
X11161134Y-16204508D01*
X11161134Y-16204508D02*
X11170658Y-16214031D01*
X11170658Y-16214031D02*
X11180182Y-16233079D01*
X11180182Y-16233079D02*
X11189705Y-16271174D01*
X11189705Y-16271174D02*
X11189705Y-16318793D01*
X11189705Y-16318793D02*
X11180182Y-16356888D01*
X11180182Y-16356888D02*
X11170658Y-16375936D01*
X11170658Y-16375936D02*
X11161134Y-16385460D01*
X11161134Y-16385460D02*
X11142086Y-16394984D01*
X11142086Y-16394984D02*
X11123039Y-16394984D01*
X11123039Y-16394984D02*
X11103991Y-16385460D01*
X11103991Y-16385460D02*
X11094467Y-16375936D01*
X11094467Y-16375936D02*
X11084944Y-16356888D01*
X11084944Y-16356888D02*
X11075420Y-16318793D01*
X11075420Y-16318793D02*
X11075420Y-16271174D01*
X11075420Y-16271174D02*
X11084944Y-16233079D01*
X11084944Y-16233079D02*
X11094467Y-16214031D01*
X11094467Y-16214031D02*
X11103991Y-16204508D01*
X11103991Y-16204508D02*
X11123039Y-16194984D01*
X11275420Y-16394984D02*
X11275420Y-16261650D01*
X11275420Y-16280698D02*
X11284943Y-16271174D01*
X11284943Y-16271174D02*
X11303991Y-16261650D01*
X11303991Y-16261650D02*
X11332563Y-16261650D01*
X11332563Y-16261650D02*
X11351610Y-16271174D01*
X11351610Y-16271174D02*
X11361134Y-16290222D01*
X11361134Y-16290222D02*
X11361134Y-16394984D01*
X11361134Y-16290222D02*
X11370658Y-16271174D01*
X11370658Y-16271174D02*
X11389705Y-16261650D01*
X11389705Y-16261650D02*
X11418277Y-16261650D01*
X11418277Y-16261650D02*
X11437324Y-16271174D01*
X11437324Y-16271174D02*
X11446848Y-16290222D01*
X11446848Y-16290222D02*
X11446848Y-16394984D01*
X11542086Y-16394984D02*
X11542086Y-16261650D01*
X11542086Y-16280698D02*
X11551610Y-16271174D01*
X11551610Y-16271174D02*
X11570658Y-16261650D01*
X11570658Y-16261650D02*
X11599229Y-16261650D01*
X11599229Y-16261650D02*
X11618277Y-16271174D01*
X11618277Y-16271174D02*
X11627801Y-16290222D01*
X11627801Y-16290222D02*
X11627801Y-16394984D01*
X11627801Y-16290222D02*
X11637324Y-16271174D01*
X11637324Y-16271174D02*
X11656372Y-16261650D01*
X11656372Y-16261650D02*
X11684943Y-16261650D01*
X11684943Y-16261650D02*
X11703991Y-16271174D01*
X11703991Y-16271174D02*
X11713515Y-16290222D01*
X11713515Y-16290222D02*
X11713515Y-16394984D01*
X12103991Y-16185460D02*
X11932563Y-16442603D01*
X12361134Y-16194984D02*
X12380182Y-16194984D01*
X12380182Y-16194984D02*
X12399229Y-16204508D01*
X12399229Y-16204508D02*
X12408753Y-16214031D01*
X12408753Y-16214031D02*
X12418277Y-16233079D01*
X12418277Y-16233079D02*
X12427801Y-16271174D01*
X12427801Y-16271174D02*
X12427801Y-16318793D01*
X12427801Y-16318793D02*
X12418277Y-16356888D01*
X12418277Y-16356888D02*
X12408753Y-16375936D01*
X12408753Y-16375936D02*
X12399229Y-16385460D01*
X12399229Y-16385460D02*
X12380182Y-16394984D01*
X12380182Y-16394984D02*
X12361134Y-16394984D01*
X12361134Y-16394984D02*
X12342086Y-16385460D01*
X12342086Y-16385460D02*
X12332563Y-16375936D01*
X12332563Y-16375936D02*
X12323039Y-16356888D01*
X12323039Y-16356888D02*
X12313515Y-16318793D01*
X12313515Y-16318793D02*
X12313515Y-16271174D01*
X12313515Y-16271174D02*
X12323039Y-16233079D01*
X12323039Y-16233079D02*
X12332563Y-16214031D01*
X12332563Y-16214031D02*
X12342086Y-16204508D01*
X12342086Y-16204508D02*
X12361134Y-16194984D01*
X12513515Y-16375936D02*
X12523039Y-16385460D01*
X12523039Y-16385460D02*
X12513515Y-16394984D01*
X12513515Y-16394984D02*
X12503991Y-16385460D01*
X12503991Y-16385460D02*
X12513515Y-16375936D01*
X12513515Y-16375936D02*
X12513515Y-16394984D01*
X12646848Y-16194984D02*
X12665896Y-16194984D01*
X12665896Y-16194984D02*
X12684944Y-16204508D01*
X12684944Y-16204508D02*
X12694467Y-16214031D01*
X12694467Y-16214031D02*
X12703991Y-16233079D01*
X12703991Y-16233079D02*
X12713515Y-16271174D01*
X12713515Y-16271174D02*
X12713515Y-16318793D01*
X12713515Y-16318793D02*
X12703991Y-16356888D01*
X12703991Y-16356888D02*
X12694467Y-16375936D01*
X12694467Y-16375936D02*
X12684944Y-16385460D01*
X12684944Y-16385460D02*
X12665896Y-16394984D01*
X12665896Y-16394984D02*
X12646848Y-16394984D01*
X12646848Y-16394984D02*
X12627801Y-16385460D01*
X12627801Y-16385460D02*
X12618277Y-16375936D01*
X12618277Y-16375936D02*
X12608753Y-16356888D01*
X12608753Y-16356888D02*
X12599229Y-16318793D01*
X12599229Y-16318793D02*
X12599229Y-16271174D01*
X12599229Y-16271174D02*
X12608753Y-16233079D01*
X12608753Y-16233079D02*
X12618277Y-16214031D01*
X12618277Y-16214031D02*
X12627801Y-16204508D01*
X12627801Y-16204508D02*
X12646848Y-16194984D01*
X12789706Y-16214031D02*
X12799229Y-16204508D01*
X12799229Y-16204508D02*
X12818277Y-16194984D01*
X12818277Y-16194984D02*
X12865896Y-16194984D01*
X12865896Y-16194984D02*
X12884944Y-16204508D01*
X12884944Y-16204508D02*
X12894467Y-16214031D01*
X12894467Y-16214031D02*
X12903991Y-16233079D01*
X12903991Y-16233079D02*
X12903991Y-16252127D01*
X12903991Y-16252127D02*
X12894467Y-16280698D01*
X12894467Y-16280698D02*
X12780182Y-16394984D01*
X12780182Y-16394984D02*
X12903991Y-16394984D01*
X12970658Y-16194984D02*
X13094467Y-16194984D01*
X13094467Y-16194984D02*
X13027801Y-16271174D01*
X13027801Y-16271174D02*
X13056372Y-16271174D01*
X13056372Y-16271174D02*
X13075420Y-16280698D01*
X13075420Y-16280698D02*
X13084944Y-16290222D01*
X13084944Y-16290222D02*
X13094467Y-16309269D01*
X13094467Y-16309269D02*
X13094467Y-16356888D01*
X13094467Y-16356888D02*
X13084944Y-16375936D01*
X13084944Y-16375936D02*
X13075420Y-16385460D01*
X13075420Y-16385460D02*
X13056372Y-16394984D01*
X13056372Y-16394984D02*
X12999229Y-16394984D01*
X12999229Y-16394984D02*
X12980182Y-16385460D01*
X12980182Y-16385460D02*
X12970658Y-16375936D01*
X13265896Y-16194984D02*
X13227801Y-16194984D01*
X13227801Y-16194984D02*
X13208753Y-16204508D01*
X13208753Y-16204508D02*
X13199229Y-16214031D01*
X13199229Y-16214031D02*
X13180182Y-16242603D01*
X13180182Y-16242603D02*
X13170658Y-16280698D01*
X13170658Y-16280698D02*
X13170658Y-16356888D01*
X13170658Y-16356888D02*
X13180182Y-16375936D01*
X13180182Y-16375936D02*
X13189706Y-16385460D01*
X13189706Y-16385460D02*
X13208753Y-16394984D01*
X13208753Y-16394984D02*
X13246848Y-16394984D01*
X13246848Y-16394984D02*
X13265896Y-16385460D01*
X13265896Y-16385460D02*
X13275420Y-16375936D01*
X13275420Y-16375936D02*
X13284944Y-16356888D01*
X13284944Y-16356888D02*
X13284944Y-16309269D01*
X13284944Y-16309269D02*
X13275420Y-16290222D01*
X13275420Y-16290222D02*
X13265896Y-16280698D01*
X13265896Y-16280698D02*
X13246848Y-16271174D01*
X13246848Y-16271174D02*
X13208753Y-16271174D01*
X13208753Y-16271174D02*
X13189706Y-16280698D01*
X13189706Y-16280698D02*
X13180182Y-16290222D01*
X13180182Y-16290222D02*
X13170658Y-16309269D01*
X13361134Y-16194984D02*
X13361134Y-16233079D01*
X13437325Y-16194984D02*
X13437325Y-16233079D01*
X13732563Y-16471174D02*
X13723039Y-16461650D01*
X13723039Y-16461650D02*
X13703991Y-16433079D01*
X13703991Y-16433079D02*
X13694468Y-16414031D01*
X13694468Y-16414031D02*
X13684944Y-16385460D01*
X13684944Y-16385460D02*
X13675420Y-16337841D01*
X13675420Y-16337841D02*
X13675420Y-16299746D01*
X13675420Y-16299746D02*
X13684944Y-16252127D01*
X13684944Y-16252127D02*
X13694468Y-16223555D01*
X13694468Y-16223555D02*
X13703991Y-16204508D01*
X13703991Y-16204508D02*
X13723039Y-16175936D01*
X13723039Y-16175936D02*
X13732563Y-16166412D01*
X13846848Y-16194984D02*
X13865896Y-16194984D01*
X13865896Y-16194984D02*
X13884944Y-16204508D01*
X13884944Y-16204508D02*
X13894468Y-16214031D01*
X13894468Y-16214031D02*
X13903991Y-16233079D01*
X13903991Y-16233079D02*
X13913515Y-16271174D01*
X13913515Y-16271174D02*
X13913515Y-16318793D01*
X13913515Y-16318793D02*
X13903991Y-16356888D01*
X13903991Y-16356888D02*
X13894468Y-16375936D01*
X13894468Y-16375936D02*
X13884944Y-16385460D01*
X13884944Y-16385460D02*
X13865896Y-16394984D01*
X13865896Y-16394984D02*
X13846848Y-16394984D01*
X13846848Y-16394984D02*
X13827801Y-16385460D01*
X13827801Y-16385460D02*
X13818277Y-16375936D01*
X13818277Y-16375936D02*
X13808753Y-16356888D01*
X13808753Y-16356888D02*
X13799229Y-16318793D01*
X13799229Y-16318793D02*
X13799229Y-16271174D01*
X13799229Y-16271174D02*
X13808753Y-16233079D01*
X13808753Y-16233079D02*
X13818277Y-16214031D01*
X13818277Y-16214031D02*
X13827801Y-16204508D01*
X13827801Y-16204508D02*
X13846848Y-16194984D01*
X14151610Y-16394984D02*
X14151610Y-16194984D01*
X14237325Y-16394984D02*
X14237325Y-16290222D01*
X14237325Y-16290222D02*
X14227801Y-16271174D01*
X14227801Y-16271174D02*
X14208753Y-16261650D01*
X14208753Y-16261650D02*
X14180182Y-16261650D01*
X14180182Y-16261650D02*
X14161134Y-16271174D01*
X14161134Y-16271174D02*
X14151610Y-16280698D01*
X14361134Y-16394984D02*
X14342087Y-16385460D01*
X14342087Y-16385460D02*
X14332563Y-16375936D01*
X14332563Y-16375936D02*
X14323039Y-16356888D01*
X14323039Y-16356888D02*
X14323039Y-16299746D01*
X14323039Y-16299746D02*
X14332563Y-16280698D01*
X14332563Y-16280698D02*
X14342087Y-16271174D01*
X14342087Y-16271174D02*
X14361134Y-16261650D01*
X14361134Y-16261650D02*
X14389706Y-16261650D01*
X14389706Y-16261650D02*
X14408753Y-16271174D01*
X14408753Y-16271174D02*
X14418277Y-16280698D01*
X14418277Y-16280698D02*
X14427801Y-16299746D01*
X14427801Y-16299746D02*
X14427801Y-16356888D01*
X14427801Y-16356888D02*
X14418277Y-16375936D01*
X14418277Y-16375936D02*
X14408753Y-16385460D01*
X14408753Y-16385460D02*
X14389706Y-16394984D01*
X14389706Y-16394984D02*
X14361134Y-16394984D01*
X14542087Y-16394984D02*
X14523039Y-16385460D01*
X14523039Y-16385460D02*
X14513515Y-16366412D01*
X14513515Y-16366412D02*
X14513515Y-16194984D01*
X14694468Y-16385460D02*
X14675420Y-16394984D01*
X14675420Y-16394984D02*
X14637325Y-16394984D01*
X14637325Y-16394984D02*
X14618277Y-16385460D01*
X14618277Y-16385460D02*
X14608753Y-16366412D01*
X14608753Y-16366412D02*
X14608753Y-16290222D01*
X14608753Y-16290222D02*
X14618277Y-16271174D01*
X14618277Y-16271174D02*
X14637325Y-16261650D01*
X14637325Y-16261650D02*
X14675420Y-16261650D01*
X14675420Y-16261650D02*
X14694468Y-16271174D01*
X14694468Y-16271174D02*
X14703991Y-16290222D01*
X14703991Y-16290222D02*
X14703991Y-16309269D01*
X14703991Y-16309269D02*
X14608753Y-16328317D01*
X14780182Y-16385460D02*
X14799230Y-16394984D01*
X14799230Y-16394984D02*
X14837325Y-16394984D01*
X14837325Y-16394984D02*
X14856372Y-16385460D01*
X14856372Y-16385460D02*
X14865896Y-16366412D01*
X14865896Y-16366412D02*
X14865896Y-16356888D01*
X14865896Y-16356888D02*
X14856372Y-16337841D01*
X14856372Y-16337841D02*
X14837325Y-16328317D01*
X14837325Y-16328317D02*
X14808753Y-16328317D01*
X14808753Y-16328317D02*
X14789706Y-16318793D01*
X14789706Y-16318793D02*
X14780182Y-16299746D01*
X14780182Y-16299746D02*
X14780182Y-16290222D01*
X14780182Y-16290222D02*
X14789706Y-16271174D01*
X14789706Y-16271174D02*
X14808753Y-16261650D01*
X14808753Y-16261650D02*
X14837325Y-16261650D01*
X14837325Y-16261650D02*
X14856372Y-16271174D01*
X15103992Y-16318793D02*
X15256373Y-16318793D01*
X15180182Y-16394984D02*
X15180182Y-16242603D01*
X15532563Y-16280698D02*
X15513515Y-16271174D01*
X15513515Y-16271174D02*
X15503992Y-16261650D01*
X15503992Y-16261650D02*
X15494468Y-16242603D01*
X15494468Y-16242603D02*
X15494468Y-16233079D01*
X15494468Y-16233079D02*
X15503992Y-16214031D01*
X15503992Y-16214031D02*
X15513515Y-16204508D01*
X15513515Y-16204508D02*
X15532563Y-16194984D01*
X15532563Y-16194984D02*
X15570658Y-16194984D01*
X15570658Y-16194984D02*
X15589706Y-16204508D01*
X15589706Y-16204508D02*
X15599230Y-16214031D01*
X15599230Y-16214031D02*
X15608753Y-16233079D01*
X15608753Y-16233079D02*
X15608753Y-16242603D01*
X15608753Y-16242603D02*
X15599230Y-16261650D01*
X15599230Y-16261650D02*
X15589706Y-16271174D01*
X15589706Y-16271174D02*
X15570658Y-16280698D01*
X15570658Y-16280698D02*
X15532563Y-16280698D01*
X15532563Y-16280698D02*
X15513515Y-16290222D01*
X15513515Y-16290222D02*
X15503992Y-16299746D01*
X15503992Y-16299746D02*
X15494468Y-16318793D01*
X15494468Y-16318793D02*
X15494468Y-16356888D01*
X15494468Y-16356888D02*
X15503992Y-16375936D01*
X15503992Y-16375936D02*
X15513515Y-16385460D01*
X15513515Y-16385460D02*
X15532563Y-16394984D01*
X15532563Y-16394984D02*
X15570658Y-16394984D01*
X15570658Y-16394984D02*
X15589706Y-16385460D01*
X15589706Y-16385460D02*
X15599230Y-16375936D01*
X15599230Y-16375936D02*
X15608753Y-16356888D01*
X15608753Y-16356888D02*
X15608753Y-16318793D01*
X15608753Y-16318793D02*
X15599230Y-16299746D01*
X15599230Y-16299746D02*
X15589706Y-16290222D01*
X15589706Y-16290222D02*
X15570658Y-16280698D01*
X15837325Y-16385460D02*
X15856373Y-16394984D01*
X15856373Y-16394984D02*
X15894468Y-16394984D01*
X15894468Y-16394984D02*
X15913515Y-16385460D01*
X15913515Y-16385460D02*
X15923039Y-16366412D01*
X15923039Y-16366412D02*
X15923039Y-16356888D01*
X15923039Y-16356888D02*
X15913515Y-16337841D01*
X15913515Y-16337841D02*
X15894468Y-16328317D01*
X15894468Y-16328317D02*
X15865896Y-16328317D01*
X15865896Y-16328317D02*
X15846849Y-16318793D01*
X15846849Y-16318793D02*
X15837325Y-16299746D01*
X15837325Y-16299746D02*
X15837325Y-16290222D01*
X15837325Y-16290222D02*
X15846849Y-16271174D01*
X15846849Y-16271174D02*
X15865896Y-16261650D01*
X15865896Y-16261650D02*
X15894468Y-16261650D01*
X15894468Y-16261650D02*
X15913515Y-16271174D01*
X16037325Y-16394984D02*
X16018277Y-16385460D01*
X16018277Y-16385460D02*
X16008754Y-16366412D01*
X16008754Y-16366412D02*
X16008754Y-16194984D01*
X16142087Y-16394984D02*
X16123039Y-16385460D01*
X16123039Y-16385460D02*
X16113515Y-16375936D01*
X16113515Y-16375936D02*
X16103992Y-16356888D01*
X16103992Y-16356888D02*
X16103992Y-16299746D01*
X16103992Y-16299746D02*
X16113515Y-16280698D01*
X16113515Y-16280698D02*
X16123039Y-16271174D01*
X16123039Y-16271174D02*
X16142087Y-16261650D01*
X16142087Y-16261650D02*
X16170658Y-16261650D01*
X16170658Y-16261650D02*
X16189706Y-16271174D01*
X16189706Y-16271174D02*
X16199230Y-16280698D01*
X16199230Y-16280698D02*
X16208754Y-16299746D01*
X16208754Y-16299746D02*
X16208754Y-16356888D01*
X16208754Y-16356888D02*
X16199230Y-16375936D01*
X16199230Y-16375936D02*
X16189706Y-16385460D01*
X16189706Y-16385460D02*
X16170658Y-16394984D01*
X16170658Y-16394984D02*
X16142087Y-16394984D01*
X16265896Y-16261650D02*
X16342087Y-16261650D01*
X16294468Y-16194984D02*
X16294468Y-16366412D01*
X16294468Y-16366412D02*
X16303992Y-16385460D01*
X16303992Y-16385460D02*
X16323039Y-16394984D01*
X16323039Y-16394984D02*
X16342087Y-16394984D01*
X16399230Y-16385460D02*
X16418277Y-16394984D01*
X16418277Y-16394984D02*
X16456373Y-16394984D01*
X16456373Y-16394984D02*
X16475420Y-16385460D01*
X16475420Y-16385460D02*
X16484944Y-16366412D01*
X16484944Y-16366412D02*
X16484944Y-16356888D01*
X16484944Y-16356888D02*
X16475420Y-16337841D01*
X16475420Y-16337841D02*
X16456373Y-16328317D01*
X16456373Y-16328317D02*
X16427801Y-16328317D01*
X16427801Y-16328317D02*
X16408754Y-16318793D01*
X16408754Y-16318793D02*
X16399230Y-16299746D01*
X16399230Y-16299746D02*
X16399230Y-16290222D01*
X16399230Y-16290222D02*
X16408754Y-16271174D01*
X16408754Y-16271174D02*
X16427801Y-16261650D01*
X16427801Y-16261650D02*
X16456373Y-16261650D01*
X16456373Y-16261650D02*
X16475420Y-16271174D01*
X16551611Y-16471174D02*
X16561135Y-16461650D01*
X16561135Y-16461650D02*
X16580182Y-16433079D01*
X16580182Y-16433079D02*
X16589706Y-16414031D01*
X16589706Y-16414031D02*
X16599230Y-16385460D01*
X16599230Y-16385460D02*
X16608754Y-16337841D01*
X16608754Y-16337841D02*
X16608754Y-16299746D01*
X16608754Y-16299746D02*
X16599230Y-16252127D01*
X16599230Y-16252127D02*
X16589706Y-16223555D01*
X16589706Y-16223555D02*
X16580182Y-16204508D01*
X16580182Y-16204508D02*
X16561135Y-16175936D01*
X16561135Y-16175936D02*
X16551611Y-16166412D01*
D12*
X10057500Y-16517500D02*
X10157500Y-16617500D01*
X10157500Y-16517500D02*
X10057500Y-16617500D01*
X10157500Y-16567500D02*
G75*
G02*
X10057500Y-16567500I-50000J0D01*
G01*
X10057500Y-16567500D02*
G75*
G02*
X10157500Y-16567500I50000J0D01*
G01*
D11*
X10523039Y-16658984D02*
X10408753Y-16658984D01*
X10465896Y-16658984D02*
X10465896Y-16458984D01*
X10465896Y-16458984D02*
X10446848Y-16487555D01*
X10446848Y-16487555D02*
X10427801Y-16506603D01*
X10427801Y-16506603D02*
X10408753Y-16516127D01*
X10608753Y-16639936D02*
X10618277Y-16649460D01*
X10618277Y-16649460D02*
X10608753Y-16658984D01*
X10608753Y-16658984D02*
X10599229Y-16649460D01*
X10599229Y-16649460D02*
X10608753Y-16639936D01*
X10608753Y-16639936D02*
X10608753Y-16658984D01*
X10742086Y-16458984D02*
X10761134Y-16458984D01*
X10761134Y-16458984D02*
X10780182Y-16468508D01*
X10780182Y-16468508D02*
X10789705Y-16478031D01*
X10789705Y-16478031D02*
X10799229Y-16497079D01*
X10799229Y-16497079D02*
X10808753Y-16535174D01*
X10808753Y-16535174D02*
X10808753Y-16582793D01*
X10808753Y-16582793D02*
X10799229Y-16620888D01*
X10799229Y-16620888D02*
X10789705Y-16639936D01*
X10789705Y-16639936D02*
X10780182Y-16649460D01*
X10780182Y-16649460D02*
X10761134Y-16658984D01*
X10761134Y-16658984D02*
X10742086Y-16658984D01*
X10742086Y-16658984D02*
X10723039Y-16649460D01*
X10723039Y-16649460D02*
X10713515Y-16639936D01*
X10713515Y-16639936D02*
X10703991Y-16620888D01*
X10703991Y-16620888D02*
X10694467Y-16582793D01*
X10694467Y-16582793D02*
X10694467Y-16535174D01*
X10694467Y-16535174D02*
X10703991Y-16497079D01*
X10703991Y-16497079D02*
X10713515Y-16478031D01*
X10713515Y-16478031D02*
X10723039Y-16468508D01*
X10723039Y-16468508D02*
X10742086Y-16458984D01*
X10932563Y-16458984D02*
X10951610Y-16458984D01*
X10951610Y-16458984D02*
X10970658Y-16468508D01*
X10970658Y-16468508D02*
X10980182Y-16478031D01*
X10980182Y-16478031D02*
X10989705Y-16497079D01*
X10989705Y-16497079D02*
X10999229Y-16535174D01*
X10999229Y-16535174D02*
X10999229Y-16582793D01*
X10999229Y-16582793D02*
X10989705Y-16620888D01*
X10989705Y-16620888D02*
X10980182Y-16639936D01*
X10980182Y-16639936D02*
X10970658Y-16649460D01*
X10970658Y-16649460D02*
X10951610Y-16658984D01*
X10951610Y-16658984D02*
X10932563Y-16658984D01*
X10932563Y-16658984D02*
X10913515Y-16649460D01*
X10913515Y-16649460D02*
X10903991Y-16639936D01*
X10903991Y-16639936D02*
X10894467Y-16620888D01*
X10894467Y-16620888D02*
X10884944Y-16582793D01*
X10884944Y-16582793D02*
X10884944Y-16535174D01*
X10884944Y-16535174D02*
X10894467Y-16497079D01*
X10894467Y-16497079D02*
X10903991Y-16478031D01*
X10903991Y-16478031D02*
X10913515Y-16468508D01*
X10913515Y-16468508D02*
X10932563Y-16458984D01*
X11123039Y-16458984D02*
X11142086Y-16458984D01*
X11142086Y-16458984D02*
X11161134Y-16468508D01*
X11161134Y-16468508D02*
X11170658Y-16478031D01*
X11170658Y-16478031D02*
X11180182Y-16497079D01*
X11180182Y-16497079D02*
X11189705Y-16535174D01*
X11189705Y-16535174D02*
X11189705Y-16582793D01*
X11189705Y-16582793D02*
X11180182Y-16620888D01*
X11180182Y-16620888D02*
X11170658Y-16639936D01*
X11170658Y-16639936D02*
X11161134Y-16649460D01*
X11161134Y-16649460D02*
X11142086Y-16658984D01*
X11142086Y-16658984D02*
X11123039Y-16658984D01*
X11123039Y-16658984D02*
X11103991Y-16649460D01*
X11103991Y-16649460D02*
X11094467Y-16639936D01*
X11094467Y-16639936D02*
X11084944Y-16620888D01*
X11084944Y-16620888D02*
X11075420Y-16582793D01*
X11075420Y-16582793D02*
X11075420Y-16535174D01*
X11075420Y-16535174D02*
X11084944Y-16497079D01*
X11084944Y-16497079D02*
X11094467Y-16478031D01*
X11094467Y-16478031D02*
X11103991Y-16468508D01*
X11103991Y-16468508D02*
X11123039Y-16458984D01*
X11275420Y-16658984D02*
X11275420Y-16525650D01*
X11275420Y-16544698D02*
X11284943Y-16535174D01*
X11284943Y-16535174D02*
X11303991Y-16525650D01*
X11303991Y-16525650D02*
X11332563Y-16525650D01*
X11332563Y-16525650D02*
X11351610Y-16535174D01*
X11351610Y-16535174D02*
X11361134Y-16554222D01*
X11361134Y-16554222D02*
X11361134Y-16658984D01*
X11361134Y-16554222D02*
X11370658Y-16535174D01*
X11370658Y-16535174D02*
X11389705Y-16525650D01*
X11389705Y-16525650D02*
X11418277Y-16525650D01*
X11418277Y-16525650D02*
X11437324Y-16535174D01*
X11437324Y-16535174D02*
X11446848Y-16554222D01*
X11446848Y-16554222D02*
X11446848Y-16658984D01*
X11542086Y-16658984D02*
X11542086Y-16525650D01*
X11542086Y-16544698D02*
X11551610Y-16535174D01*
X11551610Y-16535174D02*
X11570658Y-16525650D01*
X11570658Y-16525650D02*
X11599229Y-16525650D01*
X11599229Y-16525650D02*
X11618277Y-16535174D01*
X11618277Y-16535174D02*
X11627801Y-16554222D01*
X11627801Y-16554222D02*
X11627801Y-16658984D01*
X11627801Y-16554222D02*
X11637324Y-16535174D01*
X11637324Y-16535174D02*
X11656372Y-16525650D01*
X11656372Y-16525650D02*
X11684943Y-16525650D01*
X11684943Y-16525650D02*
X11703991Y-16535174D01*
X11703991Y-16535174D02*
X11713515Y-16554222D01*
X11713515Y-16554222D02*
X11713515Y-16658984D01*
X12103991Y-16449460D02*
X11932563Y-16706603D01*
X12361134Y-16458984D02*
X12380182Y-16458984D01*
X12380182Y-16458984D02*
X12399229Y-16468508D01*
X12399229Y-16468508D02*
X12408753Y-16478031D01*
X12408753Y-16478031D02*
X12418277Y-16497079D01*
X12418277Y-16497079D02*
X12427801Y-16535174D01*
X12427801Y-16535174D02*
X12427801Y-16582793D01*
X12427801Y-16582793D02*
X12418277Y-16620888D01*
X12418277Y-16620888D02*
X12408753Y-16639936D01*
X12408753Y-16639936D02*
X12399229Y-16649460D01*
X12399229Y-16649460D02*
X12380182Y-16658984D01*
X12380182Y-16658984D02*
X12361134Y-16658984D01*
X12361134Y-16658984D02*
X12342086Y-16649460D01*
X12342086Y-16649460D02*
X12332563Y-16639936D01*
X12332563Y-16639936D02*
X12323039Y-16620888D01*
X12323039Y-16620888D02*
X12313515Y-16582793D01*
X12313515Y-16582793D02*
X12313515Y-16535174D01*
X12313515Y-16535174D02*
X12323039Y-16497079D01*
X12323039Y-16497079D02*
X12332563Y-16478031D01*
X12332563Y-16478031D02*
X12342086Y-16468508D01*
X12342086Y-16468508D02*
X12361134Y-16458984D01*
X12513515Y-16639936D02*
X12523039Y-16649460D01*
X12523039Y-16649460D02*
X12513515Y-16658984D01*
X12513515Y-16658984D02*
X12503991Y-16649460D01*
X12503991Y-16649460D02*
X12513515Y-16639936D01*
X12513515Y-16639936D02*
X12513515Y-16658984D01*
X12646848Y-16458984D02*
X12665896Y-16458984D01*
X12665896Y-16458984D02*
X12684944Y-16468508D01*
X12684944Y-16468508D02*
X12694467Y-16478031D01*
X12694467Y-16478031D02*
X12703991Y-16497079D01*
X12703991Y-16497079D02*
X12713515Y-16535174D01*
X12713515Y-16535174D02*
X12713515Y-16582793D01*
X12713515Y-16582793D02*
X12703991Y-16620888D01*
X12703991Y-16620888D02*
X12694467Y-16639936D01*
X12694467Y-16639936D02*
X12684944Y-16649460D01*
X12684944Y-16649460D02*
X12665896Y-16658984D01*
X12665896Y-16658984D02*
X12646848Y-16658984D01*
X12646848Y-16658984D02*
X12627801Y-16649460D01*
X12627801Y-16649460D02*
X12618277Y-16639936D01*
X12618277Y-16639936D02*
X12608753Y-16620888D01*
X12608753Y-16620888D02*
X12599229Y-16582793D01*
X12599229Y-16582793D02*
X12599229Y-16535174D01*
X12599229Y-16535174D02*
X12608753Y-16497079D01*
X12608753Y-16497079D02*
X12618277Y-16478031D01*
X12618277Y-16478031D02*
X12627801Y-16468508D01*
X12627801Y-16468508D02*
X12646848Y-16458984D01*
X12780182Y-16458984D02*
X12903991Y-16458984D01*
X12903991Y-16458984D02*
X12837325Y-16535174D01*
X12837325Y-16535174D02*
X12865896Y-16535174D01*
X12865896Y-16535174D02*
X12884944Y-16544698D01*
X12884944Y-16544698D02*
X12894467Y-16554222D01*
X12894467Y-16554222D02*
X12903991Y-16573269D01*
X12903991Y-16573269D02*
X12903991Y-16620888D01*
X12903991Y-16620888D02*
X12894467Y-16639936D01*
X12894467Y-16639936D02*
X12884944Y-16649460D01*
X12884944Y-16649460D02*
X12865896Y-16658984D01*
X12865896Y-16658984D02*
X12808753Y-16658984D01*
X12808753Y-16658984D02*
X12789706Y-16649460D01*
X12789706Y-16649460D02*
X12780182Y-16639936D01*
X12999229Y-16658984D02*
X13037325Y-16658984D01*
X13037325Y-16658984D02*
X13056372Y-16649460D01*
X13056372Y-16649460D02*
X13065896Y-16639936D01*
X13065896Y-16639936D02*
X13084944Y-16611365D01*
X13084944Y-16611365D02*
X13094467Y-16573269D01*
X13094467Y-16573269D02*
X13094467Y-16497079D01*
X13094467Y-16497079D02*
X13084944Y-16478031D01*
X13084944Y-16478031D02*
X13075420Y-16468508D01*
X13075420Y-16468508D02*
X13056372Y-16458984D01*
X13056372Y-16458984D02*
X13018277Y-16458984D01*
X13018277Y-16458984D02*
X12999229Y-16468508D01*
X12999229Y-16468508D02*
X12989706Y-16478031D01*
X12989706Y-16478031D02*
X12980182Y-16497079D01*
X12980182Y-16497079D02*
X12980182Y-16544698D01*
X12980182Y-16544698D02*
X12989706Y-16563746D01*
X12989706Y-16563746D02*
X12999229Y-16573269D01*
X12999229Y-16573269D02*
X13018277Y-16582793D01*
X13018277Y-16582793D02*
X13056372Y-16582793D01*
X13056372Y-16582793D02*
X13075420Y-16573269D01*
X13075420Y-16573269D02*
X13084944Y-16563746D01*
X13084944Y-16563746D02*
X13094467Y-16544698D01*
X13265896Y-16525650D02*
X13265896Y-16658984D01*
X13218277Y-16449460D02*
X13170658Y-16592317D01*
X13170658Y-16592317D02*
X13294467Y-16592317D01*
X13361134Y-16458984D02*
X13361134Y-16497079D01*
X13437325Y-16458984D02*
X13437325Y-16497079D01*
X13732563Y-16735174D02*
X13723039Y-16725650D01*
X13723039Y-16725650D02*
X13703991Y-16697079D01*
X13703991Y-16697079D02*
X13694468Y-16678031D01*
X13694468Y-16678031D02*
X13684944Y-16649460D01*
X13684944Y-16649460D02*
X13675420Y-16601841D01*
X13675420Y-16601841D02*
X13675420Y-16563746D01*
X13675420Y-16563746D02*
X13684944Y-16516127D01*
X13684944Y-16516127D02*
X13694468Y-16487555D01*
X13694468Y-16487555D02*
X13703991Y-16468508D01*
X13703991Y-16468508D02*
X13723039Y-16439936D01*
X13723039Y-16439936D02*
X13732563Y-16430412D01*
X13789706Y-16458984D02*
X13913515Y-16458984D01*
X13913515Y-16458984D02*
X13846848Y-16535174D01*
X13846848Y-16535174D02*
X13875420Y-16535174D01*
X13875420Y-16535174D02*
X13894468Y-16544698D01*
X13894468Y-16544698D02*
X13903991Y-16554222D01*
X13903991Y-16554222D02*
X13913515Y-16573269D01*
X13913515Y-16573269D02*
X13913515Y-16620888D01*
X13913515Y-16620888D02*
X13903991Y-16639936D01*
X13903991Y-16639936D02*
X13894468Y-16649460D01*
X13894468Y-16649460D02*
X13875420Y-16658984D01*
X13875420Y-16658984D02*
X13818277Y-16658984D01*
X13818277Y-16658984D02*
X13799229Y-16649460D01*
X13799229Y-16649460D02*
X13789706Y-16639936D01*
X14084944Y-16525650D02*
X14084944Y-16658984D01*
X14037325Y-16449460D02*
X13989706Y-16592317D01*
X13989706Y-16592317D02*
X14113515Y-16592317D01*
X14342087Y-16658984D02*
X14342087Y-16458984D01*
X14427801Y-16658984D02*
X14427801Y-16554222D01*
X14427801Y-16554222D02*
X14418277Y-16535174D01*
X14418277Y-16535174D02*
X14399230Y-16525650D01*
X14399230Y-16525650D02*
X14370658Y-16525650D01*
X14370658Y-16525650D02*
X14351610Y-16535174D01*
X14351610Y-16535174D02*
X14342087Y-16544698D01*
X14551610Y-16658984D02*
X14532563Y-16649460D01*
X14532563Y-16649460D02*
X14523039Y-16639936D01*
X14523039Y-16639936D02*
X14513515Y-16620888D01*
X14513515Y-16620888D02*
X14513515Y-16563746D01*
X14513515Y-16563746D02*
X14523039Y-16544698D01*
X14523039Y-16544698D02*
X14532563Y-16535174D01*
X14532563Y-16535174D02*
X14551610Y-16525650D01*
X14551610Y-16525650D02*
X14580182Y-16525650D01*
X14580182Y-16525650D02*
X14599230Y-16535174D01*
X14599230Y-16535174D02*
X14608753Y-16544698D01*
X14608753Y-16544698D02*
X14618277Y-16563746D01*
X14618277Y-16563746D02*
X14618277Y-16620888D01*
X14618277Y-16620888D02*
X14608753Y-16639936D01*
X14608753Y-16639936D02*
X14599230Y-16649460D01*
X14599230Y-16649460D02*
X14580182Y-16658984D01*
X14580182Y-16658984D02*
X14551610Y-16658984D01*
X14732563Y-16658984D02*
X14713515Y-16649460D01*
X14713515Y-16649460D02*
X14703991Y-16630412D01*
X14703991Y-16630412D02*
X14703991Y-16458984D01*
X14884944Y-16649460D02*
X14865896Y-16658984D01*
X14865896Y-16658984D02*
X14827801Y-16658984D01*
X14827801Y-16658984D02*
X14808753Y-16649460D01*
X14808753Y-16649460D02*
X14799230Y-16630412D01*
X14799230Y-16630412D02*
X14799230Y-16554222D01*
X14799230Y-16554222D02*
X14808753Y-16535174D01*
X14808753Y-16535174D02*
X14827801Y-16525650D01*
X14827801Y-16525650D02*
X14865896Y-16525650D01*
X14865896Y-16525650D02*
X14884944Y-16535174D01*
X14884944Y-16535174D02*
X14894468Y-16554222D01*
X14894468Y-16554222D02*
X14894468Y-16573269D01*
X14894468Y-16573269D02*
X14799230Y-16592317D01*
X14970658Y-16649460D02*
X14989706Y-16658984D01*
X14989706Y-16658984D02*
X15027801Y-16658984D01*
X15027801Y-16658984D02*
X15046849Y-16649460D01*
X15046849Y-16649460D02*
X15056372Y-16630412D01*
X15056372Y-16630412D02*
X15056372Y-16620888D01*
X15056372Y-16620888D02*
X15046849Y-16601841D01*
X15046849Y-16601841D02*
X15027801Y-16592317D01*
X15027801Y-16592317D02*
X14999230Y-16592317D01*
X14999230Y-16592317D02*
X14980182Y-16582793D01*
X14980182Y-16582793D02*
X14970658Y-16563746D01*
X14970658Y-16563746D02*
X14970658Y-16554222D01*
X14970658Y-16554222D02*
X14980182Y-16535174D01*
X14980182Y-16535174D02*
X14999230Y-16525650D01*
X14999230Y-16525650D02*
X15027801Y-16525650D01*
X15027801Y-16525650D02*
X15046849Y-16535174D01*
X15123039Y-16735174D02*
X15132563Y-16725650D01*
X15132563Y-16725650D02*
X15151611Y-16697079D01*
X15151611Y-16697079D02*
X15161134Y-16678031D01*
X15161134Y-16678031D02*
X15170658Y-16649460D01*
X15170658Y-16649460D02*
X15180182Y-16601841D01*
X15180182Y-16601841D02*
X15180182Y-16563746D01*
X15180182Y-16563746D02*
X15170658Y-16516127D01*
X15170658Y-16516127D02*
X15161134Y-16487555D01*
X15161134Y-16487555D02*
X15151611Y-16468508D01*
X15151611Y-16468508D02*
X15132563Y-16439936D01*
X15132563Y-16439936D02*
X15123039Y-16430412D01*
X9957500Y-16731500D02*
X10157500Y-16931500D01*
X10157500Y-16731500D02*
X9957500Y-16931500D01*
X10057500Y-16731500D02*
X10057500Y-16931500D01*
X9957500Y-16831500D02*
X10157500Y-16831500D01*
X10399229Y-16722984D02*
X10523039Y-16722984D01*
X10523039Y-16722984D02*
X10456372Y-16799174D01*
X10456372Y-16799174D02*
X10484944Y-16799174D01*
X10484944Y-16799174D02*
X10503991Y-16808698D01*
X10503991Y-16808698D02*
X10513515Y-16818222D01*
X10513515Y-16818222D02*
X10523039Y-16837270D01*
X10523039Y-16837270D02*
X10523039Y-16884889D01*
X10523039Y-16884889D02*
X10513515Y-16903936D01*
X10513515Y-16903936D02*
X10503991Y-16913460D01*
X10503991Y-16913460D02*
X10484944Y-16922984D01*
X10484944Y-16922984D02*
X10427801Y-16922984D01*
X10427801Y-16922984D02*
X10408753Y-16913460D01*
X10408753Y-16913460D02*
X10399229Y-16903936D01*
X10608753Y-16903936D02*
X10618277Y-16913460D01*
X10618277Y-16913460D02*
X10608753Y-16922984D01*
X10608753Y-16922984D02*
X10599229Y-16913460D01*
X10599229Y-16913460D02*
X10608753Y-16903936D01*
X10608753Y-16903936D02*
X10608753Y-16922984D01*
X10742086Y-16722984D02*
X10761134Y-16722984D01*
X10761134Y-16722984D02*
X10780182Y-16732508D01*
X10780182Y-16732508D02*
X10789705Y-16742031D01*
X10789705Y-16742031D02*
X10799229Y-16761079D01*
X10799229Y-16761079D02*
X10808753Y-16799174D01*
X10808753Y-16799174D02*
X10808753Y-16846793D01*
X10808753Y-16846793D02*
X10799229Y-16884889D01*
X10799229Y-16884889D02*
X10789705Y-16903936D01*
X10789705Y-16903936D02*
X10780182Y-16913460D01*
X10780182Y-16913460D02*
X10761134Y-16922984D01*
X10761134Y-16922984D02*
X10742086Y-16922984D01*
X10742086Y-16922984D02*
X10723039Y-16913460D01*
X10723039Y-16913460D02*
X10713515Y-16903936D01*
X10713515Y-16903936D02*
X10703991Y-16884889D01*
X10703991Y-16884889D02*
X10694467Y-16846793D01*
X10694467Y-16846793D02*
X10694467Y-16799174D01*
X10694467Y-16799174D02*
X10703991Y-16761079D01*
X10703991Y-16761079D02*
X10713515Y-16742031D01*
X10713515Y-16742031D02*
X10723039Y-16732508D01*
X10723039Y-16732508D02*
X10742086Y-16722984D01*
X10932563Y-16722984D02*
X10951610Y-16722984D01*
X10951610Y-16722984D02*
X10970658Y-16732508D01*
X10970658Y-16732508D02*
X10980182Y-16742031D01*
X10980182Y-16742031D02*
X10989705Y-16761079D01*
X10989705Y-16761079D02*
X10999229Y-16799174D01*
X10999229Y-16799174D02*
X10999229Y-16846793D01*
X10999229Y-16846793D02*
X10989705Y-16884889D01*
X10989705Y-16884889D02*
X10980182Y-16903936D01*
X10980182Y-16903936D02*
X10970658Y-16913460D01*
X10970658Y-16913460D02*
X10951610Y-16922984D01*
X10951610Y-16922984D02*
X10932563Y-16922984D01*
X10932563Y-16922984D02*
X10913515Y-16913460D01*
X10913515Y-16913460D02*
X10903991Y-16903936D01*
X10903991Y-16903936D02*
X10894467Y-16884889D01*
X10894467Y-16884889D02*
X10884944Y-16846793D01*
X10884944Y-16846793D02*
X10884944Y-16799174D01*
X10884944Y-16799174D02*
X10894467Y-16761079D01*
X10894467Y-16761079D02*
X10903991Y-16742031D01*
X10903991Y-16742031D02*
X10913515Y-16732508D01*
X10913515Y-16732508D02*
X10932563Y-16722984D01*
X11123039Y-16722984D02*
X11142086Y-16722984D01*
X11142086Y-16722984D02*
X11161134Y-16732508D01*
X11161134Y-16732508D02*
X11170658Y-16742031D01*
X11170658Y-16742031D02*
X11180182Y-16761079D01*
X11180182Y-16761079D02*
X11189705Y-16799174D01*
X11189705Y-16799174D02*
X11189705Y-16846793D01*
X11189705Y-16846793D02*
X11180182Y-16884889D01*
X11180182Y-16884889D02*
X11170658Y-16903936D01*
X11170658Y-16903936D02*
X11161134Y-16913460D01*
X11161134Y-16913460D02*
X11142086Y-16922984D01*
X11142086Y-16922984D02*
X11123039Y-16922984D01*
X11123039Y-16922984D02*
X11103991Y-16913460D01*
X11103991Y-16913460D02*
X11094467Y-16903936D01*
X11094467Y-16903936D02*
X11084944Y-16884889D01*
X11084944Y-16884889D02*
X11075420Y-16846793D01*
X11075420Y-16846793D02*
X11075420Y-16799174D01*
X11075420Y-16799174D02*
X11084944Y-16761079D01*
X11084944Y-16761079D02*
X11094467Y-16742031D01*
X11094467Y-16742031D02*
X11103991Y-16732508D01*
X11103991Y-16732508D02*
X11123039Y-16722984D01*
X11275420Y-16922984D02*
X11275420Y-16789650D01*
X11275420Y-16808698D02*
X11284943Y-16799174D01*
X11284943Y-16799174D02*
X11303991Y-16789650D01*
X11303991Y-16789650D02*
X11332563Y-16789650D01*
X11332563Y-16789650D02*
X11351610Y-16799174D01*
X11351610Y-16799174D02*
X11361134Y-16818222D01*
X11361134Y-16818222D02*
X11361134Y-16922984D01*
X11361134Y-16818222D02*
X11370658Y-16799174D01*
X11370658Y-16799174D02*
X11389705Y-16789650D01*
X11389705Y-16789650D02*
X11418277Y-16789650D01*
X11418277Y-16789650D02*
X11437324Y-16799174D01*
X11437324Y-16799174D02*
X11446848Y-16818222D01*
X11446848Y-16818222D02*
X11446848Y-16922984D01*
X11542086Y-16922984D02*
X11542086Y-16789650D01*
X11542086Y-16808698D02*
X11551610Y-16799174D01*
X11551610Y-16799174D02*
X11570658Y-16789650D01*
X11570658Y-16789650D02*
X11599229Y-16789650D01*
X11599229Y-16789650D02*
X11618277Y-16799174D01*
X11618277Y-16799174D02*
X11627801Y-16818222D01*
X11627801Y-16818222D02*
X11627801Y-16922984D01*
X11627801Y-16818222D02*
X11637324Y-16799174D01*
X11637324Y-16799174D02*
X11656372Y-16789650D01*
X11656372Y-16789650D02*
X11684943Y-16789650D01*
X11684943Y-16789650D02*
X11703991Y-16799174D01*
X11703991Y-16799174D02*
X11713515Y-16818222D01*
X11713515Y-16818222D02*
X11713515Y-16922984D01*
X12103991Y-16713460D02*
X11932563Y-16970603D01*
X12361134Y-16722984D02*
X12380182Y-16722984D01*
X12380182Y-16722984D02*
X12399229Y-16732508D01*
X12399229Y-16732508D02*
X12408753Y-16742031D01*
X12408753Y-16742031D02*
X12418277Y-16761079D01*
X12418277Y-16761079D02*
X12427801Y-16799174D01*
X12427801Y-16799174D02*
X12427801Y-16846793D01*
X12427801Y-16846793D02*
X12418277Y-16884889D01*
X12418277Y-16884889D02*
X12408753Y-16903936D01*
X12408753Y-16903936D02*
X12399229Y-16913460D01*
X12399229Y-16913460D02*
X12380182Y-16922984D01*
X12380182Y-16922984D02*
X12361134Y-16922984D01*
X12361134Y-16922984D02*
X12342086Y-16913460D01*
X12342086Y-16913460D02*
X12332563Y-16903936D01*
X12332563Y-16903936D02*
X12323039Y-16884889D01*
X12323039Y-16884889D02*
X12313515Y-16846793D01*
X12313515Y-16846793D02*
X12313515Y-16799174D01*
X12313515Y-16799174D02*
X12323039Y-16761079D01*
X12323039Y-16761079D02*
X12332563Y-16742031D01*
X12332563Y-16742031D02*
X12342086Y-16732508D01*
X12342086Y-16732508D02*
X12361134Y-16722984D01*
X12513515Y-16903936D02*
X12523039Y-16913460D01*
X12523039Y-16913460D02*
X12513515Y-16922984D01*
X12513515Y-16922984D02*
X12503991Y-16913460D01*
X12503991Y-16913460D02*
X12513515Y-16903936D01*
X12513515Y-16903936D02*
X12513515Y-16922984D01*
X12713515Y-16922984D02*
X12599229Y-16922984D01*
X12656372Y-16922984D02*
X12656372Y-16722984D01*
X12656372Y-16722984D02*
X12637325Y-16751555D01*
X12637325Y-16751555D02*
X12618277Y-16770603D01*
X12618277Y-16770603D02*
X12599229Y-16780127D01*
X12903991Y-16922984D02*
X12789706Y-16922984D01*
X12846848Y-16922984D02*
X12846848Y-16722984D01*
X12846848Y-16722984D02*
X12827801Y-16751555D01*
X12827801Y-16751555D02*
X12808753Y-16770603D01*
X12808753Y-16770603D02*
X12789706Y-16780127D01*
X13018277Y-16808698D02*
X12999229Y-16799174D01*
X12999229Y-16799174D02*
X12989706Y-16789650D01*
X12989706Y-16789650D02*
X12980182Y-16770603D01*
X12980182Y-16770603D02*
X12980182Y-16761079D01*
X12980182Y-16761079D02*
X12989706Y-16742031D01*
X12989706Y-16742031D02*
X12999229Y-16732508D01*
X12999229Y-16732508D02*
X13018277Y-16722984D01*
X13018277Y-16722984D02*
X13056372Y-16722984D01*
X13056372Y-16722984D02*
X13075420Y-16732508D01*
X13075420Y-16732508D02*
X13084944Y-16742031D01*
X13084944Y-16742031D02*
X13094467Y-16761079D01*
X13094467Y-16761079D02*
X13094467Y-16770603D01*
X13094467Y-16770603D02*
X13084944Y-16789650D01*
X13084944Y-16789650D02*
X13075420Y-16799174D01*
X13075420Y-16799174D02*
X13056372Y-16808698D01*
X13056372Y-16808698D02*
X13018277Y-16808698D01*
X13018277Y-16808698D02*
X12999229Y-16818222D01*
X12999229Y-16818222D02*
X12989706Y-16827746D01*
X12989706Y-16827746D02*
X12980182Y-16846793D01*
X12980182Y-16846793D02*
X12980182Y-16884889D01*
X12980182Y-16884889D02*
X12989706Y-16903936D01*
X12989706Y-16903936D02*
X12999229Y-16913460D01*
X12999229Y-16913460D02*
X13018277Y-16922984D01*
X13018277Y-16922984D02*
X13056372Y-16922984D01*
X13056372Y-16922984D02*
X13075420Y-16913460D01*
X13075420Y-16913460D02*
X13084944Y-16903936D01*
X13084944Y-16903936D02*
X13094467Y-16884889D01*
X13094467Y-16884889D02*
X13094467Y-16846793D01*
X13094467Y-16846793D02*
X13084944Y-16827746D01*
X13084944Y-16827746D02*
X13075420Y-16818222D01*
X13075420Y-16818222D02*
X13056372Y-16808698D01*
X13284944Y-16922984D02*
X13170658Y-16922984D01*
X13227801Y-16922984D02*
X13227801Y-16722984D01*
X13227801Y-16722984D02*
X13208753Y-16751555D01*
X13208753Y-16751555D02*
X13189706Y-16770603D01*
X13189706Y-16770603D02*
X13170658Y-16780127D01*
X13361134Y-16722984D02*
X13361134Y-16761079D01*
X13437325Y-16722984D02*
X13437325Y-16761079D01*
X13732563Y-16999174D02*
X13723039Y-16989650D01*
X13723039Y-16989650D02*
X13703991Y-16961079D01*
X13703991Y-16961079D02*
X13694468Y-16942031D01*
X13694468Y-16942031D02*
X13684944Y-16913460D01*
X13684944Y-16913460D02*
X13675420Y-16865841D01*
X13675420Y-16865841D02*
X13675420Y-16827746D01*
X13675420Y-16827746D02*
X13684944Y-16780127D01*
X13684944Y-16780127D02*
X13694468Y-16751555D01*
X13694468Y-16751555D02*
X13703991Y-16732508D01*
X13703991Y-16732508D02*
X13723039Y-16703936D01*
X13723039Y-16703936D02*
X13732563Y-16694412D01*
X13894468Y-16789650D02*
X13894468Y-16922984D01*
X13846848Y-16713460D02*
X13799229Y-16856317D01*
X13799229Y-16856317D02*
X13923039Y-16856317D01*
X14151610Y-16922984D02*
X14151610Y-16722984D01*
X14237325Y-16922984D02*
X14237325Y-16818222D01*
X14237325Y-16818222D02*
X14227801Y-16799174D01*
X14227801Y-16799174D02*
X14208753Y-16789650D01*
X14208753Y-16789650D02*
X14180182Y-16789650D01*
X14180182Y-16789650D02*
X14161134Y-16799174D01*
X14161134Y-16799174D02*
X14151610Y-16808698D01*
X14361134Y-16922984D02*
X14342087Y-16913460D01*
X14342087Y-16913460D02*
X14332563Y-16903936D01*
X14332563Y-16903936D02*
X14323039Y-16884889D01*
X14323039Y-16884889D02*
X14323039Y-16827746D01*
X14323039Y-16827746D02*
X14332563Y-16808698D01*
X14332563Y-16808698D02*
X14342087Y-16799174D01*
X14342087Y-16799174D02*
X14361134Y-16789650D01*
X14361134Y-16789650D02*
X14389706Y-16789650D01*
X14389706Y-16789650D02*
X14408753Y-16799174D01*
X14408753Y-16799174D02*
X14418277Y-16808698D01*
X14418277Y-16808698D02*
X14427801Y-16827746D01*
X14427801Y-16827746D02*
X14427801Y-16884889D01*
X14427801Y-16884889D02*
X14418277Y-16903936D01*
X14418277Y-16903936D02*
X14408753Y-16913460D01*
X14408753Y-16913460D02*
X14389706Y-16922984D01*
X14389706Y-16922984D02*
X14361134Y-16922984D01*
X14542087Y-16922984D02*
X14523039Y-16913460D01*
X14523039Y-16913460D02*
X14513515Y-16894412D01*
X14513515Y-16894412D02*
X14513515Y-16722984D01*
X14694468Y-16913460D02*
X14675420Y-16922984D01*
X14675420Y-16922984D02*
X14637325Y-16922984D01*
X14637325Y-16922984D02*
X14618277Y-16913460D01*
X14618277Y-16913460D02*
X14608753Y-16894412D01*
X14608753Y-16894412D02*
X14608753Y-16818222D01*
X14608753Y-16818222D02*
X14618277Y-16799174D01*
X14618277Y-16799174D02*
X14637325Y-16789650D01*
X14637325Y-16789650D02*
X14675420Y-16789650D01*
X14675420Y-16789650D02*
X14694468Y-16799174D01*
X14694468Y-16799174D02*
X14703991Y-16818222D01*
X14703991Y-16818222D02*
X14703991Y-16837270D01*
X14703991Y-16837270D02*
X14608753Y-16856317D01*
X14780182Y-16913460D02*
X14799230Y-16922984D01*
X14799230Y-16922984D02*
X14837325Y-16922984D01*
X14837325Y-16922984D02*
X14856372Y-16913460D01*
X14856372Y-16913460D02*
X14865896Y-16894412D01*
X14865896Y-16894412D02*
X14865896Y-16884889D01*
X14865896Y-16884889D02*
X14856372Y-16865841D01*
X14856372Y-16865841D02*
X14837325Y-16856317D01*
X14837325Y-16856317D02*
X14808753Y-16856317D01*
X14808753Y-16856317D02*
X14789706Y-16846793D01*
X14789706Y-16846793D02*
X14780182Y-16827746D01*
X14780182Y-16827746D02*
X14780182Y-16818222D01*
X14780182Y-16818222D02*
X14789706Y-16799174D01*
X14789706Y-16799174D02*
X14808753Y-16789650D01*
X14808753Y-16789650D02*
X14837325Y-16789650D01*
X14837325Y-16789650D02*
X14856372Y-16799174D01*
X14932563Y-16999174D02*
X14942087Y-16989650D01*
X14942087Y-16989650D02*
X14961134Y-16961079D01*
X14961134Y-16961079D02*
X14970658Y-16942031D01*
X14970658Y-16942031D02*
X14980182Y-16913460D01*
X14980182Y-16913460D02*
X14989706Y-16865841D01*
X14989706Y-16865841D02*
X14989706Y-16827746D01*
X14989706Y-16827746D02*
X14980182Y-16780127D01*
X14980182Y-16780127D02*
X14970658Y-16751555D01*
X14970658Y-16751555D02*
X14961134Y-16732508D01*
X14961134Y-16732508D02*
X14942087Y-16703936D01*
X14942087Y-16703936D02*
X14932563Y-16694412D01*
X9957500Y-17051500D02*
X10157500Y-17251500D01*
X10157500Y-17051500D02*
X9957500Y-17251500D01*
X10128211Y-17222211D02*
X10128211Y-17080789D01*
X9986789Y-17080789D01*
X9986789Y-17222211D01*
X10128211Y-17222211D01*
X10399229Y-17042984D02*
X10523039Y-17042984D01*
X10523039Y-17042984D02*
X10456372Y-17119174D01*
X10456372Y-17119174D02*
X10484944Y-17119174D01*
X10484944Y-17119174D02*
X10503991Y-17128698D01*
X10503991Y-17128698D02*
X10513515Y-17138222D01*
X10513515Y-17138222D02*
X10523039Y-17157270D01*
X10523039Y-17157270D02*
X10523039Y-17204889D01*
X10523039Y-17204889D02*
X10513515Y-17223936D01*
X10513515Y-17223936D02*
X10503991Y-17233460D01*
X10503991Y-17233460D02*
X10484944Y-17242984D01*
X10484944Y-17242984D02*
X10427801Y-17242984D01*
X10427801Y-17242984D02*
X10408753Y-17233460D01*
X10408753Y-17233460D02*
X10399229Y-17223936D01*
X10608753Y-17223936D02*
X10618277Y-17233460D01*
X10618277Y-17233460D02*
X10608753Y-17242984D01*
X10608753Y-17242984D02*
X10599229Y-17233460D01*
X10599229Y-17233460D02*
X10608753Y-17223936D01*
X10608753Y-17223936D02*
X10608753Y-17242984D01*
X10694467Y-17062031D02*
X10703991Y-17052508D01*
X10703991Y-17052508D02*
X10723039Y-17042984D01*
X10723039Y-17042984D02*
X10770658Y-17042984D01*
X10770658Y-17042984D02*
X10789705Y-17052508D01*
X10789705Y-17052508D02*
X10799229Y-17062031D01*
X10799229Y-17062031D02*
X10808753Y-17081079D01*
X10808753Y-17081079D02*
X10808753Y-17100127D01*
X10808753Y-17100127D02*
X10799229Y-17128698D01*
X10799229Y-17128698D02*
X10684944Y-17242984D01*
X10684944Y-17242984D02*
X10808753Y-17242984D01*
X10932563Y-17042984D02*
X10951610Y-17042984D01*
X10951610Y-17042984D02*
X10970658Y-17052508D01*
X10970658Y-17052508D02*
X10980182Y-17062031D01*
X10980182Y-17062031D02*
X10989705Y-17081079D01*
X10989705Y-17081079D02*
X10999229Y-17119174D01*
X10999229Y-17119174D02*
X10999229Y-17166793D01*
X10999229Y-17166793D02*
X10989705Y-17204889D01*
X10989705Y-17204889D02*
X10980182Y-17223936D01*
X10980182Y-17223936D02*
X10970658Y-17233460D01*
X10970658Y-17233460D02*
X10951610Y-17242984D01*
X10951610Y-17242984D02*
X10932563Y-17242984D01*
X10932563Y-17242984D02*
X10913515Y-17233460D01*
X10913515Y-17233460D02*
X10903991Y-17223936D01*
X10903991Y-17223936D02*
X10894467Y-17204889D01*
X10894467Y-17204889D02*
X10884944Y-17166793D01*
X10884944Y-17166793D02*
X10884944Y-17119174D01*
X10884944Y-17119174D02*
X10894467Y-17081079D01*
X10894467Y-17081079D02*
X10903991Y-17062031D01*
X10903991Y-17062031D02*
X10913515Y-17052508D01*
X10913515Y-17052508D02*
X10932563Y-17042984D01*
X11123039Y-17042984D02*
X11142086Y-17042984D01*
X11142086Y-17042984D02*
X11161134Y-17052508D01*
X11161134Y-17052508D02*
X11170658Y-17062031D01*
X11170658Y-17062031D02*
X11180182Y-17081079D01*
X11180182Y-17081079D02*
X11189705Y-17119174D01*
X11189705Y-17119174D02*
X11189705Y-17166793D01*
X11189705Y-17166793D02*
X11180182Y-17204889D01*
X11180182Y-17204889D02*
X11170658Y-17223936D01*
X11170658Y-17223936D02*
X11161134Y-17233460D01*
X11161134Y-17233460D02*
X11142086Y-17242984D01*
X11142086Y-17242984D02*
X11123039Y-17242984D01*
X11123039Y-17242984D02*
X11103991Y-17233460D01*
X11103991Y-17233460D02*
X11094467Y-17223936D01*
X11094467Y-17223936D02*
X11084944Y-17204889D01*
X11084944Y-17204889D02*
X11075420Y-17166793D01*
X11075420Y-17166793D02*
X11075420Y-17119174D01*
X11075420Y-17119174D02*
X11084944Y-17081079D01*
X11084944Y-17081079D02*
X11094467Y-17062031D01*
X11094467Y-17062031D02*
X11103991Y-17052508D01*
X11103991Y-17052508D02*
X11123039Y-17042984D01*
X11275420Y-17242984D02*
X11275420Y-17109650D01*
X11275420Y-17128698D02*
X11284943Y-17119174D01*
X11284943Y-17119174D02*
X11303991Y-17109650D01*
X11303991Y-17109650D02*
X11332563Y-17109650D01*
X11332563Y-17109650D02*
X11351610Y-17119174D01*
X11351610Y-17119174D02*
X11361134Y-17138222D01*
X11361134Y-17138222D02*
X11361134Y-17242984D01*
X11361134Y-17138222D02*
X11370658Y-17119174D01*
X11370658Y-17119174D02*
X11389705Y-17109650D01*
X11389705Y-17109650D02*
X11418277Y-17109650D01*
X11418277Y-17109650D02*
X11437324Y-17119174D01*
X11437324Y-17119174D02*
X11446848Y-17138222D01*
X11446848Y-17138222D02*
X11446848Y-17242984D01*
X11542086Y-17242984D02*
X11542086Y-17109650D01*
X11542086Y-17128698D02*
X11551610Y-17119174D01*
X11551610Y-17119174D02*
X11570658Y-17109650D01*
X11570658Y-17109650D02*
X11599229Y-17109650D01*
X11599229Y-17109650D02*
X11618277Y-17119174D01*
X11618277Y-17119174D02*
X11627801Y-17138222D01*
X11627801Y-17138222D02*
X11627801Y-17242984D01*
X11627801Y-17138222D02*
X11637324Y-17119174D01*
X11637324Y-17119174D02*
X11656372Y-17109650D01*
X11656372Y-17109650D02*
X11684943Y-17109650D01*
X11684943Y-17109650D02*
X11703991Y-17119174D01*
X11703991Y-17119174D02*
X11713515Y-17138222D01*
X11713515Y-17138222D02*
X11713515Y-17242984D01*
X12103991Y-17033460D02*
X11932563Y-17290603D01*
X12361134Y-17042984D02*
X12380182Y-17042984D01*
X12380182Y-17042984D02*
X12399229Y-17052508D01*
X12399229Y-17052508D02*
X12408753Y-17062031D01*
X12408753Y-17062031D02*
X12418277Y-17081079D01*
X12418277Y-17081079D02*
X12427801Y-17119174D01*
X12427801Y-17119174D02*
X12427801Y-17166793D01*
X12427801Y-17166793D02*
X12418277Y-17204889D01*
X12418277Y-17204889D02*
X12408753Y-17223936D01*
X12408753Y-17223936D02*
X12399229Y-17233460D01*
X12399229Y-17233460D02*
X12380182Y-17242984D01*
X12380182Y-17242984D02*
X12361134Y-17242984D01*
X12361134Y-17242984D02*
X12342086Y-17233460D01*
X12342086Y-17233460D02*
X12332563Y-17223936D01*
X12332563Y-17223936D02*
X12323039Y-17204889D01*
X12323039Y-17204889D02*
X12313515Y-17166793D01*
X12313515Y-17166793D02*
X12313515Y-17119174D01*
X12313515Y-17119174D02*
X12323039Y-17081079D01*
X12323039Y-17081079D02*
X12332563Y-17062031D01*
X12332563Y-17062031D02*
X12342086Y-17052508D01*
X12342086Y-17052508D02*
X12361134Y-17042984D01*
X12513515Y-17223936D02*
X12523039Y-17233460D01*
X12523039Y-17233460D02*
X12513515Y-17242984D01*
X12513515Y-17242984D02*
X12503991Y-17233460D01*
X12503991Y-17233460D02*
X12513515Y-17223936D01*
X12513515Y-17223936D02*
X12513515Y-17242984D01*
X12713515Y-17242984D02*
X12599229Y-17242984D01*
X12656372Y-17242984D02*
X12656372Y-17042984D01*
X12656372Y-17042984D02*
X12637325Y-17071555D01*
X12637325Y-17071555D02*
X12618277Y-17090603D01*
X12618277Y-17090603D02*
X12599229Y-17100127D01*
X12789706Y-17062031D02*
X12799229Y-17052508D01*
X12799229Y-17052508D02*
X12818277Y-17042984D01*
X12818277Y-17042984D02*
X12865896Y-17042984D01*
X12865896Y-17042984D02*
X12884944Y-17052508D01*
X12884944Y-17052508D02*
X12894467Y-17062031D01*
X12894467Y-17062031D02*
X12903991Y-17081079D01*
X12903991Y-17081079D02*
X12903991Y-17100127D01*
X12903991Y-17100127D02*
X12894467Y-17128698D01*
X12894467Y-17128698D02*
X12780182Y-17242984D01*
X12780182Y-17242984D02*
X12903991Y-17242984D01*
X13075420Y-17042984D02*
X13037325Y-17042984D01*
X13037325Y-17042984D02*
X13018277Y-17052508D01*
X13018277Y-17052508D02*
X13008753Y-17062031D01*
X13008753Y-17062031D02*
X12989706Y-17090603D01*
X12989706Y-17090603D02*
X12980182Y-17128698D01*
X12980182Y-17128698D02*
X12980182Y-17204889D01*
X12980182Y-17204889D02*
X12989706Y-17223936D01*
X12989706Y-17223936D02*
X12999229Y-17233460D01*
X12999229Y-17233460D02*
X13018277Y-17242984D01*
X13018277Y-17242984D02*
X13056372Y-17242984D01*
X13056372Y-17242984D02*
X13075420Y-17233460D01*
X13075420Y-17233460D02*
X13084944Y-17223936D01*
X13084944Y-17223936D02*
X13094467Y-17204889D01*
X13094467Y-17204889D02*
X13094467Y-17157270D01*
X13094467Y-17157270D02*
X13084944Y-17138222D01*
X13084944Y-17138222D02*
X13075420Y-17128698D01*
X13075420Y-17128698D02*
X13056372Y-17119174D01*
X13056372Y-17119174D02*
X13018277Y-17119174D01*
X13018277Y-17119174D02*
X12999229Y-17128698D01*
X12999229Y-17128698D02*
X12989706Y-17138222D01*
X12989706Y-17138222D02*
X12980182Y-17157270D01*
X13218277Y-17042984D02*
X13237325Y-17042984D01*
X13237325Y-17042984D02*
X13256372Y-17052508D01*
X13256372Y-17052508D02*
X13265896Y-17062031D01*
X13265896Y-17062031D02*
X13275420Y-17081079D01*
X13275420Y-17081079D02*
X13284944Y-17119174D01*
X13284944Y-17119174D02*
X13284944Y-17166793D01*
X13284944Y-17166793D02*
X13275420Y-17204889D01*
X13275420Y-17204889D02*
X13265896Y-17223936D01*
X13265896Y-17223936D02*
X13256372Y-17233460D01*
X13256372Y-17233460D02*
X13237325Y-17242984D01*
X13237325Y-17242984D02*
X13218277Y-17242984D01*
X13218277Y-17242984D02*
X13199229Y-17233460D01*
X13199229Y-17233460D02*
X13189706Y-17223936D01*
X13189706Y-17223936D02*
X13180182Y-17204889D01*
X13180182Y-17204889D02*
X13170658Y-17166793D01*
X13170658Y-17166793D02*
X13170658Y-17119174D01*
X13170658Y-17119174D02*
X13180182Y-17081079D01*
X13180182Y-17081079D02*
X13189706Y-17062031D01*
X13189706Y-17062031D02*
X13199229Y-17052508D01*
X13199229Y-17052508D02*
X13218277Y-17042984D01*
X13361134Y-17042984D02*
X13361134Y-17081079D01*
X13437325Y-17042984D02*
X13437325Y-17081079D01*
X13732563Y-17319174D02*
X13723039Y-17309650D01*
X13723039Y-17309650D02*
X13703991Y-17281079D01*
X13703991Y-17281079D02*
X13694468Y-17262031D01*
X13694468Y-17262031D02*
X13684944Y-17233460D01*
X13684944Y-17233460D02*
X13675420Y-17185841D01*
X13675420Y-17185841D02*
X13675420Y-17147746D01*
X13675420Y-17147746D02*
X13684944Y-17100127D01*
X13684944Y-17100127D02*
X13694468Y-17071555D01*
X13694468Y-17071555D02*
X13703991Y-17052508D01*
X13703991Y-17052508D02*
X13723039Y-17023936D01*
X13723039Y-17023936D02*
X13732563Y-17014412D01*
X13799229Y-17062031D02*
X13808753Y-17052508D01*
X13808753Y-17052508D02*
X13827801Y-17042984D01*
X13827801Y-17042984D02*
X13875420Y-17042984D01*
X13875420Y-17042984D02*
X13894468Y-17052508D01*
X13894468Y-17052508D02*
X13903991Y-17062031D01*
X13903991Y-17062031D02*
X13913515Y-17081079D01*
X13913515Y-17081079D02*
X13913515Y-17100127D01*
X13913515Y-17100127D02*
X13903991Y-17128698D01*
X13903991Y-17128698D02*
X13789706Y-17242984D01*
X13789706Y-17242984D02*
X13913515Y-17242984D01*
X14151610Y-17242984D02*
X14151610Y-17042984D01*
X14237325Y-17242984D02*
X14237325Y-17138222D01*
X14237325Y-17138222D02*
X14227801Y-17119174D01*
X14227801Y-17119174D02*
X14208753Y-17109650D01*
X14208753Y-17109650D02*
X14180182Y-17109650D01*
X14180182Y-17109650D02*
X14161134Y-17119174D01*
X14161134Y-17119174D02*
X14151610Y-17128698D01*
X14361134Y-17242984D02*
X14342087Y-17233460D01*
X14342087Y-17233460D02*
X14332563Y-17223936D01*
X14332563Y-17223936D02*
X14323039Y-17204889D01*
X14323039Y-17204889D02*
X14323039Y-17147746D01*
X14323039Y-17147746D02*
X14332563Y-17128698D01*
X14332563Y-17128698D02*
X14342087Y-17119174D01*
X14342087Y-17119174D02*
X14361134Y-17109650D01*
X14361134Y-17109650D02*
X14389706Y-17109650D01*
X14389706Y-17109650D02*
X14408753Y-17119174D01*
X14408753Y-17119174D02*
X14418277Y-17128698D01*
X14418277Y-17128698D02*
X14427801Y-17147746D01*
X14427801Y-17147746D02*
X14427801Y-17204889D01*
X14427801Y-17204889D02*
X14418277Y-17223936D01*
X14418277Y-17223936D02*
X14408753Y-17233460D01*
X14408753Y-17233460D02*
X14389706Y-17242984D01*
X14389706Y-17242984D02*
X14361134Y-17242984D01*
X14542087Y-17242984D02*
X14523039Y-17233460D01*
X14523039Y-17233460D02*
X14513515Y-17214412D01*
X14513515Y-17214412D02*
X14513515Y-17042984D01*
X14694468Y-17233460D02*
X14675420Y-17242984D01*
X14675420Y-17242984D02*
X14637325Y-17242984D01*
X14637325Y-17242984D02*
X14618277Y-17233460D01*
X14618277Y-17233460D02*
X14608753Y-17214412D01*
X14608753Y-17214412D02*
X14608753Y-17138222D01*
X14608753Y-17138222D02*
X14618277Y-17119174D01*
X14618277Y-17119174D02*
X14637325Y-17109650D01*
X14637325Y-17109650D02*
X14675420Y-17109650D01*
X14675420Y-17109650D02*
X14694468Y-17119174D01*
X14694468Y-17119174D02*
X14703991Y-17138222D01*
X14703991Y-17138222D02*
X14703991Y-17157270D01*
X14703991Y-17157270D02*
X14608753Y-17176317D01*
X14780182Y-17233460D02*
X14799230Y-17242984D01*
X14799230Y-17242984D02*
X14837325Y-17242984D01*
X14837325Y-17242984D02*
X14856372Y-17233460D01*
X14856372Y-17233460D02*
X14865896Y-17214412D01*
X14865896Y-17214412D02*
X14865896Y-17204889D01*
X14865896Y-17204889D02*
X14856372Y-17185841D01*
X14856372Y-17185841D02*
X14837325Y-17176317D01*
X14837325Y-17176317D02*
X14808753Y-17176317D01*
X14808753Y-17176317D02*
X14789706Y-17166793D01*
X14789706Y-17166793D02*
X14780182Y-17147746D01*
X14780182Y-17147746D02*
X14780182Y-17138222D01*
X14780182Y-17138222D02*
X14789706Y-17119174D01*
X14789706Y-17119174D02*
X14808753Y-17109650D01*
X14808753Y-17109650D02*
X14837325Y-17109650D01*
X14837325Y-17109650D02*
X14856372Y-17119174D01*
X14932563Y-17319174D02*
X14942087Y-17309650D01*
X14942087Y-17309650D02*
X14961134Y-17281079D01*
X14961134Y-17281079D02*
X14970658Y-17262031D01*
X14970658Y-17262031D02*
X14980182Y-17233460D01*
X14980182Y-17233460D02*
X14989706Y-17185841D01*
X14989706Y-17185841D02*
X14989706Y-17147746D01*
X14989706Y-17147746D02*
X14980182Y-17100127D01*
X14980182Y-17100127D02*
X14970658Y-17071555D01*
X14970658Y-17071555D02*
X14961134Y-17052508D01*
X14961134Y-17052508D02*
X14942087Y-17023936D01*
X14942087Y-17023936D02*
X14932563Y-17014412D01*
M02*
