G04 #@! TF.GenerationSoftware,KiCad,Pcbnew,9.0.5*
G04 #@! TF.CreationDate,2025-12-06T01:07:08-05:00*
G04 #@! TF.ProjectId,Commodore 6,436f6d6d-6f64-46f7-9265-20362e6b6963,rev?*
G04 #@! TF.SameCoordinates,Original*
G04 #@! TF.FileFunction,Paste,Top*
G04 #@! TF.FilePolarity,Positive*
%FSLAX46Y46*%
G04 Gerber Fmt 4.6, Leading zero omitted, Abs format (unit mm)*
G04 Created by KiCad (PCBNEW 9.0.5) date 2025-12-06 01:07:08*
%MOMM*%
%LPD*%
G01*
G04 APERTURE LIST*
G04 Aperture macros list*
%AMRoundRect*
0 Rectangle with rounded corners*
0 $1 Rounding radius*
0 $2 $3 $4 $5 $6 $7 $8 $9 X,Y pos of 4 corners*
0 Add a 4 corners polygon primitive as box body*
4,1,4,$2,$3,$4,$5,$6,$7,$8,$9,$2,$3,0*
0 Add four circle primitives for the rounded corners*
1,1,$1+$1,$2,$3*
1,1,$1+$1,$4,$5*
1,1,$1+$1,$6,$7*
1,1,$1+$1,$8,$9*
0 Add four rect primitives between the rounded corners*
20,1,$1+$1,$2,$3,$4,$5,0*
20,1,$1+$1,$4,$5,$6,$7,0*
20,1,$1+$1,$6,$7,$8,$9,0*
20,1,$1+$1,$8,$9,$2,$3,0*%
%AMRotRect*
0 Rectangle, with rotation*
0 The origin of the aperture is its center*
0 $1 length*
0 $2 width*
0 $3 Rotation angle, in degrees counterclockwise*
0 Add horizontal line*
21,1,$1,$2,0,0,$3*%
G04 Aperture macros list end*
%ADD10C,0.010000*%
%ADD11C,0.000000*%
%ADD12R,1.400000X1.200000*%
%ADD13RoundRect,0.250000X-0.475000X0.250000X-0.475000X-0.250000X0.475000X-0.250000X0.475000X0.250000X0*%
%ADD14RoundRect,0.090000X-0.090000X0.139000X-0.090000X-0.139000X0.090000X-0.139000X0.090000X0.139000X0*%
%ADD15RoundRect,0.250000X-0.312500X-0.625000X0.312500X-0.625000X0.312500X0.625000X-0.312500X0.625000X0*%
%ADD16RoundRect,0.250000X0.650000X-0.325000X0.650000X0.325000X-0.650000X0.325000X-0.650000X-0.325000X0*%
%ADD17RoundRect,0.250000X-0.650000X0.325000X-0.650000X-0.325000X0.650000X-0.325000X0.650000X0.325000X0*%
%ADD18RoundRect,0.150000X-0.760000X0.450000X-0.760000X-0.450000X0.760000X-0.450000X0.760000X0.450000X0*%
%ADD19RoundRect,0.250000X0.625000X-0.312500X0.625000X0.312500X-0.625000X0.312500X-0.625000X-0.312500X0*%
%ADD20RoundRect,0.250000X-0.250000X-0.475000X0.250000X-0.475000X0.250000X0.475000X-0.250000X0.475000X0*%
%ADD21R,0.431800X1.422400*%
%ADD22R,2.600000X1.600000*%
%ADD23RoundRect,0.250000X-0.325000X-0.650000X0.325000X-0.650000X0.325000X0.650000X-0.325000X0.650000X0*%
%ADD24R,0.711200X0.660400*%
%ADD25RoundRect,0.250000X0.312500X0.625000X-0.312500X0.625000X-0.312500X-0.625000X0.312500X-0.625000X0*%
%ADD26RoundRect,0.250000X0.325000X0.650000X-0.325000X0.650000X-0.325000X-0.650000X0.325000X-0.650000X0*%
%ADD27RoundRect,0.250000X-0.625000X0.312500X-0.625000X-0.312500X0.625000X-0.312500X0.625000X0.312500X0*%
%ADD28R,1.430000X0.600000*%
%ADD29RoundRect,0.250000X0.475000X-0.250000X0.475000X0.250000X-0.475000X0.250000X-0.475000X-0.250000X0*%
%ADD30RoundRect,0.237500X0.237500X-0.250000X0.237500X0.250000X-0.237500X0.250000X-0.237500X-0.250000X0*%
%ADD31R,0.600000X0.400000*%
%ADD32R,0.812800X0.254000*%
%ADD33R,0.254000X0.812800*%
%ADD34R,3.759200X3.759200*%
%ADD35RoundRect,0.075000X0.441942X0.548008X-0.548008X-0.441942X-0.441942X-0.548008X0.548008X0.441942X0*%
%ADD36RoundRect,0.075000X-0.441942X0.548008X-0.548008X0.441942X0.441942X-0.548008X0.548008X-0.441942X0*%
%ADD37RoundRect,0.250000X0.450000X-0.262500X0.450000X0.262500X-0.450000X0.262500X-0.450000X-0.262500X0*%
%ADD38RoundRect,0.160000X0.160000X-0.197500X0.160000X0.197500X-0.160000X0.197500X-0.160000X-0.197500X0*%
%ADD39R,1.000000X0.970000*%
%ADD40RoundRect,0.075000X0.548008X-0.441942X-0.441942X0.548008X-0.548008X0.441942X0.441942X-0.548008X0*%
%ADD41RoundRect,0.075000X0.548008X0.441942X0.441942X0.548008X-0.548008X-0.441942X-0.441942X-0.548008X0*%
%ADD42R,2.044700X0.406400*%
%ADD43R,3.000000X1.600000*%
%ADD44RoundRect,0.150000X-0.512500X-0.150000X0.512500X-0.150000X0.512500X0.150000X-0.512500X0.150000X0*%
%ADD45RoundRect,0.150000X0.825000X0.150000X-0.825000X0.150000X-0.825000X-0.150000X0.825000X-0.150000X0*%
%ADD46R,2.200000X1.800000*%
%ADD47RoundRect,0.050000X0.150000X-0.545000X0.150000X0.545000X-0.150000X0.545000X-0.150000X-0.545000X0*%
%ADD48R,0.355600X1.676400*%
%ADD49R,2.150000X0.950000*%
%ADD50R,2.150000X3.250000*%
%ADD51R,0.558800X1.460500*%
%ADD52R,0.740000X2.790000*%
%ADD53R,8.200000X2.600000*%
%ADD54RotRect,1.000000X0.970000X135.000000*%
%ADD55RoundRect,0.160000X-0.197500X-0.160000X0.197500X-0.160000X0.197500X0.160000X-0.197500X0.160000X0*%
%ADD56R,1.500000X0.800000*%
%ADD57RoundRect,0.362500X0.637500X-0.362500X0.637500X0.362500X-0.637500X0.362500X-0.637500X-0.362500X0*%
G04 APERTURE END LIST*
D10*
X50208000Y-24086000D02*
X50251000Y-24090000D01*
X50294000Y-24095000D01*
X50337000Y-24103000D01*
X50379000Y-24113000D01*
X50420000Y-24125000D01*
X50461000Y-24140000D01*
X50501000Y-24156000D01*
X50540000Y-24175000D01*
X50578000Y-24196000D01*
X50614000Y-24218000D01*
X50650000Y-24243000D01*
X50684000Y-24269000D01*
X50717000Y-24297000D01*
X50748000Y-24327000D01*
X50778000Y-24358000D01*
X50806000Y-24391000D01*
X50832000Y-24425000D01*
X50857000Y-24461000D01*
X50879000Y-24497000D01*
X50900000Y-24535000D01*
X50919000Y-24574000D01*
X50935000Y-24614000D01*
X50950000Y-24655000D01*
X50962000Y-24696000D01*
X50972000Y-24738000D01*
X50980000Y-24781000D01*
X50985000Y-24824000D01*
X50989000Y-24867000D01*
X50990000Y-24910000D01*
X50989000Y-24953000D01*
X50985000Y-24996000D01*
X50980000Y-25039000D01*
X50972000Y-25082000D01*
X50962000Y-25124000D01*
X50950000Y-25165000D01*
X50935000Y-25206000D01*
X50919000Y-25246000D01*
X50900000Y-25285000D01*
X50879000Y-25322000D01*
X50857000Y-25359000D01*
X50832000Y-25395000D01*
X50806000Y-25429000D01*
X50778000Y-25462000D01*
X50748000Y-25493000D01*
X50717000Y-25523000D01*
X50684000Y-25551000D01*
X50650000Y-25577000D01*
X50614000Y-25602000D01*
X50577000Y-25624000D01*
X50540000Y-25645000D01*
X50501000Y-25664000D01*
X50461000Y-25680000D01*
X50420000Y-25695000D01*
X50379000Y-25707000D01*
X50337000Y-25717000D01*
X50294000Y-25725000D01*
X50251000Y-25730000D01*
X50208000Y-25734000D01*
X50165000Y-25735000D01*
X50119000Y-25734000D01*
X50077000Y-25730000D01*
X50034000Y-25725000D01*
X49991000Y-25717000D01*
X49950000Y-25707000D01*
X49908000Y-25695000D01*
X49868000Y-25680000D01*
X49828000Y-25664000D01*
X49789000Y-25645000D01*
X49751000Y-25625000D01*
X49715000Y-25602000D01*
X49679000Y-25578000D01*
X49645000Y-25552000D01*
X49612000Y-25524000D01*
X49581000Y-25494000D01*
X49551000Y-25463000D01*
X49523000Y-25430000D01*
X49497000Y-25396000D01*
X49473000Y-25360000D01*
X49450000Y-25324000D01*
X49430000Y-25286000D01*
X49411000Y-25247000D01*
X49395000Y-25207000D01*
X49380000Y-25167000D01*
X49368000Y-25125000D01*
X49358000Y-25084000D01*
X49350000Y-25041000D01*
X49345000Y-24998000D01*
X49341000Y-24956000D01*
X49340000Y-24915000D01*
X49640000Y-24915000D01*
X49641000Y-24940000D01*
X49643000Y-24967000D01*
X49646000Y-24994000D01*
X49651000Y-25021000D01*
X49658000Y-25048000D01*
X49666000Y-25074000D01*
X49675000Y-25100000D01*
X49685000Y-25125000D01*
X49697000Y-25150000D01*
X49710000Y-25174000D01*
X49724000Y-25197000D01*
X49740000Y-25220000D01*
X49756000Y-25241000D01*
X49774000Y-25262000D01*
X49793000Y-25282000D01*
X49813000Y-25301000D01*
X49834000Y-25319000D01*
X49855000Y-25335000D01*
X49878000Y-25351000D01*
X49901000Y-25365000D01*
X49925000Y-25378000D01*
X49950000Y-25390000D01*
X49975000Y-25400000D01*
X50001000Y-25409000D01*
X50027000Y-25417000D01*
X50054000Y-25424000D01*
X50081000Y-25429000D01*
X50108000Y-25432000D01*
X50135000Y-25434000D01*
X50165000Y-25435000D01*
X50192000Y-25434000D01*
X50220000Y-25432000D01*
X50247000Y-25429000D01*
X50274000Y-25424000D01*
X50301000Y-25417000D01*
X50327000Y-25409000D01*
X50353000Y-25400000D01*
X50379000Y-25390000D01*
X50403000Y-25378000D01*
X50427000Y-25365000D01*
X50451000Y-25350000D01*
X50474000Y-25335000D01*
X50495000Y-25318000D01*
X50516000Y-25300000D01*
X50536000Y-25281000D01*
X50555000Y-25261000D01*
X50573000Y-25240000D01*
X50590000Y-25219000D01*
X50605000Y-25196000D01*
X50620000Y-25172000D01*
X50633000Y-25148000D01*
X50645000Y-25124000D01*
X50655000Y-25098000D01*
X50664000Y-25072000D01*
X50672000Y-25046000D01*
X50679000Y-25019000D01*
X50684000Y-24992000D01*
X50687000Y-24965000D01*
X50689000Y-24937000D01*
X50690000Y-24910000D01*
X50689000Y-24883000D01*
X50687000Y-24855000D01*
X50684000Y-24828000D01*
X50679000Y-24801000D01*
X50672000Y-24774000D01*
X50664000Y-24748000D01*
X50655000Y-24722000D01*
X50645000Y-24696000D01*
X50633000Y-24672000D01*
X50620000Y-24647000D01*
X50605000Y-24624000D01*
X50590000Y-24601000D01*
X50573000Y-24580000D01*
X50555000Y-24559000D01*
X50536000Y-24539000D01*
X50516000Y-24520000D01*
X50495000Y-24502000D01*
X50474000Y-24485000D01*
X50451000Y-24470000D01*
X50428000Y-24455000D01*
X50403000Y-24442000D01*
X50379000Y-24430000D01*
X50353000Y-24420000D01*
X50327000Y-24411000D01*
X50301000Y-24403000D01*
X50274000Y-24396000D01*
X50247000Y-24391000D01*
X50220000Y-24388000D01*
X50192000Y-24386000D01*
X50165000Y-24385000D01*
X50135000Y-24386000D01*
X50108000Y-24388000D01*
X50081000Y-24391000D01*
X50054000Y-24396000D01*
X50027000Y-24403000D01*
X50001000Y-24411000D01*
X49975000Y-24420000D01*
X49950000Y-24430000D01*
X49925000Y-24442000D01*
X49901000Y-24455000D01*
X49878000Y-24469000D01*
X49855000Y-24485000D01*
X49834000Y-24501000D01*
X49813000Y-24519000D01*
X49793000Y-24538000D01*
X49774000Y-24558000D01*
X49756000Y-24579000D01*
X49740000Y-24600000D01*
X49724000Y-24623000D01*
X49710000Y-24646000D01*
X49697000Y-24670000D01*
X49685000Y-24695000D01*
X49675000Y-24720000D01*
X49666000Y-24746000D01*
X49658000Y-24772000D01*
X49651000Y-24799000D01*
X49646000Y-24826000D01*
X49643000Y-24853000D01*
X49641000Y-24880000D01*
X49640000Y-24905000D01*
X49340000Y-24905000D01*
X49341000Y-24864000D01*
X49345000Y-24822000D01*
X49350000Y-24779000D01*
X49358000Y-24736000D01*
X49368000Y-24695000D01*
X49380000Y-24653000D01*
X49395000Y-24613000D01*
X49411000Y-24573000D01*
X49430000Y-24534000D01*
X49450000Y-24496000D01*
X49473000Y-24460000D01*
X49497000Y-24424000D01*
X49523000Y-24390000D01*
X49551000Y-24357000D01*
X49581000Y-24326000D01*
X49612000Y-24296000D01*
X49645000Y-24268000D01*
X49679000Y-24242000D01*
X49715000Y-24218000D01*
X49751000Y-24195000D01*
X49789000Y-24175000D01*
X49828000Y-24156000D01*
X49868000Y-24140000D01*
X49908000Y-24125000D01*
X49950000Y-24113000D01*
X49991000Y-24103000D01*
X50034000Y-24095000D01*
X50077000Y-24090000D01*
X50119000Y-24086000D01*
X50165000Y-24085000D01*
X50208000Y-24086000D01*
G36*
X50208000Y-24086000D02*
G01*
X50251000Y-24090000D01*
X50294000Y-24095000D01*
X50337000Y-24103000D01*
X50379000Y-24113000D01*
X50420000Y-24125000D01*
X50461000Y-24140000D01*
X50501000Y-24156000D01*
X50540000Y-24175000D01*
X50578000Y-24196000D01*
X50614000Y-24218000D01*
X50650000Y-24243000D01*
X50684000Y-24269000D01*
X50717000Y-24297000D01*
X50748000Y-24327000D01*
X50778000Y-24358000D01*
X50806000Y-24391000D01*
X50832000Y-24425000D01*
X50857000Y-24461000D01*
X50879000Y-24497000D01*
X50900000Y-24535000D01*
X50919000Y-24574000D01*
X50935000Y-24614000D01*
X50950000Y-24655000D01*
X50962000Y-24696000D01*
X50972000Y-24738000D01*
X50980000Y-24781000D01*
X50985000Y-24824000D01*
X50989000Y-24867000D01*
X50990000Y-24910000D01*
X50989000Y-24953000D01*
X50985000Y-24996000D01*
X50980000Y-25039000D01*
X50972000Y-25082000D01*
X50962000Y-25124000D01*
X50950000Y-25165000D01*
X50935000Y-25206000D01*
X50919000Y-25246000D01*
X50900000Y-25285000D01*
X50879000Y-25322000D01*
X50857000Y-25359000D01*
X50832000Y-25395000D01*
X50806000Y-25429000D01*
X50778000Y-25462000D01*
X50748000Y-25493000D01*
X50717000Y-25523000D01*
X50684000Y-25551000D01*
X50650000Y-25577000D01*
X50614000Y-25602000D01*
X50577000Y-25624000D01*
X50540000Y-25645000D01*
X50501000Y-25664000D01*
X50461000Y-25680000D01*
X50420000Y-25695000D01*
X50379000Y-25707000D01*
X50337000Y-25717000D01*
X50294000Y-25725000D01*
X50251000Y-25730000D01*
X50208000Y-25734000D01*
X50165000Y-25735000D01*
X50119000Y-25734000D01*
X50077000Y-25730000D01*
X50034000Y-25725000D01*
X49991000Y-25717000D01*
X49950000Y-25707000D01*
X49908000Y-25695000D01*
X49868000Y-25680000D01*
X49828000Y-25664000D01*
X49789000Y-25645000D01*
X49751000Y-25625000D01*
X49715000Y-25602000D01*
X49679000Y-25578000D01*
X49645000Y-25552000D01*
X49612000Y-25524000D01*
X49581000Y-25494000D01*
X49551000Y-25463000D01*
X49523000Y-25430000D01*
X49497000Y-25396000D01*
X49473000Y-25360000D01*
X49450000Y-25324000D01*
X49430000Y-25286000D01*
X49411000Y-25247000D01*
X49395000Y-25207000D01*
X49380000Y-25167000D01*
X49368000Y-25125000D01*
X49358000Y-25084000D01*
X49350000Y-25041000D01*
X49345000Y-24998000D01*
X49341000Y-24956000D01*
X49340000Y-24915000D01*
X49640000Y-24915000D01*
X49641000Y-24940000D01*
X49643000Y-24967000D01*
X49646000Y-24994000D01*
X49651000Y-25021000D01*
X49658000Y-25048000D01*
X49666000Y-25074000D01*
X49675000Y-25100000D01*
X49685000Y-25125000D01*
X49697000Y-25150000D01*
X49710000Y-25174000D01*
X49724000Y-25197000D01*
X49740000Y-25220000D01*
X49756000Y-25241000D01*
X49774000Y-25262000D01*
X49793000Y-25282000D01*
X49813000Y-25301000D01*
X49834000Y-25319000D01*
X49855000Y-25335000D01*
X49878000Y-25351000D01*
X49901000Y-25365000D01*
X49925000Y-25378000D01*
X49950000Y-25390000D01*
X49975000Y-25400000D01*
X50001000Y-25409000D01*
X50027000Y-25417000D01*
X50054000Y-25424000D01*
X50081000Y-25429000D01*
X50108000Y-25432000D01*
X50135000Y-25434000D01*
X50165000Y-25435000D01*
X50192000Y-25434000D01*
X50220000Y-25432000D01*
X50247000Y-25429000D01*
X50274000Y-25424000D01*
X50301000Y-25417000D01*
X50327000Y-25409000D01*
X50353000Y-25400000D01*
X50379000Y-25390000D01*
X50403000Y-25378000D01*
X50427000Y-25365000D01*
X50451000Y-25350000D01*
X50474000Y-25335000D01*
X50495000Y-25318000D01*
X50516000Y-25300000D01*
X50536000Y-25281000D01*
X50555000Y-25261000D01*
X50573000Y-25240000D01*
X50590000Y-25219000D01*
X50605000Y-25196000D01*
X50620000Y-25172000D01*
X50633000Y-25148000D01*
X50645000Y-25124000D01*
X50655000Y-25098000D01*
X50664000Y-25072000D01*
X50672000Y-25046000D01*
X50679000Y-25019000D01*
X50684000Y-24992000D01*
X50687000Y-24965000D01*
X50689000Y-24937000D01*
X50690000Y-24910000D01*
X50689000Y-24883000D01*
X50687000Y-24855000D01*
X50684000Y-24828000D01*
X50679000Y-24801000D01*
X50672000Y-24774000D01*
X50664000Y-24748000D01*
X50655000Y-24722000D01*
X50645000Y-24696000D01*
X50633000Y-24672000D01*
X50620000Y-24647000D01*
X50605000Y-24624000D01*
X50590000Y-24601000D01*
X50573000Y-24580000D01*
X50555000Y-24559000D01*
X50536000Y-24539000D01*
X50516000Y-24520000D01*
X50495000Y-24502000D01*
X50474000Y-24485000D01*
X50451000Y-24470000D01*
X50428000Y-24455000D01*
X50403000Y-24442000D01*
X50379000Y-24430000D01*
X50353000Y-24420000D01*
X50327000Y-24411000D01*
X50301000Y-24403000D01*
X50274000Y-24396000D01*
X50247000Y-24391000D01*
X50220000Y-24388000D01*
X50192000Y-24386000D01*
X50165000Y-24385000D01*
X50135000Y-24386000D01*
X50108000Y-24388000D01*
X50081000Y-24391000D01*
X50054000Y-24396000D01*
X50027000Y-24403000D01*
X50001000Y-24411000D01*
X49975000Y-24420000D01*
X49950000Y-24430000D01*
X49925000Y-24442000D01*
X49901000Y-24455000D01*
X49878000Y-24469000D01*
X49855000Y-24485000D01*
X49834000Y-24501000D01*
X49813000Y-24519000D01*
X49793000Y-24538000D01*
X49774000Y-24558000D01*
X49756000Y-24579000D01*
X49740000Y-24600000D01*
X49724000Y-24623000D01*
X49710000Y-24646000D01*
X49697000Y-24670000D01*
X49685000Y-24695000D01*
X49675000Y-24720000D01*
X49666000Y-24746000D01*
X49658000Y-24772000D01*
X49651000Y-24799000D01*
X49646000Y-24826000D01*
X49643000Y-24853000D01*
X49641000Y-24880000D01*
X49640000Y-24905000D01*
X49340000Y-24905000D01*
X49341000Y-24864000D01*
X49345000Y-24822000D01*
X49350000Y-24779000D01*
X49358000Y-24736000D01*
X49368000Y-24695000D01*
X49380000Y-24653000D01*
X49395000Y-24613000D01*
X49411000Y-24573000D01*
X49430000Y-24534000D01*
X49450000Y-24496000D01*
X49473000Y-24460000D01*
X49497000Y-24424000D01*
X49523000Y-24390000D01*
X49551000Y-24357000D01*
X49581000Y-24326000D01*
X49612000Y-24296000D01*
X49645000Y-24268000D01*
X49679000Y-24242000D01*
X49715000Y-24218000D01*
X49751000Y-24195000D01*
X49789000Y-24175000D01*
X49828000Y-24156000D01*
X49868000Y-24140000D01*
X49908000Y-24125000D01*
X49950000Y-24113000D01*
X49991000Y-24103000D01*
X50034000Y-24095000D01*
X50077000Y-24090000D01*
X50119000Y-24086000D01*
X50165000Y-24085000D01*
X50208000Y-24086000D01*
G37*
D11*
G36*
X34031408Y-108462507D02*
G01*
X33231193Y-108462507D01*
X33231193Y-108162292D01*
X34031408Y-108162292D01*
X34031408Y-108462507D01*
G37*
G36*
X34031408Y-109112508D02*
G01*
X33231193Y-109112508D01*
X33231193Y-108812293D01*
X34031408Y-108812293D01*
X34031408Y-109112508D01*
G37*
G36*
X34031408Y-109762507D02*
G01*
X33231193Y-109762507D01*
X33231193Y-109462292D01*
X34031408Y-109462292D01*
X34031408Y-109762507D01*
G37*
G36*
X34031408Y-110412508D02*
G01*
X33231193Y-110412508D01*
X33231193Y-110112293D01*
X34031408Y-110112293D01*
X34031408Y-110412508D01*
G37*
G36*
X36981407Y-108462507D02*
G01*
X36181192Y-108462507D01*
X36181192Y-108162292D01*
X36981407Y-108162292D01*
X36981407Y-108462507D01*
G37*
G36*
X36981407Y-109112508D02*
G01*
X36181192Y-109112508D01*
X36181192Y-108812293D01*
X36981407Y-108812293D01*
X36981407Y-109112508D01*
G37*
G36*
X36981407Y-109762507D02*
G01*
X36181192Y-109762507D01*
X36181192Y-109462292D01*
X36981407Y-109462292D01*
X36981407Y-109762507D01*
G37*
G36*
X36981407Y-110412508D02*
G01*
X36181192Y-110412508D01*
X36181192Y-110112293D01*
X36981407Y-110112293D01*
X36981407Y-110412508D01*
G37*
G36*
X34612600Y-108258579D02*
G01*
X34471179Y-108400000D01*
X34381230Y-108400000D01*
X34381230Y-108162330D01*
X34612600Y-108162330D01*
X34612600Y-108258579D01*
G37*
G36*
X34612600Y-110316221D02*
G01*
X34612600Y-110412470D01*
X34381230Y-110412470D01*
X34381230Y-110174800D01*
X34471179Y-110174800D01*
X34612600Y-110316221D01*
G37*
G36*
X35831370Y-108400000D02*
G01*
X35741421Y-108400000D01*
X35600000Y-108258579D01*
X35600000Y-108162330D01*
X35831370Y-108162330D01*
X35831370Y-108400000D01*
G37*
G36*
X35831370Y-110412470D02*
G01*
X35600000Y-110412470D01*
X35600000Y-110316221D01*
X35741421Y-110174800D01*
X35831370Y-110174800D01*
X35831370Y-110412470D01*
G37*
G36*
X34612600Y-108741421D02*
G01*
X34612600Y-109045979D01*
X34471179Y-109187400D01*
X34381230Y-109187400D01*
X34381230Y-108600000D01*
X34471179Y-108600000D01*
X34612600Y-108741421D01*
G37*
G36*
X34612600Y-109528821D02*
G01*
X34612600Y-109833379D01*
X34471179Y-109974800D01*
X34381230Y-109974800D01*
X34381230Y-109387400D01*
X34471179Y-109387400D01*
X34612600Y-109528821D01*
G37*
G36*
X35400000Y-108258579D02*
G01*
X35258579Y-108400000D01*
X34954021Y-108400000D01*
X34812600Y-108258579D01*
X34812600Y-108162330D01*
X35400000Y-108162330D01*
X35400000Y-108258579D01*
G37*
G36*
X35400000Y-110316221D02*
G01*
X35400000Y-110412470D01*
X34812600Y-110412470D01*
X34812600Y-110316221D01*
X34954021Y-110174800D01*
X35258579Y-110174800D01*
X35400000Y-110316221D01*
G37*
G36*
X35831370Y-109187400D02*
G01*
X35741421Y-109187400D01*
X35600000Y-109045979D01*
X35600000Y-108741421D01*
X35741421Y-108600000D01*
X35831370Y-108600000D01*
X35831370Y-109187400D01*
G37*
G36*
X35831370Y-109974800D02*
G01*
X35741421Y-109974800D01*
X35600000Y-109833379D01*
X35600000Y-109528821D01*
X35741421Y-109387400D01*
X35831370Y-109387400D01*
X35831370Y-109974800D01*
G37*
G36*
X35400000Y-108741421D02*
G01*
X35400000Y-109045979D01*
X35258579Y-109187400D01*
X34954021Y-109187400D01*
X34812600Y-109045979D01*
X34812600Y-108741421D01*
X34954021Y-108600000D01*
X35258579Y-108600000D01*
X35400000Y-108741421D01*
G37*
G36*
X35400000Y-109528821D02*
G01*
X35400000Y-109833379D01*
X35258579Y-109974800D01*
X34954021Y-109974800D01*
X34812600Y-109833379D01*
X34812600Y-109528821D01*
X34954021Y-109387400D01*
X35258579Y-109387400D01*
X35400000Y-109528821D01*
G37*
D10*
X119850000Y-32165000D02*
X118550000Y-32165000D01*
X118550000Y-31915000D01*
X119850000Y-31915000D01*
X119850000Y-32165000D01*
G36*
X119850000Y-32165000D02*
G01*
X118550000Y-32165000D01*
X118550000Y-31915000D01*
X119850000Y-31915000D01*
X119850000Y-32165000D01*
G37*
X119850000Y-32665000D02*
X118550000Y-32665000D01*
X118550000Y-32415000D01*
X119850000Y-32415000D01*
X119850000Y-32665000D01*
G36*
X119850000Y-32665000D02*
G01*
X118550000Y-32665000D01*
X118550000Y-32415000D01*
X119850000Y-32415000D01*
X119850000Y-32665000D01*
G37*
X119850000Y-33165000D02*
X118550000Y-33165000D01*
X118550000Y-32915000D01*
X119850000Y-32915000D01*
X119850000Y-33165000D01*
G36*
X119850000Y-33165000D02*
G01*
X118550000Y-33165000D01*
X118550000Y-32915000D01*
X119850000Y-32915000D01*
X119850000Y-33165000D01*
G37*
X119850000Y-33665000D02*
X118550000Y-33665000D01*
X118550000Y-33415000D01*
X119850000Y-33415000D01*
X119850000Y-33665000D01*
G36*
X119850000Y-33665000D02*
G01*
X118550000Y-33665000D01*
X118550000Y-33415000D01*
X119850000Y-33415000D01*
X119850000Y-33665000D01*
G37*
X119850000Y-34165000D02*
X118550000Y-34165000D01*
X118550000Y-33915000D01*
X119850000Y-33915000D01*
X119850000Y-34165000D01*
G36*
X119850000Y-34165000D02*
G01*
X118550000Y-34165000D01*
X118550000Y-33915000D01*
X119850000Y-33915000D01*
X119850000Y-34165000D01*
G37*
X119850000Y-34665000D02*
X118550000Y-34665000D01*
X118550000Y-34415000D01*
X119850000Y-34415000D01*
X119850000Y-34665000D01*
G36*
X119850000Y-34665000D02*
G01*
X118550000Y-34665000D01*
X118550000Y-34415000D01*
X119850000Y-34415000D01*
X119850000Y-34665000D01*
G37*
X119850000Y-35165000D02*
X118550000Y-35165000D01*
X118550000Y-34915000D01*
X119850000Y-34915000D01*
X119850000Y-35165000D01*
G36*
X119850000Y-35165000D02*
G01*
X118550000Y-35165000D01*
X118550000Y-34915000D01*
X119850000Y-34915000D01*
X119850000Y-35165000D01*
G37*
X119850000Y-35665000D02*
X118550000Y-35665000D01*
X118550000Y-35415000D01*
X119850000Y-35415000D01*
X119850000Y-35665000D01*
G36*
X119850000Y-35665000D02*
G01*
X118550000Y-35665000D01*
X118550000Y-35415000D01*
X119850000Y-35415000D01*
X119850000Y-35665000D01*
G37*
X119850000Y-36165000D02*
X118550000Y-36165000D01*
X118550000Y-35915000D01*
X119850000Y-35915000D01*
X119850000Y-36165000D01*
G36*
X119850000Y-36165000D02*
G01*
X118550000Y-36165000D01*
X118550000Y-35915000D01*
X119850000Y-35915000D01*
X119850000Y-36165000D01*
G37*
X119850000Y-36665000D02*
X118550000Y-36665000D01*
X118550000Y-36415000D01*
X119850000Y-36415000D01*
X119850000Y-36665000D01*
G36*
X119850000Y-36665000D02*
G01*
X118550000Y-36665000D01*
X118550000Y-36415000D01*
X119850000Y-36415000D01*
X119850000Y-36665000D01*
G37*
X119850000Y-37165000D02*
X118550000Y-37165000D01*
X118550000Y-36915000D01*
X119850000Y-36915000D01*
X119850000Y-37165000D01*
G36*
X119850000Y-37165000D02*
G01*
X118550000Y-37165000D01*
X118550000Y-36915000D01*
X119850000Y-36915000D01*
X119850000Y-37165000D01*
G37*
X119850000Y-37665000D02*
X118550000Y-37665000D01*
X118550000Y-37415000D01*
X119850000Y-37415000D01*
X119850000Y-37665000D01*
G36*
X119850000Y-37665000D02*
G01*
X118550000Y-37665000D01*
X118550000Y-37415000D01*
X119850000Y-37415000D01*
X119850000Y-37665000D01*
G37*
X119850000Y-38165000D02*
X118550000Y-38165000D01*
X118550000Y-37915000D01*
X119850000Y-37915000D01*
X119850000Y-38165000D01*
G36*
X119850000Y-38165000D02*
G01*
X118550000Y-38165000D01*
X118550000Y-37915000D01*
X119850000Y-37915000D01*
X119850000Y-38165000D01*
G37*
X119850000Y-38665000D02*
X118550000Y-38665000D01*
X118550000Y-38415000D01*
X119850000Y-38415000D01*
X119850000Y-38665000D01*
G36*
X119850000Y-38665000D02*
G01*
X118550000Y-38665000D01*
X118550000Y-38415000D01*
X119850000Y-38415000D01*
X119850000Y-38665000D01*
G37*
X119850000Y-39165000D02*
X118550000Y-39165000D01*
X118550000Y-38915000D01*
X119850000Y-38915000D01*
X119850000Y-39165000D01*
G36*
X119850000Y-39165000D02*
G01*
X118550000Y-39165000D01*
X118550000Y-38915000D01*
X119850000Y-38915000D01*
X119850000Y-39165000D01*
G37*
X119850000Y-39665000D02*
X118550000Y-39665000D01*
X118550000Y-39415000D01*
X119850000Y-39415000D01*
X119850000Y-39665000D01*
G36*
X119850000Y-39665000D02*
G01*
X118550000Y-39665000D01*
X118550000Y-39415000D01*
X119850000Y-39415000D01*
X119850000Y-39665000D01*
G37*
X119850000Y-40165000D02*
X118550000Y-40165000D01*
X118550000Y-39915000D01*
X119850000Y-39915000D01*
X119850000Y-40165000D01*
G36*
X119850000Y-40165000D02*
G01*
X118550000Y-40165000D01*
X118550000Y-39915000D01*
X119850000Y-39915000D01*
X119850000Y-40165000D01*
G37*
X119850000Y-40665000D02*
X118550000Y-40665000D01*
X118550000Y-40415000D01*
X119850000Y-40415000D01*
X119850000Y-40665000D01*
G36*
X119850000Y-40665000D02*
G01*
X118550000Y-40665000D01*
X118550000Y-40415000D01*
X119850000Y-40415000D01*
X119850000Y-40665000D01*
G37*
X119850000Y-41165000D02*
X118550000Y-41165000D01*
X118550000Y-40915000D01*
X119850000Y-40915000D01*
X119850000Y-41165000D01*
G36*
X119850000Y-41165000D02*
G01*
X118550000Y-41165000D01*
X118550000Y-40915000D01*
X119850000Y-40915000D01*
X119850000Y-41165000D01*
G37*
X119850000Y-41665000D02*
X118550000Y-41665000D01*
X118550000Y-41415000D01*
X119850000Y-41415000D01*
X119850000Y-41665000D01*
G36*
X119850000Y-41665000D02*
G01*
X118550000Y-41665000D01*
X118550000Y-41415000D01*
X119850000Y-41415000D01*
X119850000Y-41665000D01*
G37*
X119850000Y-42165000D02*
X118550000Y-42165000D01*
X118550000Y-41915000D01*
X119850000Y-41915000D01*
X119850000Y-42165000D01*
G36*
X119850000Y-42165000D02*
G01*
X118550000Y-42165000D01*
X118550000Y-41915000D01*
X119850000Y-41915000D01*
X119850000Y-42165000D01*
G37*
X119850000Y-42665000D02*
X118550000Y-42665000D01*
X118550000Y-42415000D01*
X119850000Y-42415000D01*
X119850000Y-42665000D01*
G36*
X119850000Y-42665000D02*
G01*
X118550000Y-42665000D01*
X118550000Y-42415000D01*
X119850000Y-42415000D01*
X119850000Y-42665000D01*
G37*
X119850000Y-43165000D02*
X118550000Y-43165000D01*
X118550000Y-42915000D01*
X119850000Y-42915000D01*
X119850000Y-43165000D01*
G36*
X119850000Y-43165000D02*
G01*
X118550000Y-43165000D01*
X118550000Y-42915000D01*
X119850000Y-42915000D01*
X119850000Y-43165000D01*
G37*
X119850000Y-43665000D02*
X118550000Y-43665000D01*
X118550000Y-43415000D01*
X119850000Y-43415000D01*
X119850000Y-43665000D01*
G36*
X119850000Y-43665000D02*
G01*
X118550000Y-43665000D01*
X118550000Y-43415000D01*
X119850000Y-43415000D01*
X119850000Y-43665000D01*
G37*
X19944167Y-37963000D02*
X19204167Y-37963000D01*
X19204167Y-35173000D01*
X19944167Y-35173000D01*
X19944167Y-37963000D01*
G36*
X19944167Y-37963000D02*
G01*
X19204167Y-37963000D01*
X19204167Y-35173000D01*
X19944167Y-35173000D01*
X19944167Y-37963000D01*
G37*
X19944167Y-42027000D02*
X19204167Y-42027000D01*
X19204167Y-39237000D01*
X19944167Y-39237000D01*
X19944167Y-42027000D01*
G36*
X19944167Y-42027000D02*
G01*
X19204167Y-42027000D01*
X19204167Y-39237000D01*
X19944167Y-39237000D01*
X19944167Y-42027000D01*
G37*
X21214167Y-37963000D02*
X20474167Y-37963000D01*
X20474167Y-35173000D01*
X21214167Y-35173000D01*
X21214167Y-37963000D01*
G36*
X21214167Y-37963000D02*
G01*
X20474167Y-37963000D01*
X20474167Y-35173000D01*
X21214167Y-35173000D01*
X21214167Y-37963000D01*
G37*
X21214167Y-42027000D02*
X20474167Y-42027000D01*
X20474167Y-39237000D01*
X21214167Y-39237000D01*
X21214167Y-42027000D01*
G36*
X21214167Y-42027000D02*
G01*
X20474167Y-42027000D01*
X20474167Y-39237000D01*
X21214167Y-39237000D01*
X21214167Y-42027000D01*
G37*
X22484167Y-37963000D02*
X21744167Y-37963000D01*
X21744167Y-35173000D01*
X22484167Y-35173000D01*
X22484167Y-37963000D01*
G36*
X22484167Y-37963000D02*
G01*
X21744167Y-37963000D01*
X21744167Y-35173000D01*
X22484167Y-35173000D01*
X22484167Y-37963000D01*
G37*
X22484167Y-42027000D02*
X21744167Y-42027000D01*
X21744167Y-39237000D01*
X22484167Y-39237000D01*
X22484167Y-42027000D01*
G36*
X22484167Y-42027000D02*
G01*
X21744167Y-42027000D01*
X21744167Y-39237000D01*
X22484167Y-39237000D01*
X22484167Y-42027000D01*
G37*
X23754167Y-37963000D02*
X23014167Y-37963000D01*
X23014167Y-35173000D01*
X23754167Y-35173000D01*
X23754167Y-37963000D01*
G36*
X23754167Y-37963000D02*
G01*
X23014167Y-37963000D01*
X23014167Y-35173000D01*
X23754167Y-35173000D01*
X23754167Y-37963000D01*
G37*
X23754167Y-42027000D02*
X23014167Y-42027000D01*
X23014167Y-39237000D01*
X23754167Y-39237000D01*
X23754167Y-42027000D01*
G36*
X23754167Y-42027000D02*
G01*
X23014167Y-42027000D01*
X23014167Y-39237000D01*
X23754167Y-39237000D01*
X23754167Y-42027000D01*
G37*
X25024167Y-37963000D02*
X24284167Y-37963000D01*
X24284167Y-35173000D01*
X25024167Y-35173000D01*
X25024167Y-37963000D01*
G36*
X25024167Y-37963000D02*
G01*
X24284167Y-37963000D01*
X24284167Y-35173000D01*
X25024167Y-35173000D01*
X25024167Y-37963000D01*
G37*
X25024167Y-42027000D02*
X24284167Y-42027000D01*
X24284167Y-39237000D01*
X25024167Y-39237000D01*
X25024167Y-42027000D01*
G36*
X25024167Y-42027000D02*
G01*
X24284167Y-42027000D01*
X24284167Y-39237000D01*
X25024167Y-39237000D01*
X25024167Y-42027000D01*
G37*
D12*
X109603101Y-64441100D03*
X111803101Y-64441100D03*
X111803101Y-62841100D03*
X109603101Y-62841100D03*
D13*
X53680000Y-53665000D03*
X53680000Y-55565000D03*
D14*
X49355649Y-68472400D03*
X49355649Y-69337400D03*
D15*
X25712500Y-30450000D03*
X28637500Y-30450000D03*
X104503101Y-64891100D03*
X107428101Y-64891100D03*
D13*
X56980000Y-53665000D03*
X56980000Y-55565000D03*
D16*
X75000000Y-98475000D03*
X75000000Y-95525000D03*
D17*
X97300000Y-78925000D03*
X97300000Y-81875000D03*
D18*
X59587500Y-87980000D03*
X59587500Y-90900000D03*
D19*
X27500000Y-116462500D03*
X27500000Y-113537500D03*
D20*
X86000001Y-28900000D03*
X87899999Y-28900000D03*
D15*
X28287500Y-101000000D03*
X31212500Y-101000000D03*
D21*
X113974999Y-46478300D03*
X113325001Y-46478300D03*
X112674999Y-46478300D03*
X112025001Y-46478300D03*
X112025001Y-50821700D03*
X112674999Y-50821700D03*
X113325001Y-50821700D03*
X113974999Y-50821700D03*
D22*
X51905649Y-70604900D03*
X55505649Y-70604900D03*
D23*
X41525000Y-117000000D03*
X44475000Y-117000000D03*
D16*
X105950000Y-87925000D03*
X105950000Y-84975000D03*
D24*
X106550700Y-76900000D03*
X108049300Y-76900000D03*
X95999300Y-90450000D03*
X94500700Y-90450000D03*
D25*
X36462500Y-97250000D03*
X33537500Y-97250000D03*
D13*
X69930000Y-53700000D03*
X69930000Y-55600000D03*
D26*
X107453101Y-62391100D03*
X104503101Y-62391100D03*
D13*
X50330000Y-53665000D03*
X50330000Y-55565000D03*
D27*
X30614167Y-12500000D03*
X30614167Y-15425000D03*
X25280834Y-12500000D03*
X25280834Y-15425000D03*
D16*
X72000000Y-98475000D03*
X72000000Y-95525000D03*
D28*
X31000000Y-105200000D03*
X31000000Y-103300000D03*
X29080000Y-104250000D03*
D26*
X67925000Y-85400000D03*
X64975000Y-85400000D03*
D29*
X56980000Y-52040000D03*
X56980000Y-50140000D03*
D17*
X45087500Y-74425000D03*
X45087500Y-77375000D03*
D28*
X40080000Y-100050000D03*
X40080000Y-101950000D03*
X42000000Y-101000000D03*
D15*
X6837500Y-12500000D03*
X9762500Y-12500000D03*
D27*
X22614167Y-12500000D03*
X22614167Y-15425000D03*
D16*
X108450000Y-87925000D03*
X108450000Y-84975000D03*
D29*
X50330000Y-52040000D03*
X50330000Y-50140000D03*
X73280000Y-52075000D03*
X73280000Y-50175000D03*
D17*
X109201101Y-55266100D03*
X109201101Y-58216100D03*
D26*
X36475000Y-102750000D03*
X33525000Y-102750000D03*
D30*
X39650000Y-23400000D03*
X39650000Y-21575000D03*
D19*
X39500000Y-108212500D03*
X39500000Y-105287500D03*
D31*
X51240000Y-27490000D03*
X51240000Y-26840000D03*
X51240000Y-26190000D03*
X49090000Y-26190000D03*
X49090000Y-26840000D03*
X49090000Y-27490000D03*
D32*
X101292750Y-54991101D03*
X101292750Y-55491100D03*
X101292750Y-55991099D03*
X101292750Y-56491100D03*
X101292750Y-56991100D03*
X101292750Y-57491101D03*
X101292750Y-57991100D03*
X101292750Y-58491099D03*
D33*
X101993851Y-59192200D03*
X102493850Y-59192200D03*
X102993849Y-59192200D03*
X103493850Y-59192200D03*
X103993850Y-59192200D03*
X104493851Y-59192200D03*
X104993850Y-59192200D03*
X105493849Y-59192200D03*
D32*
X106194950Y-58491099D03*
X106194950Y-57991100D03*
X106194950Y-57491101D03*
X106194950Y-56991100D03*
X106194950Y-56491100D03*
X106194950Y-55991099D03*
X106194950Y-55491100D03*
X106194950Y-54991101D03*
D33*
X105493849Y-54290000D03*
X104993850Y-54290000D03*
X104493851Y-54290000D03*
X103993850Y-54290000D03*
X103493850Y-54290000D03*
X102993849Y-54290000D03*
X102493850Y-54290000D03*
X101993851Y-54290000D03*
D34*
X103743850Y-56741100D03*
D23*
X33025000Y-113250000D03*
X35975000Y-113250000D03*
D27*
X111000000Y-84987500D03*
X111000000Y-87912500D03*
D24*
X109500700Y-89750000D03*
X110999300Y-89750000D03*
D35*
X58664481Y-38638819D03*
X58310928Y-38285266D03*
X57957375Y-37931713D03*
X57603821Y-37578159D03*
X57250268Y-37224606D03*
X56896714Y-36871052D03*
X56543161Y-36517499D03*
X56189608Y-36163946D03*
X55836054Y-35810392D03*
X55482501Y-35456839D03*
X55128948Y-35103286D03*
X54775394Y-34749732D03*
X54421841Y-34396179D03*
X54068287Y-34042625D03*
X53714734Y-33689072D03*
X53361181Y-33335519D03*
D36*
X50638819Y-33335519D03*
X50285266Y-33689072D03*
X49931713Y-34042625D03*
X49578159Y-34396179D03*
X49224606Y-34749732D03*
X48871052Y-35103286D03*
X48517499Y-35456839D03*
X48163946Y-35810392D03*
X47810392Y-36163946D03*
X47456839Y-36517499D03*
X47103286Y-36871052D03*
X46749732Y-37224606D03*
X46396179Y-37578159D03*
X46042625Y-37931713D03*
X45689072Y-38285266D03*
X45335519Y-38638819D03*
D35*
X45335519Y-41361181D03*
X45689072Y-41714734D03*
X46042625Y-42068287D03*
X46396179Y-42421841D03*
X46749732Y-42775394D03*
X47103286Y-43128948D03*
X47456839Y-43482501D03*
X47810392Y-43836054D03*
X48163946Y-44189608D03*
X48517499Y-44543161D03*
X48871052Y-44896714D03*
X49224606Y-45250268D03*
X49578159Y-45603821D03*
X49931713Y-45957375D03*
X50285266Y-46310928D03*
X50638819Y-46664481D03*
D36*
X53361181Y-46664481D03*
X53714734Y-46310928D03*
X54068287Y-45957375D03*
X54421841Y-45603821D03*
X54775394Y-45250268D03*
X55128948Y-44896714D03*
X55482501Y-44543161D03*
X55836054Y-44189608D03*
X56189608Y-43836054D03*
X56543161Y-43482501D03*
X56896714Y-43128948D03*
X57250268Y-42775394D03*
X57603821Y-42421841D03*
X57957375Y-42068287D03*
X58310928Y-41714734D03*
X58664481Y-41361181D03*
D15*
X21811667Y-43600000D03*
X24736667Y-43600000D03*
D16*
X27500000Y-111225000D03*
X27500000Y-108275000D03*
D19*
X84810000Y-84872500D03*
X84810000Y-81947500D03*
D17*
X100800000Y-78925000D03*
X100800000Y-81875000D03*
D13*
X76630000Y-53700000D03*
X76630000Y-55600000D03*
D17*
X30250000Y-108275000D03*
X30250000Y-111225000D03*
D19*
X87150000Y-62215000D03*
X87150000Y-59290000D03*
D24*
X87029300Y-79950000D03*
X85530700Y-79950000D03*
D23*
X53935000Y-24660000D03*
X56885000Y-24660000D03*
D37*
X116100000Y-51562500D03*
X116100000Y-49737500D03*
D25*
X36462500Y-100000000D03*
X33537500Y-100000000D03*
D38*
X69450000Y-85997500D03*
X69450000Y-84802500D03*
D26*
X114676101Y-55241100D03*
X111726101Y-55241100D03*
D16*
X114303101Y-65066100D03*
X114303101Y-62116100D03*
D26*
X119275000Y-81900000D03*
X116325000Y-81900000D03*
D25*
X91762500Y-90400000D03*
X88837500Y-90400000D03*
D17*
X48587500Y-74425000D03*
X48587500Y-77375000D03*
D19*
X14794167Y-15415000D03*
X14794167Y-12490000D03*
D39*
X54940001Y-31100000D03*
X56409999Y-31100000D03*
D16*
X43000000Y-108225000D03*
X43000000Y-105275000D03*
D40*
X76361181Y-46664481D03*
X76714734Y-46310928D03*
X77068287Y-45957375D03*
X77421841Y-45603821D03*
X77775394Y-45250268D03*
X78128948Y-44896714D03*
X78482501Y-44543161D03*
X78836054Y-44189608D03*
X79189608Y-43836054D03*
X79543161Y-43482501D03*
X79896714Y-43128948D03*
X80250268Y-42775394D03*
X80603821Y-42421841D03*
X80957375Y-42068287D03*
X81310928Y-41714734D03*
X81664481Y-41361181D03*
D41*
X81664481Y-38638819D03*
X81310928Y-38285266D03*
X80957375Y-37931713D03*
X80603821Y-37578159D03*
X80250268Y-37224606D03*
X79896714Y-36871052D03*
X79543161Y-36517499D03*
X79189608Y-36163946D03*
X78836054Y-35810392D03*
X78482501Y-35456839D03*
X78128948Y-35103286D03*
X77775394Y-34749732D03*
X77421841Y-34396179D03*
X77068287Y-34042625D03*
X76714734Y-33689072D03*
X76361181Y-33335519D03*
D40*
X73638819Y-33335519D03*
X73285266Y-33689072D03*
X72931713Y-34042625D03*
X72578159Y-34396179D03*
X72224606Y-34749732D03*
X71871052Y-35103286D03*
X71517499Y-35456839D03*
X71163946Y-35810392D03*
X70810392Y-36163946D03*
X70456839Y-36517499D03*
X70103286Y-36871052D03*
X69749732Y-37224606D03*
X69396179Y-37578159D03*
X69042625Y-37931713D03*
X68689072Y-38285266D03*
X68335519Y-38638819D03*
D41*
X68335519Y-41361181D03*
X68689072Y-41714734D03*
X69042625Y-42068287D03*
X69396179Y-42421841D03*
X69749732Y-42775394D03*
X70103286Y-43128948D03*
X70456839Y-43482501D03*
X70810392Y-43836054D03*
X71163946Y-44189608D03*
X71517499Y-44543161D03*
X71871052Y-44896714D03*
X72224606Y-45250268D03*
X72578159Y-45603821D03*
X72931713Y-45957375D03*
X73285266Y-46310928D03*
X73638819Y-46664481D03*
D15*
X33787500Y-105750000D03*
X36712500Y-105750000D03*
D13*
X73280000Y-53700000D03*
X73280000Y-55600000D03*
D42*
X99165500Y-29345000D03*
X99165500Y-29980000D03*
X99165500Y-30615000D03*
X99165500Y-31250000D03*
X99165500Y-31885000D03*
X99165500Y-32520000D03*
X99165500Y-33155000D03*
X99165500Y-33790000D03*
X99165500Y-34425000D03*
X99165500Y-35060000D03*
X99165500Y-35695000D03*
X99165500Y-36330000D03*
X99165500Y-36965000D03*
X99165500Y-37600000D03*
X99165500Y-38235000D03*
X99165500Y-38870000D03*
X99165500Y-39505000D03*
X99165500Y-40140000D03*
X99165500Y-40775000D03*
X99165500Y-41410000D03*
X99165500Y-42045000D03*
X99165500Y-42680000D03*
X99165500Y-43315000D03*
X99165500Y-43950000D03*
X99165500Y-44585000D03*
X99165500Y-45220000D03*
X99165500Y-45855000D03*
X99165500Y-46490000D03*
X108500000Y-46490000D03*
X108500000Y-45855000D03*
X108500000Y-45220000D03*
X108500000Y-44585000D03*
X108500000Y-43950000D03*
X108500000Y-43315000D03*
X108500000Y-42680000D03*
X108500000Y-42045000D03*
X108500000Y-41410000D03*
X108500000Y-40775000D03*
X108500000Y-40140000D03*
X108500000Y-39505000D03*
X108500000Y-38870000D03*
X108500000Y-38235000D03*
X108500000Y-37600000D03*
X108500000Y-36965000D03*
X108500000Y-36330000D03*
X108500000Y-35695000D03*
X108500000Y-35060000D03*
X108500000Y-34425000D03*
X108500000Y-33790000D03*
X108500000Y-33155000D03*
X108500000Y-32520000D03*
X108500000Y-31885000D03*
X108500000Y-31250000D03*
X108500000Y-30615000D03*
X108500000Y-29980000D03*
X108500000Y-29345000D03*
D43*
X51505649Y-64354900D03*
X55905649Y-64354900D03*
D44*
X63450000Y-88450000D03*
X63450000Y-89400000D03*
X63450000Y-90350000D03*
X65725000Y-90350000D03*
X65725000Y-89400000D03*
X65725000Y-88450000D03*
D19*
X30250000Y-116425000D03*
X30250000Y-113500000D03*
X59000000Y-99962500D03*
X59000000Y-97037500D03*
X68587500Y-91862500D03*
X68587500Y-88937500D03*
D15*
X27792500Y-35974150D03*
X30717500Y-35974150D03*
D27*
X20007500Y-12507500D03*
X20007500Y-15432500D03*
D45*
X68475000Y-98405000D03*
X68475000Y-97135000D03*
X68475000Y-95865000D03*
X68475000Y-94595000D03*
X63525000Y-94595000D03*
X63525000Y-95865000D03*
X63525000Y-97135000D03*
X63525000Y-98405000D03*
D13*
X46980000Y-53665000D03*
X46980000Y-55565000D03*
D15*
X44187500Y-27000000D03*
X47112500Y-27000000D03*
D13*
X79980000Y-53700000D03*
X79980000Y-55600000D03*
D29*
X69930000Y-52075000D03*
X69930000Y-50175000D03*
D46*
X122450000Y-30140000D03*
X122450000Y-45440000D03*
D27*
X71587500Y-88937500D03*
X71587500Y-91862500D03*
D29*
X76630000Y-52075000D03*
X76630000Y-50175000D03*
D47*
X46805649Y-69129900D03*
X47455649Y-69129900D03*
X48105649Y-69129900D03*
X48105649Y-67209900D03*
X47455649Y-67209900D03*
X46805649Y-67209900D03*
D48*
X16909168Y-30454400D03*
X17559167Y-30454400D03*
X18209165Y-30454400D03*
X18859166Y-30454400D03*
X19509165Y-30454400D03*
X20159166Y-30454400D03*
X20809165Y-30454400D03*
X21459166Y-30454400D03*
X22109165Y-30454400D03*
X22759166Y-30454400D03*
X23409165Y-30454400D03*
X24059166Y-30454400D03*
X24059166Y-24815600D03*
X23409167Y-24815600D03*
X22759166Y-24815600D03*
X22109168Y-24815600D03*
X21459166Y-24815600D03*
X20809168Y-24815600D03*
X20159169Y-24815600D03*
X19509168Y-24815600D03*
X18859169Y-24815600D03*
X18209168Y-24815600D03*
X17559169Y-24815600D03*
X16909168Y-24815600D03*
D26*
X56650000Y-80400000D03*
X53700000Y-80400000D03*
D27*
X17400834Y-12500000D03*
X17400834Y-15425000D03*
D18*
X56587500Y-87980000D03*
X56587500Y-90900000D03*
D29*
X46980000Y-52040000D03*
X46980000Y-50140000D03*
X79980000Y-52075000D03*
X79980000Y-50175000D03*
D19*
X27947500Y-15425000D03*
X27947500Y-12500000D03*
D20*
X58850001Y-25900000D03*
X60749999Y-25900000D03*
D25*
X41962500Y-110750000D03*
X39037500Y-110750000D03*
X113762500Y-76900000D03*
X110837500Y-76900000D03*
D19*
X84650000Y-62215000D03*
X84650000Y-59290000D03*
D44*
X101025000Y-83900000D03*
X101025000Y-84850000D03*
X101025000Y-85800000D03*
X103300000Y-85800000D03*
X103300000Y-83900000D03*
D49*
X87900000Y-82600000D03*
X87900000Y-84900000D03*
X87900000Y-87200000D03*
D50*
X93700000Y-84900000D03*
D51*
X29795000Y-44174150D03*
X31065000Y-44174150D03*
X32335000Y-44174150D03*
X33605000Y-44174150D03*
X33605000Y-38725850D03*
X32335000Y-38725850D03*
X31065000Y-38725850D03*
X29795000Y-38725850D03*
D52*
X17034167Y-40635000D03*
X17034167Y-36565000D03*
X18304167Y-40635000D03*
X18304167Y-36565000D03*
X19574167Y-40635000D03*
X19574167Y-36565000D03*
X20844167Y-40635000D03*
X20844167Y-36565000D03*
X22114167Y-40635000D03*
X22114167Y-36565000D03*
X23384167Y-40635000D03*
X23384167Y-36565000D03*
X24654167Y-40635000D03*
X24654167Y-36565000D03*
D53*
X46675000Y-81600000D03*
X46675000Y-87200000D03*
D15*
X32592500Y-35974150D03*
X35517500Y-35974150D03*
D54*
X83519723Y-45519723D03*
X82480277Y-44480277D03*
D55*
X46858149Y-65304900D03*
X48053149Y-65304900D03*
D15*
X53947500Y-27110000D03*
X56872500Y-27110000D03*
D56*
X7900000Y-58205000D03*
X7900000Y-57105000D03*
X7900000Y-56005000D03*
X7900000Y-54905000D03*
X7900000Y-53805000D03*
X7900000Y-52705000D03*
X7900000Y-51605000D03*
X7900000Y-50505000D03*
D57*
X5300000Y-61875000D03*
X13600000Y-61875000D03*
X5300000Y-48125000D03*
X13600000Y-48125000D03*
D44*
X111662500Y-80450000D03*
X111662500Y-81400000D03*
X111662500Y-82350000D03*
X113937500Y-82350000D03*
X113937500Y-80450000D03*
D30*
X39650000Y-26962500D03*
X39650000Y-25137500D03*
D29*
X53680000Y-52040000D03*
X53680000Y-50140000D03*
D26*
X114676101Y-58241100D03*
X111726101Y-58241100D03*
M02*
